<?xml version="1.0" encoding="utf-8"?>
<!-- Generator: Adobe Illustrator 26.0.1, SVG Export Plug-In . SVG Version: 6.00 Build 0)  -->
<svg version="1.1" id="Layer_1" xmlns="http://www.w3.org/2000/svg" xmlns:xlink="http://www.w3.org/1999/xlink" x="0px" y="0px"
	 viewBox="0 0 1111.3 1749.6" style="enable-background:new 0 0 1111.3 1749.6;" xml:space="preserve">
<style type="text/css">
	.st0{fill:url(#SVGID_1_);}
	.st1{fill:url(#SVGID_00000125565797879740464170000003032140701970260872_);}
	.st2{fill:url(#SVGID_00000121986115173211969830000015472770928135463319_);}
	.st3{fill:url(#SVGID_00000098941596807357061690000008380187254887370120_);}
	.st4{fill:url(#SVGID_00000180340501809425150670000001291798673034123659_);}
	.st5{fill:url(#SVGID_00000114060915764137588580000005566402917642722725_);}
	.st6{fill:url(#SVGID_00000170246839989578981960000012018284531640159380_);}
	.st7{fill:url(#SVGID_00000008150233259485084220000013552871413231511445_);}
	.st8{fill:url(#SVGID_00000017505938079779941250000008423321678273726616_);}
	.st9{fill:url(#SVGID_00000126286061273231805440000009796976876126924957_);}
	.st10{fill:url(#SVGID_00000123442110681174042700000006504298674644428987_);}
	.st11{fill:url(#SVGID_00000091714055304015264750000002118345620528363926_);}
	.st12{fill:url(#SVGID_00000067210829049777975610000003512002490042877104_);}
	.st13{fill:url(#SVGID_00000142879157115349919620000012570439238543704978_);}
	.st14{fill:url(#SVGID_00000162343625213164805510000004107891120038630281_);}
	.st15{fill:url(#SVGID_00000018950158688499302360000008724509675493576892_);}
	.st16{fill:url(#SVGID_00000160163385994644767090000015423927956934670757_);}
	.st17{fill:url(#SVGID_00000009548724682091370810000015056619714473621636_);}
	.st18{fill:url(#SVGID_00000134240175248768858760000010561654635357289102_);}
	.st19{fill:url(#SVGID_00000087372630190628625440000012211358574485871801_);}
	.st20{fill:url(#SVGID_00000131349836203733007120000012501917674228339883_);}
	.st21{fill:url(#SVGID_00000133523603279085508520000000904493052192097211_);}
	.st22{fill:#518E8E;}
	.st23{fill:url(#SVGID_00000065770411916594950320000004371837278718007217_);}
	.st24{fill:url(#SVGID_00000139972432643775846820000008236414726680654218_);}
	.st25{fill:#4E8482;}
	.st26{fill:url(#SVGID_00000176745685156428747730000010511554704461463958_);}
	.st27{fill:url(#SVGID_00000021120756284806362680000017984228702176078216_);}
	.st28{fill:url(#SVGID_00000039102263134629537150000000178049864263778743_);}
	.st29{fill:url(#SVGID_00000165231295819426254690000017043077148933455032_);}
	.st30{fill:url(#SVGID_00000151542055507387150030000008740240139338542015_);}
	.st31{fill:#41210F;}
	.st32{fill:#FFF7F3;}
	.st33{fill:url(#SVGID_00000094601218147278247740000001685374983355905723_);}
	.st34{fill:#2E5453;}
	.st35{fill:url(#SVGID_00000157995693318322036620000017826075047185428889_);}
	.st36{fill:url(#SVGID_00000175312272762878525230000012167042042621803916_);}
	.st37{fill:url(#SVGID_00000076590485379218538590000013660895808665719981_);}
	.st38{fill:url(#SVGID_00000070822600210197811360000002302677747300560026_);}
	.st39{fill:#4E2A10;}
	.st40{fill:#391E12;}
	.st41{fill:url(#SVGID_00000172418584275831094410000006627966431055160717_);}
	.st42{fill:#4F1D55;}
	.st43{fill:#AA794D;}
	.st44{fill:url(#SVGID_00000044882413597683878180000016745037639761597631_);}
	.st45{fill:url(#SVGID_00000071551996655481532020000017992199278873070774_);}
	.st46{fill:url(#SVGID_00000148662191208325206990000010100601400408593333_);}
	.st47{fill:url(#SVGID_00000007397160269219425240000017486115951035209391_);}
	.st48{fill:url(#SVGID_00000084503447557546228620000015183105293890567338_);}
	.st49{fill:url(#SVGID_00000006676866871715929930000007354366898885434556_);}
	.st50{fill:url(#SVGID_00000107575630889647292560000017025407780104327553_);}
	.st51{fill:url(#SVGID_00000001623097624384801420000014696856545093412757_);}
	.st52{fill:url(#SVGID_00000155137141181369185810000001862285996910153653_);}
	.st53{fill:url(#SVGID_00000004520190039455274030000012146668232794334647_);}
	.st54{fill:url(#SVGID_00000112605108767705814600000002196829468238729110_);}
	.st55{fill:url(#SVGID_00000129193059829600141980000011643922552703963785_);}
	.st56{fill:url(#SVGID_00000092449710038150932260000003308000922322103180_);}
	.st57{fill:url(#SVGID_00000163045177634380188090000005113649519264831890_);}
	.st58{fill:url(#SVGID_00000150800217975835737700000014782347905029100194_);}
	.st59{fill:url(#SVGID_00000113324058983227266220000003274618843655543210_);}
	.st60{fill:url(#SVGID_00000094577133489440458470000004286647115996156300_);}
	.st61{fill:none;stroke:#792881;stroke-width:10;stroke-linecap:round;stroke-miterlimit:10;}
	.st62{fill:url(#SVGID_00000008118739568255151970000014064112193625596844_);}
	.st63{fill:#FFFEF6;}
	.st64{fill:url(#SVGID_00000137122984677183330800000017130841646991938735_);}
	.st65{fill:url(#SVGID_00000103222738903113109990000011020244790779212948_);}
	.st66{fill:url(#SVGID_00000008841639676940350760000004375696114018099848_);}
	.st67{fill:url(#SVGID_00000008149484465439602910000013840953616327891075_);}
	.st68{fill:none;stroke:#40403F;stroke-width:9;stroke-miterlimit:10;}
	.st69{fill:#792881;}
	.st70{fill:url(#SVGID_00000164473300617516255260000013537946890890701476_);}
	.st71{fill:url(#SVGID_00000114033887583104623920000008443862758637382059_);}
	.st72{fill:#E0B853;}
	.st73{fill:url(#SVGID_00000158749444483040063760000009342349607730402707_);}
	.st74{fill:url(#SVGID_00000173864910447959689240000014466637019147733920_);}
	.st75{fill:url(#SVGID_00000037678890300267683550000017625765530158276490_);}
	.st76{fill:url(#SVGID_00000109029304806441753080000015728715271391368326_);}
	.st77{fill:#40403F;}
	.st78{fill:#9C509F;}
	.st79{fill:url(#SVGID_00000155119621521338568420000009958007626475742117_);}
	.st80{fill:#497C7C;}
	.st81{fill:url(#SVGID_00000053530278954840374880000017201728196235501976_);}
	.st82{fill:url(#SVGID_00000043428982435890207970000008271794310716181170_);}
	.st83{fill:url(#SVGID_00000103945278617125695040000010069587539705748651_);}
	.st84{fill:url(#SVGID_00000139282073769959982290000007790476207429811638_);}
	.st85{fill:url(#SVGID_00000142135557481386487060000012218645519668417930_);}
	.st86{fill:url(#SVGID_00000088110431896397593620000001891607163052770479_);}
	.st87{fill:#F9DB97;}
	.st88{fill:#FEEB7B;}
	.st89{fill:url(#SVGID_00000124126977961470382950000007072952792959133350_);}
	.st90{fill:url(#SVGID_00000059997803439455428080000000111640322294237369_);}
	.st91{fill:#365B5B;}
	.st92{fill:url(#SVGID_00000118357769488760122230000005987610612742295443_);}
	.st93{fill:url(#SVGID_00000168092563316349331970000010322995593482813332_);}
	.st94{fill:url(#SVGID_00000156565355503627351760000002032044060009346945_);}
	.st95{fill:#DBC090;}
	.st96{fill:#487C7C;}
	.st97{fill:#F6E6C6;}
	.st98{fill:#E6D16B;}
</style>
<g>
	
		<radialGradient id="SVGID_1_" cx="759.646" cy="806.17" r="167.532" gradientTransform="matrix(1 0 0 -1 0 1750)" gradientUnits="userSpaceOnUse">
		<stop  offset="0" style="stop-color:#FEEB7B"/>
		<stop  offset="2.400000e-02" style="stop-color:#F8E77C"/>
		<stop  offset="0.374" style="stop-color:#AFBB87"/>
		<stop  offset="0.664" style="stop-color:#7EA18C"/>
		<stop  offset="0.881" style="stop-color:#5E938E"/>
		<stop  offset="1" style="stop-color:#518E8E"/>
	</radialGradient>
	<path class="st0" d="M982.6,752.9L737.8,908.6c-0.2,9-0.8,18.2-1.9,27.7c-8.8,79.6-45.5,142.1-79,184.9
		c70.2,0.6,140.4,1.1,210.6,1.7c24.3-29.7,50.8-68.5,72.5-116.4C986.9,902.7,987.5,808.6,982.6,752.9L982.6,752.9z"/>
	
		<linearGradient id="SVGID_00000121973509658642754730000006943061102919661212_" gradientUnits="userSpaceOnUse" x1="735.321" y1="688.1888" x2="598.6461" y2="688.0389" gradientTransform="matrix(1 0 0 -1 0 1750)">
		<stop  offset="0" style="stop-color:#3C6665"/>
		<stop  offset="0.175" style="stop-color:#416E6D"/>
		<stop  offset="0.694" style="stop-color:#4D8585"/>
		<stop  offset="1" style="stop-color:#518E8E"/>
	</linearGradient>
	<path style="fill:url(#SVGID_00000121973509658642754730000006943061102919661212_);" d="M672.3,1121.6h-17.4
		c-18.8,3.2-31,1.2-36.3-5.8c-11.4-15.1,7.8-53.4,57.8-115.1c5.6,3.6,25.2,17,31.2,41.8C714.4,1070.9,700.5,1102.8,672.3,1121.6z"/>
	
		<linearGradient id="SVGID_00000119802749495021821450000000822119167564392376_" gradientUnits="userSpaceOnUse" x1="657.433" y1="650.6186" x2="738.019" y2="753.9025" gradientTransform="matrix(1 0 0 -1 0 1750)">
		<stop  offset="0" style="stop-color:#3C6665"/>
		<stop  offset="0.119" style="stop-color:#4A6D67"/>
		<stop  offset="0.347" style="stop-color:#6D826D"/>
		<stop  offset="0.662" style="stop-color:#A7AA75"/>
		<stop  offset="1" style="stop-color:#FEEB7B"/>
	</linearGradient>
	<path style="fill:url(#SVGID_00000119802749495021821450000000822119167564392376_);" d="M707.9,1023.2c2.6,5.9,13.4,32,1.5,58
		c-13.3,29.2-50,47.4-64.2,37.6c-11.4-7.9-8-34.2-1-50.5C659.9,1032.5,702.2,1024.3,707.9,1023.2z"/>
	
		<linearGradient id="SVGID_00000119097501801261001170000002572751361669170357_" gradientUnits="userSpaceOnUse" x1="758.689" y1="371.9849" x2="806.045" y2="675.7598" gradientTransform="matrix(1 0 0 -1 0 1750)">
		<stop  offset="0" style="stop-color:#3C6665"/>
		<stop  offset="0.175" style="stop-color:#416E6D"/>
		<stop  offset="0.694" style="stop-color:#4D8585"/>
		<stop  offset="1" style="stop-color:#518E8E"/>
	</linearGradient>
	<path style="fill:url(#SVGID_00000119097501801261001170000002572751361669170357_);" d="M656.9,1121.1
		c17.6-23.6,35.2-47.3,52.9-70.9c7,8,23.6,24.7,50.5,32.8c40.3,12.1,75.1-5.3,86.9-11.1c56.3-27.9,88.2-108.8,80.7-202.7
		c12.2,33,24.3,66,36.5,99.1c-12.8,27.6-29.1,58.4-50,90.5c-15.7,24.1-31.6,45.5-46.9,64.1L656.9,1121.1z"/>
	
		<linearGradient id="SVGID_00000150805588486191168200000015199789837083258248_" gradientUnits="userSpaceOnUse" x1="821.3874" y1="769.5437" x2="1105.3864" y2="989.1377" gradientTransform="matrix(1 0 0 -1 0 1750)">
		<stop  offset="0" style="stop-color:#3C6665"/>
		<stop  offset="0.175" style="stop-color:#416E6D"/>
		<stop  offset="0.694" style="stop-color:#4D8585"/>
		<stop  offset="1" style="stop-color:#518E8E"/>
	</linearGradient>
	<path style="fill:url(#SVGID_00000150805588486191168200000015199789837083258248_);" d="M767,837.4c18.1-15.6,36.9-21.3,46.4-23.4
		c36.5-29.8,73.1-59.6,109.6-89.4c0.8,11.3,3.6,24,12.9,29.8c17.2,10.8,38.2-13.4,55.8-4.4c16.8,8.6,18.5,41.2,18.4,87.4
		c-0.1,49.3-1.8,40.1-8.3,96.5c-8.2,71.6-13.9,85.3-21,96.9c-1.9,3.1-32,51.4-60.8,45.1c-19.6-4.3-28.5-31.1-37.8-59.5
		c-12.3-37.3-14-71.2-12.7-96.7c-10.5-8.9-29.3-22.5-56-30.5c-34.7-10.5-64.3-6.1-78.6-3C738,876.6,746.2,855.4,767,837.4L767,837.4
		z"/>
	
		<linearGradient id="SVGID_00000016047808230209646390000016596292900058316947_" gradientUnits="userSpaceOnUse" x1="733.9261" y1="760.4661" x2="984.6071" y2="871.4141" gradientTransform="matrix(1 0 0 -1 0 1750)">
		<stop  offset="0" style="stop-color:#FEEB7B"/>
		<stop  offset="2.400000e-02" style="stop-color:#F8E77C"/>
		<stop  offset="0.374" style="stop-color:#AFBB87"/>
		<stop  offset="0.664" style="stop-color:#7EA18C"/>
		<stop  offset="0.881" style="stop-color:#5E938E"/>
		<stop  offset="1" style="stop-color:#518E8E"/>
	</linearGradient>
	<path style="fill:url(#SVGID_00000016047808230209646390000016596292900058316947_);" d="M781.7,852.4
		c15.6-13.4,25.5-27.9,31.6-38.5c36-27.6,72-55.3,108-82.9c0.7,3.3,4.6,20.1,17,24.5c7.3,2.6,15.5,0.3,20.9-1.2
		c9.1-2.5,11.8-5.9,20.3-6.3c1.2-0.1,7.3-0.3,12.3,1.8c10,4.3,15.9,18.1,15.6,34.2c-6.4-1.9-16.9-3.9-29.4-1.7
		c-27,4.8-41.7,25.8-44.8,30.4c16.4-9.1,36.4-8,51.1,2.7c20.7,15.1,19.2,40.6,19.1,42.1c-1.8-2.9-20.7-32.9-48.5-33.1
		c-30-0.2-62.8,34.5-60.8,83.8c0.5-5.1,3.9-34.3,28.2-50.5c5.1-3.4,17.5-11.6,33.7-9.2c21.9,3.2,32.7,22.8,34.1,25.4
		c-3-2.5-17.6-14.1-38.6-12.6c-25.1,1.9-38.8,21-40.5,23.6c6.5-3.2,24-10.6,45.5-6.3c10.5,2.1,18.5,6.3,23.8,9.7
		c19,14.2,24,38.5,22.3,39.3c-1.9,0.9-8.4-28.6-31.4-37.5c-11.4-4.4-22.7-2.3-29.8-0.2c7,1,22.2,4.2,36.8,15.8
		c12,9.5,18.3,20.5,21.3,26.7c-5.6-6.3-18.2-18.6-38.4-25c-29.3-9.3-54.3,0.3-61.2,3.2c5-1.3,28.6-6.6,49.4,6.6
		c18.6,11.8,26.6,33.1,29.1,39.7c4,11.1,4.7,20.9,4.7,27.3c-2.6-7.5-6.5-16.1-12.6-24.9c-19.2-27.8-47.1-38.6-59.3-42.4
		c14.5,7.5,36.7,22.1,52.4,48.2c3.6,6.1,6.5,12,8.7,17.6c-2.3-4.1-5.3-8.8-9.4-13.4c-11.7-13.3-25.6-19.3-33.8-22
		c9.1,4.7,23.7,13.9,36,30.4c6,8.1,9.9,15.9,12.5,22.4c1.5,5.9,5.3,24-3.9,42.6c-10.1,20.5-33.9,37.5-53.7,32.8
		c-20-4.8-28.1-30.1-37.8-59.5c-12.3-37.3-14-71.2-12.7-96.7c-2.7,4.4-22.5,36-56.5,38.7c-46.1,3.6-85.7-48.5-78-72.2
		C739.2,872.9,756,874.6,781.7,852.4L781.7,852.4z"/>
	
		<linearGradient id="SVGID_00000031178879386163949860000000642953445719592633_" gradientUnits="userSpaceOnUse" x1="772.2747" y1="857.6565" x2="845.5167" y2="1023.7245" gradientTransform="matrix(1 0 0 -1 0 1750)">
		<stop  offset="0" style="stop-color:#FEEB7B"/>
		<stop  offset="6.000000e-03" style="stop-color:#E8DD7F"/>
		<stop  offset="1.900000e-02" style="stop-color:#C4C785"/>
		<stop  offset="3.400000e-02" style="stop-color:#A4B588"/>
		<stop  offset="5.000000e-02" style="stop-color:#8BA78B"/>
		<stop  offset="6.800000e-02" style="stop-color:#779D8C"/>
		<stop  offset="9.000000e-02" style="stop-color:#67968D"/>
		<stop  offset="0.116" style="stop-color:#5B918E"/>
		<stop  offset="0.153" style="stop-color:#538F8E"/>
		<stop  offset="0.256" style="stop-color:#518E8E"/>
		<stop  offset="0.502" style="stop-color:#4E8787"/>
		<stop  offset="0.825" style="stop-color:#457877"/>
	</linearGradient>
	<path style="fill:url(#SVGID_00000031178879386163949860000000642953445719592633_);" d="M914.1,706c7.4,12.4,11.4,25.1,11.4,25.1
		c2.4,7.6,3.6,14.2,4.2,19.1c1.3,12.1,1.8,31.7-4.7,53.5c-5.1,17-10,30.1-20.5,38.7c-34.2,27.8-86.6-12.9-114.9-44.4
		c-26.1-29.2-38.8-56.2-39.4-61c-2.1-15.2-0.8-27.7-0.1-34.9c2.2-21.1,4-38.1,14.6-48.5c19.7-19.2,60.1-13.3,74.8-7.9
		C839.5,645.6,886.1,659.2,914.1,706L914.1,706z"/>
	
		<linearGradient id="SVGID_00000002350972269717252060000013420347722933119372_" gradientUnits="userSpaceOnUse" x1="760.7721" y1="799.8549" x2="869.0261" y2="1080.5159" gradientTransform="matrix(1 0 0 -1 0 1750)">
		<stop  offset="0" style="stop-color:#FEEB7B"/>
		<stop  offset="4.200000e-02" style="stop-color:#D0CF83"/>
		<stop  offset="8.700000e-02" style="stop-color:#AAB888"/>
		<stop  offset="0.135" style="stop-color:#8AA78B"/>
		<stop  offset="0.183" style="stop-color:#739B8D"/>
		<stop  offset="0.232" style="stop-color:#61948D"/>
		<stop  offset="0.284" style="stop-color:#558F8E"/>
		<stop  offset="0.342" style="stop-color:#518E8E"/>
		<stop  offset="0.583" style="stop-color:#4C8483"/>
		<stop  offset="0.665" style="stop-color:#4A7F7F"/>
	</linearGradient>
	<path style="fill:url(#SVGID_00000002350972269717252060000013420347722933119372_);" d="M914.6,706.4c4.9,8.3,8.5,17.2,8.5,17.2
		c1.9,4.7,2.9,7.9,2.9,7.9c1.4,4.9,3.1,11.4,4.2,19.1c0,0,2,12.7,1.7,24.5c-0.4,18.3-6.9,34.1-12.7,47.5
		c-17.1,39-35.8,72.5-37.6,71.6c-1.1-0.6,5.8-12.9,7.3-34c0.3-3.7,0.3-6.9,0.3-9.3c-19.2,0.5-33.3-4-41.2-7.3
		c-21.9-9-53.1-31.4-51.1-56.6c0.4-5.8,2.5-10.4,4.1-13.2c23.7,52.4,64.7,77.4,89.4,68.3c24.1-8.8,30.1-49.3,30.3-70.2
		c0.4-47.6-33.3-77.8-42-85.6c-45.4-40.7-103.7-33.6-113.3-32.2c6.7-5.8,13.2-9,18.7-10.8c2.2-0.7,8.7-2.7,21.9-2.4
		c8.3,0.2,20.1,1.2,34.2,5.3c13.5,4.8,23.9,10.6,31,15.3C871.1,661.2,898.8,679.4,914.6,706.4L914.6,706.4z"/>
	
		<linearGradient id="SVGID_00000045587049211497864730000013153390783240167303_" gradientUnits="userSpaceOnUse" x1="1229.9777" y1="2503.3716" x2="1316.5906" y2="2590.5596" gradientTransform="matrix(0.8852 -0.4653 -0.4653 -0.8852 891.8274 3674.7114)">
		<stop  offset="0" style="stop-color:#FEEB7B"/>
		<stop  offset="1.800000e-02" style="stop-color:#F8E77C"/>
		<stop  offset="0.277" style="stop-color:#AFBB87"/>
		<stop  offset="0.491" style="stop-color:#7EA18C"/>
		<stop  offset="0.652" style="stop-color:#5E938E"/>
		<stop  offset="0.74" style="stop-color:#518E8E"/>
		<stop  offset="0.96" style="stop-color:#4A7F7F"/>
	</linearGradient>
	<path style="fill:url(#SVGID_00000045587049211497864730000013153390783240167303_);" d="M896.8,723
		c23.1,33.8,16.1,88.8-11.7,101.2c-20.8,9.3-49.1-7.1-63.7-24.4c-27.8-32.8-26.5-92.3,1-107.1C844,681,879.9,698.3,896.8,723z"/>
	
		<linearGradient id="SVGID_00000145754328090478918620000015837576835349252522_" gradientUnits="userSpaceOnUse" x1="810.0505" y1="942.365" x2="842.7234" y2="1084.795" gradientTransform="matrix(1 0 0 -1 0 1750)">
		<stop  offset="0" style="stop-color:#FEEB7B"/>
		<stop  offset="0.642" style="stop-color:#FADF90"/>
		<stop  offset="1" style="stop-color:#F9DB97"/>
	</linearGradient>
	<path style="fill:url(#SVGID_00000145754328090478918620000015837576835349252522_);" d="M874,690.6c31.1,35.5,35.6,82.6,9.9,105.1
		c-25.7,22.5-71.7,11.9-102.8-23.6s-35.6-82.6-9.9-105.1S842.9,655.1,874,690.6z"/>
	
		<linearGradient id="SVGID_00000061432088944250930660000012541878842689965714_" gradientUnits="userSpaceOnUse" x1="774.4825" y1="917.3442" x2="805.2645" y2="1047.9591" gradientTransform="matrix(1 0 0 -1 0 1750)">
		<stop  offset="0" style="stop-color:#FEEB7B"/>
		<stop  offset="2.500000e-02" style="stop-color:#F0DF77"/>
		<stop  offset="0.374" style="stop-color:#867D56"/>
		<stop  offset="0.664" style="stop-color:#4E4A3C"/>
		<stop  offset="0.881" style="stop-color:#32312E"/>
		<stop  offset="1" style="stop-color:#282828"/>
	</linearGradient>
	<path style="fill:url(#SVGID_00000061432088944250930660000012541878842689965714_);" d="M742.4,704.1c-1.1-4.3-2.2-11.4-0.5-19.7
		c3.1-15.4,13.7-24.3,17.9-27.8c15.3-12.9,32.6-13.4,37.1-13.4c8,0,14.4,1.7,18.5,3.1c6.1,0.3,13.8,1.5,22.1,5
		c25,10.6,35.2,34.2,37.7,40.6c-8.2-6.5-15.5-9.8-20.7-11.6c-8.2-2.8-14.1-3-24.3-7.4c-5.1-2.2-9-4.5-11.5-6.1
		c-0.4,4.3-2.6,21.5-17.5,35.2c-16.8,15.4-37.1,14.5-40.7,14.3c1.5,1.6,3.6,4.3,5.4,7.9c4.6,9.2,3.3,16.4,4.6,24.8
		c0.9,5.7,3.4,13.7,10.6,23c-5.2-2.9-36-20.4-39.5-51.6C741.1,715.9,741.1,710.4,742.4,704.1L742.4,704.1z"/>
	
		<linearGradient id="SVGID_00000152982538071240837020000009096890147083434895_" gradientUnits="userSpaceOnUse" x1="791.4991" y1="969.6964" x2="817.1991" y2="1004.5385" gradientTransform="matrix(1 0 0 -1 0 1750)">
		<stop  offset="0" style="stop-color:#FEEB7B"/>
		<stop  offset="2.500000e-02" style="stop-color:#F0DF77"/>
		<stop  offset="0.374" style="stop-color:#867D56"/>
		<stop  offset="0.664" style="stop-color:#4E4A3C"/>
		<stop  offset="0.881" style="stop-color:#32312E"/>
		<stop  offset="1" style="stop-color:#282828"/>
	</linearGradient>
	<path style="fill:url(#SVGID_00000152982538071240837020000009096890147083434895_);" d="M792.6,759.9c0.2-0.8,9.6,3.6,17.9-0.9
		c6.5-3.5,9.6-11,11.2-16.8c3.2,8,1.1,16.8-4.4,21.3C807.4,771.3,792.3,760.8,792.6,759.9z"/>
	
		<linearGradient id="SVGID_00000010275863820924525620000012063082519632006557_" gradientUnits="userSpaceOnUse" x1="827.4705" y1="1040.1007" x2="845.9435" y2="1066.6897" gradientTransform="matrix(1 0 0 -1 0 1750)">
		<stop  offset="0" style="stop-color:#FEEB7B"/>
		<stop  offset="2.500000e-02" style="stop-color:#F0DF77"/>
		<stop  offset="0.374" style="stop-color:#867D56"/>
		<stop  offset="0.664" style="stop-color:#4E4A3C"/>
		<stop  offset="0.881" style="stop-color:#32312E"/>
		<stop  offset="1" style="stop-color:#282828"/>
	</linearGradient>
	<path style="fill:url(#SVGID_00000010275863820924525620000012063082519632006557_);" d="M855.4,689.3c-0.5,0.5-6.5-3.1-15.4-0.8
		c-7.1,1.8-13,6.5-16.9,10.2c0.8-5.5,6.6-11.2,13.2-13.7C848,680.6,856.1,688.6,855.4,689.3L855.4,689.3z"/>
	
		<linearGradient id="SVGID_00000090288760059296769660000014214492202224997036_" gradientUnits="userSpaceOnUse" x1="777.2898" y1="998.8339" x2="794.4408" y2="1023.0688" gradientTransform="matrix(1 0 0 -1 0 1750)">
		<stop  offset="0" style="stop-color:#FEEB7B"/>
		<stop  offset="2.500000e-02" style="stop-color:#F0DF77"/>
		<stop  offset="0.374" style="stop-color:#867D56"/>
		<stop  offset="0.664" style="stop-color:#4E4A3C"/>
		<stop  offset="0.881" style="stop-color:#32312E"/>
		<stop  offset="1" style="stop-color:#282828"/>
	</linearGradient>
	<path style="fill:url(#SVGID_00000090288760059296769660000014214492202224997036_);" d="M784.9,751.5c0.5-0.5-2.2-6.8,1.3-15.4
		c2.8-6.8,8.2-12,12.4-15.4c-5.6,0.1-12,5-15.3,11.2C777.3,743,784.2,752.1,784.9,751.5L784.9,751.5z"/>
	
		<linearGradient id="SVGID_00000069371353070715060950000007302277857639883194_" gradientUnits="userSpaceOnUse" x1="831.9344" y1="1004.832" x2="866.7294" y2="1042.804" gradientTransform="matrix(1 0 0 -1 0 1750)">
		<stop  offset="0" style="stop-color:#FEEB7B"/>
		<stop  offset="2.500000e-02" style="stop-color:#F0DF77"/>
		<stop  offset="0.374" style="stop-color:#867D56"/>
		<stop  offset="0.664" style="stop-color:#4E4A3C"/>
		<stop  offset="0.881" style="stop-color:#32312E"/>
		<stop  offset="1" style="stop-color:#282828"/>
	</linearGradient>
	<path style="fill:url(#SVGID_00000069371353070715060950000007302277857639883194_);" d="M863.6,698.7c-0.8,0.1,1.8,10.1-4.1,17.4
		c-4.7,5.8-12.6,7.4-18.6,7.9c7.3,4.6,16.4,4.1,21.7-0.5C872.2,715.3,864.7,698.6,863.6,698.7L863.6,698.7z"/>
	
		<linearGradient id="SVGID_00000124869142554974373010000015282826235089682858_" gradientUnits="userSpaceOnUse" x1="834.4246" y1="950.6888" x2="863.9886" y2="980.9908" gradientTransform="matrix(1 0 0 -1 0 1750)">
		<stop  offset="0" style="stop-color:#FEEB7B"/>
		<stop  offset="2.500000e-02" style="stop-color:#F0DF77"/>
		<stop  offset="0.374" style="stop-color:#867D56"/>
		<stop  offset="0.664" style="stop-color:#4E4A3C"/>
		<stop  offset="0.881" style="stop-color:#32312E"/>
		<stop  offset="1" style="stop-color:#282828"/>
	</linearGradient>
	<path style="fill:url(#SVGID_00000124869142554974373010000015282826235089682858_);" d="M877.9,747.6c-1,4.2-4.5,16.4-16.2,26.1
		c-10.3,8.6-21.2,10.5-25.6,11c1,0.3,17.6,5.3,31-6.2C876,771,880.1,759.1,877.9,747.6L877.9,747.6z"/>
	
		<linearGradient id="SVGID_00000173119932632878709160000006287776100117232287_" gradientUnits="userSpaceOnUse" x1="960.661" y1="726" x2="527.629" y2="726" gradientTransform="matrix(1 0 0 -1 0 1750)">
		<stop  offset="0" style="stop-color:#3C6665"/>
		<stop  offset="0.119" style="stop-color:#4A6D67"/>
		<stop  offset="0.347" style="stop-color:#6D826D"/>
		<stop  offset="0.662" style="stop-color:#A7AA75"/>
		<stop  offset="1" style="stop-color:#FEEB7B"/>
	</linearGradient>
	<path style="fill:url(#SVGID_00000173119932632878709160000006287776100117232287_);" d="M962.2,1024c0,30.9-25.1,56-56,56
		s-56-25.1-56-56s25.1-56,56-56S962.2,993.1,962.2,1024z"/>
	
		<linearGradient id="SVGID_00000030449895458928324980000002319641906189144470_" gradientUnits="userSpaceOnUse" x1="878.0436" y1="784.7872" x2="952.4545" y2="869.0092" gradientTransform="matrix(1 0 0 -1 0 1750)">
		<stop  offset="0" style="stop-color:#FEEB7B"/>
		<stop  offset="2.400000e-02" style="stop-color:#F8E77C"/>
		<stop  offset="0.374" style="stop-color:#AFBB87"/>
		<stop  offset="0.664" style="stop-color:#7EA18C"/>
		<stop  offset="0.881" style="stop-color:#5E938E"/>
		<stop  offset="1" style="stop-color:#518E8E"/>
	</linearGradient>
	<path style="fill:url(#SVGID_00000030449895458928324980000002319641906189144470_);" d="M1009.2,874.6c-0.1,3-0.4,6.1-0.8,9.5
		c-0.3,2.5-0.7,4.8-1.1,7c-3.5-26.2-23.2-46.5-46.9-50c-28.5-4.2-58,16.8-63.6,48.9c2.8-30.8,27.6-54.2,56-55.1
		C977.2,834.2,1000.3,850.1,1009.2,874.6L1009.2,874.6z"/>
	
		<linearGradient id="SVGID_00000106138738386559331430000008121117007785496970_" gradientUnits="userSpaceOnUse" x1="674.3281" y1="757.9214" x2="892.9511" y2="861.3464" gradientTransform="matrix(1 0 0 -1 0 1750)">
		<stop  offset="0.709" style="stop-color:#FEEB7B"/>
		<stop  offset="0.896" style="stop-color:#FADF90"/>
		<stop  offset="1" style="stop-color:#F9DB97"/>
	</linearGradient>
	<path style="fill:url(#SVGID_00000106138738386559331430000008121117007785496970_);" d="M850.5,819.7
		c33.7,41.4,66.8,91.6,93.8,151.4c4.2,9.4,8.2,18.7,11.9,28c-0.8,5.9-2.9,15.4-9.1,25c-3.5,5.4-14.7,23.1-29.4,22
		c-12.4-0.9-20.3-13.7-25.6-22.2c-11.4-18.4-13.5-36.8-14-42.5c-0.1-0.7-0.1-1.2-0.1-1.4c-0.9-13.5-11.9-52.5-44.3-142.9
		c-4.7,1.3-12.8,2.9-22.2,0.6c-22.2-5.4-31.2-27.3-32.2-29.9c-15.1-3.2-26.4-2-33.9-0.3c-6.4,1.5-14,4.2-21.9,0.9
		c-4.4-1.8-7.3-4.9-9.1-7.1c12.2-2.3,25.4-4.3,39.6-5.7c11.8-1.2,22.9-1.8,33.4-2.1C808.4,802.1,829.4,810.9,850.5,819.7z"/>
	
		<linearGradient id="SVGID_00000168812827219999794530000003624753841207895726_" gradientUnits="userSpaceOnUse" x1="711.2272" y1="750.8709" x2="682.0502" y2="743.6839" gradientTransform="matrix(1 0 0 -1 0 1750)">
		<stop  offset="0.709" style="stop-color:#FEEB7B"/>
		<stop  offset="0.896" style="stop-color:#FADF90"/>
		<stop  offset="1" style="stop-color:#F9DB97"/>
	</linearGradient>
	<path style="fill:url(#SVGID_00000168812827219999794530000003624753841207895726_);" d="M667.3,1024.8c-1.2-5.6,3.8-8.4,5.8-19.1
		c1-5.2,0.7-9.6,0.4-12.4c0.5-1.9,1-4.7,0.8-8.1c-0.1-2.4-0.6-4.4-1-6c3.1-1.8,5.2-1.5,6.4-1.2c5.8,1.8,6.6,12.7,6.9,16.7
		c0.4,5.3-0.3,10-1.3,13.7c0.9,0.6,2.2,1.4,3.9,2.4c1.3,0.7,2.2,1.2,2.4,1.3c1.6,0.9,3.6,3.4,5.6,10.9c-2,6.6-6.8,11.4-12.5,12.4
		C676.3,1037,668.6,1030.7,667.3,1024.8L667.3,1024.8z"/>
	
		<linearGradient id="SVGID_00000061435697567115013770000017777569081449703602_" gradientUnits="userSpaceOnUse" x1="870.8431" y1="783.2979" x2="649.4091" y2="686.3461" gradientTransform="matrix(1 0 0 -1 0 1750)">
		<stop  offset="0.562" style="stop-color:#FEEB7B"/>
		<stop  offset="0.685" style="stop-color:#FADF90"/>
		<stop  offset="0.754" style="stop-color:#F9DB97"/>
	</linearGradient>
	<path style="fill:url(#SVGID_00000061435697567115013770000017777569081449703602_);" d="M701.9,998.9
		c17.8,18.6,19.5,29.5,17.5,36.2c-1,3.1-2.7,5.3-2.3,8.7c1.1,8.1,13.5,13.1,23.9,16c-1.2,2.4-2.4,4.8-3.6,7.1
		c-17.3-3.6-31.5-4.7-41.5-5c-11-0.3-16.5,0.4-21.6-3.3c-10.1-7.3-9.4-25.2-7.7-37C678.4,1014.1,690.2,1006.5,701.9,998.9
		L701.9,998.9z"/>
	
		<linearGradient id="SVGID_00000067213452798247979450000009704522383432550049_" gradientUnits="userSpaceOnUse" x1="832.489" y1="798.223" x2="762.468" y2="745.199" gradientTransform="matrix(1 0 0 -1 0 1750)">
		<stop  offset="0.709" style="stop-color:#FEEB7B"/>
		<stop  offset="0.896" style="stop-color:#FADF90"/>
		<stop  offset="1" style="stop-color:#F9DB97"/>
	</linearGradient>
	<path style="fill:url(#SVGID_00000067213452798247979450000009704522383432550049_);" d="M728.9,1002.4c-7.1,4.1-8.6,5-10.8,6.9
		c-5.5,4.8-10.3,11.7-9.2,13c0.2,0.2,0.7,0.4,1.8,0c10.3-6.8,20.7-13.6,31.3-20.3c7.8-5,15.5-9.9,23.2-14.7c3.9-1.4,8.1,0.6,9.5,4.2
		c1.6,3.9-0.5,8.8-4.8,10.3c-7,5.5-14,11-21,16.4c-11.3,7.1-20.4,11.8-26.7,14.8c-3.1,1.5-7.9,3.7-7.6,4.8c0.3,1,5.3,0.5,9.6-0.2
		c14.8-3.3,24.2-9,30-13.7c6.5-5.2,12.5-12.2,18.3-10.6c3,0.8,4.8,3.6,5.9,5.7c-5.3,6.1-13.2,13.8-24.1,20.5
		c-4.1,2.5-9.1,4.9-9.6,5.2c-6.4,3.2-12.1,5.4-16.2,6.9c-0.7,0.2-5.2,1.4-5.1,2.6c0.1,1,3.1,1.7,5.1,1.8c3.8,0.3,6.1-0.8,11.4-2.3
		c4.5-1.3,4.1-0.8,7.6-1.8c8.3-2.4,14.7-6.4,15.8-7.1c6.1-3.8,7.6-6.3,11.1-6c2.9,0.2,5.1,2.2,6.4,3.8c-3.8,4.1-9,9-15.9,13.4
		c-6,3.8-16.4,10.5-27.6,11c-5.1,0.2-9.8-0.9-9.8-0.9c-2.5-0.6-4.5-1.3-5.9-1.9c-0.5-2.8-0.9-5.7-1.4-8.5c-0.8,0.3-3.7,1.4-6.8,0.2
		c-1.3-0.5-2.2-1.2-2.8-1.8l-0.9-13.8c-4.8,1.6-9.7-0.8-11.3-4.9c-1.2-3.2-0.2-7.2,2.8-9.7c-0.2-0.8-0.4-1.5-0.6-2.3
		c-6.7-3-7.4-6.6-7.6-7.5c-0.3-1.8,0.5-3.2,4.9-10.3c3.4-5.4,5.1-8.2,5.5-8.7c3.4-4,6.9-5.8,13.6-9.1c6.4-3.1,9.2-3.8,17.8-7.3
		c5.3-2.2,9.5-4.1,12-5.3c1,0.4,4.6,1.9,5.5,5.2c0.3,1.3,0.1,2.7-0.4,4C749.5,990.8,740.1,996,728.9,1002.4L728.9,1002.4z"/>
	<path class="st22" d="M158.2,330.8c7.8,27,2.3,52.3-12.2,56.5s-32.5-14.4-40.3-41.4c-7.8-27-2.3-52.3,12.2-56.5
		S150.5,303.8,158.2,330.8L158.2,330.8z"/>
	
		<linearGradient id="SVGID_00000047769542958292125160000017774511081231861409_" gradientUnits="userSpaceOnUse" x1="160.1182" y1="1411.2252" x2="342.3122" y2="1431.7612" gradientTransform="matrix(1 0 0 -1 0 1750)">
		<stop  offset="0" style="stop-color:#FEEB7B"/>
		<stop  offset="0.343" style="stop-color:#B6BF87"/>
		<stop  offset="0.651" style="stop-color:#81A28C"/>
		<stop  offset="0.878" style="stop-color:#5F938E"/>
		<stop  offset="1" style="stop-color:#518E8E"/>
	</linearGradient>
	<path style="fill:url(#SVGID_00000047769542958292125160000017774511081231861409_);" d="M432,352.4c-32.4-2.7-64.8-5.5-97.2-8.2
		c-1.6-10.2-3.2-20.5-4.9-30.7c2.9-30.4-8.9-58.3-31-71.2c-12.2-7.2-24.8-8-32.7-7.8c6.4,67.1,10.9,116,11.1,131.8
		c0,2.7,0.1,10.5,6,17.1c5.4,6.1,13.4,8.5,19.3,9.6c37.3,2.8,74.5,5.6,111.8,8.4c3.5,0.4,11.9,0.9,20.3-3.2
		c1.9-0.9,13.9-6.9,14.7-16.5c0-0.5,0-1,0.1-1C449.6,380.6,445.7,374.2,432,352.4L432,352.4z"/>
	
		<linearGradient id="SVGID_00000097492894656902464120000012919811462755935157_" gradientUnits="userSpaceOnUse" x1="305.7712" y1="1523.1964" x2="369.8082" y2="1350.2814" gradientTransform="matrix(1 0 0 -1 0 1750)">
		<stop  offset="0.537" style="stop-color:#FEEB7B"/>
		<stop  offset="0.696" style="stop-color:#B6BF87"/>
		<stop  offset="0.838" style="stop-color:#81A28C"/>
		<stop  offset="0.943" style="stop-color:#5F938E"/>
		<stop  offset="1" style="stop-color:#518E8E"/>
	</linearGradient>
	<path style="fill:url(#SVGID_00000097492894656902464120000012919811462755935157_);" d="M430,352.4c-32.4-2.7-64.8-5.5-97.2-8.2
		c-11.9-1.6-23.8-3.3-35.6-4.9c-0.9-0.1-12.6-0.9-14.5,3.7c-1.7,4,4.1,11.8,15.6,17.8c-10.6-3.5-20.3-0.3-22.9,5.5
		c-3.1,6.8,4.5,15.4,6,17.1c5.4,6.1,13.4,8.5,19.3,9.6c37.3,2.8,74.5,5.6,111.8,8.4c3.5,0.4,11.9,0.9,20.3-3.2
		c1.9-0.9,13.9-6.9,14.7-16.5c0-0.5,0-1,0.1-1C447.6,380.6,443.7,374.2,430,352.4z"/>
	<path class="st25" d="M246.6,238.9l-43.8,5.9l-2.8-16.1l43.7-5.9L246.6,238.9z"/>
	
		<linearGradient id="SVGID_00000045607677765135645930000009044495546272684202_" gradientUnits="userSpaceOnUse" x1="254.2706" y1="1493.1792" x2="189.2986" y2="1531.9762" gradientTransform="matrix(1 0 0 -1 0 1750)">
		<stop  offset="0" style="stop-color:#FEEB7B"/>
		<stop  offset="2.000000e-02" style="stop-color:#EFDC75"/>
		<stop  offset="0.171" style="stop-color:#AA9455"/>
		<stop  offset="0.32" style="stop-color:#7C643D"/>
		<stop  offset="0.463" style="stop-color:#5D462B"/>
		<stop  offset="0.599" style="stop-color:#4A331F"/>
		<stop  offset="0.725" style="stop-color:#402817"/>
		<stop  offset="0.831" style="stop-color:#3C2415"/>
	</linearGradient>
	<path style="fill:url(#SVGID_00000045607677765135645930000009044495546272684202_);" d="M239.2,266.1l-59.6,8.1l-16.1-89.8
		l59.7-8.1L239.2,266.1z"/>
	<path class="st22" d="M218.7,242.9l-43.7,6l-2.9-16.1l43.8-6L218.7,242.9L218.7,242.9z"/>
	
		<linearGradient id="SVGID_00000120528628892894594350000011332258833965685915_" gradientUnits="userSpaceOnUse" x1="419.4579" y1="1384.7234" x2="96.1059" y2="1316.5935" gradientTransform="matrix(1 0 0 -1 0 1750)">
		<stop  offset="0" style="stop-color:#FEEB7B"/>
		<stop  offset="1.200000e-02" style="stop-color:#F8E87C"/>
		<stop  offset="0.165" style="stop-color:#C4C785"/>
		<stop  offset="0.315" style="stop-color:#9BB089"/>
		<stop  offset="0.459" style="stop-color:#7CA08C"/>
		<stop  offset="0.597" style="stop-color:#65968D"/>
		<stop  offset="0.724" style="stop-color:#57908E"/>
		<stop  offset="0.831" style="stop-color:#518E8E"/>
	</linearGradient>
	<path style="fill:url(#SVGID_00000120528628892894594350000011332258833965685915_);" d="M140.4,273.2c-6.3-1.8-12.6-3.5-18.9-5.3
		c6.2-6,15.7-13.8,28.9-19.9c8.3-3.9,16.1-6.2,22.5-7.7c17.4-3.9,25.4-3.4,51.5-6.8c9-1.2,16.2-2.3,20.5-3.1
		c6.4-0.2,14,0.2,22.6,1.6c12.1,2.1,22,5.7,29.3,9.1c2.4,7.1,4.7,15.7,6,25.5c2.6,19.3,0.7,35.7-1.7,47.1
		c8.9,64.3,16.9,128.7,24,193.2c2,18,3.9,36,5.7,54l-165.3-44.7C157.1,435.2,148.8,354.2,140.4,273.2L140.4,273.2z"/>
	<path class="st22" d="M253.8,333.7l-16.8,2.5l-20.1-102.1l16.8-2.5L253.8,333.7z"/>
	<path class="st22" d="M256.4,371.9l6.7,39.6l-101.8,21.8l-6.7-39.6L256.4,371.9L256.4,371.9z"/>
	
		<linearGradient id="SVGID_00000041984685579239821120000004207759355601769919_" gradientUnits="userSpaceOnUse" x1="256.3613" y1="1434.0568" x2="-10.2857" y2="1405.1298" gradientTransform="matrix(1 0 0 -1 0 1750)">
		<stop  offset="0" style="stop-color:#FEEB7B"/>
		<stop  offset="6.900000e-02" style="stop-color:#D8D382"/>
		<stop  offset="0.155" style="stop-color:#B4BE87"/>
		<stop  offset="0.248" style="stop-color:#96AD8A"/>
		<stop  offset="0.348" style="stop-color:#7EA18C"/>
		<stop  offset="0.459" style="stop-color:#6B988D"/>
		<stop  offset="0.584" style="stop-color:#5D928E"/>
		<stop  offset="0.738" style="stop-color:#548F8E"/>
		<stop  offset="1" style="stop-color:#518E8E"/>
	</linearGradient>
	<path style="fill:url(#SVGID_00000041984685579239821120000004207759355601769919_);" d="M262.9,357.3c-28.3-2.2-56.5-4.3-84.8-6.5
		c-2.2,0.3-4.5,0.6-6.7,0.9c2.1-0.7,4.1-1.5,6.2-2.2c0.3-7.2,0-15.8-1.7-25.5c-2.6-15.2-7.5-27.4-11.8-36c-4,3.6-8,7.3-11.9,10.9
		c2.5-5.8,5.1-11.5,7.6-17.3c-1.1-2.9-4-9.5-11-14.9c-6.9-5.4-14-6.6-17.1-7c-7.3,4.2-11.9,9.1-14.6,12.3c-6.6,8-9.1,16-10.9,22
		c-0.8,2.4-2.4,8.1-3.3,15.9c-0.9,7.6-1.3,20.3,2.9,35.9c11.3,14.3,19.6,24.8,19.6,24.8c-5.3-5-10.6-10-16-15.1
		c1,3.8,2.6,9.6,4.9,16.5c1.8,5.3,2.6,7.9,3.4,9.3c5.3,9.3,15.1,14.6,18.1,16.2c13.9-0.4,29.3-1.5,46-4c12.4-1.8,24-4.1,34.5-6.7
		C231.8,377.1,247.3,367.2,262.9,357.3L262.9,357.3z"/>
	
		<linearGradient id="SVGID_00000006671961042341847660000015216740535416573851_" gradientUnits="userSpaceOnUse" x1="304.2751" y1="1377.5367" x2="149.5402" y2="1360.7507" gradientTransform="matrix(1 0 0 -1 0 1750)">
		<stop  offset="0" style="stop-color:#FEEB7B"/>
		<stop  offset="6.900000e-02" style="stop-color:#D8D382"/>
		<stop  offset="0.155" style="stop-color:#B4BE87"/>
		<stop  offset="0.248" style="stop-color:#96AD8A"/>
		<stop  offset="0.348" style="stop-color:#7EA18C"/>
		<stop  offset="0.459" style="stop-color:#6B988D"/>
		<stop  offset="0.584" style="stop-color:#5D928E"/>
		<stop  offset="0.738" style="stop-color:#548F8E"/>
		<stop  offset="1" style="stop-color:#518E8E"/>
	</linearGradient>
	<path style="fill:url(#SVGID_00000006671961042341847660000015216740535416573851_);" d="M263.1,357.3c-28.3-2.2-56.5-4.3-84.8-6.5
		c-2.8,0.1-20,1.1-31.6,15.4c-7.4,9.2-8.7,19.1-9.1,23.1c-1.7,0-3.6-0.2-5.7-0.6c-6.8-1.4-11.6-4.9-14.3-7.3c2.7,4,6.9,9,13.1,13.2
		c1.8,1.2,3.5,2.2,5.2,3c0,0,4.9,2.5,9.9,4.7c3.7,1.6,48.6,8.7,111.3,10.7C259.1,394.4,261.1,375.9,263.1,357.3L263.1,357.3z"/>
	
		<linearGradient id="SVGID_00000160162838777781604670000010699219326371468684_" gradientUnits="userSpaceOnUse" x1="140.5231" y1="1631.47" x2="311.9552" y2="1514.277" gradientTransform="matrix(1 0 0 -1 0 1750)">
		<stop  offset="0.378" style="stop-color:#4E2A10"/>
		<stop  offset="0.529" style="stop-color:#63401E"/>
		<stop  offset="0.88" style="stop-color:#FEEB7B"/>
	</linearGradient>
	<path style="fill:url(#SVGID_00000160162838777781604670000010699219326371468684_);" d="M143.6,145.1c-0.1-3.7,0.3-9.8,3.3-16.6
		c1.7-3.8,6.7-14.5,20-20.8c13.2-6.3,26-4.2,29.5-3.6c18.5,3.2,30.2,16,33.4,23.3c0.8,1.8,3,7.9,4.8,15.6c0.3,1.3,0.5,2.3,0.7,3.1
		c-1.4,2.4-2.7,4.9-4.1,7.3c2.1,1.8,4.1,3.6,6.2,5.3c1.6,5.8,3,13.1,3.3,21.6c0.3,8.8-3.5,9-4.7,15.1c0.7,1.2,6.4,13.9,3.7,17.3
		c-1.3,1.6-3.2,2.2-5.1,2.6c-12.7,3.3-21.1,5.5-30.2,2.1c-1.1-0.4-2.3-1.1-4.8-2.4c-12.9-6.8-18.3-11.5-34.6-21.9
		c-1.2-0.8-2.9-1.9-5.1-3.3c-0.8-2.3-1.7-4.6-2.5-6.9L143.6,145.1L143.6,145.1z"/>
	<path class="st31" d="M142.3,145.1c-0.2-2.2-0.2-4.9,0.4-8.1c0.6-3.5,1.8-6.4,2.9-8.5c1.9-0.5,4.3-1,7-1c3.9-0.1,6.8,0.9,8.6,1.5
		c11.7,3.6,13.8,1.3,18.5,4.1c2.5,1.5,7,5.2,9.2,15.1c-1.9,3-3.8,6-5.8,9c2.5,1.8,5,3.7,7.5,5.5c5.5,18.3,6,24.9,5.1,27.2
		c-0.1,0.4-1,2.6-1.4,5.6c-0.2,1.5-0.2,2.8-0.2,3.5c0.9,2.4,3.1,7.4,8.2,11.4c4,3.1,8,4.1,9.8,4.6c4.5,1.1,8,0.8,14.3,0.1
		c3.3-0.4,7.9-1.1,13.2-2.4c-0.9,0.8-1.9,1.6-2.8,2.4c-4.9,2.1-14.2,5.1-25.9,4.1c-2.8-0.2-7.6-0.7-13.3-2.9
		c-10.3-4-12.7-9.4-24.9-18c-3-2.1-7.8-5.2-14.2-8.4c-0.8-2.3-1.7-4.6-2.5-6.9C151.4,170.3,146.8,157.7,142.3,145.1L142.3,145.1z"/>
	<path class="st31" d="M213.4,152.7c2.2,8,4.5,16,6.7,24.1c-2.8,0.3-5.7,0.6-8.5,1C212.2,169.4,212.8,161.1,213.4,152.7z"/>
	<path class="st32" d="M232.6,185.4c-11.2,1.5-22.3,2.9-33.5,4.4c1.4,1.7,3.9,4,7.6,5.7c8.7,4,17.6,1.6,19.5,1
		C228.4,192.8,230.5,189.1,232.6,185.4z"/>
	
		<linearGradient id="SVGID_00000040553281629037551640000005668350379038049921_" gradientUnits="userSpaceOnUse" x1="230.2974" y1="1565.4962" x2="140.8824" y2="1662.3252" gradientTransform="matrix(1 0 0 -1 0 1750)">
		<stop  offset="0" style="stop-color:#FEEB7B"/>
		<stop  offset="0.538" style="stop-color:#792881"/>
	</linearGradient>
	<path style="fill:url(#SVGID_00000040553281629037551640000005668350379038049921_);" d="M142.4,145.6c-0.3-2.4-0.4-5.9,0.6-10
		c0.1-0.7,0.8-3.4,2.6-7.1c3.5-7.3,8.5-11.7,10.9-13.8c1.8-1.6,5.2-4.5,10.3-7c13.2-6.3,26-4.2,29.5-3.6c15.4,2.7,28,12.2,33.4,23.3
		c1.3,2.7,2,5,2.4,6.7c-2.1-0.3-5.1-0.6-8.7-0.8c-4.4-0.2-13.1-0.3-27.9,2.3c-2.1,0.4-4.1,0.8-6,1.2c-7.4,1.6-12.9,3.1-17.7,4.5
		c-11.4,3.3-21.5,6.4-27.8,8.4C143.5,148.3,142.9,146.9,142.4,145.6L142.4,145.6z"/>
	<path class="st34" d="M424.9,349.5c-12.2,0-22.6,6.6-26.8,15.9c2.6-1,4.9-2.3,5.3-3.1c5.7,5.9,11.5,11.7,17.2,17.6
		c-6.5,2.3-13.5,4.6-21,6.9c4.9,7.8,14.4,13.1,25.3,13.1c15.9,0,28.9-11.3,28.9-25.2C453.8,360.8,440.9,349.5,424.9,349.5
		L424.9,349.5z"/>
	
		<linearGradient id="SVGID_00000170977357216081055270000004966738928541160594_" gradientUnits="userSpaceOnUse" x1="149.0287" y1="1581.0026" x2="259.8217" y2="1494.8805" gradientTransform="matrix(1 0 0 -1 0 1750)">
		<stop  offset="0" style="stop-color:#4E2A10"/>
		<stop  offset="0.113" style="stop-color:#563216"/>
		<stop  offset="0.312" style="stop-color:#6B4924"/>
		<stop  offset="0.576" style="stop-color:#95743D"/>
		<stop  offset="0.891" style="stop-color:#DBC468"/>
		<stop  offset="1" style="stop-color:#FEEB7B"/>
	</linearGradient>
	<path style="fill:url(#SVGID_00000170977357216081055270000004966738928541160594_);" d="M158.8,161.2c1.7,9.8,3.3,19.6,5,29.4
		c-2.5-0.2-8-0.9-12.7-4.6c-6.6-5.3-10.4-15.7-4.8-21.2C150.2,161,156.8,161.1,158.8,161.2L158.8,161.2z"/>
	
		<linearGradient id="SVGID_00000139975634026782080520000010696757190488706740_" gradientUnits="userSpaceOnUse" x1="-1856.0793" y1="4485.7373" x2="-1807.4603" y2="4404.8535" gradientTransform="matrix(0.5923 -0.1644 -0.1298 -0.4674 1901.6311 1957.5662)">
		<stop  offset="0" style="stop-color:#4E2A10"/>
		<stop  offset="0.293" style="stop-color:#724F28"/>
		<stop  offset="0.959" style="stop-color:#F0DD74"/>
		<stop  offset="1" style="stop-color:#FEEB7B"/>
	</linearGradient>
	<path style="fill:url(#SVGID_00000139975634026782080520000010696757190488706740_);" d="M227,176.4c-2.3,0.1-4.6,0.3-6.9,0.4
		l-6.7-24.1c1.1,0,2.1,0.1,3.2,0.1C220.1,160.7,223.6,168.5,227,176.4z"/>
	<path class="st34" d="M270.7,358.3c-11.5-3.7-23.9-1.2-32.5,5.4c5.8,0.2,11.3,0.2,16.4,0.1c1.8-1.1,3.5-2.2,5.3-3.4
		c3.8,14.4,7.6,28.9,11.4,43.3c-9.1-0.2-19-0.7-29.6-1.8c-3-0.3-5.9-0.7-8.7-1c3.7,4.7,9,8.5,15.6,10.6c16.8,5.3,35.4-2.2,41.5-16.9
		C296.2,379.9,287.5,363.6,270.7,358.3L270.7,358.3z"/>
	
		<linearGradient id="SVGID_00000121980394919469879390000001217740200074543265_" gradientUnits="userSpaceOnUse" x1="281.5591" y1="1386.3248" x2="246.4741" y2="1359.6899" gradientTransform="matrix(1 0 0 -1 0 1750)">
		<stop  offset="0" style="stop-color:#FEEB7B"/>
		<stop  offset="2.000000e-02" style="stop-color:#EFDC75"/>
		<stop  offset="0.171" style="stop-color:#AA9455"/>
		<stop  offset="0.32" style="stop-color:#7C643D"/>
		<stop  offset="0.463" style="stop-color:#5D462B"/>
		<stop  offset="0.599" style="stop-color:#4A331F"/>
		<stop  offset="0.725" style="stop-color:#402817"/>
		<stop  offset="0.831" style="stop-color:#3C2415"/>
	</linearGradient>
	<path style="fill:url(#SVGID_00000121980394919469879390000001217740200074543265_);" d="M271.6,403.8
		c-3.8-14.4-7.6-28.9-11.4-43.3c-1.8,1.1-3.5,2.2-5.3,3.4c-5.1,0.2-10.6,0.2-16.4-0.1c-4,3-7.1,6.9-9,11.6c-3.7,8.9-2,18.4,3.7,25.6
		c2.8,0.4,5.7,0.7,8.7,1C252.6,403.2,262.5,403.7,271.6,403.8L271.6,403.8z"/>
	
		<linearGradient id="SVGID_00000170967650788583273070000014828546244583004315_" gradientUnits="userSpaceOnUse" x1="304.9805" y1="1391.4884" x2="258.7245" y2="1370.0895" gradientTransform="matrix(1 0 0 -1 0 1750)">
		<stop  offset="0" style="stop-color:#FEEB7B"/>
		<stop  offset="2.000000e-02" style="stop-color:#EFDC75"/>
		<stop  offset="0.171" style="stop-color:#AA9455"/>
		<stop  offset="0.32" style="stop-color:#7C643D"/>
		<stop  offset="0.463" style="stop-color:#5D462B"/>
		<stop  offset="0.599" style="stop-color:#4A331F"/>
		<stop  offset="0.725" style="stop-color:#402817"/>
		<stop  offset="0.831" style="stop-color:#3C2415"/>
	</linearGradient>
	<path style="fill:url(#SVGID_00000170967650788583273070000014828546244583004315_);" d="M254.9,363.9c1.1-2.5,2.2-6,2.5-10.3
		c0.4-6-1.1-10.9-2.3-13.8c-1.5-2.5-3-5-4.5-7.6c0.9-0.5,2.9-1.7,5.7-1.7c4.7,0.1,7.5,3.4,8.1,4c1.6,1.8,1.6,3.2,2.8,8.3
		c0.5,2.2,1.3,5.1,2.3,8.7c2.2,0.9,7.4,3.4,11.1,8.6c4.5,6.3,4.1,12.6,3.9,14.6c2.8,1.4,10.3,5.6,14.4,13.9
		c5.9,11.9,0.3,22.9-0.7,24.6c-4.6-0.1-17.9-1.1-29.3-9.8c-1.5-1.1-7.3-5.8-11.5-13.6c-1.4-2.6-4-7.7-4.3-14.8
		C253.1,370.4,254.1,366.5,254.9,363.9L254.9,363.9z"/>
	<path class="st39" d="M264.5,368.7c0.5,0.2,3.8,1.5,5,4.9s-0.6,6.3-0.9,6.7c0.9,1.3,2.5,3.6,5.5,5.4c2.3,1.4,4.4,2.1,6,2.4v6.7
		c0.3,1,1.5,3.7,4.7,5.7c2.5,1.5,5,1.8,6.2,1.9c0.1,1.9,0.3,3.7,0.4,5.6c0.7,1.4,2.1,3.4,4.7,4.7c1.5,0.7,3.4,1.2,11.8,0.7
		c4.3-0.3,6.5-0.4,8.9-0.8c4.5-0.7,15.3-2.4,23.9-10.1c1.7-1.5,4.1-3.9,6.3-7.5c-1.2-3.8-3.1-5.1-4.5-5.5
		c-5.8-2.1-12.2,6.6-25.3,8.3c-3.7,0.5-6.8,0.3-8.7,0c5.1-0.9,15-3.3,24.7-10.2c7.9-5.6,12.5-11.8,14.8-15.6c-0.1-0.5-1-3.8-4.4-5.2
		c-3.5-1.4-8.2-0.2-11,3c-4.2,3-10.2,6.6-18,9.6c-6,2.3-11.4,3.6-15.9,4.4l-1.5-2.1c5.6-2.4,10.4-4.7,14.4-6.6
		c5.4-2.6,8.9-4.6,15.8-8.5c10.1-5.6,11.8-7.2,12-9.3c0.2-2.7-2.2-5.9-5.4-6.9c-3.6-1.2-6.1,1-18.3,6.5c-10.3,4.6-14.8,6-18.9,6.8
		c-3.7,0.7-6.8,1-8.7,1.1c0.3-1,0.7-1.9,1-2.9c6.4-5.1,12.3-8,16.4-9.6c7-2.9,13-3.9,13.9-7.4c0.6-2.2-1.1-4.5-2.5-6
		c-0.8-0.2-2-0.4-3.5-0.4c-5.4-0.3-9.4,1.4-15.2,3.9c-11.7,4.8-9.4,3.5-13,5.2c-9.9,4.7-16.2,7.7-19.2,13.8
		C264.7,364.3,264.5,367,264.5,368.7L264.5,368.7z"/>
	<path class="st40" d="M403.6,362.5c-0.4,0.8-2.7,2.1-5.3,3.1c-1.3,2.9-2,6-2,9.2c0,4.4,1.3,8.5,3.5,12.1c3.4-1.2,7-2.4,10.8-3.5
		c10.7-3,20.7-4.6,29.4-5.3C427.9,373,415.8,367.7,403.6,362.5L403.6,362.5z"/>
	
		<linearGradient id="SVGID_00000147203885878926576090000006373726222689927581_" gradientUnits="userSpaceOnUse" x1="411.4511" y1="1470.8429" x2="477.677" y2="1376.9839" gradientTransform="matrix(1 0 0 -1 0 1750)">
		<stop  offset="0" style="stop-color:#FEEB7B"/>
		<stop  offset="2.000000e-02" style="stop-color:#EFDC75"/>
		<stop  offset="0.171" style="stop-color:#AA9455"/>
		<stop  offset="0.32" style="stop-color:#7C643D"/>
		<stop  offset="0.463" style="stop-color:#5D462B"/>
		<stop  offset="0.599" style="stop-color:#4A331F"/>
		<stop  offset="0.725" style="stop-color:#402817"/>
		<stop  offset="0.831" style="stop-color:#3C2415"/>
	</linearGradient>
	<path style="fill:url(#SVGID_00000147203885878926576090000006373726222689927581_);" d="M491.7,353.3c1-2.5,2.7-5.9,5.7-9.3
		c4.1-4.8,8.8-7.7,11.9-9.3l9-3.3c-0.3-0.9-1-3-3.2-4.5c-3.6-2.6-8.3-1.6-9.1-1.4c-4.7,1-7.5,4-8.3,4.8c-4.6,4.7-21.6,10-32.7,12.1
		c-9,1.8-12.8,1.2-20,4.5c-4.3,1.9-7.4,4.1-9.4,5.7c-17-2.7-30.1,3.2-31.9,10.3c-1.7,6.7,6.9,13.5,7.4,13.9
		c9.2,7.1,21.3,4.6,22.6,4.4c5.1-4.3,9.8-6.2,13.2-7.2c5.6-1.6,12-1.9,20.8-5.2c0.6-0.2,1.1-0.4,1.6-0.7c5.8-2.5,10-5.2,12.7-7.2
		C485.2,358.3,488.4,355.8,491.7,353.3L491.7,353.3z"/>
	<path class="st39" d="M433.7,381.1c0.3-0.4,2.6-2.8,6.6-3c4.1-0.2,6.9,2.1,7.3,2.5c1.7-0.4,4.6-1.3,7.4-3.3
		c2.1-1.6,3.4-3.2,4.2-4.4c2.5,0.5,4.9,1.1,7.4,1.6c1.2-0.1,4.5-0.3,7.5-2.6c2.3-1.7,3.3-3.8,3.6-4.8c2.1,0.3,4.2,0.7,6.3,1
		c1.7-0.3,4.3-1,6.4-2.9c1.2-1.1,2.2-2.6,3.7-9.8c0.8-3.7,1.2-5.6,1.4-7.7c0.7-9.3-2.8-17.2-5.3-22.7c-1.5-3.2-3.8-7.6-7.4-12.6
		c-1-0.2-2.9-0.4-4.6,0.4c-2.3,1-3,3.2-3.4,4.3c-2.6,7.9,5.6,15.3,4.3,26.6c-0.3,2.2-0.8,3.9-1.1,4.8c-0.3-4.7-1.5-12.4-6.2-20.9
		c-4.3-7.9-9.9-13.3-13.7-16.4c-0.6,0-4.5-0.1-6.9,2.5s-2.3,6.8,0.6,10.1c2.3,4.3,4.8,10.3,6.2,17.6c1.1,5.6,1.2,10.6,0.9,14.5
		c-0.9,0.2-1.8,0.5-2.7,0.8c-1.3-5.3-2.6-10-3.8-13.8c-0.4-1.3-0.8-2.6-1.2-3.8c-1.9-5.6-2.8-8.5-4.3-11.7c-2.3-4.8-3.4-7.2-5.7-7.8
		c-2.9-0.8-6.7,1.1-8.5,3.6c-1.5,2.1-1.2,4,0.4,11.7c2.1,10.2,3,13.2,2.9,17.7c-0.1,3.3-0.5,6-0.9,7.7c-1-0.5-2-1.1-2.9-1.6
		c-4-6.5-5.8-12.1-6.6-16.3c-1.1-5.2-1.1-10-4.5-11.5c-2.2-1-4.8-0.3-6.8,0.5c-2.2,7.9-2.1,12.2-1.6,14.8c0.2,0.7,1.3,6.2,1.7,8.4
		c0.3,1.8,0.3,1.9,0.8,3.9c2.8,9.5,4.5,15.6,10.6,19.7C428.9,379.8,431.7,380.6,433.7,381.1L433.7,381.1z"/>
	<path class="st42" d="M249.7,812.3c3.6-6.4,22.2-40.9,8.2-77.1c-4.2-10.9-10.3-19.1-15.7-25c-8.2,2.8-14,6.7-17.5,9.5
		s-15.7,12.6-18.4,28.8c-0.6,3.4-0.6,6.2-0.5,8.2c6.3,29.5,12.6,59.1,18.9,88.6c25.6,3.1,43.8-2.3,45.6-10.3
		C272.5,825.6,251.2,813.1,249.7,812.3z"/>
	<path class="st43" d="M240.6,811.5c2,2.4,5.6,7.5,7.6,15.4c2.1,8,1.5,14.9,1,18.3c4.7,9.1,13.6,13.2,21.6,10.4
		c9-3.2,14.9-14.5,13.5-26.4c2.9-13.9-2.3-28-11.7-33.6C261.5,788.8,246.3,795.3,240.6,811.5L240.6,811.5z"/>
	
		<linearGradient id="SVGID_00000075129550694417899560000016227736683691799467_" gradientUnits="userSpaceOnUse" x1="145.8324" y1="1135.4641" x2="322.6714" y2="889.4311" gradientTransform="matrix(1 0 0 -1 0 1750)">
		<stop  offset="0.272" style="stop-color:#FEEB7B"/>
		<stop  offset="0.609" style="stop-color:#AA794D"/>
	</linearGradient>
	<path style="fill:url(#SVGID_00000075129550694417899560000016227736683691799467_);" d="M295,755.1c-0.1,2.8-1.5,37.9-28.7,52.8
		c-17.4,9.6-34.7,5-39.5,3.5c-3.5-3.4-11.3-11.8-14.5-25.3c-4.2-17.5,2.4-31.6,4.4-35.5c0-2.6,0.2-6.1,1.1-10.2
		c0.5-2.2,5.9-23.5,24.5-30.2c18.6-6.8,39.6,5.1,48.1,20.2C295.5,739.7,295.2,748.6,295,755.1z"/>
	
		<linearGradient id="SVGID_00000028293620368190601820000007540401046828643978_" gradientUnits="userSpaceOnUse" x1="147.959" y1="171.4269" x2="135.136" y2="127.9198" gradientTransform="matrix(0.9699 0.2434 0.2434 -0.9699 -128.3246 727.3163)">
		<stop  offset="0" style="stop-color:#E3C96D"/>
		<stop  offset="0.314" style="stop-color:#AA794D"/>
		<stop  offset="0.819" style="stop-color:#AA794D"/>
		<stop  offset="0.822" style="stop-color:#AA794D"/>
	</linearGradient>
	<path style="fill:url(#SVGID_00000028293620368190601820000007540401046828643978_);" d="M47,630c0.4-2.6,0.9-6.1,1.2-10.3
		c0.1-2,0.2-4.2,0.2-8.8c0.1-8.1,0-10.1-1.6-11.4c-1.1-0.9-2.6-1.1-3.7-1c0.4,5.1,1.1,19.4-6.8,34.1l11.1,2.6
		C47.6,633,47.3,631.2,47,630L47,630z"/>
	
		<linearGradient id="SVGID_00000112591664846947753150000014608545961218767025_" gradientUnits="userSpaceOnUse" x1="362.4229" y1="-516.6484" x2="346.1979" y2="-564.1074" gradientTransform="matrix(0.9098 0.415 0.415 -0.9098 -65.3692 -22.4465)">
		<stop  offset="0" style="stop-color:#FEEB7B"/>
		<stop  offset="0.28" style="stop-color:#AA794D"/>
	</linearGradient>
	<path style="fill:url(#SVGID_00000112591664846947753150000014608545961218767025_);" d="M39.9,624.6c0.2-2.6,0.4-6.1,0.3-10.3
		c0-2-0.2-4.2-0.6-8.8c-0.6-8.1-1-10.1-2.6-11.2c-1.2-0.8-2.7-0.8-3.8-0.7c0.9,5,2.8,19.2-3.7,34.6l11.3,1.6
		C40.7,627.5,40.2,625.7,39.9,624.6L39.9,624.6z"/>
	
		<linearGradient id="SVGID_00000078727104783982878490000013322713931462624915_" gradientUnits="userSpaceOnUse" x1="763.3434" y1="-1260.3954" x2="771.7819" y2="-1310.8817" gradientTransform="matrix(0.801 0.5986 0.5986 -0.801 185.0895 -872.6557)">
		<stop  offset="0" style="stop-color:#FEEB7B"/>
		<stop  offset="0.435" style="stop-color:#AA794D"/>
	</linearGradient>
	<path style="fill:url(#SVGID_00000078727104783982878490000013322713931462624915_);" d="M37.3,626c-0.4-2.6-0.9-6.1-1.9-10.2
		c-0.5-1.9-1.1-4.1-2.4-8.4c-2.3-7.8-3.1-9.7-4.9-10.4c-1.4-0.6-2.8-0.3-3.9,0.1c1.4,3.7,2.7,8,3.7,12.9c1.3,6.3,1.8,11.9,1.8,16.6
		c3.2,1.4,6.4,2.8,9.5,4.3C38.7,628.7,37.9,627,37.3,626L37.3,626z"/>
	
		<linearGradient id="SVGID_00000160151209843101572520000016463356017439989435_" gradientUnits="userSpaceOnUse" x1="83.0967" y1="1222.6576" x2="43.9007" y2="1071.8066" gradientTransform="matrix(1 0 0 -1 0 1750)">
		<stop  offset="0.446" style="stop-color:#FEEB7B"/>
		<stop  offset="0.609" style="stop-color:#AA794D"/>
	</linearGradient>
	<path style="fill:url(#SVGID_00000160151209843101572520000016463356017439989435_);" d="M48.9,674.6c0,0,1.1,9.2,4.1,25.9
		c3.2,18.3,4.9,27.4,7.1,27.7c2.9,0.4,8.3-8.7,19.4-54L72.6,655c-0.9-1.3-2.6-3.5-5.5-5.2c-3.4-2-6.5-2.3-8.1-2.3
		c0.5-5.5-1.3-8.8-2.3-10.1c-3.2-4.7-9.3-6.6-12.3-7.5c-2.6-0.8-4.8-1-8.2-2.8c-2-1-3.5-2.1-4.6-2.8c0.4,0,1,0,1.7-0.3
		c1.7-0.8,2.2-2.7,2.3-3c1.1-5.4,1.1-9.8,0.8-12.8c-0.3-3.9-0.8-8.1-3.5-9.3c-1.1-0.5-2.2-0.4-3-0.2c0.5,3.3,0.9,8.1,0,13.7
		c-0.7,4.6-2.1,8.4-3.3,11.1l3,7.5c0.8,1.6,2.1,4,3.8,6.7c5.5,8.8,8.9,10.9,11.7,15.6C47.5,657.6,46.9,659.4,48.9,674.6L48.9,674.6z
		"/>
	
		<linearGradient id="SVGID_00000126323286522210233980000018067177655772005281_" gradientUnits="userSpaceOnUse" x1="43.8456" y1="1140.0565" x2="44.2985" y2="1093.7565" gradientTransform="matrix(1 0 0 -1 0 1750)">
		<stop  offset="0" style="stop-color:#FEEB7B"/>
		<stop  offset="0.609" style="stop-color:#AA794D"/>
	</linearGradient>
	<path style="fill:url(#SVGID_00000126323286522210233980000018067177655772005281_);" d="M51.1,630c-1-1-1.7-1.1-2.5-2
		c-0.4-0.6-1-0.9-0.9-2.6c-0.4,0.3,0.4,0.9-1.3,0.9c-2.5,0-6.2-2-6.5-2.3c-0.1,0.3,0.1,1.2-1.4,1.7s-3.6-0.1-3.9-0.2
		c-0.1,0.5-0.5,1.6-1.5,2.2c-0.2,0.1-0.3,0.2-0.5,0.3c0.9,0,2.3,0.1,4,0.5c5.6,1.4,9.4,5.2,14.6,10.5c2,2,3.5,3.8,4.4,4.9
		c-1-2-2.1-4.6-2.7-7.8c-0.2-1.3-0.4-2.5-0.4-3.6C52.4,631.9,52,630.9,51.1,630L51.1,630z"/>
	
		<linearGradient id="SVGID_00000059992398252853979120000006534868484259355546_" gradientUnits="userSpaceOnUse" x1="61.3057" y1="1158.5469" x2="62.0727" y2="1080.0039" gradientTransform="matrix(1 0 0 -1 0 1750)">
		<stop  offset="0" style="stop-color:#FEEB7B"/>
		<stop  offset="0.609" style="stop-color:#AA794D"/>
	</linearGradient>
	<path style="fill:url(#SVGID_00000059992398252853979120000006534868484259355546_);" d="M71.6,642.9c-1.6-5.8-4.4-9.8-6.2-12
		c-0.8-1.4-2.4-4.4-2.5-8.5c-0.1-2.9,0.6-5.1,1.2-6.5c0.3-1.8,0.7-3.6,1-5.4c-0.4-0.5-1-1-1.7-1c-2.2-0.2-4.6,3.9-5.5,7.3
		c-1.2,4.4,0.5,6.1-1.3,8.2c-1.7,1.9-2.8,3.4-3.1,3.7c-1.1,1.1-2.2,3.6-2.6,10.2c1,0.9,2.2,2.2,3,4.1c2.5,5.6-0.6,11.2-1,12
		c2.6,0.9,6.6,2,11.5,1.8c3.4-0.1,6.3-0.8,8.1-1.3C72.9,652.6,73,648.1,71.6,642.9z"/>
	
		<linearGradient id="SVGID_00000072997505294059424020000012419560222572803474_" gradientUnits="userSpaceOnUse" x1="506.145" y1="750.85" x2="541.5923" y2="750.85" gradientTransform="matrix(1 0 0 -1 0 1750)">
		<stop  offset="0.5" style="stop-color:#966F4B"/>
		<stop  offset="0.609" style="stop-color:#AA794D"/>
	</linearGradient>
	<path style="fill:url(#SVGID_00000072997505294059424020000012419560222572803474_);" d="M511.3,1003.4c2.6,0,6.1-0.1,10.2-0.4
		c1.9-0.2,4.2-0.5,8.6-1.2c8-1.2,9.9-1.6,10.9-3.3c0.7-1.3,0.6-2.7,0.4-3.8c-4.9,1.2-18.8,4.1-34.5-1.2l-0.8,11.3
		C508.4,1004.5,510.2,1003.9,511.3,1003.4L511.3,1003.4z"/>
	
		<linearGradient id="SVGID_00000137134121092889638520000001071008007104550558_" gradientUnits="userSpaceOnUse" x1="499.5" y1="746.1545" x2="535.8" y2="746.1545" gradientTransform="matrix(1 0 0 -1 0 1750)">
		<stop  offset="0.5" style="stop-color:#966F4B"/>
		<stop  offset="0.609" style="stop-color:#AA794D"/>
	</linearGradient>
	<path style="fill:url(#SVGID_00000137134121092889638520000001071008007104550558_);" d="M504.7,1005.1c2.3,1.1,5.6,2.5,9.5,3.8
		c1.8,0.6,4,1.3,8.3,2.5c7.7,2.2,9.7,2.6,11.3,1.5c1.2-0.8,1.7-2.2,2-3.3c-5-0.9-18.8-4-30.9-15.4l-5.4,9.9
		C501.7,1004.9,503.6,1005,504.7,1005.1L504.7,1005.1z"/>
	
		<linearGradient id="SVGID_00000101098196508677180640000012450224868343344311_" gradientUnits="userSpaceOnUse" x1="492.148" y1="742.3662" x2="525.6479" y2="742.3662" gradientTransform="matrix(1 0 0 -1 0 1750)">
		<stop  offset="0.5" style="stop-color:#966F4B"/>
		<stop  offset="0.609" style="stop-color:#AA794D"/>
	</linearGradient>
	<path style="fill:url(#SVGID_00000101098196508677180640000012450224868343344311_);" d="M496.9,1005c2,1.7,4.7,3.9,8.1,6.2
		c1.6,1.1,3.5,2.3,7.4,4.7c6.8,4.2,8.6,5.1,10.5,4.5c1.4-0.5,2.3-1.7,2.8-2.6c-4.6-2.2-17.1-9-25.6-23.1l-7.9,8.1
		C494.1,1003.9,495.8,1004.6,496.9,1005L496.9,1005z"/>
	
		<linearGradient id="SVGID_00000083082927239695556090000001690194031526468010_" gradientUnits="userSpaceOnUse" x1="512.567" y1="690.8036" x2="481.2809" y2="789.2876" gradientTransform="matrix(1 0 0 -1 0 1750)">
		<stop  offset="0.521" style="stop-color:#966F4B"/>
		<stop  offset="0.571" style="stop-color:#AA794D"/>
	</linearGradient>
	<path style="fill:url(#SVGID_00000083082927239695556090000001690194031526468010_);" d="M456.9,1002.8c2.8,2,10.8,7.4,22.3,7.3
		c8.5,0,14.8-3,17.9-4.7c1.6-0.1,3.9-0.2,6.5-0.7c1.2-0.2,3.3-0.6,7.1-1.8c1.2-0.4,5.5-1.7,12.3-4.7c0.7-0.3,0.2-0.2,8.9-4.2
		c6-2.8,8.8-4,9.3-6.5c0.3-1.4-0.2-2.8-0.8-3.8c-17.6,9.7-30.6,10.3-39.3,9c-4.1-0.6-2.9-1-24.1-6.1c-25.3-6.1-18.1-3.4-24.2-5.3
		c-7.2-2.3-10.4-3.9-12.7-2.2c-3.4,2.5-2.7,10.5,0.6,15.7C445.9,1002.6,455.8,1002.8,456.9,1002.8L456.9,1002.8z"/>
	
		<linearGradient id="SVGID_00000131368302116342776870000004083715426842402205_" gradientUnits="userSpaceOnUse" x1="485.1891" y1="722.5107" x2="467.2061" y2="762.5937" gradientTransform="matrix(1 0 0 -1 0 1750)">
		<stop  offset="0" style="stop-color:#966F4B"/>
		<stop  offset="0.426" style="stop-color:#AA794D"/>
	</linearGradient>
	<path style="fill:url(#SVGID_00000131368302116342776870000004083715426842402205_);" d="M492.1,1026c0,0-3.4-5.6-10.6-9.4
		c-6.7-3.5-9.9-0.1-15.9-3.2c-3.2-1.6-6.3-4.7-8.7-10.6c1.8-3.1,7.2-11.7,14.8-12c5.8-0.2,10.9,6.5,21.1,20
		c7.7,10.2,9,14.3,7.6,17.1c-0.7,1.5-2.5,3.1-4.1,2.9C494.3,1030.6,493.4,1028.2,492.1,1026L492.1,1026z"/>
	
		<linearGradient id="SVGID_00000167360648476903401180000017358997335587087237_" gradientUnits="userSpaceOnUse" x1="59.6938" y1="1184.1583" x2="179.6318" y2="807.4493" gradientTransform="matrix(1 0 0 -1 0 1750)">
		<stop  offset="0.143" style="stop-color:#F6F083"/>
		<stop  offset="0.247" style="stop-color:#E9E584"/>
		<stop  offset="0.429" style="stop-color:#CBD088"/>
		<stop  offset="0.669" style="stop-color:#9BB38C"/>
		<stop  offset="0.955" style="stop-color:#5D938E"/>
		<stop  offset="1" style="stop-color:#518E8E"/>
	</linearGradient>
	<path style="fill:url(#SVGID_00000167360648476903401180000017358997335587087237_);" d="M28.7,692c4.3,0.8,10.4,1.2,15.4-2.1
		c6.3-4.1,5.9-10.6,11.9-17.3c3.1-3.4,8.4-7.6,17.9-9.9c5,11.9,9.8,21,13,26.7c16.9,30.4,31.8,43.1,38,71c1,4.4,1.5,8.1,1.8,10.1
		c22,14.4,44.6,28.8,67.8,43c6.3,3.9,12.6,7.7,18.9,11.6c-12.5,22.9-25.1,45.8-37.6,68.7c-1.3-7.5-3.9-19.2-10-32.2
		c-18.4-39.4-43.7-39-89.2-89.6c-16-17.8-31.7-38.7-43-66.7C31.3,699.9,29.7,695.2,28.7,692L28.7,692z"/>
	
		<linearGradient id="SVGID_00000076596131625666264040000018318112172631630481_" gradientUnits="userSpaceOnUse" x1="148.8023" y1="1064.4081" x2="368.3073" y2="517.8691" gradientTransform="matrix(1 0 0 -1 0 1750)">
		<stop  offset="0" style="stop-color:#FEEB7B"/>
		<stop  offset="9.000000e-02" style="stop-color:#F0E37D"/>
		<stop  offset="0.252" style="stop-color:#D0CE83"/>
		<stop  offset="0.469" style="stop-color:#9EB189"/>
		<stop  offset="0.729" style="stop-color:#5A918E"/>
		<stop  offset="0.758" style="stop-color:#518E8E"/>
		<stop  offset="0.848" style="stop-color:#406B69"/>
	</linearGradient>
	<path style="fill:url(#SVGID_00000076596131625666264040000018318112172631630481_);" d="M184.9,807.5c7.9,4.5,15.8,9.3,23.9,14.3
		c4.4,2.7,8.6,5.4,12.8,8.1c-2,4.3-4.8,12.5-1.8,20.6c5.6,15.6,28.2,18.9,32.3,19.5c19.4,2.9,27.4-6.1,56.8-4.9
		c5.1,0.2,9.2,0.7,11.7,1c6,20.8,3.4,34.9-0.4,44.1c-4,9.8-9.4,14.2-21.3,33.1c-6.5,10.3-11.2,19-14.1,24.5
		c0.4,3.7,1.4,9.4,4.6,15.5c10.1,19.4,28.5,16.4,42.1,36c7.6,11,10.5,22.1,11.9,29.7c1.5,8,3.1,16.1,4.6,24.1
		c-28,35-70,49.2-103.1,36.7c-21.2-8-33.2-24.9-38.6-33.8c-5.3-24.8-11.9-55.1-17.2-79.9c-4.4-20.6-10.9-50.3-15.3-70.9
		c-3.3-15.1-1.6-25.5,1.4-36.7c1.1-3.9,2-6.6,2.5-7.8c3.3-9.5,4.1-19.1,5.2-36.8C183.9,828.7,184.5,816.3,184.9,807.5L184.9,807.5z"
		/>
	
		<linearGradient id="SVGID_00000052791223239793107010000000703407678520069554_" gradientUnits="userSpaceOnUse" x1="512.8466" y1="616.5885" x2="266.3206" y2="923.5925" gradientTransform="matrix(1 0 0 -1 0 1750)">
		<stop  offset="5.300000e-02" style="stop-color:#477777"/>
		<stop  offset="7.800000e-02" style="stop-color:#4A7D7C"/>
		<stop  offset="0.142" style="stop-color:#4E8786"/>
		<stop  offset="0.151" style="stop-color:#4F8887"/>
		<stop  offset="0.264" style="stop-color:#53908F"/>
		<stop  offset="0.422" style="stop-color:#559391"/>
		<stop  offset="1" style="stop-color:#F3F1A1"/>
	</linearGradient>
	<path style="fill:url(#SVGID_00000052791223239793107010000000703407678520069554_);" d="M439.5,1036.3c5.1-6.1,14.9-19.8,16.6-39
		c0.6-6.8,0.1-12.9-0.8-17.8c-12.3-2.3-30.1-5.9-51.4-11.7c-30.7-8.3-38.6-8.6-46.6-16.1c-10.9-10.3-14.5-24.5-18.2-38.4
		c-3.5-13.3-4.5-27-15.3-42.9c-1.2-1.8-2.3-3.3-3.1-4.2c-14.2,0.4-20.7,6.6-22.7,8.7c-9.2,9.9-10.5,28.3-4.8,40.7
		c2.5,5.3,7.1,11.5,6.8,21.1c-0.1,2.8-0.6,5.1-1,6.6l11.7,17.1c2.1,4.8,5.9,12,12.8,18.9c10,10,21.1,14,26.7,15.6
		C380,1008.7,409.8,1022.5,439.5,1036.3L439.5,1036.3z"/>
	
		<linearGradient id="SVGID_00000066509237644160017010000006236693243443158200_" gradientUnits="userSpaceOnUse" x1="217.1425" y1="1097.5702" x2="335.6815" y2="893.2613" gradientTransform="matrix(1 0 0 -1 0 1750)">
		<stop  offset="0" style="stop-color:#FEEB7B"/>
		<stop  offset="0.524" style="stop-color:#792881"/>
		<stop  offset="0.949" style="stop-color:#5B2363"/>
	</linearGradient>
	<path style="fill:url(#SVGID_00000066509237644160017010000006236693243443158200_);" d="M242.3,710.2
		c10.3,48.8,20.5,97.7,30.8,146.5c4.9-7.7,12.6-19.2,23.4-32.4c14.2-17.3,19.5-20.2,25.8-31.4c4.2-7.5,16.2-28.6,9.6-48.8
		c-9.4-28.9-51.9-41.5-81.4-36C247.2,708.7,244.4,709.5,242.3,710.2L242.3,710.2z"/>
	
		<linearGradient id="SVGID_00000104698645789235130310000016174989872227037591_" gradientUnits="userSpaceOnUse" x1="200.6882" y1="1009.3162" x2="304.6282" y2="771.7252" gradientTransform="matrix(1 0 0 -1 0 1750)">
		<stop  offset="0" style="stop-color:#FEEB7B"/>
		<stop  offset="1.800000e-02" style="stop-color:#F0DB80"/>
		<stop  offset="7.700000e-02" style="stop-color:#CDAC87"/>
		<stop  offset="0.139" style="stop-color:#B28789"/>
		<stop  offset="0.202" style="stop-color:#9E6C88"/>
		<stop  offset="0.266" style="stop-color:#905586"/>
		<stop  offset="0.332" style="stop-color:#864383"/>
		<stop  offset="0.401" style="stop-color:#7F3482"/>
		<stop  offset="0.473" style="stop-color:#7B2B81"/>
		<stop  offset="0.556" style="stop-color:#792881"/>
		<stop  offset="0.607" style="stop-color:#713A89"/>
	</linearGradient>
	<path style="fill:url(#SVGID_00000104698645789235130310000016174989872227037591_);" d="M296.9,849c-2.7-2.9-5.9-7.8-7-16.4
		c-6,3.4-24.9,13.4-43.9,12.2c-5.2-0.3-12.6-0.9-18.6-6.4c-3.2-2.9-4.9-6.2-5.8-8.4c-3.8,1.3-9.7,4-15,9.4
		c-10.3,10.4-15.5,27.7-9.5,42.2c4.3,10.5,12.8,15.8,17.1,18.3c20.1,12.1,50.8,10.6,66.3-4.7c7.1-7,7.4-13.3,17.6-20.4
		c8.1-5.7,16.6-7.8,22.7-8.7c-3.5-2.7-8.1-6.2-13.8-10C301.6,852.6,299.4,851.6,296.9,849L296.9,849z"/>
	<path class="st61" d="M189.2,996.1c31.9,23.8,67.7,27.3,86.9,11.3c4-3.3,10.4-10,13.9-23.1"/>
	
		<linearGradient id="SVGID_00000178169922000913004400000002400317972102377120_" gradientUnits="userSpaceOnUse" x1="51.9259" y1="1232.901" x2="56.9649" y2="847.686" gradientTransform="matrix(1 0 0 -1 0 1750)">
		<stop  offset="0" style="stop-color:#FEEB7B"/>
		<stop  offset="0.524" style="stop-color:#792881"/>
	</linearGradient>
	<path style="fill:url(#SVGID_00000178169922000913004400000002400317972102377120_);" d="M52.9,700.4c8.8-7.6,6.3-20.5,14.6-24.5
		c4.3-2.1,9.3-0.7,12.7,0.7c-2.1-5.9-4.2-11.8-6.2-17.7c-8.6-6.4-13.4-6.6-16.3-5.3c-8.1,3.6-4,20.3-15.1,30.2
		c-4.7,4.2-10.3,5.7-14.6,6.2c0.9,3.1,2,6.3,3.2,9.6c0.7,2,1.5,3.8,2.2,5.7C44,706.1,49.7,703.2,52.9,700.4z"/>
	<path class="st63" d="M222.1,783.3c2.7,1.6,5.9,3.2,9.4,4.7c7.7,3.2,14.9,4.7,20.6,5.4c-1.6,1.7-5,4.7-10.1,6.2
		c-8.1,2.5-15-0.2-16.9-1.1c0.2-1.7,0.4-4,0-6.7C224.5,788,223.1,785.1,222.1,783.3L222.1,783.3z"/>
	
		<linearGradient id="SVGID_00000183209932289403945960000010466561989550400173_" gradientUnits="userSpaceOnUse" x1="511.5814" y1="-942.0823" x2="598.9854" y2="-950.1963" gradientTransform="matrix(0.9269 0.3752 0.3752 -0.9269 255.8929 -93.5891)">
		<stop  offset="0" style="stop-color:#FEEB7B"/>
		<stop  offset="1" style="stop-color:#792881"/>
	</linearGradient>
	<path style="fill:url(#SVGID_00000183209932289403945960000010466561989550400173_);" d="M425.2,1029.6c4.8,2.2,9.6,4.4,14.4,6.7
		c3.9-4,10.9-12.4,14.7-25.1c4.3-14.2,2.3-26.2,1.1-31.7c-3.8-0.7-7.6-1.5-11.4-2.2c0.1,6.5-0.5,16.9-4.9,28.7
		C435,1017,429.2,1024.8,425.2,1029.6L425.2,1029.6z"/>
	
		<linearGradient id="SVGID_00000013163623303197780860000018110376559602242956_" gradientUnits="userSpaceOnUse" x1="524.2028" y1="239.3571" x2="330.8518" y2="289.5271" gradientTransform="matrix(1 0 0 -1 0 1750)">
		<stop  offset="0" style="stop-color:#FEEB7B"/>
		<stop  offset="2.300000e-02" style="stop-color:#F8E77C"/>
		<stop  offset="0.357" style="stop-color:#AFBB87"/>
		<stop  offset="0.634" style="stop-color:#7EA18C"/>
		<stop  offset="0.841" style="stop-color:#5E938E"/>
		<stop  offset="0.955" style="stop-color:#518E8E"/>
	</linearGradient>
	<path style="fill:url(#SVGID_00000013163623303197780860000018110376559602242956_);" d="M419.1,1344.9c-6,3.6-14.5,9.2-23.4,17.4
		c-59.8,54.8-75.4,164-30.7,224.1c4.9,6.5,9.6,11.3,12.7,14.3c3.8,4.6,12,13.1,25.1,16.9c29.2,8.3,53.5-15.3,54.6-16.4
		c10.4-14.7,22.2-35.4,29.4-62c2.4-8.7,4-16.9,5-24.5c-15.8-19.5-35.9-48.6-51.4-87.4C427.9,1395.6,422,1367,419.1,1344.9
		L419.1,1344.9z"/>
	
		<linearGradient id="SVGID_00000005975997537277676310000000588888524747818121_" gradientUnits="userSpaceOnUse" x1="547.6584" y1="240.661" x2="715.7704" y2="281.01" gradientTransform="matrix(1 0 0 -1 0 1750)">
		<stop  offset="0" style="stop-color:#FEEB7B"/>
		<stop  offset="2.300000e-02" style="stop-color:#F8E77C"/>
		<stop  offset="0.357" style="stop-color:#AFBB87"/>
		<stop  offset="0.634" style="stop-color:#7EA18C"/>
		<stop  offset="0.841" style="stop-color:#5E938E"/>
		<stop  offset="0.955" style="stop-color:#518E8E"/>
	</linearGradient>
	<path style="fill:url(#SVGID_00000005975997537277676310000000588888524747818121_);" d="M657.4,1346.5c5,2.9,14,8.4,23.4,17.4
		c69.9,67.2,55.4,225.8-2.4,250c-10,4.2-26.7,6.6-53.7-6.2c-32.5-22.6-64.9-45.3-97.4-67.9c21.8-11.3,77.1-43.9,108.7-110.9
		C651,1397,655.9,1367.5,657.4,1346.5z"/>
	
		<linearGradient id="SVGID_00000117677494444985374610000006210470806263729550_" gradientUnits="userSpaceOnUse" x1="537.8484" y1="389.145" x2="537.8484" y2="560.9041" gradientTransform="matrix(1 0 0 -1 0 1750)">
		<stop  offset="0" style="stop-color:#FEEB7B"/>
		<stop  offset="9.800000e-02" style="stop-color:#DBBF85"/>
		<stop  offset="0.252" style="stop-color:#B28789"/>
		<stop  offset="0.39" style="stop-color:#976187"/>
		<stop  offset="0.508" style="stop-color:#864484"/>
		<stop  offset="0.602" style="stop-color:#7D3081"/>
		<stop  offset="0.659" style="stop-color:#792881"/>
	</linearGradient>
	<path style="fill:url(#SVGID_00000117677494444985374610000006210470806263729550_);" d="M607.3,1346.5H469.8
		c-6-9-14.3-24.1-17.1-44c-1.5-10.5-1.7-24.2,11.1-69.8c4.4-15.7,10.9-37.1,20-62.4c2.9-6.5,9.2-17.7,21.4-23.8
		c4.8-2.4,8.4-3,33.7-3.7c27.1-0.8,34.5,0.2,38.6,2.1c0.5,0.2,1.1,0.6,2,1.2c11.2,7,14.8,19.5,16.4,25.1
		c9.5,31.8,14.8,32.2,21.7,64.8c0,0,7,32.9,6,64.6c-0.1,2.1-0.1,4.3-0.5,7.1C620.9,1324.7,613.3,1338,607.3,1346.5L607.3,1346.5z"/>
	<path class="st68" d="M594.2,1208.5c0,30.6-24.8,55.4-55.4,55.4c-30.6,0-55.4-24.8-55.4-55.4s24.8-55.4,55.4-55.4
		S594.2,1177.9,594.2,1208.5z"/>
	<path class="st69" d="M505.1,1164.2c11.5-2,23.1-4,34.6-6c5.9-0.5,16.5-0.5,27.1,5c7.1,3.7,15.6,10.5,24.3,28.6
		c22.2,46.5,11.1,96.2,8.4,107.4c-2.7,11.1-7.2,25.2-15.2,40.8c-1,1-1.9,1.9-3,2.7c-23.2,18.3-66.3-1-81.3-8.3
		c-1.7,1.5-4.1,3.1-6.7,2.7c-9.7-1.4-13.1-29.6-15-46.8c-4.3-38.2-6.8-67.3,8.4-99.4C492.8,1178.1,500.4,1169.2,505.1,1164.2
		L505.1,1164.2z"/>
	
		<linearGradient id="SVGID_00000048495156037096412910000000866278860761446058_" gradientUnits="userSpaceOnUse" x1="538.7" y1="434.019" x2="538.7" y2="561.001" gradientTransform="matrix(1 0 0 -1 0 1750)">
		<stop  offset="0" style="stop-color:#FEEB7B"/>
		<stop  offset="8.000000e-02" style="stop-color:#F9E478"/>
		<stop  offset="0.199" style="stop-color:#ECD172"/>
		<stop  offset="0.34" style="stop-color:#DAB568"/>
		<stop  offset="0.498" style="stop-color:#C4915B"/>
	</linearGradient>
	<path style="fill:url(#SVGID_00000048495156037096412910000000866278860761446058_);" d="M498.9,1253.8c1.5,6.3,2.8,12.5,4.1,18.6
		c-2,0.5-8.8,1.8-15.9-1.3c-1.7-0.8-7.4-3.3-10.2-9.3c-2.6-5.7-2.9-15.3,4.1-20.3c5.7-4,12.8-2.8,14.2-2.6
		C496.6,1243.9,497.8,1248.8,498.9,1253.8L498.9,1253.8z M578.5,1253.8c-1.5,6.3-2.8,12.5-4.1,18.6c2,0.5,8.8,1.8,15.9-1.3
		c1.7-0.8,7.4-3.3,10.2-9.3c2.6-5.7,2.9-15.3-4.1-20.3c-5.7-4-12.8-2.8-14.2-2.6C580.9,1243.9,579.7,1248.8,578.5,1253.8
		L578.5,1253.8z"/>
	
		<linearGradient id="SVGID_00000113321214195062043280000005021256422952598934_" gradientUnits="userSpaceOnUse" x1="537.9501" y1="370.12" x2="537.9501" y2="527.965" gradientTransform="matrix(1 0 0 -1 0 1750)">
		<stop  offset="0" style="stop-color:#FEEB7B"/>
		<stop  offset="0.151" style="stop-color:#EACE71"/>
		<stop  offset="0.373" style="stop-color:#D4AB64"/>
		<stop  offset="0.551" style="stop-color:#C8985D"/>
		<stop  offset="0.659" style="stop-color:#C4915B"/>
	</linearGradient>
	<path style="fill:url(#SVGID_00000113321214195062043280000005021256422952598934_);" d="M582.7,1333l34.2,6.6
		c-0.2,89.4-42.5,150.8-75.1,151.7c-33,0.9-79.8-59.5-82.8-151.8c11.5-2.2,23.1-4.3,34.6-6.5v-56h89.1L582.7,1333L582.7,1333z"/>
	<path class="st72" d="M582.7,1277.8"/>
	<path class="st72" d="M493.6,1277.9c0,0.1,0.1,0.2,0.1,0.3C493.6,1278.1,493.6,1278,493.6,1277.9z"/>
	
		<linearGradient id="SVGID_00000009557101763704897580000005964976974641447089_" gradientUnits="userSpaceOnUse" x1="581.0499" y1="311.423" x2="581.0499" y2="589.631" gradientTransform="matrix(1 0 0 -1 0 1750)">
		<stop  offset="0" style="stop-color:#FEEB7B"/>
		<stop  offset="0.228" style="stop-color:#EACE71"/>
		<stop  offset="0.567" style="stop-color:#D4AB64"/>
		<stop  offset="0.836" style="stop-color:#C8985D"/>
		<stop  offset="1" style="stop-color:#C4915B"/>
	</linearGradient>
	<path style="fill:url(#SVGID_00000009557101763704897580000005964976974641447089_);" d="M581.6,1283.3c0.5-1.5,0.8-3.3,1.1-5.5
		c-1.1,3.6-2.2,6.8-3.3,9.8C580.5,1286.1,581.2,1284.6,581.6,1283.3z"/>
	
		<linearGradient id="SVGID_00000106110779643020789590000011811876819450678206_" gradientUnits="userSpaceOnUse" x1="494.45" y1="311.423" x2="494.45" y2="589.631" gradientTransform="matrix(1 0 0 -1 0 1750)">
		<stop  offset="0" style="stop-color:#FEEB7B"/>
		<stop  offset="0.228" style="stop-color:#EACE71"/>
		<stop  offset="0.567" style="stop-color:#D4AB64"/>
		<stop  offset="0.836" style="stop-color:#C8985D"/>
		<stop  offset="1" style="stop-color:#C4915B"/>
	</linearGradient>
	<path style="fill:url(#SVGID_00000106110779643020789590000011811876819450678206_);" d="M493.9,1279.5c0.3,1.1,0.7,2.4,1.4,3.6
		c-0.6-1.6-1.1-3.2-1.7-5C493.7,1278.7,493.8,1279.1,493.9,1279.5L493.9,1279.5z"/>
	
		<linearGradient id="SVGID_00000166647854354181715570000003615981020572891555_" gradientUnits="userSpaceOnUse" x1="538.6013" y1="30.173" x2="538.6013" y2="1057.882" gradientTransform="matrix(1 0 0 -1 0 1750)">
		<stop  offset="0" style="stop-color:#FEEB7B"/>
		<stop  offset="8.700000e-02" style="stop-color:#F9E478"/>
		<stop  offset="0.214" style="stop-color:#ECD172"/>
		<stop  offset="0.367" style="stop-color:#DAB568"/>
		<stop  offset="0.537" style="stop-color:#C4915B"/>
	</linearGradient>
	<path style="fill:url(#SVGID_00000166647854354181715570000003615981020572891555_);" d="M590.9,1222.9c-0.4-6-1-15.3-1.6-27.6
		c-4.9-9.1-10.8-14.6-15.2-17.9c-22.2-16.5-58.3-14.9-76.2,4.1c-4.7,5-7.4,10.4-9,14.5c-0.2,11.4-0.9,20.5-1.5,26.8
		c-1.1,11.6-2.8,19.3,0.2,29.5c0.7,2.4,1,2.6,2.2,6.2c2.9,9.3,3.3,15.4,3.9,19.3v0.3c0.6,1.7,1.1,3.4,1.7,5
		c2.7,5.1,9.2,10.9,24.3,16.2c2.3-0.9,5.5-2,9.4-2.8c8.3-1.7,15.3-1.1,20.1-0.2c2.6,0.5,6.1,1.3,9.9,2.7
		c11.7-3.3,17.5-7.5,20.4-11.4c1.1-2.9,2.2-6.2,3.3-9.8c0.7-4.9,1.7-11.5,5.3-20.1c0.6-1.7,1.2-3.6,1.7-5.9
		C592.1,1241.5,591.1,1225.7,590.9,1222.9L590.9,1222.9z"/>
	
		<linearGradient id="SVGID_00000073699097787409498040000009769143995603341998_" gradientUnits="userSpaceOnUse" x1="539.1694" y1="278.8831" x2="539.1694" y2="717.515" gradientTransform="matrix(1 0 0 -1 0 1750)">
		<stop  offset="0" style="stop-color:#FEEB7B"/>
		<stop  offset="0.127" style="stop-color:#F9E478"/>
		<stop  offset="0.314" style="stop-color:#ECD172"/>
		<stop  offset="0.537" style="stop-color:#DAB568"/>
		<stop  offset="0.787" style="stop-color:#C4915B"/>
	</linearGradient>
	<path style="fill:url(#SVGID_00000073699097787409498040000009769143995603341998_);" d="M579.4,1287.6
		c-7.8,20.8-15.2,26.5-21.1,26.9c-6,0.4-9.3-4.6-19.8-4.8c-10.5-0.2-14.1,4.8-20.3,4.3c-6.4-0.5-14.5-6.8-22.9-30.8
		c2.7,5.1,9.2,10.9,24.3,16.2c2.3-0.9,5.5-2,9.4-2.8c8.3-1.7,15.3-1.1,20.1-0.2c2.6,0.5,6.1,1.3,9.9,2.7
		C570.6,1295.6,576.5,1291.5,579.4,1287.6L579.4,1287.6z M530.8,1247c1.2-1,1.6-2.3,1.7-2.8c0.5-2.6,1.6-4.5,2.5-4.5
		c1,0,2.1,2.3,2.3,5.6c0,0.9,0.6,1.7,1.5,1.9c1,0.2,2-0.5,2.2-1.5c0.1-3.3,1.7-5.4,3-5.4c1.1,0,2.2,1.7,2.6,3.8
		c0.2,0.6,0.7,1.9,2.1,3c1.9,1.5,4.1,1.4,4.6,1.3c-0.8-1.8-2-4-3.7-6.2c-2.6-3.4-5.3-5.8-7.5-7.4c-1.9,0-3.8-0.1-5.8-0.1
		c-1.6,1.3-3.4,2.9-5.2,5.1c-2.4,2.9-4,5.7-5,7.9C526.1,1247.7,528.7,1248.6,530.8,1247L530.8,1247z M539.4,1264.2
		c14,0.2,24.9,4,31.3,6.8c-8-4.6-16.1-9.2-24.1-13.8c-2.3,0.9-4.5,1.8-6.8,2.7c-2-0.9-4-1.8-6.1-2.8c-8.2,4.1-16.3,8.2-24.5,12.2
		C515.6,1267,526.1,1264,539.4,1264.2L539.4,1264.2z M491.4,1231.7c2.1,1.3,4.3,1.1,5.3,1c2.6-1.8,5.8-3.8,9.6-5.5
		c7.5-3.4,14.4-4.5,19.3-4.8c3.6-2.4,5.2-5,6.1-6.9c1.5-3.3,0.9-5.5,3.3-8.4c0.8-1,2.4-3,4.7-3s4,2.1,4.8,3c2.3,2.8,1.7,4.9,3.5,8.5
		c0.7,1.5,2,3.6,4.5,5.7c3.6-0.1,10,0.2,17.3,3.3c6.7,2.9,11.2,6.9,13.6,9.4c1-0.4,2.3-1.1,3.5-2.1c3.6-3.2,4-7.8,4.1-9
		c-2.4-3.5-6.2-7.9-11.6-11.9c-12.7-9.3-26.4-9.7-31.9-9.5c-2.2,0.4-4.9,0.8-7.9,0.8c-3.6,0-6.7-0.4-9.2-0.9
		c-5.2-0.1-17.7,0.4-29.9,8.6c-6.4,4.3-10.5,9.2-13.1,12.9C487,1226.6,488.6,1230.1,491.4,1231.7L491.4,1231.7z"/>
	<path class="st77" d="M487.3,1222.9c2.6-3.8,7.8-10.1,16.4-15c11.2-6.4,21.9-6.6,26.6-6.4c-2.8-2.9-5.7-5.8-8.5-8.7
		c-2.8,0.2-17.3,1.4-27.1,13.5C489.6,1212.6,487.9,1219.2,487.3,1222.9z"/>
	<path class="st77" d="M496.6,1232.7c3-2.2,7.2-4.7,12.5-6.7c6.5-2.5,12.3-3.3,16.4-3.6c-1.6-2.1-3.2-4.1-4.9-6.2
		c-1.8-0.1-11.3-0.3-18.4,6.8C498.9,1226.6,497.3,1230.4,496.6,1232.7L496.6,1232.7z"/>
	<path class="st77" d="M590.9,1222.9c-2.6-3.8-7.8-10.1-16.4-15c-11.2-6.4-21.9-6.6-26.6-6.4c2.8-2.9,5.7-5.8,8.5-8.7
		c2.8,0.2,17.3,1.4,27.1,13.5C588.5,1212.6,590.2,1219.2,590.9,1222.9z"/>
	<path class="st77" d="M583.3,1234.1c-2.4-2.5-6.9-6.6-13.6-9.4c-7.3-3.1-13.7-3.4-17.3-3.3c1.8-1.8,3.6-3.7,5.4-5.5
		c1.8-0.2,9.3-0.7,16.4,4.4C581.1,1225.3,582.9,1232.3,583.3,1234.1L583.3,1234.1z"/>
	<path class="st78" d="M490.2,1184.2c11.6-13.8,27.2-20.3,39.9-16.3c2.8,0.9,6.6,2.7,10.6,6.6c3.4-3.8,6.8-5.5,9.3-6.3
		c11.6-4,26.6,2.9,37.7,17.2c-1.9-4.6-6.5-14-16.6-21.4c-11.7-8.6-23.8-9.3-30.6-9.7c-7.3-0.3-21-1-33.9,8.2
		C496.4,1169.9,492,1179.7,490.2,1184.2L490.2,1184.2z"/>
	
		<radialGradient id="SVGID_00000101068369544671916120000004335194079948000918_" cx="544.725" cy="292.355" r="221.111" gradientTransform="matrix(1 0 0 -1 0 1750)" gradientUnits="userSpaceOnUse">
		<stop  offset="0" style="stop-color:#FEEB7B"/>
		<stop  offset="2.400000e-02" style="stop-color:#F8E77C"/>
		<stop  offset="0.374" style="stop-color:#AFBB87"/>
		<stop  offset="0.664" style="stop-color:#7EA18C"/>
		<stop  offset="0.881" style="stop-color:#5E938E"/>
		<stop  offset="1" style="stop-color:#518E8E"/>
	</radialGradient>
	<path style="fill:url(#SVGID_00000101068369544671916120000004335194079948000918_);" d="M472.7,1335.7c9.2,28.5,35.6,48,65.3,48.5
		c30.3,0.5,57.6-19,67.2-47.9l52.2,10.2c6.2,23.4,12.9,62.1,3.6,107.6c-3.7,18.2-9.3,33.9-15,46.7c-9,8-23,23-30.7,45.7
		c-2.6,7.6-4,14.6-4.7,20.8c9.1,11.4,18.3,22.8,27.4,34.2c4.3,18.8,8.5,37.6,12.8,56.4c-77.2-0.6-154.3-1.1-231.5-1.7
		c1.8-19.7,3.7-39.4,5.5-59.1c26.6,4.2,34.6-3,37.3-6.5c11.7-15.2-6.2-53-44.5-95.9c-4.2-13.7-8-30.1-9.8-48.9
		c-4.1-42.6,3.7-77.9,11-100.9C436.8,1342,454.7,1338.8,472.7,1335.7L472.7,1335.7z"/>
	<path class="st80" d="M703.3,1572c0,26.6-21.9,48.1-48.9,48.1s-48.9-21.5-48.9-48.1s21.9-48.1,48.9-48.1S703.3,1545.4,703.3,1572z"
		/>
	<path class="st80" d="M466,1572c0,26.6-21.9,48.1-48.9,48.1s-48.9-21.5-48.9-48.1s21.9-48.1,48.9-48.1S466,1545.4,466,1572z"/>
	
		<linearGradient id="SVGID_00000019668855098847472760000000056244168663283643_" gradientUnits="userSpaceOnUse" x1="484.8637" y1="261.3143" x2="401.1267" y2="177.5763" gradientTransform="matrix(1 0 0 -1 0 1750)">
		<stop  offset="0.248" style="stop-color:#FEEB7B"/>
		<stop  offset="0.42" style="stop-color:#EACE71"/>
		<stop  offset="0.674" style="stop-color:#D4AB64"/>
		<stop  offset="0.876" style="stop-color:#C8985D"/>
		<stop  offset="1" style="stop-color:#C4915B"/>
	</linearGradient>
	<path style="fill:url(#SVGID_00000019668855098847472760000000056244168663283643_);" d="M378.2,1502.3c1,4.8,2,9.6,2.9,14.4
		c-0.9,6.3-1.9,16.2-1.1,28.3c1.1,17.4,1.9,35.9,15.2,47.5c8.2,7.2,17.3,9.4,22.4,10.6c17.7,3.9,32.2-2,41.4-5.8
		c7-2.9,18-8.3,29.1-18.8c2.8-4.1,5.7-8.3,8.5-12.4c-0.3-0.5-2.7-4.7-7.4-5.2c-4.4-0.5-8.9,2.6-10.5,7.6c-2.2,2.3-7.8,7.6-15.5,8.2
		c-2.2,0.2-5.8,0.4-8.3-2c-1.3-1.2-1.8-2.7-2.1-3.7c4.2-2.1,7.6-4,10-5.4c11.6-6.7,20.4-11.9,27.2-21.5c1.7-2.4,2.9-4.4,3.6-5.8
		c-0.4-1.1-1.5-3.5-3.9-4.6c-0.4-0.2-2.1-1-4.8-0.5c-8.3,1.4-22.7,12.4-28.5,16.6c-3.1,2.2-7.8,5.4-13.9,8.9c-1.5-2.1-3-4.2-4.6-6.4
		c5.1-6,10-9.9,13.5-12.3c2.9-2,4.3-3.8,14.5-9.3c6-3.3,8.8-7.4,9.9-9.5c1.4-2.5,2-4,1.8-5.6c-0.5-3.8-4.5-5.8-5.2-6.2
		c-1.4,0.2-3.3,0.5-5.6,1.2c-4.8,1.4-8.1,3.5-10.1,4.8c-7.5,4.8-13.7,10.2-15.5,11.5c-6,4.7-11.7,9.3-17.1,13.9
		c-0.3-0.7-0.5-1.8-0.4-3c0.4-3.5,4-5.4,7.8-8c4.5-3,8.4-7,12.7-10.3c2.4-1.9,6-4.7,10.3-8.2c4.1-2.9,5.4-7.9,3.6-11.5
		c-1.8-3.5-5.8-4.3-6.4-4.4c-6.2,3.8-12.4,7.6-18.5,11.3c-6,4.9-12.6,10.8-19.2,17.9c-5.5,5.8-10.1,11.5-14.1,16.8
		c-1.7-1.3-4-3.6-5-6.9c-1.5-5.3,2.3-7.9,2.8-14.1c0.7-9.2-6.1-20.4-13.1-20.7C383.3,1499.5,381,1499.9,378.2,1502.3L378.2,1502.3z"
		/>
	
		<linearGradient id="SVGID_00000181788959560146556870000016929674541145362349_" gradientUnits="userSpaceOnUse" x1="501.0089" y1="248.6411" x2="420.4969" y2="168.129" gradientTransform="matrix(1 0 0 -1 0 1750)">
		<stop  offset="0" style="stop-color:#FEEB7B"/>
		<stop  offset="0.228" style="stop-color:#EACE71"/>
		<stop  offset="0.567" style="stop-color:#D4AB64"/>
		<stop  offset="0.836" style="stop-color:#C8985D"/>
		<stop  offset="1" style="stop-color:#C4915B"/>
	</linearGradient>
	<path style="fill:url(#SVGID_00000181788959560146556870000016929674541145362349_);" d="M413.4,1544.4c8.4-2,14.4-12.1,18.2-14.8
		c0.2-0.1,1.2-0.9,2.7-2c0.5-0.4,1-0.8,1.6-1.3c2.5-2.1,3.8-3.4,8.4-7c2.4-1.9,6-4.7,10.3-8.2c4.1-2.9,5.4-7.9,3.6-11.5
		c-1.8-3.5-5.8-4.3-6.4-4.4c-6.2,3.8-12.4,7.6-18.5,11.3c-6,4.9-12.6,10.8-19.2,17.9c-5.5,5.8-10.1,11.5-14.1,16.8
		c-0.1-0.1-0.2-0.2-0.3-0.2l-17,28.5c1.9,8.8,5.5,16.8,12.4,22.9c8.2,7.2,17.3,9.4,22.4,10.6c17.7,3.9,32.2-2,41.4-5.8
		c7-2.9,18-8.3,29.1-18.8c2.8-4.1,5.7-8.3,8.5-12.4c-0.3-0.5-2.7-4.7-7.4-5.2c-4.4-0.5-8.9,2.6-10.5,7.6c-1.1,1.1-2.6,4.5-4.9,7.7
		c-1.4,1.9-4.3,4.8-9,6.5c-5.4,1.9-10.3,0.8-12.3,0.2c-0.8,0-2.4-0.1-4-1.2c-3.2-2.2-3.1-6.3-3.1-6.7c7.1-3.6,13-6.9,17.4-9.4
		c11.6-6.7,20.4-11.9,27.2-21.5c1.7-2.4,2.9-4.4,3.6-5.8c-0.4-1.1-1.5-3.5-3.9-4.6c-0.4-0.2-2.1-1-4.8-0.5
		c-7.1,1.2-19.9,11.1-28.5,16.6c-9.5,6-13.5,6.4-23.1,14.1c-2.7,2.2-4.8,4.1-6.2,5.4c-0.6-0.3-2.5-1.4-3.5-3.6
		c-0.9-1.9-0.8-3.6-0.7-4.3c4.2-1.5,7.2-3.2,9-4.4c7.4-4.7,9.6-9.2,19.6-17c2-1.6,3.5-2.6,4-3c2-1.4,4.9-3.3,10.5-6.3
		c6-3.3,8.8-7.4,9.9-9.5c1.4-2.5,2-4,1.8-5.6c-0.5-3.8-4.5-5.8-5.2-6.2c-1.4,0.2-3.3,0.5-5.6,1.2c-4.8,1.4-8.1,3.5-10.1,4.8
		c-6.9,4.5-10.4,6.7-15.5,11.5c-5.5,5.1-14.6,12.6-30.6,22.7c-0.4-0.6-0.9-1.2-1.3-2c-0.6-1-1-1.9-1.4-2.7
		C410.5,1545,412.3,1544.7,413.4,1544.4L413.4,1544.4z"/>
	
		<linearGradient id="SVGID_00000116942500325636885850000005501377614094734764_" gradientUnits="userSpaceOnUse" x1="410.5078" y1="228.8803" x2="384.3088" y2="216.1424" gradientTransform="matrix(1 0 0 -1 0 1750)">
		<stop  offset="0" style="stop-color:#FEEB7B"/>
		<stop  offset="0.228" style="stop-color:#EACE71"/>
		<stop  offset="0.567" style="stop-color:#D4AB64"/>
		<stop  offset="0.836" style="stop-color:#C8985D"/>
		<stop  offset="1" style="stop-color:#C4915B"/>
	</linearGradient>
	<path style="fill:url(#SVGID_00000116942500325636885850000005501377614094734764_);" d="M395.1,1534.4c-1.5-5.3,2.3-7.9,2.8-14.1
		c0.7-9.2-6.1-20.4-13.1-20.7c-1.5-0.1-3.7,0.3-6.5,2.7c1,4.8,2,9.6,2.9,14.4c-0.9,6.3-1.9,16.2-1.1,28.3c0.5,8.2,1,16.7,2.7,24.6
		l17-28.5C398.1,1539.7,396,1537.5,395.1,1534.4L395.1,1534.4z"/>
	
		<linearGradient id="SVGID_00000087404354211618518090000013702257919933893035_" gradientUnits="userSpaceOnUse" x1="8738.5469" y1="261.2938" x2="8654.8096" y2="177.5558" gradientTransform="matrix(-1 0 0 -1 9314.9033 1750)">
		<stop  offset="0.248" style="stop-color:#FEEB7B"/>
		<stop  offset="0.42" style="stop-color:#EACE71"/>
		<stop  offset="0.674" style="stop-color:#D4AB64"/>
		<stop  offset="0.876" style="stop-color:#C8985D"/>
		<stop  offset="1" style="stop-color:#C4915B"/>
	</linearGradient>
	<path style="fill:url(#SVGID_00000087404354211618518090000013702257919933893035_);" d="M683,1502.3c-1,4.8-2,9.6-2.9,14.4
		c0.9,6.3,1.9,16.2,1.1,28.3c-1.1,17.4-1.9,35.9-15.2,47.5c-8.2,7.2-17.3,9.4-22.4,10.6c-17.7,3.9-32.2-2-41.4-5.8
		c-7-2.9-18-8.3-29.1-18.8c-2.8-4.1-5.7-8.3-8.5-12.4c0.3-0.5,2.7-4.7,7.4-5.2c4.4-0.5,8.9,2.6,10.5,7.6c2.2,2.3,7.8,7.6,15.5,8.2
		c2.2,0.2,5.8,0.4,8.3-2c1.3-1.2,1.8-2.7,2.1-3.7c-4.2-2.1-7.6-4-10-5.4c-11.6-6.7-20.4-11.9-27.2-21.5c-1.7-2.4-2.9-4.4-3.6-5.8
		c0.4-1.1,1.5-3.5,3.9-4.6c0.4-0.2,2.1-1,4.8-0.5c8.3,1.4,22.7,12.4,28.5,16.6c3.1,2.2,7.8,5.4,13.9,8.9c1.5-2.1,3-4.2,4.6-6.4
		c-5.1-6-10-9.9-13.5-12.3c-2.9-2-4.3-3.8-14.5-9.3c-6-3.3-8.8-7.4-9.9-9.5c-1.4-2.5-2-4-1.8-5.6c0.5-3.8,4.5-5.8,5.2-6.2
		c1.4,0.2,3.3,0.5,5.6,1.2c4.8,1.4,8.1,3.5,10.1,4.8c7.5,4.8,13.7,10.2,15.5,11.5c6,4.7,11.7,9.3,17.1,13.9c0.3-0.7,0.5-1.8,0.4-3
		c-0.4-3.5-4-5.4-7.8-8c-4.5-3-8.4-7-12.7-10.3c-2.4-1.9-6-4.7-10.3-8.2c-4.1-2.9-5.4-7.9-3.6-11.5c1.8-3.5,5.8-4.3,6.4-4.4
		c6.2,3.8,12.4,7.6,18.5,11.3c6,4.9,12.6,10.8,19.2,17.9c5.5,5.8,10.1,11.5,14.1,16.8c1.7-1.3,4-3.6,5-6.9c1.5-5.3-2.3-7.9-2.8-14.1
		c-0.7-9.2,6.1-20.4,13.1-20.7C678,1499.5,680.2,1499.9,683,1502.3L683,1502.3z"/>
	
		<linearGradient id="SVGID_00000144321456613544650440000014189004030689055919_" gradientUnits="userSpaceOnUse" x1="8754.6924" y1="248.6204" x2="8674.1797" y2="168.1083" gradientTransform="matrix(-1 0 0 -1 9314.9033 1750)">
		<stop  offset="0" style="stop-color:#FEEB7B"/>
		<stop  offset="0.228" style="stop-color:#EACE71"/>
		<stop  offset="0.567" style="stop-color:#D4AB64"/>
		<stop  offset="0.836" style="stop-color:#C8985D"/>
		<stop  offset="1" style="stop-color:#C4915B"/>
	</linearGradient>
	<path style="fill:url(#SVGID_00000144321456613544650440000014189004030689055919_);" d="M647.8,1544.4c-8.4-2-14.4-12.1-18.2-14.8
		c-0.2-0.1-1.2-0.9-2.7-2c-0.5-0.4-1-0.8-1.6-1.3c-2.5-2.1-3.8-3.4-8.4-7c-2.4-1.9-6-4.7-10.3-8.2c-4.1-2.9-5.4-7.9-3.6-11.5
		c1.8-3.5,5.8-4.3,6.4-4.4c6.2,3.8,12.4,7.6,18.5,11.3c6,4.9,12.6,10.8,19.2,17.9c5.5,5.8,10.1,11.5,14.1,16.8
		c0.1-0.1,0.2-0.2,0.3-0.2l17,28.5c-1.9,8.8-5.5,16.8-12.4,22.9c-8.2,7.2-17.3,9.4-22.4,10.6c-17.7,3.9-32.2-2-41.4-5.8
		c-7-2.9-18-8.3-29.1-18.8c-2.8-4.1-5.7-8.3-8.5-12.4c0.3-0.5,2.7-4.7,7.4-5.2c4.4-0.5,8.9,2.6,10.5,7.6c1.1,1.1,2.6,4.5,4.9,7.7
		c1.4,1.9,4.3,4.8,9,6.5c5.4,1.9,10.3,0.8,12.3,0.2c0.8,0,2.4-0.1,4-1.2c3.2-2.2,3.1-6.3,3.1-6.7c-7.1-3.6-13-6.9-17.4-9.4
		c-11.6-6.7-20.4-11.9-27.2-21.5c-1.7-2.4-2.9-4.4-3.6-5.8c0.4-1.1,1.5-3.5,3.9-4.6c0.4-0.2,2.1-1,4.8-0.5
		c7.1,1.2,19.9,11.1,28.5,16.6c9.5,6,13.5,6.4,23.1,14.1c2.7,2.2,4.8,4.1,6.2,5.4c0.6-0.3,2.5-1.4,3.5-3.6c0.9-1.9,0.8-3.6,0.7-4.3
		c-4.2-1.5-7.2-3.2-9-4.4c-7.4-4.7-9.6-9.2-19.6-17c-2-1.6-3.5-2.6-4-3c-2-1.4-4.9-3.3-10.5-6.3c-6-3.3-8.8-7.4-9.9-9.5
		c-1.4-2.5-2-4-1.8-5.6c0.5-3.8,4.5-5.8,5.2-6.2c1.4,0.2,3.3,0.5,5.6,1.2c4.8,1.4,8.1,3.5,10.1,4.8c6.9,4.5,10.4,6.7,15.5,11.5
		c5.5,5.1,14.6,12.6,30.6,22.7c0.4-0.6,0.9-1.2,1.3-2c0.6-1,1-1.9,1.4-2.7C650.7,1545,648.9,1544.7,647.8,1544.4L647.8,1544.4z"/>
	
		<linearGradient id="SVGID_00000151513571981651193970000002340304808504312240_" gradientUnits="userSpaceOnUse" x1="8664.1592" y1="228.9038" x2="8637.9609" y2="216.1659" gradientTransform="matrix(-1 0 0 -1 9314.9033 1750)">
		<stop  offset="0" style="stop-color:#FEEB7B"/>
		<stop  offset="0.228" style="stop-color:#EACE71"/>
		<stop  offset="0.567" style="stop-color:#D4AB64"/>
		<stop  offset="0.836" style="stop-color:#C8985D"/>
		<stop  offset="1" style="stop-color:#C4915B"/>
	</linearGradient>
	<path style="fill:url(#SVGID_00000151513571981651193970000002340304808504312240_);" d="M666.2,1534.4c1.5-5.3-2.3-7.9-2.8-14.1
		c-0.7-9.2,6.1-20.4,13.1-20.7c1.5-0.1,3.7,0.3,6.5,2.7c-1,4.8-2,9.6-2.9,14.4c0.9,6.3,1.9,16.2,1.1,28.3c-0.5,8.2-1,16.7-2.7,24.6
		l-17-28.5C663.2,1539.7,665.3,1537.5,666.2,1534.4L666.2,1534.4z"/>
	<path class="st87" d="M1055.1,374c6.1-4.7,14.3-12.4,21.4-23.7c4.5-7.2,7.4-14.1,9.2-19.6c2,3.1,4.7,8.5,4.6,15.3
		c-0.2,11.8-8.9,22.9-22,28.3l16.8,8.7c0.6,1.3,1.1,3,1.2,4.9c0.1,7.3-6.8,11.9-7.5,12.4c3.5-1,5.2-0.4,6.1,0.3c0,0,1.3,1.1,2,9.2
		c-14.6-3.5-18.2-2.6-18.2-2.6c-3.4,0.8-3.3,2-10.4,6.9c-9.1,6.3-15.6,10.8-22.2,9.5c-2-0.4-5.8-1.7-9.8-6.9
		c-3.3-1.4-6.5-2.9-9.8-4.3c7.2-4.2,16.4-10.7,25.4-20.5C1047.6,385.6,1052,379.3,1055.1,374L1055.1,374z"/>
	<path class="st88" d="M1033.8,428.7c-5.7,2.8-11.5,5.6-17.2,8.4c-0.8-12.7-1.5-25.4-2.3-38.1l22.4-1.4
		C1035.7,407.9,1034.8,418.3,1033.8,428.7z"/>
	
		<linearGradient id="SVGID_00000013910762782212888160000008312651210113430461_" gradientUnits="userSpaceOnUse" x1="825.3878" y1="1495.6603" x2="988.3818" y2="1276.3242" gradientTransform="matrix(1 0 0 -1 0 1750)">
		<stop  offset="0" style="stop-color:#FFFFFF"/>
		<stop  offset="2.400000e-02" style="stop-color:#EFF4F4"/>
		<stop  offset="9.400000e-02" style="stop-color:#C4D8D8"/>
		<stop  offset="0.167" style="stop-color:#A0BFBF"/>
		<stop  offset="0.244" style="stop-color:#82ABAB"/>
		<stop  offset="0.325" style="stop-color:#6B9C9C"/>
		<stop  offset="0.411" style="stop-color:#5B9191"/>
		<stop  offset="0.508" style="stop-color:#518A8A"/>
		<stop  offset="0.635" style="stop-color:#4E8888"/>
		<stop  offset="0.705" style="stop-color:#4C8584"/>
		<stop  offset="1" style="stop-color:#487C7C"/>
	</linearGradient>
	<path style="fill:url(#SVGID_00000013910762782212888160000008312651210113430461_);" d="M939.6,403.5c30.1-1.8,60.1-3.5,90.2-5.3
		c-0.6,12-1.2,24.1-1.9,36.1c-14.1,7.5-39.9,18.8-73.8,20.4c-45.2,2.2-79-13.9-93.6-21.9c4.5-53.7,9.1-107.4,13.6-161.1
		c12.9-4,25.7-7.9,38.6-11.9h9.4c8.5,8.6,21.3,24.2,28.5,47C965.6,354,944.4,394.7,939.6,403.5L939.6,403.5z"/>
	
		<linearGradient id="SVGID_00000138564296920464013710000017442839458188635047_" gradientUnits="userSpaceOnUse" x1="792.209" y1="1601.968" x2="825.0909" y2="1380.6431" gradientTransform="matrix(1 0 0 -1 0 1750)">
		<stop  offset="0" style="stop-color:#FFFFFF"/>
		<stop  offset="0.42" style="stop-color:#84A8AA"/>
		<stop  offset="1" style="stop-color:#518E8E"/>
	</linearGradient>
	<path style="fill:url(#SVGID_00000138564296920464013710000017442839458188635047_);" d="M896.7,526.8
		c-54.6,8.2-109.2,16.4-163.7,24.7c8.2-32.6,16.4-65.2,24.7-97.9l-45.6-193.5c70-0.1,140.1-0.1,210.1-0.2c3.5,8,8.1,20.1,10.9,35.3
		c5.3,28,1.7,50.3-0.6,64.3C920.6,429.6,899.1,517,896.7,526.8L896.7,526.8z"/>
	<path class="st91" d="M878.6,202.1l-60-5.1c-1.4-22.3-2.8-44.7-4.2-67c33.6-5.7,67.1-11.4,100.7-17.1
		C902.9,142.6,890.7,172.4,878.6,202.1L878.6,202.1z"/>
	
		<linearGradient id="SVGID_00000013160509469587829700000015049609510336653699_" gradientUnits="userSpaceOnUse" x1="632.5923" y1="1494.082" x2="758.3914" y2="1356.568" gradientTransform="matrix(1 0 0 -1 0 1750)">
		<stop  offset="0" style="stop-color:#FFFFFF"/>
		<stop  offset="0.62" style="stop-color:#518E8E"/>
		<stop  offset="0.919" style="stop-color:#487C7C"/>
	</linearGradient>
	<path style="fill:url(#SVGID_00000013160509469587829700000015049609510336653699_);" d="M787.3,355.2c-0.5,32.2-14,55.8-21.1,66.5
		c12.1-1.1,24.1-2.1,36.2-3.2l-1.2,42.2c-4.3,2-56.7,26.3-83.9,2.5c-13.2-11.5-14.8-29.7-15.3-55.1c-0.8-35.5,0.6-85.9,10.1-148
		c8.6,1,34,5.1,53.6,26.3C788,310.5,787.5,340.6,787.3,355.2L787.3,355.2z"/>
	<path class="st91" d="M882.8,258.9c-2.1-1.5-5.6-3.9-10.1-6.4c-24.9-13.4-62.8-18-78.4,0c-1.2,1.4-2.7,3.4-4.1,6.2
		c0,0.1-0.1,0.1-0.1,0.2L882.8,258.9L882.8,258.9z"/>
	
		<linearGradient id="SVGID_00000046309966063172017720000011678939181352965248_" gradientUnits="userSpaceOnUse" x1="805.6" y1="1552.25" x2="898.5001" y2="1552.25" gradientTransform="matrix(1 0 0 -1 0 1750)">
		<stop  offset="0" style="stop-color:#FFFFFF"/>
		<stop  offset="1" style="stop-color:#F9DB97"/>
	</linearGradient>
	<path style="fill:url(#SVGID_00000046309966063172017720000011678939181352965248_);" d="M870.4,279.4l-64.8-12.8l27.9-150.5
		c21.7,1.7,43.4,3.4,65,5C889.2,173.9,879.8,226.7,870.4,279.4L870.4,279.4z"/>
	
		<linearGradient id="SVGID_00000129916830256079556010000013234711026267807128_" gradientUnits="userSpaceOnUse" x1="845.0021" y1="1353.8923" x2="843.8791" y2="1495.3174" gradientTransform="matrix(1 0 0 -1 0 1750)">
		<stop  offset="0" style="stop-color:#284443"/>
		<stop  offset="0.672" style="stop-color:#365B5B"/>
	</linearGradient>
	<path style="fill:url(#SVGID_00000129916830256079556010000013234711026267807128_);" d="M895.7,267.5l-12.9-8.7l-92.9-0.3
		c-0.8,3.9-1.7,7.7-2.5,11.6c-4.8,0-9.6,0-14.3,0.1c11,13,22.8,29.4,33,49.7C835.2,378.1,834,434,831,463.1
		c4.3,23.8,8.6,47.7,12.9,71.5c17.6-21.7,43.8-59.7,59.2-113.3c19.4-67.7,11.5-125.2,5.5-154.3C904.2,267.3,900,267.4,895.7,267.5z"
		/>
	<path class="st88" d="M876.7,529.9l-80.1,12c15.7-27.6,46.3-88.2,48.8-157.2c0.4-10.8,0.7-26.4-2.7-45.4
		c-0.9-4.8-2.6-13.4-5.8-23.4c-4.2-13.3-12.6-34.2-30.1-57.3c23.7,0,47.4,0,71.1-0.1c8.8,22.7,13.3,41.8,15.8,54.7
		c11.7,60.9,2.9,113-6.9,168.3C883.2,502.2,879.3,519,876.7,529.9L876.7,529.9z"/>
	<path class="st69" d="M876.7,279.7c1.8,4.8,4.5,12.5,7.1,22c12.2,44.5,9.6,81.8,7,116.5c-1.3,17.3-3.9,41.1-9.7,69.4l-23.4,32.7
		c-5-8.6-9.9-17.2-14.9-25.7c12-29.8,18.4-55.9,22-75.2c4.7-25,12.1-66,3.2-116.8c-1.7-9.5-3.5-17.3-4.9-22.5
		c-1.6-3.5-3.8-7.6-7.1-11.9c-3.8-5.1-7.8-8.9-11.1-11.6c0.5-2.9,1-5.9,1.6-8.8c6.3-1.4,14.7-2.3,24-0.5c1.8,0.4,3.5,0.8,5.2,1.3
		c1.3,4.7,2.5,11,2.4,18.5C878,271.8,877.5,276.1,876.7,279.7L876.7,279.7z"/>
	<path class="st88" d="M853.8,280.5c-6.4-1-14.9-3-24.1-7.2c-10-4.6-17.6-10.1-22.8-14.6c0.6-2.8,1.2-5.7,1.8-8.5
		c1.1-5.4,2.1-10.7,3.1-15.9c16.2,3.4,33,6.9,49.2,10.3L853.8,280.5L853.8,280.5z"/>
	<path class="st88" d="M876.6,247.3c0.6,2.7,1.2,5.5,1.7,8.5c0.7,4.4,1.2,8.6,1.5,12.5c-2.6-7.4-5.1-14.9-7.7-22.3
		C873.6,246.4,875.1,246.9,876.6,247.3z"/>
	<path class="st95" d="M880.4,225.5c-6.2,4.4-12.4,8.9-18.5,13.3c-15.4-9.1-30.7-18.1-46.1-27.2c3.4,0.4,8.4,0.8,14.6,1.2
		c26.5,1.6,39-0.8,46.7,7.6C878.3,221.6,879.5,223.3,880.4,225.5z"/>
	<path class="st95" d="M840.9,185c9.6,1.2,19.2,2.5,28.9,3.7c0.7,0.6,2.3,2,4.7,2.5c1.4,0.3,2.5,0.1,3.3,0l4.2,3.6
		c-3.9-0.7-7.9-1.6-11.9-2.4C859.9,190.2,850.2,187.7,840.9,185z"/>
	<path class="st96" d="M915.6,111.9c-2.3-3.4-18.6-26.1-49.3-29.6c-29.8-3.4-50.3,14.1-53.5,16.9c1.9,32.6,3.9,65.2,5.8,97.8
		c3.9-12.4,9.4-26.4,17.4-41c3.1-5.6,6.2-10.8,9.4-15.7c3.9,1.2,29.8,8.4,52.2-7.1C907.5,126.2,912.8,117.4,915.6,111.9L915.6,111.9
		z"/>
	<path class="st96" d="M827.9,172.2c-0.3-0.1-0.5-0.1-0.8-0.2l6-29.9c4.5-3.3,9.1-6.5,13.6-9.8c-0.9,6.8-3.1,17.1-9.6,27.9
		C834.1,165.1,830.9,169.1,827.9,172.2z"/>
	<path class="st87" d="M883.2,178.8c-5.3-0.9-10.6-1.8-16-2.6c1.9-2.5,4.1-5.8,6-10.1c2.6-5.9,3.6-11.2,4-15
		C879.2,160.3,881.2,169.6,883.2,178.8L883.2,178.8z"/>
	<path class="st95" d="M865.4,175.9c3.6,0.5,7.3,1.1,11,1.7c2.3,0.4,4.6,0.8,6.8,1.2c1.4-2.2,1.7-3.9,1.1-4.9
		C882.9,171.6,876.6,172.3,865.4,175.9L865.4,175.9z"/>
	<path class="st97" d="M826.5,185.2c-2.5-1.6-7-5-9.7-10.5c-1.6-3.1-3.6-7.3-1.5-10.8c2.3-3.8,8.9-5.6,16.3-4.5L826.5,185.2z"/>
	<path class="st91" d="M823.2,439.6c0.1,11.7-9.9,21.5-22,21.2c-11.1-0.9-19.7-10.1-19.8-20.8c-0.1-11.3,9.2-21.1,21-21.4
		C813.9,418.9,823.1,428.4,823.2,439.6z"/>
	<path class="st88" d="M814.8,450.8c-2.8,1.8-6,3.7-9.7,5.4c-3.1,1.5-6,2.6-8.7,3.6c-2.1-0.7-6.9-2.6-10.6-7.3
		c-4.4-5.8-6.2-14.6-2.3-22.4c3.5-7,10.8-11.5,18.8-11.5c2-0.2,8.9-0.7,13.7,3.8C822.2,428.3,822.7,440.7,814.8,450.8z"/>
	<path class="st98" d="M814.8,450.8c-4.2,3.5-9.3,3.3-11.6,3.2c-1.9-0.1-7.5-0.3-12.1-4.4c-5.6-5-6.9-13.1-4.9-19.6
		c0.4-1.3,2-6,6.6-9.2c6.7-4.8,15.4-3.3,20.7-0.3c1.4,0.8,3.7,2.2,5.5,5c2.8,4.5,2,9.4,1.4,13C819.6,442.7,818.8,447.5,814.8,450.8
		L814.8,450.8z"/>
	<path class="st87" d="M782.3,427.7c2.4-2.6,13.4-13.8,27.2-12c1.7,0.2,3.6,0.7,5.7,1.5c1.2-1.2,6.4-6.2,14.8-6.7s14.3,3.8,15.6,4.8
		c3.2-0.1,8.6,0.3,14.5,3c3.1,1.4,5.6,3.1,7.4,4.6c9.1,0.5,16.2,2.3,21.1,3.8c7.4,2.3,14,4.5,15.4,9.7c0.6,2.4-0.1,4.6-0.8,6.2
		c-3-1.9-6.3-3.7-10-5.4c-13-5.9-25.2-7.5-34.1-7.8c7.7,1.4,25,5.2,35.8,12.6c3.5,2.4,5.7,4.8,5.9,7.7c0.3,4.5-4.3,8-5.2,8.8
		c-48.6-16.5-62-21-62-21s13.9,6.6,25.3,12.3c6,3,11.5,5.8,12,10.5c0.3,2.7-1.1,5.2-2.3,6.7c-1.2,0.6-2.4,1.3-3.6,1.9
		c-11.8-9-24.5-16.9-37.9-23.4c-18.4-9-25.3-9.3-29.9-8.9c-13.3,1.2-22.8,9.7-27.4,14.5c-3.4-6.2-2.8-13.5,1.3-18.3
		C775.1,428,781.2,427.7,782.3,427.7L782.3,427.7z"/>
</g>
</svg>
