<svg width="1862" height="1862" viewBox="0 0 1862 1862" fill="none" xmlns="http://www.w3.org/2000/svg">
<rect width="1862" height="1862" fill="#2E6F63"/>
<path d="M513.551 412.722C565.403 505.527 561.082 840.669 552.44 996.64C129.329 1108.63 466.452 1316.79 687.903 1406.87C680.643 1464.94 752.285 1559.82 789.014 1600V1430.85H1061.88V1600C1094.55 1590.15 1157.59 1467.14 1185.03 1406.87C1712.36 1136.24 1483.4 1020.62 1302.99 996.64C1276.03 923.018 1314.23 542.985 1336.7 362.172C1313.36 281.292 1046.98 262.368 916.699 263.016C538.181 280.644 490.218 370.165 513.551 412.722Z" fill="#DAC98E"/>
<path d="M627 1152.24C666.318 1179.53 765.562 1227.92 848 1203.16C774.333 1100.68 627 947.012 627 1152.24Z" fill="#2E6E63"/>
<path d="M1237 1151.52C1197.5 1179.15 1097.81 1228.14 1015 1203.08C1089 1099.3 1237 943.704 1237 1151.52Z" fill="#2E6E63"/>
</svg>
