<?xml version="1.0" encoding="UTF-8"?>
<svg data-bbox="-7.41 -2.57 369.89 366.91" viewBox="0 0 360 360" xmlns="http://www.w3.org/2000/svg" data-type="ugc">
    <g>
        <path fill="#7d457b" d="M362.48-2.57v366.91H-7.41V-2.57h369.89z"/>
        <path d="M177.5 46.13c13.65-.14 61.78.1 101.49 35.32 47.59 42.2 61.61 115.6 36.43 168.77-3.5 7.38-21.09 43.9-57.99 57.62-8.42 3.13-13.94 3.62-78.07 3.04-52.88-.47-57.13-.88-64.32-3.04-41.62-12.54-64.11-48.76-66.54-52.79C16.22 201.5 32 125.27 77.5 82.94c38.1-35.46 85.77-36.66 100-36.81z" fill="#eab9d6"/>
        <path fill="#c4489a" d="M265.97 173.88c0 45.094-38.07 81.65-85.03 81.65s-85.03-36.556-85.03-81.65c0-45.094 38.07-81.65 85.03-81.65s85.03 36.556 85.03 81.65z"/>
        <path fill="#ffffff" d="M166.07 152.18c0 15.116-12.254 27.37-27.37 27.37-15.116 0-27.37-12.254-27.37-27.37 0-15.116 12.254-27.37 27.37-27.37 15.116 0 27.37 12.254 27.37 27.37z"/>
        <path fill="#c4489a" d="M241.44 121.97l-17.84 24.91 24.16-9.67-6.32-15.24z"/>
        <path d="M152.22 200.41c-.01 8.12 6.71 14.65 14.5 14.5 7.39-.14 13.65-6.25 13.93-13.93.45 6.89 6.01 12.33 12.65 12.65 7.04.34 13.35-5.17 13.93-12.47" fill="none" stroke="#000000" stroke-width="4" stroke-linecap="round" stroke-linejoin="round" stroke-miterlimit="10"/>
        <path d="M153.53 152.18c0 8.19-6.64 14.83-14.83 14.83-8.19 0-14.83-6.64-14.83-14.83 0-8.19 6.64-14.83 14.83-14.83 8.19 0 14.83 6.64 14.83 14.83z"/>
        <path fill="#ffffff" d="M156.54 141.4a8.92 8.92 0 1 1-17.84 0 8.92 8.92 0 0 1 17.84 0z"/>
        <path fill="#ffffff" d="M245.76 152.18c0 15.116-12.254 27.37-27.37 27.37-15.116 0-27.37-12.254-27.37-27.37 0-15.116 12.254-27.37 27.37-27.37 15.116 0 27.37 12.254 27.37 27.37z"/>
        <path d="M233.22 152.18c0 8.19-6.64 14.83-14.83 14.83-8.19 0-14.83-6.64-14.83-14.83 0-8.19 6.64-14.83 14.83-14.83 8.19 0 14.83 6.64 14.83 14.83z"/>
        <path fill="#ffffff" d="M236.23 141.4a8.92 8.92 0 1 1-17.84 0 8.92 8.92 0 0 1 17.84 0z"/>
        <path d="M118.85 172.54c8.34 2.99 16.22 4.87 23.33 6.06-.08-1.59-.14-3.19-.14-4.83.05-43.78 31.52-69.14 35.33-72.1-37.96-1.45-70.37 27.17-74.7 63.86 4.86 2.49 10.24 4.89 16.18 7.01z" opacity=".2" fill="#fee7a4"/>
        <path d="M148.76 207.73c-8.33-.31-17.96-1.45-28.39-4.17-4.85-1.26-9.35-2.74-13.53-4.32 10.73 28.13 38.68 48.07 70.53 46.85-2.66-2.07-19.13-15.35-28.61-38.36z" opacity=".2" fill="#fee7a4"/>
    </g>
</svg>
