<?xml version="1.0" encoding="utf-8"?>
<!-- Generator: Adobe Illustrator 26.2.1, SVG Export Plug-In . SVG Version: 6.00 Build 0)  -->
<svg version="1.1" id="Layer_1" xmlns="http://www.w3.org/2000/svg" xmlns:xlink="http://www.w3.org/1999/xlink" x="0px" y="0px"
	 viewBox="0 0 1488.6 1488.6" style="enable-background:new 0 0 1488.6 1488.6;" xml:space="preserve">
<style type="text/css">
	.st0{fill:#FFFF33;}
	.st1{fill:#BAAC72;}
	.st2{fill:#827850;}
	.st3{fill:none;stroke:#FFFF33;stroke-width:82;stroke-linecap:round;stroke-miterlimit:10;}
</style>
<g>
	<path class="st0" d="M1495.3,0v1495.3H0V0H1495.3z"/>
</g>
<path class="st1" d="M419.8,1263c-71.4-242.6-142.9-485.2-214.3-727.7c84.7-225.5,299-376.8,537.6-380.3
	c246.6-3.6,471.1,151.4,556.6,385.5c-77.2,243.2-154.4,486.3-231.6,729.5c-81.1-15.3-175.5-27.5-280.9-31.1
	C645.5,1234,521.2,1246.2,419.8,1263z"/>
<path class="st2" d="M1452,1404.1"/>
<path class="st1" d="M1132.5,1330.5H360.5c-25.1,0-45.5-14.5-45.5-32.3v-34.7c0-17.8,20.4-32.3,45.5-32.3h771.8
	c25.1,0,45.5,14.5,45.5,32.3v34.6C1177.9,1316,1157.5,1330.5,1132.5,1330.5z"/>
<line class="st3" x1="745.4" y1="-5.8" x2="745.4" y2="1109.2"/>
<line class="st3" x1="1156.6" y1="49.5" x2="927.1" y2="1140.6"/>
<line class="st3" x1="333.2" y1="48.3" x2="562.6" y2="1139.4"/>
</svg>
