<?xml version="1.0" encoding="utf-8"?>
<!-- Generator: Adobe Illustrator 26.0.1, SVG Export Plug-In . SVG Version: 6.00 Build 0)  -->
<svg version="1.1" id="Layer_1" xmlns="http://www.w3.org/2000/svg" xmlns:xlink="http://www.w3.org/1999/xlink" x="0px" y="0px"
	 viewBox="0 0 1136.7 1667.6" style="enable-background:new 0 0 1136.7 1667.6;" xml:space="preserve">
<style type="text/css">
	.st0{fill:#85659B;}
	.st1{fill:none;stroke:#6B5A25;stroke-width:6;stroke-miterlimit:10;}
	.st2{fill:none;stroke:#6B5A25;stroke-width:4;stroke-miterlimit:10;}
	.st3{fill:none;stroke:#6B5A25;stroke-width:7;stroke-miterlimit:10;}
	.st4{fill:#BDAE68;}
	.st5{fill:#D5C772;}
	.st6{fill:#7E69AF;}
	.st7{fill:#A47CB7;}
	.st8{fill:#371E51;}
	.st9{fill:#2B1539;}
	.st10{fill:url(#SVGID_1_);}
	.st11{fill:url(#SVGID_00000120519563471579880470000007417861016265787019_);}
	.st12{fill:#6B5A25;}
	.st13{fill:url(#SVGID_00000020373194119313169050000014872541707684068793_);}
	.st14{fill:url(#SVGID_00000125571005059320646540000014858023879353320103_);}
	.st15{fill:url(#SVGID_00000049919313273769152850000010672141394603807673_);}
	.st16{fill:url(#SVGID_00000006691573113561991970000015008704256483858571_);}
	.st17{fill:url(#SVGID_00000113344335432456496390000018161219452290017466_);}
	.st18{fill:url(#SVGID_00000155858484484571762560000003429190785190927547_);}
	.st19{fill:url(#SVGID_00000106827237072486383630000012328295574558677637_);}
	.st20{fill:#FFFFFF;}
	.st21{fill:url(#SVGID_00000104684618355511258080000001591299337764956854_);}
	.st22{fill:#323232;}
</style>
<g>
	<path class="st0" d="M980.2,821.2c6.8-10.2,24.3-4.6,46.7-15.6c12.9-6.5,21.3-15.2,26.2-21.3c3.4,3.8,8,10.2,7.2,17.8
		c-0.8,9.9-9.1,16.7-17.5,22.8c-12.5,9.1-30.4,21.6-54.3,35.3C974.9,836.8,976.4,826.1,980.2,821.2L980.2,821.2z"/>
	<path class="st1" d="M411.2,1236.5v324.2"/>
	<path class="st2" d="M102.5,1394.8h149.6c5.7-1.9,20.1-7.2,31.5-21.6c13.3-17.5,13.7-36.1,13.7-41.4v-107.4"/>
	<path class="st3" d="M730.4,1011v116.9c0,0-2.3,66.8-66.8,66.8H453.3"/>
	<path class="st3" d="M79.4,1011v116.9c0,0,2.3,66.8,66.8,66.8h210.3"/>
	<path class="st4" d="M637.8,647.7v252.4H170.5V647.7H637.8L637.8,647.7z"/>
	<path class="st5" d="M257.4,1655.2h300.3v-33.8c-8-9.1-61.9-67.2-150.3-66.8c-87.7,0.4-140.8,58.8-148.8,68
		C258.2,1633.2,257.8,1644.2,257.4,1655.2L257.4,1655.2z"/>
	<path class="st6" d="M833.7,1380.8l-72.9-132.1c-35.7-17.8-71.4-36.1-107.1-53.9c28.1,53.9,56.2,108.2,84.3,162.1
		c4.6,30.4,28.5,51.2,53.1,50.5C817.3,1406.6,832.5,1382.7,833.7,1380.8z"/>
	<path class="st6" d="M413.4,1560.3c1.9-10.6-3-16.3-6.5-29.6c-4.6-17.1-5.7-42.1,9.5-77.8c-18.2-35.3-36.8-71-55-106.3
		c-7.2,116.5-17.5,162.9-26.6,180.7c-0.8,1.9-4.9,9.5-6.1,20.5c-1.9,16.3,2.3,42.9,19.7,51.6
		C371.7,1611.2,408.9,1585.4,413.4,1560.3L413.4,1560.3z"/>
	<path class="st7" d="M946.8,884.6l182.6-1.1c1.9-47.5,3.8-94.9,5.3-142.4l-35.7,23.5l-25.4,73.3c-4.2-1.9-46.7-22-87.7,1.1
		C960.5,853.5,950.2,876.6,946.8,884.6z"/>
	<path class="st5" d="M995.4,885.7H777.5v-69.5c66.8,6.1,133.2,11.8,200.1,17.5C983.2,850.8,989.3,868.3,995.4,885.7L995.4,885.7z"
		/>
	<path class="st8" d="M157.9,468.5C132.5,579,106.7,689.5,81.3,799.9c13.7,29.2,27.3,58.1,40.6,87.3l122.6-320.4L157.9,468.5z"/>
	<path class="st9" d="M194,647c-1.5,20.1-9.9,101.4-67.2,131.7c-4.9,2.7-10.6,5.3-17.1,7.2c5.3,0.4,14.4,1.5,21.6,8.4
		c5.3,4.9,8.4,11.8,7.6,12.5c-0.8,0.8-4.6-5.3-11-9.5c-9.1-5.7-19.7-5.7-27.3-4.6c6.1,7.6,14,20.1,19,37.2
		c7.6,25.4,4.6,47.1,1.9,57.7l122.6-320.4C227.8,593.4,210.7,620.4,194,647z"/>
	
		<linearGradient id="SVGID_1_" gradientUnits="userSpaceOnUse" x1="553.3439" y1="827.4067" x2="750.5571" y2="741.1039" gradientTransform="matrix(1 0 0 1 0 -100)">
		<stop  offset="0" style="stop-color:#371E51"/>
		<stop  offset="0.341" style="stop-color:#392051"/>
		<stop  offset="0.493" style="stop-color:#402753"/>
		<stop  offset="0.608" style="stop-color:#4C3455"/>
		<stop  offset="0.704" style="stop-color:#5D4659"/>
		<stop  offset="0.788" style="stop-color:#735E5D"/>
		<stop  offset="0.864" style="stop-color:#8E7A63"/>
		<stop  offset="0.932" style="stop-color:#AD9C69"/>
		<stop  offset="0.995" style="stop-color:#D2C370"/>
		<stop  offset="1" style="stop-color:#D5C671"/>
	</linearGradient>
	<path class="st10" d="M659,468.5c30,109.3,60,219,89.6,328.4c-2.3,10.6-7.2,27.3-18.6,44.4c-16.3,23.9-36.4,36.4-47.5,42.1
		c-35.3-104.4-71-208.4-106.3-312.8L659,468.5L659,468.5z"/>
	
		<linearGradient id="SVGID_00000135686231647249231930000016234756200179873935_" gradientUnits="userSpaceOnUse" x1="814.7845" y1="1019.4743" x2="857.2946" y2="873.3884" gradientTransform="matrix(1 0 0 1 0 -100)">
		<stop  offset="0" style="stop-color:#371E51"/>
		<stop  offset="0.341" style="stop-color:#392051"/>
		<stop  offset="0.493" style="stop-color:#402753"/>
		<stop  offset="0.608" style="stop-color:#4C3455"/>
		<stop  offset="0.704" style="stop-color:#5D4659"/>
		<stop  offset="0.788" style="stop-color:#735E5D"/>
		<stop  offset="0.864" style="stop-color:#8E7A63"/>
		<stop  offset="0.932" style="stop-color:#AD9C69"/>
		<stop  offset="0.995" style="stop-color:#D2C370"/>
		<stop  offset="1" style="stop-color:#D5C671"/>
	</linearGradient>
	<path style="fill:url(#SVGID_00000135686231647249231930000016234756200179873935_);" d="M984.4,885.7l-301.8-2.3
		c-10.6-22.8-7.6-49.4,8-68c20.1-23.9,50.1-22,53.1-22c8-2.3,15.9-4.9,24.3-7.2c64.5,11.8,129.5,23.2,194,34.9
		C969.6,842.5,977.2,864.1,984.4,885.7L984.4,885.7z"/>
	<path class="st4" d="M125.3,883.5v152.6H30.8V883.5H125.3z"/>
	<path class="st4" d="M777.1,883.5v152.6h-94.5V883.5H777.1z"/>
	<path class="st4" d="M660.6,1070.6v114.6H161.7v-114.6H660.6z"/>
	<path class="st5" d="M557.7,1185.6v92.6H257.4v-92.6H557.7L557.7,1185.6z"/>
	<path class="st4" d="M125.3,1373.2v35.3H30.8v-35.3H125.3z"/>
	<path class="st8" d="M690.6,784c8,7.2,17.5,11.8,17.5,11.8c6.8,3.4,12.9,5.3,17.8,6.5c-4.2,1.5-11,4.2-17.5,10.6
		c-4.2,4.2-6.8,8.7-8.7,12.1c19.4,13.3,36.4,21.6,48.2,27c0,0,61.1,27,179.9,31.9l5.7,0.4c-83.5,0-167,0-250.9-0.4
		c-11.8-36.4-29.2-90.7-53.1-156.4c0,0-37.6-103.3-35.3-104C594.1,622.7,669.7,765.8,690.6,784L690.6,784z"/>
	<path class="st12" d="M449.5,484.5H361c-0.4-19.4-0.8-38.7-1.5-58.1c31.9,0,63.4,0.4,95.3,0.4C453.3,446.1,451.4,465.5,449.5,484.5
		z"/>
	
		<linearGradient id="SVGID_00000044899728996834615580000011241962909717389212_" gradientUnits="userSpaceOnUse" x1="311.9389" y1="927.2228" x2="530.7867" y2="472.5504" gradientTransform="matrix(1 0 0 1 0 -100)">
		<stop  offset="0" style="stop-color:#371E51"/>
		<stop  offset="0.341" style="stop-color:#392051"/>
		<stop  offset="0.493" style="stop-color:#402753"/>
		<stop  offset="0.608" style="stop-color:#4C3455"/>
		<stop  offset="0.704" style="stop-color:#5D4659"/>
		<stop  offset="0.788" style="stop-color:#735E5D"/>
		<stop  offset="0.864" style="stop-color:#8E7A63"/>
		<stop  offset="0.932" style="stop-color:#AD9C69"/>
		<stop  offset="0.995" style="stop-color:#D2C370"/>
		<stop  offset="1" style="stop-color:#D5C671"/>
	</linearGradient>
	<path style="fill:url(#SVGID_00000044899728996834615580000011241962909717389212_);" d="M157.2,465.9l231.6,35.3l271.4-35.3
		l-104,536.8H257L157.2,465.9z"/>
	<path class="st9" d="M525,880.8c-56.2,27.7-109.7,11.8-121.1,8c0-28.5-0.4-56.6-0.4-85c-2.7,1.9-5.7,4.2-8.4,6.1
		c-4.2,11-8,25.4-10.2,42.1c-1.5,12.9-1.9,24.7-1.5,34.5c33,21.3,53.5,43.7,66.1,59.6c34.2,45.2,38.7,86.2,82.8,116.2
		c12.9,8.7,25.1,14,32.6,16.7c13.3,0,26.6,0,39.9-0.4c-3-15.9-6.8-33.8-13.3-53.5c-8.4-24.7-17.8-45.6-27-62.6
		c9.5-48.2,18.6-96.8,28.1-145C584.6,830.3,564.5,861.4,525,880.8L525,880.8z"/>
	
		<linearGradient id="SVGID_00000091694446332151693840000006245519425717984694_" gradientUnits="userSpaceOnUse" x1="407.282" y1="1576.4452" x2="537.773" y2="1912.5164" gradientTransform="matrix(1 0 0 -1 0 2631.2656)">
		<stop  offset="0" style="stop-color:#2B1539"/>
		<stop  offset="0.259" style="stop-color:#2D173A"/>
		<stop  offset="0.412" style="stop-color:#35203C"/>
		<stop  offset="0.538" style="stop-color:#432E41"/>
		<stop  offset="0.648" style="stop-color:#564247"/>
		<stop  offset="0.749" style="stop-color:#6F5C50"/>
		<stop  offset="0.843" style="stop-color:#8E7C5A"/>
		<stop  offset="0.93" style="stop-color:#B2A265"/>
		<stop  offset="1" style="stop-color:#D5C671"/>
	</linearGradient>
	<path style="fill:url(#SVGID_00000091694446332151693840000006245519425717984694_);" d="M301.1,926c74-73.6,162.5-107.8,198.9-96
		c3.8,1.1,13.3,4.2,20.1,12.9c10.2,13.3,2.7,28.5,6.5,42.9c10.2,37.6,39.5,42.5,51.2,80.5c13.7,44.8,20.5,66.8,13.3,80.5
		c-14.8,27.7-62.6,27-181.1,25.1c-38-0.8-99.1-1.1-176.5-0.8c0.4-16.3,2.7-41.4,13.7-69.5C254.8,982.9,267.7,959,301.1,926
		L301.1,926z"/>
	<path class="st8" d="M345.5,1511c35.3,5.3,70.6,10.6,105.5,15.9c12.5-79,27.3-160.2,44-244.1c15.6-77.4,32.3-151.8,49.7-223.6
		c-0.8-6.5-1.9-13.3-2.7-19.7c-2.3-7.6-6.5-18.6-14.8-30.4c-8-11.4-17.1-18.6-23.2-23.2c-3.4-2.7-35.3-27-69.5-15.9
		c-16.3,5.3-27.3,17.5-31.1,21.3c-9.5,9.5-11.8,18.2-18.2,31.5c-5.7,12.1-14.4,28.9-27.7,48.2c0.4,54.7,0.4,110.1-0.8,167
		C355,1332.2,351.2,1423.3,345.5,1511L345.5,1511z"/>
	<path class="st9" d="M345.5,1511c33.4,4.9,67.2,10.2,100.6,15.2c-28.1-10.6-56.2-21.6-84.3-32.3c19-1.5,38-3,57.3-4.6l-44.4-6.8
		c6.5-7.2,12.5-14,19-21.3c4.6-146.5,9.1-293.4,13.3-440c2.7-4.2,22-35.3,55-38c35.7-3,74.4,27.7,82.8,76.3c0,0-1.1-9.9-1.5-9.9
		c-0.4-3.4-0.8-6.8-1.1-9.9c-2.3-7.6-6.5-18.6-14.8-30.4c-8-11.4-17.1-18.6-23.2-23.2c-3.4-2.7-35.3-27-69.5-15.9
		c-16.3,5.3-27.3,17.5-31.1,21.3c-9.5,9.5-11.8,18.2-18.2,31.5c-5.7,12.1-14.4,28.9-27.7,48.2c0.4,54.7,0.4,110.1-0.8,167
		C355,1332.2,351.2,1423.3,345.5,1511L345.5,1511z"/>
	<path class="st5" d="M517.8,481.8c-27.7-14-55.8-28.1-83.5-42.1l-49-2.3c-28.5,14.8-57.3,29.6-85.8,44.4
		c6.1,9.5,15.2,25.8,23.5,47.1c20.9,55,27,74.8,27.3,89.2c0,11-1.1,18.6-1.5,22.4c-3.4,28.1,6.8,74.4,64.9,155.6
		c37.6-56.6,51.2-105.2,56.9-140.1c6.1-37.6,6.5-86.2,34.2-147.7C509.9,497,514.4,487.9,517.8,481.8z"/>
	<path class="st0" d="M537.6,382.4L451,405.9V453c-6.5,7.2-12.9,14.8-19.4,22c-8.4-0.4-17.1-0.8-25.4-0.8c-6.8,1.1-13.7,1.9-20.9,3
		c-7.6-9.5-14.8-19-22.4-28.5c2.7-14.4,6.8-50.1-10.2-89.6c-12.9-30.4-32.6-49.4-44-58.8l200.8,26.6L537.6,382.4z"/>
	
		<linearGradient id="SVGID_00000051358275937904539720000017874988588309334703_" gradientUnits="userSpaceOnUse" x1="371.0038" y1="1995.9683" x2="758.3849" y2="2125.2861" gradientTransform="matrix(1 0 0 -1 0 2631.2656)">
		<stop  offset="0" style="stop-color:#6B5A25"/>
		<stop  offset="0.328" style="stop-color:#6D5C27"/>
		<stop  offset="0.504" style="stop-color:#75642C"/>
		<stop  offset="0.644" style="stop-color:#827236"/>
		<stop  offset="0.766" style="stop-color:#958543"/>
		<stop  offset="0.875" style="stop-color:#AE9E55"/>
		<stop  offset="0.974" style="stop-color:#CCBD6A"/>
		<stop  offset="1" style="stop-color:#D5C671"/>
	</linearGradient>
	<path style="fill:url(#SVGID_00000051358275937904539720000017874988588309334703_);" d="M368.6,461.3c27,0.4,53.5,1.1,80.5,1.5
		c-12.5,19.7-25.4,39.5-38,58.8c12.5,71.4,25.1,142.4,37.6,213.7c-11.8,20.1-23.2,40.2-34.9,60.4c-12.9-20.5-25.8-40.6-38.3-61.1
		c9.9-71,20.1-141.6,30-212.6C392.9,501.9,380.8,481.8,368.6,461.3z"/>
	
		<linearGradient id="SVGID_00000053527252277117782520000007806356802603473575_" gradientUnits="userSpaceOnUse" x1="409.2955" y1="1995.3672" x2="619.8258" y2="2133.7998" gradientTransform="matrix(1 0 0 -1 0 2631.2656)">
		<stop  offset="0" style="stop-color:#2B1539"/>
		<stop  offset="0.259" style="stop-color:#2D173A"/>
		<stop  offset="0.412" style="stop-color:#35203C"/>
		<stop  offset="0.538" style="stop-color:#432E41"/>
		<stop  offset="0.648" style="stop-color:#564247"/>
		<stop  offset="0.749" style="stop-color:#6F5C50"/>
		<stop  offset="0.843" style="stop-color:#8E7C5A"/>
		<stop  offset="0.93" style="stop-color:#B2A265"/>
		<stop  offset="1" style="stop-color:#D5C671"/>
	</linearGradient>
	<path style="fill:url(#SVGID_00000053527252277117782520000007806356802603473575_);" d="M450.3,440.8c8.7,30.4,16.3,66.8,17.8,109
		c4.9,119.6-39.5,212.6-66.4,259.3c26.6-23.9,70.2-69.1,100.6-139.3c26.2-60,32.3-114.3,33.4-148.1c-8-4.9-15.6-9.9-23.5-14.8
		c10.2-8.4,20.5-17.1,30.7-25.4c-13.3-1.9-31.1-6.1-50.5-14.8C474.6,458.3,460.5,448.8,450.3,440.8L450.3,440.8z"/>
	<path class="st9" d="M363.3,445.4c-7.2,29.2-13.3,64.5-14,104c-2.3,112.4,37.6,199.7,64.2,246.8c-25.1-22.4-64.9-63.4-94.5-126
		c-28.9-60.7-35.7-115.4-37.2-148.4c8-4.9,15.6-9.9,23.5-14.8l-29.6-22.8c14.4-3.8,31.1-9.5,49.4-17.5
		C339.8,459.8,352.3,452.2,363.3,445.4z"/>
	<path class="st4" d="M359.5,426.8c3,5.3,8,13.3,15.9,20.9c7.2,6.8,14.8,11.4,20.1,14c-6.5,6.1-13.7,14.4-20.9,25.4
		c-6.8,10.6-11.4,20.9-14.4,28.9l-1.1-47.5C359.1,454.5,359.5,440.4,359.5,426.8L359.5,426.8z"/>
	
		<linearGradient id="SVGID_00000124137044074058794260000013397780061604941246_" gradientUnits="userSpaceOnUse" x1="297.5618" y1="415.7726" x2="605.9775" y2="264.3075" gradientTransform="matrix(1 0 0 1 0 -100)">
		<stop  offset="0.379" style="stop-color:#A47CB7"/>
		<stop  offset="1" style="stop-color:#D5C671"/>
	</linearGradient>
	<path style="fill:url(#SVGID_00000124137044074058794260000013397780061604941246_);" d="M520.5,207.7c3-5.3,5.7-10.6,8.7-15.9
		C519,167.9,509.1,144,498.8,120c-5.7-6.8-15.2-16.3-29.2-24.3c-34.5-20.1-71.7-17.1-86.2-15.6c-11.4,1.1-94.1,9.5-128.7,75.5
		c-26.6,50.5-11,107.4,25.4,143.5c27,27,60.4,36.4,76.3,40.2c17.5,16.3,34.9,32.6,52.8,49c51.6,1.5,103.3,2.7,155.3,4.2
		c-4.2-12.9-8.7-25.8-12.9-38.3c6.8-11.8,14-23.9,20.9-35.7c-4.6-11.8-9.1-23.5-13.7-34.9c8.7-8.4,17.5-17.1,26.2-25.4
		C563.4,240.8,542.1,224.1,520.5,207.7L520.5,207.7z"/>
	<path class="st4" d="M454.8,427.2c-1.9,5.3-5.7,14.8-14.8,23.9c-6.5,6.1-12.9,9.5-17.1,11.4c5.3,5.3,12.1,12.9,18.2,23.2
		c7.2,12.5,10.6,24.3,12.1,32.3c1.1-17.8,2.3-36.1,3-53.9C456,451.5,455.2,439.3,454.8,427.2L454.8,427.2z"/>
	<path class="st9" d="M192.9,657.6c18.2,98.7,36.8,197.4,55,296.5c-9.1,17.1-18.6,38-27,62.6c-6.5,19.7-10.2,37.6-13.3,53.5
		c13.3,0.4,26.6,0.4,39.9,0.4c8.4-1.9,21.6-5.7,32.6-16.7c35.7-34.5,0-90.7,37.2-143.5c16.3-23.2,44-41.8,45.6-42.5
		c-14.4-0.8-38-3.8-61.9-17.5c-0.8-0.4-1.5-0.8-2.7-1.5c-9.9-6.1-31.1-21.3-53.1-58.5C215.6,739.2,195.2,665.2,192.9,657.6
		L192.9,657.6z"/>
	<path class="st8" d="M83.2,790.8c-32.3,3-47.8,37.2-49.7,41.4C22,857.6,28.9,883.1,30,888c1.1,3.8,1.9,6.5,2.7,7.6h86.6
		c3.4-10.2,7.2-20.1,11.4-30.7c2.7-7.6,5.7-14.8,8.7-22c0-3,0-24.3-17.1-39.5C121.1,802.2,105.2,788.6,83.2,790.8L83.2,790.8z"/>
	<path class="st5" d="M106.3,842.8c-2.3-3.4-14-21.3-34.9-22.4c-20.1-0.8-33.4,15.2-37.2,19.7C15.6,863,21.7,891.4,22.8,896h87.3
		C111.3,893,121.9,866,106.3,842.8L106.3,842.8z"/>
	<path class="st7" d="M64.2,827.7c25.1-0.4,40.2,29.6,43.7,36.1c9.9,18.6,12.9,37.6,13.7,47.5c1.5,15.2,0.8,25.1,5.7,43.3
		c2.3,9.1,5.3,16.3,7.2,20.9c-14-0.8-20.1-7.2-21.6-9.1c-4.2-4.9-5.3-11-8-23.2c-1.1-6.5-1.9-11.8-2.3-15.6c-3.8,0-7.6-0.4-11.4-0.4
		c-1.1,7.6-2.7,15.9-3.4,24.7c-0.4,4.2-2.3,17.5-2.7,28.1c-0.8,11.8-0.4,28.9,3.8,51.2c-1.9,0.8-4.6,1.5-7.2,0.8
		c-4.2-1.1-9.1-6.5-13.3-37.2c-1.1-10.2-2.7-24.7-2.7-42.1c-1.5-0.4-3-0.4-4.6-0.8c-2.3,7.6-4.6,17.1-5.3,28.1
		c-1.9,24.3,4.2,43.7,8.7,55.4c-7.6-2.7-21.3-9.1-33.4-22c-18.6-19.7-21.6-42.9-22.4-50.9c0.4-14,1.1-30,3.4-47.1
		c3-23.2,8.4-43.7,13.7-60.7C28.5,850.4,42.5,828,64.2,827.7z"/>
	
		<linearGradient id="SVGID_00000152982658218391003890000005471843446363309959_" gradientUnits="userSpaceOnUse" x1="444.4019" y1="1327.9529" x2="785.708" y2="1038.4386" gradientTransform="matrix(1 0 0 1 0 -100)">
		<stop  offset="0" style="stop-color:#3C235B"/>
		<stop  offset="0.344" style="stop-color:#3E255B"/>
		<stop  offset="0.497" style="stop-color:#452C5C"/>
		<stop  offset="0.612" style="stop-color:#51395E"/>
		<stop  offset="0.709" style="stop-color:#624B60"/>
		<stop  offset="0.793" style="stop-color:#786264"/>
		<stop  offset="0.87" style="stop-color:#937F67"/>
		<stop  offset="0.939" style="stop-color:#B2A16C"/>
		<stop  offset="1" style="stop-color:#D5C671"/>
	</linearGradient>
	<path style="fill:url(#SVGID_00000152982658218391003890000005471843446363309959_);" d="M602.9,935.1
		c66.4,126.8,132.9,254,199.3,380.8c-42.9,8-86.2,15.9-129.1,23.9c-15.2-25.8-30-51.6-45.2-77.1c-22.4-40.2-50.1-84.7-84.7-131
		c-37.2-50.1-74.8-91.9-109.3-126.4c-6.8-15.9-13.7-32.3-20.5-48.2c-0.4-14-0.8-28.1-1.1-42.5c-0.4-14-0.8-28.1-0.8-42.5
		c9.5-15.2,28.1-38,55.8-44C514,817,576.3,858.4,602.9,935.1z"/>
	<path class="st9" d="M458.2,1590.3c-15.9-11-21.6-18.2-25.1-24.3c-6.1-10.2-7.2-20.5-7.6-27.3l-69.5-1.1c2.7,14.4,5.3,28.9,8,42.9
		c-11-11-22.4-22-33.4-33.4c-1.9,6.5-5.3,17.8-9.9,32.6c-6.8,22.4-8.7,27.7-9.9,36.1c-1.1,8.4-1.9,20.9,0.8,36.8
		c64.2,0.8,128.3,1.1,192.5,1.5c8.4-15.9,6.8-25.8,4.6-31.5C503,1610.1,488.6,1611.6,458.2,1590.3L458.2,1590.3z"/>
	
		<linearGradient id="SVGID_00000085236230831363661030000007002466946260190599_" gradientUnits="userSpaceOnUse" x1="869.0731" y1="1213.0394" x2="895.6656" y2="1304.6421" gradientTransform="matrix(1 0 0 -1 0 2631.2656)">
		<stop  offset="0" style="stop-color:#2B1539"/>
		<stop  offset="0.111" style="stop-color:#331E3C"/>
		<stop  offset="0.29" style="stop-color:#4A3543"/>
		<stop  offset="0.514" style="stop-color:#6F5C50"/>
		<stop  offset="0.773" style="stop-color:#A29160"/>
		<stop  offset="1" style="stop-color:#D5C671"/>
	</linearGradient>
	<path style="fill:url(#SVGID_00000085236230831363661030000007002466946260190599_);" d="M812.4,1331c2.3,2.3,4.6,4.6,7.2,6.8
		c6.5,5.7,12.9,9.5,18.6,12.5c35.7,11.4,54.3,14.8,64.5,15.9c9.9,1.1,20.5,2.3,41.8,5.3c25.1,3.8,34.9,6.1,45.2,12.5
		c8,4.9,18.6,11.8,21.3,22.8c4.6,21.6-26.6,49.4-55.8,59.6c-33.4,11.8-66.1,1.5-68,1.1c-25.8-8.4-37.2-23.9-57.3-19
		c-5.7,1.5-8.7,3-13.7,4.9c0,0-5.7,1.5-10.6,2.3c-14,2.3-32.3-3-36.4-4.6c-3-5.7-6.8-12.9-10.2-19c-11-20.5-12.1-22.8-13.7-26.2
		c-3-8-6.1-20.9-2.7-39.1l13.7,22.8c1.9,1.5,6.5,4.6,13.7,4.9c9.1,0.4,15.2-4.6,16.7-5.7c-9.5-9.9-19-20.1-28.1-30
		c11-2.3,20.1-5.3,26.6-7.6c14-5.3,20.1-8.4,24.3-14C810.9,1334.8,812,1332.6,812.4,1331L812.4,1331z"/>
	<path class="st20" d="M561.9,318.2c-25.4-3-50.9-6.1-76.3-9.5c20.1,11.8,39.9,23.2,60,34.9C550.9,335.3,556.5,326.9,561.9,318.2z"
		/>
	<path class="st0" d="M497.7,200.5c-7.2,2.7-18.2,8-28.5,18.2c-5.3,5.3-9.1,10.6-12.1,15.2c5.7,3.4,20.1,11,38,8.7
		c5.3-0.8,9.9-2.3,13.7-3.8C504.9,226.7,501.1,213.4,497.7,200.5L497.7,200.5z"/>
	<path class="st9" d="M518.6,244.2c-3.4,1.9-16.7,9.1-34.2,5.7c-15.6-3-24.7-12.5-27.3-15.6c5.7,3.4,20.1,11,38,8.7
		c5.3-0.8,9.9-2.3,13.7-3.8C511.8,241.1,515.2,242.7,518.6,244.2L518.6,244.2z"/>
	
		<linearGradient id="SVGID_00000029746168579719048110000013580208230552968590_" gradientUnits="userSpaceOnUse" x1="261.6616" y1="2371.4141" x2="641.1424" y2="2538.1401" gradientTransform="matrix(1 0 0 -1 0 2631.2656)">
		<stop  offset="0" style="stop-color:#2B1539"/>
		<stop  offset="0.207" style="stop-color:#2E183A"/>
		<stop  offset="0.359" style="stop-color:#37213D"/>
		<stop  offset="0.494" style="stop-color:#463142"/>
		<stop  offset="0.619" style="stop-color:#5C4849"/>
		<stop  offset="0.737" style="stop-color:#786552"/>
		<stop  offset="0.85" style="stop-color:#9A895E"/>
		<stop  offset="0.957" style="stop-color:#C2B36B"/>
		<stop  offset="1" style="stop-color:#D5C671"/>
	</linearGradient>
	<path style="fill:url(#SVGID_00000029746168579719048110000013580208230552968590_);" d="M402,211.9c-8.7-19.7-17.8-39.9-26.6-59.6
		c41-11,82.4-22,123.4-33c-5.7-6.8-15.2-16.3-29.2-24.3c-34.5-20.1-71.7-17.1-86.2-15.6c-53.5,5.7-108.2,34.9-128.7,75.5
		c-9.5,19-12.1,39.1-12.1,39.1c-0.4,4.2-2.3,20.5,1.9,40.6c6.5,30.4,24.3,57.7,43.3,72.1c9.1,6.8,19.7,13.3,19.7,13.3
		c11.4,7.2,15.2,8.4,22,13.3c5.3,3.8,12.9,9.9,20.9,19.4c6.1-0.8,12.1-1.5,17.8-2.7c-7.2-13.3-14-26.2-21.3-39.5
		c-5.3,2.3-12.5,3.8-19.7,1.9c-24.7-6.5-38.3-47.5-26.6-60.4c5.7-6.5,18.6-6.5,27.7-2.3c11.4,5.3,14.8,16.3,15.6,18.2
		c4.2,7.6,8.7,15.2,12.9,22.8c10.6-2.3,21.3-4.6,31.5-6.8c-8-20.1-15.9-40.2-23.5-60.7C377,219.5,389.5,215.7,402,211.9L402,211.9z"
		/>
	<path class="st9" d="M499.6,168.6c-4.6,0.4-26.2,1.5-42.5,19.7c-10.6,13.3-12.1,17.1-11.4,18.2c1.5,1.5,9.5-5.3,22-11.4
		c12.5-6.5,24.3-9.1,33-10.6C500,179.3,500,174,499.6,168.6z"/>
	<path class="st7" d="M400.1,248.4c56.9,46.3,85.8,104,100.2,143.5c-22.4-0.8-44.8-1.5-67.2-2.7c-22.8-55.4-45.6-110.5-68.7-165.9
		C376.2,230.5,388,238.5,400.1,248.4z"/>
	<path class="st22" d="M482.9,377.4c0,1.9-1.5,3.4-3.4,3.4s-3.4-1.5-3.4-3.4s1.5-3.4,3.4-3.4S482.9,375.5,482.9,377.4z"/>
	<path class="st9" d="M526.9,912.7c20.1,42.9,40.2,93,58.1,149.6c23.2,74.4,35.7,142.4,42.9,200.4c-8.4-15.2-17.5-30.7-27.3-46.7
		c-11-17.8-22-34.5-33-50.5c7.6,5.7,14.8,11.4,22.4,16.7c-52-58.8-104-118.1-156-176.9c-6.8-15.9-13.7-32.3-20.5-48.2
		c-0.8-28.5-1.1-56.6-1.9-85c5.3,27,14,57.7,28.1,90.3c38,88.5,95.3,145.8,134.4,178c-4.2-28.9-9.5-58.1-15.2-88.5
		C549.3,1003,538.3,956.3,526.9,912.7L526.9,912.7z"/>
</g>
</svg>
