<?xml version="1.0" encoding="UTF-8"?>
<svg data-bbox="0 0 1495.3 1495.3" viewBox="0 0 1488.6 1488.6" xmlns="http://www.w3.org/2000/svg" data-type="ugc">
    <g>
        <path fill="#a58fc4" d="M1495.3 0v1495.3H0V0h1495.3z"/>
        <path d="M855.9 723.9c-25.4-5.4-50.8-10.8-76.2-16.3-28.1 34-58.9 82.4-45.8 126.4 9.6 32.1 38.6 48.4 75.6 63-9.4-15.6-15.4-32.6-16-52.4-.8-26 7.4-67.5 62.4-120.7z" fill="#731012"/>
        <path d="M973.6 981.4c-50.7-48-114.5-64.7-164.1-84.4 33.9 56.3 111.8 95.3 139.3 186 19.4 63.7 5 123.8-7.3 160.1 12.8-20.8 34.9-33.7 57.8-32.9 30 1.1 57 25.5 62.4 59 5-162.2-41.3-243.5-88.1-287.8z" fill="#792881"/>
        <path d="M703.2 730.9c25.6-7.1 51.1 2.5 68.6 12.1 10.9-32.2 21.8-64.3 32.8-96.5-69.1-16.6-104.9-4-125 12.7-30.4 25.3-32.8 66.6-28 117.2 12.1-21.3 28.8-39.1 51.6-45.5z" fill="#731012"/>
        <path d="M664.9 1149.8c3.3-37.3-5.2-66.7-15.9-96.3-1.9 5.3-3.9 10.6-6.1 15.8-38.2 90.7-117.8 146.9-188.9 182.3 27.4-3.2 53.8 9.4 66.7 31.7 15.8 27.3 8.8 64.5-18.2 86.5 124.7-85.8 157.4-163.1 162.4-220z" fill="#731012"/>
        <path d="M651.5 776.5c-22.6 39.8-29.6 91.9-31.3 105-10.4 78.2 11.9 125.2 28.8 172 34.6-98.2 10-198.7 2.5-277z" fill="#792881"/>
        <linearGradient y2="209.84" x2="940.137" y1="947.423" x1="509.384" gradientUnits="userSpaceOnUse" id="2e293451-dc9a-4a4c-86e6-29a0ff704e67">
            <stop offset=".285" stop-color="#ffebca"/>
            <stop offset=".35" stop-color="#f8e4c3"/>
            <stop offset=".44" stop-color="#e9d2b1"/>
            <stop offset=".543" stop-color="#d4b896"/>
            <stop offset=".606" stop-color="#c5a683"/>
        </linearGradient>
        <path d="M561.2 301.6c34.5 50.9 95 125.2 191.7 185.5 185.7 115.8 376 99.3 439.2 91 14.7 3.7 89.4 24.1 134.4 99.3 9.7 16.2 48.2 85.5 23.8 163.9-32.8 105.3-158.6 160.6-251.2 137.5-26.7-6.7-47.1-19-60.8-29.1-147.9-154-289.1-227.4-370.6-262.2-66.6-28.4-102.5-43.8-158-54.4-125.4-24-190.1 7-278.3-44.4-42.7-24.9-67-55.1-76-67.2-39.8-53.3-68.1-137-42.3-224.7 3.7-12.5 43-137.9 165.4-168.2 104.7-25.9 187.4 38.2 200.3 48.5 55.7 44.5 75.7 101.5 82.4 124.5z" fill="url(#2e293451-dc9a-4a4c-86e6-29a0ff704e67)"/>
        <path d="M140.3 236.7c9.2-11 96-112.2 214.8-99.3C488.1 151.9 575 300 566.6 424.1c-5.2 77.1-46.3 132.4-66.5 156.1 76.3 33.7 153.7 69.3 232 106.9 204.8 98.4 395.7 200.8 572.9 304.1 8.3-7.4 99-90.6 83.7-213.4-12.3-98.5-87.7-181.6-189.8-207.5-55.9 8.8-104.5 9.1-146.6 5.1-2.1-.2-5.3-.5-9.4-1-75.5-8.3-139.4-30.6-165.9-40.7-91.1-34.5-164.7-62.4-223-131.9-35-41.8-81.6-118.8-86.2-126.5-23.8-39.5-24.7-45.8-39.4-63.7-15.2-18.7-56.7-68-130.7-86.3-78.2-19.3-141 8.8-155.3 15.6-61.5 29.6-91.9 77.7-102.1 95.8z" fill="#ffebca"/>
        <path fill="#731012" d="M859.956 469.098c64.37 18.759 97.01 101.021 72.903 183.736S837.03 787.396 772.66 768.636 675.65 667.615 699.757 584.9s95.83-134.562 160.2-115.802z"/>
        <path fill="#792881" d="M876.736 473.935c64.37 18.76 97.01 101.021 72.903 183.736s-95.83 134.562-160.2 115.802-97.008-101.021-72.902-183.736 95.83-134.562 160.2-115.802z"/>
        <path d="M794.1 754.6c12.9-.5 52.4-3.5 86.6-33.8 31.3-27.7 39.5-61.8 43.8-79.6 4.1-17.2 12.8-53.3-3.9-93.8-13.7-33.2-37.4-52.2-48.6-60 12.8 5.8 38 19.5 55.5 47.6 29.6 47.5 14.5 99.4 9.6 116.3-5 17.1-15 49.7-46.8 75.1-39.5 31.5-84.7 29.1-96.2 28.2z" fill="#731012"/>
        <path d="M156.1 490.7c-30.2-39.6-51.7-102-32.1-167.2 2.8-9.3 32.6-102.6 125.6-125.2 79.5-19.3 142.3 28.4 152 36.1 42.2 33.2 57.4 75.6 62.5 92.6 17.2 24.8 42.8 57.2 79.2 89.2 23.7-99.4-21-210.7-117.5-257.7-105.8-51.5-232.5-5.3-289.3 86-68.1 109.6-27.8 271.6 94.2 327.6 58.3 26.8 124.4 24.2 181.1-.7-86.6-13.5-134.2 5.6-198-30.8-32.3-18.4-50.8-40.9-57.7-49.9z" fill="#bfa26f"/>
        <path d="M528.2 459.7c6.6-14 11.6-28.6 15.2-43.4-36.4-32-62-64.3-79.2-89.2-5.1-17.1-20.3-59.5-62.5-92.6-9.8-7.7-72.6-55.4-152-36.1C156.6 221 126.8 314.3 124 323.6c-19.6 65.2 1.9 127.5 32.1 167.2 6.8 9 25.3 31.5 57.7 50 63.8 36.4 111.4 17.3 198 30.8 49.7-21.9 92.2-60.7 116.4-111.9z" fill="#bfa26f"/>
        <linearGradient y2="101.755" x2="493.065" y1="661.962" x1="165.9" gradientUnits="userSpaceOnUse" id="b60588c9-6e13-4dd1-84cb-9399a24eed69">
            <stop offset=".285" stop-color="#ffebca"/>
            <stop offset=".35" stop-color="#f8e4c3"/>
            <stop offset=".44" stop-color="#e9d2b1"/>
            <stop offset=".543" stop-color="#d4b896"/>
            <stop offset=".606" stop-color="#c5a683"/>
        </linearGradient>
        <path d="M528.2 459.7c6.6-14 11.6-28.6 15.2-43.4-36.4-32-62-64.3-79.2-89.2-5.1-17.1-20.3-59.5-62.5-92.6-9.8-7.7-72.6-55.4-152-36.1C156.6 221 126.8 314.3 124 323.6c-19.6 65.2 1.9 127.5 32.1 167.2 6.8 9 25.3 31.5 57.7 50 63.8 36.4 111.4 17.3 198 30.8 49.7-21.9 92.2-60.7 116.4-111.9z" fill="url(#b60588c9-6e13-4dd1-84cb-9399a24eed69)"/>
        <path d="M173.7 492.6c-20.6-11.5-32.4-25.6-36.7-31.2-19.2-24.7-32.9-63.6-20.4-104.3 1.8-5.8 20.7-64 79.9-78.1 50.6-12 90.5 17.7 96.8 22.5 26.8 20.7 36.5 47.1 39.8 57.8 16.6 23.6 45.9 58.1 92.6 86.1 7.5 4.5 15.1 8.6 22.6 12.3 10.4-22.8 16.3-48.1 16.3-74.8 0-99.7-80.8-180.4-180.4-180.4s-180.4 80.8-180.4 180.4c0 99.7 80.8 180.4 180.4 180.4 34.9 0 67.5-9.9 95.1-27.1-28.8-11.8-45.7-18.4-70.9-23.1-60.8-11-92.1 3.4-134.7-20.5z" fill="#a5895e"/>
        <path d="M448.2 457.8c-7.5-3.7-15.1-7.7-22.6-12.3-46.7-28-76-62.5-92.6-86.1-3.2-10.7-12.9-37.1-39.8-57.8-6.2-4.8-46.2-34.5-96.8-22.5-59.2 14.1-78.1 72.3-79.9 78.1-12.5 40.7 1.2 79.6 20.4 104.3 4.4 5.6 16.1 19.6 36.7 31.2 42.6 23.8 73.9 9.5 134.4 20.6 25.2 4.6 42.1 11.2 70.9 23.1 30.3-18.8 54.5-46.2 69.3-78.6z" fill="#af905f"/>
        <linearGradient y2="231.981" x2="383.735" y1="588.679" x1="175.421" gradientUnits="userSpaceOnUse" id="566d01dd-5791-4f64-a94b-2739fc5e3d50">
            <stop offset=".285" stop-color="#ffebca"/>
            <stop offset=".342" stop-color="#f6e2c3"/>
            <stop offset=".419" stop-color="#e5ceaf"/>
            <stop offset=".508" stop-color="#cab092"/>
            <stop offset=".574" stop-color="#b5987c"/>
        </linearGradient>
        <path d="M448.2 457.8c-7.5-3.7-15.1-7.7-22.6-12.3-46.7-28-76-62.5-92.6-86.1-3.2-10.7-12.9-37.1-39.8-57.8-6.2-4.8-46.2-34.5-96.8-22.5-59.2 14.1-78.1 72.3-79.9 78.1-12.5 40.7 1.2 79.6 20.4 104.3 4.4 5.6 16.1 19.6 36.7 31.2 42.6 23.8 73.9 9.5 134.4 20.6 25.2 4.6 42.1 11.2 70.9 23.1 30.3-18.8 54.5-46.2 69.3-78.6z" fill="url(#566d01dd-5791-4f64-a94b-2739fc5e3d50)"/>
        <path d="M186.6 346.7c14.2 23.5 37.5 55.6 74 85.3 13.8 11.2 27.7 20.6 41.3 28.5 17-19.2 27.4-44.5 27.4-72.1 0-60.1-48.7-108.8-108.8-108.8s-108.8 48.7-108.8 108.8c0 42.3 24.2 78.9 59.4 96.9-9.3-9.8-20.2-25.2-23.9-46.2-6-34.3 9.4-70 39.4-92.4z" fill="#917751"/>
        <linearGradient y2="210.834" x2="400.017" y1="686.861" x1="10.314" gradientUnits="userSpaceOnUse" id="08073609-c7da-4c53-9227-07cd1e0834a2">
            <stop offset=".311" stop-color="#ffebca"/>
            <stop offset=".354" stop-color="#f7e4c3"/>
            <stop offset=".413" stop-color="#e7d2af"/>
            <stop offset=".482" stop-color="#d1ba93"/>
            <stop offset=".556" stop-color="#b69c73"/>
            <stop offset=".603" stop-color="#a5895e"/>
        </linearGradient>
        <path d="M301.9 460.5c-13.6-7.9-27.5-17.3-41.3-28.5-36.5-29.7-59.8-61.8-74-85.3-30 22.4-45.4 58.1-39.4 92.4 3.7 21 14.6 36.4 23.9 46.2 14.8 7.6 31.6 11.9 49.4 11.9 32.4-.1 61.5-14.3 81.4-36.7z" fill="url(#08073609-c7da-4c53-9227-07cd1e0834a2)"/>
    </g>
</svg>
