<svg width="243" height="144" viewBox="0 0 243 144" fill="none" xmlns="http://www.w3.org/2000/svg">
<path d="M203.838 89.5176H167.194C162.13 89.5176 158.033 93.597 158.033 98.5975V134.919C158.033 139.939 162.13 144 167.194 144H203.838C208.884 144 213 139.939 213 134.919V98.5975C213 93.5965 208.884 89.5176 203.838 89.5176ZM185.606 132.17L179.129 125.75L183.62 121.299H171.256V112.218H183.528L179.29 108.068L185.732 101.612L201.173 116.74L185.606 132.17Z" fill="#633FA7"/>
<path d="M148.899 134.919L148.899 98.5983C148.899 93.5791 144.783 89.5176 139.738 89.5176L103.094 89.5176C98.0295 89.5176 93.9322 93.5791 93.9322 98.5983L93.9322 134.919C93.9322 139.921 98.0295 144 103.094 144L139.738 144C144.784 144 148.899 139.921 148.899 134.919ZM105.867 116.847L112.344 110.427L116.835 114.879L116.835 102.624L125.997 102.624L125.997 114.788L130.184 110.587L136.697 116.972L121.434 132.277L105.867 116.847Z" fill="#633FA7"/>
<path d="M93.9321 35.0807L93.9321 71.4017C93.9321 76.4209 98.0478 80.4824 103.093 80.4824L139.737 80.4824C144.802 80.4824 148.899 76.4209 148.899 71.4017L148.899 35.0807C148.899 30.0793 144.802 26 139.737 26L103.093 26C98.0474 26 93.9321 30.0793 93.9321 35.0807ZM136.964 53.1525L130.487 59.5727L125.996 55.1207L125.996 67.3759L116.834 67.3759L116.834 55.2118L112.647 59.4128L106.134 53.0279L121.397 37.7226L136.964 53.1525Z" fill="#633FA7"/>
<path d="M39.1615 144L75.8057 144C80.8696 144 84.9673 139.921 84.9673 134.92L84.9673 98.5987C84.9673 93.579 80.8696 89.518 75.8057 89.518L39.1615 89.5179C34.1156 89.5179 29.9999 93.579 29.9999 98.5987L29.9999 134.92C29.9999 139.921 34.1156 144 39.1615 144ZM57.3942 101.347L63.8715 107.768L59.3799 112.219L71.7441 112.219L71.7441 121.3L59.4717 121.3L63.7101 125.45L57.2684 131.906L41.8269 116.777L57.3942 101.347Z" fill="#633FA7"/>
<rect x="101.655" y="34.9316" width="39.9039" height="37.4254" fill="#633FA7"/>
<rect x="101.655" y="97.873" width="39.9039" height="37.4254" fill="#633FA7"/>
</svg>
