<svg width="2243" height="1721" viewBox="0 0 2243 1721" fill="none" xmlns="http://www.w3.org/2000/svg">
<g clip-path="url(#clip0_558_4602)">
<path d="M2498.3 -91.6001H-106.9V1283.8H2498.3V-91.6001Z" fill="url(#paint0_linear_558_4602)"/>
<path d="M278.6 -122.4L214.9 -124.9L162 -89.4999L139.9 -29.7999L157.2 31.5001L207.2 70.9001L270.8 73.4001L323.8 38.1001L345.9 -21.6999L328.6 -82.8999L278.6 -122.4Z" fill="#190E2C"/>
<path d="M157.2 31.5L104.3 66.8L121.5 128.1L185.1 130.6L207.2 70.9L157.2 31.5Z" fill="#2D1A4B"/>
<path d="M104 67.4L40.3999 65L18.4999 124.7L68.4999 164.1L121.3 128.7L104 67.4Z" fill="#271643"/>
<path d="M59.1 -92.3998L-4.50002 -94.7998L-26.4 -35.0998L23.6 4.2002L76.4 -31.2998L59.1 -92.3998Z" fill="black"/>
<path d="M104.3 67.1L157.2 31.8L140 -29.4L76.5 -32L23.5 3.4L40.8 64.6L104.3 67.1Z" fill="#190E2C"/>
<path d="M-27 -36.6997L-90.7 -39.1997L-143.6 -3.79971L-165.7 55.9003L-148.4 117.3L-98.5 156.7L-34.8 159.2L18.1 123.9L40.2 64.1003L22.9 2.80029L-27 -36.6997Z" fill="#190E2C"/>
<path d="M461 -56.1997L408.1 -20.8997L425.3 40.3003L488.9 42.9003L510.9 -16.7997L461 -56.1997Z" fill="#2D1A4B"/>
<path d="M408.2 -20.4999L344.6 -22.8999L322.6 36.9001L372.6 76.2001L425.4 40.7001L408.2 -20.4999Z" fill="#2D1A4B"/>
<path d="M177.7 323.6L114.2 321.2L92.2 380.9L142.2 420.2L195 384.9L177.7 323.6Z" fill="#190E2C"/>
<path d="M490.7 43.3003L427.1 40.8003L374.1 76.2003L352.1 135.9L369.3 197.2L419.4 236.6L482.9 239.2L536 203.8L558 144.1L540.8 82.8003L490.7 43.3003Z" fill="#190E2C"/>
<path d="M369.4 197.2L316.5 232.6L333.7 293.8L397.3 296.3L419.3 236.6L369.4 197.2Z" fill="#0F081C"/>
<path d="M231.4 289.6L178.5 325L195.8 386.2L259.3 388.7L281.3 329L231.4 289.6Z" fill="#362159"/>
<path d="M316.5 233L253 230.6L231 290.3L281.1 329.6L333.9 294.2L316.5 233Z" fill="#2D1A4B"/>
<path d="M324 37.5L271.1 72.8L288.2 134.1L351.9 136.6L373.9 76.9L324 37.5Z" fill="#362159"/>
<path d="M271.2 73.3004L207.7 70.9004L185.7 130.6L235.8 169.9L288.6 134.6L271.2 73.3004Z" fill="#2D1A4B"/>
<path d="M316.5 232.9L369.4 197.5L352.1 136.3L288.6 133.8L235.7 169.1L252.9 230.3L316.4 232.9H316.5Z" fill="#190E2C"/>
<path d="M185.2 129.1L121.5 126.6L68.6 162L46.5 221.7L63.8 283L113.7 322.4L177.4 324.9L230.3 289.6L252.4 229.8L235.1 168.6L185.2 129.1Z" fill="#0F081C"/>
<path d="M64.4999 283L11.4999 318.3L28.7999 379.6L92.3999 382.1L114.4 322.4L64.4999 283Z" fill="#271643"/>
<path d="M11 318.7L-52.6 316.3L-74.5 376L-24.6 415.4L28.3 380L11 318.7Z" fill="#0F081C"/>
<path d="M18.4 123.3L-34.6 158.5L-17.3 219.8L46.3 222.4L68.3 162.6L18.4 123.3Z" fill="#362159"/>
<path d="M10.9 318.6L63.8 283.3L46.6 222.1L-17 219.5L-69.9 254.9L-52.6 316.1L10.9 318.6Z" fill="#190E2C"/>
<path d="M1100.1 -130.1L1036.5 -132.6L983.6 -97.2996L961.5 -37.4996L978.8 23.7004L1028.7 63.3004L1092.4 65.8004L1145.3 30.3004L1167.4 -29.2996L1150.1 -90.6996L1100.1 -130.1Z" fill="#190E2C"/>
<path d="M978.8 23.8003L925.8 59.2003L943.1 120.4L1006.6 122.9L1028.7 63.3003L978.8 23.8003Z" fill="#190E2C"/>
<path d="M1144.4 30.4004L1091.6 65.7004L1108.8 127L1172.3 129.5L1194.4 69.8004L1144.4 30.4004Z" fill="#190E2C"/>
<path d="M1050.1 280.9L997.2 316.2L1014.5 377.4L1078 380L1100 320.3L1050.1 280.9Z" fill="#362159"/>
<path d="M925.9 59.6002L862.3 57.2002L840.4 116.8L890.4 156.1L943.3 120.7L925.9 59.6002Z" fill="#362159"/>
<path d="M1229.6 -25.3998L1166 -27.7998L1144.1 32.0002L1194 71.3002L1246.9 35.9002L1229.6 -25.3998Z" fill="#2D1A4B"/>
<path d="M998.2 316.7L934.6 314.3L912.6 373.9L962.7 413.3L1015.6 377.9L998.2 316.7Z" fill="#0F081C"/>
<path d="M1091.7 65.2002L1028.1 62.7002L1006.2 122.4L1056.1 161.7L1109 126.4L1091.7 65.2002Z" fill="#2D1A4B"/>
<path d="M482.3 238.6L418.7 236.2L396.8 295.9L446.8 335.2L499.6 299.9L482.3 238.6Z" fill="#362159"/>
<path d="M1282.4 -58.7998L1229.4 -23.4998L1246.7 37.8002L1310.3 40.3002L1332.3 -19.3998L1282.4 -58.7998Z" fill="#2D1A4B"/>
<path d="M925.9 59.4003L978.7 24.1003L961.6 -37.1997L897.9 -39.6997V-39.5997L845.1 -4.39971L862.2 57.0003L925.9 59.5003V59.4003Z" fill="#2D1A4B"/>
<path d="M1397.2 -19.6L1333.6 -22L1311.7 37.6L1361.7 77L1414.6 41.6L1397.2 -19.6Z" fill="#2D1A4B"/>
<path d="M1442.6 141.3L1495.5 106L1478.2 44.7002L1414.7 42.2002L1361.8 77.6002L1379 138.8L1442.6 141.3Z" fill="#0F081C"/>
<path d="M794.5 -44.3999L730.9 -46.8999L677.9 -11.4999L655.8 48.2001L673.1 109.5L723.1 148.9L786.7 151.4L839.7 116.1L861.8 56.3001L844.5 -4.8999L794.5 -44.3999Z" fill="#190E2C"/>
<path d="M673.1 109.6L620.3 144.8L637.5 206.2L701 208.7L723.1 148.9L673.1 109.6Z" fill="#0F081C"/>
<path d="M620.4 145.2L556.7 142.8L534.8 202.6L584.8 241.9L637.6 206.5L620.4 145.2Z" fill="#190E2C"/>
<path d="M627.7 -50.1997L574.8 -14.8997L592.1 46.3003L655.6 48.9003L677.7 -10.7997L627.7 -50.1997Z" fill="#362159"/>
<path d="M575 -14.3998L511.5 -16.7998L489.5 42.9002L539.5 82.2002L592.3 46.9002L575 -14.3998Z" fill="#2D1A4B"/>
<path d="M620.3 145.1L673.2 109.8L655.9 48.6001L592.4 46.1001L539.4 81.4001L556.7 142.6L620.3 145.1Z" fill="#2D1A4B"/>
<path d="M397.5 295.9L333.9 293.4L280.9 328.7L258.8 388.5L276.1 449.7L326.1 489.3L389.7 491.8L442.7 456.3L464.8 396.7L447.5 335.3L397.5 295.9Z" fill="#190E2C"/>
<path d="M588.6 354.8L534.9 390.7L552.4 452.9L616.9 455.4L639.3 394.8L588.6 354.8Z" fill="#0F081C"/>
<path d="M535.4 203.3L482.5 238.5L499.7 299.9L563.3 302.4L585.4 242.6L535.4 203.3Z" fill="#2D1A4B"/>
<path d="M527.9 398.7L580.9 363.3L563.6 302.1L500 299.6L447.1 334.9L464.4 396.2L527.9 398.7Z" fill="#0F081C"/>
<path d="M1311.5 35.6001L1247.9 33.1001L1194.9 68.5001L1172.9 128.2L1190.2 189.5L1240.1 229L1303.8 231.5L1356.7 196.2L1378.8 136.4L1361.5 75.1001L1311.5 35.6001Z" fill="#190E2C"/>
<path d="M1190.2 189.5L1137.3 224.9L1154.5 286.1L1218.1 288.6L1240.1 229L1190.2 189.5Z" fill="#362159"/>
<path d="M1137.4 225.3L1073.8 222.9L1051.9 282.6L1101.8 322L1154.7 286.5L1137.4 225.3Z" fill="#2D1A4B"/>
<path d="M1304.2 228.1L1240.7 225.7L1218.7 285.4L1268.7 324.7L1321.5 289.3L1304.2 228.1Z" fill="#190E2C"/>
<path d="M1137.3 225.2L1190.2 189.9L1173 128.6L1109.4 126.1L1056.5 161.4L1073.7 222.7L1137.3 225.2Z" fill="#0F081C"/>
<path d="M1357.8 192.3L1304.8 227.6L1322 289L1385.7 291.5L1407.7 231.7L1357.8 192.3Z" fill="#2D1A4B"/>
<path d="M1440.9 137.5L1377.4 135.1L1355.4 194.8L1405.4 234.1L1458.2 198.8L1440.9 137.5Z" fill="#2D1A4B"/>
<path d="M1524.7 200.5L1461.1 198L1408.1 233.4L1386.1 293.1L1403.3 354.4L1453.4 393.8L1516.9 396.4L1570 361L1591.9 301.3L1574.8 240L1524.7 200.5Z" fill="#0F081C"/>
<path d="M1218.2 285.2L1154 282.7L1100.7 318.4L1078.5 378.5L1095.9 440.3L1146.3 480.1L1210.4 482.6L1263.8 447L1285.9 386.8L1268.6 325L1218.2 285.2Z" fill="#0F081C"/>
<path d="M1404.6 351.5L1350.6 387.6L1368.1 450.1L1433.1 452.7L1455.5 391.7L1404.6 351.5Z" fill="#190E2C"/>
<path d="M1350.6 387.3L1287.1 384.8L1265.1 444.5L1315.2 483.9L1368 448.5L1350.6 387.3Z" fill="#190E2C"/>
<path d="M1349.6 388.1L1402.5 352.8L1385.3 291.6L1321.7 289L1268.8 324.4L1286.1 385.6L1349.6 388.1Z" fill="#2D1A4B"/>
<path d="M1047.4 474.4L1100.3 439.1L1083 377.9L1019.5 375.3L966.5 410.7L983.8 471.9L1047.4 474.4Z" fill="#190E2C"/>
<path d="M1006 121.4L942.4 118.9L889.3 154.3L867.3 214L884.5 275.3L934.6 314.7L998.2 317.2L1051.2 281.9L1073.3 222.1L1056 160.9L1006 121.4Z" fill="#0F081C"/>
<path d="M884.6 275.3L831.7 310.6L849 371.9L912.5 374.4L934.6 314.7L884.6 275.3Z" fill="#190E2C"/>
<path d="M831.8 311L768.2 308.6L746.2 368.3L796.3 407.7L849.1 372.3L831.8 311Z" fill="#0F081C"/>
<path d="M839.2 115.6L786.3 150.8L803.6 212.1L867.1 214.7L889.1 154.9L839.2 115.6Z" fill="#190E2C"/>
<path d="M786.4 151.4L722.9 148.9L700.9 208.7L751 248L803.8 212.6L786.4 151.4Z" fill="#362159"/>
<path d="M831.8 310.9L884.6 275.6L867.4 214.4L803.8 211.9L750.9 247.2L768.1 308.4L831.8 310.9Z" fill="#2D1A4B"/>
<path d="M1660.1 113.2L1607.3 148.5L1624.5 209.8L1688.1 212.3L1710.1 152.6L1660.1 113.2Z" fill="#271643"/>
<path d="M1609 149L1544.6 146.6L1522.3 206.3L1573 245.6L1626.7 210.2L1609 149Z" fill="#362159"/>
<path d="M1704.8 270.4L1651.9 305.7L1669.1 367L1732.7 369.5L1754.7 309.8L1704.8 270.4Z" fill="#190E2C"/>
<path d="M1653.9 306.2L1590.3 303.8L1568.4 363.5L1618.3 402.8L1671.3 367.4L1653.9 306.2Z" fill="#362159"/>
<path d="M1921.7 -132L1858 -134.5L1805.1 -99.1L1783 -39.4L1800.3 21.9L1850.3 61.3L1913.9 63.8L1966.8 28.5L1988.9 -31.3L1971.6 -92.5L1921.7 -132Z" fill="#190E2C"/>
<path d="M1800.3 21.9004L1747.4 57.2004L1764.6 118.5L1828.2 121L1850.3 61.3004L1800.3 21.9004Z" fill="#362159"/>
<path d="M1747.5 57.6002L1683.9 55.2002L1662 114.9L1712 154.3L1764.8 118.9L1747.5 57.6002Z" fill="#190E2C"/>
<path d="M1871.8 276.1L1818.8 311.5L1836.1 372.7L1899.7 375.2L1921.7 315.5L1871.8 276.1Z" fill="#362159"/>
<path d="M1818.9 310.9L1755.4 308.4L1733.5 368.1L1783.5 407.5L1836.3 372.1L1818.9 310.9Z" fill="#0F081C"/>
<path d="M1914.3 60.4L1850.7 58L1828.8 117.7L1878.8 157L1931.6 121.7L1914.3 60.4Z" fill="#2D1A4B"/>
<path d="M1747.4 57.5004L1800.4 22.2004L1783.1 -38.9996L1719.5 -41.5996L1666.6 -6.19961L1683.9 55.0004L1747.4 57.5004Z" fill="#2D1A4B"/>
<path d="M1967.8 24.6001L1915 60.0001L1932.1 121.2L1995.7 123.7L2017.8 64.0001L1967.8 24.6001Z" fill="#2D1A4B"/>
<path d="M2051 -30.0996L1987.4 -32.5996L1965.5 27.1004L2015.5 66.5004L2068.3 31.0004L2051 -30.0996Z" fill="#2D1A4B"/>
<path d="M2134.8 31.9003L2071.2 29.3003L2018.2 64.7003L1996.2 124.4L2013.4 185.8L2063.4 225.2L2127.1 227.7L2180 192.4L2202.1 132.6L2184.8 71.3003L2134.8 31.9003Z" fill="#190E2C"/>
<path d="M2038.5 282.3L1975 279.8L1921.9 315.1L1900 374.9L1917.2 436.1L1967.2 475.7L2030.8 478.2L2083.8 442.8L2105.8 383.1L2088.6 321.8L2038.5 282.3Z" fill="#0F081C"/>
<path d="M2103.9 -61L2051 -25.7L2068.2 35.5L2131.8 38L2153.8 -21.6L2103.9 -61Z" fill="#2D1A4B"/>
<path d="M2126.4 227.1L2062.8 224.7L2040.9 284.4L2090.9 323.7L2143.8 288.3L2126.4 227.1Z" fill="#2D1A4B"/>
<path d="M2169.2 386.1L2105.7 383.7L2083.7 443.4L2133.8 482.7L2186.6 447.3L2169.2 386.1Z" fill="#190E2C"/>
<path d="M2180 191.4L2127 226.7L2144.3 287.9L2207.9 290.5L2229.9 230.8L2180 191.4Z" fill="#0F081C"/>
<path d="M2220.7 350.3L2167.7 385.6L2185 446.9L2248.6 449.4L2270.6 389.7L2220.7 350.3Z" fill="#0F081C"/>
<path d="M2266.4 133.8L2202.7 131.4L2180.9 191.1L2230.8 230.5L2283.7 195.1L2266.4 133.8Z" fill="#190E2C"/>
<path d="M2217.9 -22.4999L2154.3 -24.8999L2132.3 34.8001L2182.3 74.1001L2235.3 38.6001L2217.9 -22.4999Z" fill="#2D1A4B"/>
<path d="M2271.4 -58.2998L2218.5 -22.9998L2235.8 38.3002L2299.3 40.8002L2321.3 -18.8998L2271.4 -58.2998Z" fill="#190E2C"/>
<path d="M2344.1 198.5L2280.5 196L2227.5 231.3L2205.4 291.1L2222.7 352.4L2272.7 391.8L2336.3 394.3L2389.3 359L2411.4 299.2L2394.1 237.9L2344.1 198.5Z" fill="#190E2C"/>
<path d="M1827.2 117.5L1763.6 115L1710.6 150.3L1688.5 210.1L1705.8 271.4L1755.8 310.8L1819.4 313.3L1872.4 278L1894.5 218.2L1877.2 156.9L1827.2 117.5Z" fill="#190E2C"/>
<path d="M2013.5 183.9L1960.7 219.2L1977.9 280.4L2041.5 283L2063.5 223.3L2013.5 183.9Z" fill="#0F081C"/>
<path d="M1960.4 218.5L1895.3 216.1L1872.8 277.1L1924 317.3L1978.1 281.1L1960.4 218.5Z" fill="#190E2C"/>
<path d="M1959.7 220.4L2012.6 185L1995.4 123.8L1931.7 121.3L1878.9 156.6L1896.1 217.8L1959.7 220.4Z" fill="#362159"/>
<path d="M1655.1 306.2L1707.9 270.8L1690.7 209.6L1627.1 207.1L1574.3 242.4L1591.4 303.6L1655.1 306.2Z" fill="#0F081C"/>
<path d="M2262.4 137.4L2315.2 102.1L2298 40.8003L2234.4 38.3003L2181.5 73.6003L2198.7 134.9L2262.4 137.4Z" fill="#362159"/>
<path d="M2169.9 386L2222.9 350.8L2205.6 289.6L2142 287L2089.1 322.4L2106.4 383.6L2169.9 386.1V386Z" fill="#362159"/>
<path d="M1863.4 472.1L1916.7 436.9L1899.3 375.7L1835.3 373.2L1782 408.5L1799.3 469.6L1863.4 472.1Z" fill="#2D1A4B"/>
<path d="M1616 -46.2998L1552.4 -48.7998L1499.4 -13.4998L1477.4 46.3002L1494.6 107.6L1544.6 147.1L1608.3 149.6L1661.2 114.3L1683.3 54.5002L1666 -6.89981L1616 -46.2998Z" fill="#190E2C"/>
<path d="M1494.7 107.7L1441.8 143L1459 204.2L1522.6 206.7L1544.6 147.1L1494.7 107.7Z" fill="#2D1A4B"/>
<path d="M1449.2 -52.1997L1396.4 -16.7997L1413.6 44.4003L1477.1 46.9003L1499.2 -12.7997L1449.2 -52.1997Z" fill="#2D1A4B"/>
<path d="M310.1 540.8L246.5 538.2L193.6 573.6L171.5 633.3L188.8 694.6L238.7 734.1L302.4 736.6L355.3 701.2L377.4 641.5L360.1 580.2L310.1 540.8Z" fill="#190E2C"/>
<path d="M100.8 376L37.2 373.5L-15.8 408.8L-37.9 468.6L-20.6 529.9L29.4 569.4L93 571.9L146 536.6L168.1 476.8L150.8 415.4L100.8 376Z" fill="#190E2C"/>
<path d="M188.8 694.7L135.9 730L153.1 791.2L216.6 793.8L238.7 734.1L188.8 694.7Z" fill="#0F081C"/>
<path d="M136 730.4L72.3 728L50.5 787.7L100.4 827L153.3 791.5L136 730.4Z" fill="#0B0615"/>
<path d="M143.3 534.8L90.4 570.2L107.7 631.4L171.2 633.9L193.3 574.3L143.3 534.8Z" fill="#0B0615"/>
<path d="M-22.4 529.3L-75.3 564.6L-58 625.8L5.49995 628.4L27.5 568.7L-22.4 529.3Z" fill="#0F081C"/>
<path d="M90.7 570.7L27.1 568.3L5.19995 627.9L55.0999 667.3L108 631.9L90.7 570.7Z" fill="#362159"/>
<path d="M282.4 441.6L229.4 476.9L246.7 538.1L310.2 540.7L332.2 481L282.4 441.6Z" fill="#190E2C"/>
<path d="M229.6 477.4L166 475L144.1 534.7L194.1 574L247 538.6L229.6 477.4Z" fill="#2D1A4B"/>
<path d="M135.9 730.2L188.8 695L171.6 633.6L108 631.2L55.1 666.6L72.3 727.8L135.9 730.3V730.2Z" fill="#2D1A4B"/>
<path d="M228.4 477.8L281.3 442.4L264 381.2L200.5 378.7L147.5 414L164.8 475.2L228.4 477.8Z" fill="#0F081C"/>
<path d="M4.49998 626.4L-59.1 623.9L-112.1 659.3L-134.2 719L-116.9 780.3L-66.9 819.7L-3.30002 822.3L49.8 786.9L71.8 727.2L54.6 665.9L4.49998 626.4Z" fill="#0F081C"/>
<path d="M919.5 367.3L855.8 364.7L802.9 400.1L780.8 459.8L798.1 521.2L848.1 560.6L911.7 563.1L964.7 527.8L986.8 468L969.5 406.7L919.5 367.3Z" fill="#190E2C"/>
<path d="M798.1 521.2L745.3 556.5L762.4 617.7L826 620.3L848.1 560.6L798.1 521.2Z" fill="#2D1A4B"/>
<path d="M745.3 556.9L681.8 554.5L659.8 614.2L709.8 653.5L762.6 618.1L745.3 556.9Z" fill="#2D1A4B"/>
<path d="M752.7 361.4L699.9 396.7L717 457.9L780.6 460.4L802.7 400.8L752.7 361.4Z" fill="#2D1A4B"/>
<path d="M701.6 397.2L638.1 394.8L616.1 454.5L666.1 493.9L718.9 458.4L701.6 397.2Z" fill="#190E2C"/>
<path d="M745.3 556.8L798.2 521.5L780.9 460.2L717.4 457.7L664.4 493.1L681.7 554.3L745.3 556.8Z" fill="#0F081C"/>
<path d="M492.6 606.9L439.6 642.3L456.9 703.5L520.5 706L542.4 646.3L492.6 606.9Z" fill="#0B0615"/>
<path d="M439.7 642.7L376.2 640.3L354.2 699.9L404.3 739.2L457.1 703.8L439.7 642.7Z" fill="#0F081C"/>
<path d="M447.2 447.1L394.2 482.4L411.4 543.7L475.1 546.2L497 486.5L447.2 447.1Z" fill="#0F081C"/>
<path d="M394.4 483L330.8 480.5L308.9 540.2L358.9 579.6L411.8 544.2L394.4 483Z" fill="#2D1A4B"/>
<path d="M537.2 392.4L468.4 389.8L444.6 454.6L498.8 497.1L556 458.8L537.2 392.4Z" fill="#0B0615"/>
<path d="M439.25 644.5L492.15 609.2L474.85 548L411.25 545.5L358.45 580.8L375.65 642L439.15 644.6L439.25 644.5Z" fill="#171717"/>
<path d="M214.8 791.2L151.2 788.7L98.3 824L76.2 883.8L93.5 945.1L143.4 984.5L207.1 987L260 951.7L282.1 891.9L264.8 830.6L214.8 791.2Z" fill="#171717"/>
<path d="M93.5 945.1L40.5 980.4L57.8 1041.7L121.4 1044.2L143.4 984.5L93.5 945.1Z" fill="#0F081C"/>
<path d="M40.7 980.8L-23 978.4L-44.8 1038.1L5.09995 1077.4L58 1042.1L40.7 980.8Z" fill="#0B0615"/>
<path d="M48.1 785.3L-4.90002 820.6L12.4 881.8L75.9 884.3L98 824.7L48.1 785.3Z" fill="#190E2C"/>
<path d="M-4.60004 821.1L-68.3 818.7L-90.1 878.5L-40.2 917.8L12.7 882.3L-4.60004 821.1Z" fill="#0F081C"/>
<path d="M40.6 980.7L93.4 945.4L76.3 884.2L12.7 881.6L-40.2 917L-22.9 978.2L40.6 980.7Z" fill="black"/>
<path d="M824.2 617.7L760.6 615.2L707.6 650.6L685.5 710.3L702.8 771.6L752.8 811L816.4 813.5L869.4 778.2L891.5 718.4L874.2 657.2L824.2 617.7Z" fill="#0F081C"/>
<path d="M702.8 771.6L650 806.9L667.2 868.2L730.7 870.7L752.8 811L702.8 771.6Z" fill="#190E2C"/>
<path d="M650 807.3L586.4 804.9L564.5 864.6L614.5 904L667.3 868.6L650 807.3Z" fill="#0F081C"/>
<path d="M657.4 611.9L604.5 647.2L621.7 708.4L685.3 711L707.4 651.3L657.4 611.9Z" fill="#0B0615"/>
<path d="M604.7 647.7L541.1 645.3L519.2 705L569.2 744.3L622 708.8L604.7 647.7Z" fill="#2D1A4B"/>
<path d="M650 807.2L702.9 771.9L685.6 710.7L622.1 708.1L569.1 743.5L586.4 804.7L650 807.2Z" fill="#0F081C"/>
<path d="M518.6 703.4L454.9 700.9L402 736.3L379.9 796L397.2 857.4L447.1 896.8L510.8 899.3L563.7 864L585.8 804.2L568.5 742.9L518.6 703.4Z" fill="#171717"/>
<path d="M397.3 857.4L344.3 892.7L361.5 953.9L425.2 956.4L447.1 896.8L397.3 857.4Z" fill="#190E2C"/>
<path d="M344.4 893.1L280.9 890.7L258.9 950.3L308.9 989.7L361.7 954.3L344.4 893.1Z" fill="#0A0414"/>
<path d="M351.8 697.5L298.9 732.9L316.1 794.1L379.7 796.6L401.7 736.9L351.8 697.5Z" fill="#0F081C"/>
<path d="M299.1 733.4L235.6 731L213.6 790.7L263.5 830L316.5 794.6L299.1 733.4Z" fill="#0A0414"/>
<path d="M114 1237.2L50.4 1234.8L28.5 1294.5L78.4 1333.8L131.3 1298.4L114 1237.2Z" fill="black"/>
<path d="M344.3 893L397.3 857.7L380 796.4L316.4 793.9L263.5 829.2L280.8 890.5L344.3 893Z" fill="#0B0615"/>
<path d="M426.9 956.9L363.4 954.4L310.4 989.7L288.4 1049.5L305.6 1110.8L355.6 1150.2L419.2 1152.8L472.2 1117.4L494.2 1057.7L477 996.3L426.9 956.9Z" fill="#171717"/>
<path d="M305.7 1110.8L252.7 1146.2L270 1207.4L333.6 1209.9L355.5 1150.2L305.7 1110.8Z" fill="#171717"/>
<path d="M167.7 1203.2L114.7 1238.6L132 1299.8L195.6 1302.3L217.6 1242.6L167.7 1203.2Z" fill="black"/>
<path d="M252.8 1146.6L189.2 1144.1L167.3 1203.8L217.3 1243.2L270.2 1207.8L252.8 1146.6Z" fill="#0A0414"/>
<path d="M416.7 1152L353.2 1149.5L331.2 1209.2L381.3 1248.6L434.1 1213.2L416.7 1152Z" fill="#0A0414"/>
<path d="M259.85 953L206.85 988.3L224.05 1049.6L287.65 1052.1L309.65 992.401L259.85 953Z" fill="#171717"/>
<path d="M252.8 1146.5L305.6 1111.1L288.4 1049.9L224.8 1047.4L172 1082.7L189.2 1143.9L252.7 1146.5H252.8Z" fill="#0F081C"/>
<path d="M121.4 1042.7L57.7999 1040.2L4.79995 1075.5L-17.3 1135.3L-4.95911e-05 1196.6L50 1236L113.6 1238.5L166.6 1203.2L188.7 1143.4L171.4 1082.1L121.4 1042.7Z" fill="#171717"/>
<path d="M-2.28882e-05 1196.6L-52.9 1231.9L-35.6 1293.1L27.9 1295.7L50 1236L-2.28882e-05 1196.6Z" fill="black"/>
<path d="M-45.4 1036.8L-98.3 1072.1L-81 1133.3L-17.5 1135.8L4.59995 1076.2L-45.4 1036.8Z" fill="#190E2C"/>
<path d="M1036.4 783.4L972.8 780.9L919.8 816.3L897.7 876L915 937.3L965 976.7L1028.6 979.3L1081.6 943.9L1103.7 884.2L1086.4 822.9L1036.4 783.4Z" fill="#0A0414"/>
<path d="M915 937.3L862.1 972.7L879.4 1033.9L942.9 1036.4L965 976.7L915 937.3Z" fill="#0A0414"/>
<path d="M1080.7 943.9L1027.8 979.2L1045 1040.5L1108.6 1043L1130.7 983.3L1080.7 943.9Z" fill="#0B0615"/>
<path d="M986.4 1194.5L933.4 1229.8L950.7 1291L1014.3 1293.5L1036.3 1233.9L986.4 1194.5Z" fill="black"/>
<path d="M862.1 973.1L798.6 970.6L776.6 1030.4L826.7 1069.7L879.5 1034.3L862.1 973.1Z" fill="#190E2C"/>
<path d="M1164.7 890.1L1101.2 887.7L1079.2 947.4L1129.2 986.8L1182 951.4L1164.7 890.1Z" fill="#171717"/>
<path d="M935.4 1230.3L871.9 1227.9L849.9 1287.5L900 1326.8L952.8 1291.4L935.4 1230.3Z" fill="black"/>
<path d="M1028 978.7L964.4 976.3L942.4 1036L992.4 1075.3L1045.2 1039.9L1028 978.7Z" fill="#0F081C"/>
<path d="M869.2 779.8L816.3 815.1L833.5 876.4L897.1 878.9L919.1 819.2L869.2 779.8Z" fill="#171717"/>
<path d="M1102.7 437.3L1049.8 472.6L1067 533.8L1130.7 536.4L1152.6 476.7L1102.7 437.3Z" fill="#0B0615"/>
<path d="M1049.9 473L986.4 470.6L964.4 530.3L1014.4 569.7L1067.2 534.2L1049.9 473Z" fill="#0F081C"/>
<path d="M1128.8 533.9L1065.1 531.4L1012.2 566.7L990.1 626.5L1007.4 687.7L1057.3 727.2L1121 729.7L1173.9 694.3L1196 634.6L1178.7 573.3L1128.8 533.9Z" fill="#0F081C"/>
<path d="M1007.4 687.8L954.5 723.1L971.7 784.4L1035.3 786.9L1057.3 727.2L1007.4 687.8Z" fill="#190E2C"/>
<path d="M954.6 723.5L891.1 721L869.1 780.8L919.1 820.1L971.9 784.7L954.6 723.5Z" fill="#0B0615"/>
<path d="M1121.4 728.1L1057.8 725.7L1035.8 785.5L1085.8 824.8L1138.6 789.4L1121.4 728.1Z" fill="#0F081C"/>
<path d="M962 528L909 563.3L926.3 624.5L989.9 627.1L1011.9 567.4L962 528Z" fill="#2D1A4B"/>
<path d="M911.3 562L847.7 559.6L825.7 619.2L875.7 658.6L928.6 623.2L911.3 562Z" fill="#190E2C"/>
<path d="M954.5 723.3L1007.5 688L990.2 626.8L926.6 624.2V624.3L873.7 659.6L891 720.9L954.5 723.3Z" fill="#190E2C"/>
<path d="M1174.2 693.7L1121.2 729L1138.5 790.3L1202.1 792.8L1224 733.1L1174.2 693.7Z" fill="#0F081C"/>
<path d="M1218.6 854.7L1165.7 890L1183 951.3L1246.5 953.8L1268.6 894.1L1218.6 854.7Z" fill="#190E2C"/>
<path d="M816.4 815.6L752.9 813.2L730.9 872.9L781 912.2L833.8 876.9L816.4 815.6Z" fill="#171717"/>
<path d="M862.2 973L915 937.6L897.8 876.4L834.2 873.9L781.3 909.2L798.5 970.4L862.2 973Z" fill="#0F081C"/>
<path d="M1165.7 889.1L1218.7 853.8L1201.4 792.6L1137.8 790L1084.9 825.4L1102.2 886.6L1165.7 889.1Z" fill="#0B0615"/>
<path d="M1333.5 894L1269.9 891.5L1247.9 951.2L1298 990.6L1350.8 955.1L1333.5 894Z" fill="#0F081C"/>
<path d="M1377.7 1056.8L1430.7 1021.5L1413.4 960.2L1349.8 957.7L1297 993.1L1314.2 1054.3L1377.7 1056.8Z" fill="#171717"/>
<path d="M730.4 871.4L666.7 868.9L613.8 904.3L591.7 964L609 1025.3L658.9 1064.7L722.6 1067.2L775.5 1031.9L797.6 972.1L780.3 910.9L730.4 871.4Z" fill="#171717"/>
<path d="M609 1025.3L556.1 1060.6L573.3 1121.9L636.9 1124.4L658.9 1064.7L609 1025.3Z" fill="#171717"/>
<path d="M556.6 1058.8L493 1056.4L471.1 1116.1L521.1 1155.5L573.9 1120.1L556.6 1058.8Z" fill="#0A0414"/>
<path d="M564 863.4L511 898.6L528.3 959.9L591.9 962.5L613.9 902.7L564 863.4Z" fill="#190E2C"/>
<path d="M511.3 899.2L447.7 896.7L425.8 956.5L475.7 995.8L528.6 960.3L511.3 899.2Z" fill="black"/>
<path d="M556.5 1058.7L609.5 1023.4L592.2 962.2L528.6 959.6L475.7 995L493 1056.2L556.5 1058.7Z" fill="#0F081C"/>
<path d="M638.4 1122.7L574.8 1120.2L521.9 1155.5L499.8 1215.3L517.1 1276.6L567 1316L630.7 1318.6L683.6 1283.2L705.7 1223.5L688.4 1162.1L638.4 1122.7Z" fill="black"/>
<path d="M333.8 1209.4L270.1 1206.9L217.2 1242.3L195.1 1302L212.4 1363.3L262.4 1402.7L326 1405.3L378.9 1369.9L401 1310.2L383.7 1248.9L333.8 1209.4Z" fill="black"/>
<path d="M517.1 1276.6L464.2 1312L481.4 1373.2L544.9 1375.7L567 1316L517.1 1276.6Z" fill="#171717"/>
<path d="M471.6 1116.8L418.7 1152.1L436 1213.4L499.5 1215.9L521.6 1156.2L471.6 1116.8Z" fill="#0F081C"/>
<path d="M464.2 1312.3L517.1 1276.9L499.9 1215.7L436.3 1213.2L383.4 1248.5L400.6 1309.7L464.2 1312.3Z" fill="black"/>
<path d="M1246.7 951.1L1183 948.6L1130.1 984L1108 1043.7L1125.3 1105L1175.3 1144.5L1238.9 1147L1291.9 1111.6L1314 1051.9L1296.7 990.6L1246.7 951.1Z" fill="#171717"/>
<path d="M1125.8 1103.35L1073 1138.75L1090.1 1199.95L1153.8 1202.45L1175.8 1142.85L1125.8 1103.35Z" fill="#171717"/>
<path d="M1073.6 1138.9L1010.1 1136.5L988.1 1196.1L1038.1 1235.5L1090.9 1200.1L1073.6 1138.9Z" fill="#0A0414"/>
<path d="M1239.9 1141.95L1176.3 1139.55L1154.3 1199.15L1204.3 1238.55L1257.2 1203.15L1239.9 1141.95Z" fill="#171717"/>
<path d="M1073 1139.05L1125.9 1103.65L1108.6 1042.45L1045.1 1039.95L992.1 1075.25L1009.4 1136.55L1073 1139.05Z" fill="#171717"/>
<path d="M1294 1105.9L1241.1 1141.2L1258.3 1202.4L1321.9 1205L1343.9 1145.3L1294 1105.9Z" fill="#0A0414"/>
<path d="M1377.2 1051L1313.6 1048.6L1291.6 1108.4L1341.6 1147.7L1394.5 1112.3L1377.2 1051Z" fill="#0F081C"/>
<path d="M1461 1113.1L1397.4 1110.6L1344.4 1145.9L1322.4 1205.7L1339.6 1267L1389.7 1306.4L1453.2 1309L1506.2 1273.6L1528.2 1213.8L1511 1152.5L1461 1113.1Z" fill="black"/>
<path d="M1154.4 1198.8L1090.8 1196.3L1037.8 1231.6L1015.8 1291.4L1033 1352.7L1083 1392.1L1146.7 1394.7L1199.6 1359.3L1221.7 1299.6L1204.4 1238.2L1154.4 1198.8Z" fill="black"/>
<path d="M1339.8 1265.1L1286.8 1300.5L1304.1 1361.7L1367.6 1364.2L1389.6 1304.5L1339.8 1265.1Z" fill="black"/>
<path d="M1286.9 1300.9L1223.3 1298.4L1201.4 1358.1L1251.4 1397.4L1304.3 1362.1L1286.9 1300.9Z" fill="black"/>
<path d="M1285.9 1301.6L1338.8 1266.3L1321.5 1205.1L1258 1202.5L1205 1237.9L1222.3 1299.1L1285.9 1301.6Z" fill="black"/>
<path d="M942.3 1035L878.6 1032.5L825.6 1067.8L803.6 1127.6L820.8 1188.9L870.8 1228.3L934.5 1230.8L987.4 1195.5L1009.5 1135.7L992.2 1074.4L942.3 1035Z" fill="#0A0414"/>
<path d="M820.9 1188.9L767.9 1224.2L785.2 1285.5L848.8 1288L870.8 1228.3L820.9 1188.9Z" fill="black"/>
<path d="M768 1224.6L704.5 1222.2L682.5 1281.9L732.6 1321.2L785.4 1285.9L768 1224.6Z" fill="black"/>
<path d="M775.1 1031.3L722.1 1066.6L739.4 1127.8L803 1130.4L824.9 1070.7L775.1 1031.3Z" fill="#171717"/>
<path d="M722.7 1064.9L659.1 1062.5L637.2 1122.3L687.2 1161.6L740.1 1126.2L722.7 1064.9Z" fill="#0F081C"/>
<path d="M767.6 1226.7L820.5 1191.4L803.3 1130.2L739.6 1127.6L686.8 1163L704 1224.2L767.6 1226.7Z" fill="#171717"/>
<path d="M1434.3 450L1370.2 447.5L1316.8 483.1L1294.6 543.3L1312 605L1362.4 644.6L1426.5 647.2L1479.9 611.7L1502.1 551.5L1484.7 489.8L1434.3 450Z" fill="#190E2C"/>
<path d="M1646.4 615.8L1582.8 613.2L1529.8 648.6L1507.7 708.3L1525 769.7L1575 809.1L1638.7 811.6L1691.7 776.3L1713.7 716.5L1696.5 655.2L1646.4 615.8Z" fill="#0F081C"/>
<path d="M1525.1 769.7L1472.2 805L1489.4 866.2L1553 868.8L1575 809.1L1525.1 769.7Z" fill="#0B0615"/>
<path d="M1690.8 776.2L1637.9 811.6L1655.1 872.8L1718.7 875.3L1740.8 815.7L1690.8 776.2Z" fill="#0A0414"/>
<path d="M1596.25 1027.15L1543.45 1062.45L1560.55 1123.75L1624.25 1126.25L1646.25 1066.55L1596.25 1027.15Z" fill="#171717"/>
<path d="M1472.3 805.4L1408.7 803L1386.7 862.7L1436.7 902.1L1489.7 866.6L1472.3 805.4Z" fill="#0F081C"/>
<path d="M1776 720.6L1712.3 718.2L1690.4 777.8L1740.4 817.1L1793.3 781.8L1776 720.6Z" fill="#0F081C"/>
<path d="M1545.5 1062.5L1482 1060.1L1460 1119.9L1510 1159.2L1562.9 1123.8L1545.5 1062.5Z" fill="#0F081C"/>
<path d="M1641 1184L1588.2 1219.2L1605.4 1280.6L1669 1283.1L1691 1223.3L1641 1184Z" fill="#0A0414"/>
<path d="M1590.1 1219.7L1526.6 1217.3L1504.6 1277.1L1554.6 1316.4L1607.5 1280.9L1590.1 1219.7Z" fill="#0A0414"/>
<path d="M1638 811L1574.4 808.6L1552.5 868.3L1602.5 907.7L1655.4 872.2L1638 811Z" fill="#0F081C"/>
<path d="M1479.3 609.8L1426.3 645.3L1443.6 706.5L1507.5 709L1529.6 649.4L1479.3 609.8Z" fill="#0B0615"/>
<path d="M1922.2 433.3L1869.2 468.7L1886.5 529.9L1950.1 532.4L1972.1 472.8L1922.2 433.3Z" fill="#0F081C"/>
<path d="M1869.4 469.1L1805.8 466.7L1783.9 526.3L1833.9 565.6L1886.7 530.3L1869.4 469.1Z" fill="#190E2C"/>
<path d="M1738.9 366.1L1675.2 363.6L1622.3 399L1600.2 458.7L1617.5 520L1667.5 559.5L1731.1 562L1784.1 526.6L1806.1 466.9L1788.9 405.6L1738.9 366.1Z" fill="#0F081C"/>
<path d="M1617.5 520L1564.6 555.4L1581.8 616.6L1645.4 619.1L1667.5 559.5L1617.5 520Z" fill="#190E2C"/>
<path d="M1564.6 555.8L1501.1 553.4L1479.2 613.1L1529.2 652.4L1582 617L1564.6 555.8Z" fill="#2D1A4B"/>
<path d="M1731.4 560.5L1667.8 558.1L1645.9 617.7L1695.9 657.2L1748.8 621.7L1731.4 560.5Z" fill="#2D1A4B"/>
<path d="M1572.1 360.3L1519.1 395.6L1536.4 456.9L1600 459.4L1622.1 399.7L1572.1 360.3Z" fill="#190E2C"/>
<path d="M1518.6 395.9L1454.6 393.4L1432.5 453.5L1482.9 493L1536 457.5L1518.6 395.9Z" fill="#0F081C"/>
<path d="M1564.6 555.7L1617.5 520.3L1600.3 459.1L1536.7 456.6L1483.8 491.9L1501.1 553.2L1564.6 555.7Z" fill="#0B0615"/>
<path d="M1312.3 602.9L1259.1 639.5L1276.3 702.9L1340.3 705.4L1362.6 643.6L1312.3 602.9Z" fill="#0B0615"/>
<path d="M1259.2 638.6L1195.7 636.2L1173.7 696L1223.7 735.3L1276.5 699.9L1259.2 638.6Z" fill="#190E2C"/>
<path d="M1266.6 443.2L1213.6 478.5L1230.9 539.7L1294.5 542.3L1316.5 482.6L1266.6 443.2Z" fill="#0F081C"/>
<path d="M1215.9 477.2L1152.3 474.8L1130.3 534.5L1180.3 573.8L1233.2 538.3L1215.9 477.2Z" fill="#190E2C"/>
<path d="M1259.1 638.5L1312.1 603.2L1294.8 542L1231.2 539.5L1178.3 574.8L1195.6 636L1259.1 638.5Z" fill="#2D1A4B"/>
<path d="M1784.2 526L1731.3 561.4L1748.5 622.6L1812.2 625.1L1834.2 565.5L1784.2 526Z" fill="#0F081C"/>
<path d="M1828.7 687L1775.8 722.4L1793 783.6L1856.6 786.1L1878.6 726.4L1828.7 687Z" fill="#190E2C"/>
<path d="M1426 645.7L1362.4 643.2L1340.5 703L1390.5 742.3L1443.4 706.9L1426 645.7Z" fill="#0F081C"/>
<path d="M1472.2 805.3L1525.1 770L1507.8 708.7L1444.3 706.2L1391.4 741.6L1408.6 802.8L1472.2 805.3Z" fill="#190E2C"/>
<path d="M1775.8 721.4L1828.7 686L1811.5 624.8L1747.9 622.3L1695 657.6L1712.3 718.9L1775.8 721.4Z" fill="#0B0615"/>
<path d="M1943.6 726.2L1880 723.8L1858 783.6L1908 822.9L1961 787.5L1943.6 726.2Z" fill="#0F081C"/>
<path d="M1339.8 703.4L1276.1 700.9L1223.2 736.2L1201.1 796L1218.4 857.3L1268.4 896.7L1332 899.3L1385 863.9L1407 804.2L1389.8 742.8L1339.8 703.4Z" fill="#171717"/>
<path d="M1856.75 781.85L1793.15 779.35L1740.15 814.65L1718.05 874.45L1735.35 935.75L1785.35 975.25L1849.05 977.75L1901.95 942.35L1924.05 882.65L1906.75 821.25L1856.75 781.85Z" fill="#171717"/>
<path d="M1736.35 935.85L1683.55 971.15L1700.75 1032.35L1764.25 1034.95L1786.35 975.25L1736.35 935.85Z" fill="#171717"/>
<path d="M1683.8 971.2L1620.1 968.8L1598.2 1028.5L1648.2 1067.8L1701.1 1032.5L1683.8 971.2Z" fill="#0A0414"/>
<path d="M1808 1188.7L1755.1 1224L1772.4 1285.3L1835.9 1287.8L1858 1228.1L1808 1188.7Z" fill="#171717"/>
<path d="M1755.2 1224.4L1691.6 1222L1669.8 1281.7L1719.7 1321L1772.6 1285.7L1755.2 1224.4Z" fill="black"/>
<path d="M1850.6 974L1786.9 971.5L1765.1 1031.3L1815 1070.6L1867.9 1035.2L1850.6 974Z" fill="#0A0414"/>
<path d="M1683.7 971.1L1736.6 935.8L1719.3 874.6L1655.8 872L1602.8 907.4L1620.1 968.6L1683.7 971.1Z" fill="#190E2C"/>
<path d="M1903.85 938.55L1851.05 973.95L1868.25 1035.15L1931.75 1037.65L1953.85 977.95L1903.85 938.55Z" fill="#171717"/>
<path d="M1987.3 883.4L1923.6 881L1901.7 940.7L1951.7 980L2004.6 944.6L1987.3 883.4Z" fill="#190E2C"/>
<path d="M2071.1 945.4L2007.4 942.9L1954.5 978.3L1932.4 1038L1949.7 1099.4L1999.7 1138.8L2063.3 1141.3L2116.3 1106L2138.4 1046.2L2121.1 984.9L2071.1 945.4Z" fill="#0A0414"/>
<path d="M1974.8 1195.8L1911.2 1193.3L1858.2 1228.7L1836.2 1288.4L1853.4 1349.7L1903.5 1389.2L1967 1391.7L2020.1 1356.3L2042.1 1296.6L2024.9 1235.3L1974.8 1195.8Z" fill="black"/>
<path d="M1950 532.8L1886.4 530.3L1833.5 565.6L1811.4 625.4L1828.7 686.7L1878.6 726.1L1942.3 728.7L1995.2 693.3L2017.3 633.6L2000 572.2L1950 532.8Z" fill="#0F081C"/>
<path d="M2251.7 449.6L2188.1 447.1L2135.1 482.4L2113.1 542.2L2130.3 603.5L2180.4 642.9L2243.9 645.5L2297 610.1L2319 550.4L2301.8 489L2251.7 449.6Z" fill="#190E2C"/>
<path d="M1994.3 693.3L1941.5 728.6L1958.7 789.9L2022.3 792.4L2044.3 732.7L1994.3 693.3Z" fill="#0F081C"/>
<path d="M2079.5 637.6L2015.9 635.2L1994 694.9L2043.9 734.2L2096.8 698.9L2079.5 637.6Z" fill="#0B0615"/>
<path d="M2035 477.5L1971.4 475.1L1949.5 534.8L1999.4 574.2L2052.3 538.8L2035 477.5Z" fill="#362159"/>
<path d="M2132.3 604.1L2079.3 639.4L2096.6 700.7L2160.2 703.2L2182.2 643.5L2132.3 604.1Z" fill="#362159"/>
<path d="M2086.9 441L2034.1 476.3L2051.2 537.5L2114.8 540.1L2136.9 480.4L2086.9 441Z" fill="#0F081C"/>
<path d="M2080.4 637.5L2133.3 602.1L2116.1 540.9L2052.5 538.4L1999.6 573.7L2016.9 635L2080.4 637.5Z" fill="#190E2C"/>
<path d="M2247.2 643.3L2183.5 640.9L2161.7 700.6L2211.6 740L2264.5 704.5L2247.2 643.3Z" fill="black"/>
<path d="M2292.6 804.2L2345.4 768.9L2328.2 707.6L2264.6 705.1V705.2L2211.7 740.5L2228.9 801.8L2292.6 804.2Z" fill="#190E2C"/>
<path d="M2161.4 698.6L2097.9 696.1L2044.9 731.4L2022.9 791.2L2040 852.5L2090.1 892L2153.7 894.5L2206.7 859.2L2228.7 799.4L2211.5 738L2161.4 698.6Z" fill="#190E2C"/>
<path d="M2040.1 847.6L1987.2 883L2004.5 944.2L2068 946.7L2090 887.1L2040.1 847.6Z" fill="#0B0615"/>
<path d="M2062.7 1140.7L1999.1 1138.2L1977.1 1198L2027.2 1237.3L2080 1201.9L2062.7 1140.7Z" fill="#171717"/>
<path d="M2116.2 1105L2063.3 1140.3L2080.6 1201.5L2144.1 1204L2166.2 1144.4L2116.2 1105Z" fill="#171717"/>
<path d="M2243.7 1011.7L2190.9 1047.1L2208 1108.3L2271.7 1110.8L2293.7 1051.1L2243.7 1011.7Z" fill="black"/>
<path d="M2156.9 1263.9L2104 1299.2L2121.3 1360.5L2184.8 1363L2206.8 1303.3L2156.9 1263.9Z" fill="black"/>
<path d="M2202.7 1047.4L2139 1045L2117.1 1104.7L2167.1 1144L2219.9 1108.7L2202.7 1047.4Z" fill="#0A0414"/>
<path d="M2150.65 890.55L2087.15 888.15L2065.15 947.85L2115.15 987.25L2168.05 951.75L2150.65 890.55Z" fill="#171717"/>
<path d="M1988.2 886.2L2041.1 850.8L2023.9 789.6L1960.3 787.1L1907.5 822.4L1924.6 883.7L1988.2 886.2Z" fill="#190E2C"/>
<path d="M2207.7 855.3L2154.7 890.6L2172 951.9L2235.6 954.4L2257.6 894.7L2207.7 855.3Z" fill="black"/>
<path d="M2290.8 800.4L2227.3 798L2205.3 857.7L2255.3 897.1L2308.2 861.7L2290.8 800.4Z" fill="black"/>
<path d="M2280.4 1112.1L2216.7 1109.5L2163.8 1144.9L2141.7 1204.6L2159 1265.9L2208.9 1305.4L2272.6 1307.9L2325.5 1272.5L2347.6 1212.8L2330.3 1151.5L2280.4 1112.1Z" fill="#171717"/>
<path d="M1764.6 1031.2L1700.9 1028.6L1648 1064L1625.9 1123.7L1643.2 1185L1693.1 1224.5L1756.8 1227L1809.7 1191.6L1831.8 1131.9L1814.5 1070.6L1764.6 1031.2Z" fill="#171717"/>
<path d="M1949.8 1097.5L1896.9 1132.8L1914.1 1194L1977.8 1196.5L1999.8 1136.9L1949.8 1097.5Z" fill="#171717"/>
<path d="M1897 1133.2L1833.5 1130.8L1811.5 1190.5L1861.5 1229.8L1914.3 1194.3L1897 1133.2Z" fill="#171717"/>
<path d="M1896 1134L1948.8 1098.6L1931.6 1037.4L1868 1034.9L1815.1 1070.2L1832.3 1131.4L1896 1134Z" fill="#0F081C"/>
<path d="M1591.15 1220.15L1644.05 1184.75L1626.85 1123.55L1563.25 1121.05L1510.35 1156.35L1527.55 1217.55L1591.15 1220.15Z" fill="#171717"/>
<path d="M2198.6 1051L2251.5 1015.6L2234.3 954.4L2170.6 951.9L2117.8 987.2L2135 1048.5L2198.6 1051Z" fill="#190E2C"/>
<path d="M2160.6 692.4L2096.9 689.9L2044 725.2L2021.9 785L2039.2 846.3L2089.2 885.7L2152.8 888.2L2205.9 852.9L2227.9 793.1L2210.7 731.8L2160.6 692.4Z" fill="#0B0615"/>
<path d="M2205 852.9L2152 888.2L2169.3 949.4L2232.9 952L2254.9 892.3L2205 852.9Z" fill="#0A0414"/>
<path d="M2290.1 797.2L2226.5 794.8L2204.6 854.5L2254.6 893.8L2307.4 858.4L2290.1 797.2Z" fill="#0F081C"/>
<path d="M2253.1 442.8L2189.4 440.2L2136.5 475.7L2114.4 535.3L2131.7 596.7L2181.6 636.1L2245.3 638.6L2298.2 603.3L2320.3 543.5L2303 482.3L2253.1 442.8Z" fill="#190E2C"/>
<path d="M2245.5 637.1L2182 634.7L2160.1 694.4L2210.1 733.8L2262.9 698.4L2245.5 637.1Z" fill="#2D1A4B"/>
<path d="M2290 798L2342.8 762.7L2325.7 701.4L2262.1 698.9L2209.2 734.3L2226.5 795.5L2290 798Z" fill="#0B0615"/>
<path d="M2372.1 858.2L2308.4 855.7L2255.5 891L2233.4 950.8L2250.7 1012.1L2300.7 1051.5L2364.3 1054L2417.3 1018.7L2439.3 958.9L2422.1 897.6L2372.1 858.2Z" fill="#0F081C"/>
<path d="M2250.7 1012.1L2197.9 1047.4L2215 1108.7L2278.6 1111.2L2300.7 1051.5L2250.7 1012.1Z" fill="#0F081C"/>
<path d="M2197.65 1048.05L2250.65 1012.75L2233.35 951.55L2169.75 949.05L2116.85 984.35L2134.15 1045.55L2197.65 1048.05Z" fill="#171717"/>
<path d="M2106.2 1299.6L2159.1 1264.3L2141.8 1203.1L2078.3 1200.5L2025.4 1235.9L2042.6 1297.1L2106.2 1299.6Z" fill="#0A0414"/>
<path d="M1552.3 867.3L1488.6 864.8L1435.7 900.1L1413.6 959.9L1430.9 1021.1L1480.9 1060.7L1544.5 1063.2L1597.5 1027.7L1619.5 968.1L1602.3 906.7L1552.3 867.3Z" fill="#0A0414"/>
<path d="M1429.9 1023.1L1376.9 1058.5L1394.1 1119.7L1457.8 1122.2L1479.8 1062.6L1429.9 1023.1Z" fill="#171717"/>
<path d="M1385.5 861.4L1332.6 896.8L1349.8 958L1413.4 960.5L1435.5 900.8L1385.5 861.4Z" fill="#0B0615"/>
<path d="M4.29996 1196.1L-48.6 1231.4L-31.3 1292.6L32.2 1295.1L54.2 1235.5L4.29996 1196.1Z" fill="#171717"/>
<path d="M336 1206.8L272.3 1204.3L219.4 1239.7L197.3 1299.4L214.6 1360.7L264.6 1400.1L328.2 1402.7L381.2 1367.3L403.2 1307.5L385.9 1246.3L336 1206.8Z" fill="#171717"/>
<path d="M214.6 1360.8L161.6 1396L178.9 1457.4L242.5 1459.9L264.6 1400.1L214.6 1360.8Z" fill="#171717"/>
<path d="M161.8 1396.5L98.2 1394L76.3 1453.8L126.3 1493.1L179.1 1457.7L161.8 1396.5Z" fill="#0A0414"/>
<path d="M169.2 1201L116.2 1236.3L133.5 1297.6L197.1 1300.1L219.2 1240.4L169.2 1201Z" fill="#171717"/>
<path d="M116.5 1236.8L52.9 1234.4L31 1294.1L81 1333.4L133.8 1298.1L116.5 1236.8Z" fill="#0A0414"/>
<path d="M161.7 1396.4L214.6 1361L197.4 1299.8L133.8 1297.3L80.9 1332.6L98.2 1393.8L161.7 1396.4Z" fill="#171717"/>
<path d="M30.3 1292.55L-33.3 1289.95L-86.3 1325.45L-108.3 1385.05L-91.1 1446.45L-41.1 1485.85L22.6 1488.35L75.5 1453.05L97.5999 1393.25L80.3 1332.05L30.3 1292.55Z" fill="#171717"/>
<path d="M823.9 1187.3L771.1 1222.7L788.3 1283.9L851.8 1286.4L873.9 1226.7L823.9 1187.3Z" fill="#171717"/>
<path d="M771.2 1223.1L707.5 1220.6L685.6 1280.3L735.6 1319.6L788.5 1284.2L771.2 1223.1Z" fill="#0A0414"/>
<path d="M639.7 1119.1L576 1116.5L523.1 1152L501 1211.6L518.3 1273L568.3 1312.4L631.9 1314.9L685 1279.6L707 1219.8L689.8 1158.6L639.7 1119.1Z" fill="#171717"/>
<path d="M465.5 1308.7L402 1306.3L380 1366.1L430 1405.4L482.9 1370L465.5 1308.7Z" fill="#0A0414"/>
<path d="M465.4 1308.6L518.4 1273.3L501.1 1212.1L437.5 1209.5L384.7 1244.9L401.9 1306.1L465.4 1308.6Z" fill="#171717"/>
<path d="M548.1 1372.6L484.5 1370.1L431.5 1405.4L409.5 1465.2L426.7 1526.4L476.8 1566L540.3 1568.5L593.4 1533.1L615.3 1473.4L598.1 1412.1L548.1 1372.6Z" fill="#171717"/>
<path d="M381.4 1366.7L328.4 1402.1L345.6 1463.3L409.3 1465.8L431.3 1406.1L381.4 1366.7Z" fill="#171717"/>
<path d="M328.6 1402.6L265.1 1400.1L243.1 1459.8L293.2 1499.1L346 1463.8L328.6 1402.6Z" fill="#0A0414"/>
<path d="M1156.9 1199.35L1093.3 1196.85L1040.3 1232.25L1018.2 1291.95L1035.5 1353.35L1085.5 1392.75L1149.2 1395.25L1202.1 1359.95L1224.2 1300.15L1206.9 1238.85L1156.9 1199.35Z" fill="#171717"/>
<path d="M1036.1 1353.1L983.2 1388.4L1000.5 1449.6L1064 1452.1L1086.1 1392.5L1036.1 1353.1Z" fill="#171717"/>
<path d="M1201.8 1359.6L1149 1395L1166.1 1456.2L1229.7 1458.7L1251.8 1399L1201.8 1359.6Z" fill="#171717"/>
<path d="M983.3 1388.8L919.7 1386.4L897.7 1446.1L947.8 1485.4L1000.7 1450L983.3 1388.8Z" fill="#171717"/>
<path d="M1287 1304L1223.4 1301.4L1201.4 1361.2L1251.4 1400.5L1304.3 1365.1L1287 1304Z" fill="#0A0414"/>
<path d="M1149.1 1394.4L1085.5 1391.9L1063.5 1451.6L1113.5 1491L1166.4 1455.6L1149.1 1394.4Z" fill="#171717"/>
<path d="M990.7 1193.2L937.8 1228.6L955.1 1289.8L1018.6 1292.3L1040.6 1232.6L990.7 1193.2Z" fill="#171717"/>
<path d="M1339.7 1271.5L1286.8 1306.9L1304.1 1368.1L1367.6 1370.6L1389.7 1310.9L1339.7 1271.5Z" fill="#171717"/>
<path d="M938 1229.1L874.4 1226.7L852.4 1286.3L902.5 1325.7L955.4 1290.3L938 1229.1Z" fill="#0F081C"/>
<path d="M983.3 1388.7L1036.1 1353.4L1018.9 1292.1L955.3 1289.6L902.4 1324.9L919.6 1386.2L983.3 1388.7Z" fill="#171717"/>
<path d="M1286.2 1305.05L1339.2 1269.65L1321.9 1208.45L1258.3 1205.95L1205.4 1241.25L1222.7 1302.45L1286.2 1305.05Z" fill="#171717"/>
<path d="M1454.6 1309.6L1391 1307.2L1369.1 1366.9L1419.1 1406.2L1472 1370.8L1454.6 1309.6Z" fill="#0A0414"/>
<path d="M1499.9 1470.5L1552.9 1435.2L1535.6 1374L1472 1371.4L1419.2 1406.8L1436.4 1468L1499.9 1470.5Z" fill="black"/>
<path d="M851.9 1284.9L788.2 1282.4L735.3 1317.7L713.2 1377.5L730.5 1438.7L780.5 1478.2L844.1 1480.8L897.1 1445.3L919.1 1385.7L901.9 1324.3L851.9 1284.9Z" fill="#171717"/>
<path d="M1063.5 1450.5L999.8 1448L946.9 1483.3L924.8 1543.1L942.1 1604.4L992.1 1643.8L1055.7 1646.4L1108.8 1611L1130.8 1551.3L1113.6 1489.9L1063.5 1450.5Z" fill="#171717"/>
<path d="M730.5 1438.8L677.7 1474.2L694.8 1535.4L758.4 1537.9L780.5 1478.2L730.5 1438.8Z" fill="#0A0414"/>
<path d="M685.1 1279L632.1 1314.3L649.4 1375.6L713 1378.1L735.1 1318.4L685.1 1279Z" fill="#171717"/>
<path d="M632.4 1314.8L568.9 1312.4L546.9 1372.1L596.9 1411.4L649.7 1376.1L632.4 1314.8Z" fill="#0A0414"/>
<path d="M1368.3 1365.25L1304.7 1362.65L1251.7 1398.05L1229.6 1457.75L1246.9 1519.05L1296.9 1558.55L1360.6 1561.05L1413.5 1525.65L1435.6 1465.95L1418.3 1404.65L1368.3 1365.25Z" fill="#171717"/>
<path d="M1194.7 1554.4L1247.6 1519.1L1230.3 1457.8L1166.8 1455.3V1455.4L1113.8 1490.6L1131.1 1551.9L1194.7 1554.4Z" fill="#171717"/>
<path d="M1498.3 1466.8L1434.7 1464.3L1412.8 1524L1462.7 1563.3L1515.6 1528L1498.3 1466.8Z" fill="black"/>
<path d="M896.6 1444.8L843.6 1480.1L860.9 1541.4L924.5 1543.9L946.5 1484.2L896.6 1444.8Z" fill="#0A0414"/>
<path d="M1717.5 1441L1664.7 1476.4L1681.9 1537.6L1745.5 1540.1L1767.5 1480.4L1717.5 1441Z" fill="#171717"/>
<path d="M1593.4 1221.1L1529.8 1218.6L1507.9 1278.4L1557.8 1317.7L1610.8 1282.3L1593.4 1221.1Z" fill="black"/>
<path d="M1666.7 1478.2L1603.1 1475.8L1581.1 1535.5L1631.1 1574.8L1684.1 1539.5L1666.7 1478.2Z" fill="#0A0414"/>
<path d="M1759.1 1226.7L1695.6 1224.3L1673.7 1284L1723.7 1323.3L1776.5 1287.9L1759.1 1226.7Z" fill="#171717"/>
<path d="M1460.9 1119L1397.3 1116.5L1344.3 1152L1322.2 1211.6L1339.5 1273L1389.5 1312.4L1453.1 1314.9L1506.1 1279.6L1528.2 1219.8L1510.9 1158.6L1460.9 1119Z" fill="#171717"/>
<path d="M1979 1195.8L1915.4 1193.3L1862.5 1228.7L1840.4 1288.4L1857.7 1349.7L1907.6 1389.1L1971.3 1391.6L2024.2 1356.3L2046.3 1296.5L2029 1235.3L1979 1195.8Z" fill="#171717"/>
<path d="M1857.7 1351.1L1804.8 1386.4L1822 1447.7L1885.5 1450.2L1907.6 1390.5L1857.7 1351.1Z" fill="#171717"/>
<path d="M1804.9 1385.4L1741.2 1383L1719.4 1442.8L1769.3 1482.1L1822.2 1446.7L1804.9 1385.4Z" fill="#171717"/>
<path d="M1971.7 1389.7L1908.1 1387.2L1886.2 1446.9L1936.2 1486.2L1989 1450.9L1971.7 1389.7Z" fill="#0A0414"/>
<path d="M1804.8 1386.7L1857.7 1351.4L1840.5 1290.2L1776.9 1287.7L1724 1323L1741.2 1384.2L1804.8 1386.7Z" fill="#0A0414"/>
<path d="M2025.2 1353.8L1972.3 1389.2L1989.5 1450.4L2053.1 1452.9L2075.2 1393.3L2025.2 1353.8Z" fill="#171717"/>
<path d="M2108.4 1299.1L2044.8 1296.7L2022.9 1356.4L2072.9 1395.7L2125.7 1360.2L2108.4 1299.1Z" fill="black"/>
<path d="M2192.2 1359.7L2128.6 1357.1L2075.6 1392.6L2053.5 1452.3L2070.8 1513.6L2120.8 1553L2184.5 1555.5L2237.4 1520.2L2259.5 1460.4L2242.2 1399.2L2192.2 1359.7Z" fill="#171717"/>
<path d="M2161.3 1268.2L2108.3 1303.5L2125.6 1364.7L2189.2 1367.3L2211.2 1307.6L2161.3 1268.2Z" fill="#171717"/>
<path d="M2108.4 1303.9L2044.9 1301.5L2022.9 1361.3L2073 1400.6L2125.8 1365.1L2108.4 1303.9Z" fill="#171717"/>
<path d="M2275.2 1306.7L2211.7 1304.3L2189.7 1364L2239.8 1403.3L2292.6 1368L2275.2 1306.7Z" fill="#0A0414"/>
<path d="M1885.1 1447.05L1821.4 1444.55L1768.5 1479.85L1746.4 1539.65L1763.7 1600.95L1813.7 1640.35L1877.3 1642.85L1930.3 1607.55L1952.3 1547.75L1935.1 1486.45L1885.1 1447.05Z" fill="#171717"/>
<path d="M2070.9 1513.1L2018.1 1548.4L2035.2 1609.6L2098.9 1612.2L2120.9 1552.5L2070.9 1513.1Z" fill="#0A0414"/>
<path d="M2017.1 1548.3L2070 1512.9L2052.8 1451.7L1989.1 1449.2L1936.3 1484.5L1953.5 1545.8L2017.1 1548.3Z" fill="#171717"/>
<path d="M1673.4 1284.1L1609.8 1281.5L1556.8 1316.9L1534.7 1376.6L1552 1438L1602 1477.4L1665.6 1479.9L1718.6 1444.6L1740.7 1384.8L1723.4 1323.5L1673.4 1284.1Z" fill="#171717"/>
<path d="M1552.1 1438L1499.2 1473.3L1516.4 1534.5L1580 1537.1L1602 1477.4L1552.1 1438Z" fill="#171717"/>
<path d="M1499.3 1473.7L1435.7 1471.3L1413.7 1531L1463.7 1570.4L1516.6 1534.9L1499.3 1473.7Z" fill="#171717"/>
<path d="M1506.6 1278.1L1453.8 1313.5L1471 1374.7L1534.6 1377.2L1556.6 1317.6L1506.6 1278.1Z" fill="#171717"/>
<path d="M1499.2 1473.6L1552.1 1438.3L1534.8 1377L1471.3 1374.5L1418.4 1409.9L1435.6 1471.1L1499.2 1473.6Z" fill="#171717"/>
<path d="M613.9 453L550.3 450.5L497.3 485.8L475.3 545.6L492.5 606.8L542.5 646.3L606.1 648.9L659.1 613.4L681.1 553.8L663.9 492.4L613.9 453Z" fill="#190E2C"/>
<path d="M702.2 209.1L638.5 206.6L585.6 242L563.5 301.7L580.8 363L630.8 402.5L694.4 405L747.4 369.6L769.5 309.9L752.2 248.6L702.2 209.1Z" fill="#0B0615"/>
<rect x="-90.1" y="-70.1494" width="2409.1" height="1830.46" fill="#171717" fill-opacity="0.56"/>
</g>
<defs>
<linearGradient id="paint0_linear_558_4602" x1="1195.7" y1="-237.191" x2="1195.7" y2="1475.7" gradientUnits="userSpaceOnUse">
<stop stop-color="#190E2C"/>
<stop offset="1"/>
</linearGradient>
<clipPath id="clip0_558_4602">
<rect width="2242.4" height="1720.8" fill="white" transform="translate(0.5)"/>
</clipPath>
</defs>
</svg>
