<?xml version="1.0" encoding="utf-8"?>
<!-- Generator: Adobe Illustrator 26.0.2, SVG Export Plug-In . SVG Version: 6.00 Build 0)  -->
<svg version="1.1" id="Layer_1" xmlns="http://www.w3.org/2000/svg" xmlns:xlink="http://www.w3.org/1999/xlink" x="0px" y="0px"
	 viewBox="0 0 2242.4 1313.1" style="enable-background:new 0 0 2242.4 1313.1;" xml:space="preserve">
<style type="text/css">
	.st0{fill:url(#SVGID_1_);}
	.st1{fill:#FFC73B;}
	.st2{fill:#FFB53E;}
	.st3{fill:#FFDB39;}
	.st4{fill:#FFDF5A;}
	.st5{fill:#FFD140;}
	.st6{fill:#FFDE55;}
	.st7{fill:#FFE266;}
	.st8{fill:#FFE98F;}
	.st9{fill:#61A378;}
	.st10{fill:#FFF0B3;}
	.st11{fill:#FFE888;}
	.st12{fill:#FFF9E1;}
	.st13{fill:#FFFFFF;}
</style>
<g id="Layer_2_00000025423606171353215330000001009642675957626504_">
	
		<linearGradient id="SVGID_1_" gradientUnits="userSpaceOnUse" x1="1106.1" y1="4987.6489" x2="1106.1" y2="3702.6328" gradientTransform="matrix(1 0 0 -1 0 4638)">
		<stop  offset="0" style="stop-color:#FFE266"/>
		<stop  offset="1" style="stop-color:#FFFFFF"/>
	</linearGradient>
	<rect x="-196.5" y="-240.4" class="st0" width="2605.2" height="1031.8"/>
</g>
<g id="Layer_1_00000074431775409284100890000007693447560532242583_">
	<g>
		<polygon class="st1" points="284.3,-865.2 220.6,-867.8 167.7,-832.4 145.6,-772.7 162.9,-711.3 212.9,-671.9 276.5,-669.4 
			329.5,-704.7 351.6,-764.5 334.3,-825.8 		"/>
	</g>
	<g>
		<polygon class="st2" points="376.7,-1115.8 313.1,-1118.3 260.1,-1083 238.1,-1023.2 255.3,-962 305.4,-922.4 368.9,-919.9 
			422,-955.3 444,-1015 426.8,-1076.4 		"/>
	</g>
	<g>
		<polygon class="st1" points="75,-1030 11.3,-1032.5 -41.6,-997.1 -63.7,-937.4 -46.4,-876 3.5,-836.6 67.2,-834.1 120.1,-869.4 
			142.2,-929.2 124.9,-990.4 		"/>
	</g>
	<g>
		<polygon class="st2" points="162.9,-711.3 110.1,-676 127.2,-614.8 190.8,-612.2 212.9,-671.9 		"/>
	</g>
	<g>
		<polygon class="st3" points="-91.9,-1034.2 -144.9,-998.8 -127.6,-937.6 -64,-935.1 -42,-994.8 		"/>
	</g>
	<g>
		<polygon class="st4" points="110.1,-675.6 46.6,-678 24.6,-618.3 74.6,-579 127.4,-614.4 		"/>
	</g>
	<g>
		<polygon class="st3" points="117.5,-871.1 64.6,-835.8 81.8,-774.6 145.4,-772.1 167.5,-831.7 		"/>
	</g>
	<g>
		<polygon class="st1" points="-48.2,-876.7 -101.2,-841.4 -83.9,-780.2 -20.3,-777.6 1.7,-837.3 		"/>
	</g>
	<g>
		<polygon class="st4" points="64.8,-835.3 1.3,-837.7 -20.7,-777.9 29.3,-738.6 82.1,-774.1 		"/>
	</g>
	<g>
		<polygon class="st3" points="256.5,-964.4 203.6,-929.1 220.8,-867.8 284.4,-865.3 306.4,-925 		"/>
	</g>
	<g>
		<polygon class="st2" points="203.7,-928.6 140.2,-931 118.2,-871.3 168.3,-832 221.1,-867.3 		"/>
	</g>
	<g>
		<polygon class="st5" points="110,-675.7 163,-711 145.7,-772.3 82.1,-774.8 82.1,-774.8 29.2,-739.4 46.5,-678.2 		"/>
	</g>
	<g>
		<polygon class="st2" points="203.5,-928.2 256.5,-963.5 239.2,-1024.7 175.6,-1027.3 175.6,-1027.3 122.7,-991.9 140,-930.7 		"/>
	</g>
	<g>
		<polygon class="st2" points="-98.3,-839.4 -45.5,-874.7 -62.7,-935.9 -126.2,-938.5 -126.3,-938.5 -179.2,-903.1 -162,-841.9 		
			"/>
	</g>
	<g>
		<polygon class="st2" points="-21.3,-779.5 -85,-782 -137.9,-746.7 -160,-686.9 -142.7,-625.7 -92.8,-586.2 -29.1,-583.6 
			23.9,-619.1 45.9,-678.7 28.7,-740.1 		"/>
	</g>
	<g>
		<polygon class="st2" points="893.6,-1038.7 830,-1041.3 777,-1005.8 755,-946.1 772.3,-884.8 822.2,-845.4 885.9,-842.9 
			938.8,-878.2 960.9,-938 943.6,-999.2 		"/>
	</g>
	<g>
		<polygon class="st4" points="772.3,-884.8 719.4,-849.5 736.6,-788.3 800.1,-785.7 822.2,-845.4 		"/>
	</g>
	<g>
		<polygon class="st1" points="719.5,-849.1 655.9,-851.5 634,-791.8 683.9,-752.4 736.8,-787.8 		"/>
	</g>
	<g>
		<polygon class="st1" points="674.2,-1008.7 610.6,-1011.2 588.6,-951.4 638.6,-912.1 691.5,-947.6 		"/>
	</g>
	<g>
		<polygon class="st2" points="719.4,-849.2 772.3,-884.5 755.1,-945.7 691.5,-948.3 691.5,-948.3 638.6,-912.9 655.8,-851.7 		"/>
	</g>
	<g>
		<polygon class="st3" points="588,-953 524.5,-955.5 471.4,-920.2 449.4,-860.4 466.6,-799.1 516.7,-759.6 580.2,-757.1 
			633.3,-792.4 655.3,-852.2 638.1,-913.6 		"/>
	</g>
	<g>
		<polygon class="st4" points="466.7,-799.1 413.8,-763.7 431.1,-702.5 494.6,-700 516.6,-759.6 		"/>
	</g>
	<g>
		<polygon class="st4" points="413.9,-763.3 350.3,-765.7 328.3,-706.1 378.4,-666.7 431.2,-702.1 		"/>
	</g>
	<g>
		<polygon class="st2" points="421.3,-958.9 368.4,-923.5 385.6,-862.3 449.2,-859.8 471.2,-919.5 		"/>
	</g>
	<g>
		<polygon class="st6" points="368.5,-923 305,-925.5 283,-865.7 333.1,-826.4 385.9,-861.8 		"/>
	</g>
	<g>
		<polygon class="st1" points="506.5,-1015.3 443,-1017.9 421,-958.1 471.1,-918.8 523.9,-954.2 		"/>
	</g>
	<g>
		<polygon class="st3" points="413.9,-763.4 466.7,-798.8 449.4,-860 385.9,-862.5 385.9,-862.5 333,-827.2 350.2,-765.9 
			413.8,-763.4 		"/>
	</g>
	<g>
		<polygon class="st3" points="189,-614.8 125.3,-617.3 72.4,-581.9 50.3,-522.2 67.6,-460.9 117.6,-421.5 181.2,-419 234.2,-454.3 
			256.3,-514.1 239,-575.3 		"/>
	</g>
	<g>
		<polygon class="st5" points="67.6,-460.9 14.7,-425.6 31.9,-364.3 95.5,-361.8 117.6,-421.5 		"/>
	</g>
	<g>
		<polygon class="st3" points="14.8,-425.2 -48.8,-427.6 -70.7,-367.9 -20.7,-328.5 32.1,-363.9 		"/>
	</g>
	<g>
		<polygon class="st1" points="22.2,-620.6 -30.7,-585.3 -13.5,-524.1 50.1,-521.5 72.2,-581.2 		"/>
	</g>
	<g>
		<polygon class="st5" points="-30.5,-584.8 -94.1,-587.2 -116,-527.5 -66,-488.2 -13.2,-523.7 		"/>
	</g>
	<g>
		<polygon class="st3" points="14.7,-425.3 67.6,-460.6 50.4,-521.8 -13.1,-524.4 -13.1,-524.4 -66.1,-489 -48.8,-427.8 		"/>
	</g>
	<g>
		<polygon class="st3" points="-116.6,-529.1 -180.3,-531.6 -233.2,-496.2 -255.3,-436.5 -238,-375.1 -188.1,-335.7 -124.4,-333.2 
			-71.5,-368.5 -49.4,-428.3 -66.7,-489.6 		"/>
	</g>
	<g>
		<polygon class="st5" points="798.3,-788.2 734.7,-790.7 681.8,-755.4 659.7,-695.6 677,-634.4 726.9,-594.9 790.6,-592.4 
			843.5,-627.8 865.6,-687.5 848.3,-748.8 		"/>
	</g>
	<g>
		<polygon class="st4" points="677,-634.3 624.1,-599 641.3,-537.7 704.8,-535.2 726.9,-594.9 		"/>
	</g>
	<g>
		<polygon class="st3" points="624.2,-598.7 560.5,-601.1 538.7,-541.3 588.6,-502 641.5,-537.4 		"/>
	</g>
	<g>
		<polygon class="st3" points="631.5,-794.1 578.6,-758.8 595.9,-697.6 659.4,-695 681.5,-754.7 		"/>
	</g>
	<g>
		<polygon class="st5" points="578.9,-758.3 515.3,-760.7 493.3,-701 543.3,-661.7 596.2,-697 		"/>
	</g>
	<g>
		<polygon class="st4" points="624.1,-598.8 677,-634.1 659.8,-695.3 596.2,-697.8 596.2,-697.8 543.3,-662.5 560.6,-601.3 		"/>
	</g>
	<g>
		<polygon class="st3" points="492.7,-702.5 429.1,-705.1 376.1,-669.6 354,-610 371.3,-548.6 421.3,-509.2 484.9,-506.7 
			537.9,-542 560,-601.8 542.7,-663 		"/>
	</g>
	<g>
		<polygon class="st4" points="371.4,-548.6 318.5,-513.3 335.7,-452.1 399.3,-449.5 421.3,-509.2 		"/>
	</g>
	<g>
		<polygon class="st5" points="318.6,-512.9 255,-515.3 233,-455.5 283,-416.2 335.8,-451.7 		"/>
	</g>
	<g>
		<polygon class="st4" points="325.9,-708.4 273.1,-673 290.3,-611.8 353.8,-609.3 375.9,-668.9 		"/>
	</g>
	<g>
		<polygon class="st5" points="273.2,-672.5 209.7,-674.9 187.7,-615.3 237.7,-576 290.6,-611.4 		"/>
	</g>
	<g>
		<polygon class="st3" points="88.1,-168.8 24.6,-171.2 2.6,-111.5 52.6,-72.2 105.4,-107.5 		"/>
	</g>
	<g>
		<polygon class="st4" points="318.5,-513 371.4,-548.3 354.1,-609.6 290.6,-612.1 290.6,-612.1 237.6,-576.8 254.9,-515.5 		"/>
	</g>
	<g>
		<polygon class="st3" points="401.1,-449.1 337.5,-451.6 284.5,-416.2 262.5,-356.5 279.7,-295.2 329.8,-255.8 393.3,-253.2 
			446.4,-288.6 468.4,-348.3 451.2,-409.6 		"/>
	</g>
	<g>
		<polygon class="st7" points="279.8,-295.2 226.9,-259.8 244.1,-198.6 307.7,-196.1 329.7,-255.8 		"/>
	</g>
	<g>
		<polygon class="st7" points="141.8,-202.8 88.9,-167.4 106.2,-106.2 169.7,-103.7 191.7,-163.4 		"/>
	</g>
	<g>
		<polygon class="st5" points="226.9,-259.4 163.4,-261.8 141.4,-202.1 191.5,-162.8 244.3,-198.2 		"/>
	</g>
	<g>
		<polygon class="st1" points="234.4,-454.9 181.5,-419.6 198.6,-358.3 262.3,-355.8 284.3,-415.5 		"/>
	</g>
	<g>
		<polygon class="st5" points="181.6,-419.1 118.1,-421.5 96.1,-361.8 146.2,-322.5 199,-357.8 		"/>
	</g>
	<g>
		<polygon class="st3" points="226.9,-259.5 279.8,-294.9 262.5,-356.1 199,-358.6 199,-358.6 146.1,-323.3 163.3,-262.1 
			226.8,-259.5 		"/>
	</g>
	<g>
		<polygon class="st7" points="95.6,-363.3 31.9,-365.8 -21,-330.4 -43.1,-270.7 -25.8,-209.4 24.1,-170 87.8,-167.5 140.7,-202.8 
			162.8,-262.6 145.5,-323.8 		"/>
	</g>
	<g>
		<polygon class="st7" points="-25.8,-209.4 -78.8,-174.1 -61.5,-112.8 2.1,-110.3 24.1,-170 		"/>
	</g>
	<g>
		<polygon class="st7" points="-78.6,-173.7 -142.2,-176.1 -164.1,-116.4 -114.2,-77 -61.3,-112.4 		"/>
	</g>
	<g>
		<polygon class="st1" points="-71.2,-369.1 -124.2,-333.9 -106.9,-272.6 -43.3,-270 -21.3,-329.8 		"/>
	</g>
	<g>
		<polygon class="st3" points="-78.7,-173.8 -25.8,-209.1 -43,-270.3 -106.6,-272.9 -106.6,-272.9 -159.5,-237.5 -142.2,-176.3 		
			"/>
	</g>
	<g>
		<polygon class="st6" points="1010.5,-622.5 946.9,-625 894,-589.7 871.9,-529.9 889.2,-468.7 939.1,-429.1 1002.8,-426.6 
			1055.7,-462.1 1077.8,-521.7 1060.5,-583.1 		"/>
	</g>
	<g>
		<polygon class="st3" points="889.2,-468.6 836.2,-433.2 853.5,-372 917,-369.5 939.1,-429.1 		"/>
	</g>
	<g>
		<polygon class="st3" points="1054.8,-462 1002,-426.7 1019.2,-365.4 1082.7,-362.9 1104.8,-422.6 		"/>
	</g>
	<g>
		<polygon class="st3" points="960.5,-211.5 907.6,-176.2 924.9,-115 988.4,-112.4 1010.4,-172.1 		"/>
	</g>
	<g>
		<polygon class="st1" points="836.3,-432.8 772.7,-435.2 750.8,-375.6 800.8,-336.3 853.7,-371.7 		"/>
	</g>
	<g>
		<polygon class="st4" points="1140,-517.8 1076.4,-520.2 1054.5,-460.4 1104.4,-421.1 1157.3,-456.5 		"/>
	</g>
	<g>
		<polygon class="st7" points="909.6,-175.7 846,-178.1 824,-118.5 874.1,-79.1 927,-114.5 		"/>
	</g>
	<g>
		<polygon class="st3" points="1002.1,-427.2 938.5,-429.7 916.6,-370 966.5,-330.7 1019.4,-366 		"/>
	</g>
	<g>
		<polygon class="st1" points="392.7,-253.8 329.1,-256.2 307.2,-196.5 357.2,-157.2 410,-192.5 		"/>
	</g>
	<g>
		<polygon class="st1" points="843.7,-628.4 790.8,-593.1 808.1,-531.8 871.6,-529.3 893.6,-589 		"/>
	</g>
	<g>
		<polygon class="st2" points="1076.8,-968.6 1024,-933.3 1041.2,-872.1 1104.8,-869.5 1126.8,-929.2 		"/>
	</g>
	<g>
		<polygon class="st1" points="1024.1,-933 960.5,-935.4 938.5,-875.6 988.5,-836.3 1041.3,-871.7 		"/>
	</g>
	<g>
		<polygon class="st1" points="1102.9,-872.1 1039.3,-874.6 986.3,-839.3 964.2,-779.5 981.5,-718.2 1031.5,-678.8 1095.1,-676.3 
			1148.1,-711.6 1170.2,-771.4 1152.9,-832.7 		"/>
	</g>
	<g>
		<polygon class="st3" points="981.5,-718.2 928.7,-682.9 945.9,-621.6 1009.4,-619.1 1031.5,-678.8 		"/>
	</g>
	<g>
		<polygon class="st4" points="928.8,-682.5 865.2,-684.9 843.2,-625.2 893.2,-585.9 946,-621.2 		"/>
	</g>
	<g>
		<polygon class="st4" points="1095.5,-677.7 1031.9,-680.2 1010,-620.5 1059.9,-581.2 1112.8,-616.6 		"/>
	</g>
	<g>
		<polygon class="st3" points="936.1,-878 883.2,-842.7 900.5,-781.5 964,-778.9 986.1,-838.6 		"/>
	</g>
	<g>
		<polygon class="st1" points="885.4,-844 821.9,-846.4 799.9,-786.7 849.9,-747.3 902.7,-782.8 		"/>
	</g>
	<g>
		<polygon class="st4" points="928.7,-682.6 981.6,-717.9 964.3,-779.1 900.8,-781.6 900.8,-781.6 847.8,-746.3 865.1,-685.1 		"/>
	</g>
	<g>
		<polygon class="st3" points="1148.3,-712.3 1095.4,-676.9 1112.7,-615.7 1176.2,-613.2 1198.2,-672.9 		"/>
	</g>
	<g>
		<polygon class="st5" points="1192.8,-551.2 1139.8,-515.9 1157.1,-454.6 1220.7,-452.1 1242.7,-511.8 		"/>
	</g>
	<g>
		<polygon class="st4" points="791,-592.5 727.4,-595 705.4,-535.3 755.5,-496 808.4,-531.3 		"/>
	</g>
	<g>
		<polygon class="st5" points="836.3,-433 889.1,-468.3 872,-529.6 808.3,-532.1 808.3,-532 755.5,-496.8 772.6,-435.4 
			836.3,-432.9 		"/>
	</g>
	<g>
		<polygon class="st1" points="1139.9,-516.9 1192.8,-552.2 1175.5,-613.4 1112,-615.9 1112,-615.9 1059,-580.6 1076.3,-519.4 		"/>
	</g>
	<g>
		<polygon class="st4" points="1307.6,-512 1244,-514.4 1222.1,-454.8 1272.1,-415.4 1325,-450.8 		"/>
	</g>
	<g>
		<polygon class="st7" points="1353,-351.1 1405.9,-386.4 1388.6,-447.7 1325.1,-450.2 1325.1,-450.2 1272.2,-414.8 1289.4,-353.6 
					"/>
	</g>
	<g>
		<polygon class="st3" points="704.9,-536.8 641.3,-539.3 588.3,-503.9 566.2,-444.2 583.5,-382.9 633.5,-343.5 697.1,-341 
			750.1,-376.3 772.2,-436.1 754.9,-497.3 		"/>
	</g>
	<g>
		<polygon class="st7" points="583.5,-382.8 530.7,-347.6 547.9,-286.2 611.4,-283.7 633.5,-343.5 		"/>
	</g>
	<g>
		<polygon class="st3" points="530.8,-347.2 467.1,-349.6 445.2,-289.8 495.2,-250.5 548,-285.9 		"/>
	</g>
	<g>
		<polygon class="st1" points="538.1,-542.6 485.2,-507.3 502.5,-446.1 566,-443.5 588.1,-503.2 		"/>
	</g>
	<g>
		<polygon class="st5" points="485.4,-506.8 421.9,-509.2 399.9,-449.5 449.9,-410.2 502.7,-445.5 		"/>
	</g>
	<g>
		<polygon class="st5" points="530.7,-347.3 583.6,-382.6 566.3,-443.8 502.8,-446.3 502.8,-446.3 449.8,-411 467.1,-349.8 		"/>
	</g>
	<g>
		<polygon class="st8" points="612.6,-283.3 548.9,-285.8 496,-250.4 473.9,-190.7 491.2,-129.4 541.2,-89.9 604.8,-87.4 
			657.8,-122.8 679.9,-182.5 662.6,-243.8 		"/>
	</g>
	<g>
		<polygon class="st3" points="307.9,-196.5 244.3,-199 191.3,-163.7 169.2,-103.9 186.5,-42.7 236.5,-3.1 300.1,-0.6 353.1,-36.1 
			375.2,-95.7 357.9,-157.1 		"/>
	</g>
	<g>
		<polygon class="st7" points="493.2,-130.3 440.4,-94.9 457.6,-33.7 521.1,-31.2 543.2,-90.9 		"/>
	</g>
	<g>
		<polygon class="st5" points="445.8,-289.1 392.9,-253.9 410.1,-192.5 473.7,-190 495.8,-249.8 		"/>
	</g>
	<g>
		<polygon class="st7" points="438.3,-93.7 491.3,-129.1 474,-190.3 410.4,-192.8 410.4,-192.8 357.5,-157.5 374.8,-96.2 		"/>
	</g>
	<g>
		<polygon class="st3" points="1221.9,-456.8 1158.3,-459.3 1105.3,-423.9 1083.3,-364.2 1100.6,-302.9 1150.5,-263.4 
			1214.2,-260.9 1267.1,-296.2 1289.2,-356 1271.9,-417.3 		"/>
	</g>
	<g>
		<polygon class="st1" points="1100.6,-302.9 1047.7,-267.5 1064.9,-206.3 1128.5,-203.8 1150.5,-263.4 		"/>
	</g>
	<g>
		<polygon class="st5" points="1047.8,-267.1 984.2,-269.5 962.3,-209.8 1012.2,-170.4 1065.1,-205.9 		"/>
	</g>
	<g>
		<polygon class="st3" points="1214.6,-264.3 1151.1,-266.7 1129.1,-207 1179.1,-167.7 1231.9,-203.1 		"/>
	</g>
	<g>
		<polygon class="st7" points="1047.7,-267.2 1100.6,-302.5 1083.4,-363.8 1019.8,-366.3 1019.8,-366.3 966.9,-331 984.1,-269.7 		
			"/>
	</g>
	<g>
		<polygon class="st3" points="1268.2,-300.1 1215.2,-264.8 1232.4,-203.4 1296.1,-200.9 1318.1,-260.7 		"/>
	</g>
	<g>
		<polygon class="st4" points="1351.3,-354.9 1287.8,-357.3 1265.8,-297.6 1315.8,-258.3 1368.6,-293.6 		"/>
	</g>
	<g>
		<polygon class="st7" points="1435.1,-291.9 1371.5,-294.4 1318.5,-259 1296.5,-199.3 1313.7,-138 1363.8,-98.6 1427.3,-96 
			1480.4,-131.4 1502.3,-191.1 1485.2,-252.4 		"/>
	</g>
	<g>
		<polygon class="st7" points="1128.6,-207.2 1064.9,-209.7 1012,-174.3 989.9,-114.6 1007.2,-53.3 1057.2,-13.8 1120.8,-11.3 
			1173.8,-46.6 1195.8,-106.4 1178.6,-167.7 		"/>
	</g>
	<g>
		<polygon class="st3" points="1313.9,-140.9 1261,-105.5 1278.2,-44.3 1341.8,-41.8 1363.8,-101.5 		"/>
	</g>
	<g>
		<polygon class="st3" points="1261,-105.1 1197.5,-107.6 1175.5,-47.9 1225.6,-8.5 1278.4,-43.9 		"/>
	</g>
	<g>
		<polygon class="st8" points="1260,-104.3 1312.9,-139.6 1295.7,-200.8 1232.1,-203.4 1232.1,-203.4 1179.2,-168 1196.5,-106.8 		
			"/>
	</g>
	<g>
		<polygon class="st3" points="957.8,-18 1010.7,-53.3 993.4,-114.5 929.9,-117.1 929.9,-117.1 876.9,-81.7 894.2,-20.5 		"/>
	</g>
	<g>
		<polygon class="st7" points="916.4,-371 852.8,-373.5 799.7,-338.1 777.7,-278.4 794.9,-217.1 845,-177.7 908.6,-175.2 
			961.6,-210.5 983.7,-270.3 966.4,-331.5 		"/>
	</g>
	<g>
		<polygon class="st3" points="795,-217.1 742.1,-181.8 759.4,-120.5 822.9,-118 845,-177.7 		"/>
	</g>
	<g>
		<polygon class="st7" points="742.2,-181.4 678.6,-183.8 656.6,-124.1 706.7,-84.7 759.5,-120.1 		"/>
	</g>
	<g>
		<polygon class="st3" points="749.6,-376.8 696.7,-341.6 714,-280.3 777.5,-277.7 799.5,-337.5 		"/>
	</g>
	<g>
		<polygon class="st1" points="696.8,-341 633.3,-343.5 611.3,-283.7 661.4,-244.4 714.2,-279.8 		"/>
	</g>
	<g>
		<polygon class="st5" points="742.2,-181.5 795,-216.8 777.8,-278 714.2,-280.5 714.2,-280.5 661.3,-245.2 678.5,-184 		"/>
	</g>
	<g>
		<polygon class="st2" points="1408.5,-956 1344.8,-958.5 1291.9,-923.1 1269.8,-863.4 1287.1,-802.1 1337.1,-762.6 1400.7,-760.1 
			1453.6,-795.4 1475.7,-855.2 1458.4,-916.5 		"/>
	</g>
	<g>
		<polygon class="st5" points="1620.6,-790.2 1556.9,-792.8 1504,-757.3 1481.9,-697.7 1499.2,-636.3 1549.2,-596.9 1612.8,-594.4 
			1665.8,-629.7 1687.8,-689.5 1670.6,-750.7 		"/>
	</g>
	<g>
		<polygon class="st3" points="1499.3,-636.3 1446.3,-601 1463.6,-539.8 1527.2,-537.2 1549.2,-596.9 		"/>
	</g>
	<g>
		<polygon class="st1" points="1664.9,-629.7 1612,-594.4 1629.3,-533.2 1692.8,-530.7 1714.9,-590.3 		"/>
	</g>
	<g>
		<polygon class="st5" points="1570.5,-379.2 1517.7,-343.9 1534.9,-282.6 1598.5,-280.1 1620.5,-339.8 		"/>
	</g>
	<g>
		<polygon class="st4" points="1446.4,-600.6 1382.9,-603 1360.9,-543.2 1410.9,-503.9 1463.8,-539.3 		"/>
	</g>
	<g>
		<polygon class="st4" points="1750.1,-685.4 1686.5,-687.8 1664.6,-628.2 1714.6,-588.7 1767.4,-624.2 		"/>
	</g>
	<g>
		<polygon class="st1" points="1519.7,-343.4 1456.1,-345.8 1434.1,-286.1 1484.1,-246.8 1537.1,-282.2 		"/>
	</g>
	<g>
		<polygon class="st3" points="1615.2,-222 1562.3,-186.7 1579.5,-125.4 1643.1,-122.9 1665.1,-182.6 		"/>
	</g>
	<g>
		<polygon class="st1" points="1564.3,-186.2 1500.7,-188.6 1478.8,-128.9 1528.7,-89.6 1581.7,-125 		"/>
	</g>
	<g>
		<polygon class="st6" points="1612.1,-594.9 1548.6,-597.3 1526.7,-537.7 1576.7,-498.3 1629.5,-533.7 		"/>
	</g>
	<g>
		<polygon class="st1" points="1453.8,-796 1400.9,-760.7 1418.1,-699.5 1481.8,-697 1503.7,-756.6 		"/>
	</g>
	<g>
		<polygon class="st1" points="1896.3,-972.6 1843.4,-937.3 1860.7,-876.1 1924.2,-873.6 1946.3,-933.2 		"/>
	</g>
	<g>
		<polygon class="st2" points="1843.6,-936.9 1779.9,-939.3 1758,-879.7 1808,-840.2 1860.8,-875.7 		"/>
	</g>
	<g>
		<polygon class="st2" points="1713,-1039.8 1649.4,-1042.3 1596.4,-1007 1574.4,-947.2 1591.6,-886 1641.6,-846.4 1705.3,-843.9 
			1758.2,-879.3 1780.3,-939 1763,-1000.4 		"/>
	</g>
	<g>
		<polygon class="st2" points="1591.6,-885.9 1538.7,-850.5 1556,-789.3 1619.5,-786.8 1641.6,-846.4 		"/>
	</g>
	<g>
		<polygon class="st6" points="1538.8,-850.1 1475.2,-852.5 1453.3,-792.9 1503.3,-753.5 1556.2,-789 		"/>
	</g>
	<g>
		<polygon class="st1" points="1705.5,-845.5 1642,-847.9 1620.1,-788.1 1670.1,-748.8 1722.9,-784.3 		"/>
	</g>
	<g>
		<polygon class="st1" points="1538.8,-850.3 1591.6,-885.6 1574.4,-946.9 1510.9,-949.4 1510.9,-949.3 1457.9,-914.1 
			1475.2,-852.7 1538.8,-850.2 		"/>
	</g>
	<g>
		<polygon class="st1" points="1286.1,-803 1233.3,-767.7 1250.5,-706.4 1314,-703.9 1336.1,-763.6 		"/>
	</g>
	<g>
		<polygon class="st1" points="1233.4,-767.3 1169.8,-769.7 1147.8,-710 1197.8,-670.7 1250.6,-706.1 		"/>
	</g>
	<g>
		<polygon class="st3" points="1240.7,-962.8 1187.8,-927.5 1205.1,-866.3 1268.6,-863.7 1290.7,-923.4 		"/>
	</g>
	<g>
		<polygon class="st2" points="1190,-928.8 1126.5,-931.2 1104.5,-871.5 1154.5,-832.2 1207.3,-867.6 		"/>
	</g>
	<g>
		<polygon class="st3" points="1233.3,-767.5 1286.2,-802.7 1268.9,-864 1205.4,-866.4 1205.4,-866.4 1152.4,-831.1 1169.7,-769.9 
			1233.3,-767.4 		"/>
	</g>
	<g>
		<polygon class="st4" points="1758.3,-879.9 1705.5,-844.6 1722.7,-783.4 1786.3,-780.9 1808.3,-840.5 		"/>
	</g>
	<g>
		<polygon class="st1" points="1802.9,-719 1749.9,-683.6 1767.1,-622.4 1830.8,-619.9 1852.8,-679.5 		"/>
	</g>
	<g>
		<polygon class="st3" points="1400.1,-760.2 1336.6,-762.7 1314.7,-703 1364.7,-663.7 1417.5,-699 		"/>
	</g>
	<g>
		<polygon class="st4" points="1446.3,-600.7 1499.3,-636 1482,-697.2 1418.4,-699.8 1418.4,-699.8 1365.6,-664.4 1382.8,-603.2 		
			"/>
	</g>
	<g>
		<polygon class="st1" points="1750,-684.5 1802.8,-719.9 1785.6,-781.1 1722.1,-783.6 1722.1,-783.6 1669.1,-748.3 1686.4,-687 		
			"/>
	</g>
	<g>
		<polygon class="st1" points="1917.7,-679.7 1854.2,-682.2 1832.2,-622.4 1882.2,-583.1 1935.1,-618.5 		"/>
	</g>
	<g>
		<polygon class="st9" points="1963.1,-518.7 2016,-554.1 1998.7,-615.3 1935.2,-617.8 1935.2,-617.8 1882.2,-582.5 1899.5,-521.3 
					"/>
	</g>
	<g>
		<polygon class="st5" points="1315,-704.5 1251.4,-707 1198.4,-671.6 1176.4,-611.9 1193.6,-550.6 1243.6,-511.1 1307.3,-508.6 
			1360.2,-544 1382.3,-603.7 1365,-665 		"/>
	</g>
	<g>
		<polygon class="st3" points="1832.1,-624.4 1768.4,-626.9 1715.5,-591.5 1693.4,-531.8 1710.7,-470.5 1760.7,-431.1 
			1824.3,-428.6 1877.2,-463.9 1899.3,-523.7 1882,-584.9 		"/>
	</g>
	<g>
		<polygon class="st1" points="1710.7,-470.5 1657.8,-435.2 1675,-373.9 1738.6,-371.4 1760.7,-431.1 		"/>
	</g>
	<g>
		<polygon class="st3" points="1657.9,-434.8 1594.3,-437.2 1572.4,-377.5 1622.4,-338.1 1675.2,-373.5 		"/>
	</g>
	<g>
		<polygon class="st1" points="1782.2,-216.3 1729.2,-180.9 1746.5,-119.7 1810.1,-117.2 1832.1,-176.9 		"/>
	</g>
	<g>
		<polygon class="st7" points="1729.3,-181.5 1665.8,-184 1643.9,-124.3 1693.9,-84.9 1746.7,-120.3 		"/>
	</g>
	<g>
		<polygon class="st4" points="1824.7,-432 1761.1,-434.4 1739.2,-374.7 1789.2,-335.4 1842,-370.7 		"/>
	</g>
	<g>
		<polygon class="st6" points="1657.8,-434.9 1710.8,-470.2 1693.5,-531.4 1629.9,-534 1629.9,-534 1577,-498.6 1594.3,-437.4 		"/>
	</g>
	<g>
		<polygon class="st5" points="1878.2,-467.8 1825.4,-432.4 1842.5,-371.2 1906.1,-368.7 1928.2,-428.4 		"/>
	</g>
	<g>
		<polygon class="st4" points="1961.4,-522.5 1897.8,-525 1875.9,-465.3 1925.9,-425.9 1978.7,-461.4 		"/>
	</g>
	<g>
		<polygon class="st3" points="2045.2,-460.5 1981.6,-463.1 1928.6,-427.7 1906.6,-368 1923.8,-306.6 1973.8,-267.2 2037.5,-264.7 
			2090.4,-300 2112.5,-359.8 2095.2,-421.1 		"/>
	</g>
	<g>
		<polygon class="st7" points="1948.9,-210.1 1885.4,-212.6 1832.3,-177.3 1810.4,-117.5 1827.6,-56.3 1877.6,-16.7 1941.2,-14.2 
			1994.2,-49.6 2016.2,-109.3 1999,-170.6 		"/>
	</g>
	<g>
		<polygon class="st3" points="1924.2,-873.2 1860.5,-875.7 1807.6,-840.3 1785.5,-780.6 1802.8,-719.3 1852.8,-679.8 
			1916.4,-677.3 1969.4,-712.6 1991.5,-772.4 1974.2,-833.7 		"/>
	</g>
	<g>
		<polygon class="st2" points="2224.7,-951.4 2161.1,-953.9 2108,-918.5 2086.1,-858.8 2103.2,-797.5 2153.3,-758.1 2217,-755.6 
			2269.9,-790.9 2292,-850.7 2274.7,-911.9 		"/>
	</g>
	<g>
		<polygon class="st4" points="1968.5,-712.7 1915.6,-677.4 1932.8,-616.1 1996.5,-613.6 2018.4,-673.3 		"/>
	</g>
	<g>
		<polygon class="st2" points="2053.6,-768.4 1990.1,-770.8 1968.1,-711.1 2018.1,-671.7 2070.9,-707.1 		"/>
	</g>
	<g>
		<polygon class="st2" points="2009.2,-928.4 1945.6,-930.9 1923.6,-871.1 1973.6,-831.8 2026.4,-867.2 		"/>
	</g>
	<g>
		<polygon class="st4" points="2106.4,-801.9 2053.5,-766.6 2070.8,-705.3 2134.3,-702.8 2156.4,-762.5 		"/>
	</g>
	<g>
		<polygon class="st3" points="2060.9,-961 2008,-925.7 2025.2,-864.5 2088.8,-861.9 2110.9,-921.6 		"/>
	</g>
	<g>
		<polygon class="st1" points="2053.5,-767.5 2106.4,-802.8 2089.2,-864 2025.6,-866.5 2025.6,-866.5 1972.7,-831.2 1990,-770 		"/>
	</g>
	<g>
		<polygon class="st6" points="2221.3,-762.6 2157.7,-765.1 2135.8,-705.3 2185.8,-666 2238.6,-701.5 		"/>
	</g>
	<g>
		<polygon class="st2" points="2135.6,-707.4 2072,-709.9 2019,-674.6 1997,-614.8 2014.2,-553.4 2064.3,-514 2127.8,-511.5 
			2180.9,-546.8 2202.9,-606.6 2185.7,-667.9 		"/>
	</g>
	<g>
		<polygon class="st5" points="2014.3,-553.4 1961.4,-518.1 1978.6,-456.9 2042.2,-454.4 2064.2,-514 		"/>
	</g>
	<g>
		<polygon class="st3" points="2036.8,-265.3 1973.2,-267.7 1951.3,-208 2001.3,-168.7 2054.2,-204.1 		"/>
	</g>
	<g>
		<polygon class="st3" points="2079.6,-106.3 2016.1,-108.7 1994.1,-49 2044.2,-9.7 2097,-45.1 		"/>
	</g>
	<g>
		<polygon class="st3" points="2242.9,-98.5 2179.3,-101 2157.3,-41.3 2207.4,-2 2260.2,-37.3 		"/>
	</g>
	<g>
		<polygon class="st1" points="2090.4,-301 2037.4,-265.7 2054.7,-204.5 2118.3,-201.9 2140.3,-261.6 		"/>
	</g>
	<g>
		<polygon class="st7" points="2131.1,-142.1 2078.1,-106.8 2095.4,-45.5 2159,-43 2181,-102.7 		"/>
	</g>
	<g>
		<polygon class="st8" points="2295.5,-135.6 2242.5,-100.2 2259.8,-39 2323.4,-36.5 2345.3,-96.2 		"/>
	</g>
	<g>
		<polygon class="st3" points="2176.8,-358.6 2113.1,-361 2091.3,-301.3 2141.2,-261.9 2194.1,-297.3 		"/>
	</g>
	<g>
		<polygon class="st4" points="2128.3,-514.9 2064.7,-517.3 2042.7,-457.6 2092.7,-418.3 2145.7,-453.8 		"/>
	</g>
	<g>
		<polygon class="st3" points="1961.3,-517.8 2014.3,-553.1 1997,-614.4 1933.4,-616.9 1933.4,-616.9 1880.6,-581.6 1897.8,-520.3 
					"/>
	</g>
	<g>
		<polygon class="st3" points="2181.8,-550.7 2128.9,-515.4 2146.2,-454.1 2209.7,-451.6 2231.7,-511.3 		"/>
	</g>
	<g>
		<polygon class="st3" points="2254.5,-293.9 2190.9,-296.4 2137.9,-261.1 2115.8,-201.3 2133.1,-140 2183.1,-100.6 2246.7,-98.1 
			2299.7,-133.4 2321.8,-193.2 2304.5,-254.5 		"/>
	</g>
	<g>
		<polygon class="st3" points="1738.7,-374.8 1675.1,-377.3 1622.1,-342 1600,-282.2 1617.3,-220.9 1667.3,-181.5 1730.9,-179 
			1783.9,-214.3 1806,-274.1 1788.7,-335.4 		"/>
	</g>
	<g>
		<polygon class="st4" points="1923.9,-308.5 1871.1,-273.2 1888.3,-212 1951.9,-209.4 1973.9,-269.1 		"/>
	</g>
	<g>
		<polygon class="st3" points="1871.2,-272.8 1807.6,-275.2 1785.6,-215.5 1835.6,-176.2 1888.5,-211.6 		"/>
	</g>
	<g>
		<polygon class="st7" points="1870.1,-272 1923,-307.4 1905.8,-368.6 1842.1,-371.1 1842.1,-371.1 1789.3,-335.8 1806.5,-274.6 		
			"/>
	</g>
	<g>
		<polygon class="st7" points="1565.5,-186.2 1618.3,-221.6 1601.1,-282.8 1537.5,-285.3 1537.5,-285.3 1484.7,-250 1501.8,-188.8 
					"/>
	</g>
	<g>
		<polygon class="st1" points="2172.8,-355 2225.6,-390.3 2208.4,-451.6 2144.8,-454.1 2144.8,-454.1 2091.9,-418.8 2109.1,-357.5 
					"/>
	</g>
	<g>
		<polygon class="st3" points="2080.3,-106.4 2133.3,-141.6 2116,-202.8 2052.4,-205.4 2052.4,-205.4 1999.5,-170 2016.8,-108.8 
			2080.3,-106.3 		"/>
	</g>
	<g>
		<polygon class="st5" points="1773.8,-20.3 1827.1,-55.5 1809.7,-116.7 1745.7,-119.2 1745.7,-119.2 1692.4,-83.9 1709.7,-22.8 		
			"/>
	</g>
	<g>
		<polygon class="st3" points="1526.4,-538.7 1462.8,-541.2 1409.8,-505.9 1387.8,-446.1 1405,-384.8 1455,-345.3 1518.7,-342.8 
			1571.6,-378.1 1593.7,-437.9 1576.4,-499.3 		"/>
	</g>
	<g>
		<polygon class="st1" points="1405.1,-384.7 1352.2,-349.4 1369.4,-288.2 1433,-285.7 1455,-345.3 		"/>
	</g>
	<g>
		<polygon class="st3" points="1359.6,-544.6 1306.8,-509.2 1324,-448 1387.5,-445.5 1409.6,-505.2 		"/>
	</g>
	<g>
		<polygon class="st7" points="220.5,48.4 156.9,45.8 104,81.2 81.9,140.9 99.2,202.2 149.1,241.7 212.8,244.2 265.7,208.8 
			287.8,149.1 270.5,87.8 		"/>
	</g>
	<g>
		<polygon class="st3" points="11.2,-116.4 -52.4,-118.9 -105.4,-83.6 -127.5,-23.8 -110.2,37.5 -60.2,77 3.4,79.5 56.4,44.2 
			78.5,-15.6 61.2,-77 		"/>
	</g>
	<g>
		<polygon class="st7" points="99.2,202.3 46.3,237.6 63.5,298.8 127,301.4 149.1,241.7 		"/>
	</g>
	<g>
		<polygon class="st8" points="46.4,238 -17.3,235.6 -39.1,295.3 10.8,334.6 63.7,299.1 		"/>
	</g>
	<g>
		<polygon class="st7" points="53.7,42.4 0.8,77.8 18.1,139 81.6,141.5 103.7,81.9 		"/>
	</g>
	<g>
		<polygon class="st7" points="-112,36.9 -164.9,72.2 -147.6,133.4 -84.1,136 -62.1,76.3 		"/>
	</g>
	<g>
		<polygon class="st8" points="1.1,78.3 -62.5,75.9 -84.4,135.5 -34.5,174.9 18.4,139.5 		"/>
	</g>
	<g>
		<polygon class="st3" points="192.8,-50.8 139.8,-15.5 157.1,45.7 220.6,48.3 242.6,-11.4 		"/>
	</g>
	<g>
		<polygon class="st8" points="140,-15 76.4,-17.4 54.5,42.3 104.5,81.6 157.4,46.2 		"/>
	</g>
	<g>
		<polygon class="st3" points="46.3,237.8 99.2,202.6 82,141.2 18.4,138.8 18.4,138.8 -34.5,174.2 -17.3,235.4 46.3,237.9 		"/>
	</g>
	<g>
		<polygon class="st7" points="138.8,-14.6 191.7,-50 174.4,-111.2 110.9,-113.7 110.9,-113.7 57.9,-78.4 75.2,-17.2 		"/>
	</g>
	<g>
		<polygon class="st10" points="-85.1,134 -148.7,131.5 -201.7,166.9 -223.8,226.6 -206.5,287.9 -156.5,327.3 -92.9,329.9 
			-39.8,294.5 -17.8,234.8 -35,173.5 		"/>
	</g>
	<g>
		<polygon class="st3" points="829.9,-125.1 766.2,-127.7 713.3,-92.3 691.2,-32.6 708.5,28.8 758.5,68.2 822.1,70.7 875.1,35.4 
			897.2,-24.4 879.9,-85.7 		"/>
	</g>
	<g>
		<polygon class="st8" points="708.5,28.8 655.7,64.1 672.8,125.3 736.4,127.9 758.5,68.2 		"/>
	</g>
	<g>
		<polygon class="st4" points="655.7,64.5 592.2,62.1 570.2,121.8 620.2,161.1 673,125.7 		"/>
	</g>
	<g>
		<polygon class="st3" points="663.1,-131 610.3,-95.7 627.4,-34.5 691,-32 713.1,-91.6 		"/>
	</g>
	<g>
		<polygon class="st3" points="610.4,-95.2 546.9,-97.6 524.9,-37.9 574.9,1.5 627.7,-34 		"/>
	</g>
	<g>
		<polygon class="st7" points="655.7,64.4 708.6,29.1 691.3,-32.2 627.8,-34.7 627.8,-34.7 574.8,0.7 592.1,61.9 		"/>
	</g>
	<g>
		<polygon class="st3" points="524.3,-39.4 460.7,-41.9 407.7,-6.6 385.7,53.2 402.9,114.4 452.9,153.9 516.5,156.5 569.5,121 
			591.5,61.4 574.3,0 		"/>
	</g>
	<g>
		<polygon class="st8" points="403,114.5 350,149.9 367.3,211.1 430.9,213.6 452.8,153.9 		"/>
	</g>
	<g>
		<polygon class="st10" points="350.1,150.3 286.6,147.9 264.6,207.5 314.7,246.8 367.5,211.4 		"/>
	</g>
	<g>
		<polygon class="st7" points="357.6,-45.3 304.6,-10 321.8,51.3 385.5,53.8 407.4,-5.9 		"/>
	</g>
	<g>
		<polygon class="st8" points="304.8,-9.4 241.2,-11.9 219.3,47.8 269.3,87.2 322.2,51.8 		"/>
	</g>
	<g>
		<polygon class="st8" points="439.7,-101 376.2,-103.4 354.2,-43.6 404.3,-4.3 457.1,-39.7 		"/>
	</g>
	<g>
		<polygon class="st4" points="350.1,150.1 403,114.8 385.7,53.6 322.1,51.1 322.1,51.1 269.3,86.4 286.5,147.6 350,150.2 		"/>
	</g>
	<g>
		<polygon class="st10" points="125.2,298.8 61.6,296.3 8.7,331.6 -13.4,391.4 3.9,452.7 53.8,492.1 117.5,494.6 170.4,459.3 
			192.5,399.5 175.2,338.2 		"/>
	</g>
	<g>
		<polygon class="st10" points="3.9,452.7 -49.1,488 -31.8,549.3 31.8,551.8 53.8,492.1 		"/>
	</g>
	<g>
		<polygon class="st11" points="-48.9,488.4 -112.6,486 -134.4,545.7 -84.5,585 -31.6,549.7 		"/>
	</g>
	<g>
		<polygon class="st7" points="-41.5,292.9 -94.5,328.2 -77.2,389.4 -13.7,391.9 8.4,332.3 		"/>
	</g>
	<g>
		<polygon class="st12" points="-94.2,328.7 -157.9,326.3 -179.7,386.1 -129.8,425.4 -76.9,389.9 		"/>
	</g>
	<g>
		<polygon class="st13" points="-49,488.3 3.8,453 -13.3,391.8 -76.9,389.2 -76.9,389.2 -129.8,424.6 -112.5,485.8 		"/>
	</g>
	<g>
		<polygon class="st10" points="734.6,125.3 671,122.8 618,158.2 595.9,217.9 613.2,279.2 663.2,318.6 726.8,321.1 779.8,285.8 
			801.9,226 784.6,164.8 		"/>
	</g>
	<g>
		<polygon class="st4" points="613.2,279.2 560.4,314.5 577.6,375.8 641.1,378.3 663.2,318.6 		"/>
	</g>
	<g>
		<polygon class="st8" points="560.4,314.9 496.8,312.5 474.9,372.2 524.9,411.6 577.7,376.2 		"/>
	</g>
	<g>
		<polygon class="st8" points="567.8,119.5 514.9,154.8 532.1,216 595.7,218.6 617.8,158.9 		"/>
	</g>
	<g>
		<polygon class="st4" points="515.1,155.3 451.5,152.9 429.6,212.6 479.6,251.9 532.4,216.4 		"/>
	</g>
	<g>
		<polygon class="st7" points="560.4,314.8 613.3,279.5 596,218.3 532.5,215.7 532.5,215.7 479.5,251.1 496.8,312.3 		"/>
	</g>
	<g>
		<polygon class="st8" points="429,211 365.3,208.5 312.4,243.9 290.3,303.6 307.6,365 357.5,404.4 421.2,406.9 474.1,371.6 
			496.2,311.8 478.9,250.5 		"/>
	</g>
	<g>
		<polygon class="st10" points="307.7,365 254.7,400.3 271.9,461.5 335.6,464 357.5,404.4 		"/>
	</g>
	<g>
		<polygon class="st12" points="254.8,400.7 191.3,398.3 169.3,457.9 219.3,497.3 272.1,461.9 		"/>
	</g>
	<g>
		<polygon class="st7" points="262.2,205.1 209.3,240.5 226.5,301.7 290.1,304.2 312.1,244.5 		"/>
	</g>
	<g>
		<polygon class="st8" points="209.5,241 146,238.6 124,298.3 173.9,337.6 226.9,302.2 		"/>
	</g>
	<g>
		<polygon class="st13" points="24.4,744.8 -39.2,742.4 -61.1,802.1 -11.2,841.4 41.7,806 		"/>
	</g>
	<g>
		<polygon class="st8" points="254.7,400.6 307.7,365.3 290.4,304 226.8,301.5 226.8,301.5 173.9,336.8 191.2,398.1 		"/>
	</g>
	<g>
		<polygon class="st12" points="337.3,464.5 273.8,462 220.8,497.3 198.8,557.1 216,618.4 266,657.8 329.6,660.4 382.6,625 
			404.6,565.3 387.4,503.9 		"/>
	</g>
	<g>
		<polygon class="st13" points="216.1,618.4 163.1,653.8 180.4,715 244,717.5 265.9,657.8 		"/>
	</g>
	<g>
		<polygon class="st13" points="78.1,710.8 25.1,746.2 42.4,807.4 106,809.9 128,750.2 		"/>
	</g>
	<g>
		<polygon class="st12" points="163.2,654.2 99.6,651.7 77.7,711.4 127.7,750.8 180.6,715.4 		"/>
	</g>
	<g>
		<polygon class="st12" points="327.1,659.6 263.6,657.1 241.6,716.8 291.7,756.2 344.5,720.8 		"/>
	</g>
	<g>
		<polygon class="st13" points="170.7,458.6 117.7,493.9 134.9,555.2 198.5,557.7 220.5,498 		"/>
	</g>
	<g>
		<polygon class="st13" points="163.2,654.1 216,618.7 198.8,557.5 135.2,555 135.2,555 82.4,590.3 99.6,651.5 163.1,654.1 		"/>
	</g>
	<g>
		<polygon class="st13" points="31.8,550.3 -31.8,547.8 -84.8,583.1 -106.9,642.9 -89.6,704.2 -39.6,743.6 24,746.1 77,710.8 
			99.1,651 81.8,589.7 		"/>
	</g>
	<g>
		<polygon class="st13" points="-89.6,704.2 -142.5,739.5 -125.2,800.7 -61.7,803.3 -39.6,743.6 		"/>
	</g>
	<g>
		<polygon class="st13" points="-142.3,739.9 -206,737.5 -227.9,797.2 -177.9,836.5 -125.1,801.2 		"/>
	</g>
	<g>
		<polygon class="st10" points="-135,544.4 -187.9,579.7 -170.6,640.9 -107.1,643.4 -85,583.8 		"/>
	</g>
	<g>
		<polygon class="st13" points="-142.4,739.8 -89.6,704.5 -106.8,643.3 -170.3,640.7 -170.3,640.7 -223.3,676.1 -206,737.3 		"/>
	</g>
	<g>
		<polygon class="st8" points="946.8,291 883.2,288.5 830.2,323.9 808.1,383.6 825.4,444.9 875.4,484.3 939,486.9 992,451.5 
			1014.1,391.8 996.8,330.5 		"/>
	</g>
	<g>
		<polygon class="st12" points="825.4,444.9 772.5,480.3 789.8,541.5 853.3,544 875.4,484.3 		"/>
	</g>
	<g>
		<polygon class="st8" points="991.1,451.5 938.2,486.8 955.4,548.1 1019,550.6 1041.1,490.9 		"/>
	</g>
	<g>
		<polygon class="st13" points="896.8,702.1 843.8,737.4 861.1,798.6 924.7,801.1 946.7,741.5 		"/>
	</g>
	<g>
		<polygon class="st8" points="772.5,480.7 709,478.2 687,538 737.1,577.3 789.9,541.9 		"/>
	</g>
	<g>
		<polygon class="st12" points="1076.2,395.8 1012.7,393.4 990.7,453.1 1040.7,492.5 1093.5,457.1 		"/>
	</g>
	<g>
		<polygon class="st13" points="845.8,737.9 782.3,735.5 760.3,795.1 810.4,834.4 863.2,799 		"/>
	</g>
	<g>
		<polygon class="st10" points="938.4,486.3 874.8,483.9 852.8,543.6 902.8,582.9 955.6,547.5 		"/>
	</g>
	<g>
		<polygon class="st4" points="780,285.2 727.1,320.5 744.3,381.8 807.9,384.3 829.9,324.6 		"/>
	</g>
	<g>
		<polygon class="st8" points="1013.1,-55.1 960.2,-19.8 977.4,41.4 1041.1,44 1063,-15.7 		"/>
	</g>
	<g>
		<polygon class="st7" points="960.3,-19.4 896.8,-21.8 874.8,37.9 924.8,77.3 977.6,41.8 		"/>
	</g>
	<g>
		<polygon class="st7" points="1039.2,41.5 975.5,39 922.6,74.3 900.5,134.1 917.8,195.3 967.7,234.8 1031.4,237.3 1084.3,201.9 
			1106.4,142.2 1089.1,80.9 		"/>
	</g>
	<g>
		<polygon class="st3" points="917.8,195.4 864.9,230.7 882.1,292 945.7,294.5 967.7,234.8 		"/>
	</g>
	<g>
		<polygon class="st8" points="865,231.1 801.5,228.6 779.5,288.4 829.5,327.7 882.3,292.3 		"/>
	</g>
	<g>
		<polygon class="st7" points="1031.8,235.7 968.2,233.3 946.2,293.1 996.2,332.4 1049,297 		"/>
	</g>
	<g>
		<polygon class="st8" points="872.4,35.6 819.4,70.9 836.7,132.1 900.3,134.7 922.3,75 		"/>
	</g>
	<g>
		<polygon class="st3" points="821.7,69.6 758.1,67.2 736.1,126.8 786.1,166.2 839,130.8 		"/>
	</g>
	<g>
		<polygon class="st4" points="864.9,230.9 917.9,195.6 900.6,134.4 837,131.8 837,131.9 784.1,167.2 801.4,228.5 		"/>
	</g>
	<g>
		<polygon class="st10" points="1084.6,201.3 1031.6,236.6 1048.9,297.9 1112.5,300.4 1134.4,240.7 		"/>
	</g>
	<g>
		<polygon class="st4" points="1129,362.3 1076.1,397.6 1093.4,458.9 1156.9,461.4 1179,401.7 		"/>
	</g>
	<g>
		<polygon class="st8" points="727.2,321 663.7,318.6 641.7,378.3 691.8,417.6 744.6,382.3 		"/>
	</g>
	<g>
		<polygon class="st10" points="772.6,480.6 825.4,445.2 808.2,384 744.6,381.5 744.6,381.5 691.7,416.8 708.9,478 		"/>
	</g>
	<g>
		<polygon class="st8" points="1076.1,396.7 1129.1,361.4 1111.8,300.2 1048.2,297.6 1048.2,297.6 995.3,333 1012.6,394.2 		"/>
	</g>
	<g>
		<polygon class="st10" points="1243.9,401.6 1180.3,399.1 1158.3,458.8 1208.4,498.2 1261.2,462.7 		"/>
	</g>
	<g>
		<polygon class="st12" points="1289.2,562.5 1342.2,527.2 1324.9,465.9 1261.3,463.4 1261.3,463.4 1208.5,498.8 1225.7,560 		"/>
	</g>
	<g>
		<polygon class="st12" points="641.2,376.8 577.5,374.3 524.6,409.7 502.5,469.4 519.8,530.7 569.7,570.1 633.4,572.6 686.3,537.3 
			708.4,477.5 691.1,416.3 		"/>
	</g>
	<g>
		<polygon class="st13" points="519.8,530.7 466.9,566 484.1,627.3 547.7,629.8 569.7,570.1 		"/>
	</g>
	<g>
		<polygon class="st10" points="467,566.4 403.4,564 381.5,623.7 431.5,663.1 484.3,627.7 		"/>
	</g>
	<g>
		<polygon class="st7" points="474.4,371 421.4,406.2 438.7,467.5 502.3,470.1 524.3,410.3 		"/>
	</g>
	<g>
		<polygon class="st8" points="421.7,406.8 358.1,404.3 336.2,464.1 386.1,503.4 439,467.9 		"/>
	</g>
	<g>
		<polygon class="st10" points="466.9,566.3 519.9,531 502.6,469.8 439,467.2 439,467.2 386.1,502.6 403.4,563.8 		"/>
	</g>
	<g>
		<polygon class="st13" points="548.8,630.3 485.2,627.8 432.3,663.1 410.2,722.9 427.5,784.2 477.4,823.6 541.1,826.2 594,790.8 
			616.1,731.1 598.8,669.7 		"/>
	</g>
	<g>
		<polygon class="st13" points="244.2,717 180.5,714.5 127.6,749.9 105.5,809.6 122.8,870.9 172.8,910.3 236.4,912.9 289.3,877.5 
			311.4,817.8 294.1,756.5 		"/>
	</g>
	<g>
		<polygon class="st13" points="427.5,784.2 374.6,819.6 391.8,880.8 455.3,883.3 477.4,823.6 		"/>
	</g>
	<g>
		<polygon class="st10" points="382,624.4 329.1,659.7 346.4,721 409.9,723.5 432,663.8 		"/>
	</g>
	<g>
		<polygon class="st13" points="374.6,819.9 427.5,784.5 410.3,723.3 346.7,720.8 346.7,720.8 293.8,756.1 311,817.3 		"/>
	</g>
	<g>
		<polygon class="st13" points="1158.2,456.8 1094.5,454.3 1041.6,489.7 1019.5,549.4 1036.8,610.7 1086.8,650.2 1150.4,652.7 
			1203.4,617.3 1225.5,557.6 1208.2,496.3 		"/>
	</g>
	<g>
		<polygon class="st13" points="1036.8,610.7 984,646.1 1001.1,707.3 1064.8,709.8 1086.8,650.2 		"/>
	</g>
	<g>
		<polygon class="st12" points="984,646.5 920.5,644.1 898.5,703.7 948.5,743.1 1001.3,707.7 		"/>
	</g>
	<g>
		<polygon class="st13" points="1150.9,649.3 1087.3,646.9 1065.3,706.5 1115.3,745.9 1168.2,710.5 		"/>
	</g>
	<g>
		<polygon class="st13" points="984,646.4 1036.9,611 1019.6,549.8 956.1,547.3 956.1,547.3 903.1,582.6 920.4,643.9 		"/>
	</g>
	<g>
		<polygon class="st13" points="1204.4,613.5 1151.5,648.8 1168.7,710 1232.3,712.6 1254.3,652.9 		"/>
	</g>
	<g>
		<polygon class="st13" points="1287.6,558.6 1224,556.2 1202,616 1252,655.3 1304.9,619.9 		"/>
	</g>
	<g>
		<polygon class="st13" points="1371.4,620.7 1307.8,618.2 1254.8,653.5 1232.8,713.3 1250,774.6 1300.1,814 1363.6,816.6 
			1416.6,781.2 1438.6,721.4 1421.4,660.1 		"/>
	</g>
	<g>
		<polygon class="st13" points="1064.8,706.4 1001.2,703.9 948.2,739.2 926.2,799 943.4,860.3 993.4,899.7 1057.1,902.3 1110,866.9 
			1132.1,807.2 1114.8,745.8 		"/>
	</g>
	<g>
		<polygon class="st13" points="1250.2,772.7 1197.2,808.1 1214.5,869.3 1278,871.8 1300,812.1 		"/>
	</g>
	<g>
		<polygon class="st13" points="1197.3,808.5 1133.7,806 1111.8,865.7 1161.8,905 1214.7,869.7 		"/>
	</g>
	<g>
		<polygon class="st13" points="1196.3,809.2 1249.2,773.9 1231.9,712.7 1168.4,710.1 1168.4,710.1 1115.4,745.5 1132.7,806.7 		"/>
	</g>
	<g>
		<polygon class="st12" points="852.7,542.6 789,540.1 736,575.4 714,635.2 731.2,696.5 781.2,735.9 844.9,738.4 897.8,703.1 
			919.9,643.3 902.6,582 		"/>
	</g>
	<g>
		<polygon class="st13" points="731.3,696.5 678.3,731.8 695.6,793.1 759.2,795.6 781.2,735.9 		"/>
	</g>
	<g>
		<polygon class="st13" points="678.4,732.2 614.9,729.8 592.9,789.5 643,828.8 695.8,793.5 		"/>
	</g>
	<g>
		<polygon class="st13" points="685.9,536.7 632.9,572 650.2,633.2 713.8,635.8 735.7,576.1 		"/>
	</g>
	<g>
		<polygon class="st13" points="633.1,572.5 569.5,570.1 547.6,629.9 597.6,669.2 650.5,633.8 		"/>
	</g>
	<g>
		<polygon class="st13" points="678.4,732.1 731.3,696.8 714.1,635.6 650.4,633 650.4,633 597.6,668.4 614.8,729.6 		"/>
	</g>
	<g>
		<polygon class="st3" points="1344.7,-42.4 1280.6,-44.9 1227.2,-9.3 1205,50.9 1222.4,112.6 1272.8,152.2 1336.9,154.8 
			1390.3,119.3 1412.5,59.1 1395.1,-2.6 		"/>
	</g>
	<g>
		<polygon class="st10" points="1556.8,123.4 1493.2,120.8 1440.2,156.2 1418.1,215.9 1435.4,277.3 1485.4,316.7 1549.1,319.2 
			1602.1,283.9 1624.1,224.1 1606.9,162.8 		"/>
	</g>
	<g>
		<polygon class="st8" points="1435.5,277.3 1382.6,312.6 1399.8,373.8 1463.4,376.4 1485.4,316.7 		"/>
	</g>
	<g>
		<polygon class="st4" points="1601.2,283.8 1548.3,319.2 1565.5,380.4 1629.1,382.9 1651.2,323.3 		"/>
	</g>
	<g>
		<polygon class="st13" points="1506.8,534.4 1454,569.7 1471.1,631 1534.8,633.5 1556.8,573.8 		"/>
	</g>
	<g>
		<polygon class="st10" points="1382.7,313 1319.1,310.6 1297.1,370.3 1347.1,409.7 1400.1,374.2 		"/>
	</g>
	<g>
		<polygon class="st10" points="1686.4,228.2 1622.7,225.8 1600.8,285.4 1650.8,324.7 1703.7,289.4 		"/>
	</g>
	<g>
		<polygon class="st10" points="1455.9,570.1 1392.4,567.7 1370.4,627.5 1420.4,666.8 1473.3,631.4 		"/>
	</g>
	<g>
		<polygon class="st13" points="1551.4,691.6 1498.6,726.8 1515.8,788.2 1579.4,790.7 1601.4,730.9 		"/>
	</g>
	<g>
		<polygon class="st13" points="1500.5,727.3 1437,724.9 1415,784.7 1465,824 1517.9,788.5 		"/>
	</g>
	<g>
		<polygon class="st7" points="1548.4,318.6 1484.8,316.2 1462.9,375.9 1512.9,415.3 1565.8,379.8 		"/>
	</g>
	<g>
		<polygon class="st8" points="1389.7,117.4 1336.7,152.9 1354,214.1 1417.9,216.6 1440,157 		"/>
	</g>
	<g>
		<polygon class="st7" points="1832.6,-59.1 1779.6,-23.7 1796.9,37.5 1860.5,40 1882.5,-19.6 		"/>
	</g>
	<g>
		<polygon class="st3" points="1779.8,-23.3 1716.2,-25.7 1694.3,33.9 1744.3,73.2 1797.1,37.9 		"/>
	</g>
	<g>
		<polygon class="st7" points="1649.3,-126.3 1585.6,-128.8 1532.7,-93.4 1510.6,-33.7 1527.9,27.6 1577.9,67.1 1641.5,69.6 
			1694.5,34.2 1716.5,-25.5 1699.3,-86.8 		"/>
	</g>
	<g>
		<polygon class="st3" points="1527.9,27.6 1475,63 1492.2,124.2 1555.8,126.7 1577.9,67.1 		"/>
	</g>
	<g>
		<polygon class="st7" points="1475,63.4 1411.5,61 1389.6,120.7 1439.6,160 1492.4,124.6 		"/>
	</g>
	<g>
		<polygon class="st7" points="1641.8,68.1 1578.2,65.7 1556.3,125.3 1606.3,164.8 1659.2,129.3 		"/>
	</g>
	<g>
		<polygon class="st3" points="1482.5,-132.1 1429.5,-96.8 1446.8,-35.5 1510.4,-33 1532.5,-92.7 		"/>
	</g>
	<g>
		<polygon class="st7" points="1428.9,-97.2 1364.4,-99.7 1342.2,-39.2 1392.9,0.6 1446.4,-35.2 		"/>
	</g>
	<g>
		<polygon class="st8" points="1475,63.3 1527.9,27.9 1510.7,-33.3 1447.1,-35.8 1447.1,-35.8 1394.2,-0.5 1411.5,60.8 		"/>
	</g>
	<g>
		<polygon class="st8" points="1222.7,110.5 1169.5,147.1 1186.7,210.5 1250.7,213 1273,151.2 		"/>
	</g>
	<g>
		<polygon class="st4" points="1169.6,146.2 1106.1,143.8 1084.1,203.6 1134.1,242.9 1186.9,207.5 		"/>
	</g>
	<g>
		<polygon class="st7" points="1177,-49.2 1124,-13.9 1141.3,47.3 1204.9,49.9 1226.9,-9.8 		"/>
	</g>
	<g>
		<polygon class="st3" points="1126.3,-15.2 1062.7,-17.6 1040.7,42.1 1090.7,81.4 1143.6,45.9 		"/>
	</g>
	<g>
		<polygon class="st7" points="1169.5,146.1 1222.5,110.8 1205.2,49.6 1141.6,47.1 1141.6,47.1 1088.7,82.4 1106,143.6 		"/>
	</g>
	<g>
		<polygon class="st3" points="1694.6,33.6 1641.7,69 1658.9,130.2 1722.6,132.7 1744.6,73.1 		"/>
	</g>
	<g>
		<polygon class="st3" points="1739.1,194.6 1686.2,230 1703.4,291.2 1767,293.7 1789,234 		"/>
	</g>
	<g>
		<polygon class="st7" points="1336.4,153.3 1272.8,150.8 1250.9,210.6 1300.9,249.9 1353.8,214.5 		"/>
	</g>
	<g>
		<polygon class="st3" points="1382.6,312.9 1435.5,277.6 1418.2,216.3 1354.7,213.8 1354.7,213.8 1301.8,249.2 1319,310.4 		"/>
	</g>
	<g>
		<polygon class="st8" points="1686.2,229 1739.1,193.6 1721.9,132.4 1658.3,129.9 1658.3,129.9 1605.4,165.2 1622.7,226.5 		"/>
	</g>
	<g>
		<polygon class="st7" points="1854,233.8 1790.4,231.4 1768.4,291.2 1818.4,330.5 1871.4,295.1 		"/>
	</g>
	<g>
		<polygon class="st7" points="1251.3,209.1 1187.6,206.6 1134.7,241.9 1112.6,301.7 1129.9,363 1179.9,402.4 1243.5,405 
			1296.5,369.6 1318.5,309.9 1301.3,248.5 		"/>
	</g>
	<g>
		<polygon class="st8" points="1767.3,289.1 1703.7,286.6 1650.7,321.9 1628.6,381.7 1645.9,443 1695.9,482.5 1759.6,485 
			1812.5,449.6 1834.6,389.9 1817.3,328.5 		"/>
	</g>
	<g>
		<polygon class="st10" points="1646.9,443.1 1594.1,478.4 1611.3,539.6 1674.8,542.2 1696.9,482.5 		"/>
	</g>
	<g>
		<polygon class="st12" points="1594.2,478.8 1530.5,476.4 1508.6,536.1 1558.6,575.4 1611.5,540.1 		"/>
	</g>
	<g>
		<polygon class="st13" points="1718.4,696.3 1665.5,731.6 1682.8,792.9 1746.3,795.4 1768.4,735.7 		"/>
	</g>
	<g>
		<polygon class="st13" points="1665.6,732 1602,729.6 1580.2,789.3 1630.1,828.6 1683,793.3 		"/>
	</g>
	<g>
		<polygon class="st12" points="1761,481.6 1697.3,479.1 1675.5,538.9 1725.4,578.2 1778.3,542.8 		"/>
	</g>
	<g>
		<polygon class="st8" points="1594.1,478.7 1647,443.4 1629.7,382.2 1566.2,379.6 1566.2,379.6 1513.2,415 1530.5,476.2 		"/>
	</g>
	<g>
		<polygon class="st8" points="1814.4,445.8 1761.6,481.2 1778.8,542.4 1842.3,544.9 1864.4,485.2 		"/>
	</g>
	<g>
		<polygon class="st7" points="1897.7,391 1834,388.6 1812.1,448.3 1862.1,487.6 1915,452.2 		"/>
	</g>
	<g>
		<polygon class="st12" points="1981.5,453 1917.8,450.5 1864.9,485.9 1842.8,545.6 1860.1,607 1910.1,646.4 1973.7,648.9 
			2026.7,613.6 2048.8,553.8 2031.5,492.5 		"/>
	</g>
	<g>
		<polygon class="st13" points="1885.2,703.4 1821.6,700.9 1768.6,736.3 1746.6,796 1763.8,857.3 1813.9,896.8 1877.4,899.3 
			1930.5,863.9 1952.5,804.2 1935.3,742.9 		"/>
	</g>
	<g>
		<polygon class="st7" points="1860.4,40.4 1796.8,37.9 1743.9,73.2 1721.8,133 1739.1,194.3 1789,233.7 1852.7,236.3 1905.6,200.9 
			1927.7,141.2 1910.4,79.8 		"/>
	</g>
	<g>
		<polygon class="st7" points="2162.1,-42.8 2098.5,-45.3 2045.5,-10 2023.5,49.8 2040.7,111.1 2090.8,150.5 2154.3,153.1 
			2207.4,117.7 2229.4,58 2212.2,-3.4 		"/>
	</g>
	<g>
		<polygon class="st3" points="1904.7,200.9 1851.9,236.2 1869.1,297.5 1932.7,300 1954.7,240.3 		"/>
	</g>
	<g>
		<polygon class="st8" points="1989.9,145.2 1926.3,142.8 1904.4,202.5 1954.3,241.8 2007.2,206.5 		"/>
	</g>
	<g>
		<polygon class="st12" points="2275.2,561.3 2211.7,558.8 2189.7,618.5 2239.7,657.8 2292.5,622.5 		"/>
	</g>
	<g>
		<polygon class="st8" points="1945.4,-14.9 1881.8,-17.3 1859.9,42.4 1909.8,81.8 1962.7,46.4 		"/>
	</g>
	<g>
		<polygon class="st7" points="2042.7,111.7 1989.7,147 2007,208.3 2070.6,210.8 2092.6,151.1 		"/>
	</g>
	<g>
		<polygon class="st8" points="2207.7,116.1 2154.8,151.5 2172.1,212.7 2235.6,215.2 2257.7,155.6 		"/>
	</g>
	<g>
		<polygon class="st7" points="1997.3,-51.4 1944.5,-16.1 1961.6,45.1 2025.2,47.7 2047.3,-12 		"/>
	</g>
	<g>
		<polygon class="st3" points="1990.8,145.1 2043.7,109.7 2026.5,48.5 1962.9,46 1962.9,46 1910,81.3 1927.3,142.6 		"/>
	</g>
	<g>
		<polygon class="st8" points="2157.6,150.9 2093.9,148.5 2072.1,208.2 2122,247.6 2174.9,212.1 		"/>
	</g>
	<g>
		<polygon class="st7" points="2203,311.8 2255.8,276.5 2238.6,215.2 2175,212.7 2175,212.8 2122.1,248.1 2139.3,309.4 		"/>
	</g>
	<g>
		<polygon class="st10" points="2071.8,206.2 2008.3,203.7 1955.3,239 1933.3,298.8 1950.4,360.1 2000.5,399.6 2064.1,402.1 
			2117.1,366.8 2139.1,307 2121.9,245.6 		"/>
	</g>
	<g>
		<polygon class="st8" points="1950.5,360.1 1897.6,395.5 1914.9,456.7 1978.4,459.2 2000.4,399.6 		"/>
	</g>
	<g>
		<polygon class="st13" points="1973.1,648.3 1909.5,645.8 1887.5,705.6 1937.6,744.9 1990.4,709.5 		"/>
	</g>
	<g>
		<polygon class="st13" points="2026.6,612.6 1973.7,647.9 1991,709.1 2054.5,711.6 2076.6,652 		"/>
	</g>
	<g>
		<polygon class="st13" points="2154.1,519.3 2101.3,554.7 2118.4,615.9 2182.1,618.4 2204.1,558.7 		"/>
	</g>
	<g>
		<polygon class="st13" points="2067.3,771.5 2014.4,806.8 2031.7,868.1 2095.2,870.6 2117.2,810.9 		"/>
	</g>
	<g>
		<polygon class="st12" points="2113.1,555 2049.4,552.6 2027.5,612.3 2077.5,651.6 2130.3,616.3 		"/>
	</g>
	<g>
		<polygon class="st10" points="2064.5,398.6 2001,396.2 1979,455.9 2029,495.3 2081.9,459.8 		"/>
	</g>
	<g>
		<polygon class="st4" points="1898.6,393.8 1951.5,358.4 1934.3,297.2 1870.7,294.7 1870.7,294.7 1817.9,330 1835,391.3 		"/>
	</g>
	<g>
		<polygon class="st8" points="2118.1,362.9 2065.1,398.2 2082.4,459.5 2146,462 2168,402.3 		"/>
	</g>
	<g>
		<polygon class="st4" points="2201.2,308 2137.7,305.6 2115.7,365.3 2165.7,404.7 2218.6,369.3 		"/>
	</g>
	<g>
		<polygon class="st13" points="2190.8,619.7 2127.1,617.1 2074.2,652.5 2052.1,712.2 2069.4,773.5 2119.3,813 2183,815.5 
			2235.9,780.1 2258,720.4 2240.7,659.1 		"/>
	</g>
	<g>
		<polygon class="st13" points="1675,538.8 1611.3,536.2 1558.4,571.6 1536.3,631.3 1553.6,692.6 1603.5,732.1 1667.2,734.6 
			1720.1,699.2 1742.2,639.5 1724.9,578.2 		"/>
	</g>
	<g>
		<polygon class="st13" points="1860.2,605.1 1807.3,640.4 1824.5,701.6 1888.2,704.1 1910.2,644.5 		"/>
	</g>
	<g>
		<polygon class="st13" points="1807.4,640.8 1743.9,638.4 1721.9,698.1 1771.9,737.4 1824.7,701.9 		"/>
	</g>
	<g>
		<polygon class="st13" points="1806.4,641.6 1859.2,606.2 1842,545 1778.4,542.5 1778.4,542.5 1725.5,577.8 1742.7,639 		"/>
	</g>
	<g>
		<polygon class="st13" points="1501.7,727.4 1554.6,692 1537.4,630.8 1473.8,628.3 1473.8,628.3 1420.9,663.6 1438.1,724.8 		"/>
	</g>
	<g>
		<polygon class="st10" points="2109,558.6 2161.9,523.2 2144.7,462 2081,459.5 2081,459.5 2028.2,494.8 2045.4,556.1 		"/>
	</g>
	<g>
		<polygon class="st7" points="2463.1,-133.4 2399.6,-136 2346.5,-100.6 2324.5,-40.8 2341.7,20.4 2391.8,59.9 2455.3,62.4 
			2508.4,27 2530.4,-32.7 2513.2,-94 		"/>
	</g>
	<g>
		<polygon class="st3" points="2593.8,-29.7 2530.2,-32.1 2508.3,27.6 2558.3,66.9 2611.2,31.6 		"/>
	</g>
	<g>
		<polygon class="st3" points="2757,-21.9 2693.5,-24.3 2671.5,35.4 2721.6,74.7 2774.4,39.3 		"/>
	</g>
	<g>
		<polygon class="st5" points="2288,56.4 2341.3,21.2 2323.9,-40.1 2259.9,-42.6 2259.9,-42.6 2206.6,-7.3 2223.9,53.8 		"/>
	</g>
	<g>
		<polygon class="st8" points="2071,200 2007.3,197.5 1954.4,232.8 1932.3,292.6 1949.6,353.9 1999.6,393.3 2063.2,395.8 
			2116.3,360.5 2138.3,300.7 2121.1,239.4 		"/>
	</g>
	<g>
		<polygon class="st4" points="2115.4,360.5 2062.4,395.8 2079.7,457 2143.3,459.6 2165.3,399.9 		"/>
	</g>
	<g>
		<polygon class="st10" points="2200.5,304.8 2136.9,302.4 2115,362.1 2165,401.4 2217.8,366 		"/>
	</g>
	<g>
		<polygon class="st7" points="2346.7,17.6 2293.8,52.9 2311.1,114.1 2374.6,116.7 2396.7,57 		"/>
	</g>
	<g>
		<polygon class="st3" points="2294,53.3 2230.3,50.9 2208.4,110.6 2258.4,149.9 2311.3,114.5 		"/>
	</g>
	<g>
		<polygon class="st3" points="2163.5,-49.6 2099.8,-52.2 2046.9,-16.7 2024.8,42.9 2042.1,104.3 2092,143.7 2155.7,146.2 
			2208.6,110.9 2230.7,51.1 2213.4,-10.1 		"/>
	</g>
	<g>
		<polygon class="st7" points="2155.9,144.7 2092.4,142.3 2070.5,202 2120.5,241.4 2173.3,206 		"/>
	</g>
	<g>
		<polygon class="st3" points="2208.8,110.3 2155.9,145.6 2173.1,206.8 2236.7,209.4 2258.7,149.7 		"/>
	</g>
	<g>
		<polygon class="st3" points="2253.3,271.3 2200.4,306.6 2217.6,367.8 2281.2,370.4 2303.2,310.7 		"/>
	</g>
	<g>
		<polygon class="st8" points="2200.4,305.6 2253.2,270.3 2236.1,209 2172.5,206.5 2172.5,206.5 2119.6,241.9 2136.9,303.1 		"/>
	</g>
	<g>
		<polygon class="st7" points="2368.1,310.5 2304.6,308 2282.6,367.8 2332.6,407.1 2385.5,371.7 		"/>
	</g>
	<g>
		<polygon class="st9" points="2413.5,471.4 2466.4,436.1 2449.2,374.8 2385.6,372.4 2385.6,372.4 2332.7,407.7 2350,469 
			2413.5,471.5 		"/>
	</g>
	<g>
		<polygon class="st12" points="2282.5,365.8 2218.8,363.3 2165.9,398.6 2143.8,458.4 2161.1,519.7 2211.1,559.1 2274.7,561.6 
			2327.7,526.3 2349.7,466.5 2332.5,405.2 		"/>
	</g>
	<g>
		<polygon class="st10" points="2161.1,519.7 2108.3,555 2125.4,616.3 2189,618.8 2211.1,559.1 		"/>
	</g>
	<g>
		<polygon class="st8" points="2108.2,555.3 2161.2,520 2143.9,458.8 2080.3,456.3 2080.3,456.3 2027.4,491.6 2044.7,552.8 		"/>
	</g>
	<g>
		<polygon class="st13" points="2325.8,526.4 2272.9,561.8 2290.1,623 2353.7,625.5 2375.7,565.9 		"/>
	</g>
	<g>
		<polygon class="st7" points="2411.9,467.6 2348.2,465.2 2326.3,525 2376.3,564.3 2429.1,528.8 		"/>
	</g>
	<g>
		<polygon class="st13" points="2495.7,529.7 2432,527.2 2379.1,562.5 2357,622.3 2374.3,683.6 2424.2,723 2487.9,725.5 
			2540.8,690.2 2562.9,630.4 2545.6,569.1 		"/>
	</g>
	<g>
		<polygon class="st7" points="2374.6,117.1 2311,114.5 2258,149.9 2235.9,209.6 2253.2,271 2303.2,310.4 2366.8,312.9 
			2419.8,277.6 2441.9,217.8 2424.6,156.5 		"/>
	</g>
	<g>
		<polygon class="st7" points="2676.2,33.8 2612.7,31.3 2559.7,66.7 2537.7,126.4 2554.9,187.8 2604.9,227.2 2668.5,229.7 
			2721.5,194.4 2743.6,134.6 2726.3,73.3 		"/>
	</g>
	<g>
		<polygon class="st3" points="2418.9,277.5 2366,312.9 2383.2,374.1 2446.9,376.6 2468.9,316.9 		"/>
	</g>
	<g>
		<polygon class="st8" points="2504.1,221.9 2440.5,219.4 2418.5,279.1 2468.5,318.4 2521.4,283.1 		"/>
	</g>
	<g>
		<polygon class="st8" points="2459.6,61.8 2396,59.4 2374,119 2424,158.4 2476.9,123 		"/>
	</g>
	<g>
		<polygon class="st7" points="2556.8,188.3 2503.9,223.7 2521.2,284.9 2584.7,287.4 2606.8,227.7 		"/>
	</g>
	<g>
		<polygon class="st8" points="2721.9,192.8 2668.9,228.1 2686.2,289.3 2749.8,291.9 2771.9,232.2 		"/>
	</g>
	<g>
		<polygon class="st7" points="2511.5,25.2 2458.6,60.5 2475.8,121.8 2539.4,124.3 2561.4,64.6 		"/>
	</g>
	<g>
		<polygon class="st3" points="2505,221.7 2557.9,186.4 2540.6,125.1 2477.1,122.6 2477.1,122.6 2424.1,158 2441.4,219.2 		"/>
	</g>
	<g>
		<polygon class="st8" points="2671.8,227.5 2608.1,225.1 2586.2,284.9 2636.2,324.2 2689.1,288.8 		"/>
	</g>
	<g>
		<polygon class="st7" points="2717.1,388.4 2770,353.1 2752.8,291.9 2689.1,289.4 2689.1,289.5 2636.3,324.7 2653.5,386 		"/>
	</g>
	<g>
		<polygon class="st10" points="2586,282.9 2522.5,280.3 2469.4,315.7 2447.4,375.4 2464.6,436.8 2514.7,476.2 2578.2,478.7 
			2631.3,443.4 2653.3,383.6 2636.1,322.3 		"/>
	</g>
	<g>
		<polygon class="st8" points="2464.7,436.8 2411.8,472.1 2429.1,533.3 2492.6,535.9 2514.6,476.2 		"/>
	</g>
	<g>
		<polygon class="st13" points="2578.7,475.2 2515.1,472.8 2493.1,532.6 2543.1,571.9 2596.1,536.5 		"/>
	</g>
	<g>
		<polygon class="st4" points="2411.8,472.4 2464.7,437.1 2447.4,375.8 2383.9,373.3 2383.9,373.3 2331,408.7 2348.2,469.9 		"/>
	</g>
	<g>
		<polygon class="st8" points="2632.2,439.5 2579.3,474.8 2596.6,536.1 2660.1,538.6 2682.1,478.9 		"/>
	</g>
	<g>
		<polygon class="st4" points="2715.4,384.7 2651.8,382.2 2629.8,441.9 2679.8,481.3 2732.8,445.9 		"/>
	</g>
	<g>
		<polygon class="st10" points="2623.2,635.2 2676,599.9 2658.8,538.7 2595.2,536.1 2595.2,536.1 2542.3,571.5 2559.5,632.7 		"/>
	</g>
	<g>
		<polygon class="st12" points="2016.6,807.2 2069.5,771.9 2052.2,710.7 1988.7,708.1 1988.7,708.1 1935.8,743.5 1953,804.7 		"/>
	</g>
	<g>
		<polygon class="st12" points="1462.7,374.9 1399,372.4 1346.1,407.7 1324,467.5 1341.3,528.7 1391.3,568.3 1454.9,570.8 
			1507.9,535.3 1529.9,475.7 1512.7,414.3 		"/>
	</g>
	<g>
		<polygon class="st13" points="1341.4,528.8 1288.4,564.2 1305.6,625.4 1369.3,627.9 1391.3,568.3 		"/>
	</g>
	<g>
		<polygon class="st8" points="1295.9,369 1243,404.4 1260.2,465.6 1323.8,468.1 1345.9,408.4 		"/>
	</g>
	<g>
		<polygon class="st13" points="-85.3,703.7 -138.2,739 -120.9,800.2 -57.4,802.7 -35.4,743.1 		"/>
	</g>
	<g>
		<polygon class="st13" points="-138.1,739.4 -201.7,737 -223.7,796.6 -173.7,836 -120.7,800.6 		"/>
	</g>
	<g>
		<polygon class="st13" points="246.4,714.4 182.7,711.9 129.8,747.3 107.7,807 125,868.3 175,907.7 238.6,910.3 291.6,874.9 
			313.6,815.1 296.3,753.9 		"/>
	</g>
	<g>
		<polygon class="st13" points="125,868.4 72,903.6 89.3,965 152.9,967.5 175,907.7 		"/>
	</g>
	<g>
		<polygon class="st13" points="72.2,904.1 8.6,901.6 -13.3,961.4 36.7,1000.7 89.5,965.3 		"/>
	</g>
	<g>
		<polygon class="st13" points="79.6,708.6 26.6,743.9 43.9,805.2 107.5,807.7 129.6,748 		"/>
	</g>
	<g>
		<polygon class="st13" points="26.9,744.4 -36.7,742 -58.6,801.7 -8.6,841 44.2,805.7 		"/>
	</g>
	<g>
		<polygon class="st13" points="72.1,904 125,868.6 107.8,807.4 44.2,804.9 44.2,804.9 -8.7,840.2 8.6,901.4 		"/>
	</g>
	<g>
		<polygon class="st13" points="-59.3,800.2 -122.9,797.6 -175.9,833.1 -197.9,892.7 -180.7,954.1 -130.7,993.5 -67,996 
			-14.1,960.7 8,900.9 -9.3,839.7 		"/>
	</g>
	<g>
		<polygon class="st13" points="734.3,694.9 681.5,730.3 698.7,791.5 762.2,794 784.3,734.3 		"/>
	</g>
	<g>
		<polygon class="st13" points="681.6,730.7 617.9,728.2 596,787.9 646,827.2 698.9,791.8 		"/>
	</g>
	<g>
		<polygon class="st13" points="550.1,626.7 486.4,624.1 433.5,659.6 411.4,719.2 428.7,780.6 478.7,820 542.3,822.5 595.4,787.2 
			617.4,727.4 600.2,666.2 		"/>
	</g>
	<g>
		<polygon class="st12" points="375.9,816.3 312.4,813.9 290.4,873.7 340.4,913 393.3,877.6 		"/>
	</g>
	<g>
		<polygon class="st13" points="375.8,816.2 428.8,780.9 411.5,719.7 347.9,717.1 347.9,717.1 295.1,752.5 312.3,813.7 		"/>
	</g>
	<g>
		<polygon class="st13" points="458.5,880.2 394.9,877.7 341.9,913 319.9,972.8 337.1,1034 387.2,1073.6 450.7,1076.1 503.8,1040.7 
			525.7,981 508.5,919.7 		"/>
	</g>
	<g>
		<polygon class="st12" points="291.8,874.3 238.8,909.7 256,970.9 319.7,973.4 341.7,913.7 		"/>
	</g>
	<g>
		<polygon class="st13" points="239,910.2 175.5,907.7 153.5,967.4 203.6,1006.7 256.4,971.4 		"/>
	</g>
	<g>
		<polygon class="st13" points="1067.9,706.7 1004.3,704.2 951.3,739.6 929.2,799.3 946.5,860.7 996.5,900.1 1060.2,902.6 
			1113.1,867.3 1135.2,807.5 1117.9,746.2 		"/>
	</g>
	<g>
		<polygon class="st13" points="946.5,860.7 893.6,896 910.9,957.2 974.4,959.7 996.5,900.1 		"/>
	</g>
	<g>
		<polygon class="st13" points="1112.2,867.2 1059.4,902.6 1076.5,963.8 1140.1,966.3 1162.2,906.6 		"/>
	</g>
	<g>
		<polygon class="st13" points="893.7,896.4 830.1,894 808.1,953.7 858.2,993 911.1,957.6 		"/>
	</g>
	<g>
		<polygon class="st13" points="1197.4,811.6 1133.8,809 1111.8,868.8 1161.8,908.1 1214.7,872.7 		"/>
	</g>
	<g>
		<polygon class="st13" points="1059.5,902 995.9,899.5 973.9,959.2 1023.9,998.6 1076.8,963.2 		"/>
	</g>
	<g>
		<polygon class="st13" points="901.1,700.8 848.2,736.2 865.5,797.4 929,799.9 951,740.2 		"/>
	</g>
	<g>
		<polygon class="st13" points="1250.1,778 1197.2,813.4 1214.5,874.6 1278,877.1 1300.1,817.4 		"/>
	</g>
	<g>
		<polygon class="st10" points="848.4,736.7 784.8,734.3 762.8,793.9 812.9,833.3 865.8,797.9 		"/>
	</g>
	<g>
		<polygon class="st13" points="893.7,896.3 946.5,861 929.3,799.7 865.7,797.2 865.7,797.2 812.8,832.5 830,893.8 		"/>
	</g>
	<g>
		<polygon class="st13" points="1197.2,812.4 1250.2,777 1232.9,715.8 1169.3,713.3 1169.3,713.3 1116.4,748.6 1133.7,809.8 		"/>
	</g>
	<g>
		<polygon class="st13" points="1365,817.2 1301.4,814.8 1279.5,874.5 1329.5,913.8 1382.4,878.4 		"/>
	</g>
	<g>
		<polygon class="st13" points="1410.3,978.1 1463.3,942.8 1446,881.6 1382.4,879 1382.4,879 1329.6,914.4 1346.8,975.6 		"/>
	</g>
	<g>
		<polygon class="st13" points="762.3,792.5 698.6,790 645.7,825.3 623.6,885.1 640.9,946.3 690.9,985.8 754.5,988.4 807.5,952.9 
			829.5,893.3 812.3,831.9 		"/>
	</g>
	<g>
		<polygon class="st13" points="973.9,958.1 910.2,955.6 857.3,990.9 835.2,1050.7 852.5,1112 902.5,1151.4 966.1,1154 
			1019.2,1118.6 1041.2,1058.9 1024,997.5 		"/>
	</g>
	<g>
		<polygon class="st13" points="640.9,946.4 588.1,981.8 605.2,1043 668.8,1045.5 690.9,985.8 		"/>
	</g>
	<g>
		<polygon class="st13" points="595.5,786.6 542.5,821.9 559.8,883.2 623.4,885.7 645.5,826 		"/>
	</g>
	<g>
		<polygon class="st13" points="542.8,822.4 479.3,820 457.3,879.7 507.3,919 560.1,883.7 		"/>
	</g>
	<g>
		<polygon class="st13" points="1279.3,872.6 1215.7,870 1162.7,905.4 1140.6,965.1 1157.9,1026.4 1207.9,1065.9 1271.6,1068.4 
			1324.5,1033 1346.6,973.3 1329.3,912 		"/>
	</g>
	<g>
		<polygon class="st13" points="1105.1,1062 1158,1026.7 1140.7,965.4 1077.2,962.9 1077.2,963 1024.2,998.2 1041.5,1059.5 		"/>
	</g>
	<g>
		<polygon class="st13" points="1408.7,974.4 1345.1,971.9 1323.2,1031.6 1373.1,1070.9 1426,1035.6 		"/>
	</g>
	<g>
		<polygon class="st13" points="807,952.4 754,987.7 771.3,1049 834.9,1051.5 856.9,991.8 		"/>
	</g>
	<g>
		<polygon class="st13" points="1627.9,950 1575.1,985.4 1592.3,1046.6 1655.9,1049.1 1677.9,989.4 		"/>
	</g>
	<g>
		<polygon class="st13" points="1503.8,728.7 1440.2,726.2 1418.3,786 1468.2,825.3 1521.2,789.9 		"/>
	</g>
	<g>
		<polygon class="st13" points="1577.1,985.8 1513.5,983.4 1491.5,1043.1 1541.5,1082.4 1594.5,1047.1 		"/>
	</g>
	<g>
		<polygon class="st13" points="1669.5,734.3 1606,731.9 1584.1,791.6 1634.1,830.9 1686.9,795.5 		"/>
	</g>
	<g>
		<polygon class="st13" points="1372.4,624.7 1308.8,622.2 1255.8,657.7 1233.7,717.3 1251,778.7 1301,818.1 1364.6,820.6 
			1417.6,785.3 1439.7,725.5 1422.4,664.3 		"/>
	</g>
	<g>
		<polygon class="st13" points="1889.4,704.8 1825.8,702.3 1772.9,737.7 1750.8,797.4 1768.1,858.7 1818,898.1 1881.7,900.6 
			1934.6,865.3 1956.7,805.5 1939.4,744.3 		"/>
	</g>
	<g>
		<polygon class="st13" points="1768.1,858.7 1715.2,894 1732.4,955.3 1795.9,957.8 1818,898.1 		"/>
	</g>
	<g>
		<polygon class="st13" points="1715.3,894.4 1651.6,892 1629.8,951.8 1679.7,991.1 1732.6,955.7 		"/>
	</g>
	<g>
		<polygon class="st13" points="1882.1,897.3 1818.5,894.8 1796.6,954.5 1846.6,993.8 1899.4,958.5 		"/>
	</g>
	<g>
		<polygon class="st13" points="1715.2,894.3 1768.1,859 1750.9,797.8 1687.3,795.3 1687.3,795.3 1634.4,830.6 1651.6,891.8 		"/>
	</g>
	<g>
		<polygon class="st13" points="1935.6,861.4 1882.7,896.8 1899.9,958 1963.5,960.5 1985.6,900.9 		"/>
	</g>
	<g>
		<polygon class="st13" points="2018.8,806.7 1955.2,804.3 1933.3,864 1983.3,903.3 2036.1,867.8 		"/>
	</g>
	<g>
		<polygon class="st13" points="2102.6,868.7 2039,866.1 1986,901.6 1963.9,961.3 1981.2,1022.6 2031.2,1062 2094.9,1064.5 
			2147.8,1029.2 2169.9,969.4 2152.6,908.2 		"/>
	</g>
	<g>
		<polygon class="st13" points="2071.7,775.8 2018.7,811.1 2036,872.3 2099.6,874.9 2121.6,815.2 		"/>
	</g>
	<g>
		<polygon class="st13" points="2018.8,811.5 1955.3,809.1 1933.3,868.9 1983.4,908.2 2036.2,872.7 		"/>
	</g>
	<g>
		<polygon class="st12" points="2185.6,814.3 2122.1,811.9 2100.1,871.6 2150.2,910.9 2203,875.6 		"/>
	</g>
	<g>
		<polygon class="st13" points="1796.1,954.4 1732.4,951.9 1679.5,987.2 1657.4,1047 1674.7,1108.3 1724.7,1147.7 1788.3,1150.2 
			1841.3,1114.9 1863.3,1055.1 1846.1,993.8 		"/>
	</g>
	<g>
		<polygon class="st13" points="1981.3,1020.7 1928.5,1056 1945.6,1117.2 2009.3,1119.8 2031.3,1060.1 		"/>
	</g>
	<g>
		<polygon class="st13" points="1927.5,1057.3 1980.4,1021.9 1963.2,960.7 1899.5,958.2 1899.5,958.2 1846.7,993.5 1863.9,1054.8 		
			"/>
	</g>
	<g>
		<polygon class="st13" points="1583.8,790.6 1520.2,788 1467.2,823.4 1445.1,883.1 1462.4,944.5 1512.4,983.9 1576,986.4 
			1629,951.1 1651.1,891.3 1633.8,830 		"/>
	</g>
	<g>
		<polygon class="st13" points="1462.5,944.5 1409.6,979.8 1426.8,1041 1490.4,1043.6 1512.4,983.9 		"/>
	</g>
	<g>
		<polygon class="st13" points="1409.7,980.2 1346.1,977.8 1324.1,1037.5 1374.1,1076.9 1427,1041.4 		"/>
	</g>
	<g>
		<polygon class="st13" points="1417,784.6 1364.2,820 1381.4,881.2 1445,883.7 1467,824.1 		"/>
	</g>
	<g>
		<polygon class="st13" points="1409.6,980.1 1462.5,944.8 1445.2,883.5 1381.7,881 1381.7,881 1328.8,916.4 1346,977.6 		"/>
	</g>
	<path class="st12" d="M718.7,688.2"/>
</g>
</svg>
