<?xml version="1.0" encoding="utf-8"?>
<!-- Generator: Adobe Illustrator 27.1.0, SVG Export Plug-In . SVG Version: 6.00 Build 0)  -->
<svg version="1.1" id="Layer_1" xmlns="http://www.w3.org/2000/svg" xmlns:xlink="http://www.w3.org/1999/xlink" x="0px" y="0px"
	 viewBox="0 0 2242.4 1720.8" style="enable-background:new 0 0 2242.4 1720.8;" xml:space="preserve">
<style type="text/css">
	.st0{fill:url(#SVGID_1_);}
	.st1{fill:#FFC73B;}
	.st2{fill:#FFB53E;}
	.st3{fill:#FFDB39;}
	.st4{fill:#FFDF5A;}
	.st5{fill:#FFD140;}
	.st6{fill:#FFDE55;}
	.st7{fill:#FFE266;}
	.st8{fill:#FFE98F;}
	.st9{fill:#61A378;}
	.st10{fill:#FFF9E1;}
	.st11{fill:#FFF0B3;}
	.st12{fill:#FFE888;}
	.st13{fill:#FFFFFF;}
</style>
<g id="Layer_2_00000025423606171353215330000001009642675957626504_">
	
		<linearGradient id="SVGID_1_" gradientUnits="userSpaceOnUse" x1="1195.2001" y1="-9284.5518" x2="1195.2001" y2="-7571.6621" gradientTransform="matrix(1 0 0 1 0 9047.3604)">
		<stop  offset="0" style="stop-color:#FFDB39"/>
		<stop  offset="1" style="stop-color:#FFFFFF"/>
	</linearGradient>
	<rect x="-107.4" y="-91.6" class="st0" width="2605.2" height="1375.4"/>
</g>
<g id="Layer_1_00000074431775409284100890000007693447560532242583_">
	<g>
		<polygon class="st1" points="373.4,-372.8 309.7,-375.4 256.8,-340 234.7,-280.3 252,-218.9 302,-179.5 365.6,-177 418.6,-212.3 
			440.7,-272.1 423.4,-333.4 		"/>
	</g>
	<g>
		<polygon class="st2" points="465.8,-623.4 402.2,-625.9 349.2,-590.6 327.2,-530.8 344.4,-469.6 394.5,-430 458,-427.5 
			511.1,-462.9 533.1,-522.6 515.9,-584 		"/>
	</g>
	<g>
		<polygon class="st1" points="164.1,-537.6 100.4,-540.1 47.5,-504.7 25.4,-445 42.7,-383.6 92.6,-344.2 156.3,-341.7 209.2,-377 
			231.3,-436.8 214,-498 		"/>
	</g>
	<g>
		<polygon class="st2" points="252,-218.9 199.2,-183.6 216.3,-122.4 279.9,-119.8 302,-179.5 		"/>
	</g>
	<g>
		<polygon class="st3" points="-2.8,-541.8 -55.8,-506.4 -38.5,-445.2 25.1,-442.7 47.1,-502.4 		"/>
	</g>
	<g>
		<polygon class="st4" points="199.2,-183.2 135.7,-185.6 113.7,-125.9 163.7,-86.6 216.5,-122 		"/>
	</g>
	<g>
		<polygon class="st3" points="206.6,-378.7 153.7,-343.4 170.9,-282.2 234.5,-279.7 256.6,-339.3 		"/>
	</g>
	<g>
		<polygon class="st1" points="40.9,-384.3 -12.1,-349 5.2,-287.8 68.8,-285.2 90.8,-344.9 		"/>
	</g>
	<g>
		<polygon class="st4" points="153.9,-342.9 90.4,-345.3 68.4,-285.5 118.4,-246.2 171.2,-281.7 		"/>
	</g>
	<g>
		<polygon class="st3" points="345.6,-472 292.7,-436.7 309.9,-375.4 373.5,-372.9 395.5,-432.6 		"/>
	</g>
	<g>
		<polygon class="st2" points="292.8,-436.2 229.3,-438.6 207.3,-378.9 257.4,-339.6 310.2,-374.9 		"/>
	</g>
	<g>
		<polygon class="st5" points="199.1,-183.3 252.1,-218.6 234.8,-279.9 171.2,-282.4 171.2,-282.4 118.3,-247 135.6,-185.8 		"/>
	</g>
	<g>
		<polygon class="st2" points="292.6,-435.8 345.6,-471.1 328.3,-532.3 264.7,-534.9 264.7,-534.9 211.8,-499.5 229.1,-438.3 		"/>
	</g>
	<g>
		<polygon class="st2" points="-9.2,-347 43.6,-382.3 26.4,-443.5 -37.1,-446.1 -37.2,-446.1 -90.1,-410.7 -72.9,-349.5 		"/>
	</g>
	<g>
		<polygon class="st2" points="67.8,-287.1 4.1,-289.6 -48.8,-254.3 -70.9,-194.5 -53.6,-133.3 -3.7,-93.8 60,-91.2 113,-126.7 
			135,-186.3 117.8,-247.7 		"/>
	</g>
	<g>
		<polygon class="st2" points="982.7,-546.3 919.1,-548.9 866.1,-513.4 844.1,-453.7 861.4,-392.4 911.3,-353 975,-350.5 
			1027.9,-385.8 1050,-445.6 1032.7,-506.8 		"/>
	</g>
	<g>
		<polygon class="st4" points="861.4,-392.4 808.5,-357.1 825.7,-295.9 889.2,-293.3 911.3,-353 		"/>
	</g>
	<g>
		<polygon class="st1" points="808.6,-356.7 745,-359.1 723.1,-299.4 773,-260 825.9,-295.4 		"/>
	</g>
	<g>
		<polygon class="st1" points="763.3,-516.3 699.7,-518.8 677.7,-459 727.7,-419.7 780.6,-455.2 		"/>
	</g>
	<g>
		<polygon class="st2" points="808.5,-356.8 861.4,-392.1 844.2,-453.3 780.6,-455.9 780.6,-455.9 727.7,-420.5 744.9,-359.3 		"/>
	</g>
	<g>
		<polygon class="st3" points="677.1,-460.6 613.6,-463.1 560.5,-427.8 538.5,-368 555.7,-306.7 605.8,-267.2 669.3,-264.7 
			722.4,-300 744.4,-359.8 727.2,-421.2 		"/>
	</g>
	<g>
		<polygon class="st4" points="555.8,-306.7 502.9,-271.3 520.2,-210.1 583.7,-207.6 605.7,-267.2 		"/>
	</g>
	<g>
		<polygon class="st4" points="503,-270.9 439.4,-273.3 417.4,-213.7 467.5,-174.3 520.3,-209.7 		"/>
	</g>
	<g>
		<polygon class="st2" points="510.4,-466.5 457.5,-431.1 474.7,-369.9 538.3,-367.4 560.3,-427.1 		"/>
	</g>
	<g>
		<polygon class="st6" points="457.6,-430.6 394.1,-433.1 372.1,-373.3 422.2,-334 475,-369.4 		"/>
	</g>
	<g>
		<polygon class="st1" points="595.6,-522.9 532.1,-525.5 510.1,-465.7 560.2,-426.4 613,-461.8 		"/>
	</g>
	<g>
		<polygon class="st3" points="503,-271 555.8,-306.4 538.5,-367.6 475,-370.1 475,-370.1 422.1,-334.8 439.3,-273.5 502.9,-271 		
			"/>
	</g>
	<g>
		<polygon class="st3" points="278.1,-122.4 214.4,-124.9 161.5,-89.5 139.4,-29.8 156.7,31.5 206.7,70.9 270.3,73.4 323.3,38.1 
			345.4,-21.7 328.1,-82.9 		"/>
	</g>
	<g>
		<polygon class="st5" points="156.7,31.5 103.8,66.8 121,128.1 184.6,130.6 206.7,70.9 		"/>
	</g>
	<g>
		<polygon class="st3" points="103.9,67.2 40.3,64.8 18.4,124.5 68.4,163.9 121.2,128.5 		"/>
	</g>
	<g>
		<polygon class="st1" points="111.3,-128.2 58.4,-92.9 75.6,-31.7 139.2,-29.1 161.3,-88.8 		"/>
	</g>
	<g>
		<polygon class="st5" points="58.6,-92.4 -5,-94.8 -26.9,-35.1 23.1,4.2 75.9,-31.3 		"/>
	</g>
	<g>
		<polygon class="st3" points="103.8,67.1 156.7,31.8 139.5,-29.4 76,-32 76,-32 23,3.4 40.3,64.6 		"/>
	</g>
	<g>
		<polygon class="st3" points="-27.5,-36.7 -91.2,-39.2 -144.1,-3.8 -166.2,55.9 -148.9,117.3 -99,156.7 -35.3,159.2 17.6,123.9 
			39.7,64.1 22.4,2.8 		"/>
	</g>
	<g>
		<polygon class="st5" points="887.4,-295.8 823.8,-298.3 770.9,-263 748.8,-203.2 766.1,-142 816,-102.5 879.7,-100 932.6,-135.4 
			954.7,-195.1 937.4,-256.4 		"/>
	</g>
	<g>
		<polygon class="st4" points="766.1,-141.9 713.2,-106.6 730.4,-45.3 793.9,-42.8 816,-102.5 		"/>
	</g>
	<g>
		<polygon class="st3" points="713.3,-106.3 649.6,-108.7 627.8,-48.9 677.7,-9.6 730.6,-45 		"/>
	</g>
	<g>
		<polygon class="st3" points="720.6,-301.7 667.7,-266.4 685,-205.2 748.5,-202.6 770.6,-262.3 		"/>
	</g>
	<g>
		<polygon class="st5" points="668,-265.9 604.4,-268.3 582.4,-208.6 632.4,-169.3 685.3,-204.6 		"/>
	</g>
	<g>
		<polygon class="st4" points="713.2,-106.4 766.1,-141.7 748.9,-202.9 685.3,-205.4 685.3,-205.4 632.4,-170.1 649.7,-108.9 		"/>
	</g>
	<g>
		<polygon class="st3" points="581.8,-210.1 518.2,-212.7 465.2,-177.2 443.1,-117.6 460.4,-56.2 510.4,-16.8 574,-14.3 627,-49.6 
			649.1,-109.4 631.8,-170.6 		"/>
	</g>
	<g>
		<polygon class="st4" points="460.5,-56.2 407.6,-20.9 424.8,40.3 488.4,42.9 510.4,-16.8 		"/>
	</g>
	<g>
		<polygon class="st5" points="407.7,-20.5 344.1,-22.9 322.1,36.9 372.1,76.2 424.9,40.7 		"/>
	</g>
	<g>
		<polygon class="st4" points="415,-216 362.2,-180.6 379.4,-119.4 442.9,-116.9 465,-176.5 		"/>
	</g>
	<g>
		<polygon class="st5" points="362.3,-180.1 298.8,-182.5 276.8,-122.9 326.8,-83.6 379.7,-119 		"/>
	</g>
	<g>
		<polygon class="st3" points="177.2,323.6 113.7,321.2 91.7,380.9 141.7,420.2 194.5,384.9 		"/>
	</g>
	<g>
		<polygon class="st4" points="407.6,-20.6 460.5,-55.9 443.2,-117.2 379.7,-119.7 379.7,-119.7 326.7,-84.4 344,-23.1 		"/>
	</g>
	<g>
		<polygon class="st3" points="490.2,43.3 426.6,40.8 373.6,76.2 351.6,135.9 368.8,197.2 418.9,236.6 482.4,239.2 535.5,203.8 
			557.5,144.1 540.3,82.8 		"/>
	</g>
	<g>
		<polygon class="st7" points="368.9,197.2 316,232.6 333.2,293.8 396.8,296.3 418.8,236.6 		"/>
	</g>
	<g>
		<polygon class="st1" points="230.9,289.6 178,325 195.3,386.2 258.8,388.7 280.8,329 		"/>
	</g>
	<g>
		<polygon class="st5" points="316,233 252.5,230.6 230.5,290.3 280.6,329.6 333.4,294.2 		"/>
	</g>
	<g>
		<polygon class="st1" points="323.5,37.5 270.6,72.8 287.7,134.1 351.4,136.6 373.4,76.9 		"/>
	</g>
	<g>
		<polygon class="st5" points="270.7,73.3 207.2,70.9 185.2,130.6 235.3,169.9 288.1,134.6 		"/>
	</g>
	<g>
		<polygon class="st3" points="316,232.9 368.9,197.5 351.6,136.3 288.1,133.8 288.1,133.8 235.2,169.1 252.4,230.3 315.9,232.9 		
			"/>
	</g>
	<g>
		<polygon class="st7" points="184.7,129.1 121,126.6 68.1,162 46,221.7 63.3,283 113.2,322.4 176.9,324.9 229.8,289.6 251.9,229.8 
			234.6,168.6 		"/>
	</g>
	<g>
		<polygon class="st5" points="63.3,283 10.3,318.3 27.6,379.6 91.2,382.1 113.2,322.4 		"/>
	</g>
	<g>
		<polygon class="st7" points="10.5,318.7 -53.1,316.3 -75,376 -25.1,415.4 27.8,380 		"/>
	</g>
	<g>
		<polygon class="st1" points="17.9,123.3 -35.1,158.5 -17.8,219.8 45.8,222.4 67.8,162.6 		"/>
	</g>
	<g>
		<polygon class="st3" points="10.4,318.6 63.3,283.3 46.1,222.1 -17.5,219.5 -17.5,219.5 -70.4,254.9 -53.1,316.1 		"/>
	</g>
	<g>
		<polygon class="st6" points="1099.6,-130.1 1036,-132.6 983.1,-97.3 961,-37.5 978.3,23.7 1028.2,63.3 1091.9,65.8 1144.8,30.3 
			1166.9,-29.3 1149.6,-90.7 		"/>
	</g>
	<g>
		<polygon class="st3" points="978.3,23.8 925.3,59.2 942.6,120.4 1006.1,122.9 1028.2,63.3 		"/>
	</g>
	<g>
		<polygon class="st3" points="1143.9,30.4 1091.1,65.7 1108.3,127 1171.8,129.5 1193.9,69.8 		"/>
	</g>
	<g>
		<polygon class="st1" points="1049.6,280.9 996.7,316.2 1014,377.4 1077.5,380 1099.5,320.3 		"/>
	</g>
	<g>
		<polygon class="st1" points="925.4,59.6 861.8,57.2 839.9,116.8 889.9,156.1 942.8,120.7 		"/>
	</g>
	<g>
		<polygon class="st4" points="1229.1,-25.4 1165.5,-27.8 1143.6,32 1193.5,71.3 1246.4,35.9 		"/>
	</g>
	<g>
		<polygon class="st7" points="997.7,316.7 934.1,314.3 912.1,373.9 962.2,413.3 1015.1,377.9 		"/>
	</g>
	<g>
		<polygon class="st5" points="1091.2,65.2 1027.6,62.7 1005.7,122.4 1055.6,161.7 1108.5,126.4 		"/>
	</g>
	<g>
		<polygon class="st1" points="481.8,238.6 418.2,236.2 396.3,295.9 446.3,335.2 499.1,299.9 		"/>
	</g>
	<g>
		<polygon class="st1" points="932.8,-136 879.9,-100.7 897.2,-39.4 960.7,-36.9 982.7,-96.6 		"/>
	</g>
	<g>
		<polygon class="st2" points="1165.9,-476.2 1113.1,-440.9 1130.3,-379.7 1193.9,-377.1 1215.9,-436.8 		"/>
	</g>
	<g>
		<polygon class="st1" points="1113.2,-440.6 1049.6,-443 1027.6,-383.2 1077.6,-343.9 1130.4,-379.3 		"/>
	</g>
	<g>
		<polygon class="st1" points="1192,-379.7 1128.4,-382.2 1075.4,-346.9 1053.3,-287.1 1070.6,-225.8 1120.6,-186.4 1184.2,-183.9 
			1237.2,-219.2 1259.3,-279 1242,-340.3 		"/>
	</g>
	<g>
		<polygon class="st3" points="1070.6,-225.8 1017.8,-190.5 1035,-129.2 1098.5,-126.7 1120.6,-186.4 		"/>
	</g>
	<g>
		<polygon class="st4" points="1017.9,-190.1 954.3,-192.5 932.3,-132.8 982.3,-93.5 1035.1,-128.8 		"/>
	</g>
	<g>
		<polygon class="st4" points="1184.6,-185.3 1121,-187.8 1099.1,-128.1 1149,-88.8 1201.9,-124.2 		"/>
	</g>
	<g>
		<polygon class="st3" points="1025.2,-385.6 972.3,-350.3 989.6,-289.1 1053.1,-286.5 1075.2,-346.2 		"/>
	</g>
	<g>
		<polygon class="st1" points="974.5,-351.6 911,-354 889,-294.3 939,-254.9 991.8,-290.4 		"/>
	</g>
	<g>
		<polygon class="st4" points="1017.8,-190.2 1070.7,-225.5 1053.4,-286.7 989.9,-289.2 989.9,-289.2 936.9,-253.9 954.2,-192.7 		
			"/>
	</g>
	<g>
		<polygon class="st3" points="1237.4,-219.9 1184.5,-184.5 1201.8,-123.3 1265.3,-120.8 1287.3,-180.5 		"/>
	</g>
	<g>
		<polygon class="st5" points="1281.9,-58.8 1228.9,-23.5 1246.2,37.8 1309.8,40.3 1331.8,-19.4 		"/>
	</g>
	<g>
		<polygon class="st4" points="880.1,-100.1 816.5,-102.6 794.5,-42.9 844.6,-3.6 897.5,-38.9 		"/>
	</g>
	<g>
		<polygon class="st5" points="925.4,59.4 978.2,24.1 961.1,-37.2 897.4,-39.7 897.4,-39.6 844.6,-4.4 861.7,57 925.4,59.5 		"/>
	</g>
	<g>
		<polygon class="st1" points="1229,-24.5 1281.9,-59.8 1264.6,-121 1201.1,-123.5 1201.1,-123.5 1148.1,-88.2 1165.4,-27 		"/>
	</g>
	<g>
		<polygon class="st4" points="1396.7,-19.6 1333.1,-22 1311.2,37.6 1361.2,77 1414.1,41.6 		"/>
	</g>
	<g>
		<polygon class="st7" points="1442.1,141.3 1495,106 1477.7,44.7 1414.2,42.2 1414.2,42.2 1361.3,77.6 1378.5,138.8 		"/>
	</g>
	<g>
		<polygon class="st3" points="794,-44.4 730.4,-46.9 677.4,-11.5 655.3,48.2 672.6,109.5 722.6,148.9 786.2,151.4 839.2,116.1 
			861.3,56.3 844,-4.9 		"/>
	</g>
	<g>
		<polygon class="st7" points="672.6,109.6 619.8,144.8 637,206.2 700.5,208.7 722.6,148.9 		"/>
	</g>
	<g>
		<polygon class="st3" points="619.9,145.2 556.2,142.8 534.3,202.6 584.3,241.9 637.1,206.5 		"/>
	</g>
	<g>
		<polygon class="st1" points="627.2,-50.2 574.3,-14.9 591.6,46.3 655.1,48.9 677.2,-10.8 		"/>
	</g>
	<g>
		<polygon class="st5" points="574.5,-14.4 511,-16.8 489,42.9 539,82.2 591.8,46.9 		"/>
	</g>
	<g>
		<polygon class="st5" points="619.8,145.1 672.7,109.8 655.4,48.6 591.9,46.1 591.9,46.1 538.9,81.4 556.2,142.6 		"/>
	</g>
	<g>
		<polygon class="st3" points="397,295.9 333.4,293.4 280.4,328.7 258.3,388.5 275.6,449.7 325.6,489.3 389.2,491.8 442.2,456.3 
			464.3,396.7 447,335.3 		"/>
	</g>
	<g>
		<polygon class="st7" points="588.1,354.8 534.4,390.7 551.9,452.9 616.4,455.4 638.8,394.8 		"/>
	</g>
	<g>
		<polygon class="st5" points="534.9,203.3 482,238.5 499.2,299.9 562.8,302.4 584.9,242.6 		"/>
	</g>
	<g>
		<polygon class="st7" points="527.4,398.7 580.4,363.3 563.1,302.1 499.5,299.6 499.5,299.6 446.6,334.9 463.9,396.2 		"/>
	</g>
	<g>
		<polygon class="st3" points="1311,35.6 1247.4,33.1 1194.4,68.5 1172.4,128.2 1189.7,189.5 1239.6,229 1303.3,231.5 1356.2,196.2 
			1378.3,136.4 1361,75.1 		"/>
	</g>
	<g>
		<polygon class="st1" points="1189.7,189.5 1136.8,224.9 1154,286.1 1217.6,288.6 1239.6,229 		"/>
	</g>
	<g>
		<polygon class="st5" points="1136.9,225.3 1073.3,222.9 1051.4,282.6 1101.3,322 1154.2,286.5 		"/>
	</g>
	<g>
		<polygon class="st3" points="1303.7,228.1 1240.2,225.7 1218.2,285.4 1268.2,324.7 1321,289.3 		"/>
	</g>
	<g>
		<polygon class="st7" points="1136.8,225.2 1189.7,189.9 1172.5,128.6 1108.9,126.1 1108.9,126.1 1056,161.4 1073.2,222.7 		"/>
	</g>
	<g>
		<polygon class="st5" points="1357.3,192.3 1304.3,227.6 1321.5,289 1385.2,291.5 1407.2,231.7 		"/>
	</g>
	<g>
		<polygon class="st4" points="1440.4,137.5 1376.9,135.1 1354.9,194.8 1404.9,234.1 1457.7,198.8 		"/>
	</g>
	<g>
		<polygon class="st7" points="1524.2,200.5 1460.6,198 1407.6,233.4 1385.6,293.1 1402.8,354.4 1452.9,393.8 1516.4,396.4 
			1569.5,361 1591.4,301.3 1574.3,240 		"/>
	</g>
	<g>
		<polygon class="st7" points="1217.7,285.2 1153.5,282.7 1100.2,318.4 1078,378.5 1095.4,440.3 1145.8,480.1 1209.9,482.6 
			1263.3,447 1285.4,386.8 1268.1,325 		"/>
	</g>
	<g>
		<polygon class="st3" points="1404.1,351.5 1350.1,387.6 1367.6,450.1 1432.6,452.7 1455,391.7 		"/>
	</g>
	<g>
		<polygon class="st3" points="1350.1,387.3 1286.6,384.8 1264.6,444.5 1314.7,483.9 1367.5,448.5 		"/>
	</g>
	<g>
		<polygon class="st8" points="1349.1,388.1 1402,352.8 1384.8,291.6 1321.2,289 1321.2,289 1268.3,324.4 1285.6,385.6 		"/>
	</g>
	<g>
		<polygon class="st3" points="1046.9,474.4 1099.8,439.1 1082.5,377.9 1019,375.3 1019,375.3 966,410.7 983.3,471.9 		"/>
	</g>
	<g>
		<polygon class="st7" points="1005.5,121.4 941.9,118.9 888.8,154.3 866.8,214 884,275.3 934.1,314.7 997.7,317.2 1050.7,281.9 
			1072.8,222.1 1055.5,160.9 		"/>
	</g>
	<g>
		<polygon class="st3" points="884.1,275.3 831.2,310.6 848.5,371.9 912,374.4 934.1,314.7 		"/>
	</g>
	<g>
		<polygon class="st7" points="831.3,311 767.7,308.6 745.7,368.3 795.8,407.7 848.6,372.3 		"/>
	</g>
	<g>
		<polygon class="st3" points="838.7,115.6 785.8,150.8 803.1,212.1 866.6,214.7 888.6,154.9 		"/>
	</g>
	<g>
		<polygon class="st1" points="785.9,151.4 722.4,148.9 700.4,208.7 750.5,248 803.3,212.6 		"/>
	</g>
	<g>
		<polygon class="st5" points="831.3,310.9 884.1,275.6 866.9,214.4 803.3,211.9 803.3,211.9 750.4,247.2 767.6,308.4 		"/>
	</g>
	<g>
		<polygon class="st2" points="1497.6,-463.6 1433.9,-466.1 1381,-430.7 1358.9,-371 1376.2,-309.7 1426.2,-270.2 1489.8,-267.7 
			1542.7,-303 1564.8,-362.8 1547.5,-424.1 		"/>
	</g>
	<g>
		<polygon class="st5" points="1709.7,-297.8 1646,-300.4 1593.1,-264.9 1571,-205.3 1588.3,-143.9 1638.3,-104.5 1701.9,-102 
			1754.9,-137.3 1776.9,-197.1 1759.7,-258.3 		"/>
	</g>
	<g>
		<polygon class="st3" points="1588.4,-143.9 1535.4,-108.6 1552.7,-47.4 1616.3,-44.8 1638.3,-104.5 		"/>
	</g>
	<g>
		<polygon class="st1" points="1754,-137.3 1701.1,-102 1718.4,-40.8 1781.9,-38.3 1804,-97.9 		"/>
	</g>
	<g>
		<polygon class="st5" points="1659.6,113.2 1606.8,148.5 1624,209.8 1687.6,212.3 1709.6,152.6 		"/>
	</g>
	<g>
		<polygon class="st4" points="1535.5,-108.2 1472,-110.6 1450,-50.8 1500,-11.5 1552.9,-46.9 		"/>
	</g>
	<g>
		<polygon class="st4" points="1839.2,-193 1775.6,-195.4 1753.7,-135.8 1803.7,-96.3 1856.5,-131.8 		"/>
	</g>
	<g>
		<polygon class="st1" points="1608.5,149 1544.1,146.6 1521.8,206.3 1572.5,245.6 1626.2,210.2 		"/>
	</g>
	<g>
		<polygon class="st3" points="1704.3,270.4 1651.4,305.7 1668.6,367 1732.2,369.5 1754.2,309.8 		"/>
	</g>
	<g>
		<polygon class="st1" points="1653.4,306.2 1589.8,303.8 1567.9,363.5 1617.8,402.8 1670.8,367.4 		"/>
	</g>
	<g>
		<polygon class="st6" points="1701.2,-102.5 1637.7,-104.9 1615.8,-45.3 1665.8,-5.9 1718.6,-41.3 		"/>
	</g>
	<g>
		<polygon class="st1" points="1542.9,-303.6 1490,-268.3 1507.2,-207.1 1570.9,-204.6 1592.8,-264.2 		"/>
	</g>
	<g>
		<polygon class="st1" points="1985.4,-480.2 1932.5,-444.9 1949.8,-383.7 2013.3,-381.2 2035.4,-440.8 		"/>
	</g>
	<g>
		<polygon class="st2" points="1932.7,-444.5 1869,-446.9 1847.1,-387.3 1897.1,-347.8 1949.9,-383.3 		"/>
	</g>
	<g>
		<polygon class="st2" points="1802.1,-547.4 1738.5,-549.9 1685.5,-514.6 1663.5,-454.8 1680.7,-393.6 1730.7,-354 1794.4,-351.5 
			1847.3,-386.9 1869.4,-446.6 1852.1,-508 		"/>
	</g>
	<g>
		<polygon class="st2" points="1680.7,-393.5 1627.8,-358.1 1645.1,-296.9 1708.6,-294.4 1730.7,-354 		"/>
	</g>
	<g>
		<polygon class="st6" points="1627.9,-357.7 1564.3,-360.1 1542.4,-300.5 1592.4,-261.1 1645.3,-296.6 		"/>
	</g>
	<g>
		<polygon class="st1" points="1794.6,-353.1 1731.1,-355.5 1709.2,-295.7 1759.2,-256.4 1812,-291.9 		"/>
	</g>
	<g>
		<polygon class="st1" points="1627.9,-357.9 1680.7,-393.2 1663.5,-454.5 1600,-457 1600,-456.9 1547,-421.7 1564.3,-360.3 
			1627.9,-357.8 		"/>
	</g>
	<g>
		<polygon class="st1" points="1375.2,-310.6 1322.4,-275.3 1339.6,-214 1403.1,-211.5 1425.2,-271.2 		"/>
	</g>
	<g>
		<polygon class="st1" points="1322.5,-274.9 1258.9,-277.3 1236.9,-217.6 1286.9,-178.3 1339.7,-213.7 		"/>
	</g>
	<g>
		<polygon class="st3" points="1329.8,-470.4 1276.9,-435.1 1294.2,-373.9 1357.7,-371.3 1379.8,-431 		"/>
	</g>
	<g>
		<polygon class="st2" points="1279.1,-436.4 1215.6,-438.8 1193.6,-379.1 1243.6,-339.8 1296.4,-375.2 		"/>
	</g>
	<g>
		<polygon class="st3" points="1322.4,-275.1 1375.3,-310.3 1358,-371.6 1294.5,-374 1294.5,-374 1241.5,-338.7 1258.8,-277.5 
			1322.4,-275 		"/>
	</g>
	<g>
		<polygon class="st4" points="1847.4,-387.5 1794.6,-352.2 1811.8,-291 1875.4,-288.5 1897.4,-348.1 		"/>
	</g>
	<g>
		<polygon class="st1" points="1892,-226.6 1839,-191.2 1856.2,-130 1919.9,-127.5 1941.9,-187.1 		"/>
	</g>
	<g>
		<polygon class="st3" points="1489.2,-267.8 1425.7,-270.3 1403.8,-210.6 1453.8,-171.3 1506.6,-206.6 		"/>
	</g>
	<g>
		<polygon class="st4" points="1535.4,-108.3 1588.4,-143.6 1571.1,-204.8 1507.5,-207.4 1507.5,-207.4 1454.7,-172 1471.9,-110.8 
					"/>
	</g>
	<g>
		<polygon class="st1" points="1839.1,-192.1 1891.9,-227.5 1874.7,-288.7 1811.2,-291.2 1811.2,-291.2 1758.2,-255.9 
			1775.5,-194.6 		"/>
	</g>
	<g>
		<polygon class="st1" points="2006.8,-187.3 1943.3,-189.8 1921.3,-130 1971.3,-90.7 2024.2,-126.1 		"/>
	</g>
	<g>
		<polygon class="st9" points="2052.2,-26.3 2105.1,-61.7 2087.8,-122.9 2024.3,-125.4 2024.3,-125.4 1971.3,-90.1 1988.6,-28.9 		
			"/>
	</g>
	<g>
		<polygon class="st5" points="1404.1,-212.1 1340.5,-214.6 1287.5,-179.2 1265.5,-119.5 1282.7,-58.2 1332.7,-18.7 1396.4,-16.2 
			1449.3,-51.6 1471.4,-111.3 1454.1,-172.6 		"/>
	</g>
	<g>
		<polygon class="st3" points="1921.2,-132 1857.5,-134.5 1804.6,-99.1 1782.5,-39.4 1799.8,21.9 1849.8,61.3 1913.4,63.8 
			1966.3,28.5 1988.4,-31.3 1971.1,-92.5 		"/>
	</g>
	<g>
		<polygon class="st1" points="1799.8,21.9 1746.9,57.2 1764.1,118.5 1827.7,121 1849.8,61.3 		"/>
	</g>
	<g>
		<polygon class="st3" points="1747,57.6 1683.4,55.2 1661.5,114.9 1711.5,154.3 1764.3,118.9 		"/>
	</g>
	<g>
		<polygon class="st1" points="1871.3,276.1 1818.3,311.5 1835.6,372.7 1899.2,375.2 1921.2,315.5 		"/>
	</g>
	<g>
		<polygon class="st7" points="1818.4,310.9 1754.9,308.4 1733,368.1 1783,407.5 1835.8,372.1 		"/>
	</g>
	<g>
		<polygon class="st4" points="1913.8,60.4 1850.2,58 1828.3,117.7 1878.3,157 1931.1,121.7 		"/>
	</g>
	<g>
		<polygon class="st6" points="1746.9,57.5 1799.9,22.2 1782.6,-39 1719,-41.6 1719,-41.6 1666.1,-6.2 1683.4,55 		"/>
	</g>
	<g>
		<polygon class="st5" points="1967.3,24.6 1914.5,60 1931.6,121.2 1995.2,123.7 2017.3,64 		"/>
	</g>
	<g>
		<polygon class="st4" points="2050.5,-30.1 1986.9,-32.6 1965,27.1 2015,66.5 2067.8,31 		"/>
	</g>
	<g>
		<polygon class="st3" points="2134.3,31.9 2070.7,29.3 2017.7,64.7 1995.7,124.4 2012.9,185.8 2062.9,225.2 2126.6,227.7 
			2179.5,192.4 2201.6,132.6 2184.3,71.3 		"/>
	</g>
	<g>
		<polygon class="st7" points="2038,282.3 1974.5,279.8 1921.4,315.1 1899.5,374.9 1916.7,436.1 1966.7,475.7 2030.3,478.2 
			2083.3,442.8 2105.3,383.1 2088.1,321.8 		"/>
	</g>
	<g>
		<polygon class="st3" points="2013.3,-380.8 1949.6,-383.3 1896.7,-347.9 1874.6,-288.2 1891.9,-226.9 1941.9,-187.4 
			2005.5,-184.9 2058.5,-220.2 2080.6,-280 2063.3,-341.3 		"/>
	</g>
	<g>
		<polygon class="st2" points="2313.8,-459 2250.2,-461.5 2197.1,-426.1 2175.2,-366.4 2192.3,-305.1 2242.4,-265.7 2306.1,-263.2 
			2359,-298.5 2381.1,-358.3 2363.8,-419.5 		"/>
	</g>
	<g>
		<polygon class="st4" points="2057.6,-220.3 2004.7,-185 2021.9,-123.7 2085.6,-121.2 2107.5,-180.9 		"/>
	</g>
	<g>
		<polygon class="st2" points="2142.7,-276 2079.2,-278.4 2057.2,-218.7 2107.2,-179.3 2160,-214.7 		"/>
	</g>
	<g>
		<polygon class="st2" points="2098.3,-436 2034.7,-438.5 2012.7,-378.7 2062.7,-339.4 2115.5,-374.8 		"/>
	</g>
	<g>
		<polygon class="st4" points="2195.5,-309.5 2142.6,-274.2 2159.9,-212.9 2223.4,-210.4 2245.5,-270.1 		"/>
	</g>
	<g>
		<polygon class="st3" points="2150,-468.6 2097.1,-433.3 2114.3,-372.1 2177.9,-369.5 2200,-429.2 		"/>
	</g>
	<g>
		<polygon class="st1" points="2142.6,-275.1 2195.5,-310.4 2178.3,-371.6 2114.7,-374.1 2114.7,-374.1 2061.8,-338.8 
			2079.1,-277.6 		"/>
	</g>
	<g>
		<polygon class="st6" points="2310.4,-270.2 2246.8,-272.7 2224.9,-212.9 2274.9,-173.6 2327.7,-209.1 		"/>
	</g>
	<g>
		<polygon class="st2" points="2224.7,-215 2161.1,-217.5 2108.1,-182.2 2086.1,-122.4 2103.3,-61 2153.4,-21.6 2216.9,-19.1 
			2270,-54.4 2292,-114.2 2274.8,-175.5 		"/>
	</g>
	<g>
		<polygon class="st5" points="2103.4,-61 2050.5,-25.7 2067.7,35.5 2131.3,38 2153.3,-21.6 		"/>
	</g>
	<g>
		<polygon class="st5" points="2125.9,227.1 2062.3,224.7 2040.4,284.4 2090.4,323.7 2143.3,288.3 		"/>
	</g>
	<g>
		<polygon class="st3" points="2168.7,386.1 2105.2,383.7 2083.2,443.4 2133.3,482.7 2186.1,447.3 		"/>
	</g>
	<g>
		<polygon class="st3" points="2332,393.9 2268.4,391.4 2246.4,451.1 2296.5,490.4 2349.3,455.1 		"/>
	</g>
	<g>
		<polygon class="st7" points="2179.5,191.4 2126.5,226.7 2143.8,287.9 2207.4,290.5 2229.4,230.8 		"/>
	</g>
	<g>
		<polygon class="st7" points="2220.2,350.3 2167.2,385.6 2184.5,446.9 2248.1,449.4 2270.1,389.7 		"/>
	</g>
	<g>
		<polygon class="st8" points="2384.6,356.8 2331.6,392.2 2348.9,453.4 2412.5,455.9 2434.4,396.2 		"/>
	</g>
	<g>
		<polygon class="st3" points="2265.9,133.8 2202.2,131.4 2180.4,191.1 2230.3,230.5 2283.2,195.1 		"/>
	</g>
	<g>
		<polygon class="st4" points="2217.4,-22.5 2153.8,-24.9 2131.8,34.8 2181.8,74.1 2234.8,38.6 		"/>
	</g>
	<g>
		<polygon class="st3" points="2050.4,-25.4 2103.4,-60.7 2086.1,-122 2022.5,-124.5 2022.5,-124.5 1969.7,-89.2 1986.9,-27.9 		"/>
	</g>
	<g>
		<polygon class="st3" points="2270.9,-58.3 2218,-23 2235.3,38.3 2298.8,40.8 2320.8,-18.9 		"/>
	</g>
	<g>
		<polygon class="st3" points="2343.6,198.5 2280,196 2227,231.3 2204.9,291.1 2222.2,352.4 2272.2,391.8 2335.8,394.3 2388.8,359 
			2410.9,299.2 2393.6,237.9 		"/>
	</g>
	<g>
		<polygon class="st3" points="1827.8,117.6 1764.2,115.1 1711.2,150.4 1689.1,210.2 1706.4,271.5 1756.4,310.9 1820,313.4 
			1873,278.1 1895.1,218.3 1877.8,157 		"/>
	</g>
	<g>
		<polygon class="st7" points="2013,183.9 1960.2,219.2 1977.4,280.4 2041,283 2063,223.3 		"/>
	</g>
	<g>
		<polygon class="st3" points="1959.9,218.5 1894.8,216.1 1872.3,277.1 1923.5,317.3 1977.6,281.1 		"/>
	</g>
	<g>
		<polygon class="st1" points="1959.2,220.4 2012.1,185 1994.9,123.8 1931.2,121.3 1931.2,121.3 1878.4,156.6 1895.6,217.8 		"/>
	</g>
	<g>
		<polygon class="st7" points="1654.6,306.2 1707.4,270.8 1690.2,209.6 1626.6,207.1 1626.6,207.1 1573.8,242.4 1590.9,303.6 		"/>
	</g>
	<g>
		<polygon class="st1" points="2261.9,137.4 2314.7,102.1 2297.5,40.8 2233.9,38.3 2233.9,38.3 2181,73.6 2198.2,134.9 		"/>
	</g>
	<g>
		<polygon class="st1" points="2169.4,386 2222.4,350.8 2205.1,289.6 2141.5,287 2141.5,287 2088.6,322.4 2105.9,383.6 
			2169.4,386.1 		"/>
	</g>
	<g>
		<polygon class="st5" points="1862.9,472.1 1916.2,436.9 1898.8,375.7 1834.8,373.2 1834.8,373.2 1781.5,408.5 1798.8,469.6 		"/>
	</g>
	<g>
		<polygon class="st3" points="1615.5,-46.3 1551.9,-48.8 1498.9,-13.5 1476.9,46.3 1494.1,107.6 1544.1,147.1 1607.8,149.6 
			1660.7,114.3 1682.8,54.5 1665.5,-6.9 		"/>
	</g>
	<g>
		<polygon class="st5" points="1494.2,107.7 1441.3,143 1458.5,204.2 1522.1,206.7 1544.1,147.1 		"/>
	</g>
	<g>
		<polygon class="st5" points="1448.7,-52.2 1395.9,-16.8 1413.1,44.4 1476.6,46.9 1498.7,-12.8 		"/>
	</g>
	<g>
		<polygon class="st7" points="309.6,540.8 246,538.2 193.1,573.6 171,633.3 188.3,694.6 238.2,734.1 301.9,736.6 354.8,701.2 
			376.9,641.5 359.6,580.2 		"/>
	</g>
	<g>
		<polygon class="st3" points="100.3,376 36.7,373.5 -16.3,408.8 -38.4,468.6 -21.1,529.9 28.9,569.4 92.5,571.9 145.5,536.6 
			167.6,476.8 150.3,415.4 		"/>
	</g>
	<g>
		<polygon class="st7" points="188.3,694.7 135.4,730 152.6,791.2 216.1,793.8 238.2,734.1 		"/>
	</g>
	<g>
		<polygon class="st8" points="135.5,730.4 71.8,728 50,787.7 99.9,827 152.8,791.5 		"/>
	</g>
	<g>
		<polygon class="st8" points="142.8,534.8 89.9,570.2 107.2,631.4 170.7,633.9 192.8,574.3 		"/>
	</g>
	<g>
		<polygon class="st7" points="-22.9,529.3 -75.8,564.6 -58.5,625.8 5,628.4 27,568.7 		"/>
	</g>
	<g>
		<polygon class="st10" points="90.2,570.7 26.6,568.3 4.7,627.9 54.6,667.3 107.5,631.9 		"/>
	</g>
	<g>
		<polygon class="st3" points="281.9,441.6 228.9,476.9 246.2,538.1 309.7,540.7 331.7,481 		"/>
	</g>
	<g>
		<polygon class="st8" points="229.1,477.4 165.5,475 143.6,534.7 193.6,574 246.5,538.6 		"/>
	</g>
	<g>
		<polygon class="st3" points="135.4,730.2 188.3,695 171.1,633.6 107.5,631.2 107.5,631.2 54.6,666.6 71.8,727.8 135.4,730.3 		"/>
	</g>
	<g>
		<polygon class="st7" points="227.9,477.8 280.8,442.4 263.5,381.2 200,378.7 200,378.7 147,414 164.3,475.2 		"/>
	</g>
	<g>
		<polygon class="st11" points="4,626.4 -59.6,623.9 -112.6,659.3 -134.7,719 -117.4,780.3 -67.4,819.7 -3.8,822.3 49.3,786.9 
			71.3,727.2 54.1,665.9 		"/>
	</g>
	<g>
		<polygon class="st3" points="919,367.3 855.3,364.7 802.4,400.1 780.3,459.8 797.6,521.2 847.6,560.6 911.2,563.1 964.2,527.8 
			986.3,468 969,406.7 		"/>
	</g>
	<g>
		<polygon class="st8" points="797.6,521.2 744.8,556.5 761.9,617.7 825.5,620.3 847.6,560.6 		"/>
	</g>
	<g>
		<polygon class="st4" points="744.8,556.9 681.3,554.5 659.3,614.2 709.3,653.5 762.1,618.1 		"/>
	</g>
	<g>
		<polygon class="st5" points="752.2,361.4 699.4,396.7 716.5,457.9 780.1,460.4 802.2,400.8 		"/>
	</g>
	<g>
		<polygon class="st3" points="701.1,397.2 637.6,394.8 615.6,454.5 665.6,493.9 718.4,458.4 		"/>
	</g>
	<g>
		<polygon class="st7" points="744.8,556.8 797.7,521.5 780.4,460.2 716.9,457.7 716.9,457.7 663.9,493.1 681.2,554.3 		"/>
	</g>
	<g>
		<polygon class="st8" points="492.1,606.9 439.1,642.3 456.4,703.5 520,706 541.9,646.3 		"/>
	</g>
	<g>
		<polygon class="st11" points="439.2,642.7 375.7,640.3 353.7,699.9 403.8,739.2 456.6,703.8 		"/>
	</g>
	<g>
		<polygon class="st11" points="446.7,447.1 393.7,482.4 410.9,543.7 474.6,546.2 496.5,486.5 		"/>
	</g>
	<g>
		<polygon class="st8" points="393.9,483 330.3,480.5 308.4,540.2 358.4,579.6 411.3,544.2 		"/>
	</g>
	<g>
		<polygon class="st8" points="536.7,392.4 467.9,389.8 444.1,454.6 498.3,497.1 555.5,458.8 		"/>
	</g>
	<g>
		<polygon class="st4" points="439.2,642.5 492.1,607.2 474.8,546 411.2,543.5 411.2,543.5 358.4,578.8 375.6,640 439.1,642.6 		"/>
	</g>
	<g>
		<polygon class="st10" points="214.3,791.2 150.7,788.7 97.8,824 75.7,883.8 93,945.1 142.9,984.5 206.6,987 259.5,951.7 
			281.6,891.9 264.3,830.6 		"/>
	</g>
	<g>
		<polygon class="st11" points="93,945.1 40,980.4 57.3,1041.7 120.9,1044.2 142.9,984.5 		"/>
	</g>
	<g>
		<polygon class="st12" points="40.2,980.8 -23.5,978.4 -45.3,1038.1 4.6,1077.4 57.5,1042.1 		"/>
	</g>
	<g>
		<polygon class="st7" points="47.6,785.3 -5.4,820.6 11.9,881.8 75.4,884.3 97.5,824.7 		"/>
	</g>
	<g>
		<polygon class="st10" points="-5.1,821.1 -68.8,818.7 -90.6,878.5 -40.7,917.8 12.2,882.3 		"/>
	</g>
	<g>
		<polygon class="st13" points="40.1,980.7 92.9,945.4 75.8,884.2 12.2,881.6 12.2,881.6 -40.7,917 -23.4,978.2 		"/>
	</g>
	<g>
		<polygon class="st11" points="823.7,617.7 760.1,615.2 707.1,650.6 685,710.3 702.3,771.6 752.3,811 815.9,813.5 868.9,778.2 
			891,718.4 873.7,657.2 		"/>
	</g>
	<g>
		<polygon class="st4" points="702.3,771.6 649.5,806.9 666.7,868.2 730.2,870.7 752.3,811 		"/>
	</g>
	<g>
		<polygon class="st11" points="649.5,807.3 585.9,804.9 564,864.6 614,904 666.8,868.6 		"/>
	</g>
	<g>
		<polygon class="st8" points="656.9,611.9 604,647.2 621.2,708.4 684.8,711 706.9,651.3 		"/>
	</g>
	<g>
		<polygon class="st4" points="604.2,647.7 540.6,645.3 518.7,705 568.7,744.3 621.5,708.8 		"/>
	</g>
	<g>
		<polygon class="st7" points="649.5,807.2 702.4,771.9 685.1,710.7 621.6,708.1 621.6,708.1 568.6,743.5 585.9,804.7 		"/>
	</g>
	<g>
		<polygon class="st8" points="518.1,703.4 454.4,700.9 401.5,736.3 379.4,796 396.7,857.4 446.6,896.8 510.3,899.3 563.2,864 
			585.3,804.2 568,742.9 		"/>
	</g>
	<g>
		<polygon class="st11" points="396.8,857.4 343.8,892.7 361,953.9 424.7,956.4 446.6,896.8 		"/>
	</g>
	<g>
		<polygon class="st10" points="343.9,893.1 280.4,890.7 258.4,950.3 308.4,989.7 361.2,954.3 		"/>
	</g>
	<g>
		<polygon class="st7" points="351.3,697.5 298.4,732.9 315.6,794.1 379.2,796.6 401.2,736.9 		"/>
	</g>
	<g>
		<polygon class="st10" points="298.6,733.4 235.1,731 213.1,790.7 263,830 316,794.6 		"/>
	</g>
	<g>
		<polygon class="st13" points="113.5,1237.2 49.9,1234.8 28,1294.5 77.9,1333.8 130.8,1298.4 		"/>
	</g>
	<g>
		<polygon class="st8" points="343.8,893 396.8,857.7 379.5,796.4 315.9,793.9 315.9,793.9 263,829.2 280.3,890.5 		"/>
	</g>
	<g>
		<polygon class="st13" points="426.4,956.9 362.9,954.4 309.9,989.7 287.9,1049.5 305.1,1110.8 355.1,1150.2 418.7,1152.8 
			471.7,1117.4 493.7,1057.7 476.5,996.3 		"/>
	</g>
	<g>
		<polygon class="st13" points="305.2,1110.8 252.2,1146.2 269.5,1207.4 333.1,1209.9 355,1150.2 		"/>
	</g>
	<g>
		<polygon class="st13" points="167.2,1203.2 114.2,1238.6 131.5,1299.8 195.1,1302.3 217.1,1242.6 		"/>
	</g>
	<g>
		<polygon class="st10" points="252.3,1146.6 188.7,1144.1 166.8,1203.8 216.8,1243.2 269.7,1207.8 		"/>
	</g>
	<g>
		<polygon class="st10" points="416.2,1152 352.7,1149.5 330.7,1209.2 380.8,1248.6 433.6,1213.2 		"/>
	</g>
	<g>
		<polygon class="st13" points="259.8,951 206.8,986.3 224,1047.6 287.6,1050.1 309.6,990.4 		"/>
	</g>
	<g>
		<polygon class="st11" points="252.3,1146.5 305.1,1111.1 287.9,1049.9 224.3,1047.4 224.3,1047.4 171.5,1082.7 188.7,1143.9 
			252.2,1146.5 		"/>
	</g>
	<g>
		<polygon class="st13" points="120.9,1042.7 57.3,1040.2 4.3,1075.5 -17.8,1135.3 -0.5,1196.6 49.5,1236 113.1,1238.5 
			166.1,1203.2 188.2,1143.4 170.9,1082.1 		"/>
	</g>
	<g>
		<polygon class="st13" points="-0.5,1196.6 -53.4,1231.9 -36.1,1293.1 27.4,1295.7 49.5,1236 		"/>
	</g>
	<g>
		<polygon class="st13" points="-53.2,1232.3 -116.9,1229.9 -138.8,1289.6 -88.8,1328.9 -36,1293.6 		"/>
	</g>
	<g>
		<polygon class="st11" points="-45.9,1036.8 -98.8,1072.1 -81.5,1133.3 -18,1135.8 4.1,1076.2 		"/>
	</g>
	<g>
		<polygon class="st13" points="-53.3,1232.2 -0.5,1196.9 -17.7,1135.7 -81.2,1133.1 -81.2,1133.1 -134.2,1168.5 -116.9,1229.7 		
			"/>
	</g>
	<g>
		<polygon class="st8" points="1035.9,783.4 972.3,780.9 919.3,816.3 897.2,876 914.5,937.3 964.5,976.7 1028.1,979.3 1081.1,943.9 
			1103.2,884.2 1085.9,822.9 		"/>
	</g>
	<g>
		<polygon class="st10" points="914.5,937.3 861.6,972.7 878.9,1033.9 942.4,1036.4 964.5,976.7 		"/>
	</g>
	<g>
		<polygon class="st8" points="1080.2,943.9 1027.3,979.2 1044.5,1040.5 1108.1,1043 1130.2,983.3 		"/>
	</g>
	<g>
		<polygon class="st13" points="985.9,1194.5 932.9,1229.8 950.2,1291 1013.8,1293.5 1035.8,1233.9 		"/>
	</g>
	<g>
		<polygon class="st8" points="861.6,973.1 798.1,970.6 776.1,1030.4 826.2,1069.7 879,1034.3 		"/>
	</g>
	<g>
		<polygon class="st10" points="1165.3,888.2 1101.8,885.8 1079.8,945.5 1129.8,984.9 1182.6,949.5 		"/>
	</g>
	<g>
		<polygon class="st13" points="934.9,1230.3 871.4,1227.9 849.4,1287.5 899.5,1326.8 952.3,1291.4 		"/>
	</g>
	<g>
		<polygon class="st11" points="1027.5,978.7 963.9,976.3 941.9,1036 991.9,1075.3 1044.7,1039.9 		"/>
	</g>
	<g>
		<polygon class="st10" points="869.1,777.6 816.2,812.9 833.4,874.2 897,876.7 919,817 		"/>
	</g>
	<g>
		<polygon class="st8" points="1102.2,437.3 1049.3,472.6 1066.5,533.8 1130.2,536.4 1152.1,476.7 		"/>
	</g>
	<g>
		<polygon class="st7" points="1049.4,473 985.9,470.6 963.9,530.3 1013.9,569.7 1066.7,534.2 		"/>
	</g>
	<g>
		<polygon class="st7" points="1128.3,533.9 1064.6,531.4 1011.7,566.7 989.6,626.5 1006.9,687.7 1056.8,727.2 1120.5,729.7 
			1173.4,694.3 1195.5,634.6 1178.2,573.3 		"/>
	</g>
	<g>
		<polygon class="st3" points="1006.9,687.8 954,723.1 971.2,784.4 1034.8,786.9 1056.8,727.2 		"/>
	</g>
	<g>
		<polygon class="st8" points="954.1,723.5 890.6,721 868.6,780.8 918.6,820.1 971.4,784.7 		"/>
	</g>
	<g>
		<polygon class="st7" points="1120.9,728.1 1057.3,725.7 1035.3,785.5 1085.3,824.8 1138.1,789.4 		"/>
	</g>
	<g>
		<polygon class="st8" points="961.5,528 908.5,563.3 925.8,624.5 989.4,627.1 1011.4,567.4 		"/>
	</g>
	<g>
		<polygon class="st3" points="910.8,562 847.2,559.6 825.2,619.2 875.2,658.6 928.1,623.2 		"/>
	</g>
	<g>
		<polygon class="st4" points="954,723.3 1007,688 989.7,626.8 926.1,624.2 926.1,624.3 873.2,659.6 890.5,720.9 		"/>
	</g>
	<g>
		<polygon class="st11" points="1173.7,693.7 1120.7,729 1138,790.3 1201.6,792.8 1223.5,733.1 		"/>
	</g>
	<g>
		<polygon class="st4" points="1218.1,854.7 1165.2,890 1182.5,951.3 1246,953.8 1268.1,894.1 		"/>
	</g>
	<g>
		<polygon class="st8" points="816.3,813.4 752.8,811 730.8,870.7 780.9,910 833.7,874.7 		"/>
	</g>
	<g>
		<polygon class="st11" points="861.7,973 914.5,937.6 897.3,876.4 833.7,873.9 833.7,873.9 780.8,909.2 798,970.4 		"/>
	</g>
	<g>
		<polygon class="st8" points="1165.2,889.1 1218.2,853.8 1200.9,792.6 1137.3,790 1137.3,790 1084.4,825.4 1101.7,886.6 		"/>
	</g>
	<g>
		<polygon class="st11" points="1333,894 1269.4,891.5 1247.4,951.2 1297.5,990.6 1350.3,955.1 		"/>
	</g>
	<g>
		<polygon class="st10" points="1378.3,1054.9 1431.3,1019.6 1414,958.3 1350.4,955.8 1350.4,955.8 1297.6,991.2 1314.8,1052.4 		
			"/>
	</g>
	<g>
		<polygon class="st10" points="730.3,869.2 666.6,866.7 613.7,902.1 591.6,961.8 608.9,1023.1 658.8,1062.5 722.5,1065 
			775.4,1029.7 797.5,969.9 780.2,908.7 		"/>
	</g>
	<g>
		<polygon class="st13" points="608.9,1023.1 556,1058.4 573.2,1119.7 636.8,1122.2 658.8,1062.5 		"/>
	</g>
	<g>
		<polygon class="st10" points="556.1,1058.8 492.5,1056.4 470.6,1116.1 520.6,1155.5 573.4,1120.1 		"/>
	</g>
	<g>
		<polygon class="st7" points="563.5,863.4 510.5,898.6 527.8,959.9 591.4,962.5 613.4,902.7 		"/>
	</g>
	<g>
		<polygon class="st10" points="510.8,899.2 447.2,896.7 425.3,956.5 475.2,995.8 528.1,960.3 		"/>
	</g>
	<g>
		<polygon class="st11" points="556,1058.7 609,1023.4 591.7,962.2 528.1,959.6 528.1,959.6 475.2,995 492.5,1056.2 		"/>
	</g>
	<g>
		<polygon class="st13" points="637.9,1122.7 574.3,1120.2 521.4,1155.5 499.3,1215.3 516.6,1276.6 566.5,1316 630.2,1318.6 
			683.1,1283.2 705.2,1223.5 687.9,1162.1 		"/>
	</g>
	<g>
		<polygon class="st13" points="333.3,1209.4 269.6,1206.9 216.7,1242.3 194.6,1302 211.9,1363.3 261.9,1402.7 325.5,1405.3 
			378.4,1369.9 400.5,1310.2 383.2,1248.9 		"/>
	</g>
	<g>
		<polygon class="st13" points="516.6,1276.6 463.7,1312 480.9,1373.2 544.4,1375.7 566.5,1316 		"/>
	</g>
	<g>
		<polygon class="st11" points="471.1,1116.8 418.2,1152.1 435.5,1213.4 499,1215.9 521.1,1156.2 		"/>
	</g>
	<g>
		<polygon class="st13" points="463.7,1312.3 516.6,1276.9 499.4,1215.7 435.8,1213.2 435.8,1213.2 382.9,1248.5 400.1,1309.7 		"/>
	</g>
	<g>
		<polygon class="st13" points="1247.3,949.2 1183.6,946.7 1130.7,982.1 1108.6,1041.8 1125.9,1103.1 1175.9,1142.6 1239.5,1145.1 
			1292.5,1109.7 1314.6,1050 1297.3,988.7 		"/>
	</g>
	<g>
		<polygon class="st13" points="1125.9,1103.1 1073.1,1138.5 1090.2,1199.7 1153.9,1202.2 1175.9,1142.6 		"/>
	</g>
	<g>
		<polygon class="st10" points="1073.1,1138.9 1009.6,1136.5 987.6,1196.1 1037.6,1235.5 1090.4,1200.1 		"/>
	</g>
	<g>
		<polygon class="st13" points="1240,1141.7 1176.4,1139.3 1154.4,1198.9 1204.4,1238.3 1257.3,1202.9 		"/>
	</g>
	<g>
		<polygon class="st13" points="1073.1,1138.8 1126,1103.4 1108.7,1042.2 1045.2,1039.7 1045.2,1039.7 992.2,1075 1009.5,1136.3 		
			"/>
	</g>
	<g>
		<polygon class="st10" points="1293.5,1105.9 1240.6,1141.2 1257.8,1202.4 1321.4,1205 1343.4,1145.3 		"/>
	</g>
	<g>
		<polygon class="st11" points="1376.7,1051 1313.1,1048.6 1291.1,1108.4 1341.1,1147.7 1394,1112.3 		"/>
	</g>
	<g>
		<polygon class="st13" points="1460.5,1113.1 1396.9,1110.6 1343.9,1145.9 1321.9,1205.7 1339.1,1267 1389.2,1306.4 1452.7,1309 
			1505.7,1273.6 1527.7,1213.8 1510.5,1152.5 		"/>
	</g>
	<g>
		<polygon class="st13" points="1153.9,1198.8 1090.3,1196.3 1037.3,1231.6 1015.3,1291.4 1032.5,1352.7 1082.5,1392.1 
			1146.2,1394.7 1199.1,1359.3 1221.2,1299.6 1203.9,1238.2 		"/>
	</g>
	<g>
		<polygon class="st13" points="1339.3,1265.1 1286.3,1300.5 1303.6,1361.7 1367.1,1364.2 1389.1,1304.5 		"/>
	</g>
	<g>
		<polygon class="st13" points="1286.4,1300.9 1222.8,1298.4 1200.9,1358.1 1250.9,1397.4 1303.8,1362.1 		"/>
	</g>
	<g>
		<polygon class="st13" points="1285.4,1301.6 1338.3,1266.3 1321,1205.1 1257.5,1202.5 1257.5,1202.5 1204.5,1237.9 1221.8,1299.1 
					"/>
	</g>
	<g>
		<polygon class="st10" points="941.8,1035 878.1,1032.5 825.1,1067.8 803.1,1127.6 820.3,1188.9 870.3,1228.3 934,1230.8 
			986.9,1195.5 1009,1135.7 991.7,1074.4 		"/>
	</g>
	<g>
		<polygon class="st13" points="820.4,1188.9 767.4,1224.2 784.7,1285.5 848.3,1288 870.3,1228.3 		"/>
	</g>
	<g>
		<polygon class="st13" points="767.5,1224.6 704,1222.2 682,1281.9 732.1,1321.2 784.9,1285.9 		"/>
	</g>
	<g>
		<polygon class="st13" points="775,1029.1 722,1064.4 739.3,1125.6 802.9,1128.2 824.8,1068.5 		"/>
	</g>
	<g>
		<polygon class="st11" points="722.2,1064.9 658.6,1062.5 636.7,1122.3 686.7,1161.6 739.6,1126.2 		"/>
	</g>
	<g>
		<polygon class="st13" points="767.5,1224.5 820.4,1189.2 803.2,1128 739.5,1125.4 739.5,1125.4 686.7,1160.8 703.9,1222 		"/>
	</g>
	<g>
		<polygon class="st3" points="1433.8,450 1369.7,447.5 1316.3,483.1 1294.1,543.3 1311.5,605 1361.9,644.6 1426,647.2 
			1479.4,611.7 1501.6,551.5 1484.2,489.8 		"/>
	</g>
	<g>
		<polygon class="st11" points="1645.9,615.8 1582.3,613.2 1529.3,648.6 1507.2,708.3 1524.5,769.7 1574.5,809.1 1638.2,811.6 
			1691.2,776.3 1713.2,716.5 1696,655.2 		"/>
	</g>
	<g>
		<polygon class="st8" points="1524.6,769.7 1471.7,805 1488.9,866.2 1552.5,868.8 1574.5,809.1 		"/>
	</g>
	<g>
		<polygon class="st4" points="1690.3,776.2 1637.4,811.6 1654.6,872.8 1718.2,875.3 1740.3,815.7 		"/>
	</g>
	<g>
		<polygon class="st13" points="1595.9,1026.8 1543.1,1062.1 1560.2,1123.4 1623.9,1125.9 1645.9,1066.2 		"/>
	</g>
	<g>
		<polygon class="st11" points="1471.8,805.4 1408.2,803 1386.2,862.7 1436.2,902.1 1489.2,866.6 		"/>
	</g>
	<g>
		<polygon class="st11" points="1775.5,720.6 1711.8,718.2 1689.9,777.8 1739.9,817.1 1792.8,781.8 		"/>
	</g>
	<g>
		<polygon class="st11" points="1545,1062.5 1481.5,1060.1 1459.5,1119.9 1509.5,1159.2 1562.4,1123.8 		"/>
	</g>
	<g>
		<polygon class="st10" points="1640.5,1184 1587.7,1219.2 1604.9,1280.6 1668.5,1283.1 1690.5,1223.3 		"/>
	</g>
	<g>
		<polygon class="st13" points="1589.6,1219.7 1526.1,1217.3 1504.1,1277.1 1554.1,1316.4 1607,1280.9 		"/>
	</g>
	<g>
		<polygon class="st7" points="1637.5,811 1573.9,808.6 1552,868.3 1602,907.7 1654.9,872.2 		"/>
	</g>
	<g>
		<polygon class="st8" points="1478.8,609.8 1425.8,645.3 1443.1,706.5 1507,709 1529.1,649.4 		"/>
	</g>
	<g>
		<polygon class="st7" points="1921.7,433.3 1868.7,468.7 1886,529.9 1949.6,532.4 1971.6,472.8 		"/>
	</g>
	<g>
		<polygon class="st3" points="1868.9,469.1 1805.3,466.7 1783.4,526.3 1833.4,565.6 1886.2,530.3 		"/>
	</g>
	<g>
		<polygon class="st7" points="1738.4,366.1 1674.7,363.6 1621.8,399 1599.7,458.7 1617,520 1667,559.5 1730.6,562 1783.6,526.6 
			1805.6,466.9 1788.4,405.6 		"/>
	</g>
	<g>
		<polygon class="st3" points="1617,520 1564.1,555.4 1581.3,616.6 1644.9,619.1 1667,559.5 		"/>
	</g>
	<g>
		<polygon class="st7" points="1564.1,555.8 1500.6,553.4 1478.7,613.1 1528.7,652.4 1581.5,617 		"/>
	</g>
	<g>
		<polygon class="st7" points="1730.9,560.5 1667.3,558.1 1645.4,617.7 1695.4,657.2 1748.3,621.7 		"/>
	</g>
	<g>
		<polygon class="st3" points="1571.6,360.3 1518.6,395.6 1535.9,456.9 1599.5,459.4 1621.6,399.7 		"/>
	</g>
	<g>
		<polygon class="st7" points="1518.1,395.9 1454.1,393.4 1432,453.5 1482.4,493 1535.5,457.5 		"/>
	</g>
	<g>
		<polygon class="st8" points="1564.1,555.7 1617,520.3 1599.8,459.1 1536.2,456.6 1536.2,456.6 1483.3,491.9 1500.6,553.2 		"/>
	</g>
	<g>
		<polygon class="st8" points="1311.8,602.9 1258.6,639.5 1275.8,702.9 1339.8,705.4 1362.1,643.6 		"/>
	</g>
	<g>
		<polygon class="st4" points="1258.7,638.6 1195.2,636.2 1173.2,696 1223.2,735.3 1276,699.9 		"/>
	</g>
	<g>
		<polygon class="st7" points="1266.1,443.2 1213.1,478.5 1230.4,539.7 1294,542.3 1316,482.6 		"/>
	</g>
	<g>
		<polygon class="st3" points="1215.4,477.2 1151.8,474.8 1129.8,534.5 1179.8,573.8 1232.7,538.3 		"/>
	</g>
	<g>
		<polygon class="st8" points="1258.6,638.5 1311.6,603.2 1294.3,542 1230.7,539.5 1230.7,539.5 1177.8,574.8 1195.1,636 		"/>
	</g>
	<g>
		<polygon class="st11" points="1783.7,526 1730.8,561.4 1748,622.6 1811.7,625.1 1833.7,565.5 		"/>
	</g>
	<g>
		<polygon class="st3" points="1828.2,687 1775.3,722.4 1792.5,783.6 1856.1,786.1 1878.1,726.4 		"/>
	</g>
	<g>
		<polygon class="st7" points="1425.5,645.7 1361.9,643.2 1340,703 1390,742.3 1442.9,706.9 		"/>
	</g>
	<g>
		<polygon class="st3" points="1471.7,805.3 1524.6,770 1507.3,708.7 1443.8,706.2 1443.8,706.2 1390.9,741.6 1408.1,802.8 		"/>
	</g>
	<g>
		<polygon class="st8" points="1775.3,721.4 1828.2,686 1811,624.8 1747.4,622.3 1747.4,622.3 1694.5,657.6 1711.8,718.9 		"/>
	</g>
	<g>
		<polygon class="st7" points="1943.1,726.2 1879.5,723.8 1857.5,783.6 1907.5,822.9 1960.5,787.5 		"/>
	</g>
	<g>
		<polygon class="st11" points="1340.4,701.5 1276.7,699 1223.8,734.3 1201.7,794.1 1219,855.4 1269,894.8 1332.6,897.4 1385.6,862 
			1407.6,802.3 1390.4,740.9 		"/>
	</g>
	<g>
		<polygon class="st10" points="1856.4,781.5 1792.8,779 1739.8,814.3 1717.7,874.1 1735,935.4 1785,974.9 1848.7,977.4 1901.6,942 
			1923.7,882.3 1906.4,820.9 		"/>
	</g>
	<g>
		<polygon class="st11" points="1736,935.5 1683.2,970.8 1700.4,1032 1763.9,1034.6 1786,974.9 		"/>
	</g>
	<g>
		<polygon class="st10" points="1683.3,971.2 1619.6,968.8 1597.7,1028.5 1647.7,1067.8 1700.6,1032.5 		"/>
	</g>
	<g>
		<polygon class="st13" points="1807.5,1188.7 1754.6,1224 1771.9,1285.3 1835.4,1287.8 1857.5,1228.1 		"/>
	</g>
	<g>
		<polygon class="st13" points="1754.7,1224.4 1691.1,1222 1669.3,1281.7 1719.2,1321 1772.1,1285.7 		"/>
	</g>
	<g>
		<polygon class="st10" points="1850.1,974 1786.4,971.5 1764.6,1031.3 1814.5,1070.6 1867.4,1035.2 		"/>
	</g>
	<g>
		<polygon class="st8" points="1683.2,971.1 1736.1,935.8 1718.8,874.6 1655.3,872 1655.3,872 1602.3,907.4 1619.6,968.6 		"/>
	</g>
	<g>
		<polygon class="st8" points="1903.5,938.2 1850.7,973.6 1867.9,1034.8 1931.4,1037.3 1953.5,977.6 		"/>
	</g>
	<g>
		<polygon class="st7" points="1986.8,883.4 1923.1,881 1901.2,940.7 1951.2,980 2004.1,944.6 		"/>
	</g>
	<g>
		<polygon class="st10" points="2070.6,945.4 2006.9,942.9 1954,978.3 1931.9,1038 1949.2,1099.4 1999.2,1138.8 2062.8,1141.3 
			2115.8,1106 2137.9,1046.2 2120.6,984.9 		"/>
	</g>
	<g>
		<polygon class="st13" points="1974.3,1195.8 1910.7,1193.3 1857.7,1228.7 1835.7,1288.4 1852.9,1349.7 1903,1389.2 1966.5,1391.7 
			2019.6,1356.3 2041.6,1296.6 2024.4,1235.3 		"/>
	</g>
	<g>
		<polygon class="st7" points="1949.5,532.8 1885.9,530.3 1833,565.6 1810.9,625.4 1828.2,686.7 1878.1,726.1 1941.8,728.7 
			1994.7,693.3 2016.8,633.6 1999.5,572.2 		"/>
	</g>
	<g>
		<polygon class="st7" points="2251.2,449.6 2187.6,447.1 2134.6,482.4 2112.6,542.2 2129.8,603.5 2179.9,642.9 2243.4,645.5 
			2296.5,610.1 2318.5,550.4 2301.3,489 		"/>
	</g>
	<g>
		<polygon class="st11" points="1993.8,693.3 1941,728.6 1958.2,789.9 2021.8,792.4 2043.8,732.7 		"/>
	</g>
	<g>
		<polygon class="st8" points="2079,637.6 2015.4,635.2 1993.5,694.9 2043.4,734.2 2096.3,698.9 		"/>
	</g>
	<g>
		<polygon class="st10" points="2364.3,1053.7 2300.8,1051.2 2278.8,1110.9 2328.8,1150.2 2381.6,1114.9 		"/>
	</g>
	<g>
		<polygon class="st8" points="2034.5,477.5 1970.9,475.1 1949,534.8 1998.9,574.2 2051.8,538.8 		"/>
	</g>
	<g>
		<polygon class="st11" points="2131.8,604.1 2078.8,639.4 2096.1,700.7 2159.7,703.2 2181.7,643.5 		"/>
	</g>
	<g>
		<polygon class="st8" points="2296.8,608.5 2243.9,643.9 2261.2,705.1 2324.7,707.6 2346.8,648 		"/>
	</g>
	<g>
		<polygon class="st7" points="2086.4,441 2033.6,476.3 2050.7,537.5 2114.3,540.1 2136.4,480.4 		"/>
	</g>
	<g>
		<polygon class="st3" points="2079.9,637.5 2132.8,602.1 2115.6,540.9 2052,538.4 2052,538.4 1999.1,573.7 2016.4,635 		"/>
	</g>
	<g>
		<polygon class="st8" points="2246.7,643.3 2183,640.9 2161.2,700.6 2211.1,740 2264,704.5 		"/>
	</g>
	<g>
		<polygon class="st7" points="2292.1,804.2 2344.9,768.9 2327.7,707.6 2264.1,705.1 2264.1,705.2 2211.2,740.5 2228.4,801.8 		"/>
	</g>
	<g>
		<polygon class="st11" points="2160.9,698.6 2097.4,696.1 2044.4,731.4 2022.4,791.2 2039.5,852.5 2089.6,892 2153.2,894.5 
			2206.2,859.2 2228.2,799.4 2211,738 		"/>
	</g>
	<g>
		<polygon class="st8" points="2039.6,847.6 1986.7,883 2004,944.2 2067.5,946.7 2089.5,887.1 		"/>
	</g>
	<g>
		<polygon class="st13" points="2062.2,1140.7 1998.6,1138.2 1976.6,1198 2026.7,1237.3 2079.5,1201.9 		"/>
	</g>
	<g>
		<polygon class="st13" points="2115.7,1105 2062.8,1140.3 2080.1,1201.5 2143.6,1204 2165.7,1144.4 		"/>
	</g>
	<g>
		<polygon class="st13" points="2243.2,1011.7 2190.4,1047.1 2207.5,1108.3 2271.2,1110.8 2293.2,1051.1 		"/>
	</g>
	<g>
		<polygon class="st13" points="2156.4,1263.9 2103.5,1299.2 2120.8,1360.5 2184.3,1363 2206.3,1303.3 		"/>
	</g>
	<g>
		<polygon class="st10" points="2202.2,1047.4 2138.5,1045 2116.6,1104.7 2166.6,1144 2219.4,1108.7 		"/>
	</g>
	<g>
		<polygon class="st11" points="2150.3,890.2 2086.8,887.8 2064.8,947.5 2114.8,986.9 2167.7,951.4 		"/>
	</g>
	<g>
		<polygon class="st4" points="1987.7,886.2 2040.6,850.8 2023.4,789.6 1959.8,787.1 1959.8,787.1 1907,822.4 1924.1,883.7 		"/>
	</g>
	<g>
		<polygon class="st8" points="2207.2,855.3 2154.2,890.6 2171.5,951.9 2235.1,954.4 2257.1,894.7 		"/>
	</g>
	<g>
		<polygon class="st4" points="2290.3,800.4 2226.8,798 2204.8,857.7 2254.8,897.1 2307.7,861.7 		"/>
	</g>
	<g>
		<polygon class="st13" points="2279.9,1112.1 2216.2,1109.5 2163.3,1144.9 2141.2,1204.6 2158.5,1265.9 2208.4,1305.4 
			2272.1,1307.9 2325,1272.5 2347.1,1212.8 2329.8,1151.5 		"/>
	</g>
	<g>
		<polygon class="st13" points="1764.1,1031.2 1700.4,1028.6 1647.5,1064 1625.4,1123.7 1642.7,1185 1692.6,1224.5 1756.3,1227 
			1809.2,1191.6 1831.3,1131.9 1814,1070.6 		"/>
	</g>
	<g>
		<polygon class="st13" points="1949.3,1097.5 1896.4,1132.8 1913.6,1194 1977.3,1196.5 1999.3,1136.9 		"/>
	</g>
	<g>
		<polygon class="st13" points="1896.5,1133.2 1833,1130.8 1811,1190.5 1861,1229.8 1913.8,1194.3 		"/>
	</g>
	<g>
		<polygon class="st11" points="1895.5,1134 1948.3,1098.6 1931.1,1037.4 1867.5,1034.9 1867.5,1034.9 1814.6,1070.2 1831.8,1131.4 
					"/>
	</g>
	<g>
		<polygon class="st13" points="1590.8,1219.8 1643.7,1184.4 1626.5,1123.2 1562.9,1120.7 1562.9,1120.7 1510,1156 1527.2,1217.2 		
			"/>
	</g>
	<g>
		<polygon class="st11" points="2198.1,1051 2251,1015.6 2233.8,954.4 2170.1,951.9 2170.1,951.9 2117.3,987.2 2134.5,1048.5 		"/>
	</g>
	<g>
		<polygon class="st7" points="2552.2,359 2488.7,356.4 2435.6,391.8 2413.6,451.6 2430.8,512.8 2480.9,552.3 2544.4,554.8 
			2597.5,519.4 2619.5,459.7 2602.3,398.4 		"/>
	</g>
	<g>
		<polygon class="st3" points="2682.9,462.7 2619.3,460.3 2597.4,520 2647.4,559.3 2700.3,524 		"/>
	</g>
	<g>
		<polygon class="st3" points="2846.1,470.5 2782.6,468.1 2760.6,527.8 2810.7,567.1 2863.5,531.7 		"/>
	</g>
	<g>
		<polygon class="st5" points="2377.1,548.8 2430.4,513.6 2413,452.3 2349,449.8 2349,449.8 2295.7,485.1 2313,546.2 		"/>
	</g>
	<g>
		<polygon class="st8" points="2160.1,692.4 2096.4,689.9 2043.5,725.2 2021.4,785 2038.7,846.3 2088.7,885.7 2152.3,888.2 
			2205.4,852.9 2227.4,793.1 2210.2,731.8 		"/>
	</g>
	<g>
		<polygon class="st10" points="2204.5,852.9 2151.5,888.2 2168.8,949.4 2232.4,952 2254.4,892.3 		"/>
	</g>
	<g>
		<polygon class="st11" points="2289.6,797.2 2226,794.8 2204.1,854.5 2254.1,893.8 2306.9,858.4 		"/>
	</g>
	<g>
		<polygon class="st7" points="2435.8,510 2382.9,545.3 2400.2,606.5 2463.7,609.1 2485.8,549.4 		"/>
	</g>
	<g>
		<polygon class="st3" points="2383.1,545.7 2319.4,543.3 2297.5,603 2347.5,642.3 2400.4,606.9 		"/>
	</g>
	<g>
		<polygon class="st3" points="2252.6,442.8 2188.9,440.2 2136,475.7 2113.9,535.3 2131.2,596.7 2181.1,636.1 2244.8,638.6 
			2297.7,603.3 2319.8,543.5 2302.5,482.3 		"/>
	</g>
	<g>
		<polygon class="st7" points="2245,637.1 2181.5,634.7 2159.6,694.4 2209.6,733.8 2262.4,698.4 		"/>
	</g>
	<g>
		<polygon class="st3" points="2297.9,602.7 2245,638 2262.2,699.2 2325.8,701.8 2347.8,642.1 		"/>
	</g>
	<g>
		<polygon class="st3" points="2342.4,763.7 2289.5,799 2306.7,860.2 2370.3,862.8 2392.3,803.1 		"/>
	</g>
	<g>
		<polygon class="st8" points="2289.5,798 2342.3,762.7 2325.2,701.4 2261.6,698.9 2261.6,698.9 2208.7,734.3 2226,795.5 		"/>
	</g>
	<g>
		<polygon class="st7" points="2457.2,802.9 2393.7,800.4 2371.7,860.2 2421.7,899.5 2474.6,864.1 		"/>
	</g>
	<g>
		<polygon class="st9" points="2502.6,963.8 2555.5,928.5 2538.3,867.2 2474.7,864.8 2474.7,864.8 2421.8,900.1 2439.1,961.4 
			2502.6,963.9 		"/>
	</g>
	<g>
		<polygon class="st10" points="2371.6,858.2 2307.9,855.7 2255,891 2232.9,950.8 2250.2,1012.1 2300.2,1051.5 2363.8,1054 
			2416.8,1018.7 2438.8,958.9 2421.6,897.6 		"/>
	</g>
	<g>
		<polygon class="st11" points="2250.2,1012.1 2197.4,1047.4 2214.5,1108.7 2278.1,1111.2 2300.2,1051.5 		"/>
	</g>
	<g>
		<polygon class="st8" points="2197.3,1047.7 2250.3,1012.4 2233,951.2 2169.4,948.7 2169.4,948.7 2116.5,984 2133.8,1045.2 		"/>
	</g>
	<g>
		<polygon class="st13" points="2414.9,1018.8 2362,1054.2 2379.2,1115.4 2442.8,1117.9 2464.8,1058.3 		"/>
	</g>
	<g>
		<polygon class="st7" points="2501,960 2437.3,957.6 2415.4,1017.4 2465.4,1056.7 2518.2,1021.2 		"/>
	</g>
	<g>
		<polygon class="st13" points="2584.8,1022.1 2521.1,1019.6 2468.2,1054.9 2446.1,1114.7 2463.4,1176 2513.3,1215.4 2577,1217.9 
			2629.9,1182.6 2652,1122.8 2634.7,1061.5 		"/>
	</g>
	<g>
		<polygon class="st7" points="2463.7,609.5 2400.1,606.9 2347.1,642.3 2325,702 2342.3,763.4 2392.3,802.8 2455.9,805.3 
			2508.9,770 2531,710.2 2513.7,648.9 		"/>
	</g>
	<g>
		<polygon class="st7" points="2765.3,526.2 2701.8,523.7 2648.8,559.1 2626.8,618.8 2644,680.2 2694,719.6 2757.6,722.1 
			2810.6,686.8 2832.7,627 2815.4,565.7 		"/>
	</g>
	<g>
		<polygon class="st3" points="2508,769.9 2455.1,805.3 2472.3,866.5 2536,869 2558,809.3 		"/>
	</g>
	<g>
		<polygon class="st8" points="2593.2,714.3 2529.6,711.8 2507.6,771.5 2557.6,810.8 2610.5,775.5 		"/>
	</g>
	<g>
		<polygon class="st8" points="2548.7,554.2 2485.1,551.8 2463.1,611.4 2513.1,650.8 2566,615.4 		"/>
	</g>
	<g>
		<polygon class="st7" points="2645.9,680.7 2593,716.1 2610.3,777.3 2673.8,779.8 2695.9,720.1 		"/>
	</g>
	<g>
		<polygon class="st8" points="2811,685.2 2758,720.5 2775.3,781.7 2838.9,784.3 2861,724.6 		"/>
	</g>
	<g>
		<polygon class="st7" points="2600.6,517.6 2547.7,552.9 2564.9,614.2 2628.5,616.7 2650.5,557 		"/>
	</g>
	<g>
		<polygon class="st3" points="2594.1,714.1 2647,678.8 2629.7,617.5 2566.2,615 2566.2,615 2513.2,650.4 2530.5,711.6 		"/>
	</g>
	<g>
		<polygon class="st8" points="2760.9,719.9 2697.2,717.5 2675.3,777.3 2725.3,816.6 2778.2,781.2 		"/>
	</g>
	<g>
		<polygon class="st7" points="2806.2,880.8 2859.1,845.5 2841.9,784.3 2778.2,781.8 2778.2,781.9 2725.4,817.1 2742.6,878.4 		"/>
	</g>
	<g>
		<polygon class="st11" points="2675.1,775.3 2611.6,772.7 2558.5,808.1 2536.5,867.8 2553.7,929.2 2603.8,968.6 2667.3,971.1 
			2720.4,935.8 2742.4,876 2725.2,814.7 		"/>
	</g>
	<g>
		<polygon class="st8" points="2553.8,929.2 2500.9,964.5 2518.2,1025.7 2581.7,1028.3 2603.7,968.6 		"/>
	</g>
	<g>
		<polygon class="st13" points="2667.8,967.6 2604.2,965.2 2582.2,1025 2632.2,1064.3 2685.2,1028.9 		"/>
	</g>
	<g>
		<polygon class="st4" points="2500.9,964.8 2553.8,929.5 2536.5,868.2 2473,865.7 2473,865.7 2420.1,901.1 2437.3,962.3 		"/>
	</g>
	<g>
		<polygon class="st8" points="2721.3,931.9 2668.4,967.2 2685.7,1028.5 2749.2,1031 2771.2,971.3 		"/>
	</g>
	<g>
		<polygon class="st4" points="2804.5,877.1 2740.9,874.6 2718.9,934.3 2768.9,973.7 2821.9,938.3 		"/>
	</g>
	<g>
		<polygon class="st11" points="2712.3,1127.6 2765.1,1092.3 2747.9,1031.1 2684.3,1028.5 2684.3,1028.5 2631.4,1063.9 
			2648.6,1125.1 		"/>
	</g>
	<g>
		<polygon class="st10" points="2105.7,1299.6 2158.6,1264.3 2141.3,1203.1 2077.8,1200.5 2077.8,1200.5 2024.9,1235.9 
			2042.1,1297.1 		"/>
	</g>
	<g>
		<polygon class="st10" points="1551.8,867.3 1488.1,864.8 1435.2,900.1 1413.1,959.9 1430.4,1021.1 1480.4,1060.7 1544,1063.2 
			1597,1027.7 1619,968.1 1601.8,906.7 		"/>
	</g>
	<g>
		<polygon class="st13" points="1430.5,1021.2 1377.5,1056.6 1394.7,1117.8 1458.4,1120.3 1480.4,1060.7 		"/>
	</g>
	<g>
		<polygon class="st8" points="1385,861.4 1332.1,896.8 1349.3,958 1412.9,960.5 1435,900.8 		"/>
	</g>
	<g>
		<polygon class="st13" points="3.8,1196.1 -49.1,1231.4 -31.8,1292.6 31.7,1295.1 53.7,1235.5 		"/>
	</g>
	<g>
		<polygon class="st13" points="-49,1231.8 -112.6,1229.4 -134.6,1289 -84.6,1328.4 -31.6,1293 		"/>
	</g>
	<g>
		<polygon class="st13" points="335.5,1206.8 271.8,1204.3 218.9,1239.7 196.8,1299.4 214.1,1360.7 264.1,1400.1 327.7,1402.7 
			380.7,1367.3 402.7,1307.5 385.4,1246.3 		"/>
	</g>
	<g>
		<polygon class="st13" points="214.1,1360.8 161.1,1396 178.4,1457.4 242,1459.9 264.1,1400.1 		"/>
	</g>
	<g>
		<polygon class="st10" points="161.3,1396.5 97.7,1394 75.8,1453.8 125.8,1493.1 178.6,1457.7 		"/>
	</g>
	<g>
		<polygon class="st13" points="168.7,1201 115.7,1236.3 133,1297.6 196.6,1300.1 218.7,1240.4 		"/>
	</g>
	<g>
		<polygon class="st10" points="116,1236.8 52.4,1234.4 30.5,1294.1 80.5,1333.4 133.3,1298.1 		"/>
	</g>
	<g>
		<polygon class="st13" points="161.2,1396.4 214.1,1361 196.9,1299.8 133.3,1297.3 133.3,1297.3 80.4,1332.6 97.7,1393.8 		"/>
	</g>
	<g>
		<polygon class="st13" points="29.8,1292.6 -33.8,1290 -86.8,1325.5 -108.8,1385.1 -91.6,1446.5 -41.6,1485.9 22.1,1488.4 
			75,1453.1 97.1,1393.3 79.8,1332.1 		"/>
	</g>
	<g>
		<polygon class="st13" points="823.4,1187.3 770.6,1222.7 787.8,1283.9 851.3,1286.4 873.4,1226.7 		"/>
	</g>
	<g>
		<polygon class="st10" points="770.7,1223.1 707,1220.6 685.1,1280.3 735.1,1319.6 788,1284.2 		"/>
	</g>
	<g>
		<polygon class="st13" points="639.2,1119.1 575.5,1116.5 522.6,1152 500.5,1211.6 517.8,1273 567.8,1312.4 631.4,1314.9 
			684.5,1279.6 706.5,1219.8 689.3,1158.6 		"/>
	</g>
	<g>
		<polygon class="st10" points="465,1308.7 401.5,1306.3 379.5,1366.1 429.5,1405.4 482.4,1370 		"/>
	</g>
	<g>
		<polygon class="st13" points="464.9,1308.6 517.9,1273.3 500.6,1212.1 437,1209.5 437,1209.5 384.2,1244.9 401.4,1306.1 		"/>
	</g>
	<g>
		<polygon class="st13" points="547.6,1372.6 484,1370.1 431,1405.4 409,1465.2 426.2,1526.4 476.3,1566 539.8,1568.5 592.9,1533.1 
			614.8,1473.4 597.6,1412.1 		"/>
	</g>
	<g>
		<polygon class="st13" points="380.9,1366.7 327.9,1402.1 345.1,1463.3 408.8,1465.8 430.8,1406.1 		"/>
	</g>
	<g>
		<polygon class="st13" points="328.1,1402.6 264.6,1400.1 242.6,1459.8 292.7,1499.1 345.5,1463.8 		"/>
	</g>
	<g>
		<polygon class="st13" points="1157,1199.1 1093.4,1196.6 1040.4,1232 1018.3,1291.7 1035.6,1353.1 1085.6,1392.5 1149.3,1395 
			1202.2,1359.7 1224.3,1299.9 1207,1238.6 		"/>
	</g>
	<g>
		<polygon class="st13" points="1035.6,1353.1 982.7,1388.4 1000,1449.6 1063.5,1452.1 1085.6,1392.5 		"/>
	</g>
	<g>
		<polygon class="st13" points="1201.3,1359.6 1148.5,1395 1165.6,1456.2 1229.2,1458.7 1251.3,1399 		"/>
	</g>
	<g>
		<polygon class="st13" points="982.8,1388.8 919.2,1386.4 897.2,1446.1 947.3,1485.4 1000.2,1450 		"/>
	</g>
	<g>
		<polygon class="st10" points="1286.5,1304 1222.9,1301.4 1200.9,1361.2 1250.9,1400.5 1303.8,1365.1 		"/>
	</g>
	<g>
		<polygon class="st13" points="1148.6,1394.4 1085,1391.9 1063,1451.6 1113,1491 1165.9,1455.6 		"/>
	</g>
	<g>
		<polygon class="st13" points="990.2,1193.2 937.3,1228.6 954.6,1289.8 1018.1,1292.3 1040.1,1232.6 		"/>
	</g>
	<g>
		<polygon class="st13" points="1339.2,1270.4 1286.3,1305.8 1303.6,1367 1367.1,1369.5 1389.2,1309.8 		"/>
	</g>
	<g>
		<polygon class="st11" points="937.5,1229.1 873.9,1226.7 851.9,1286.3 902,1325.7 954.9,1290.3 		"/>
	</g>
	<g>
		<polygon class="st13" points="982.8,1388.7 1035.6,1353.4 1018.4,1292.1 954.8,1289.6 954.8,1289.6 901.9,1324.9 919.1,1386.2 		
			"/>
	</g>
	<g>
		<polygon class="st13" points="1286.3,1304.8 1339.3,1269.4 1322,1208.2 1258.4,1205.7 1258.4,1205.7 1205.5,1241 1222.8,1302.2 		
			"/>
	</g>
	<g>
		<polygon class="st13" points="1454.1,1309.6 1390.5,1307.2 1368.6,1366.9 1418.6,1406.2 1471.5,1370.8 		"/>
	</g>
	<g>
		<polygon class="st13" points="1499.4,1470.5 1552.4,1435.2 1535.1,1374 1471.5,1371.4 1471.5,1371.4 1418.7,1406.8 1435.9,1468 		
			"/>
	</g>
	<g>
		<polygon class="st13" points="851.4,1284.9 787.7,1282.4 734.8,1317.7 712.7,1377.5 730,1438.7 780,1478.2 843.6,1480.8 
			896.6,1445.3 918.6,1385.7 901.4,1324.3 		"/>
	</g>
	<g>
		<polygon class="st13" points="1063,1450.5 999.3,1448 946.4,1483.3 924.3,1543.1 941.6,1604.4 991.6,1643.8 1055.2,1646.4 
			1108.3,1611 1130.3,1551.3 1113.1,1489.9 		"/>
	</g>
	<g>
		<polygon class="st13" points="730,1438.8 677.2,1474.2 694.3,1535.4 757.9,1537.9 780,1478.2 		"/>
	</g>
	<g>
		<polygon class="st13" points="684.6,1279 631.6,1314.3 648.9,1375.6 712.5,1378.1 734.6,1318.4 		"/>
	</g>
	<g>
		<polygon class="st10" points="631.9,1314.8 568.4,1312.4 546.4,1372.1 596.4,1411.4 649.2,1376.1 		"/>
	</g>
	<g>
		<polygon class="st13" points="1368.4,1365 1304.8,1362.4 1251.8,1397.8 1229.7,1457.5 1247,1518.8 1297,1558.3 1360.7,1560.8 
			1413.6,1525.4 1435.7,1465.7 1418.4,1404.4 		"/>
	</g>
	<g>
		<polygon class="st13" points="1194.2,1554.4 1247.1,1519.1 1229.8,1457.8 1166.3,1455.3 1166.3,1455.4 1113.3,1490.6 
			1130.6,1551.9 		"/>
	</g>
	<g>
		<polygon class="st13" points="1497.8,1466.8 1434.2,1464.3 1412.3,1524 1462.2,1563.3 1515.1,1528 		"/>
	</g>
	<g>
		<polygon class="st10" points="896.1,1444.8 843.1,1480.1 860.4,1541.4 924,1543.9 946,1484.2 		"/>
	</g>
	<g>
		<polygon class="st13" points="1717,1442.4 1664.2,1477.8 1681.4,1539 1745,1541.5 1767,1481.8 		"/>
	</g>
	<g>
		<polygon class="st13" points="1592.9,1221.1 1529.3,1218.6 1507.4,1278.4 1557.3,1317.7 1610.3,1282.3 		"/>
	</g>
	<g>
		<polygon class="st10" points="1666.2,1478.2 1602.6,1475.8 1580.6,1535.5 1630.6,1574.8 1683.6,1539.5 		"/>
	</g>
	<g>
		<polygon class="st13" points="1758.6,1226.7 1695.1,1224.3 1673.2,1284 1723.2,1323.3 1776,1287.9 		"/>
	</g>
	<g>
		<polygon class="st13" points="1461.5,1117.1 1397.9,1114.6 1344.9,1150.1 1322.8,1209.7 1340.1,1271.1 1390.1,1310.5 1453.7,1313 
			1506.7,1277.7 1528.8,1217.9 1511.5,1156.7 		"/>
	</g>
	<g>
		<polygon class="st13" points="1978.5,1197.2 1914.9,1194.7 1862,1230.1 1839.9,1289.8 1857.2,1351.1 1907.1,1390.5 1970.8,1393 
			2023.7,1357.7 2045.8,1297.9 2028.5,1236.7 		"/>
	</g>
	<g>
		<polygon class="st13" points="1857.2,1351.1 1804.3,1386.4 1821.5,1447.7 1885,1450.2 1907.1,1390.5 		"/>
	</g>
	<g>
		<polygon class="st13" points="1804.4,1386.8 1740.7,1384.4 1718.9,1444.2 1768.8,1483.5 1821.7,1448.1 		"/>
	</g>
	<g>
		<polygon class="st10" points="1971.2,1389.7 1907.6,1387.2 1885.7,1446.9 1935.7,1486.2 1988.5,1450.9 		"/>
	</g>
	<g>
		<polygon class="st10" points="1804.3,1386.7 1857.2,1351.4 1840,1290.2 1776.4,1287.7 1776.4,1287.7 1723.5,1323 1740.7,1384.2 		
			"/>
	</g>
	<g>
		<polygon class="st13" points="2024.7,1353.8 1971.8,1389.2 1989,1450.4 2052.6,1452.9 2074.7,1393.3 		"/>
	</g>
	<g>
		<polygon class="st13" points="2107.9,1299.1 2044.3,1296.7 2022.4,1356.4 2072.4,1395.7 2125.2,1360.2 		"/>
	</g>
	<g>
		<polygon class="st13" points="2191.7,1361.1 2128.1,1358.5 2075.1,1394 2053,1453.7 2070.3,1515 2120.3,1554.4 2184,1556.9 
			2236.9,1521.6 2259,1461.8 2241.7,1400.6 		"/>
	</g>
	<g>
		<polygon class="st13" points="2160.8,1268.2 2107.8,1303.5 2125.1,1364.7 2188.7,1367.3 2210.7,1307.6 		"/>
	</g>
	<g>
		<polygon class="st13" points="2107.9,1303.9 2044.4,1301.5 2022.4,1361.3 2072.5,1400.6 2125.3,1365.1 		"/>
	</g>
	<g>
		<polygon class="st10" points="2274.7,1306.7 2211.2,1304.3 2189.2,1364 2239.3,1403.3 2292.1,1368 		"/>
	</g>
	<g>
		<polygon class="st13" points="1885.2,1446.8 1821.5,1444.3 1768.6,1479.6 1746.5,1539.4 1763.8,1600.7 1813.8,1640.1 
			1877.4,1642.6 1930.4,1607.3 1952.4,1547.5 1935.2,1486.2 		"/>
	</g>
	<g>
		<polygon class="st13" points="2070.4,1513.1 2017.6,1548.4 2034.7,1609.6 2098.4,1612.2 2120.4,1552.5 		"/>
	</g>
	<g>
		<polygon class="st13" points="2016.6,1549.7 2069.5,1514.3 2052.3,1453.1 1988.6,1450.6 1988.6,1450.6 1935.8,1485.9 1953,1547.2 
					"/>
	</g>
	<g>
		<polygon class="st13" points="1672.9,1283 1609.3,1280.4 1556.3,1315.8 1534.2,1375.5 1551.5,1436.9 1601.5,1476.3 1665.1,1478.8 
			1718.1,1443.5 1740.2,1383.7 1722.9,1322.4 		"/>
	</g>
	<g>
		<polygon class="st13" points="1551.6,1436.9 1498.7,1472.2 1515.9,1533.4 1579.5,1536 1601.5,1476.3 		"/>
	</g>
	<g>
		<polygon class="st13" points="1498.8,1472.6 1435.2,1470.2 1413.2,1529.9 1463.2,1569.3 1516.1,1533.8 		"/>
	</g>
	<g>
		<polygon class="st13" points="1506.1,1277 1453.3,1312.4 1470.5,1373.6 1534.1,1376.1 1556.1,1316.5 		"/>
	</g>
	<g>
		<polygon class="st13" points="1498.7,1472.5 1551.6,1437.2 1534.3,1375.9 1470.8,1373.4 1470.8,1373.4 1417.9,1408.8 1435.1,1470 
					"/>
	</g>
	<path class="st10" d="M807.8,1180.6"/>
	<g>
		<polygon class="st3" points="613.4,453 549.8,450.5 496.8,485.8 474.8,545.6 492,606.8 542,646.3 605.6,648.9 658.6,613.4 
			680.6,553.8 663.4,492.4 		"/>
	</g>
	<g>
		<polygon class="st8" points="701.7,209.1 638,206.6 585.1,242 563,301.7 580.3,363 630.3,402.5 693.9,405 746.9,369.6 769,309.9 
			751.7,248.6 		"/>
	</g>
</g>
</svg>
