<svg width="2243" height="1721" viewBox="0 0 2243 1721" fill="none" xmlns="http://www.w3.org/2000/svg">
<g clip-path="url(#clip0_299_1504)">
<path d="M2497.8 -91.6H-107.4V1283.8H2497.8V-91.6Z" fill="url(#paint0_linear_299_1504)"/>
<path d="M278.1 -122.4L214.4 -124.9L161.5 -89.5L139.4 -29.8L156.7 31.5L206.7 70.9L270.3 73.4L323.3 38.1L345.4 -21.7L328.1 -82.9L278.1 -122.4Z" fill="#190E2C"/>
<path d="M156.7 31.5L103.8 66.8L121 128.1L184.6 130.6L206.7 70.9L156.7 31.5Z" fill="#2D1A4B"/>
<path d="M103.5 67.4L39.8998 65L17.9998 124.7L67.9998 164.1L120.8 128.7L103.5 67.4Z" fill="#271643"/>
<path d="M58.5999 -92.4L-5.00015 -94.8L-26.9001 -35.1L23.0999 4.19995L75.8999 -31.3L58.5999 -92.4Z" fill="black"/>
<path d="M103.8 67.1L156.7 31.8L139.5 -29.4L75.9998 -32L22.9998 3.4L40.2998 64.6L103.8 67.1Z" fill="#190E2C"/>
<path d="M-27.5002 -36.7L-91.2002 -39.2L-144.1 -3.79995L-166.2 55.9001L-148.9 117.3L-99.0002 156.7L-35.3002 159.2L17.5998 123.9L39.6998 64.1001L22.3998 2.80005L-27.5002 -36.7Z" fill="#190E2C"/>
<path d="M460.5 -56.2L407.6 -20.8999L424.8 40.3L488.4 42.9001L510.4 -16.7999L460.5 -56.2Z" fill="#2D1A4B"/>
<path d="M407.7 -20.5L344.1 -22.9L322.1 36.9L372.1 76.2L424.9 40.7L407.7 -20.5Z" fill="#2D1A4B"/>
<path d="M177.2 323.6L113.7 321.2L91.6997 380.9L141.7 420.2L194.5 384.9L177.2 323.6Z" fill="#190E2C"/>
<path d="M490.2 43.3L426.6 40.8L373.6 76.2L351.6 135.9L368.8 197.2L418.9 236.6L482.4 239.2L535.5 203.8L557.5 144.1L540.3 82.8001L490.2 43.3Z" fill="#190E2C"/>
<path d="M368.9 197.2L316 232.6L333.2 293.8L396.8 296.3L418.8 236.6L368.9 197.2Z" fill="#0F081C"/>
<path d="M230.9 289.6L178 325L195.3 386.2L258.8 388.7L280.8 329L230.9 289.6Z" fill="#362159"/>
<path d="M316 233L252.5 230.6L230.5 290.3L280.6 329.6L333.4 294.2L316 233Z" fill="#2D1A4B"/>
<path d="M323.5 37.5L270.6 72.8L287.7 134.1L351.4 136.6L373.4 76.9L323.5 37.5Z" fill="#362159"/>
<path d="M270.7 73.3L207.2 70.9L185.2 130.6L235.3 169.9L288.1 134.6L270.7 73.3Z" fill="#2D1A4B"/>
<path d="M316 232.9L368.9 197.5L351.6 136.3L288.1 133.8L235.2 169.1L252.4 230.3L315.9 232.9H316Z" fill="#190E2C"/>
<path d="M184.7 129.1L121 126.6L68.0998 162L45.9998 221.7L63.2998 283L113.2 322.4L176.9 324.9L229.8 289.6L251.9 229.8L234.6 168.6L184.7 129.1Z" fill="#0F081C"/>
<path d="M63.9998 283L10.9998 318.3L28.2998 379.6L91.8997 382.1L113.9 322.4L63.9998 283Z" fill="#271643"/>
<path d="M10.4998 318.7L-53.1002 316.3L-75.0002 376L-25.1002 415.4L27.7998 380L10.4998 318.7Z" fill="#0F081C"/>
<path d="M17.8999 123.3L-35.1001 158.5L-17.8001 219.8L45.7999 222.4L67.7999 162.6L17.8999 123.3Z" fill="#362159"/>
<path d="M10.3999 318.6L63.2999 283.3L46.0999 222.1L-17.5001 219.5L-70.4001 254.9L-53.1001 316.1L10.3999 318.6Z" fill="#190E2C"/>
<path d="M1099.6 -130.1L1036 -132.6L983.1 -97.3L961 -37.5L978.3 23.7L1028.2 63.3L1091.9 65.8L1144.8 30.3L1166.9 -29.3L1149.6 -90.7L1099.6 -130.1Z" fill="#190E2C"/>
<path d="M978.3 23.8L925.3 59.2001L942.6 120.4L1006.1 122.9L1028.2 63.3L978.3 23.8Z" fill="#190E2C"/>
<path d="M1143.9 30.4L1091.1 65.7L1108.3 127L1171.8 129.5L1193.9 69.8L1143.9 30.4Z" fill="#190E2C"/>
<path d="M1049.6 280.9L996.7 316.2L1014 377.4L1077.5 380L1099.5 320.3L1049.6 280.9Z" fill="#362159"/>
<path d="M925.4 59.5999L861.8 57.2L839.9 116.8L889.9 156.1L942.8 120.7L925.4 59.5999Z" fill="#362159"/>
<path d="M1229.1 -25.4L1165.5 -27.8L1143.6 32L1193.5 71.3L1246.4 35.9L1229.1 -25.4Z" fill="#2D1A4B"/>
<path d="M997.7 316.7L934.1 314.3L912.1 373.9L962.2 413.3L1015.1 377.9L997.7 316.7Z" fill="#0F081C"/>
<path d="M1091.2 65.1999L1027.6 62.7L1005.7 122.4L1055.6 161.7L1108.5 126.4L1091.2 65.1999Z" fill="#2D1A4B"/>
<path d="M481.8 238.6L418.2 236.2L396.3 295.9L446.3 335.2L499.1 299.9L481.8 238.6Z" fill="#362159"/>
<path d="M1281.9 -58.8L1228.9 -23.5L1246.2 37.7999L1309.8 40.2999L1331.8 -19.4L1281.9 -58.8Z" fill="#2D1A4B"/>
<path d="M925.4 59.4001L978.2 24.1001L961.1 -37.2L897.4 -39.7V-39.5999L844.6 -4.39995L861.7 57L925.4 59.5V59.4001Z" fill="#2D1A4B"/>
<path d="M1396.7 -19.6L1333.1 -22L1311.2 37.6L1361.2 77L1414.1 41.6L1396.7 -19.6Z" fill="#2D1A4B"/>
<path d="M1442.1 141.3L1495 106L1477.7 44.7L1414.2 42.2L1361.3 77.5999L1378.5 138.8L1442.1 141.3Z" fill="#0F081C"/>
<path d="M794 -44.4L730.4 -46.9L677.4 -11.5L655.3 48.2L672.6 109.5L722.6 148.9L786.2 151.4L839.2 116.1L861.3 56.3L844 -4.90002L794 -44.4Z" fill="#190E2C"/>
<path d="M672.6 109.6L619.8 144.8L637 206.2L700.5 208.7L722.6 148.9L672.6 109.6Z" fill="#0F081C"/>
<path d="M619.9 145.2L556.2 142.8L534.3 202.6L584.3 241.9L637.1 206.5L619.9 145.2Z" fill="#190E2C"/>
<path d="M627.2 -50.2L574.3 -14.8999L591.6 46.3L655.1 48.9001L677.2 -10.7999L627.2 -50.2Z" fill="#362159"/>
<path d="M574.5 -14.4L511 -16.8L489 42.9L539 82.2L591.8 46.9L574.5 -14.4Z" fill="#2D1A4B"/>
<path d="M619.8 145.1L672.7 109.8L655.4 48.6L591.9 46.1L538.9 81.4L556.2 142.6L619.8 145.1Z" fill="#2D1A4B"/>
<path d="M397 295.9L333.4 293.4L280.4 328.7L258.3 388.5L275.6 449.7L325.6 489.3L389.2 491.8L442.2 456.3L464.3 396.7L447 335.3L397 295.9Z" fill="#190E2C"/>
<path d="M588.1 354.8L534.4 390.7L551.9 452.9L616.4 455.4L638.8 394.8L588.1 354.8Z" fill="#0F081C"/>
<path d="M534.9 203.3L482 238.5L499.2 299.9L562.8 302.4L584.9 242.6L534.9 203.3Z" fill="#2D1A4B"/>
<path d="M527.4 398.7L580.4 363.3L563.1 302.1L499.5 299.6L446.6 334.9L463.9 396.2L527.4 398.7Z" fill="#0F081C"/>
<path d="M1311 35.6L1247.4 33.1L1194.4 68.5L1172.4 128.2L1189.7 189.5L1239.6 229L1303.3 231.5L1356.2 196.2L1378.3 136.4L1361 75.1L1311 35.6Z" fill="#190E2C"/>
<path d="M1189.7 189.5L1136.8 224.9L1154 286.1L1217.6 288.6L1239.6 229L1189.7 189.5Z" fill="#362159"/>
<path d="M1136.9 225.3L1073.3 222.9L1051.4 282.6L1101.3 322L1154.2 286.5L1136.9 225.3Z" fill="#2D1A4B"/>
<path d="M1303.7 228.1L1240.2 225.7L1218.2 285.4L1268.2 324.7L1321 289.3L1303.7 228.1Z" fill="#190E2C"/>
<path d="M1136.8 225.2L1189.7 189.9L1172.5 128.6L1108.9 126.1L1056 161.4L1073.2 222.7L1136.8 225.2Z" fill="#0F081C"/>
<path d="M1357.3 192.3L1304.3 227.6L1321.5 289L1385.2 291.5L1407.2 231.7L1357.3 192.3Z" fill="#2D1A4B"/>
<path d="M1440.4 137.5L1376.9 135.1L1354.9 194.8L1404.9 234.1L1457.7 198.8L1440.4 137.5Z" fill="#2D1A4B"/>
<path d="M1524.2 200.5L1460.6 198L1407.6 233.4L1385.6 293.1L1402.8 354.4L1452.9 393.8L1516.4 396.4L1569.5 361L1591.4 301.3L1574.3 240L1524.2 200.5Z" fill="#0F081C"/>
<path d="M1217.7 285.2L1153.5 282.7L1100.2 318.4L1078 378.5L1095.4 440.3L1145.8 480.1L1209.9 482.6L1263.3 447L1285.4 386.8L1268.1 325L1217.7 285.2Z" fill="#0F081C"/>
<path d="M1404.1 351.5L1350.1 387.6L1367.6 450.1L1432.6 452.7L1455 391.7L1404.1 351.5Z" fill="#190E2C"/>
<path d="M1350.1 387.3L1286.6 384.8L1264.6 444.5L1314.7 483.9L1367.5 448.5L1350.1 387.3Z" fill="#190E2C"/>
<path d="M1349.1 388.1L1402 352.8L1384.8 291.6L1321.2 289L1268.3 324.4L1285.6 385.6L1349.1 388.1Z" fill="#2D1A4B"/>
<path d="M1046.9 474.4L1099.8 439.1L1082.5 377.9L1019 375.3L966 410.7L983.3 471.9L1046.9 474.4Z" fill="#190E2C"/>
<path d="M1005.5 121.4L941.9 118.9L888.8 154.3L866.8 214L884 275.3L934.1 314.7L997.7 317.2L1050.7 281.9L1072.8 222.1L1055.5 160.9L1005.5 121.4Z" fill="#0F081C"/>
<path d="M884.1 275.3L831.2 310.6L848.5 371.9L912 374.4L934.1 314.7L884.1 275.3Z" fill="#190E2C"/>
<path d="M831.3 311L767.7 308.6L745.7 368.3L795.8 407.7L848.6 372.3L831.3 311Z" fill="#0F081C"/>
<path d="M838.7 115.6L785.8 150.8L803.1 212.1L866.6 214.7L888.6 154.9L838.7 115.6Z" fill="#190E2C"/>
<path d="M785.9 151.4L722.4 148.9L700.4 208.7L750.5 248L803.3 212.6L785.9 151.4Z" fill="#362159"/>
<path d="M831.3 310.9L884.1 275.6L866.9 214.4L803.3 211.9L750.4 247.2L767.6 308.4L831.3 310.9Z" fill="#2D1A4B"/>
<path d="M1659.6 113.2L1606.8 148.5L1624 209.8L1687.6 212.3L1709.6 152.6L1659.6 113.2Z" fill="#271643"/>
<path d="M1608.5 149L1544.1 146.6L1521.8 206.3L1572.5 245.6L1626.2 210.2L1608.5 149Z" fill="#362159"/>
<path d="M1704.3 270.4L1651.4 305.7L1668.6 367L1732.2 369.5L1754.2 309.8L1704.3 270.4Z" fill="#190E2C"/>
<path d="M1653.4 306.2L1589.8 303.8L1567.9 363.5L1617.8 402.8L1670.8 367.4L1653.4 306.2Z" fill="#362159"/>
<path d="M1921.2 -132L1857.5 -134.5L1804.6 -99.1L1782.5 -39.4L1799.8 21.9L1849.8 61.3L1913.4 63.8L1966.3 28.5L1988.4 -31.3L1971.1 -92.5L1921.2 -132Z" fill="#190E2C"/>
<path d="M1799.8 21.9L1746.9 57.2L1764.1 118.5L1827.7 121L1849.8 61.3L1799.8 21.9Z" fill="#362159"/>
<path d="M1747 57.5999L1683.4 55.2L1661.5 114.9L1711.5 154.3L1764.3 118.9L1747 57.5999Z" fill="#190E2C"/>
<path d="M1871.3 276.1L1818.3 311.5L1835.6 372.7L1899.2 375.2L1921.2 315.5L1871.3 276.1Z" fill="#362159"/>
<path d="M1818.4 310.9L1754.9 308.4L1733 368.1L1783 407.5L1835.8 372.1L1818.4 310.9Z" fill="#0F081C"/>
<path d="M1913.8 60.4L1850.2 58L1828.3 117.7L1878.3 157L1931.1 121.7L1913.8 60.4Z" fill="#2D1A4B"/>
<path d="M1746.9 57.5L1799.9 22.2L1782.6 -39L1719 -41.6L1666.1 -6.19998L1683.4 55L1746.9 57.5Z" fill="#2D1A4B"/>
<path d="M1967.3 24.6L1914.5 60L1931.6 121.2L1995.2 123.7L2017.3 64L1967.3 24.6Z" fill="#2D1A4B"/>
<path d="M2050.5 -30.1L1986.9 -32.6L1965 27.1L2015 66.5L2067.8 31L2050.5 -30.1Z" fill="#2D1A4B"/>
<path d="M2134.3 31.9L2070.7 29.3L2017.7 64.7L1995.7 124.4L2012.9 185.8L2062.9 225.2L2126.6 227.7L2179.5 192.4L2201.6 132.6L2184.3 71.3001L2134.3 31.9Z" fill="#190E2C"/>
<path d="M2038 282.3L1974.5 279.8L1921.4 315.1L1899.5 374.9L1916.7 436.1L1966.7 475.7L2030.3 478.2L2083.3 442.8L2105.3 383.1L2088.1 321.8L2038 282.3Z" fill="#0F081C"/>
<path d="M2103.4 -61L2050.5 -25.7L2067.7 35.5L2131.3 38L2153.3 -21.6L2103.4 -61Z" fill="#2D1A4B"/>
<path d="M2125.9 227.1L2062.3 224.7L2040.4 284.4L2090.4 323.7L2143.3 288.3L2125.9 227.1Z" fill="#2D1A4B"/>
<path d="M2168.7 386.1L2105.2 383.7L2083.2 443.4L2133.3 482.7L2186.1 447.3L2168.7 386.1Z" fill="#190E2C"/>
<path d="M2179.5 191.4L2126.5 226.7L2143.8 287.9L2207.4 290.5L2229.4 230.8L2179.5 191.4Z" fill="#0F081C"/>
<path d="M2220.2 350.3L2167.2 385.6L2184.5 446.9L2248.1 449.4L2270.1 389.7L2220.2 350.3Z" fill="#0F081C"/>
<path d="M2265.9 133.8L2202.2 131.4L2180.4 191.1L2230.3 230.5L2283.2 195.1L2265.9 133.8Z" fill="#190E2C"/>
<path d="M2217.4 -22.5L2153.8 -24.9L2131.8 34.8L2181.8 74.1L2234.8 38.6L2217.4 -22.5Z" fill="#2D1A4B"/>
<path d="M2270.9 -58.3L2218 -23L2235.3 38.2999L2298.8 40.7999L2320.8 -18.9L2270.9 -58.3Z" fill="#190E2C"/>
<path d="M2343.6 198.5L2280 196L2227 231.3L2204.9 291.1L2222.2 352.4L2272.2 391.8L2335.8 394.3L2388.8 359L2410.9 299.2L2393.6 237.9L2343.6 198.5Z" fill="#190E2C"/>
<path d="M1826.7 117.5L1763.1 115L1710.1 150.3L1688 210.1L1705.3 271.4L1755.3 310.8L1818.9 313.3L1871.9 278L1894 218.2L1876.7 156.9L1826.7 117.5Z" fill="#190E2C"/>
<path d="M2013 183.9L1960.2 219.2L1977.4 280.4L2041 283L2063 223.3L2013 183.9Z" fill="#0F081C"/>
<path d="M1959.9 218.5L1894.8 216.1L1872.3 277.1L1923.5 317.3L1977.6 281.1L1959.9 218.5Z" fill="#190E2C"/>
<path d="M1959.2 220.4L2012.1 185L1994.9 123.8L1931.2 121.3L1878.4 156.6L1895.6 217.8L1959.2 220.4Z" fill="#362159"/>
<path d="M1654.6 306.2L1707.4 270.8L1690.2 209.6L1626.6 207.1L1573.8 242.4L1590.9 303.6L1654.6 306.2Z" fill="#0F081C"/>
<path d="M2261.9 137.4L2314.7 102.1L2297.5 40.8L2233.9 38.3L2181 73.6L2198.2 134.9L2261.9 137.4Z" fill="#362159"/>
<path d="M2169.4 386L2222.4 350.8L2205.1 289.6L2141.5 287L2088.6 322.4L2105.9 383.6L2169.4 386.1V386Z" fill="#362159"/>
<path d="M1862.9 472.1L1916.2 436.9L1898.8 375.7L1834.8 373.2L1781.5 408.5L1798.8 469.6L1862.9 472.1Z" fill="#2D1A4B"/>
<path d="M1615.5 -46.3L1551.9 -48.8L1498.9 -13.5L1476.9 46.2999L1494.1 107.6L1544.1 147.1L1607.8 149.6L1660.7 114.3L1682.8 54.5L1665.5 -6.90005L1615.5 -46.3Z" fill="#190E2C"/>
<path d="M1494.2 107.7L1441.3 143L1458.5 204.2L1522.1 206.7L1544.1 147.1L1494.2 107.7Z" fill="#2D1A4B"/>
<path d="M1448.7 -52.2L1395.9 -16.7999L1413.1 44.4001L1476.6 46.9001L1498.7 -12.7999L1448.7 -52.2Z" fill="#2D1A4B"/>
<path d="M309.6 540.8L246 538.2L193.1 573.6L171 633.3L188.3 694.6L238.2 734.1L301.9 736.6L354.8 701.2L376.9 641.5L359.6 580.2L309.6 540.8Z" fill="#190E2C"/>
<path d="M100.3 376L36.6999 373.5L-16.3001 408.8L-38.4001 468.6L-21.1001 529.9L28.8999 569.4L92.4998 571.9L145.5 536.6L167.6 476.8L150.3 415.4L100.3 376Z" fill="#190E2C"/>
<path d="M188.3 694.7L135.4 730L152.6 791.2L216.1 793.8L238.2 734.1L188.3 694.7Z" fill="#0F081C"/>
<path d="M135.5 730.4L71.7998 728L49.9998 787.7L99.8998 827L152.8 791.5L135.5 730.4Z" fill="#0B0615"/>
<path d="M142.8 534.8L89.8999 570.2L107.2 631.4L170.7 633.9L192.8 574.3L142.8 534.8Z" fill="#0B0615"/>
<path d="M-22.9003 529.3L-75.8003 564.6L-58.5003 625.8L4.99971 628.4L26.9997 568.7L-22.9003 529.3Z" fill="#0F081C"/>
<path d="M90.1997 570.7L26.5997 568.3L4.69971 627.9L54.5997 667.3L107.5 631.9L90.1997 570.7Z" fill="#362159"/>
<path d="M281.9 441.6L228.9 476.9L246.2 538.1L309.7 540.7L331.7 481L281.9 441.6Z" fill="#190E2C"/>
<path d="M229.1 477.4L165.5 475L143.6 534.7L193.6 574L246.5 538.6L229.1 477.4Z" fill="#2D1A4B"/>
<path d="M135.4 730.2L188.3 695L171.1 633.6L107.5 631.2L54.5999 666.6L71.7999 727.8L135.4 730.3V730.2Z" fill="#2D1A4B"/>
<path d="M227.9 477.8L280.8 442.4L263.5 381.2L200 378.7L147 414L164.3 475.2L227.9 477.8Z" fill="#0F081C"/>
<path d="M3.9998 626.4L-59.6002 623.9L-112.6 659.3L-134.7 719L-117.4 780.3L-67.4002 819.7L-3.8002 822.3L49.2998 786.9L71.2998 727.2L54.0998 665.9L3.9998 626.4Z" fill="#0F081C"/>
<path d="M919 367.3L855.3 364.7L802.4 400.1L780.3 459.8L797.6 521.2L847.6 560.6L911.2 563.1L964.2 527.8L986.3 468L969 406.7L919 367.3Z" fill="#190E2C"/>
<path d="M797.6 521.2L744.8 556.5L761.9 617.7L825.5 620.3L847.6 560.6L797.6 521.2Z" fill="#2D1A4B"/>
<path d="M744.8 556.9L681.3 554.5L659.3 614.2L709.3 653.5L762.1 618.1L744.8 556.9Z" fill="#2D1A4B"/>
<path d="M752.2 361.4L699.4 396.7L716.5 457.9L780.1 460.4L802.2 400.8L752.2 361.4Z" fill="#2D1A4B"/>
<path d="M701.1 397.2L637.6 394.8L615.6 454.5L665.6 493.9L718.4 458.4L701.1 397.2Z" fill="#190E2C"/>
<path d="M744.8 556.8L797.7 521.5L780.4 460.2L716.9 457.7L663.9 493.1L681.2 554.3L744.8 556.8Z" fill="#0F081C"/>
<path d="M492.1 606.9L439.1 642.3L456.4 703.5L520 706L541.9 646.3L492.1 606.9Z" fill="#0B0615"/>
<path d="M439.2 642.7L375.7 640.3L353.7 699.9L403.8 739.2L456.6 703.8L439.2 642.7Z" fill="#0F081C"/>
<path d="M446.7 447.1L393.7 482.4L410.9 543.7L474.6 546.2L496.5 486.5L446.7 447.1Z" fill="#0F081C"/>
<path d="M393.9 483L330.3 480.5L308.4 540.2L358.4 579.6L411.3 544.2L393.9 483Z" fill="#2D1A4B"/>
<path d="M536.7 392.4L467.9 389.8L444.1 454.6L498.3 497.1L555.5 458.8L536.7 392.4Z" fill="#0B0615"/>
<path d="M439.2 642.5L492.1 607.2L474.8 546L411.2 543.5L358.4 578.8L375.6 640L439.1 642.6L439.2 642.5Z" fill="black"/>
<path d="M214.3 791.2L150.7 788.7L97.7997 824L75.6997 883.8L92.9997 945.1L142.9 984.5L206.6 987L259.5 951.7L281.6 891.9L264.3 830.6L214.3 791.2Z" fill="black"/>
<path d="M92.9998 945.1L39.9998 980.4L57.2998 1041.7L120.9 1044.2L142.9 984.5L92.9998 945.1Z" fill="#0F081C"/>
<path d="M40.1997 980.8L-23.5003 978.4L-45.3003 1038.1L4.5997 1077.4L57.4997 1042.1L40.1997 980.8Z" fill="#0B0615"/>
<path d="M47.5999 785.3L-5.40015 820.6L11.8999 881.8L75.3999 884.3L97.4999 824.7L47.5999 785.3Z" fill="#190E2C"/>
<path d="M-5.1001 821.1L-68.8001 818.7L-90.6001 878.5L-40.7001 917.8L12.1999 882.3L-5.1001 821.1Z" fill="#0F081C"/>
<path d="M40.0998 980.7L92.8998 945.4L75.7998 884.2L12.1998 881.6L-40.7002 917L-23.4002 978.2L40.0998 980.7Z" fill="black"/>
<path d="M823.7 617.7L760.1 615.2L707.1 650.6L685 710.3L702.3 771.6L752.3 811L815.9 813.5L868.9 778.2L891 718.4L873.7 657.2L823.7 617.7Z" fill="#0F081C"/>
<path d="M702.3 771.6L649.5 806.9L666.7 868.2L730.2 870.7L752.3 811L702.3 771.6Z" fill="#190E2C"/>
<path d="M649.5 807.3L585.9 804.9L564 864.6L614 904L666.8 868.6L649.5 807.3Z" fill="#0F081C"/>
<path d="M656.9 611.9L604 647.2L621.2 708.4L684.8 711L706.9 651.3L656.9 611.9Z" fill="#0B0615"/>
<path d="M604.2 647.7L540.6 645.3L518.7 705L568.7 744.3L621.5 708.8L604.2 647.7Z" fill="#2D1A4B"/>
<path d="M649.5 807.2L702.4 771.9L685.1 710.7L621.6 708.1L568.6 743.5L585.9 804.7L649.5 807.2Z" fill="#0F081C"/>
<path d="M518.1 703.4L454.4 700.9L401.5 736.3L379.4 796L396.7 857.4L446.6 896.8L510.3 899.3L563.2 864L585.3 804.2L568 742.9L518.1 703.4Z" fill="black"/>
<path d="M396.8 857.4L343.8 892.7L361 953.9L424.7 956.4L446.6 896.8L396.8 857.4Z" fill="#190E2C"/>
<path d="M343.9 893.1L280.4 890.7L258.4 950.3L308.4 989.7L361.2 954.3L343.9 893.1Z" fill="#0A0414"/>
<path d="M351.3 697.5L298.4 732.9L315.6 794.1L379.2 796.6L401.2 736.9L351.3 697.5Z" fill="#0F081C"/>
<path d="M298.6 733.4L235.1 731L213.1 790.7L263 830L316 794.6L298.6 733.4Z" fill="#0A0414"/>
<path d="M113.5 1237.2L49.8998 1234.8L27.9998 1294.5L77.8998 1333.8L130.8 1298.4L113.5 1237.2Z" fill="black"/>
<path d="M343.8 893L396.8 857.7L379.5 796.4L315.9 793.9L263 829.2L280.3 890.5L343.8 893Z" fill="#0B0615"/>
<path d="M426.4 956.9L362.9 954.4L309.9 989.7L287.9 1049.5L305.1 1110.8L355.1 1150.2L418.7 1152.8L471.7 1117.4L493.7 1057.7L476.5 996.3L426.4 956.9Z" fill="black"/>
<path d="M305.2 1110.8L252.2 1146.2L269.5 1207.4L333.1 1209.9L355 1150.2L305.2 1110.8Z" fill="black"/>
<path d="M167.2 1203.2L114.2 1238.6L131.5 1299.8L195.1 1302.3L217.1 1242.6L167.2 1203.2Z" fill="black"/>
<path d="M252.3 1146.6L188.7 1144.1L166.8 1203.8L216.8 1243.2L269.7 1207.8L252.3 1146.6Z" fill="#0A0414"/>
<path d="M416.2 1152L352.7 1149.5L330.7 1209.2L380.8 1248.6L433.6 1213.2L416.2 1152Z" fill="#0A0414"/>
<path d="M259.8 951L206.8 986.3L224 1047.6L287.6 1050.1L309.6 990.4L259.8 951Z" fill="black"/>
<path d="M252.3 1146.5L305.1 1111.1L287.9 1049.9L224.3 1047.4L171.5 1082.7L188.7 1143.9L252.2 1146.5H252.3Z" fill="#0F081C"/>
<path d="M120.9 1042.7L57.2997 1040.2L4.29971 1075.5L-17.8003 1135.3L-0.500294 1196.6L49.4997 1236L113.1 1238.5L166.1 1203.2L188.2 1143.4L170.9 1082.1L120.9 1042.7Z" fill="black"/>
<path d="M-0.500145 1196.6L-53.4001 1231.9L-36.1001 1293.1L27.3999 1295.7L49.4999 1236L-0.500145 1196.6Z" fill="black"/>
<path d="M-45.9003 1036.8L-98.8003 1072.1L-81.5003 1133.3L-18.0003 1135.8L4.09971 1076.2L-45.9003 1036.8Z" fill="#190E2C"/>
<path d="M1035.9 783.4L972.3 780.9L919.3 816.3L897.2 876L914.5 937.3L964.5 976.7L1028.1 979.3L1081.1 943.9L1103.2 884.2L1085.9 822.9L1035.9 783.4Z" fill="#0A0414"/>
<path d="M914.5 937.3L861.6 972.7L878.9 1033.9L942.4 1036.4L964.5 976.7L914.5 937.3Z" fill="#0A0414"/>
<path d="M1080.2 943.9L1027.3 979.2L1044.5 1040.5L1108.1 1043L1130.2 983.3L1080.2 943.9Z" fill="#0B0615"/>
<path d="M985.9 1194.5L932.9 1229.8L950.2 1291L1013.8 1293.5L1035.8 1233.9L985.9 1194.5Z" fill="black"/>
<path d="M861.6 973.1L798.1 970.6L776.1 1030.4L826.2 1069.7L879 1034.3L861.6 973.1Z" fill="#190E2C"/>
<path d="M1165.3 888.2L1101.8 885.8L1079.8 945.5L1129.8 984.9L1182.6 949.5L1165.3 888.2Z" fill="black"/>
<path d="M934.9 1230.3L871.4 1227.9L849.4 1287.5L899.5 1326.8L952.3 1291.4L934.9 1230.3Z" fill="black"/>
<path d="M1027.5 978.7L963.9 976.3L941.9 1036L991.9 1075.3L1044.7 1039.9L1027.5 978.7Z" fill="#0F081C"/>
<path d="M869.1 777.6L816.2 812.9L833.4 874.2L897 876.7L919 817L869.1 777.6Z" fill="black"/>
<path d="M1102.2 437.3L1049.3 472.6L1066.5 533.8L1130.2 536.4L1152.1 476.7L1102.2 437.3Z" fill="#0B0615"/>
<path d="M1049.4 473L985.9 470.6L963.9 530.3L1013.9 569.7L1066.7 534.2L1049.4 473Z" fill="#0F081C"/>
<path d="M1128.3 533.9L1064.6 531.4L1011.7 566.7L989.6 626.5L1006.9 687.7L1056.8 727.2L1120.5 729.7L1173.4 694.3L1195.5 634.6L1178.2 573.3L1128.3 533.9Z" fill="#0F081C"/>
<path d="M1006.9 687.8L954 723.1L971.2 784.4L1034.8 786.9L1056.8 727.2L1006.9 687.8Z" fill="#190E2C"/>
<path d="M954.1 723.5L890.6 721L868.6 780.8L918.6 820.1L971.4 784.7L954.1 723.5Z" fill="#0B0615"/>
<path d="M1120.9 728.1L1057.3 725.7L1035.3 785.5L1085.3 824.8L1138.1 789.4L1120.9 728.1Z" fill="#0F081C"/>
<path d="M961.5 528L908.5 563.3L925.8 624.5L989.4 627.1L1011.4 567.4L961.5 528Z" fill="#2D1A4B"/>
<path d="M910.8 562L847.2 559.6L825.2 619.2L875.2 658.6L928.1 623.2L910.8 562Z" fill="#190E2C"/>
<path d="M954 723.3L1007 688L989.7 626.8L926.1 624.2V624.3L873.2 659.6L890.5 720.9L954 723.3Z" fill="#190E2C"/>
<path d="M1173.7 693.7L1120.7 729L1138 790.3L1201.6 792.8L1223.5 733.1L1173.7 693.7Z" fill="#0F081C"/>
<path d="M1218.1 854.7L1165.2 890L1182.5 951.3L1246 953.8L1268.1 894.1L1218.1 854.7Z" fill="#190E2C"/>
<path d="M816.3 813.4L752.8 811L730.8 870.7L780.9 910L833.7 874.7L816.3 813.4Z" fill="black"/>
<path d="M861.7 973L914.5 937.6L897.3 876.4L833.7 873.9L780.8 909.2L798 970.4L861.7 973Z" fill="#0F081C"/>
<path d="M1165.2 889.1L1218.2 853.8L1200.9 792.6L1137.3 790L1084.4 825.4L1101.7 886.6L1165.2 889.1Z" fill="#0B0615"/>
<path d="M1333 894L1269.4 891.5L1247.4 951.2L1297.5 990.6L1350.3 955.1L1333 894Z" fill="#0F081C"/>
<path d="M1378.3 1054.9L1431.3 1019.6L1414 958.3L1350.4 955.8L1297.6 991.2L1314.8 1052.4L1378.3 1054.9Z" fill="black"/>
<path d="M730.3 869.2L666.6 866.7L613.7 902.1L591.6 961.8L608.9 1023.1L658.8 1062.5L722.5 1065L775.4 1029.7L797.5 969.9L780.2 908.7L730.3 869.2Z" fill="black"/>
<path d="M608.9 1023.1L556 1058.4L573.2 1119.7L636.8 1122.2L658.8 1062.5L608.9 1023.1Z" fill="black"/>
<path d="M556.1 1058.8L492.5 1056.4L470.6 1116.1L520.6 1155.5L573.4 1120.1L556.1 1058.8Z" fill="#0A0414"/>
<path d="M563.5 863.4L510.5 898.6L527.8 959.9L591.4 962.5L613.4 902.7L563.5 863.4Z" fill="#190E2C"/>
<path d="M510.8 899.2L447.2 896.7L425.3 956.5L475.2 995.8L528.1 960.3L510.8 899.2Z" fill="black"/>
<path d="M556 1058.7L609 1023.4L591.7 962.2L528.1 959.6L475.2 995L492.5 1056.2L556 1058.7Z" fill="#0F081C"/>
<path d="M637.9 1122.7L574.3 1120.2L521.4 1155.5L499.3 1215.3L516.6 1276.6L566.5 1316L630.2 1318.6L683.1 1283.2L705.2 1223.5L687.9 1162.1L637.9 1122.7Z" fill="black"/>
<path d="M333.3 1209.4L269.6 1206.9L216.7 1242.3L194.6 1302L211.9 1363.3L261.9 1402.7L325.5 1405.3L378.4 1369.9L400.5 1310.2L383.2 1248.9L333.3 1209.4Z" fill="black"/>
<path d="M516.6 1276.6L463.7 1312L480.9 1373.2L544.4 1375.7L566.5 1316L516.6 1276.6Z" fill="black"/>
<path d="M471.1 1116.8L418.2 1152.1L435.5 1213.4L499 1215.9L521.1 1156.2L471.1 1116.8Z" fill="#0F081C"/>
<path d="M463.7 1312.3L516.6 1276.9L499.4 1215.7L435.8 1213.2L382.9 1248.5L400.1 1309.7L463.7 1312.3Z" fill="black"/>
<path d="M1247.3 949.2L1183.6 946.7L1130.7 982.1L1108.6 1041.8L1125.9 1103.1L1175.9 1142.6L1239.5 1145.1L1292.5 1109.7L1314.6 1050L1297.3 988.7L1247.3 949.2Z" fill="black"/>
<path d="M1125.9 1103.1L1073.1 1138.5L1090.2 1199.7L1153.9 1202.2L1175.9 1142.6L1125.9 1103.1Z" fill="black"/>
<path d="M1073.1 1138.9L1009.6 1136.5L987.6 1196.1L1037.6 1235.5L1090.4 1200.1L1073.1 1138.9Z" fill="#0A0414"/>
<path d="M1240 1141.7L1176.4 1139.3L1154.4 1198.9L1204.4 1238.3L1257.3 1202.9L1240 1141.7Z" fill="black"/>
<path d="M1073.1 1138.8L1126 1103.4L1108.7 1042.2L1045.2 1039.7L992.2 1075L1009.5 1136.3L1073.1 1138.8Z" fill="black"/>
<path d="M1293.5 1105.9L1240.6 1141.2L1257.8 1202.4L1321.4 1205L1343.4 1145.3L1293.5 1105.9Z" fill="#0A0414"/>
<path d="M1376.7 1051L1313.1 1048.6L1291.1 1108.4L1341.1 1147.7L1394 1112.3L1376.7 1051Z" fill="#0F081C"/>
<path d="M1460.5 1113.1L1396.9 1110.6L1343.9 1145.9L1321.9 1205.7L1339.1 1267L1389.2 1306.4L1452.7 1309L1505.7 1273.6L1527.7 1213.8L1510.5 1152.5L1460.5 1113.1Z" fill="black"/>
<path d="M1153.9 1198.8L1090.3 1196.3L1037.3 1231.6L1015.3 1291.4L1032.5 1352.7L1082.5 1392.1L1146.2 1394.7L1199.1 1359.3L1221.2 1299.6L1203.9 1238.2L1153.9 1198.8Z" fill="black"/>
<path d="M1339.3 1265.1L1286.3 1300.5L1303.6 1361.7L1367.1 1364.2L1389.1 1304.5L1339.3 1265.1Z" fill="black"/>
<path d="M1286.4 1300.9L1222.8 1298.4L1200.9 1358.1L1250.9 1397.4L1303.8 1362.1L1286.4 1300.9Z" fill="black"/>
<path d="M1285.4 1301.6L1338.3 1266.3L1321 1205.1L1257.5 1202.5L1204.5 1237.9L1221.8 1299.1L1285.4 1301.6Z" fill="black"/>
<path d="M941.8 1035L878.1 1032.5L825.1 1067.8L803.1 1127.6L820.3 1188.9L870.3 1228.3L934 1230.8L986.9 1195.5L1009 1135.7L991.7 1074.4L941.8 1035Z" fill="#0A0414"/>
<path d="M820.4 1188.9L767.4 1224.2L784.7 1285.5L848.3 1288L870.3 1228.3L820.4 1188.9Z" fill="black"/>
<path d="M767.5 1224.6L704 1222.2L682 1281.9L732.1 1321.2L784.9 1285.9L767.5 1224.6Z" fill="black"/>
<path d="M775 1029.1L722 1064.4L739.3 1125.6L802.9 1128.2L824.8 1068.5L775 1029.1Z" fill="black"/>
<path d="M722.2 1064.9L658.6 1062.5L636.7 1122.3L686.7 1161.6L739.6 1126.2L722.2 1064.9Z" fill="#0F081C"/>
<path d="M767.5 1224.5L820.4 1189.2L803.2 1128L739.5 1125.4L686.7 1160.8L703.9 1222L767.5 1224.5Z" fill="black"/>
<path d="M1433.8 450L1369.7 447.5L1316.3 483.1L1294.1 543.3L1311.5 605L1361.9 644.6L1426 647.2L1479.4 611.7L1501.6 551.5L1484.2 489.8L1433.8 450Z" fill="#190E2C"/>
<path d="M1645.9 615.8L1582.3 613.2L1529.3 648.6L1507.2 708.3L1524.5 769.7L1574.5 809.1L1638.2 811.6L1691.2 776.3L1713.2 716.5L1696 655.2L1645.9 615.8Z" fill="#0F081C"/>
<path d="M1524.6 769.7L1471.7 805L1488.9 866.2L1552.5 868.8L1574.5 809.1L1524.6 769.7Z" fill="#0B0615"/>
<path d="M1690.3 776.2L1637.4 811.6L1654.6 872.8L1718.2 875.3L1740.3 815.7L1690.3 776.2Z" fill="#0A0414"/>
<path d="M1595.9 1026.8L1543.1 1062.1L1560.2 1123.4L1623.9 1125.9L1645.9 1066.2L1595.9 1026.8Z" fill="black"/>
<path d="M1471.8 805.4L1408.2 803L1386.2 862.7L1436.2 902.1L1489.2 866.6L1471.8 805.4Z" fill="#0F081C"/>
<path d="M1775.5 720.6L1711.8 718.2L1689.9 777.8L1739.9 817.1L1792.8 781.8L1775.5 720.6Z" fill="#0F081C"/>
<path d="M1545 1062.5L1481.5 1060.1L1459.5 1119.9L1509.5 1159.2L1562.4 1123.8L1545 1062.5Z" fill="#0F081C"/>
<path d="M1640.5 1184L1587.7 1219.2L1604.9 1280.6L1668.5 1283.1L1690.5 1223.3L1640.5 1184Z" fill="#0A0414"/>
<path d="M1589.6 1219.7L1526.1 1217.3L1504.1 1277.1L1554.1 1316.4L1607 1280.9L1589.6 1219.7Z" fill="#0A0414"/>
<path d="M1637.5 811L1573.9 808.6L1552 868.3L1602 907.7L1654.9 872.2L1637.5 811Z" fill="#0F081C"/>
<path d="M1478.8 609.8L1425.8 645.3L1443.1 706.5L1507 709L1529.1 649.4L1478.8 609.8Z" fill="#0B0615"/>
<path d="M1921.7 433.3L1868.7 468.7L1886 529.9L1949.6 532.4L1971.6 472.8L1921.7 433.3Z" fill="#0F081C"/>
<path d="M1868.9 469.1L1805.3 466.7L1783.4 526.3L1833.4 565.6L1886.2 530.3L1868.9 469.1Z" fill="#190E2C"/>
<path d="M1738.4 366.1L1674.7 363.6L1621.8 399L1599.7 458.7L1617 520L1667 559.5L1730.6 562L1783.6 526.6L1805.6 466.9L1788.4 405.6L1738.4 366.1Z" fill="#0F081C"/>
<path d="M1617 520L1564.1 555.4L1581.3 616.6L1644.9 619.1L1667 559.5L1617 520Z" fill="#190E2C"/>
<path d="M1564.1 555.8L1500.6 553.4L1478.7 613.1L1528.7 652.4L1581.5 617L1564.1 555.8Z" fill="#2D1A4B"/>
<path d="M1730.9 560.5L1667.3 558.1L1645.4 617.7L1695.4 657.2L1748.3 621.7L1730.9 560.5Z" fill="#2D1A4B"/>
<path d="M1571.6 360.3L1518.6 395.6L1535.9 456.9L1599.5 459.4L1621.6 399.7L1571.6 360.3Z" fill="#190E2C"/>
<path d="M1518.1 395.9L1454.1 393.4L1432 453.5L1482.4 493L1535.5 457.5L1518.1 395.9Z" fill="#0F081C"/>
<path d="M1564.1 555.7L1617 520.3L1599.8 459.1L1536.2 456.6L1483.3 491.9L1500.6 553.2L1564.1 555.7Z" fill="#0B0615"/>
<path d="M1311.8 602.9L1258.6 639.5L1275.8 702.9L1339.8 705.4L1362.1 643.6L1311.8 602.9Z" fill="#0B0615"/>
<path d="M1258.7 638.6L1195.2 636.2L1173.2 696L1223.2 735.3L1276 699.9L1258.7 638.6Z" fill="#190E2C"/>
<path d="M1266.1 443.2L1213.1 478.5L1230.4 539.7L1294 542.3L1316 482.6L1266.1 443.2Z" fill="#0F081C"/>
<path d="M1215.4 477.2L1151.8 474.8L1129.8 534.5L1179.8 573.8L1232.7 538.3L1215.4 477.2Z" fill="#190E2C"/>
<path d="M1258.6 638.5L1311.6 603.2L1294.3 542L1230.7 539.5L1177.8 574.8L1195.1 636L1258.6 638.5Z" fill="#2D1A4B"/>
<path d="M1783.7 526L1730.8 561.4L1748 622.6L1811.7 625.1L1833.7 565.5L1783.7 526Z" fill="#0F081C"/>
<path d="M1828.2 687L1775.3 722.4L1792.5 783.6L1856.1 786.1L1878.1 726.4L1828.2 687Z" fill="#190E2C"/>
<path d="M1425.5 645.7L1361.9 643.2L1340 703L1390 742.3L1442.9 706.9L1425.5 645.7Z" fill="#0F081C"/>
<path d="M1471.7 805.3L1524.6 770L1507.3 708.7L1443.8 706.2L1390.9 741.6L1408.1 802.8L1471.7 805.3Z" fill="#190E2C"/>
<path d="M1775.3 721.4L1828.2 686L1811 624.8L1747.4 622.3L1694.5 657.6L1711.8 718.9L1775.3 721.4Z" fill="#0B0615"/>
<path d="M1943.1 726.2L1879.5 723.8L1857.5 783.6L1907.5 822.9L1960.5 787.5L1943.1 726.2Z" fill="#0F081C"/>
<path d="M1340.4 701.5L1276.7 699L1223.8 734.3L1201.7 794.1L1219 855.4L1269 894.8L1332.6 897.4L1385.6 862L1407.6 802.3L1390.4 740.9L1340.4 701.5Z" fill="black"/>
<path d="M1856.4 781.5L1792.8 779L1739.8 814.3L1717.7 874.1L1735 935.4L1785 974.9L1848.7 977.4L1901.6 942L1923.7 882.3L1906.4 820.9L1856.4 781.5Z" fill="black"/>
<path d="M1736 935.5L1683.2 970.8L1700.4 1032L1763.9 1034.6L1786 974.9L1736 935.5Z" fill="black"/>
<path d="M1683.3 971.2L1619.6 968.8L1597.7 1028.5L1647.7 1067.8L1700.6 1032.5L1683.3 971.2Z" fill="#0A0414"/>
<path d="M1807.5 1188.7L1754.6 1224L1771.9 1285.3L1835.4 1287.8L1857.5 1228.1L1807.5 1188.7Z" fill="black"/>
<path d="M1754.7 1224.4L1691.1 1222L1669.3 1281.7L1719.2 1321L1772.1 1285.7L1754.7 1224.4Z" fill="black"/>
<path d="M1850.1 974L1786.4 971.5L1764.6 1031.3L1814.5 1070.6L1867.4 1035.2L1850.1 974Z" fill="#0A0414"/>
<path d="M1683.2 971.1L1736.1 935.8L1718.8 874.6L1655.3 872L1602.3 907.4L1619.6 968.6L1683.2 971.1Z" fill="#190E2C"/>
<path d="M1903.5 938.2L1850.7 973.6L1867.9 1034.8L1931.4 1037.3L1953.5 977.6L1903.5 938.2Z" fill="black"/>
<path d="M1986.8 883.4L1923.1 881L1901.2 940.7L1951.2 980L2004.1 944.6L1986.8 883.4Z" fill="#190E2C"/>
<path d="M2070.6 945.4L2006.9 942.9L1954 978.3L1931.9 1038L1949.2 1099.4L1999.2 1138.8L2062.8 1141.3L2115.8 1106L2137.9 1046.2L2120.6 984.9L2070.6 945.4Z" fill="#0A0414"/>
<path d="M1974.3 1195.8L1910.7 1193.3L1857.7 1228.7L1835.7 1288.4L1852.9 1349.7L1903 1389.2L1966.5 1391.7L2019.6 1356.3L2041.6 1296.6L2024.4 1235.3L1974.3 1195.8Z" fill="black"/>
<path d="M1949.5 532.8L1885.9 530.3L1833 565.6L1810.9 625.4L1828.2 686.7L1878.1 726.1L1941.8 728.7L1994.7 693.3L2016.8 633.6L1999.5 572.2L1949.5 532.8Z" fill="#0F081C"/>
<path d="M2251.2 449.6L2187.6 447.1L2134.6 482.4L2112.6 542.2L2129.8 603.5L2179.9 642.9L2243.4 645.5L2296.5 610.1L2318.5 550.4L2301.3 489L2251.2 449.6Z" fill="#190E2C"/>
<path d="M1993.8 693.3L1941 728.6L1958.2 789.9L2021.8 792.4L2043.8 732.7L1993.8 693.3Z" fill="#0F081C"/>
<path d="M2079 637.6L2015.4 635.2L1993.5 694.9L2043.4 734.2L2096.3 698.9L2079 637.6Z" fill="#0B0615"/>
<path d="M2034.5 477.5L1970.9 475.1L1949 534.8L1998.9 574.2L2051.8 538.8L2034.5 477.5Z" fill="#362159"/>
<path d="M2131.8 604.1L2078.8 639.4L2096.1 700.7L2159.7 703.2L2181.7 643.5L2131.8 604.1Z" fill="#362159"/>
<path d="M2086.4 441L2033.6 476.3L2050.7 537.5L2114.3 540.1L2136.4 480.4L2086.4 441Z" fill="#0F081C"/>
<path d="M2079.9 637.5L2132.8 602.1L2115.6 540.9L2052 538.4L1999.1 573.7L2016.4 635L2079.9 637.5Z" fill="#190E2C"/>
<path d="M2246.7 643.3L2183 640.9L2161.2 700.6L2211.1 740L2264 704.5L2246.7 643.3Z" fill="black"/>
<path d="M2292.1 804.2L2344.9 768.9L2327.7 707.6L2264.1 705.1V705.2L2211.2 740.5L2228.4 801.8L2292.1 804.2Z" fill="#190E2C"/>
<path d="M2160.9 698.6L2097.4 696.1L2044.4 731.4L2022.4 791.2L2039.5 852.5L2089.6 892L2153.2 894.5L2206.2 859.2L2228.2 799.4L2211 738L2160.9 698.6Z" fill="#190E2C"/>
<path d="M2039.6 847.6L1986.7 883L2004 944.2L2067.5 946.7L2089.5 887.1L2039.6 847.6Z" fill="#0B0615"/>
<path d="M2062.2 1140.7L1998.6 1138.2L1976.6 1198L2026.7 1237.3L2079.5 1201.9L2062.2 1140.7Z" fill="black"/>
<path d="M2115.7 1105L2062.8 1140.3L2080.1 1201.5L2143.6 1204L2165.7 1144.4L2115.7 1105Z" fill="black"/>
<path d="M2243.2 1011.7L2190.4 1047.1L2207.5 1108.3L2271.2 1110.8L2293.2 1051.1L2243.2 1011.7Z" fill="black"/>
<path d="M2156.4 1263.9L2103.5 1299.2L2120.8 1360.5L2184.3 1363L2206.3 1303.3L2156.4 1263.9Z" fill="black"/>
<path d="M2202.2 1047.4L2138.5 1045L2116.6 1104.7L2166.6 1144L2219.4 1108.7L2202.2 1047.4Z" fill="#0A0414"/>
<path d="M2150.3 890.2L2086.8 887.8L2064.8 947.5L2114.8 986.9L2167.7 951.4L2150.3 890.2Z" fill="black"/>
<path d="M1987.7 886.2L2040.6 850.8L2023.4 789.6L1959.8 787.1L1907 822.4L1924.1 883.7L1987.7 886.2Z" fill="#190E2C"/>
<path d="M2207.2 855.3L2154.2 890.6L2171.5 951.9L2235.1 954.4L2257.1 894.7L2207.2 855.3Z" fill="black"/>
<path d="M2290.3 800.4L2226.8 798L2204.8 857.7L2254.8 897.1L2307.7 861.7L2290.3 800.4Z" fill="black"/>
<path d="M2279.9 1112.1L2216.2 1109.5L2163.3 1144.9L2141.2 1204.6L2158.5 1265.9L2208.4 1305.4L2272.1 1307.9L2325 1272.5L2347.1 1212.8L2329.8 1151.5L2279.9 1112.1Z" fill="black"/>
<path d="M1764.1 1031.2L1700.4 1028.6L1647.5 1064L1625.4 1123.7L1642.7 1185L1692.6 1224.5L1756.3 1227L1809.2 1191.6L1831.3 1131.9L1814 1070.6L1764.1 1031.2Z" fill="black"/>
<path d="M1949.3 1097.5L1896.4 1132.8L1913.6 1194L1977.3 1196.5L1999.3 1136.9L1949.3 1097.5Z" fill="black"/>
<path d="M1896.5 1133.2L1833 1130.8L1811 1190.5L1861 1229.8L1913.8 1194.3L1896.5 1133.2Z" fill="black"/>
<path d="M1895.5 1134L1948.3 1098.6L1931.1 1037.4L1867.5 1034.9L1814.6 1070.2L1831.8 1131.4L1895.5 1134Z" fill="#0F081C"/>
<path d="M1590.8 1219.8L1643.7 1184.4L1626.5 1123.2L1562.9 1120.7L1510 1156L1527.2 1217.2L1590.8 1219.8Z" fill="black"/>
<path d="M2198.1 1051L2251 1015.6L2233.8 954.4L2170.1 951.9L2117.3 987.2L2134.5 1048.5L2198.1 1051Z" fill="#190E2C"/>
<path d="M2160.1 692.4L2096.4 689.9L2043.5 725.2L2021.4 785L2038.7 846.3L2088.7 885.7L2152.3 888.2L2205.4 852.9L2227.4 793.1L2210.2 731.8L2160.1 692.4Z" fill="#0B0615"/>
<path d="M2204.5 852.9L2151.5 888.2L2168.8 949.4L2232.4 952L2254.4 892.3L2204.5 852.9Z" fill="#0A0414"/>
<path d="M2289.6 797.2L2226 794.8L2204.1 854.5L2254.1 893.8L2306.9 858.4L2289.6 797.2Z" fill="#0F081C"/>
<path d="M2252.6 442.8L2188.9 440.2L2136 475.7L2113.9 535.3L2131.2 596.7L2181.1 636.1L2244.8 638.6L2297.7 603.3L2319.8 543.5L2302.5 482.3L2252.6 442.8Z" fill="#190E2C"/>
<path d="M2245 637.1L2181.5 634.7L2159.6 694.4L2209.6 733.8L2262.4 698.4L2245 637.1Z" fill="#2D1A4B"/>
<path d="M2289.5 798L2342.3 762.7L2325.2 701.4L2261.6 698.9L2208.7 734.3L2226 795.5L2289.5 798Z" fill="#0B0615"/>
<path d="M2371.6 858.2L2307.9 855.7L2255 891L2232.9 950.8L2250.2 1012.1L2300.2 1051.5L2363.8 1054L2416.8 1018.7L2438.8 958.9L2421.6 897.6L2371.6 858.2Z" fill="#0F081C"/>
<path d="M2250.2 1012.1L2197.4 1047.4L2214.5 1108.7L2278.1 1111.2L2300.2 1051.5L2250.2 1012.1Z" fill="#0F081C"/>
<path d="M2197.3 1047.7L2250.3 1012.4L2233 951.2L2169.4 948.7L2116.5 984L2133.8 1045.2L2197.3 1047.7Z" fill="black"/>
<path d="M2105.7 1299.6L2158.6 1264.3L2141.3 1203.1L2077.8 1200.5L2024.9 1235.9L2042.1 1297.1L2105.7 1299.6Z" fill="#0A0414"/>
<path d="M1551.8 867.3L1488.1 864.8L1435.2 900.1L1413.1 959.9L1430.4 1021.1L1480.4 1060.7L1544 1063.2L1597 1027.7L1619 968.1L1601.8 906.7L1551.8 867.3Z" fill="#0A0414"/>
<path d="M1430.5 1021.2L1377.5 1056.6L1394.7 1117.8L1458.4 1120.3L1480.4 1060.7L1430.5 1021.2Z" fill="black"/>
<path d="M1385 861.4L1332.1 896.8L1349.3 958L1412.9 960.5L1435 900.8L1385 861.4Z" fill="#0B0615"/>
<path d="M3.7999 1196.1L-49.1001 1231.4L-31.8001 1292.6L31.6999 1295.1L53.6999 1235.5L3.7999 1196.1Z" fill="black"/>
<path d="M335.5 1206.8L271.8 1204.3L218.9 1239.7L196.8 1299.4L214.1 1360.7L264.1 1400.1L327.7 1402.7L380.7 1367.3L402.7 1307.5L385.4 1246.3L335.5 1206.8Z" fill="black"/>
<path d="M214.1 1360.8L161.1 1396L178.4 1457.4L242 1459.9L264.1 1400.1L214.1 1360.8Z" fill="black"/>
<path d="M161.3 1396.5L97.6998 1394L75.7998 1453.8L125.8 1493.1L178.6 1457.7L161.3 1396.5Z" fill="#0A0414"/>
<path d="M168.7 1201L115.7 1236.3L133 1297.6L196.6 1300.1L218.7 1240.4L168.7 1201Z" fill="black"/>
<path d="M116 1236.8L52.3998 1234.4L30.4998 1294.1L80.4998 1333.4L133.3 1298.1L116 1236.8Z" fill="#0A0414"/>
<path d="M161.2 1396.4L214.1 1361L196.9 1299.8L133.3 1297.3L80.3999 1332.6L97.6999 1393.8L161.2 1396.4Z" fill="black"/>
<path d="M29.7997 1292.6L-33.8003 1290L-86.8003 1325.5L-108.8 1385.1L-91.6003 1446.5L-41.6003 1485.9L22.0997 1488.4L74.9997 1453.1L97.0997 1393.3L79.7997 1332.1L29.7997 1292.6Z" fill="black"/>
<path d="M823.4 1187.3L770.6 1222.7L787.8 1283.9L851.3 1286.4L873.4 1226.7L823.4 1187.3Z" fill="black"/>
<path d="M770.7 1223.1L707 1220.6L685.1 1280.3L735.1 1319.6L788 1284.2L770.7 1223.1Z" fill="#0A0414"/>
<path d="M639.2 1119.1L575.5 1116.5L522.6 1152L500.5 1211.6L517.8 1273L567.8 1312.4L631.4 1314.9L684.5 1279.6L706.5 1219.8L689.3 1158.6L639.2 1119.1Z" fill="black"/>
<path d="M465 1308.7L401.5 1306.3L379.5 1366.1L429.5 1405.4L482.4 1370L465 1308.7Z" fill="#0A0414"/>
<path d="M464.9 1308.6L517.9 1273.3L500.6 1212.1L437 1209.5L384.2 1244.9L401.4 1306.1L464.9 1308.6Z" fill="black"/>
<path d="M547.6 1372.6L484 1370.1L431 1405.4L409 1465.2L426.2 1526.4L476.3 1566L539.8 1568.5L592.9 1533.1L614.8 1473.4L597.6 1412.1L547.6 1372.6Z" fill="black"/>
<path d="M380.9 1366.7L327.9 1402.1L345.1 1463.3L408.8 1465.8L430.8 1406.1L380.9 1366.7Z" fill="black"/>
<path d="M328.1 1402.6L264.6 1400.1L242.6 1459.8L292.7 1499.1L345.5 1463.8L328.1 1402.6Z" fill="#0A0414"/>
<path d="M1157 1199.1L1093.4 1196.6L1040.4 1232L1018.3 1291.7L1035.6 1353.1L1085.6 1392.5L1149.3 1395L1202.2 1359.7L1224.3 1299.9L1207 1238.6L1157 1199.1Z" fill="black"/>
<path d="M1035.6 1353.1L982.7 1388.4L1000 1449.6L1063.5 1452.1L1085.6 1392.5L1035.6 1353.1Z" fill="black"/>
<path d="M1201.3 1359.6L1148.5 1395L1165.6 1456.2L1229.2 1458.7L1251.3 1399L1201.3 1359.6Z" fill="black"/>
<path d="M982.8 1388.8L919.2 1386.4L897.2 1446.1L947.3 1485.4L1000.2 1450L982.8 1388.8Z" fill="black"/>
<path d="M1286.5 1304L1222.9 1301.4L1200.9 1361.2L1250.9 1400.5L1303.8 1365.1L1286.5 1304Z" fill="#0A0414"/>
<path d="M1148.6 1394.4L1085 1391.9L1063 1451.6L1113 1491L1165.9 1455.6L1148.6 1394.4Z" fill="black"/>
<path d="M990.2 1193.2L937.3 1228.6L954.6 1289.8L1018.1 1292.3L1040.1 1232.6L990.2 1193.2Z" fill="black"/>
<path d="M1339.2 1270.4L1286.3 1305.8L1303.6 1367L1367.1 1369.5L1389.2 1309.8L1339.2 1270.4Z" fill="black"/>
<path d="M937.5 1229.1L873.9 1226.7L851.9 1286.3L902 1325.7L954.9 1290.3L937.5 1229.1Z" fill="#0F081C"/>
<path d="M982.8 1388.7L1035.6 1353.4L1018.4 1292.1L954.8 1289.6L901.9 1324.9L919.1 1386.2L982.8 1388.7Z" fill="black"/>
<path d="M1286.3 1304.8L1339.3 1269.4L1322 1208.2L1258.4 1205.7L1205.5 1241L1222.8 1302.2L1286.3 1304.8Z" fill="black"/>
<path d="M1454.1 1309.6L1390.5 1307.2L1368.6 1366.9L1418.6 1406.2L1471.5 1370.8L1454.1 1309.6Z" fill="#0A0414"/>
<path d="M1499.4 1470.5L1552.4 1435.2L1535.1 1374L1471.5 1371.4L1418.7 1406.8L1435.9 1468L1499.4 1470.5Z" fill="black"/>
<path d="M851.4 1284.9L787.7 1282.4L734.8 1317.7L712.7 1377.5L730 1438.7L780 1478.2L843.6 1480.8L896.6 1445.3L918.6 1385.7L901.4 1324.3L851.4 1284.9Z" fill="black"/>
<path d="M1063 1450.5L999.3 1448L946.4 1483.3L924.3 1543.1L941.6 1604.4L991.6 1643.8L1055.2 1646.4L1108.3 1611L1130.3 1551.3L1113.1 1489.9L1063 1450.5Z" fill="black"/>
<path d="M730 1438.8L677.2 1474.2L694.3 1535.4L757.9 1537.9L780 1478.2L730 1438.8Z" fill="#0A0414"/>
<path d="M684.6 1279L631.6 1314.3L648.9 1375.6L712.5 1378.1L734.6 1318.4L684.6 1279Z" fill="black"/>
<path d="M631.9 1314.8L568.4 1312.4L546.4 1372.1L596.4 1411.4L649.2 1376.1L631.9 1314.8Z" fill="#0A0414"/>
<path d="M1368.4 1365L1304.8 1362.4L1251.8 1397.8L1229.7 1457.5L1247 1518.8L1297 1558.3L1360.7 1560.8L1413.6 1525.4L1435.7 1465.7L1418.4 1404.4L1368.4 1365Z" fill="black"/>
<path d="M1194.2 1554.4L1247.1 1519.1L1229.8 1457.8L1166.3 1455.3V1455.4L1113.3 1490.6L1130.6 1551.9L1194.2 1554.4Z" fill="black"/>
<path d="M1497.8 1466.8L1434.2 1464.3L1412.3 1524L1462.2 1563.3L1515.1 1528L1497.8 1466.8Z" fill="black"/>
<path d="M896.1 1444.8L843.1 1480.1L860.4 1541.4L924 1543.9L946 1484.2L896.1 1444.8Z" fill="#0A0414"/>
<path d="M1717 1442.4L1664.2 1477.8L1681.4 1539L1745 1541.5L1767 1481.8L1717 1442.4Z" fill="black"/>
<path d="M1592.9 1221.1L1529.3 1218.6L1507.4 1278.4L1557.3 1317.7L1610.3 1282.3L1592.9 1221.1Z" fill="black"/>
<path d="M1666.2 1478.2L1602.6 1475.8L1580.6 1535.5L1630.6 1574.8L1683.6 1539.5L1666.2 1478.2Z" fill="#0A0414"/>
<path d="M1758.6 1226.7L1695.1 1224.3L1673.2 1284L1723.2 1323.3L1776 1287.9L1758.6 1226.7Z" fill="black"/>
<path d="M1461.5 1117.1L1397.9 1114.6L1344.9 1150.1L1322.8 1209.7L1340.1 1271.1L1390.1 1310.5L1453.7 1313L1506.7 1277.7L1528.8 1217.9L1511.5 1156.7L1461.5 1117.1Z" fill="black"/>
<path d="M1978.5 1197.2L1914.9 1194.7L1862 1230.1L1839.9 1289.8L1857.2 1351.1L1907.1 1390.5L1970.8 1393L2023.7 1357.7L2045.8 1297.9L2028.5 1236.7L1978.5 1197.2Z" fill="black"/>
<path d="M1857.2 1351.1L1804.3 1386.4L1821.5 1447.7L1885 1450.2L1907.1 1390.5L1857.2 1351.1Z" fill="black"/>
<path d="M1804.4 1386.8L1740.7 1384.4L1718.9 1444.2L1768.8 1483.5L1821.7 1448.1L1804.4 1386.8Z" fill="black"/>
<path d="M1971.2 1389.7L1907.6 1387.2L1885.7 1446.9L1935.7 1486.2L1988.5 1450.9L1971.2 1389.7Z" fill="#0A0414"/>
<path d="M1804.3 1386.7L1857.2 1351.4L1840 1290.2L1776.4 1287.7L1723.5 1323L1740.7 1384.2L1804.3 1386.7Z" fill="#0A0414"/>
<path d="M2024.7 1353.8L1971.8 1389.2L1989 1450.4L2052.6 1452.9L2074.7 1393.3L2024.7 1353.8Z" fill="black"/>
<path d="M2107.9 1299.1L2044.3 1296.7L2022.4 1356.4L2072.4 1395.7L2125.2 1360.2L2107.9 1299.1Z" fill="black"/>
<path d="M2191.7 1361.1L2128.1 1358.5L2075.1 1394L2053 1453.7L2070.3 1515L2120.3 1554.4L2184 1556.9L2236.9 1521.6L2259 1461.8L2241.7 1400.6L2191.7 1361.1Z" fill="black"/>
<path d="M2160.8 1268.2L2107.8 1303.5L2125.1 1364.7L2188.7 1367.3L2210.7 1307.6L2160.8 1268.2Z" fill="black"/>
<path d="M2107.9 1303.9L2044.4 1301.5L2022.4 1361.3L2072.5 1400.6L2125.3 1365.1L2107.9 1303.9Z" fill="black"/>
<path d="M2274.7 1306.7L2211.2 1304.3L2189.2 1364L2239.3 1403.3L2292.1 1368L2274.7 1306.7Z" fill="#0A0414"/>
<path d="M1885.2 1446.8L1821.5 1444.3L1768.6 1479.6L1746.5 1539.4L1763.8 1600.7L1813.8 1640.1L1877.4 1642.6L1930.4 1607.3L1952.4 1547.5L1935.2 1486.2L1885.2 1446.8Z" fill="black"/>
<path d="M2070.4 1513.1L2017.6 1548.4L2034.7 1609.6L2098.4 1612.2L2120.4 1552.5L2070.4 1513.1Z" fill="#0A0414"/>
<path d="M2016.6 1549.7L2069.5 1514.3L2052.3 1453.1L1988.6 1450.6L1935.8 1485.9L1953 1547.2L2016.6 1549.7Z" fill="black"/>
<path d="M1672.9 1283L1609.3 1280.4L1556.3 1315.8L1534.2 1375.5L1551.5 1436.9L1601.5 1476.3L1665.1 1478.8L1718.1 1443.5L1740.2 1383.7L1722.9 1322.4L1672.9 1283Z" fill="black"/>
<path d="M1551.6 1436.9L1498.7 1472.2L1515.9 1533.4L1579.5 1536L1601.5 1476.3L1551.6 1436.9Z" fill="black"/>
<path d="M1498.8 1472.6L1435.2 1470.2L1413.2 1529.9L1463.2 1569.3L1516.1 1533.8L1498.8 1472.6Z" fill="black"/>
<path d="M1506.1 1277L1453.3 1312.4L1470.5 1373.6L1534.1 1376.1L1556.1 1316.5L1506.1 1277Z" fill="black"/>
<path d="M1498.7 1472.5L1551.6 1437.2L1534.3 1375.9L1470.8 1373.4L1417.9 1408.8L1435.1 1470L1498.7 1472.5Z" fill="black"/>
<path d="M613.4 453L549.8 450.5L496.8 485.8L474.8 545.6L492 606.8L542 646.3L605.6 648.9L658.6 613.4L680.6 553.8L663.4 492.4L613.4 453Z" fill="#190E2C"/>
<path d="M701.7 209.1L638 206.6L585.1 242L563 301.7L580.3 363L630.3 402.5L693.9 405L746.9 369.6L769 309.9L751.7 248.6L701.7 209.1Z" fill="#0B0615"/>
</g>
<defs>
<linearGradient id="paint0_linear_299_1504" x1="1195.2" y1="-237.191" x2="1195.2" y2="1475.7" gradientUnits="userSpaceOnUse">
<stop stop-color="#190E2C"/>
<stop offset="1"/>
</linearGradient>
<clipPath id="clip0_299_1504">
<rect width="2242.4" height="1720.8" fill="white"/>
</clipPath>
</defs>
</svg>
