<?xml version="1.0" encoding="UTF-8"?>
<svg data-bbox="0 0 360 360.01" viewBox="0 0 360 360" xmlns="http://www.w3.org/2000/svg" data-type="color">
    <g>
        <path fill="#506ab2" d="M360 0v360H0V0h360z" data-color="1"/>
        <path fill="#455e96" d="M166.39 12.77v94.15H10.56V12.77h155.83z" data-color="2"/>
        <path fill="#455e96" d="M344.54 16.32v200.67H184.66V16.32h159.88z" data-color="2"/>
        <path fill="#455e96" d="M166.39 121.26v95.73H10.56v-95.73h155.83z" data-color="2"/>
        <path fill="#455e96" d="M344.54 231.95v113.18H12.99V231.95h331.55z" data-color="2"/>
        <path d="M221.99 82.91c-19.12-9.44-47.03-10.71-68.11 4.05-16.56 11.6-25.99 31.05-26.97 47.78-.69 11.81 2.61 26.04 4.24 33.08 2.05 8.83 4.27 15.16 4.86 16.91 3.52 10.37 8.55 85.55 12.99 107.2 3.81 18.59 16.52 43.15 56.43 68.08 51.52 0 103.05-.01 154.57-.01V236.77c-46.73-24.16-71.45-52.52-85.41-74.06-24.01-37.05-23.68-65.52-52.6-79.8z" fill="#d0974a" data-color="3"/>
        <path d="M103.66 132.64c-19.72 5.66-34.02 15.45-42.77 22.67 12.72-2.22 30.58-3.53 50.93.91 6.61 1.44 12.59 3.3 17.92 5.3 2.71-3.92 5.54-6.51 7.64-8.15 6.76-5.26 16.06-8.53 18.12-8.57.01 0 .14 0 .15-.05.11-.46-13.95-1.4-22.72-9.62-2.62-2.45-4.2-5.02-5.1-6.72-6.98.47-15.2 1.66-24.17 4.23z" fill="#b75627" data-color="4"/>
        <path fill="#b75627" d="M210.55 134.42c0 6.346-6.5 11.49-14.52 11.49s-14.52-5.144-14.52-11.49 6.5-11.49 14.52-11.49 14.52 5.144 14.52 11.49z" data-color="4"/>
        <path d="M222.86 229.58c-3.38 6.07-23.74 44.04-7.97 86.49 8.72 23.48 24.51 37.59 32.68 43.91 8.2.01 16.4.01 24.59.02-6.49-4.02-51.53-32.91-56.09-84.77-1.69-19.16 2.71-35.16 6.79-45.65z" fill="#b75627" data-color="4"/>
    </g>
</svg>
