<svg width="500" height="500" viewBox="0 0 500 500" fill="none" xmlns="http://www.w3.org/2000/svg">
<g clip-path="url(#clip0_518_1777)">
<path d="M427.241 223H60.6583C40.3707 223 24 239.255 24 259.269V460.629C24 468.96 26.9126 476.783 31.7334 482.878L77.5312 454.94V480.237L51.8201 495.882C54.6323 496.594 57.5449 497 60.6583 497H427.241C434.171 497 440.398 495.171 445.822 491.92L437.084 486.637H438.992V462.56L460.686 475.767C462.895 470.992 464 465.912 464 460.629V259.371C463.9 239.255 447.428 223 427.241 223Z" fill="#0B1623"/>
<path d="M236.099 347.502L436.599 224.202C433.799 223.502 430.899 223.102 427.799 223.102H60.7992C53.8992 223.102 47.5992 224.902 42.1992 228.202L236.099 347.502Z" fill="#71F0DA"/>
<path d="M242.1 369.302C240.5 370.802 238.3 371.602 236.1 371.602C233.9 371.602 231.7 370.902 230.1 369.302L27.3996 244.602C25.1996 249.402 24.0996 254.602 24.0996 259.902V463.402C24.0996 483.702 40.4996 500.102 60.7996 500.102H427.8C448.1 500.102 464.5 483.702 464.5 463.402V259.902C464.5 251.502 461.6 243.602 456.8 237.402L242.1 369.302Z" fill="#71F0DA"/>
</g>
<defs>
<clipPath id="clip0_518_1777">
<rect width="499.7" height="499.7" fill="white"/>
</clipPath>
</defs>
</svg>
