<svg width="500" height="500" viewBox="0 0 500 500" fill="none" xmlns="http://www.w3.org/2000/svg">
<path d="M412.5 97H86.5V402H412.5V97Z" fill="#0B1623"/>
<path d="M160 30C88.3 30 30 88.3 30 160V340C30 411.7 88.3 470 160 470H340C411.7 470 470 411.7 470 340V160C470 88.3 411.7 30 340 30H160ZM370 110C381 110 390 119 390 130C390 141 381 150 370 150C359 150 350 141 350 130C350 119 359 110 370 110ZM250 140C310.7 140 360 189.3 360 250C360 310.7 310.7 360 250 360C189.3 360 140 310.7 140 250C140 189.3 189.3 140 250 140ZM250 160C200.4 160 160 200.4 160 250C160 299.6 200.4 340 250 340C299.6 340 340 299.6 340 250C340 200.4 299.6 160 250 160Z" fill="#71F0DA"/>
</svg>
