<svg width="500" height="500" viewBox="0 0 500 500" fill="none" xmlns="http://www.w3.org/2000/svg">
<path d="M427.241 97H60.6583C40.3707 97 24 113.255 24 133.269V334.629C24 342.96 26.9126 350.783 31.7334 356.878L77.5312 328.94V354.237L51.8201 369.882C54.6323 370.594 57.5449 371 60.6583 371H427.241C434.171 371 440.398 369.171 445.822 365.92L437.084 360.637H438.992V336.56L460.686 349.767C462.895 344.992 464 339.912 464 334.629V133.371C463.9 113.255 447.428 97 427.241 97Z" fill="#0B1623"/>
<path d="M236.099 221.502L436.599 98.2016C433.799 97.5016 430.899 97.1016 427.799 97.1016H60.7992C53.8992 97.1016 47.5992 98.9016 42.1992 102.202L236.099 221.502Z" fill="#71F0DA"/>
<path d="M242.1 243.302C240.5 244.802 238.3 245.602 236.1 245.602C233.9 245.602 231.7 244.902 230.1 243.302L27.3996 118.602C25.1996 123.402 24.0996 128.602 24.0996 133.902V337.402C24.0996 357.702 40.4996 374.102 60.7996 374.102H427.8C448.1 374.102 464.5 357.702 464.5 337.402V133.902C464.5 125.502 461.6 117.602 456.8 111.402L242.1 243.302Z" fill="#71F0DA"/>
</svg>
