<svg width="500" height="500" viewBox="0 0 500 500" fill="none" xmlns="http://www.w3.org/2000/svg">
<path d="M413 122H94V464H413V122Z" fill="#0B1623"/>
<path d="M410 80H90C62.4 80 40 102.4 40 130V450C40 477.6 62.4 500 90 500H410C437.6 500 460 477.6 460 450V130C460 102.4 437.6 80 410 80ZM170 240V430H110V240H170ZM110 184.7C110 170.7 122 160 140 160C158 160 169.3 170.7 170 184.7C170 198.7 158.8 210 140 210C122 210 110 198.7 110 184.7ZM390 430H330C330 430 330 337.4 330 330C330 310 320 290 295 289.6H294.2C270 289.6 260 310.2 260 330C260 339.1 260 430 260 430H200V240H260V265.6C260 265.6 279.3 240 318.1 240C357.8 240 390 267.3 390 322.6V430Z" fill="#71F0DA"/>
</svg>
