<svg width="500" height="500" viewBox="0 0 500 500" fill="none" xmlns="http://www.w3.org/2000/svg">
<path d="M413 82H94V424H413V82Z" fill="#0B1623"/>
<path d="M410 40H90C62.4 40 40 62.4 40 90V410C40 437.6 62.4 460 90 460H410C437.6 460 460 437.6 460 410V90C460 62.4 437.6 40 410 40ZM170 200V390H110V200H170ZM110 144.7C110 130.7 122 120 140 120C158 120 169.3 130.7 170 144.7C170 158.7 158.8 170 140 170C122 170 110 158.7 110 144.7ZM390 390H330C330 390 330 297.4 330 290C330 270 320 250 295 249.6H294.2C270 249.6 260 270.2 260 290C260 299.1 260 390 260 390H200V200H260V225.6C260 225.6 279.3 200 318.1 200C357.8 200 390 227.3 390 282.6V390Z" fill="#71F0DA"/>
</svg>
