<svg width="478" height="478" viewBox="0 0 478 478" fill="none" xmlns="http://www.w3.org/2000/svg">
<g clip-path="url(#clip0_518_1771)">
<path d="M394.349 121.41H82.6934V412.99H394.349V121.41Z" fill="#0B1623"/>
<path d="M152.96 57.3594C84.4145 57.3594 28.6797 113.094 28.6797 181.639V353.719C28.6797 422.265 84.4145 477.999 152.96 477.999H325.04C393.585 477.999 449.32 422.265 449.32 353.719V181.639C449.32 113.094 393.585 57.3594 325.04 57.3594H152.96ZM353.72 133.839C364.236 133.839 372.84 142.443 372.84 152.959C372.84 163.475 364.236 172.079 353.72 172.079C343.204 172.079 334.6 163.475 334.6 152.959C334.6 142.443 343.204 133.839 353.72 133.839ZM239 162.519C297.029 162.519 344.16 209.65 344.16 267.679C344.16 325.709 297.029 372.839 239 372.839C180.97 372.839 133.84 325.709 133.84 267.679C133.84 209.65 180.97 162.519 239 162.519ZM239 181.639C191.582 181.639 152.96 220.262 152.96 267.679C152.96 315.097 191.582 353.719 239 353.719C286.417 353.719 325.04 315.097 325.04 267.679C325.04 220.262 286.417 181.639 239 181.639Z" fill="#71F0DA"/>
</g>
<defs>
<clipPath id="clip0_518_1771">
<rect width="478" height="478" fill="white"/>
</clipPath>
</defs>
</svg>
