<?xml version="1.0" encoding="UTF-8"?>
<svg data-bbox="-8.737 -525.641 382.389 1498.21" viewBox="0 0 360 360" xmlns="http://www.w3.org/2000/svg" data-type="ugc">
    <g>
        <path fill="#6fc5a2" d="M361.57 0v361.57H-2V0h363.57z"/>
        <text transform="translate(-8.737 6.49)">
            <tspan y="0" x="0" font-size="42" font-family="Candara" fill="#c2e4d3">0</tspan><tspan y="33" x="4.19" font-size="42" font-family="Candara" fill="#c2e4d3">1</tspan><tspan y="66" x="4.19" font-size="42" font-family="Candara" fill="#c2e4d3">1</tspan><tspan y="99" x="4.19" font-size="42" font-family="Candara" fill="#c2e4d3">1</tspan><tspan y="132" x="0" font-size="42" font-family="Candara" fill="#c2e4d3">0</tspan><tspan y="165" x="0" font-size="42" font-family="Candara" fill="#c2e4d3">0</tspan><tspan y="198" x="4.19" font-size="42" font-family="Candara" fill="#c2e4d3">1</tspan><tspan y="231" x="0" font-size="42" font-family="Candara" fill="#c2e4d3">0</tspan><tspan y="264" x="4.19" font-size="42" font-family="Candara" fill="#c2e4d3">1</tspan><tspan y="297" x="0" font-size="42" font-family="Candara" fill="#c2e4d3">0</tspan><tspan y="330" x="0" font-size="42" font-family="Candara" fill="#c2e4d3">0</tspan><tspan y="363" x="0" font-size="42" font-family="Candara" fill="#c2e4d3">0</tspan><tspan y="396" x="0" font-size="42" font-family="Candara" fill="#c2e4d3">0</tspan><tspan y="429" x="4.19" font-size="42" font-family="Candara" fill="#c2e4d3">1</tspan><tspan y="462" x="4.19" font-size="42" font-family="Candara" fill="#c2e4d3">1</tspan><tspan y="495" x="0" font-size="42" font-family="Candara" fill="#c2e4d3">0</tspan><tspan y="528" x="4.19" font-size="42" font-family="Candara" fill="#c2e4d3">1</tspan><tspan y="561" x="0" font-size="42" font-family="Candara" fill="#c2e4d3">0</tspan><tspan y="594" x="0" font-size="42" font-family="Candara" fill="#c2e4d3">0</tspan><tspan y="627" x="4.19" font-size="42" font-family="Candara" fill="#c2e4d3">1</tspan><tspan y="660" x="4.19" font-size="42" font-family="Candara" fill="#c2e4d3">1</tspan><tspan y="693" x="4.19" font-size="42" font-family="Candara" fill="#c2e4d3">1</tspan><tspan y="726" x="0" font-size="42" font-family="Candara" fill="#c2e4d3">0</tspan><tspan y="759" x="4.19" font-size="42" font-family="Candara" fill="#c2e4d3">1</tspan><tspan y="792" x="0" font-size="42" font-family="Candara" fill="#c2e4d3">0</tspan><tspan y="825" x="4.19" font-size="42" font-family="Candara" fill="#c2e4d3">1</tspan><tspan y="858" x="0" font-size="42" font-family="Candara" fill="#c2e4d3">0</tspan><tspan y="891" x="1.84" font-size="42" font-family="Candara" fill="#c2e4d3">2</tspan><tspan y="924" x="0" font-size="42" font-family="Candara" fill="#c2e4d3">0</tspan><tspan y="957" x="4.19" font-size="42" font-family="Candara" fill="#c2e4d3">1</tspan>
        </text>
        <text transform="translate(16.944 -125.776)">
            <tspan y="0" x="0" font-size="42" font-family="Candara" fill="#c2e4d3">0</tspan><tspan y="33" x="4.19" font-size="42" font-family="Candara" fill="#c2e4d3">1</tspan><tspan y="66" x="4.19" font-size="42" font-family="Candara" fill="#c2e4d3">1</tspan><tspan y="99" x="4.19" font-size="42" font-family="Candara" fill="#c2e4d3">1</tspan><tspan y="132" x="0" font-size="42" font-family="Candara" fill="#c2e4d3">0</tspan><tspan y="165" x="0" font-size="42" font-family="Candara" fill="#c2e4d3">0</tspan><tspan y="198" x="4.19" font-size="42" font-family="Candara" fill="#c2e4d3">1</tspan><tspan y="231" x="0" font-size="42" font-family="Candara" fill="#c2e4d3">0</tspan><tspan y="264" x="4.19" font-size="42" font-family="Candara" fill="#c2e4d3">1</tspan><tspan y="297" x="0" font-size="42" font-family="Candara" fill="#c2e4d3">0</tspan><tspan y="330" x="0" font-size="42" font-family="Candara" fill="#c2e4d3">0</tspan><tspan y="363" x="0" font-size="42" font-family="Candara" fill="#c2e4d3">0</tspan><tspan y="396" x="0" font-size="42" font-family="Candara" fill="#c2e4d3">0</tspan><tspan y="429" x="4.19" font-size="42" font-family="Candara" fill="#c2e4d3">1</tspan><tspan y="462" x="4.19" font-size="42" font-family="Candara" fill="#c2e4d3">1</tspan><tspan y="495" x="0" font-size="42" font-family="Candara" fill="#c2e4d3">0</tspan><tspan y="528" x="4.19" font-size="42" font-family="Candara" fill="#c2e4d3">1</tspan><tspan y="561" x="0" font-size="42" font-family="Candara" fill="#c2e4d3">0</tspan><tspan y="594" x="0" font-size="42" font-family="Candara" fill="#c2e4d3">0</tspan><tspan y="627" x="4.19" font-size="42" font-family="Candara" fill="#c2e4d3">1</tspan><tspan y="660" x="4.19" font-size="42" font-family="Candara" fill="#c2e4d3">1</tspan><tspan y="693" x="4.19" font-size="42" font-family="Candara" fill="#c2e4d3">1</tspan><tspan y="726" x="0" font-size="42" font-family="Candara" fill="#c2e4d3">0</tspan><tspan y="759" x="4.19" font-size="42" font-family="Candara" fill="#c2e4d3">1</tspan><tspan y="792" x="0" font-size="42" font-family="Candara" fill="#c2e4d3">0</tspan><tspan y="825" x="4.19" font-size="42" font-family="Candara" fill="#c2e4d3">1</tspan><tspan y="858" x="0" font-size="42" font-family="Candara" fill="#c2e4d3">0</tspan><tspan y="891" x="1.84" font-size="42" font-family="Candara" fill="#c2e4d3">2</tspan><tspan y="924" x="0" font-size="42" font-family="Candara" fill="#c2e4d3">0</tspan><tspan y="957" x="4.19" font-size="42" font-family="Candara" fill="#c2e4d3">1</tspan>
        </text>
        <text transform="translate(42.944 -257.776)">
            <tspan y="0" x="0" font-size="42" font-family="Candara" fill="#c2e4d3">0</tspan><tspan y="33" x="4.19" font-size="42" font-family="Candara" fill="#c2e4d3">1</tspan><tspan y="66" x="4.19" font-size="42" font-family="Candara" fill="#c2e4d3">1</tspan><tspan y="99" x="4.19" font-size="42" font-family="Candara" fill="#c2e4d3">1</tspan><tspan y="132" x="0" font-size="42" font-family="Candara" fill="#c2e4d3">0</tspan><tspan y="165" x="0" font-size="42" font-family="Candara" fill="#c2e4d3">0</tspan><tspan y="198" x="4.19" font-size="42" font-family="Candara" fill="#c2e4d3">1</tspan><tspan y="231" x="0" font-size="42" font-family="Candara" fill="#c2e4d3">0</tspan><tspan y="264" x="4.19" font-size="42" font-family="Candara" fill="#c2e4d3">1</tspan><tspan y="297" x="0" font-size="42" font-family="Candara" fill="#c2e4d3">0</tspan><tspan y="330" x="0" font-size="42" font-family="Candara" fill="#c2e4d3">0</tspan><tspan y="363" x="0" font-size="42" font-family="Candara" fill="#c2e4d3">0</tspan><tspan y="396" x="0" font-size="42" font-family="Candara" fill="#c2e4d3">0</tspan><tspan y="429" x="4.19" font-size="42" font-family="Candara" fill="#c2e4d3">1</tspan><tspan y="462" x="4.19" font-size="42" font-family="Candara" fill="#c2e4d3">1</tspan><tspan y="495" x="0" font-size="42" font-family="Candara" fill="#c2e4d3">0</tspan><tspan y="528" x="4.19" font-size="42" font-family="Candara" fill="#c2e4d3">1</tspan><tspan y="561" x="0" font-size="42" font-family="Candara" fill="#c2e4d3">0</tspan><tspan y="594" x="0" font-size="42" font-family="Candara" fill="#c2e4d3">0</tspan><tspan y="627" x="4.19" font-size="42" font-family="Candara" fill="#c2e4d3">1</tspan><tspan y="660" x="4.19" font-size="42" font-family="Candara" fill="#c2e4d3">1</tspan><tspan y="693" x="4.19" font-size="42" font-family="Candara" fill="#c2e4d3">1</tspan><tspan y="726" x="0" font-size="42" font-family="Candara" fill="#c2e4d3">0</tspan><tspan y="759" x="4.19" font-size="42" font-family="Candara" fill="#c2e4d3">1</tspan><tspan y="792" x="0" font-size="42" font-family="Candara" fill="#c2e4d3">0</tspan><tspan y="825" x="4.19" font-size="42" font-family="Candara" fill="#c2e4d3">1</tspan><tspan y="858" x="0" font-size="42" font-family="Candara" fill="#c2e4d3">0</tspan><tspan y="891" x="1.84" font-size="42" font-family="Candara" fill="#c2e4d3">2</tspan><tspan y="924" x="0" font-size="42" font-family="Candara" fill="#c2e4d3">0</tspan><tspan y="957" x="4.19" font-size="42" font-family="Candara" fill="#c2e4d3">1</tspan>
        </text>
        <text transform="translate(68.944 -92.776)">
            <tspan y="0" x="0" font-size="42" font-family="Candara" fill="#c2e4d3">0</tspan><tspan y="33" x="4.19" font-size="42" font-family="Candara" fill="#c2e4d3">1</tspan><tspan y="66" x="4.19" font-size="42" font-family="Candara" fill="#c2e4d3">1</tspan><tspan y="99" x="4.19" font-size="42" font-family="Candara" fill="#c2e4d3">1</tspan><tspan y="132" x="0" font-size="42" font-family="Candara" fill="#c2e4d3">0</tspan><tspan y="165" x="0" font-size="42" font-family="Candara" fill="#c2e4d3">0</tspan><tspan y="198" x="4.19" font-size="42" font-family="Candara" fill="#c2e4d3">1</tspan><tspan y="231" x="0" font-size="42" font-family="Candara" fill="#c2e4d3">0</tspan><tspan y="264" x="4.19" font-size="42" font-family="Candara" fill="#c2e4d3">1</tspan><tspan y="297" x="0" font-size="42" font-family="Candara" fill="#c2e4d3">0</tspan><tspan y="330" x="0" font-size="42" font-family="Candara" fill="#c2e4d3">0</tspan><tspan y="363" x="0" font-size="42" font-family="Candara" fill="#c2e4d3">0</tspan><tspan y="396" x="0" font-size="42" font-family="Candara" fill="#c2e4d3">0</tspan><tspan y="429" x="4.19" font-size="42" font-family="Candara" fill="#c2e4d3">1</tspan><tspan y="462" x="4.19" font-size="42" font-family="Candara" fill="#c2e4d3">1</tspan><tspan y="495" x="0" font-size="42" font-family="Candara" fill="#c2e4d3">0</tspan><tspan y="528" x="4.19" font-size="42" font-family="Candara" fill="#c2e4d3">1</tspan><tspan y="561" x="0" font-size="42" font-family="Candara" fill="#c2e4d3">0</tspan><tspan y="594" x="0" font-size="42" font-family="Candara" fill="#c2e4d3">0</tspan><tspan y="627" x="4.19" font-size="42" font-family="Candara" fill="#c2e4d3">1</tspan><tspan y="660" x="4.19" font-size="42" font-family="Candara" fill="#c2e4d3">1</tspan><tspan y="693" x="4.19" font-size="42" font-family="Candara" fill="#c2e4d3">1</tspan><tspan y="726" x="0" font-size="42" font-family="Candara" fill="#c2e4d3">0</tspan><tspan y="759" x="4.19" font-size="42" font-family="Candara" fill="#c2e4d3">1</tspan><tspan y="792" x="0" font-size="42" font-family="Candara" fill="#c2e4d3">0</tspan><tspan y="825" x="4.19" font-size="42" font-family="Candara" fill="#c2e4d3">1</tspan><tspan y="858" x="0" font-size="42" font-family="Candara" fill="#c2e4d3">0</tspan><tspan y="891" x="1.84" font-size="42" font-family="Candara" fill="#c2e4d3">2</tspan><tspan y="924" x="0" font-size="42" font-family="Candara" fill="#c2e4d3">0</tspan><tspan y="957" x="4.19" font-size="42" font-family="Candara" fill="#c2e4d3">1</tspan>
        </text>
        <text transform="translate(94.944 -26.776)">
            <tspan y="0" x="0" font-size="42" font-family="Candara" fill="#c2e4d3">0</tspan><tspan y="33" x="4.19" font-size="42" font-family="Candara" fill="#c2e4d3">1</tspan><tspan y="66" x="4.19" font-size="42" font-family="Candara" fill="#c2e4d3">1</tspan><tspan y="99" x="4.19" font-size="42" font-family="Candara" fill="#c2e4d3">1</tspan><tspan y="132" x="0" font-size="42" font-family="Candara" fill="#c2e4d3">0</tspan><tspan y="165" x="0" font-size="42" font-family="Candara" fill="#c2e4d3">0</tspan><tspan y="198" x="4.19" font-size="42" font-family="Candara" fill="#c2e4d3">1</tspan><tspan y="231" x="0" font-size="42" font-family="Candara" fill="#c2e4d3">0</tspan><tspan y="264" x="4.19" font-size="42" font-family="Candara" fill="#c2e4d3">1</tspan><tspan y="297" x="0" font-size="42" font-family="Candara" fill="#c2e4d3">0</tspan><tspan y="330" x="0" font-size="42" font-family="Candara" fill="#c2e4d3">0</tspan><tspan y="363" x="0" font-size="42" font-family="Candara" fill="#c2e4d3">0</tspan><tspan y="396" x="0" font-size="42" font-family="Candara" fill="#c2e4d3">0</tspan><tspan y="429" x="4.19" font-size="42" font-family="Candara" fill="#c2e4d3">1</tspan><tspan y="462" x="4.19" font-size="42" font-family="Candara" fill="#c2e4d3">1</tspan><tspan y="495" x="0" font-size="42" font-family="Candara" fill="#c2e4d3">0</tspan><tspan y="528" x="4.19" font-size="42" font-family="Candara" fill="#c2e4d3">1</tspan><tspan y="561" x="0" font-size="42" font-family="Candara" fill="#c2e4d3">0</tspan><tspan y="594" x="0" font-size="42" font-family="Candara" fill="#c2e4d3">0</tspan><tspan y="627" x="4.19" font-size="42" font-family="Candara" fill="#c2e4d3">1</tspan><tspan y="660" x="4.19" font-size="42" font-family="Candara" fill="#c2e4d3">1</tspan><tspan y="693" x="4.19" font-size="42" font-family="Candara" fill="#c2e4d3">1</tspan><tspan y="726" x="0" font-size="42" font-family="Candara" fill="#c2e4d3">0</tspan><tspan y="759" x="4.19" font-size="42" font-family="Candara" fill="#c2e4d3">1</tspan><tspan y="792" x="0" font-size="42" font-family="Candara" fill="#c2e4d3">0</tspan><tspan y="825" x="4.19" font-size="42" font-family="Candara" fill="#c2e4d3">1</tspan><tspan y="858" x="0" font-size="42" font-family="Candara" fill="#c2e4d3">0</tspan><tspan y="891" x="1.84" font-size="42" font-family="Candara" fill="#c2e4d3">2</tspan><tspan y="924" x="0" font-size="42" font-family="Candara" fill="#c2e4d3">0</tspan><tspan y="957" x="4.19" font-size="42" font-family="Candara" fill="#c2e4d3">1</tspan>
        </text>
        <text transform="translate(120.373 -488.204)">
            <tspan y="0" x="0" font-size="42" font-family="Candara" fill="#c2e4d3">0</tspan><tspan y="33" x="4.19" font-size="42" font-family="Candara" fill="#c2e4d3">1</tspan><tspan y="66" x="4.19" font-size="42" font-family="Candara" fill="#c2e4d3">1</tspan><tspan y="99" x="4.19" font-size="42" font-family="Candara" fill="#c2e4d3">1</tspan><tspan y="132" x="0" font-size="42" font-family="Candara" fill="#c2e4d3">0</tspan><tspan y="165" x="0" font-size="42" font-family="Candara" fill="#c2e4d3">0</tspan><tspan y="198" x="4.19" font-size="42" font-family="Candara" fill="#c2e4d3">1</tspan><tspan y="231" x="0" font-size="42" font-family="Candara" fill="#c2e4d3">0</tspan><tspan y="264" x="4.19" font-size="42" font-family="Candara" fill="#c2e4d3">1</tspan><tspan y="297" x="0" font-size="42" font-family="Candara" fill="#c2e4d3">0</tspan><tspan y="330" x="0" font-size="42" font-family="Candara" fill="#c2e4d3">0</tspan><tspan y="363" x="0" font-size="42" font-family="Candara" fill="#c2e4d3">0</tspan><tspan y="396" x="0" font-size="42" font-family="Candara" fill="#c2e4d3">0</tspan><tspan y="429" x="4.19" font-size="42" font-family="Candara" fill="#c2e4d3">1</tspan><tspan y="462" x="4.19" font-size="42" font-family="Candara" fill="#c2e4d3">1</tspan><tspan y="495" x="0" font-size="42" font-family="Candara" fill="#c2e4d3">0</tspan><tspan y="528" x="4.19" font-size="42" font-family="Candara" fill="#c2e4d3">1</tspan><tspan y="561" x="0" font-size="42" font-family="Candara" fill="#c2e4d3">0</tspan><tspan y="594" x="0" font-size="42" font-family="Candara" fill="#c2e4d3">0</tspan><tspan y="627" x="4.19" font-size="42" font-family="Candara" fill="#c2e4d3">1</tspan><tspan y="660" x="4.19" font-size="42" font-family="Candara" fill="#c2e4d3">1</tspan><tspan y="693" x="4.19" font-size="42" font-family="Candara" fill="#c2e4d3">1</tspan><tspan y="726" x="0" font-size="42" font-family="Candara" fill="#c2e4d3">0</tspan><tspan y="759" x="4.19" font-size="42" font-family="Candara" fill="#c2e4d3">1</tspan><tspan y="792" x="0" font-size="42" font-family="Candara" fill="#c2e4d3">0</tspan><tspan y="825" x="4.19" font-size="42" font-family="Candara" fill="#c2e4d3">1</tspan><tspan y="858" x="0" font-size="42" font-family="Candara" fill="#c2e4d3">0</tspan><tspan y="891" x="1.84" font-size="42" font-family="Candara" fill="#c2e4d3">2</tspan><tspan y="924" x="0" font-size="42" font-family="Candara" fill="#c2e4d3">0</tspan><tspan y="957" x="4.19" font-size="42" font-family="Candara" fill="#c2e4d3">1</tspan>
        </text>
        <text transform="translate(144.702 -357.18)">
            <tspan y="0" x="0" font-size="42" font-family="Candara" fill="#c2e4d3">0</tspan><tspan y="33" x="4.19" font-size="42" font-family="Candara" fill="#c2e4d3">1</tspan><tspan y="66" x="4.19" font-size="42" font-family="Candara" fill="#c2e4d3">1</tspan><tspan y="99" x="4.19" font-size="42" font-family="Candara" fill="#c2e4d3">1</tspan><tspan y="132" x="0" font-size="42" font-family="Candara" fill="#c2e4d3">0</tspan><tspan y="165" x="0" font-size="42" font-family="Candara" fill="#c2e4d3">0</tspan><tspan y="198" x="4.19" font-size="42" font-family="Candara" fill="#c2e4d3">1</tspan><tspan y="231" x="0" font-size="42" font-family="Candara" fill="#c2e4d3">0</tspan><tspan y="264" x="4.19" font-size="42" font-family="Candara" fill="#c2e4d3">1</tspan><tspan y="297" x="0" font-size="42" font-family="Candara" fill="#c2e4d3">0</tspan><tspan y="330" x="0" font-size="42" font-family="Candara" fill="#c2e4d3">0</tspan><tspan y="363" x="0" font-size="42" font-family="Candara" fill="#c2e4d3">0</tspan><tspan y="396" x="0" font-size="42" font-family="Candara" fill="#c2e4d3">0</tspan><tspan y="429" x="4.19" font-size="42" font-family="Candara" fill="#c2e4d3">1</tspan><tspan y="462" x="4.19" font-size="42" font-family="Candara" fill="#c2e4d3">1</tspan><tspan y="495" x="0" font-size="42" font-family="Candara" fill="#c2e4d3">0</tspan><tspan y="528" x="4.19" font-size="42" font-family="Candara" fill="#c2e4d3">1</tspan><tspan y="561" x="0" font-size="42" font-family="Candara" fill="#c2e4d3">0</tspan><tspan y="594" x="0" font-size="42" font-family="Candara" fill="#c2e4d3">0</tspan><tspan y="627" x="4.19" font-size="42" font-family="Candara" fill="#c2e4d3">1</tspan><tspan y="660" x="4.19" font-size="42" font-family="Candara" fill="#c2e4d3">1</tspan><tspan y="693" x="4.19" font-size="42" font-family="Candara" fill="#c2e4d3">1</tspan><tspan y="726" x="0" font-size="42" font-family="Candara" fill="#c2e4d3">0</tspan><tspan y="759" x="4.19" font-size="42" font-family="Candara" fill="#c2e4d3">1</tspan><tspan y="792" x="0" font-size="42" font-family="Candara" fill="#c2e4d3">0</tspan><tspan y="825" x="4.19" font-size="42" font-family="Candara" fill="#c2e4d3">1</tspan><tspan y="858" x="0" font-size="42" font-family="Candara" fill="#c2e4d3">0</tspan><tspan y="891" x="1.84" font-size="42" font-family="Candara" fill="#c2e4d3">2</tspan><tspan y="924" x="0" font-size="42" font-family="Candara" fill="#c2e4d3">0</tspan><tspan y="957" x="4.19" font-size="42" font-family="Candara" fill="#c2e4d3">1</tspan>
        </text>
        <text transform="translate(167.715 -324.303)">
            <tspan y="0" x="0" font-size="42" font-family="Candara" fill="#c2e4d3">0</tspan><tspan y="33" x="4.19" font-size="42" font-family="Candara" fill="#c2e4d3">1</tspan><tspan y="66" x="4.19" font-size="42" font-family="Candara" fill="#c2e4d3">1</tspan><tspan y="99" x="4.19" font-size="42" font-family="Candara" fill="#c2e4d3">1</tspan><tspan y="132" x="0" font-size="42" font-family="Candara" fill="#c2e4d3">0</tspan><tspan y="165" x="0" font-size="42" font-family="Candara" fill="#c2e4d3">0</tspan><tspan y="198" x="4.19" font-size="42" font-family="Candara" fill="#c2e4d3">1</tspan><tspan y="231" x="0" font-size="42" font-family="Candara" fill="#c2e4d3">0</tspan><tspan y="264" x="4.19" font-size="42" font-family="Candara" fill="#c2e4d3">1</tspan><tspan y="297" x="0" font-size="42" font-family="Candara" fill="#c2e4d3">0</tspan><tspan y="330" x="0" font-size="42" font-family="Candara" fill="#c2e4d3">0</tspan><tspan y="363" x="0" font-size="42" font-family="Candara" fill="#c2e4d3">0</tspan><tspan y="396" x="0" font-size="42" font-family="Candara" fill="#c2e4d3">0</tspan><tspan y="429" x="4.19" font-size="42" font-family="Candara" fill="#c2e4d3">1</tspan><tspan y="462" x="4.19" font-size="42" font-family="Candara" fill="#c2e4d3">1</tspan><tspan y="495" x="0" font-size="42" font-family="Candara" fill="#c2e4d3">0</tspan><tspan y="528" x="4.19" font-size="42" font-family="Candara" fill="#c2e4d3">1</tspan><tspan y="561" x="0" font-size="42" font-family="Candara" fill="#c2e4d3">0</tspan><tspan y="594" x="0" font-size="42" font-family="Candara" fill="#c2e4d3">0</tspan><tspan y="627" x="4.19" font-size="42" font-family="Candara" fill="#c2e4d3">1</tspan><tspan y="660" x="4.19" font-size="42" font-family="Candara" fill="#c2e4d3">1</tspan><tspan y="693" x="4.19" font-size="42" font-family="Candara" fill="#c2e4d3">1</tspan><tspan y="726" x="0" font-size="42" font-family="Candara" fill="#c2e4d3">0</tspan><tspan y="759" x="4.19" font-size="42" font-family="Candara" fill="#c2e4d3">1</tspan><tspan y="792" x="0" font-size="42" font-family="Candara" fill="#c2e4d3">0</tspan><tspan y="825" x="4.19" font-size="42" font-family="Candara" fill="#c2e4d3">1</tspan><tspan y="858" x="0" font-size="42" font-family="Candara" fill="#c2e4d3">0</tspan><tspan y="891" x="1.84" font-size="42" font-family="Candara" fill="#c2e4d3">2</tspan><tspan y="924" x="0" font-size="42" font-family="Candara" fill="#c2e4d3">0</tspan><tspan y="957" x="4.19" font-size="42" font-family="Candara" fill="#c2e4d3">1</tspan>
        </text>
        <text transform="translate(191.363 -291.875)">
            <tspan y="0" x="0" font-size="42" font-family="Candara" fill="#c2e4d3">0</tspan><tspan y="33" x="4.19" font-size="42" font-family="Candara" fill="#c2e4d3">1</tspan><tspan y="66" x="4.19" font-size="42" font-family="Candara" fill="#c2e4d3">1</tspan><tspan y="99" x="4.19" font-size="42" font-family="Candara" fill="#c2e4d3">1</tspan><tspan y="132" x="0" font-size="42" font-family="Candara" fill="#c2e4d3">0</tspan><tspan y="165" x="0" font-size="42" font-family="Candara" fill="#c2e4d3">0</tspan><tspan y="198" x="4.19" font-size="42" font-family="Candara" fill="#c2e4d3">1</tspan><tspan y="231" x="0" font-size="42" font-family="Candara" fill="#c2e4d3">0</tspan><tspan y="264" x="4.19" font-size="42" font-family="Candara" fill="#c2e4d3">1</tspan><tspan y="297" x="0" font-size="42" font-family="Candara" fill="#c2e4d3">0</tspan><tspan y="330" x="0" font-size="42" font-family="Candara" fill="#c2e4d3">0</tspan><tspan y="363" x="0" font-size="42" font-family="Candara" fill="#c2e4d3">0</tspan><tspan y="396" x="0" font-size="42" font-family="Candara" fill="#c2e4d3">0</tspan><tspan y="429" x="4.19" font-size="42" font-family="Candara" fill="#c2e4d3">1</tspan><tspan y="462" x="4.19" font-size="42" font-family="Candara" fill="#c2e4d3">1</tspan><tspan y="495" x="0" font-size="42" font-family="Candara" fill="#c2e4d3">0</tspan><tspan y="528" x="4.19" font-size="42" font-family="Candara" fill="#c2e4d3">1</tspan><tspan y="561" x="0" font-size="42" font-family="Candara" fill="#c2e4d3">0</tspan><tspan y="594" x="0" font-size="42" font-family="Candara" fill="#c2e4d3">0</tspan><tspan y="627" x="4.19" font-size="42" font-family="Candara" fill="#c2e4d3">1</tspan><tspan y="660" x="4.19" font-size="42" font-family="Candara" fill="#c2e4d3">1</tspan><tspan y="693" x="4.19" font-size="42" font-family="Candara" fill="#c2e4d3">1</tspan><tspan y="726" x="0" font-size="42" font-family="Candara" fill="#c2e4d3">0</tspan><tspan y="759" x="4.19" font-size="42" font-family="Candara" fill="#c2e4d3">1</tspan><tspan y="792" x="0" font-size="42" font-family="Candara" fill="#c2e4d3">0</tspan><tspan y="825" x="4.19" font-size="42" font-family="Candara" fill="#c2e4d3">1</tspan><tspan y="858" x="0" font-size="42" font-family="Candara" fill="#c2e4d3">0</tspan><tspan y="891" x="1.84" font-size="42" font-family="Candara" fill="#c2e4d3">2</tspan><tspan y="924" x="0" font-size="42" font-family="Candara" fill="#c2e4d3">0</tspan><tspan y="957" x="4.19" font-size="42" font-family="Candara" fill="#c2e4d3">1</tspan>
        </text>
        <text transform="translate(215.363 -126.733)">
            <tspan y="0" x="0" font-size="42" font-family="Candara" fill="#c2e4d3">0</tspan><tspan y="33" x="4.19" font-size="42" font-family="Candara" fill="#c2e4d3">1</tspan><tspan y="66" x="4.19" font-size="42" font-family="Candara" fill="#c2e4d3">1</tspan><tspan y="99" x="4.19" font-size="42" font-family="Candara" fill="#c2e4d3">1</tspan><tspan y="132" x="0" font-size="42" font-family="Candara" fill="#c2e4d3">0</tspan><tspan y="165" x="0" font-size="42" font-family="Candara" fill="#c2e4d3">0</tspan><tspan y="198" x="4.19" font-size="42" font-family="Candara" fill="#c2e4d3">1</tspan><tspan y="231" x="0" font-size="42" font-family="Candara" fill="#c2e4d3">0</tspan><tspan y="264" x="4.19" font-size="42" font-family="Candara" fill="#c2e4d3">1</tspan><tspan y="297" x="0" font-size="42" font-family="Candara" fill="#c2e4d3">0</tspan><tspan y="330" x="0" font-size="42" font-family="Candara" fill="#c2e4d3">0</tspan><tspan y="363" x="0" font-size="42" font-family="Candara" fill="#c2e4d3">0</tspan><tspan y="396" x="0" font-size="42" font-family="Candara" fill="#c2e4d3">0</tspan><tspan y="429" x="4.19" font-size="42" font-family="Candara" fill="#c2e4d3">1</tspan><tspan y="462" x="4.19" font-size="42" font-family="Candara" fill="#c2e4d3">1</tspan><tspan y="495" x="0" font-size="42" font-family="Candara" fill="#c2e4d3">0</tspan><tspan y="528" x="4.19" font-size="42" font-family="Candara" fill="#c2e4d3">1</tspan><tspan y="561" x="0" font-size="42" font-family="Candara" fill="#c2e4d3">0</tspan><tspan y="594" x="0" font-size="42" font-family="Candara" fill="#c2e4d3">0</tspan><tspan y="627" x="4.19" font-size="42" font-family="Candara" fill="#c2e4d3">1</tspan><tspan y="660" x="4.19" font-size="42" font-family="Candara" fill="#c2e4d3">1</tspan><tspan y="693" x="4.19" font-size="42" font-family="Candara" fill="#c2e4d3">1</tspan><tspan y="726" x="0" font-size="42" font-family="Candara" fill="#c2e4d3">0</tspan><tspan y="759" x="4.19" font-size="42" font-family="Candara" fill="#c2e4d3">1</tspan><tspan y="792" x="0" font-size="42" font-family="Candara" fill="#c2e4d3">0</tspan><tspan y="825" x="4.19" font-size="42" font-family="Candara" fill="#c2e4d3">1</tspan><tspan y="858" x="0" font-size="42" font-family="Candara" fill="#c2e4d3">0</tspan><tspan y="891" x="1.84" font-size="42" font-family="Candara" fill="#c2e4d3">2</tspan><tspan y="924" x="0" font-size="42" font-family="Candara" fill="#c2e4d3">0</tspan><tspan y="957" x="4.19" font-size="42" font-family="Candara" fill="#c2e4d3">1</tspan>
        </text>
        <text transform="translate(239.934 5.125)">
            <tspan y="0" x="0" font-size="42" font-family="Candara" fill="#c2e4d3">0</tspan><tspan y="33" x="4.19" font-size="42" font-family="Candara" fill="#c2e4d3">1</tspan><tspan y="66" x="4.19" font-size="42" font-family="Candara" fill="#c2e4d3">1</tspan><tspan y="99" x="4.19" font-size="42" font-family="Candara" fill="#c2e4d3">1</tspan><tspan y="132" x="0" font-size="42" font-family="Candara" fill="#c2e4d3">0</tspan><tspan y="165" x="0" font-size="42" font-family="Candara" fill="#c2e4d3">0</tspan><tspan y="198" x="4.19" font-size="42" font-family="Candara" fill="#c2e4d3">1</tspan><tspan y="231" x="0" font-size="42" font-family="Candara" fill="#c2e4d3">0</tspan><tspan y="264" x="4.19" font-size="42" font-family="Candara" fill="#c2e4d3">1</tspan><tspan y="297" x="0" font-size="42" font-family="Candara" fill="#c2e4d3">0</tspan><tspan y="330" x="0" font-size="42" font-family="Candara" fill="#c2e4d3">0</tspan><tspan y="363" x="0" font-size="42" font-family="Candara" fill="#c2e4d3">0</tspan><tspan y="396" x="0" font-size="42" font-family="Candara" fill="#c2e4d3">0</tspan><tspan y="429" x="4.19" font-size="42" font-family="Candara" fill="#c2e4d3">1</tspan><tspan y="462" x="4.19" font-size="42" font-family="Candara" fill="#c2e4d3">1</tspan><tspan y="495" x="0" font-size="42" font-family="Candara" fill="#c2e4d3">0</tspan><tspan y="528" x="4.19" font-size="42" font-family="Candara" fill="#c2e4d3">1</tspan><tspan y="561" x="0" font-size="42" font-family="Candara" fill="#c2e4d3">0</tspan><tspan y="594" x="0" font-size="42" font-family="Candara" fill="#c2e4d3">0</tspan><tspan y="627" x="4.19" font-size="42" font-family="Candara" fill="#c2e4d3">1</tspan><tspan y="660" x="4.19" font-size="42" font-family="Candara" fill="#c2e4d3">1</tspan><tspan y="693" x="4.19" font-size="42" font-family="Candara" fill="#c2e4d3">1</tspan><tspan y="726" x="0" font-size="42" font-family="Candara" fill="#c2e4d3">0</tspan><tspan y="759" x="4.19" font-size="42" font-family="Candara" fill="#c2e4d3">1</tspan><tspan y="792" x="0" font-size="42" font-family="Candara" fill="#c2e4d3">0</tspan><tspan y="825" x="4.19" font-size="42" font-family="Candara" fill="#c2e4d3">1</tspan><tspan y="858" x="0" font-size="42" font-family="Candara" fill="#c2e4d3">0</tspan><tspan y="891" x="1.84" font-size="42" font-family="Candara" fill="#c2e4d3">2</tspan><tspan y="924" x="0" font-size="42" font-family="Candara" fill="#c2e4d3">0</tspan><tspan y="957" x="4.19" font-size="42" font-family="Candara" fill="#c2e4d3">1</tspan>
        </text>
        <text transform="translate(259.648 -27.733)">
            <tspan y="0" x="0" font-size="42" font-family="Candara" fill="#c2e4d3">0</tspan><tspan y="33" x="4.19" font-size="42" font-family="Candara" fill="#c2e4d3">1</tspan><tspan y="66" x="4.19" font-size="42" font-family="Candara" fill="#c2e4d3">1</tspan><tspan y="99" x="4.19" font-size="42" font-family="Candara" fill="#c2e4d3">1</tspan><tspan y="132" x="0" font-size="42" font-family="Candara" fill="#c2e4d3">0</tspan><tspan y="165" x="0" font-size="42" font-family="Candara" fill="#c2e4d3">0</tspan><tspan y="198" x="4.19" font-size="42" font-family="Candara" fill="#c2e4d3">1</tspan><tspan y="231" x="0" font-size="42" font-family="Candara" fill="#c2e4d3">0</tspan><tspan y="264" x="4.19" font-size="42" font-family="Candara" fill="#c2e4d3">1</tspan><tspan y="297" x="0" font-size="42" font-family="Candara" fill="#c2e4d3">0</tspan><tspan y="330" x="0" font-size="42" font-family="Candara" fill="#c2e4d3">0</tspan><tspan y="363" x="0" font-size="42" font-family="Candara" fill="#c2e4d3">0</tspan><tspan y="396" x="0" font-size="42" font-family="Candara" fill="#c2e4d3">0</tspan><tspan y="429" x="4.19" font-size="42" font-family="Candara" fill="#c2e4d3">1</tspan><tspan y="462" x="4.19" font-size="42" font-family="Candara" fill="#c2e4d3">1</tspan><tspan y="495" x="0" font-size="42" font-family="Candara" fill="#c2e4d3">0</tspan><tspan y="528" x="4.19" font-size="42" font-family="Candara" fill="#c2e4d3">1</tspan><tspan y="561" x="0" font-size="42" font-family="Candara" fill="#c2e4d3">0</tspan><tspan y="594" x="0" font-size="42" font-family="Candara" fill="#c2e4d3">0</tspan><tspan y="627" x="4.19" font-size="42" font-family="Candara" fill="#c2e4d3">1</tspan><tspan y="660" x="4.19" font-size="42" font-family="Candara" fill="#c2e4d3">1</tspan><tspan y="693" x="4.19" font-size="42" font-family="Candara" fill="#c2e4d3">1</tspan><tspan y="726" x="0" font-size="42" font-family="Candara" fill="#c2e4d3">0</tspan><tspan y="759" x="4.19" font-size="42" font-family="Candara" fill="#c2e4d3">1</tspan><tspan y="792" x="0" font-size="42" font-family="Candara" fill="#c2e4d3">0</tspan><tspan y="825" x="4.19" font-size="42" font-family="Candara" fill="#c2e4d3">1</tspan><tspan y="858" x="0" font-size="42" font-family="Candara" fill="#c2e4d3">0</tspan><tspan y="891" x="1.84" font-size="42" font-family="Candara" fill="#c2e4d3">2</tspan><tspan y="924" x="0" font-size="42" font-family="Candara" fill="#c2e4d3">0</tspan><tspan y="957" x="4.19" font-size="42" font-family="Candara" fill="#c2e4d3">1</tspan>
        </text>
        <text transform="translate(280.791 -93.18)">
            <tspan y="0" x="0" font-size="42" font-family="Candara" fill="#c2e4d3">0</tspan><tspan y="33" x="4.19" font-size="42" font-family="Candara" fill="#c2e4d3">1</tspan><tspan y="66" x="4.19" font-size="42" font-family="Candara" fill="#c2e4d3">1</tspan><tspan y="99" x="4.19" font-size="42" font-family="Candara" fill="#c2e4d3">1</tspan><tspan y="132" x="0" font-size="42" font-family="Candara" fill="#c2e4d3">0</tspan><tspan y="165" x="0" font-size="42" font-family="Candara" fill="#c2e4d3">0</tspan><tspan y="198" x="4.19" font-size="42" font-family="Candara" fill="#c2e4d3">1</tspan><tspan y="231" x="0" font-size="42" font-family="Candara" fill="#c2e4d3">0</tspan><tspan y="264" x="4.19" font-size="42" font-family="Candara" fill="#c2e4d3">1</tspan><tspan y="297" x="0" font-size="42" font-family="Candara" fill="#c2e4d3">0</tspan><tspan y="330" x="0" font-size="42" font-family="Candara" fill="#c2e4d3">0</tspan><tspan y="363" x="0" font-size="42" font-family="Candara" fill="#c2e4d3">0</tspan><tspan y="396" x="0" font-size="42" font-family="Candara" fill="#c2e4d3">0</tspan><tspan y="429" x="4.19" font-size="42" font-family="Candara" fill="#c2e4d3">1</tspan><tspan y="462" x="4.19" font-size="42" font-family="Candara" fill="#c2e4d3">1</tspan><tspan y="495" x="0" font-size="42" font-family="Candara" fill="#c2e4d3">0</tspan><tspan y="528" x="4.19" font-size="42" font-family="Candara" fill="#c2e4d3">1</tspan><tspan y="561" x="0" font-size="42" font-family="Candara" fill="#c2e4d3">0</tspan><tspan y="594" x="0" font-size="42" font-family="Candara" fill="#c2e4d3">0</tspan><tspan y="627" x="4.19" font-size="42" font-family="Candara" fill="#c2e4d3">1</tspan><tspan y="660" x="4.19" font-size="42" font-family="Candara" fill="#c2e4d3">1</tspan><tspan y="693" x="4.19" font-size="42" font-family="Candara" fill="#c2e4d3">1</tspan><tspan y="726" x="0" font-size="42" font-family="Candara" fill="#c2e4d3">0</tspan><tspan y="759" x="4.19" font-size="42" font-family="Candara" fill="#c2e4d3">1</tspan><tspan y="792" x="0" font-size="42" font-family="Candara" fill="#c2e4d3">0</tspan><tspan y="825" x="4.19" font-size="42" font-family="Candara" fill="#c2e4d3">1</tspan><tspan y="858" x="0" font-size="42" font-family="Candara" fill="#c2e4d3">0</tspan><tspan y="891" x="1.84" font-size="42" font-family="Candara" fill="#c2e4d3">2</tspan><tspan y="924" x="0" font-size="42" font-family="Candara" fill="#c2e4d3">0</tspan><tspan y="957" x="4.19" font-size="42" font-family="Candara" fill="#c2e4d3">1</tspan>
        </text>
        <text transform="translate(303.077 -224.894)">
            <tspan y="0" x="0" font-size="42" font-family="Candara" fill="#c2e4d3">0</tspan><tspan y="33" x="4.19" font-size="42" font-family="Candara" fill="#c2e4d3">1</tspan><tspan y="66" x="4.19" font-size="42" font-family="Candara" fill="#c2e4d3">1</tspan><tspan y="99" x="4.19" font-size="42" font-family="Candara" fill="#c2e4d3">1</tspan><tspan y="132" x="0" font-size="42" font-family="Candara" fill="#c2e4d3">0</tspan><tspan y="165" x="0" font-size="42" font-family="Candara" fill="#c2e4d3">0</tspan><tspan y="198" x="4.19" font-size="42" font-family="Candara" fill="#c2e4d3">1</tspan><tspan y="231" x="0" font-size="42" font-family="Candara" fill="#c2e4d3">0</tspan><tspan y="264" x="4.19" font-size="42" font-family="Candara" fill="#c2e4d3">1</tspan><tspan y="297" x="0" font-size="42" font-family="Candara" fill="#c2e4d3">0</tspan><tspan y="330" x="0" font-size="42" font-family="Candara" fill="#c2e4d3">0</tspan><tspan y="363" x="0" font-size="42" font-family="Candara" fill="#c2e4d3">0</tspan><tspan y="396" x="0" font-size="42" font-family="Candara" fill="#c2e4d3">0</tspan><tspan y="429" x="4.19" font-size="42" font-family="Candara" fill="#c2e4d3">1</tspan><tspan y="462" x="4.19" font-size="42" font-family="Candara" fill="#c2e4d3">1</tspan><tspan y="495" x="0" font-size="42" font-family="Candara" fill="#c2e4d3">0</tspan><tspan y="528" x="4.19" font-size="42" font-family="Candara" fill="#c2e4d3">1</tspan><tspan y="561" x="0" font-size="42" font-family="Candara" fill="#c2e4d3">0</tspan><tspan y="594" x="0" font-size="42" font-family="Candara" fill="#c2e4d3">0</tspan><tspan y="627" x="4.19" font-size="42" font-family="Candara" fill="#c2e4d3">1</tspan><tspan y="660" x="4.19" font-size="42" font-family="Candara" fill="#c2e4d3">1</tspan><tspan y="693" x="4.19" font-size="42" font-family="Candara" fill="#c2e4d3">1</tspan><tspan y="726" x="0" font-size="42" font-family="Candara" fill="#c2e4d3">0</tspan><tspan y="759" x="4.19" font-size="42" font-family="Candara" fill="#c2e4d3">1</tspan><tspan y="792" x="0" font-size="42" font-family="Candara" fill="#c2e4d3">0</tspan><tspan y="825" x="4.19" font-size="42" font-family="Candara" fill="#c2e4d3">1</tspan><tspan y="858" x="0" font-size="42" font-family="Candara" fill="#c2e4d3">0</tspan><tspan y="891" x="1.84" font-size="42" font-family="Candara" fill="#c2e4d3">2</tspan><tspan y="924" x="0" font-size="42" font-family="Candara" fill="#c2e4d3">0</tspan><tspan y="957" x="4.19" font-size="42" font-family="Candara" fill="#c2e4d3">1</tspan>
        </text>
        <text transform="translate(325.363 -125.465)">
            <tspan y="0" x="0" font-size="42" font-family="Candara" fill="#c2e4d3">0</tspan><tspan y="33" x="4.19" font-size="42" font-family="Candara" fill="#c2e4d3">1</tspan><tspan y="66" x="4.19" font-size="42" font-family="Candara" fill="#c2e4d3">1</tspan><tspan y="99" x="4.19" font-size="42" font-family="Candara" fill="#c2e4d3">1</tspan><tspan y="132" x="0" font-size="42" font-family="Candara" fill="#c2e4d3">0</tspan><tspan y="165" x="0" font-size="42" font-family="Candara" fill="#c2e4d3">0</tspan><tspan y="198" x="4.19" font-size="42" font-family="Candara" fill="#c2e4d3">1</tspan><tspan y="231" x="0" font-size="42" font-family="Candara" fill="#c2e4d3">0</tspan><tspan y="264" x="4.19" font-size="42" font-family="Candara" fill="#c2e4d3">1</tspan><tspan y="297" x="0" font-size="42" font-family="Candara" fill="#c2e4d3">0</tspan><tspan y="330" x="0" font-size="42" font-family="Candara" fill="#c2e4d3">0</tspan><tspan y="363" x="0" font-size="42" font-family="Candara" fill="#c2e4d3">0</tspan><tspan y="396" x="0" font-size="42" font-family="Candara" fill="#c2e4d3">0</tspan><tspan y="429" x="4.19" font-size="42" font-family="Candara" fill="#c2e4d3">1</tspan><tspan y="462" x="4.19" font-size="42" font-family="Candara" fill="#c2e4d3">1</tspan><tspan y="495" x="0" font-size="42" font-family="Candara" fill="#c2e4d3">0</tspan><tspan y="528" x="4.19" font-size="42" font-family="Candara" fill="#c2e4d3">1</tspan><tspan y="561" x="0" font-size="42" font-family="Candara" fill="#c2e4d3">0</tspan><tspan y="594" x="0" font-size="42" font-family="Candara" fill="#c2e4d3">0</tspan><tspan y="627" x="4.19" font-size="42" font-family="Candara" fill="#c2e4d3">1</tspan><tspan y="660" x="4.19" font-size="42" font-family="Candara" fill="#c2e4d3">1</tspan><tspan y="693" x="4.19" font-size="42" font-family="Candara" fill="#c2e4d3">1</tspan><tspan y="726" x="0" font-size="42" font-family="Candara" fill="#c2e4d3">0</tspan><tspan y="759" x="4.19" font-size="42" font-family="Candara" fill="#c2e4d3">1</tspan><tspan y="792" x="0" font-size="42" font-family="Candara" fill="#c2e4d3">0</tspan><tspan y="825" x="4.19" font-size="42" font-family="Candara" fill="#c2e4d3">1</tspan><tspan y="858" x="0" font-size="42" font-family="Candara" fill="#c2e4d3">0</tspan><tspan y="891" x="1.84" font-size="42" font-family="Candara" fill="#c2e4d3">2</tspan><tspan y="924" x="0" font-size="42" font-family="Candara" fill="#c2e4d3">0</tspan><tspan y="957" x="4.19" font-size="42" font-family="Candara" fill="#c2e4d3">1</tspan>
        </text>
        <text transform="translate(348.465 5.821)">
            <tspan y="0" x="0" font-size="42" font-family="Candara" fill="#c2e4d3">0</tspan><tspan y="33" x="4.19" font-size="42" font-family="Candara" fill="#c2e4d3">1</tspan><tspan y="66" x="4.19" font-size="42" font-family="Candara" fill="#c2e4d3">1</tspan><tspan y="99" x="4.19" font-size="42" font-family="Candara" fill="#c2e4d3">1</tspan><tspan y="132" x="0" font-size="42" font-family="Candara" fill="#c2e4d3">0</tspan><tspan y="165" x="0" font-size="42" font-family="Candara" fill="#c2e4d3">0</tspan><tspan y="198" x="4.19" font-size="42" font-family="Candara" fill="#c2e4d3">1</tspan><tspan y="231" x="0" font-size="42" font-family="Candara" fill="#c2e4d3">0</tspan><tspan y="264" x="4.19" font-size="42" font-family="Candara" fill="#c2e4d3">1</tspan><tspan y="297" x="0" font-size="42" font-family="Candara" fill="#c2e4d3">0</tspan><tspan y="330" x="0" font-size="42" font-family="Candara" fill="#c2e4d3">0</tspan><tspan y="363" x="0" font-size="42" font-family="Candara" fill="#c2e4d3">0</tspan><tspan y="396" x="0" font-size="42" font-family="Candara" fill="#c2e4d3">0</tspan><tspan y="429" x="4.19" font-size="42" font-family="Candara" fill="#c2e4d3">1</tspan><tspan y="462" x="4.19" font-size="42" font-family="Candara" fill="#c2e4d3">1</tspan><tspan y="495" x="0" font-size="42" font-family="Candara" fill="#c2e4d3">0</tspan><tspan y="528" x="4.19" font-size="42" font-family="Candara" fill="#c2e4d3">1</tspan><tspan y="561" x="0" font-size="42" font-family="Candara" fill="#c2e4d3">0</tspan><tspan y="594" x="0" font-size="42" font-family="Candara" fill="#c2e4d3">0</tspan><tspan y="627" x="4.19" font-size="42" font-family="Candara" fill="#c2e4d3">1</tspan><tspan y="660" x="4.19" font-size="42" font-family="Candara" fill="#c2e4d3">1</tspan><tspan y="693" x="4.19" font-size="42" font-family="Candara" fill="#c2e4d3">1</tspan><tspan y="726" x="0" font-size="42" font-family="Candara" fill="#c2e4d3">0</tspan><tspan y="759" x="4.19" font-size="42" font-family="Candara" fill="#c2e4d3">1</tspan><tspan y="792" x="0" font-size="42" font-family="Candara" fill="#c2e4d3">0</tspan><tspan y="825" x="4.19" font-size="42" font-family="Candara" fill="#c2e4d3">1</tspan><tspan y="858" x="0" font-size="42" font-family="Candara" fill="#c2e4d3">0</tspan><tspan y="891" x="1.84" font-size="42" font-family="Candara" fill="#c2e4d3">2</tspan><tspan y="924" x="0" font-size="42" font-family="Candara" fill="#c2e4d3">0</tspan><tspan y="957" x="4.19" font-size="42" font-family="Candara" fill="#c2e4d3">1</tspan>
        </text>
        <path fill="none" stroke="#452810" stroke-width="26" stroke-miterlimit="10" d="M315.54 176.12c0 72.979-59.161 132.14-132.14 132.14-72.979 0-132.14-59.161-132.14-132.14 0-72.979 59.161-132.14 132.14-132.14 72.979 0 132.14 59.161 132.14 132.14z"/>
        <path fill="#452810" d="M47.87 82.57l3.9 60.46 52.95-31.29-55.26-27.69"/>
        <path fill="#452810" d="M25.51 133.26l17.7 57.94 44.33-42.63-60.15-14.23"/>
        <path fill="#452810" d="M332.07 105.49l-55.55-24.18 3.62 61.4 49.89-36.49"/>
        <path fill="#452810" d="M157.5 340.9l52.73-29.84L159 277.02l-.86 61.8"/>
    </g>
</svg>
