<?xml version="1.0" encoding="utf-8"?>
<!-- Generator: Adobe Illustrator 26.2.1, SVG Export Plug-In . SVG Version: 6.00 Build 0)  -->
<svg version="1.1" id="Layer_1" xmlns="http://www.w3.org/2000/svg" xmlns:xlink="http://www.w3.org/1999/xlink" x="0px" y="0px"
	 viewBox="0 0 360 360" style="enable-background:new 0 0 360 360;" xml:space="preserve">
<style type="text/css">
	.st0{fill:#6FC5A2;}
	.st1{fill:#C2E4D3;}
	.st2{font-family:'Candara';}
	.st3{font-size:42px;}
	.st4{fill:none;stroke:#452810;stroke-width:26;stroke-miterlimit:10;}
	.st5{fill:#452810;}
</style>
<g>
	<path class="st0" d="M361.6,0v361.6H-2V0H361.6z"/>
	<text transform="matrix(1 0 0 1 -8.737 6.49)" class="st1 st2 st3">0</text>
	<text transform="matrix(1 0 0 1 -4.547 39.49)" class="st1 st2 st3">1</text>
	<text transform="matrix(1 0 0 1 -4.547 72.49)" class="st1 st2 st3">1</text>
	<text transform="matrix(1 0 0 1 -4.547 105.49)" class="st1 st2 st3">1</text>
	<text transform="matrix(1 0 0 1 -8.737 138.49)" class="st1 st2 st3">0</text>
	<text transform="matrix(1 0 0 1 -8.737 171.49)" class="st1 st2 st3">0</text>
	<text transform="matrix(1 0 0 1 -4.547 204.49)" class="st1 st2 st3">1</text>
	<text transform="matrix(1 0 0 1 -8.737 237.49)" class="st1 st2 st3">0</text>
	<text transform="matrix(1 0 0 1 -4.547 270.49)" class="st1 st2 st3">1</text>
	<text transform="matrix(1 0 0 1 -8.737 303.49)" class="st1 st2 st3">0</text>
	<text transform="matrix(1 0 0 1 -8.737 336.49)" class="st1 st2 st3">0</text>
	<text transform="matrix(1 0 0 1 -8.737 369.49)" class="st1 st2 st3">0</text>
	<text transform="matrix(1 0 0 1 -8.737 402.49)" class="st1 st2 st3">0</text>
	<text transform="matrix(1 0 0 1 -4.547 435.49)" class="st1 st2 st3">1</text>
	<text transform="matrix(1 0 0 1 -4.547 468.49)" class="st1 st2 st3">1</text>
	<text transform="matrix(1 0 0 1 -8.737 501.49)" class="st1 st2 st3">0</text>
	<text transform="matrix(1 0 0 1 -4.547 534.49)" class="st1 st2 st3">1</text>
	<text transform="matrix(1 0 0 1 -8.737 567.49)" class="st1 st2 st3">0</text>
	<text transform="matrix(1 0 0 1 -8.737 600.49)" class="st1 st2 st3">0</text>
	<text transform="matrix(1 0 0 1 -4.547 633.49)" class="st1 st2 st3">1</text>
	<text transform="matrix(1 0 0 1 -4.547 666.49)" class="st1 st2 st3">1</text>
	<text transform="matrix(1 0 0 1 -4.547 699.49)" class="st1 st2 st3">1</text>
	<text transform="matrix(1 0 0 1 -8.737 732.49)" class="st1 st2 st3">0</text>
	<text transform="matrix(1 0 0 1 -4.547 765.49)" class="st1 st2 st3">1</text>
	<text transform="matrix(1 0 0 1 -8.737 798.49)" class="st1 st2 st3">0</text>
	<text transform="matrix(1 0 0 1 -4.547 831.49)" class="st1 st2 st3">1</text>
	<text transform="matrix(1 0 0 1 -8.737 864.49)" class="st1 st2 st3">0</text>
	<text transform="matrix(1 0 0 1 -6.897 897.49)" class="st1 st2 st3">2</text>
	<text transform="matrix(1 0 0 1 -8.737 930.49)" class="st1 st2 st3">0</text>
	<text transform="matrix(1 0 0 1 -4.547 963.49)" class="st1 st2 st3">1</text>
	<text transform="matrix(1 0 0 1 16.944 -125.776)" class="st1 st2 st3">0</text>
	<text transform="matrix(1 0 0 1 21.134 -92.776)" class="st1 st2 st3">1</text>
	<text transform="matrix(1 0 0 1 21.134 -59.776)" class="st1 st2 st3">1</text>
	<text transform="matrix(1 0 0 1 21.134 -26.776)" class="st1 st2 st3">1</text>
	<text transform="matrix(1 0 0 1 16.944 6.224)" class="st1 st2 st3">0</text>
	<text transform="matrix(1 0 0 1 16.944 39.224)" class="st1 st2 st3">0</text>
	<text transform="matrix(1 0 0 1 21.134 72.224)" class="st1 st2 st3">1</text>
	<text transform="matrix(1 0 0 1 16.944 105.224)" class="st1 st2 st3">0</text>
	<text transform="matrix(1 0 0 1 21.134 138.224)" class="st1 st2 st3">1</text>
	<text transform="matrix(1 0 0 1 16.944 171.224)" class="st1 st2 st3">0</text>
	<text transform="matrix(1 0 0 1 16.944 204.224)" class="st1 st2 st3">0</text>
	<text transform="matrix(1 0 0 1 16.944 237.224)" class="st1 st2 st3">0</text>
	<text transform="matrix(1 0 0 1 16.944 270.224)" class="st1 st2 st3">0</text>
	<text transform="matrix(1 0 0 1 21.134 303.224)" class="st1 st2 st3">1</text>
	<text transform="matrix(1 0 0 1 21.134 336.224)" class="st1 st2 st3">1</text>
	<text transform="matrix(1 0 0 1 16.944 369.224)" class="st1 st2 st3">0</text>
	<text transform="matrix(1 0 0 1 21.134 402.224)" class="st1 st2 st3">1</text>
	<text transform="matrix(1 0 0 1 16.944 435.224)" class="st1 st2 st3">0</text>
	<text transform="matrix(1 0 0 1 16.944 468.224)" class="st1 st2 st3">0</text>
	<text transform="matrix(1 0 0 1 21.134 501.224)" class="st1 st2 st3">1</text>
	<text transform="matrix(1 0 0 1 21.134 534.224)" class="st1 st2 st3">1</text>
	<text transform="matrix(1 0 0 1 21.134 567.224)" class="st1 st2 st3">1</text>
	<text transform="matrix(1 0 0 1 16.944 600.224)" class="st1 st2 st3">0</text>
	<text transform="matrix(1 0 0 1 21.134 633.224)" class="st1 st2 st3">1</text>
	<text transform="matrix(1 0 0 1 16.944 666.224)" class="st1 st2 st3">0</text>
	<text transform="matrix(1 0 0 1 21.134 699.224)" class="st1 st2 st3">1</text>
	<text transform="matrix(1 0 0 1 16.944 732.224)" class="st1 st2 st3">0</text>
	<text transform="matrix(1 0 0 1 18.784 765.224)" class="st1 st2 st3">2</text>
	<text transform="matrix(1 0 0 1 16.944 798.224)" class="st1 st2 st3">0</text>
	<text transform="matrix(1 0 0 1 21.134 831.224)" class="st1 st2 st3">1</text>
	<text transform="matrix(1 0 0 1 42.944 -257.776)" class="st1 st2 st3">0</text>
	<text transform="matrix(1 0 0 1 47.134 -224.776)" class="st1 st2 st3">1</text>
	<text transform="matrix(1 0 0 1 47.134 -191.776)" class="st1 st2 st3">1</text>
	<text transform="matrix(1 0 0 1 47.134 -158.776)" class="st1 st2 st3">1</text>
	<text transform="matrix(1 0 0 1 42.944 -125.776)" class="st1 st2 st3">0</text>
	<text transform="matrix(1 0 0 1 42.944 -92.776)" class="st1 st2 st3">0</text>
	<text transform="matrix(1 0 0 1 47.134 -59.776)" class="st1 st2 st3">1</text>
	<text transform="matrix(1 0 0 1 42.944 -26.776)" class="st1 st2 st3">0</text>
	<text transform="matrix(1 0 0 1 47.134 6.224)" class="st1 st2 st3">1</text>
	<text transform="matrix(1 0 0 1 42.944 39.224)" class="st1 st2 st3">0</text>
	<text transform="matrix(1 0 0 1 42.944 72.224)" class="st1 st2 st3">0</text>
	<text transform="matrix(1 0 0 1 42.944 105.224)" class="st1 st2 st3">0</text>
	<text transform="matrix(1 0 0 1 42.944 138.224)" class="st1 st2 st3">0</text>
	<text transform="matrix(1 0 0 1 47.134 171.224)" class="st1 st2 st3">1</text>
	<text transform="matrix(1 0 0 1 47.134 204.224)" class="st1 st2 st3">1</text>
	<text transform="matrix(1 0 0 1 42.944 237.224)" class="st1 st2 st3">0</text>
	<text transform="matrix(1 0 0 1 47.134 270.224)" class="st1 st2 st3">1</text>
	<text transform="matrix(1 0 0 1 42.944 303.224)" class="st1 st2 st3">0</text>
	<text transform="matrix(1 0 0 1 42.944 336.224)" class="st1 st2 st3">0</text>
	<text transform="matrix(1 0 0 1 47.134 369.224)" class="st1 st2 st3">1</text>
	<text transform="matrix(1 0 0 1 47.134 402.224)" class="st1 st2 st3">1</text>
	<text transform="matrix(1 0 0 1 47.134 435.224)" class="st1 st2 st3">1</text>
	<text transform="matrix(1 0 0 1 42.944 468.224)" class="st1 st2 st3">0</text>
	<text transform="matrix(1 0 0 1 47.134 501.224)" class="st1 st2 st3">1</text>
	<text transform="matrix(1 0 0 1 42.944 534.224)" class="st1 st2 st3">0</text>
	<text transform="matrix(1 0 0 1 47.134 567.224)" class="st1 st2 st3">1</text>
	<text transform="matrix(1 0 0 1 42.944 600.224)" class="st1 st2 st3">0</text>
	<text transform="matrix(1 0 0 1 44.784 633.224)" class="st1 st2 st3">2</text>
	<text transform="matrix(1 0 0 1 42.944 666.224)" class="st1 st2 st3">0</text>
	<text transform="matrix(1 0 0 1 47.134 699.224)" class="st1 st2 st3">1</text>
	<text transform="matrix(1 0 0 1 68.944 -92.776)" class="st1 st2 st3">0</text>
	<text transform="matrix(1 0 0 1 73.134 -59.776)" class="st1 st2 st3">1</text>
	<text transform="matrix(1 0 0 1 73.134 -26.776)" class="st1 st2 st3">1</text>
	<text transform="matrix(1 0 0 1 73.134 6.224)" class="st1 st2 st3">1</text>
	<text transform="matrix(1 0 0 1 68.944 39.224)" class="st1 st2 st3">0</text>
	<text transform="matrix(1 0 0 1 68.944 72.224)" class="st1 st2 st3">0</text>
	<text transform="matrix(1 0 0 1 73.134 105.224)" class="st1 st2 st3">1</text>
	<text transform="matrix(1 0 0 1 68.944 138.224)" class="st1 st2 st3">0</text>
	<text transform="matrix(1 0 0 1 73.134 171.224)" class="st1 st2 st3">1</text>
	<text transform="matrix(1 0 0 1 68.944 204.224)" class="st1 st2 st3">0</text>
	<text transform="matrix(1 0 0 1 68.944 237.224)" class="st1 st2 st3">0</text>
	<text transform="matrix(1 0 0 1 68.944 270.224)" class="st1 st2 st3">0</text>
	<text transform="matrix(1 0 0 1 68.944 303.224)" class="st1 st2 st3">0</text>
	<text transform="matrix(1 0 0 1 73.134 336.224)" class="st1 st2 st3">1</text>
	<text transform="matrix(1 0 0 1 73.134 369.224)" class="st1 st2 st3">1</text>
	<text transform="matrix(1 0 0 1 68.944 402.224)" class="st1 st2 st3">0</text>
	<text transform="matrix(1 0 0 1 73.134 435.224)" class="st1 st2 st3">1</text>
	<text transform="matrix(1 0 0 1 68.944 468.224)" class="st1 st2 st3">0</text>
	<text transform="matrix(1 0 0 1 68.944 501.224)" class="st1 st2 st3">0</text>
	<text transform="matrix(1 0 0 1 73.134 534.224)" class="st1 st2 st3">1</text>
	<text transform="matrix(1 0 0 1 73.134 567.224)" class="st1 st2 st3">1</text>
	<text transform="matrix(1 0 0 1 73.134 600.224)" class="st1 st2 st3">1</text>
	<text transform="matrix(1 0 0 1 68.944 633.224)" class="st1 st2 st3">0</text>
	<text transform="matrix(1 0 0 1 73.134 666.224)" class="st1 st2 st3">1</text>
	<text transform="matrix(1 0 0 1 68.944 699.224)" class="st1 st2 st3">0</text>
	<text transform="matrix(1 0 0 1 73.134 732.224)" class="st1 st2 st3">1</text>
	<text transform="matrix(1 0 0 1 68.944 765.224)" class="st1 st2 st3">0</text>
	<text transform="matrix(1 0 0 1 70.784 798.224)" class="st1 st2 st3">2</text>
	<text transform="matrix(1 0 0 1 68.944 831.224)" class="st1 st2 st3">0</text>
	<text transform="matrix(1 0 0 1 73.134 864.224)" class="st1 st2 st3">1</text>
	<text transform="matrix(1 0 0 1 94.944 -26.776)" class="st1 st2 st3">0</text>
	<text transform="matrix(1 0 0 1 99.134 6.224)" class="st1 st2 st3">1</text>
	<text transform="matrix(1 0 0 1 99.134 39.224)" class="st1 st2 st3">1</text>
	<text transform="matrix(1 0 0 1 99.134 72.224)" class="st1 st2 st3">1</text>
	<text transform="matrix(1 0 0 1 94.944 105.224)" class="st1 st2 st3">0</text>
	<text transform="matrix(1 0 0 1 94.944 138.224)" class="st1 st2 st3">0</text>
	<text transform="matrix(1 0 0 1 99.134 171.224)" class="st1 st2 st3">1</text>
	<text transform="matrix(1 0 0 1 94.944 204.224)" class="st1 st2 st3">0</text>
	<text transform="matrix(1 0 0 1 99.134 237.224)" class="st1 st2 st3">1</text>
	<text transform="matrix(1 0 0 1 94.944 270.224)" class="st1 st2 st3">0</text>
	<text transform="matrix(1 0 0 1 94.944 303.224)" class="st1 st2 st3">0</text>
	<text transform="matrix(1 0 0 1 94.944 336.224)" class="st1 st2 st3">0</text>
	<text transform="matrix(1 0 0 1 94.944 369.224)" class="st1 st2 st3">0</text>
	<text transform="matrix(1 0 0 1 99.134 402.224)" class="st1 st2 st3">1</text>
	<text transform="matrix(1 0 0 1 99.134 435.224)" class="st1 st2 st3">1</text>
	<text transform="matrix(1 0 0 1 94.944 468.224)" class="st1 st2 st3">0</text>
	<text transform="matrix(1 0 0 1 99.134 501.224)" class="st1 st2 st3">1</text>
	<text transform="matrix(1 0 0 1 94.944 534.224)" class="st1 st2 st3">0</text>
	<text transform="matrix(1 0 0 1 94.944 567.224)" class="st1 st2 st3">0</text>
	<text transform="matrix(1 0 0 1 99.134 600.224)" class="st1 st2 st3">1</text>
	<text transform="matrix(1 0 0 1 99.134 633.224)" class="st1 st2 st3">1</text>
	<text transform="matrix(1 0 0 1 99.134 666.224)" class="st1 st2 st3">1</text>
	<text transform="matrix(1 0 0 1 94.944 699.224)" class="st1 st2 st3">0</text>
	<text transform="matrix(1 0 0 1 99.134 732.224)" class="st1 st2 st3">1</text>
	<text transform="matrix(1 0 0 1 94.944 765.224)" class="st1 st2 st3">0</text>
	<text transform="matrix(1 0 0 1 99.134 798.224)" class="st1 st2 st3">1</text>
	<text transform="matrix(1 0 0 1 94.944 831.224)" class="st1 st2 st3">0</text>
	<text transform="matrix(1 0 0 1 96.784 864.224)" class="st1 st2 st3">2</text>
	<text transform="matrix(1 0 0 1 94.944 897.224)" class="st1 st2 st3">0</text>
	<text transform="matrix(1 0 0 1 99.134 930.224)" class="st1 st2 st3">1</text>
	<text transform="matrix(1 0 0 1 120.373 -488.204)" class="st1 st2 st3">0</text>
	<text transform="matrix(1 0 0 1 124.563 -455.204)" class="st1 st2 st3">1</text>
	<text transform="matrix(1 0 0 1 124.563 -422.204)" class="st1 st2 st3">1</text>
	<text transform="matrix(1 0 0 1 124.563 -389.204)" class="st1 st2 st3">1</text>
	<text transform="matrix(1 0 0 1 120.373 -356.204)" class="st1 st2 st3">0</text>
	<text transform="matrix(1 0 0 1 120.373 -323.204)" class="st1 st2 st3">0</text>
	<text transform="matrix(1 0 0 1 124.563 -290.204)" class="st1 st2 st3">1</text>
	<text transform="matrix(1 0 0 1 120.373 -257.204)" class="st1 st2 st3">0</text>
	<text transform="matrix(1 0 0 1 124.563 -224.204)" class="st1 st2 st3">1</text>
	<text transform="matrix(1 0 0 1 120.373 -191.204)" class="st1 st2 st3">0</text>
	<text transform="matrix(1 0 0 1 120.373 -158.204)" class="st1 st2 st3">0</text>
	<text transform="matrix(1 0 0 1 120.373 -125.204)" class="st1 st2 st3">0</text>
	<text transform="matrix(1 0 0 1 120.373 -92.204)" class="st1 st2 st3">0</text>
	<text transform="matrix(1 0 0 1 124.563 -59.204)" class="st1 st2 st3">1</text>
	<text transform="matrix(1 0 0 1 124.563 -26.204)" class="st1 st2 st3">1</text>
	<text transform="matrix(1 0 0 1 120.373 6.796)" class="st1 st2 st3">0</text>
	<text transform="matrix(1 0 0 1 124.563 39.796)" class="st1 st2 st3">1</text>
	<text transform="matrix(1 0 0 1 120.373 72.796)" class="st1 st2 st3">0</text>
	<text transform="matrix(1 0 0 1 120.373 105.796)" class="st1 st2 st3">0</text>
	<text transform="matrix(1 0 0 1 124.563 138.796)" class="st1 st2 st3">1</text>
	<text transform="matrix(1 0 0 1 124.563 171.796)" class="st1 st2 st3">1</text>
	<text transform="matrix(1 0 0 1 124.563 204.796)" class="st1 st2 st3">1</text>
	<text transform="matrix(1 0 0 1 120.373 237.796)" class="st1 st2 st3">0</text>
	<text transform="matrix(1 0 0 1 124.563 270.796)" class="st1 st2 st3">1</text>
	<text transform="matrix(1 0 0 1 120.373 303.796)" class="st1 st2 st3">0</text>
	<text transform="matrix(1 0 0 1 124.563 336.796)" class="st1 st2 st3">1</text>
	<text transform="matrix(1 0 0 1 120.373 369.796)" class="st1 st2 st3">0</text>
	<text transform="matrix(1 0 0 1 122.213 402.796)" class="st1 st2 st3">2</text>
	<text transform="matrix(1 0 0 1 120.373 435.796)" class="st1 st2 st3">0</text>
	<text transform="matrix(1 0 0 1 124.563 468.796)" class="st1 st2 st3">1</text>
	<text transform="matrix(1 0 0 1 144.702 -357.1799)" class="st1 st2 st3">0</text>
	<text transform="matrix(1 0 0 1 148.892 -324.1799)" class="st1 st2 st3">1</text>
	<text transform="matrix(1 0 0 1 148.892 -291.1799)" class="st1 st2 st3">1</text>
	<text transform="matrix(1 0 0 1 148.892 -258.1799)" class="st1 st2 st3">1</text>
	<text transform="matrix(1 0 0 1 144.702 -225.18)" class="st1 st2 st3">0</text>
	<text transform="matrix(1 0 0 1 144.702 -192.18)" class="st1 st2 st3">0</text>
	<text transform="matrix(1 0 0 1 148.892 -159.18)" class="st1 st2 st3">1</text>
	<text transform="matrix(1 0 0 1 144.702 -126.18)" class="st1 st2 st3">0</text>
	<text transform="matrix(1 0 0 1 148.892 -93.18)" class="st1 st2 st3">1</text>
	<text transform="matrix(1 0 0 1 144.702 -60.18)" class="st1 st2 st3">0</text>
	<text transform="matrix(1 0 0 1 144.702 -27.18)" class="st1 st2 st3">0</text>
	<text transform="matrix(1 0 0 1 144.702 5.82)" class="st1 st2 st3">0</text>
	<text transform="matrix(1 0 0 1 144.702 38.82)" class="st1 st2 st3">0</text>
	<text transform="matrix(1 0 0 1 148.892 71.82)" class="st1 st2 st3">1</text>
	<text transform="matrix(1 0 0 1 148.892 104.82)" class="st1 st2 st3">1</text>
	<text transform="matrix(1 0 0 1 144.702 137.82)" class="st1 st2 st3">0</text>
	<text transform="matrix(1 0 0 1 148.892 170.82)" class="st1 st2 st3">1</text>
	<text transform="matrix(1 0 0 1 144.702 203.82)" class="st1 st2 st3">0</text>
	<text transform="matrix(1 0 0 1 144.702 236.82)" class="st1 st2 st3">0</text>
	<text transform="matrix(1 0 0 1 148.892 269.82)" class="st1 st2 st3">1</text>
	<text transform="matrix(1 0 0 1 148.892 302.82)" class="st1 st2 st3">1</text>
	<text transform="matrix(1 0 0 1 148.892 335.82)" class="st1 st2 st3">1</text>
	<text transform="matrix(1 0 0 1 144.702 368.82)" class="st1 st2 st3">0</text>
	<text transform="matrix(1 0 0 1 148.892 401.82)" class="st1 st2 st3">1</text>
	<text transform="matrix(1 0 0 1 144.702 434.82)" class="st1 st2 st3">0</text>
	<text transform="matrix(1 0 0 1 148.892 467.82)" class="st1 st2 st3">1</text>
	<text transform="matrix(1 0 0 1 144.702 500.82)" class="st1 st2 st3">0</text>
	<text transform="matrix(1 0 0 1 146.542 533.82)" class="st1 st2 st3">2</text>
	<text transform="matrix(1 0 0 1 144.702 566.82)" class="st1 st2 st3">0</text>
	<text transform="matrix(1 0 0 1 148.892 599.82)" class="st1 st2 st3">1</text>
	<text transform="matrix(1 0 0 1 167.715 -324.303)" class="st1 st2 st3">0</text>
	<text transform="matrix(1 0 0 1 171.905 -291.303)" class="st1 st2 st3">1</text>
	<text transform="matrix(1 0 0 1 171.905 -258.303)" class="st1 st2 st3">1</text>
	<text transform="matrix(1 0 0 1 171.905 -225.303)" class="st1 st2 st3">1</text>
	<text transform="matrix(1 0 0 1 167.715 -192.303)" class="st1 st2 st3">0</text>
	<text transform="matrix(1 0 0 1 167.715 -159.303)" class="st1 st2 st3">0</text>
	<text transform="matrix(1 0 0 1 171.905 -126.303)" class="st1 st2 st3">1</text>
	<text transform="matrix(1 0 0 1 167.715 -93.303)" class="st1 st2 st3">0</text>
	<text transform="matrix(1 0 0 1 171.905 -60.303)" class="st1 st2 st3">1</text>
	<text transform="matrix(1 0 0 1 167.715 -27.303)" class="st1 st2 st3">0</text>
	<text transform="matrix(1 0 0 1 167.715 5.697)" class="st1 st2 st3">0</text>
	<text transform="matrix(1 0 0 1 167.715 38.697)" class="st1 st2 st3">0</text>
	<text transform="matrix(1 0 0 1 167.715 71.697)" class="st1 st2 st3">0</text>
	<text transform="matrix(1 0 0 1 171.905 104.697)" class="st1 st2 st3">1</text>
	<text transform="matrix(1 0 0 1 171.905 137.697)" class="st1 st2 st3">1</text>
	<text transform="matrix(1 0 0 1 167.715 170.697)" class="st1 st2 st3">0</text>
	<text transform="matrix(1 0 0 1 171.905 203.697)" class="st1 st2 st3">1</text>
	<text transform="matrix(1 0 0 1 167.715 236.697)" class="st1 st2 st3">0</text>
	<text transform="matrix(1 0 0 1 167.715 269.697)" class="st1 st2 st3">0</text>
	<text transform="matrix(1 0 0 1 171.905 302.697)" class="st1 st2 st3">1</text>
	<text transform="matrix(1 0 0 1 171.905 335.697)" class="st1 st2 st3">1</text>
	<text transform="matrix(1 0 0 1 171.905 368.697)" class="st1 st2 st3">1</text>
	<text transform="matrix(1 0 0 1 167.715 401.697)" class="st1 st2 st3">0</text>
	<text transform="matrix(1 0 0 1 171.905 434.697)" class="st1 st2 st3">1</text>
	<text transform="matrix(1 0 0 1 167.715 467.697)" class="st1 st2 st3">0</text>
	<text transform="matrix(1 0 0 1 171.905 500.697)" class="st1 st2 st3">1</text>
	<text transform="matrix(1 0 0 1 167.715 533.697)" class="st1 st2 st3">0</text>
	<text transform="matrix(1 0 0 1 169.555 566.697)" class="st1 st2 st3">2</text>
	<text transform="matrix(1 0 0 1 167.715 599.697)" class="st1 st2 st3">0</text>
	<text transform="matrix(1 0 0 1 171.905 632.697)" class="st1 st2 st3">1</text>
	<text transform="matrix(1 0 0 1 191.363 -291.875)" class="st1 st2 st3">0</text>
	<text transform="matrix(1 0 0 1 195.553 -258.875)" class="st1 st2 st3">1</text>
	<text transform="matrix(1 0 0 1 195.553 -225.875)" class="st1 st2 st3">1</text>
	<text transform="matrix(1 0 0 1 195.553 -192.875)" class="st1 st2 st3">1</text>
	<text transform="matrix(1 0 0 1 191.363 -159.875)" class="st1 st2 st3">0</text>
	<text transform="matrix(1 0 0 1 191.363 -126.875)" class="st1 st2 st3">0</text>
	<text transform="matrix(1 0 0 1 195.553 -93.875)" class="st1 st2 st3">1</text>
	<text transform="matrix(1 0 0 1 191.363 -60.875)" class="st1 st2 st3">0</text>
	<text transform="matrix(1 0 0 1 195.553 -27.875)" class="st1 st2 st3">1</text>
	<text transform="matrix(1 0 0 1 191.363 5.125)" class="st1 st2 st3">0</text>
	<text transform="matrix(1 0 0 1 191.363 38.125)" class="st1 st2 st3">0</text>
	<text transform="matrix(1 0 0 1 191.363 71.125)" class="st1 st2 st3">0</text>
	<text transform="matrix(1 0 0 1 191.363 104.125)" class="st1 st2 st3">0</text>
	<text transform="matrix(1 0 0 1 195.553 137.125)" class="st1 st2 st3">1</text>
	<text transform="matrix(1 0 0 1 195.553 170.125)" class="st1 st2 st3">1</text>
	<text transform="matrix(1 0 0 1 191.363 203.125)" class="st1 st2 st3">0</text>
	<text transform="matrix(1 0 0 1 195.553 236.125)" class="st1 st2 st3">1</text>
	<text transform="matrix(1 0 0 1 191.363 269.125)" class="st1 st2 st3">0</text>
	<text transform="matrix(1 0 0 1 191.363 302.125)" class="st1 st2 st3">0</text>
	<text transform="matrix(1 0 0 1 195.553 335.125)" class="st1 st2 st3">1</text>
	<text transform="matrix(1 0 0 1 195.553 368.125)" class="st1 st2 st3">1</text>
	<text transform="matrix(1 0 0 1 195.553 401.125)" class="st1 st2 st3">1</text>
	<text transform="matrix(1 0 0 1 191.363 434.125)" class="st1 st2 st3">0</text>
	<text transform="matrix(1 0 0 1 195.553 467.125)" class="st1 st2 st3">1</text>
	<text transform="matrix(1 0 0 1 191.363 500.125)" class="st1 st2 st3">0</text>
	<text transform="matrix(1 0 0 1 195.553 533.125)" class="st1 st2 st3">1</text>
	<text transform="matrix(1 0 0 1 191.363 566.125)" class="st1 st2 st3">0</text>
	<text transform="matrix(1 0 0 1 193.203 599.125)" class="st1 st2 st3">2</text>
	<text transform="matrix(1 0 0 1 191.363 632.125)" class="st1 st2 st3">0</text>
	<text transform="matrix(1 0 0 1 195.553 665.125)" class="st1 st2 st3">1</text>
	<text transform="matrix(1 0 0 1 215.363 -126.733)" class="st1 st2 st3">0</text>
	<text transform="matrix(1 0 0 1 219.553 -93.733)" class="st1 st2 st3">1</text>
	<text transform="matrix(1 0 0 1 219.553 -60.733)" class="st1 st2 st3">1</text>
	<text transform="matrix(1 0 0 1 219.553 -27.733)" class="st1 st2 st3">1</text>
	<text transform="matrix(1 0 0 1 215.363 5.267)" class="st1 st2 st3">0</text>
	<text transform="matrix(1 0 0 1 215.363 38.267)" class="st1 st2 st3">0</text>
	<text transform="matrix(1 0 0 1 219.553 71.267)" class="st1 st2 st3">1</text>
	<text transform="matrix(1 0 0 1 215.363 104.267)" class="st1 st2 st3">0</text>
	<text transform="matrix(1 0 0 1 219.553 137.267)" class="st1 st2 st3">1</text>
	<text transform="matrix(1 0 0 1 215.363 170.267)" class="st1 st2 st3">0</text>
	<text transform="matrix(1 0 0 1 215.363 203.267)" class="st1 st2 st3">0</text>
	<text transform="matrix(1 0 0 1 215.363 236.267)" class="st1 st2 st3">0</text>
	<text transform="matrix(1 0 0 1 215.363 269.267)" class="st1 st2 st3">0</text>
	<text transform="matrix(1 0 0 1 219.553 302.267)" class="st1 st2 st3">1</text>
	<text transform="matrix(1 0 0 1 219.553 335.267)" class="st1 st2 st3">1</text>
	<text transform="matrix(1 0 0 1 215.363 368.267)" class="st1 st2 st3">0</text>
	<text transform="matrix(1 0 0 1 219.553 401.267)" class="st1 st2 st3">1</text>
	<text transform="matrix(1 0 0 1 215.363 434.267)" class="st1 st2 st3">0</text>
	<text transform="matrix(1 0 0 1 215.363 467.267)" class="st1 st2 st3">0</text>
	<text transform="matrix(1 0 0 1 219.553 500.267)" class="st1 st2 st3">1</text>
	<text transform="matrix(1 0 0 1 219.553 533.267)" class="st1 st2 st3">1</text>
	<text transform="matrix(1 0 0 1 219.553 566.267)" class="st1 st2 st3">1</text>
	<text transform="matrix(1 0 0 1 215.363 599.267)" class="st1 st2 st3">0</text>
	<text transform="matrix(1 0 0 1 219.553 632.267)" class="st1 st2 st3">1</text>
	<text transform="matrix(1 0 0 1 215.363 665.267)" class="st1 st2 st3">0</text>
	<text transform="matrix(1 0 0 1 219.553 698.267)" class="st1 st2 st3">1</text>
	<text transform="matrix(1 0 0 1 215.363 731.267)" class="st1 st2 st3">0</text>
	<text transform="matrix(1 0 0 1 217.203 764.267)" class="st1 st2 st3">2</text>
	<text transform="matrix(1 0 0 1 215.363 797.267)" class="st1 st2 st3">0</text>
	<text transform="matrix(1 0 0 1 219.553 830.267)" class="st1 st2 st3">1</text>
	<text transform="matrix(1 0 0 1 239.934 5.125)" class="st1 st2 st3">0</text>
	<text transform="matrix(1 0 0 1 244.124 38.125)" class="st1 st2 st3">1</text>
	<text transform="matrix(1 0 0 1 244.124 71.125)" class="st1 st2 st3">1</text>
	<text transform="matrix(1 0 0 1 244.124 104.125)" class="st1 st2 st3">1</text>
	<text transform="matrix(1 0 0 1 239.934 137.125)" class="st1 st2 st3">0</text>
	<text transform="matrix(1 0 0 1 239.934 170.125)" class="st1 st2 st3">0</text>
	<text transform="matrix(1 0 0 1 244.124 203.125)" class="st1 st2 st3">1</text>
	<text transform="matrix(1 0 0 1 239.934 236.125)" class="st1 st2 st3">0</text>
	<text transform="matrix(1 0 0 1 244.124 269.125)" class="st1 st2 st3">1</text>
	<text transform="matrix(1 0 0 1 239.934 302.125)" class="st1 st2 st3">0</text>
	<text transform="matrix(1 0 0 1 239.934 335.125)" class="st1 st2 st3">0</text>
	<text transform="matrix(1 0 0 1 239.934 368.125)" class="st1 st2 st3">0</text>
	<text transform="matrix(1 0 0 1 239.934 401.125)" class="st1 st2 st3">0</text>
	<text transform="matrix(1 0 0 1 244.124 434.125)" class="st1 st2 st3">1</text>
	<text transform="matrix(1 0 0 1 244.124 467.125)" class="st1 st2 st3">1</text>
	<text transform="matrix(1 0 0 1 239.934 500.125)" class="st1 st2 st3">0</text>
	<text transform="matrix(1 0 0 1 244.124 533.125)" class="st1 st2 st3">1</text>
	<text transform="matrix(1 0 0 1 239.934 566.125)" class="st1 st2 st3">0</text>
	<text transform="matrix(1 0 0 1 239.934 599.125)" class="st1 st2 st3">0</text>
	<text transform="matrix(1 0 0 1 244.124 632.125)" class="st1 st2 st3">1</text>
	<text transform="matrix(1 0 0 1 244.124 665.125)" class="st1 st2 st3">1</text>
	<text transform="matrix(1 0 0 1 244.124 698.125)" class="st1 st2 st3">1</text>
	<text transform="matrix(1 0 0 1 239.934 731.125)" class="st1 st2 st3">0</text>
	<text transform="matrix(1 0 0 1 244.124 764.125)" class="st1 st2 st3">1</text>
	<text transform="matrix(1 0 0 1 239.934 797.125)" class="st1 st2 st3">0</text>
	<text transform="matrix(1 0 0 1 244.124 830.125)" class="st1 st2 st3">1</text>
	<text transform="matrix(1 0 0 1 239.934 863.125)" class="st1 st2 st3">0</text>
	<text transform="matrix(1 0 0 1 241.774 896.125)" class="st1 st2 st3">2</text>
	<text transform="matrix(1 0 0 1 239.934 929.125)" class="st1 st2 st3">0</text>
	<text transform="matrix(1 0 0 1 244.124 962.125)" class="st1 st2 st3">1</text>
	<text transform="matrix(1 0 0 1 259.648 -27.733)" class="st1 st2 st3">0</text>
	<text transform="matrix(1 0 0 1 263.838 5.267)" class="st1 st2 st3">1</text>
	<text transform="matrix(1 0 0 1 263.838 38.267)" class="st1 st2 st3">1</text>
	<text transform="matrix(1 0 0 1 263.838 71.267)" class="st1 st2 st3">1</text>
	<text transform="matrix(1 0 0 1 259.648 104.267)" class="st1 st2 st3">0</text>
	<text transform="matrix(1 0 0 1 259.648 137.267)" class="st1 st2 st3">0</text>
	<text transform="matrix(1 0 0 1 263.838 170.267)" class="st1 st2 st3">1</text>
	<text transform="matrix(1 0 0 1 259.648 203.267)" class="st1 st2 st3">0</text>
	<text transform="matrix(1 0 0 1 263.838 236.267)" class="st1 st2 st3">1</text>
	<text transform="matrix(1 0 0 1 259.648 269.267)" class="st1 st2 st3">0</text>
	<text transform="matrix(1 0 0 1 259.648 302.267)" class="st1 st2 st3">0</text>
	<text transform="matrix(1 0 0 1 259.648 335.267)" class="st1 st2 st3">0</text>
	<text transform="matrix(1 0 0 1 259.648 368.267)" class="st1 st2 st3">0</text>
	<text transform="matrix(1 0 0 1 263.838 401.267)" class="st1 st2 st3">1</text>
	<text transform="matrix(1 0 0 1 263.838 434.267)" class="st1 st2 st3">1</text>
	<text transform="matrix(1 0 0 1 259.648 467.267)" class="st1 st2 st3">0</text>
	<text transform="matrix(1 0 0 1 263.838 500.267)" class="st1 st2 st3">1</text>
	<text transform="matrix(1 0 0 1 259.648 533.267)" class="st1 st2 st3">0</text>
	<text transform="matrix(1 0 0 1 259.648 566.267)" class="st1 st2 st3">0</text>
	<text transform="matrix(1 0 0 1 263.838 599.267)" class="st1 st2 st3">1</text>
	<text transform="matrix(1 0 0 1 263.838 632.267)" class="st1 st2 st3">1</text>
	<text transform="matrix(1 0 0 1 263.838 665.267)" class="st1 st2 st3">1</text>
	<text transform="matrix(1 0 0 1 259.648 698.267)" class="st1 st2 st3">0</text>
	<text transform="matrix(1 0 0 1 263.838 731.267)" class="st1 st2 st3">1</text>
	<text transform="matrix(1 0 0 1 259.648 764.267)" class="st1 st2 st3">0</text>
	<text transform="matrix(1 0 0 1 263.838 797.267)" class="st1 st2 st3">1</text>
	<text transform="matrix(1 0 0 1 259.648 830.267)" class="st1 st2 st3">0</text>
	<text transform="matrix(1 0 0 1 261.488 863.267)" class="st1 st2 st3">2</text>
	<text transform="matrix(1 0 0 1 259.648 896.267)" class="st1 st2 st3">0</text>
	<text transform="matrix(1 0 0 1 263.838 929.267)" class="st1 st2 st3">1</text>
	<text transform="matrix(1 0 0 1 280.791 -93.18)" class="st1 st2 st3">0</text>
	<text transform="matrix(1 0 0 1 284.981 -60.18)" class="st1 st2 st3">1</text>
	<text transform="matrix(1 0 0 1 284.981 -27.18)" class="st1 st2 st3">1</text>
	<text transform="matrix(1 0 0 1 284.981 5.82)" class="st1 st2 st3">1</text>
	<text transform="matrix(1 0 0 1 280.791 38.82)" class="st1 st2 st3">0</text>
	<text transform="matrix(1 0 0 1 280.791 71.82)" class="st1 st2 st3">0</text>
	<text transform="matrix(1 0 0 1 284.981 104.82)" class="st1 st2 st3">1</text>
	<text transform="matrix(1 0 0 1 280.791 137.82)" class="st1 st2 st3">0</text>
	<text transform="matrix(1 0 0 1 284.981 170.82)" class="st1 st2 st3">1</text>
	<text transform="matrix(1 0 0 1 280.791 203.82)" class="st1 st2 st3">0</text>
	<text transform="matrix(1 0 0 1 280.791 236.82)" class="st1 st2 st3">0</text>
	<text transform="matrix(1 0 0 1 280.791 269.82)" class="st1 st2 st3">0</text>
	<text transform="matrix(1 0 0 1 280.791 302.82)" class="st1 st2 st3">0</text>
	<text transform="matrix(1 0 0 1 284.981 335.82)" class="st1 st2 st3">1</text>
	<text transform="matrix(1 0 0 1 284.981 368.82)" class="st1 st2 st3">1</text>
	<text transform="matrix(1 0 0 1 280.791 401.82)" class="st1 st2 st3">0</text>
	<text transform="matrix(1 0 0 1 284.981 434.82)" class="st1 st2 st3">1</text>
	<text transform="matrix(1 0 0 1 280.791 467.82)" class="st1 st2 st3">0</text>
	<text transform="matrix(1 0 0 1 280.791 500.82)" class="st1 st2 st3">0</text>
	<text transform="matrix(1 0 0 1 284.981 533.82)" class="st1 st2 st3">1</text>
	<text transform="matrix(1 0 0 1 284.981 566.82)" class="st1 st2 st3">1</text>
	<text transform="matrix(1 0 0 1 284.981 599.82)" class="st1 st2 st3">1</text>
	<text transform="matrix(1 0 0 1 280.791 632.82)" class="st1 st2 st3">0</text>
	<text transform="matrix(1 0 0 1 284.981 665.82)" class="st1 st2 st3">1</text>
	<text transform="matrix(1 0 0 1 280.791 698.82)" class="st1 st2 st3">0</text>
	<text transform="matrix(1 0 0 1 284.981 731.82)" class="st1 st2 st3">1</text>
	<text transform="matrix(1 0 0 1 280.791 764.82)" class="st1 st2 st3">0</text>
	<text transform="matrix(1 0 0 1 282.631 797.82)" class="st1 st2 st3">2</text>
	<text transform="matrix(1 0 0 1 280.791 830.82)" class="st1 st2 st3">0</text>
	<text transform="matrix(1 0 0 1 284.981 863.82)" class="st1 st2 st3">1</text>
	<text transform="matrix(1 0 0 1 303.077 -224.894)" class="st1 st2 st3">0</text>
	<text transform="matrix(1 0 0 1 307.267 -191.894)" class="st1 st2 st3">1</text>
	<text transform="matrix(1 0 0 1 307.267 -158.894)" class="st1 st2 st3">1</text>
	<text transform="matrix(1 0 0 1 307.267 -125.894)" class="st1 st2 st3">1</text>
	<text transform="matrix(1 0 0 1 303.077 -92.894)" class="st1 st2 st3">0</text>
	<text transform="matrix(1 0 0 1 303.077 -59.894)" class="st1 st2 st3">0</text>
	<text transform="matrix(1 0 0 1 307.267 -26.894)" class="st1 st2 st3">1</text>
	<text transform="matrix(1 0 0 1 303.077 6.106)" class="st1 st2 st3">0</text>
	<text transform="matrix(1 0 0 1 307.267 39.106)" class="st1 st2 st3">1</text>
	<text transform="matrix(1 0 0 1 303.077 72.106)" class="st1 st2 st3">0</text>
	<text transform="matrix(1 0 0 1 303.077 105.106)" class="st1 st2 st3">0</text>
	<text transform="matrix(1 0 0 1 303.077 138.106)" class="st1 st2 st3">0</text>
	<text transform="matrix(1 0 0 1 303.077 171.106)" class="st1 st2 st3">0</text>
	<text transform="matrix(1 0 0 1 307.267 204.106)" class="st1 st2 st3">1</text>
	<text transform="matrix(1 0 0 1 307.267 237.106)" class="st1 st2 st3">1</text>
	<text transform="matrix(1 0 0 1 303.077 270.106)" class="st1 st2 st3">0</text>
	<text transform="matrix(1 0 0 1 307.267 303.106)" class="st1 st2 st3">1</text>
	<text transform="matrix(1 0 0 1 303.077 336.106)" class="st1 st2 st3">0</text>
	<text transform="matrix(1 0 0 1 303.077 369.106)" class="st1 st2 st3">0</text>
	<text transform="matrix(1 0 0 1 307.267 402.106)" class="st1 st2 st3">1</text>
	<text transform="matrix(1 0 0 1 307.267 435.106)" class="st1 st2 st3">1</text>
	<text transform="matrix(1 0 0 1 307.267 468.106)" class="st1 st2 st3">1</text>
	<text transform="matrix(1 0 0 1 303.077 501.106)" class="st1 st2 st3">0</text>
	<text transform="matrix(1 0 0 1 307.267 534.106)" class="st1 st2 st3">1</text>
	<text transform="matrix(1 0 0 1 303.077 567.106)" class="st1 st2 st3">0</text>
	<text transform="matrix(1 0 0 1 307.267 600.106)" class="st1 st2 st3">1</text>
	<text transform="matrix(1 0 0 1 303.077 633.106)" class="st1 st2 st3">0</text>
	<text transform="matrix(1 0 0 1 304.917 666.106)" class="st1 st2 st3">2</text>
	<text transform="matrix(1 0 0 1 303.077 699.106)" class="st1 st2 st3">0</text>
	<text transform="matrix(1 0 0 1 307.267 732.106)" class="st1 st2 st3">1</text>
	<text transform="matrix(1 0 0 1 325.363 -125.465)" class="st1 st2 st3">0</text>
	<text transform="matrix(1 0 0 1 329.553 -92.465)" class="st1 st2 st3">1</text>
	<text transform="matrix(1 0 0 1 329.553 -59.465)" class="st1 st2 st3">1</text>
	<text transform="matrix(1 0 0 1 329.553 -26.465)" class="st1 st2 st3">1</text>
	<text transform="matrix(1 0 0 1 325.363 6.535)" class="st1 st2 st3">0</text>
	<text transform="matrix(1 0 0 1 325.363 39.535)" class="st1 st2 st3">0</text>
	<text transform="matrix(1 0 0 1 329.553 72.535)" class="st1 st2 st3">1</text>
	<text transform="matrix(1 0 0 1 325.363 105.535)" class="st1 st2 st3">0</text>
	<text transform="matrix(1 0 0 1 329.553 138.535)" class="st1 st2 st3">1</text>
	<text transform="matrix(1 0 0 1 325.363 171.535)" class="st1 st2 st3">0</text>
	<text transform="matrix(1 0 0 1 325.363 204.535)" class="st1 st2 st3">0</text>
	<text transform="matrix(1 0 0 1 325.363 237.535)" class="st1 st2 st3">0</text>
	<text transform="matrix(1 0 0 1 325.363 270.535)" class="st1 st2 st3">0</text>
	<text transform="matrix(1 0 0 1 329.553 303.535)" class="st1 st2 st3">1</text>
	<text transform="matrix(1 0 0 1 329.553 336.535)" class="st1 st2 st3">1</text>
	<text transform="matrix(1 0 0 1 325.363 369.535)" class="st1 st2 st3">0</text>
	<text transform="matrix(1 0 0 1 329.553 402.535)" class="st1 st2 st3">1</text>
	<text transform="matrix(1 0 0 1 325.363 435.535)" class="st1 st2 st3">0</text>
	<text transform="matrix(1 0 0 1 325.363 468.535)" class="st1 st2 st3">0</text>
	<text transform="matrix(1 0 0 1 329.553 501.535)" class="st1 st2 st3">1</text>
	<text transform="matrix(1 0 0 1 329.553 534.535)" class="st1 st2 st3">1</text>
	<text transform="matrix(1 0 0 1 329.553 567.535)" class="st1 st2 st3">1</text>
	<text transform="matrix(1 0 0 1 325.363 600.535)" class="st1 st2 st3">0</text>
	<text transform="matrix(1 0 0 1 329.553 633.535)" class="st1 st2 st3">1</text>
	<text transform="matrix(1 0 0 1 325.363 666.535)" class="st1 st2 st3">0</text>
	<text transform="matrix(1 0 0 1 329.553 699.535)" class="st1 st2 st3">1</text>
	<text transform="matrix(1 0 0 1 325.363 732.535)" class="st1 st2 st3">0</text>
	<text transform="matrix(1 0 0 1 327.203 765.535)" class="st1 st2 st3">2</text>
	<text transform="matrix(1 0 0 1 325.363 798.535)" class="st1 st2 st3">0</text>
	<text transform="matrix(1 0 0 1 329.553 831.535)" class="st1 st2 st3">1</text>
	<text transform="matrix(1 0 0 1 348.465 5.821)" class="st1 st2 st3">0</text>
	<text transform="matrix(1 0 0 1 352.655 38.821)" class="st1 st2 st3">1</text>
	<text transform="matrix(1 0 0 1 352.655 71.821)" class="st1 st2 st3">1</text>
	<text transform="matrix(1 0 0 1 352.655 104.821)" class="st1 st2 st3">1</text>
	<text transform="matrix(1 0 0 1 348.465 137.821)" class="st1 st2 st3">0</text>
	<text transform="matrix(1 0 0 1 348.465 170.821)" class="st1 st2 st3">0</text>
	<text transform="matrix(1 0 0 1 352.655 203.821)" class="st1 st2 st3">1</text>
	<text transform="matrix(1 0 0 1 348.465 236.821)" class="st1 st2 st3">0</text>
	<text transform="matrix(1 0 0 1 352.655 269.821)" class="st1 st2 st3">1</text>
	<text transform="matrix(1 0 0 1 348.465 302.821)" class="st1 st2 st3">0</text>
	<text transform="matrix(1 0 0 1 348.465 335.821)" class="st1 st2 st3">0</text>
	<text transform="matrix(1 0 0 1 348.465 368.821)" class="st1 st2 st3">0</text>
	<text transform="matrix(1 0 0 1 348.465 401.821)" class="st1 st2 st3">0</text>
	<text transform="matrix(1 0 0 1 352.655 434.821)" class="st1 st2 st3">1</text>
	<text transform="matrix(1 0 0 1 352.655 467.821)" class="st1 st2 st3">1</text>
	<text transform="matrix(1 0 0 1 348.465 500.821)" class="st1 st2 st3">0</text>
	<text transform="matrix(1 0 0 1 352.655 533.821)" class="st1 st2 st3">1</text>
	<text transform="matrix(1 0 0 1 348.465 566.821)" class="st1 st2 st3">0</text>
	<text transform="matrix(1 0 0 1 348.465 599.821)" class="st1 st2 st3">0</text>
	<text transform="matrix(1 0 0 1 352.655 632.821)" class="st1 st2 st3">1</text>
	<text transform="matrix(1 0 0 1 352.655 665.821)" class="st1 st2 st3">1</text>
	<text transform="matrix(1 0 0 1 352.655 698.821)" class="st1 st2 st3">1</text>
	<text transform="matrix(1 0 0 1 348.465 731.821)" class="st1 st2 st3">0</text>
	<text transform="matrix(1 0 0 1 352.655 764.821)" class="st1 st2 st3">1</text>
	<text transform="matrix(1 0 0 1 348.465 797.821)" class="st1 st2 st3">0</text>
	<text transform="matrix(1 0 0 1 352.655 830.821)" class="st1 st2 st3">1</text>
	<text transform="matrix(1 0 0 1 348.465 863.821)" class="st1 st2 st3">0</text>
	<text transform="matrix(1 0 0 1 350.305 896.821)" class="st1 st2 st3">2</text>
	<text transform="matrix(1 0 0 1 348.465 929.821)" class="st1 st2 st3">0</text>
	<text transform="matrix(1 0 0 1 352.655 962.821)" class="st1 st2 st3">1</text>
	<path class="st4" d="M315.5,176.1c0,73-59.2,132.1-132.1,132.1S51.3,249.1,51.3,176.1S110.4,44,183.4,44S315.5,103.1,315.5,176.1
		L315.5,176.1z"/>
	<path class="st5" d="M47.9,82.6l3.9,60.5l53-31.3L49.5,84"/>
	<path class="st5" d="M332.1,105.5l-55.5-24.2l3.6,61.4l49.9-36.5"/>
	<path class="st5" d="M157.5,340.9l52.7-29.8L159,277l-0.9,61.8"/>
</g>
</svg>
