<?xml version="1.0" encoding="utf-8"?>
<!-- Generator: Adobe Illustrator 26.2.1, SVG Export Plug-In . SVG Version: 6.00 Build 0)  -->
<svg version="1.1" id="Layer_1" xmlns="http://www.w3.org/2000/svg" xmlns:xlink="http://www.w3.org/1999/xlink" x="0px" y="0px"
	 viewBox="0 0 1488.6 1488.6" style="enable-background:new 0 0 1488.6 1488.6;" xml:space="preserve">
<style type="text/css">
	.st0{fill:#827850;}
	.st1{fill:#B50909;}
</style>
<g>
	<path d="M1495.3,0v1495.3H0V0H1495.3z"/>
</g>
<path class="st0" d="M1452,1404.1"/>
<path class="st1" d="M1281.5,352.5l-46.2,180.3l-619.7-7.7c0,0-51.5-5.8-72.8,51.8c-21.3,57.6-115.4,418.2-115.4,418.2l158,1.9
	c0,0,204.2-19.2,317.9-195.7c-23.9-33.5-64.4-81.4-126.1-120.9c-38.2-24.4-74.1-39-103-48c179.9,1.3,359.9,2.6,539.8,3.8
	l-170.5,418.2l-30.2-92.1c0,0-71,97.8-197.1,107.4c-126.1,9.6-632.2,0-632.2,0l140.3-548.7c4.1-18.3,22.9-91.8,88.8-136.2
	c33.2-22.3,65.5-28.7,85.2-30.7C759.5,353.8,1020.5,353.2,1281.5,352.5z"/>
</svg>
