<?xml version="1.0" encoding="utf-8"?>
<!-- Generator: Adobe Illustrator 26.2.1, SVG Export Plug-In . SVG Version: 6.00 Build 0)  -->
<svg version="1.1" id="Layer_1" xmlns="http://www.w3.org/2000/svg" xmlns:xlink="http://www.w3.org/1999/xlink" x="0px" y="0px"
	 viewBox="0 0 1488.6 1488.6" style="enable-background:new 0 0 1488.6 1488.6;" xml:space="preserve">
<style type="text/css">
	.st0{fill:#202039;}
	.st1{fill:#343466;}
	.st2{fill:#DCAED0;}
</style>
<g>
	<path class="st0" d="M1495.3,0v1495.3H0V0H1495.3z"/>
</g>
<image style="overflow:visible;enable-background:new    ;" width="2100" height="2100" xlink:href="hotelcalifornia/1.png"  transform="matrix(0.24 0 0 0.24 -646.6443 352.0221)">
</image>
<rect x="475.8" y="417.3" transform="matrix(0.7071 -0.7071 0.7071 0.7071 -163.2619 809.0541)" class="st1" width="838.4" height="368.6"/>
<rect x="260.1" y="992" transform="matrix(0.7071 -0.7071 0.7071 0.7071 -575.5807 636.1107)" class="st1" width="440" height="41.6"/>
<path class="st1" d="M152.7,1085.3c88.6,88.6,177.3,177.3,265.9,265.9c-26.9-65.6-54-131-80.9-196.6
	C276.1,1131.5,214.4,1108.5,152.7,1085.3z"/>
<path class="st2" d="M755.2,978.9L516.6,740.4c90.1-91.1,180.1-182.2,270.1-273.3c160.5,1.7,320.9,3.4,481.3,5.1
	C1097.1,641.1,926.2,810.1,755.2,978.9z"/>
</svg>
