<?xml version="1.0" encoding="utf-8"?>
<!-- Generator: Adobe Illustrator 27.5.0, SVG Export Plug-In . SVG Version: 6.00 Build 0)  -->
<svg version="1.1" id="Layer_1" xmlns="http://www.w3.org/2000/svg" xmlns:xlink="http://www.w3.org/1999/xlink" x="0px" y="0px"
	 viewBox="0 0 500 500" style="enable-background:new 0 0 500 500;" xml:space="preserve">
<style type="text/css">
	.st0{fill:#FFFFFF;}
	.st1{fill:#281942;}
</style>
<rect x="86.5" y="97" class="st0" width="326" height="305"/>
<path class="st1" d="M160,30C88.3,30,30,88.3,30,160v180c0,71.7,58.3,130,130,130h180c71.7,0,130-58.3,130-130V160
	c0-71.7-58.3-130-130-130H160z M370,110c11,0,20,9,20,20s-9,20-20,20s-20-9-20-20S359,110,370,110z M250,140
	c60.7,0,110,49.3,110,110s-49.3,110-110,110s-110-49.3-110-110S189.3,140,250,140z M250,160c-49.6,0-90,40.4-90,90s40.4,90,90,90
	s90-40.4,90-90S299.6,160,250,160z"/>
</svg>
