<?xml version="1.0" encoding="UTF-8"?>
<svg data-bbox="0 0 360 360" viewBox="0 0 360 360" xmlns="http://www.w3.org/2000/svg" data-type="color">
    <g>
        <path d="M303.57 26C320.35 26 334 39.65 334 56.43v247.14c0 16.78-13.65 30.43-30.43 30.43H56.43C39.65 334 26 320.35 26 303.57V56.43C26 39.65 39.65 26 56.43 26h247.14m0-26H56.43C25.26 0 0 25.26 0 56.43v247.14C0 334.74 25.26 360 56.43 360h247.14c31.16 0 56.43-25.26 56.43-56.43V56.43C360 25.26 334.74 0 303.57 0z" fill="#53419a" data-color="1"/>
        <path d="M180 123.57c31.11 0 56.43 25.31 56.43 56.43s-25.31 56.43-56.43 56.43-56.43-25.31-56.43-56.43 25.32-56.43 56.43-56.43m0-26c-45.52 0-82.43 36.9-82.43 82.43s36.9 82.43 82.43 82.43 82.43-36.9 82.43-82.43S225.52 97.57 180 97.57z" fill="#53419a" data-color="1"/>
        <path fill="#53419a" d="M315.16 67.75c0 12.785-10.365 23.15-23.15 23.15-12.785 0-23.15-10.365-23.15-23.15 0-12.785 10.365-23.15 23.15-23.15 12.785 0 23.15 10.365 23.15 23.15z" data-color="1"/>
    </g>
</svg>
