<?xml version="1.0" encoding="utf-8"?>
<!-- Generator: Adobe Illustrator 27.1.0, SVG Export Plug-In . SVG Version: 6.00 Build 0)  -->
<svg version="1.1" id="Layer_1" xmlns="http://www.w3.org/2000/svg" xmlns:xlink="http://www.w3.org/1999/xlink" x="0px" y="0px"
	 viewBox="0 0 360 360" style="enable-background:new 0 0 360 360;" xml:space="preserve">
<style type="text/css">
	.st0{fill:#633FBB;}
</style>
<g>
	<path class="st0" d="M303.6,26c16.8,0,30.4,13.7,30.4,30.4v247.1c0,16.8-13.6,30.4-30.4,30.4H56.4C39.7,334,26,320.4,26,303.6V56.4
		C26,39.6,39.7,26,56.4,26H303.6 M303.6,0H56.4C25.3,0,0,25.3,0,56.4v247.1C0,334.7,25.3,360,56.4,360h247.1
		c31.2,0,56.4-25.3,56.4-56.4V56.4C360,25.3,334.7,0,303.6,0z"/>
	<path class="st0" d="M180,123.6c31.1,0,56.4,25.3,56.4,56.4s-25.3,56.4-56.4,56.4s-56.4-25.3-56.4-56.4S148.9,123.6,180,123.6
		 M180,97.6c-45.5,0-82.4,36.9-82.4,82.4s36.9,82.4,82.4,82.4s82.4-36.9,82.4-82.4S225.5,97.6,180,97.6z"/>
	<path class="st0" d="M315.2,67.7c0,12.8-10.4,23.2-23.1,23.2S269,80.5,269,67.7s10.4-23.2,23.1-23.2S315.2,55,315.2,67.7z"/>
</g>
</svg>
