<?xml version="1.0" encoding="utf-8"?>
<!-- Generator: Adobe Illustrator 26.2.1, SVG Export Plug-In . SVG Version: 6.00 Build 0)  -->
<svg version="1.1" xmlns="http://www.w3.org/2000/svg" xmlns:xlink="http://www.w3.org/1999/xlink" x="0px" y="0px"
	 viewBox="0 0 360 360" style="enable-background:new 0 0 360 360;" xml:space="preserve">
<style type="text/css">
	.st0{fill:#92DEFF;}
	.st1{fill:#FFFFFF;}
	.st2{fill:none;stroke:#0066CC;stroke-width:4;stroke-miterlimit:10;stroke-dasharray:37.5822,37.5822;}
	.st3{fill:#6699CC;}
</style>
<g id="Layer_1">
	<g>
		<path class="st0" d="M362.3-1.5v362.3H0V-1.5H362.3z"/>
		<path class="st0" d="M275.3,183.8L275.3,183.8L275.3,183.8L275.3,183.8z"/>
		<path class="st0" d="M248.2,232.7c0.6-0.6,1.5-1.4,2.4-2.5C249.2,231.4,248.4,232.4,248.2,232.7z"/>
		<path class="st0" d="M276.5,185c-0.3-0.2-0.6-0.4-0.9-0.6C275.9,184.6,276.2,184.8,276.5,185z"/>
		<path class="st0" d="M276.6,185L276.6,185C276.6,185,276.6,185,276.6,185z"/>
		<path class="st0" d="M258.1,46.4c1.2,0.7,2.5,1.5,3.8,2.4C260.9,47.8,259.7,47,258.1,46.4z"/>
	</g>
</g>
<g id="Layer_2">
	<path class="st1" d="M301.3,191.4C245.7,154.6,190,117.8,134.4,81l22.6,197c16-18.2,32.1-36.3,48.1-54.5l44.1,70.5
		c3.8,7.6,13.3,10.2,20.1,6c6.9-4.2,8.9-14.1,3.7-21c-14.5-23.2-29-46.4-43.5-69.6C253.4,203.4,277.4,197.4,301.3,191.4z"/>
	<g>
		<path class="st2" d="M175.4-21.1c0,85.9-69.6,155.5-155.5,155.5c-206.3-8.2-206.2-302.9,0-311C105.7-176.6,175.4-106.9,175.4-21.1
			L175.4-21.1z"/>
	</g>
	<path class="st3" d="M84.9,383.2h-234.8c-30.4,0-55.1-24.7-55.1-55.1v0c0-30.4,24.7-55.1,55.1-55.1H84.9
		c30.4,0,55.1,24.7,55.1,55.1v0C140,358.5,115.4,383.2,84.9,383.2z"/>
	<path class="st3" d="M497.8,82.4H263c-30.4,0-55.1-24.7-55.1-55.1v0c0-30.4,24.7-55.1,55.1-55.1h234.8c30.4,0,55.1,24.7,55.1,55.1
		v0C552.9,57.7,528.2,82.4,497.8,82.4z"/>
</g>
</svg>
