<?xml version="1.0" encoding="UTF-8"?><svg xmlns="http://www.w3.org/2000/svg" xmlns:xlink="http://www.w3.org/1999/xlink" viewBox="0 0 360 360"><g id="a"><g><path d="M362.28-1.45V360.83H0V-1.45H362.28Z" style="fill:#cc6;"/><path d="M275.34,183.83h0Z" style="fill:#cc6;"/><path d="M248.16,232.66c.61-.55,1.47-1.38,2.43-2.5-1.37,1.2-2.2,2.21-2.43,2.5Z" style="fill:#cc6;"/><path d="M276.54,184.99c-.32-.21-.62-.41-.91-.59,.31,.18,.62,.38,.91,.59Z" style="fill:#cc6;"/><path d="M276.63,185.04l-.09-.06s.06,.05,.09,.06Z" style="fill:#cc6;"/><path d="M258.15,46.42c1.19,.68,2.46,1.47,3.79,2.36-1.01-.98-2.28-1.8-3.79-2.36Z" style="fill:#cc6;"/></g><image transform="translate(19.18 100.24) scale(1.2)" xlink:href="../../../../Users/shabi/OneDrive/Desktop/vtl_logo.png"/></g><g id="b"/></svg>