<?xml version="1.0" encoding="UTF-8"?>
<svg data-bbox="0 0 360 360" viewBox="0 0 360 360" xmlns="http://www.w3.org/2000/svg" data-type="ugc">
    <g>
        <path d="M56.43 347C32.48 347 13 327.52 13 303.57V56.43C13 32.48 32.48 13 56.43 13h247.14C327.52 13 347 32.48 347 56.43v247.14c0 23.95-19.48 43.43-43.43 43.43H56.43z" fill="#53419a"/>
        <path d="M303.57 26C320.35 26 334 39.65 334 56.43v247.14c0 16.78-13.65 30.43-30.43 30.43H56.43C39.65 334 26 320.35 26 303.57V56.43C26 39.65 39.65 26 56.43 26h247.14m0-26H56.43C25.26 0 0 25.26 0 56.43v247.14C0 334.74 25.26 360 56.43 360h247.14c31.16 0 56.43-25.26 56.43-56.43V56.43C360 25.26 334.74 0 303.57 0z" fill="#53419a"/>
        <text transform="translate(60.452 249.584)" font-size="275" font-family="ArialRoundedMTBold" fill="#ffffff">
            in
        </text>
    </g>
</svg>
