<?xml version="1.0" encoding="utf-8"?>
<!-- Generator: Adobe Illustrator 27.1.0, SVG Export Plug-In . SVG Version: 6.00 Build 0)  -->
<svg version="1.1" id="Layer_1" xmlns="http://www.w3.org/2000/svg" xmlns:xlink="http://www.w3.org/1999/xlink" x="0px" y="0px"
	 viewBox="0 0 360 360" style="enable-background:new 0 0 360 360;" xml:space="preserve">
<style type="text/css">
	.st0{fill:#633FA7;}
	.st1{fill:#FFFFFF;}
	.st2{font-family:'ArialRoundedMTBold';}
	.st3{font-size:275px;}
</style>
<g>
	<path class="st0" d="M56.4,347c-24,0-43.4-19.5-43.4-43.4V56.4C13,32.5,32.5,13,56.4,13h247.1c23.9,0,43.4,19.5,43.4,43.4v247.1
		c0,24-19.5,43.4-43.4,43.4H56.4V347z"/>
	<path class="st0" d="M303.6,26c16.8,0,30.4,13.7,30.4,30.4v247.1c0,16.8-13.6,30.4-30.4,30.4H56.4C39.7,334,26,320.4,26,303.6V56.4
		C26,39.6,39.7,26,56.4,26H303.6 M303.6,0H56.4C25.3,0,0,25.3,0,56.4v247.1C0,334.7,25.3,360,56.4,360h247.1
		c31.2,0,56.4-25.3,56.4-56.4V56.4C360,25.3,334.7,0,303.6,0z"/>
	<text transform="matrix(1 0 0 1 60.452 249.584)" class="st1 st2 st3">in</text>
</g>
</svg>
