<?xml version="1.0" encoding="utf-8"?>
<!-- Generator: Adobe Illustrator 27.5.0, SVG Export Plug-In . SVG Version: 6.00 Build 0)  -->
<svg version="1.1" id="Layer_1" xmlns="http://www.w3.org/2000/svg" xmlns:xlink="http://www.w3.org/1999/xlink" x="0px" y="0px"
	 viewBox="0 0 500 500" style="enable-background:new 0 0 500 500;" xml:space="preserve">
<style type="text/css">
	.st0{fill:#FFFFFF;}
	.st1{fill:#281942;}
</style>
<rect x="94" y="82" class="st0" width="319" height="342"/>
<path class="st1" d="M410,40H90c-27.6,0-50,22.4-50,50v320c0,27.6,22.4,50,50,50h320c27.6,0,50-22.4,50-50V90
	C460,62.4,437.6,40,410,40z M170,200v190h-60V200H170z M110,144.7c0-14,12-24.7,30-24.7s29.3,10.7,30,24.7c0,14-11.2,25.3-30,25.3
	C122,170,110,158.7,110,144.7z M390,390h-60c0,0,0-92.6,0-100c0-20-10-40-35-40.4h-0.8c-24.2,0-34.2,20.6-34.2,40.4
	c0,9.1,0,100,0,100h-60V200h60v25.6c0,0,19.3-25.6,58.1-25.6c39.7,0,71.9,27.3,71.9,82.6V390z"/>
</svg>
