<?xml version="1.0" encoding="utf-8"?>
<!-- Generator: Adobe Illustrator 27.5.0, SVG Export Plug-In . SVG Version: 6.00 Build 0)  -->
<svg version="1.1" id="Layer_1" xmlns="http://www.w3.org/2000/svg" xmlns:xlink="http://www.w3.org/1999/xlink" x="0px" y="0px"
	 viewBox="0 0 499.7 499.7" style="enable-background:new 0 0 499.7 499.7;" xml:space="preserve">
<style type="text/css">
	.st0{fill:#FFFFFF;}
	.st1{fill:#281942;}
</style>
<path class="st0" d="M427.1,99.4h-365c-20.2,0-36.5,16-36.5,35.7v198.2c0,8.2,2.9,15.9,7.7,21.9l45.6-27.5v24.9l-25.6,15.4
	c2.8,0.7,5.7,1.1,8.8,1.1h365c6.9,0,13.1-1.8,18.5-5l-8.7-5.2h1.9v-23.7l21.6,13c2.2-4.7,3.3-9.7,3.3-14.9V135.2
	C463.6,115.4,447.2,99.4,427.1,99.4z"/>
<g>
	<path class="st1" d="M236.1,221.5L436.6,98.2c-2.8-0.7-5.7-1.1-8.8-1.1h-367c-6.9,0-13.2,1.8-18.6,5.1L236.1,221.5L236.1,221.5z"/>
	<path class="st1" d="M242.1,243.3c-1.6,1.5-3.8,2.3-6,2.3s-4.4-0.7-6-2.3L27.4,118.6c-2.2,4.8-3.3,10-3.3,15.3v203.5
		c0,20.3,16.4,36.7,36.7,36.7h367c20.3,0,36.7-16.4,36.7-36.7V133.9c0-8.4-2.9-16.3-7.7-22.5L242.1,243.3z"/>
</g>
</svg>
