<?xml version="1.0" encoding="utf-8"?>
<!-- Generator: Adobe Illustrator 27.1.0, SVG Export Plug-In . SVG Version: 6.00 Build 0)  -->
<svg version="1.1" id="Layer_1" xmlns="http://www.w3.org/2000/svg" xmlns:xlink="http://www.w3.org/1999/xlink" x="0px" y="0px"
	 viewBox="0 0 360 360" style="enable-background:new 0 0 360 360;" xml:space="preserve">
<style type="text/css">
	.st0{fill:#633EA7;}
</style>
<g>
	<path class="st0" d="M173.3,152.2L337.2,51.4c-2.3-0.6-4.7-0.9-7.2-0.9H30c-5.6,0-10.8,1.5-15.2,4.2L173.3,152.2L173.3,152.2z"/>
	<path class="st0" d="M178.2,170c-1.3,1.2-3.1,1.9-4.9,1.9c-1.8,0-3.6-0.6-4.9-1.9L2.7,68.1C0.9,72,0,76.3,0,80.6v166.3
		c0,16.6,13.4,30,30,30h300c16.6,0,30-13.4,30-30V80.6c0-6.9-2.4-13.3-6.3-18.4L178.2,170z"/>
</g>
</svg>
