<?xml version="1.0" encoding="UTF-8"?>
<svg data-bbox="0 50.58 360 226.28" viewBox="0 0 360 360" xmlns="http://www.w3.org/2000/svg" data-type="color">
    <g>
        <path d="M173.32 152.18L337.19 51.45c-2.3-.57-4.71-.87-7.19-.87H30c-5.56 0-10.76 1.52-15.22 4.15l158.54 97.45z" fill="#53419a" data-color="1"/>
        <path d="M178.19 170a6.9 6.9 0 0 1-4.87 1.89c-1.79.04-3.55-.62-4.87-1.89L2.71 68.12A29.773 29.773 0 0 0 0 80.57v166.29c0 16.57 13.43 30 30 30h300c16.57 0 30-13.43 30-30V80.57c0-6.95-2.37-13.35-6.34-18.43L178.19 170z" fill="#53419a" data-color="1"/>
    </g>
</svg>
