<svg width="2811" height="4396" viewBox="0 0 2811 4396" fill="none" xmlns="http://www.w3.org/2000/svg">
<g clip-path="url(#clip0_185_15709)">
<path d="M0 -401C0 -456.228 44.7715 -501 100 -501H2713C2768.23 -501 2813 -456.228 2813 -401V4296C2813 4351.23 2768.23 4396 2713 4396H100C44.7715 4396 0 4351.23 0 4296V-401Z" fill="#702323"/>
<path d="M-80 42C-80 -13.2285 -35.2285 -58 20 -58H7702C7757.23 -58 7802 -13.2285 7802 42V2267C7802 2322.23 7757.23 2367 7702 2367H20.0001C-35.2284 2367 -80 2322.23 -80 2267V42Z" fill="url(#paint0_linear_185_15709)"/>
<rect x="-850" y="120" width="2827" height="726" rx="348" fill="#CBEDFF"/>
<path fill-rule="evenodd" clip-rule="evenodd" d="M1580.06 674.888C1580.12 674.925 1580.18 674.962 1580.24 675V674.775C1940.11 456.949 1659.07 184.248 1580.06 389.634C1501.04 184.248 1220 456.949 1579.87 674.775V675C1579.93 674.962 1579.99 674.925 1580.06 674.888Z" fill="#4D749A"/>
<path fill-rule="evenodd" clip-rule="evenodd" d="M244.811 317C167.596 317 105 379.596 105 456.811C105 534.027 167.596 596.622 244.811 596.622H286.827V685L412.448 572.001C449.025 546.786 473 504.598 473 456.811C473 379.596 410.404 317 333.189 317H244.811Z" fill="#6699CC"/>
<path d="M869 341.562C1125.24 341.562 1097.09 313.666 1097.09 651" stroke="#6699CC" stroke-width="41"/>
<path d="M1010 674.438C753.76 674.438 781.914 702.334 781.914 365" stroke="#6699CC" stroke-width="41"/>
<path d="M1015 585L1098.25 664L1175 585" stroke="#6699CC" stroke-width="41"/>
<path d="M864 426L780.746 352L704 426" stroke="#6699CC" stroke-width="41"/>
<rect x="-1039.5" y="-979.5" width="3483.61" height="2821" stroke="#006DDA" stroke-width="23"/>
<rect x="2395.1" y="1780.5" width="122.747" height="145" fill="white" stroke="#006DDA" stroke-width="17"/>
<g filter="url(#filter0_d_185_15709)">
<path fill-rule="evenodd" clip-rule="evenodd" d="M2456.72 1853.45L2522.95 2154L2579.14 2024.96L2579.14 2024.95L2699 1985.28L2456.84 1853.3L2456.62 1853L2456.67 1853.21L2456.47 1853.1L2456.72 1853.45Z" fill="white"/>
<path d="M2522.95 2154L2509.28 2157.01C2510.58 2162.94 2515.55 2167.35 2521.59 2167.93C2527.63 2168.52 2533.36 2165.15 2535.78 2159.59L2522.95 2154ZM2456.72 1853.45L2470.39 1850.44C2469.99 1848.6 2469.21 1846.86 2468.12 1845.32L2456.72 1853.45ZM2579.14 2024.96L2591.98 2030.55C2593.94 2026.04 2593.4 2020.84 2590.55 2016.84L2579.14 2024.96ZM2579.14 2024.95L2574.74 2011.66C2570.52 2013.06 2567.22 2016.37 2565.84 2020.6C2564.45 2024.82 2565.16 2029.45 2567.74 2033.07L2579.14 2024.95ZM2699 1985.28L2703.4 1998.57C2708.69 1996.82 2712.44 1992.09 2712.94 1986.53C2713.44 1980.98 2710.6 1975.66 2705.7 1972.99L2699 1985.28ZM2456.84 1853.3L2445.44 1861.43C2446.67 1863.15 2448.28 1864.58 2450.14 1865.59L2456.84 1853.3ZM2456.62 1853L2468.02 1844.88C2464.16 1839.46 2457.02 1837.5 2450.94 1840.21C2444.86 1842.91 2441.52 1849.51 2442.95 1856.01L2456.62 1853ZM2456.67 1853.21L2449.97 1865.5C2454.79 1868.13 2460.69 1867.7 2465.08 1864.4C2469.46 1861.11 2471.52 1855.55 2470.34 1850.2L2456.67 1853.21ZM2456.47 1853.1L2463.17 1840.81C2457.45 1837.69 2450.32 1838.94 2446 1843.82C2441.67 1848.7 2441.29 1855.92 2445.08 1861.23L2456.47 1853.1ZM2536.62 2150.99L2470.39 1850.44L2443.05 1856.46L2509.28 2157.01L2536.62 2150.99ZM2566.31 2019.37L2510.11 2148.41L2535.78 2159.59L2591.98 2030.55L2566.31 2019.37ZM2567.74 2033.07L2567.74 2033.07L2590.55 2016.84L2590.55 2016.83L2567.74 2033.07ZM2583.54 2038.24L2703.4 1998.57L2694.6 1971.99L2574.74 2011.66L2583.54 2038.24ZM2705.7 1972.99L2463.54 1841.01L2450.14 1865.59L2692.3 1997.57L2705.7 1972.99ZM2445.22 1861.12L2445.44 1861.43L2468.24 1845.18L2468.02 1844.88L2445.22 1861.12ZM2470.34 1850.2L2470.29 1849.99L2442.95 1856.01L2443 1856.22L2470.34 1850.2ZM2463.37 1840.92L2463.17 1840.81L2449.77 1865.4L2449.97 1865.5L2463.37 1840.92ZM2445.08 1861.23L2445.33 1861.58L2468.12 1845.32L2467.87 1844.97L2445.08 1861.23Z" fill="#6699CC"/>
</g>
<rect x="92" y="956" width="2194" height="39" rx="19.5" fill="#4D749A"/>
<rect x="92" y="1227" width="2194" height="39" rx="19.5" fill="#4D749A"/>
<g filter="url(#filter1_d_185_15709)">
<circle cx="2007" cy="973" r="96" fill="#CBEDFF"/>
</g>
<g filter="url(#filter2_d_185_15709)">
<circle cx="303" cy="1247" r="96" fill="#CBEDFF"/>
</g>
<rect x="71" y="1431" width="617" height="280" rx="140" fill="#4D749A"/>
<rect x="870" y="1431" width="617" height="280" rx="140" fill="#4D749A"/>
<rect x="1669" y="1431" width="617" height="280" rx="140" fill="#4D749A"/>
<g filter="url(#filter3_d_185_15709)">
<circle cx="533" cy="1571" r="97" fill="#CBEDFF"/>
</g>
<g filter="url(#filter4_d_185_15709)">
<circle cx="1332" cy="1571" r="97" fill="#CBEDFF"/>
</g>
<g filter="url(#filter5_d_185_15709)">
<circle cx="2131" cy="1571" r="97" fill="#CBEDFF"/>
</g>
<rect y="2255" width="2813" height="2141" fill="#89C9E7"/>
</g>
<defs>
<filter id="filter0_d_185_15709" x="2412.47" y="1829" width="330.525" height="389.002" filterUnits="userSpaceOnUse" color-interpolation-filters="sRGB">
<feFlood flood-opacity="0" result="BackgroundImageFix"/>
<feColorMatrix in="SourceAlpha" type="matrix" values="0 0 0 0 0 0 0 0 0 0 0 0 0 0 0 0 0 0 127 0" result="hardAlpha"/>
<feOffset dy="20"/>
<feGaussianBlur stdDeviation="15"/>
<feComposite in2="hardAlpha" operator="out"/>
<feColorMatrix type="matrix" values="0 0 0 0 0 0 0 0 0 0 0 0 0 0 0 0 0 0 0.25 0"/>
<feBlend mode="normal" in2="BackgroundImageFix" result="effect1_dropShadow_185_15709"/>
<feBlend mode="normal" in="SourceGraphic" in2="effect1_dropShadow_185_15709" result="shape"/>
</filter>
<filter id="filter1_d_185_15709" x="1891" y="872" width="232" height="232" filterUnits="userSpaceOnUse" color-interpolation-filters="sRGB">
<feFlood flood-opacity="0" result="BackgroundImageFix"/>
<feColorMatrix in="SourceAlpha" type="matrix" values="0 0 0 0 0 0 0 0 0 0 0 0 0 0 0 0 0 0 127 0" result="hardAlpha"/>
<feOffset dy="15"/>
<feGaussianBlur stdDeviation="10"/>
<feComposite in2="hardAlpha" operator="out"/>
<feColorMatrix type="matrix" values="0 0 0 0 0 0 0 0 0 0 0 0 0 0 0 0 0 0 0.25 0"/>
<feBlend mode="normal" in2="BackgroundImageFix" result="effect1_dropShadow_185_15709"/>
<feBlend mode="normal" in="SourceGraphic" in2="effect1_dropShadow_185_15709" result="shape"/>
</filter>
<filter id="filter2_d_185_15709" x="187" y="1146" width="232" height="232" filterUnits="userSpaceOnUse" color-interpolation-filters="sRGB">
<feFlood flood-opacity="0" result="BackgroundImageFix"/>
<feColorMatrix in="SourceAlpha" type="matrix" values="0 0 0 0 0 0 0 0 0 0 0 0 0 0 0 0 0 0 127 0" result="hardAlpha"/>
<feOffset dy="15"/>
<feGaussianBlur stdDeviation="10"/>
<feComposite in2="hardAlpha" operator="out"/>
<feColorMatrix type="matrix" values="0 0 0 0 0 0 0 0 0 0 0 0 0 0 0 0 0 0 0.25 0"/>
<feBlend mode="normal" in2="BackgroundImageFix" result="effect1_dropShadow_185_15709"/>
<feBlend mode="normal" in="SourceGraphic" in2="effect1_dropShadow_185_15709" result="shape"/>
</filter>
<filter id="filter3_d_185_15709" x="416" y="1469" width="234" height="234" filterUnits="userSpaceOnUse" color-interpolation-filters="sRGB">
<feFlood flood-opacity="0" result="BackgroundImageFix"/>
<feColorMatrix in="SourceAlpha" type="matrix" values="0 0 0 0 0 0 0 0 0 0 0 0 0 0 0 0 0 0 127 0" result="hardAlpha"/>
<feOffset dy="15"/>
<feGaussianBlur stdDeviation="10"/>
<feComposite in2="hardAlpha" operator="out"/>
<feColorMatrix type="matrix" values="0 0 0 0 0 0 0 0 0 0 0 0 0 0 0 0 0 0 0.25 0"/>
<feBlend mode="normal" in2="BackgroundImageFix" result="effect1_dropShadow_185_15709"/>
<feBlend mode="normal" in="SourceGraphic" in2="effect1_dropShadow_185_15709" result="shape"/>
</filter>
<filter id="filter4_d_185_15709" x="1215" y="1469" width="234" height="234" filterUnits="userSpaceOnUse" color-interpolation-filters="sRGB">
<feFlood flood-opacity="0" result="BackgroundImageFix"/>
<feColorMatrix in="SourceAlpha" type="matrix" values="0 0 0 0 0 0 0 0 0 0 0 0 0 0 0 0 0 0 127 0" result="hardAlpha"/>
<feOffset dy="15"/>
<feGaussianBlur stdDeviation="10"/>
<feComposite in2="hardAlpha" operator="out"/>
<feColorMatrix type="matrix" values="0 0 0 0 0 0 0 0 0 0 0 0 0 0 0 0 0 0 0.25 0"/>
<feBlend mode="normal" in2="BackgroundImageFix" result="effect1_dropShadow_185_15709"/>
<feBlend mode="normal" in="SourceGraphic" in2="effect1_dropShadow_185_15709" result="shape"/>
</filter>
<filter id="filter5_d_185_15709" x="2014" y="1469" width="234" height="234" filterUnits="userSpaceOnUse" color-interpolation-filters="sRGB">
<feFlood flood-opacity="0" result="BackgroundImageFix"/>
<feColorMatrix in="SourceAlpha" type="matrix" values="0 0 0 0 0 0 0 0 0 0 0 0 0 0 0 0 0 0 127 0" result="hardAlpha"/>
<feOffset dy="15"/>
<feGaussianBlur stdDeviation="10"/>
<feComposite in2="hardAlpha" operator="out"/>
<feColorMatrix type="matrix" values="0 0 0 0 0 0 0 0 0 0 0 0 0 0 0 0 0 0 0.25 0"/>
<feBlend mode="normal" in2="BackgroundImageFix" result="effect1_dropShadow_185_15709"/>
<feBlend mode="normal" in="SourceGraphic" in2="effect1_dropShadow_185_15709" result="shape"/>
</filter>
<linearGradient id="paint0_linear_185_15709" x1="4153" y1="165.5" x2="4153" y2="4408" gradientUnits="userSpaceOnUse">
<stop offset="0.140174" stop-color="#8FD4F1"/>
<stop offset="1" stop-color="#6A8DAF"/>
</linearGradient>
<clipPath id="clip0_185_15709">
<rect width="2811" height="4396" rx="100" fill="white"/>
</clipPath>
</defs>
</svg>
