<svg width="2811" height="5000" viewBox="0 0 2811 5000" fill="none" xmlns="http://www.w3.org/2000/svg">
<g clip-path="url(#clip0_298_388)">
<path d="M-80 42C-80 -13.2285 -35.2285 -58 20 -58H7702C7757.23 -58 7802 -13.2285 7802 42V2267C7802 2322.23 7757.23 2367 7702 2367H20.0001C-35.2284 2367 -80 2322.23 -80 2267V42Z" fill="url(#paint0_linear_298_388)"/>
<path d="M1722.07 510C1545.91 548.41 1689.2 541.404 1572.73 559.039C1452.15 533.674 1148.64 520.388 808.167 605.421C556.027 668.392 81.4188 1205.82 -8.95623 1210.49L-304.168 1333.76H-905M1722.07 510C1679.29 595.275 1696.94 551.067 1689.2 636.825M1722.07 510C1686.79 552.275 1571.62 639.724 1580.7 663.881M1689.2 636.825C1722.07 680.066 1684.97 627.645 1722.07 663.881M1689.2 636.825L1680.75 618.466L1784.17 536.573L1767.98 628.37L1722.07 663.881M1689.2 636.825C1688.65 645.808 1682.54 660.225 1666.35 675.709M1753.32 981.724C1744.45 1034.89 1994.76 1302.46 2075.74 1453.4C2102.52 1503.31 2097.34 1550.51 2100.56 1587.79M1753.32 981.724C1734.99 996.493 1734.99 996.493 1734.99 996.493C1734.99 994.721 1734.99 989.328 1734.99 966.069C1727.31 976.998 1721.4 983.792 1711.94 996.493L1704.1 756.053M1753.32 981.724C1773.12 971.09 1794.06 929.691 1799.12 926.488C1803.85 947.463 1787.89 981.724 1787.89 981.724C1787.89 981.724 1834.29 933.872 1823.65 871.842C1820.34 852.504 1804.15 810.108 1722.07 663.881M1893 1753.07C1893 1753.07 1934.18 1833.42 1991.81 1800.47C2031.11 1778 2107.46 1667.75 2100.56 1587.79M1893 1753.07C1893 1753.07 1912.37 1799.92 1893 1813.22C1878.03 1823.51 1863.55 1800.47 1863.55 1800.47C1711.94 1813.22 1717.47 1803.69 1688.65 1689.11C1624.25 1673.01 1411.68 1535.51 1323.91 1453.4M1893 1753.07C1836.85 1694.36 1748.17 1618.67 1734.99 1621.82M1323.91 1453.4C1227.27 1436.26 1090.74 1258.2 1090.74 1258.2M1323.91 1453.4C1407.55 1501.54 1512.46 1338.79 1572.73 1338.79M1090.74 1258.2C1029.86 1109.03 1137.43 881.59 1240.28 789.74M1090.74 1258.2C1090.74 1258.2 1017.06 1211.3 859.315 1661.54M808.167 1816.18C826.106 1759.02 843.152 1707.67 859.315 1661.54M1572.73 718.718C1589.55 718.718 1664 857.916 1675.28 881.59C1675.28 881.59 1700.64 835.729 1704.1 811.584C1708.05 783.95 1704.1 756.053 1704.1 756.053M1572.73 718.718C1584.01 711.551 1589.79 688.038 1580.7 663.881M1572.73 718.718L1557.39 728.381M1542.04 738.043L1557.39 728.381M1580.7 663.881C1593.67 669.518 1627.68 671.998 1659.96 636.825M1557.39 728.381C1613.24 714.276 1647 694.229 1666.35 675.709M2100.56 1587.79C2094.75 1573.51 2045.3 1496.23 2011.61 1482.34M2100.56 1587.79L2057.73 1524.58L2038.96 1502.72L2011.61 1482.34M1948.66 1689.11C1906.05 1654.39 1913.37 1636.86 1929.45 1603.74C1966.08 1528.31 1992.53 1477.67 2011.61 1482.34M2011.61 1482.34L2045.3 1603.74M1572.73 1338.79C1572.73 1338.79 1597.28 1338.79 1610.87 1312.85M1572.73 1338.79C1504.2 1328.25 1525.07 1250.91 1452.47 1013.33C1444.19 983.533 1430.3 989.404 1416.41 980.543L1589.89 1004.76C1555.97 996.493 1490.29 957.503 1505.96 916.445C1494.73 870.365 1569.66 807.567 1557.39 779.683M1704.1 756.053L1666.35 675.709M859.315 1661.54C808.167 1849.24 1033.73 2050.5 859.314 2417" stroke="#0E3921" stroke-width="23" stroke-linecap="round"/>
<path d="M1584.66 556L1438.37 609.129C870.928 550.392 348.7 991.476 57 1173M1505.75 915.506C1556.35 915.506 1600.92 915.506 1616.88 915.506C1615 930.363 1613.33 962.083 1607.42 971.292C1601.51 980.501 1552.94 961.06 1531.17 950.04M1505.75 915.506C1505.75 915.506 1513.45 935.263 1531.17 950.04M1505.75 915.506C1527.93 902.89 1569.35 885.181 1595.3 877.852M1616.88 875.069C1621.01 875.069 1622.49 875.955 1637.56 861.197L1655 865.034M1616.88 875.069C1613.73 873.626 1605.78 874.893 1595.3 877.852M1616.88 875.069C1620.17 876.58 1622.01 886.808 1622.82 901.634M1531.17 950.04C1551.59 967.07 1603.87 993.134 1603.87 993.134L1637.56 1040.95C1641.69 1008.56 1624.71 936.061 1622.82 901.634M1595.3 877.852C1604.32 881.155 1622.46 890.536 1622.82 901.634" stroke="#0E3921" stroke-width="23" stroke-linecap="round"/>
<circle cx="799.256" cy="1824.75" r="33.5" fill="white" stroke="#38793E" stroke-width="17"/>
<g filter="url(#filter0_d_298_388)">
<mask id="path-6-inside-1_298_388" fill="white">
<path fill-rule="evenodd" clip-rule="evenodd" d="M638.168 1917.51L799.521 1824.35L638.171 1731.2C621.315 1720.31 601.304 1714 579.84 1714C533.445 1714 493.835 1743.48 478.21 1784.98L430 1784.98L430 1866.01L479.098 1866.01C495.298 1906.31 534.3 1934.71 579.84 1934.71C601.303 1934.71 621.313 1928.4 638.168 1917.51Z"/>
</mask>
<path fill-rule="evenodd" clip-rule="evenodd" d="M638.168 1917.51L799.521 1824.35L638.171 1731.2C621.315 1720.31 601.304 1714 579.84 1714C533.445 1714 493.835 1743.48 478.21 1784.98L430 1784.98L430 1866.01L479.098 1866.01C495.298 1906.31 534.3 1934.71 579.84 1934.71C601.303 1934.71 621.313 1928.4 638.168 1917.51Z" fill="white"/>
<path d="M799.521 1824.35L810.521 1843.41L843.521 1824.35L810.521 1805.3L799.521 1824.35ZM638.168 1917.51L627.168 1898.46L626.692 1898.73L626.231 1899.03L638.168 1917.51ZM638.171 1731.2L626.232 1749.68L626.694 1749.98L627.171 1750.25L638.171 1731.2ZM478.21 1784.98L478.21 1806.98L493.434 1806.98L498.799 1792.73L478.21 1784.98ZM430 1784.98L430 1762.98L408 1762.98L408 1784.98L430 1784.98ZM430 1866.01L408 1866.01L408 1888.01L430 1888.01L430 1866.01ZM479.098 1866.01L499.51 1857.8L493.965 1844.01L479.098 1844.01L479.098 1866.01ZM788.521 1805.3L627.168 1898.46L649.168 1936.56L810.521 1843.41L788.521 1805.3ZM627.171 1750.25L788.521 1843.41L810.521 1805.3L649.171 1712.15L627.171 1750.25ZM650.109 1712.72C629.817 1699.61 605.682 1692 579.84 1692L579.84 1736C596.925 1736 612.812 1741.01 626.232 1749.68L650.109 1712.72ZM579.84 1692C523.83 1692 476.31 1727.59 457.62 1777.23L498.799 1792.73C511.361 1759.37 543.061 1736 579.84 1736L579.84 1692ZM478.21 1762.98L430 1762.98L430 1806.98L478.21 1806.98L478.21 1762.98ZM408 1784.98L408 1866.01L452 1866.01L452 1784.98L408 1784.98ZM430 1888.01L479.098 1888.01L479.098 1844.01L430 1844.01L430 1888.01ZM458.685 1874.21C478.062 1922.42 524.863 1956.71 579.84 1956.71L579.84 1912.71C543.737 1912.71 512.533 1890.2 499.51 1857.8L458.685 1874.21ZM579.84 1956.71C605.681 1956.71 629.815 1949.1 650.106 1935.99L626.231 1899.03C612.81 1907.7 596.924 1912.71 579.84 1912.71L579.84 1956.71Z" fill="#38793E" mask="url(#path-6-inside-1_298_388)"/>
<circle cx="572.861" cy="1825.21" r="19.6756" fill="#38793E"/>
<rect x="571.15" y="1819.22" width="201.033" height="10.2655" fill="#38793E"/>
</g>
<rect y="2254" width="2813" height="3426" fill="#75AE78"/>
</g>
<defs>
<filter id="filter0_d_298_388" x="410" y="1711" width="409.521" height="260.708" filterUnits="userSpaceOnUse" color-interpolation-filters="sRGB">
<feFlood flood-opacity="0" result="BackgroundImageFix"/>
<feColorMatrix in="SourceAlpha" type="matrix" values="0 0 0 0 0 0 0 0 0 0 0 0 0 0 0 0 0 0 127 0" result="hardAlpha"/>
<feOffset dy="17"/>
<feGaussianBlur stdDeviation="10"/>
<feComposite in2="hardAlpha" operator="out"/>
<feColorMatrix type="matrix" values="0 0 0 0 0 0 0 0 0 0 0 0 0 0 0 0 0 0 0.25 0"/>
<feBlend mode="normal" in2="BackgroundImageFix" result="effect1_dropShadow_298_388"/>
<feBlend mode="normal" in="SourceGraphic" in2="effect1_dropShadow_298_388" result="shape"/>
</filter>
<linearGradient id="paint0_linear_298_388" x1="4153" y1="165.5" x2="4153" y2="4408" gradientUnits="userSpaceOnUse">
<stop offset="0.140174" stop-color="#75AE78"/>
<stop offset="1" stop-color="#1F7B22"/>
</linearGradient>
<clipPath id="clip0_298_388">
<rect width="2811" height="5000" rx="100" fill="white"/>
</clipPath>
</defs>
</svg>
