<svg width="1760" height="1760" viewBox="0 0 1760 1760" fill="none" xmlns="http://www.w3.org/2000/svg">
<g clip-path="url(#clip0_303_386)">
<path d="M702.683 18.1886C733.763 11.7438 764.844 7.16087 795.495 4.15331C827.005 1.14574 858.229 -0.286436 889.024 -9.8492e-07C906.354 0.143217 920.248 14.3217 920.104 31.6511C919.961 44.9703 911.511 56.2845 899.766 60.7242C768.711 112.283 663.867 208.381 599.558 327.395C536.25 444.404 512.188 583.468 540.977 723.821L541.12 724.824C573.919 883.222 667.591 1013.41 792.917 1095.9C918.099 1178.39 1074.65 1213.05 1233.06 1180.69L1234.06 1180.54C1348.07 1156.91 1447.33 1101.92 1524.82 1026.15C1605.03 947.813 1661.74 847.418 1687.1 737.427C1690.96 720.527 1707.86 710.072 1724.62 713.939C1737.37 716.947 1746.54 727.258 1748.54 739.432C1786.35 971.444 1729.21 1198.73 1604.45 1379.76C1480.27 1559.92 1288.92 1694.41 1057.6 1741.95C819.557 1790.93 584.232 1738.8 396.172 1615.06C207.969 1490.89 67.1747 1295.4 18.1903 1057.37C-29.6482 824.933 18.9065 595.069 136.498 409.316C254.662 222.99 442.292 80.7747 671.888 25.0631C676.328 23.9173 681.485 22.7716 687.071 21.4826H687.214L702.683 18.1886Z" fill="#FFDB39"/>
</g>
<defs>
<clipPath id="clip0_303_386">
<rect width="1760" height="1760" fill="white"/>
</clipPath>
</defs>
</svg>
