<svg width="1977" height="1882" viewBox="0 0 1977 1882" fill="none" xmlns="http://www.w3.org/2000/svg">
<path d="M1294.11 1104.3C922.691 1245.38 725.842 1163.08 673.845 1104.3L705.302 1080.99L860.348 666.958C860.348 666.958 1053.51 726.153 1084.67 1006.55C1097.61 1123.06 1294.11 1104.3 1294.11 1104.3Z" fill="url(#paint0_linear_533_1380)"/>
<path d="M564.207 546.392L424.345 464.199L1869.61 464.199V696.197L833.324 696.197L639.109 584.175L564.207 546.392Z" fill="url(#paint1_linear_533_1380)"/>
<path d="M258.826 521.868L269.199 548.913C294.116 587.343 270.153 626.495 267.829 633.435C264.905 642.165 249.563 659.811 241.042 667.838C242.82 675.841 250.922 681.299 254.75 683.028C271.941 685.695 278.956 695.254 280.314 699.7C278.239 705.628 291.059 752.061 297.727 774.537L310.118 805.615L322.229 823.667C331.417 835.819 327.857 883.236 325.757 925.718C298.711 959.432 340.948 963.878 342.8 972.77C344.282 979.883 356.582 983.79 361.769 984.037C369.526 987.666 388.558 988.16 398.561 987.666C402.711 990.334 417.393 992.282 424.679 992.776C430.237 990.182 443.723 984.921 453.207 984.625C462.692 984.329 466.051 978.327 466.545 975.363C468.15 968.571 471.361 955.875 471.361 959.432C471.361 962.989 477.293 1007.08 480.381 1017.95C454.891 1020.02 439.38 1078.83 434.81 1107.97L438.515 1139.83C431.345 1168.95 434.488 1191.23 424.462 1205.1C420.345 1210.8 399.46 1215.07 393.439 1252.45C391.495 1290.61 408.135 1303.59 424.807 1310.26L450 1335.45C451.729 1343.23 451.556 1381.54 456.299 1392.5C461.041 1403.47 470.007 1419.18 477.787 1430.29C502.24 1450.67 510.201 1430.29 530.398 1388.8C546.669 1355.37 524.653 1358.94 517.984 1353.39C512.928 1349.17 503.845 1300.87 493.348 1303.96C488.606 1293.88 494.46 1293.71 493.348 1285.06C502.833 1277.95 502.24 1260.12 500.758 1254.68C480.01 1199.11 533.361 1175.77 561.519 1151.32C584.045 1131.76 594.122 1114.27 596.345 1107.97C675.69 1121.29 674.52 1098.34 678.595 1101.3C681.855 1103.67 690.08 1104.27 693.785 1104.27C692.6 1111.97 647.43 1162.05 629.395 1185.66C599.997 1202.02 597.872 1246.22 599.997 1277.07C610.955 1317.04 615.78 1315.74 624.301 1326.36C632.008 1347.1 625.921 1394.9 621.104 1415.65C607.149 1433.68 598.894 1477.28 628.533 1527.67C658.173 1578.05 677.775 1548.66 696.794 1527.67L707.538 1484.74C717.912 1440.29 698.387 1417.73 680.48 1409.34C679.739 1394.15 677.676 1389.22 701.709 1344.68C720.514 1309.84 739.88 1289.21 742.719 1273.04C744.706 1261.71 748.926 1244.83 739.767 1225.4C719.818 1183.08 817.901 1140.58 854.58 1120.94C864.583 1111.92 894.222 1082.04 932.754 1034.62C971.285 987.195 963.134 878.273 954.242 829.739C953.254 817.513 937.941 772.389 884.59 689.697C831.238 607.005 731.452 580.157 688.228 577.07C676.619 568.302 648.807 546.246 630.431 528.166C612.054 510.086 527.434 472.47 487.42 455.922C523.58 415.613 518.295 357.867 511.132 334.033L499.647 365.894C483.098 381.455 448.444 415.391 442.22 426.654C435.996 437.916 406.776 457.527 392.944 465.925L295.134 497.786C285.378 500.75 265.494 502.677 264.012 486.672C262.531 470.667 246.352 455.798 238.448 450.364L180.651 419.985C184.801 485.19 234.496 515.076 258.826 521.868Z" fill="white"/>
<path d="M536.135 755.912C509.873 771.674 462.122 608.364 462.122 634.278C462.122 660.192 495.324 720.392 480.125 748.329C464.926 776.267 454.404 807.236 449.469 815.892C444.535 824.549 441.769 834.094 441.769 834.094C441.769 834.094 448.051 833.194 449.469 834.094C456.958 838.846 464.926 851.222 464.926 851.222L469.751 869.002C469.751 869.002 468.554 852.674 473.634 847.957C478.132 838.167 492.292 817.4 503.672 803.125C515.052 788.849 527.989 766.321 536.135 755.912Z" fill="url(#paint2_linear_533_1380)"/>
<path d="M325.935 825.058C315.82 747.406 290.815 706.796 279.577 696.197C277.431 702.221 280.008 710.695 294.617 762.955C309.226 815.216 325.935 825.058 325.935 825.058Z" fill="url(#paint3_linear_533_1380)"/>
<path d="M421.934 499.235C393.866 524.141 400.908 573.377 412.602 594.507C426.412 599.008 429.934 593.704 438.356 588.13C453.659 578.003 455.028 590.256 457.018 594.507C460.303 516.489 438.108 498.235 421.934 499.235Z" fill="url(#paint4_linear_533_1380)"/>
<path d="M382.842 684.709C363.934 749.709 413.002 867.073 424.573 914.685C414.528 860.964 453.165 832.98 484.714 719.028L457.498 608.917C452.801 618.163 446.603 631.394 425.331 636.44C404.06 641.486 387.889 671.353 382.842 684.709Z" fill="url(#paint5_linear_533_1380)"/>
<path d="M391.837 953.82C398.056 968.691 371.479 973.152 371.479 973.152L353.712 969.434L337.055 964.229C345.568 969.806 332.983 972.78 358.153 979.1C370.794 982.274 395.539 979.1 405.163 967.575C411.826 962.99 423.893 950.028 418.858 934.859C413.824 919.691 402.695 922.591 397.76 925.937C393.195 929.035 385.619 938.949 391.837 953.82Z" fill="url(#paint6_linear_533_1380)"/>
<path d="M672.613 1328.81C693.69 1325.85 714.52 1266.39 719.204 1241.65C723.888 1216.91 740.652 1222.81 740.652 1222.81C746.569 1236.48 753.14 1269.72 730.667 1300C707.372 1331.39 681.858 1383.1 681.118 1408.21C681.118 1408.21 697.922 1417.44 707.002 1427.04C713.288 1433.69 722.163 1458.81 722.163 1458.81C722.163 1458.81 727.361 1503.66 712.179 1524.91C698.86 1543.56 684.822 1555.32 661.89 1555.2C633.227 1555.05 619.394 1542.13 609.382 1515.31C586.086 1452.9 620.845 1411.16 620.845 1411.16C611.272 1427.57 605.768 1507.19 640.813 1515.31C707.002 1515.31 686.294 1451.79 672.613 1411.16C658.931 1370.54 661.52 1342.1 649.317 1331.39C653.755 1332.87 656.09 1331.12 672.613 1328.81Z" fill="url(#paint7_linear_533_1380)"/>
<path d="M603.345 1095.56C599.25 1111.48 576.106 1139.79 568.722 1145.17C563.195 1149.2 533.408 1172.29 522.156 1181.9C522.045 1182 521.931 1182.1 521.814 1182.2C521.926 1182.1 522.04 1182 522.156 1181.9C540.466 1165.44 472.338 1095.37 540.056 1065.2L603.345 1095.56Z" fill="url(#paint8_linear_533_1380)"/>
<path d="M597.079 1107.38C660.734 1122.5 678.375 1108.98 679.239 1100.34C681.903 1092.63 609.168 1026.14 597.079 1018.97C555.629 1041.21 570.062 1074.03 539.345 1066.24C552.668 1088.48 583.385 1102.93 597.079 1107.38Z" fill="url(#paint9_linear_533_1380)"/>
<path d="M718.453 1073.68C727.054 1063.26 731.799 1029.39 729.946 1021.2C679.155 1048.74 613.948 1021.8 595.658 998.352C605.112 1103.68 673.435 1103.64 679.112 1103.64L679.192 1103.64C682.165 1103.64 690.277 1104.07 694.726 1104.2C699.051 1098.37 709.852 1084.1 718.453 1073.68Z" fill="url(#paint10_linear_533_1380)"/>
<path d="M788.442 1132.59C807.208 1129.62 821.651 1116.58 830.103 1080.69C839.228 1109.14 830.103 1121.61 821.651 1125.11C821.651 1125.11 829.559 1125.9 834.606 1125.52C841.461 1124.99 851.772 1121.61 851.772 1121.61C821.651 1142.36 745.61 1175.32 738.944 1209.39C738.944 1209.39 730.848 1194.63 772.836 1157.67C778.932 1152.3 780.433 1146.85 780.433 1146.85C761.01 1151.87 725.765 1147.79 700.001 1177.02C723.783 1139.93 769.675 1135.56 788.442 1132.59Z" fill="url(#paint11_linear_533_1380)"/>
<path d="M194.173 475.51C203.619 489.139 224.13 514.507 255.281 522.884C249.41 508.993 237.349 477.618 194.173 475.51Z" fill="url(#paint12_linear_533_1380)"/>
<path d="M234.932 449.316C241.937 464.953 252.38 480.307 267.136 492.556C266.935 480.985 258.101 461.137 234.932 449.316Z" fill="url(#paint13_linear_533_1380)"/>
<path d="M512.03 328.197C512.03 391.403 502.176 398.426 473.345 457.197C516.774 430.584 535.752 385.859 512.03 328.197Z" fill="#FFE266"/>
<path d="M473.356 1295.38C455.448 1267.4 504.633 1335.74 473.356 1242.64C503.813 1213.93 518.675 1263.07 493.768 1287.82C493.768 1287.82 494.18 1289.76 493.768 1291.64C493.251 1293.99 492.07 1296.53 491.941 1298.93C491.759 1302.32 495.466 1303.62 495.466 1303.62L504.633 1340.84C480.956 1328.9 449.434 1330.76 451.749 1335.74C442.633 1326.52 430.66 1314.95 426.159 1311.73C425.547 1311.53 424.942 1311.32 424.345 1311.09C424.345 1310.63 425.007 1310.91 426.159 1311.73C448.794 1319.16 481.432 1308 473.356 1295.38Z" fill="url(#paint14_linear_533_1380)"/>
<path d="M452.565 972.82L400.877 986.952C403.257 990.225 418.726 991.291 426.163 991.415C432.113 988.811 442.153 985.464 454.053 983.977C464.717 982.644 467.44 976.539 468.183 972.82L474.877 946.415C469.522 963.076 457.771 970.96 452.565 972.82Z" fill="url(#paint15_linear_533_1380)"/>
<path d="M453.345 1138.2C466.411 1128.31 513.825 1082.39 537.345 1066.4C537.345 1066.4 503.301 1014.23 503.301 1048.37C503.301 1082.51 453.345 1138.2 453.345 1138.2Z" fill="url(#paint16_linear_533_1380)"/>
<path d="M426.119 636.053C441.49 633.339 453.425 614.504 457.252 607.711C475.96 656.855 435.412 670.627 418.087 666.959L413.565 680.546L410.78 657.01C411.423 652.086 410.748 638.767 426.119 636.053Z" fill="white"/>
<path d="M897.907 722.317V770.197H890.915V722.317H897.907ZM942.873 765.713C944.494 765.713 945.913 765.535 947.129 765.181C948.345 764.826 949.536 764.37 950.701 763.813L952.145 768.829C949.409 770.197 946.141 770.881 942.341 770.881C939.757 770.881 937.325 770.501 935.045 769.741C932.816 768.981 930.84 767.841 929.117 766.321C927.445 764.75 926.128 762.825 925.165 760.545C924.202 758.214 923.721 755.503 923.721 752.413C923.721 749.575 924.177 747.017 925.089 744.737C926.001 742.457 927.268 740.531 928.889 738.961C930.51 737.339 932.461 736.098 934.741 735.237C937.021 734.375 939.529 733.945 942.265 733.945C943.836 733.945 945.356 734.071 946.825 734.325C948.345 734.527 950.068 735.059 951.993 735.921L950.473 741.013C948.142 739.695 945.634 739.037 942.949 739.037C939.25 739.037 936.261 740.202 933.981 742.533C931.701 744.813 930.561 748.03 930.561 752.185C930.561 754.769 930.916 756.922 931.625 758.645C932.334 760.367 933.272 761.761 934.437 762.825C935.602 763.838 936.92 764.573 938.389 765.029C939.858 765.485 941.353 765.713 942.873 765.713ZM959.394 770.197V734.477H964.41L965.55 741.621C966.411 739.341 967.83 737.491 969.806 736.073C971.782 734.654 974.062 733.945 976.646 733.945C977.963 733.945 979.053 734.046 979.914 734.249C980.775 734.451 981.561 734.705 982.27 735.009L980.978 740.861C980.37 740.557 979.686 740.303 978.926 740.101C978.217 739.898 977.355 739.797 976.342 739.797C974.873 739.797 973.505 740.05 972.238 740.557C971.022 741.063 969.933 741.823 968.97 742.837C968.058 743.85 967.323 745.117 966.766 746.637C966.259 748.106 966.006 749.803 966.006 751.729V770.197H959.394ZM987.09 737.669C988.306 737.061 989.446 736.529 990.51 736.073C991.574 735.566 992.638 735.161 993.702 734.857C994.766 734.553 995.855 734.325 996.97 734.173C998.085 734.021 999.301 733.945 1000.62 733.945C1002.59 733.945 1004.39 734.173 1006.01 734.629C1007.69 735.034 1009.1 735.743 1010.27 736.757C1011.49 737.77 1012.42 739.113 1013.08 740.785C1013.74 742.406 1014.07 744.458 1014.07 746.941V770.197H1008.52L1007.69 766.245H1007.53C1005.96 767.917 1004.24 769.107 1002.37 769.817C1000.49 770.526 998.414 770.881 996.134 770.881C994.411 770.881 992.815 770.653 991.346 770.197C989.927 769.69 988.686 769.006 987.622 768.145C986.558 767.233 985.722 766.143 985.114 764.877C984.557 763.61 984.278 762.191 984.278 760.621C984.278 756.871 985.747 754.034 988.686 752.109C991.675 750.133 995.602 749.145 1000.47 749.145H1007.31V746.105C1007.31 743.521 1006.65 741.773 1005.33 740.861C1004.01 739.898 1002.24 739.417 1000.01 739.417C998.693 739.417 997.173 739.645 995.45 740.101C993.778 740.506 991.853 741.317 989.674 742.533L987.09 737.669ZM1007.38 753.705L1001.76 753.857C997.958 753.958 995.247 754.642 993.626 755.909C992.055 757.125 991.27 758.619 991.27 760.393C991.27 761.457 991.447 762.369 991.802 763.129C992.157 763.838 992.613 764.395 993.17 764.801C993.778 765.206 994.462 765.51 995.222 765.713C996.033 765.865 996.869 765.941 997.73 765.941C999.402 765.941 1001.1 765.561 1002.82 764.801C1004.54 763.99 1006.06 762.723 1007.38 761.001V753.705ZM1037.35 715.857C1038.76 715.857 1040.23 716.059 1041.75 716.465C1043.32 716.87 1044.72 717.377 1045.93 717.985L1044.57 722.621C1043.55 722.215 1042.59 721.911 1041.68 721.709C1040.77 721.455 1039.8 721.329 1038.79 721.329C1036.36 721.329 1034.61 722.013 1033.55 723.381C1032.53 724.749 1032.03 727.079 1032.03 730.373V734.477H1042.89V739.493H1032.03V770.197H1025.41V739.493H1020.17V734.477H1025.41V728.169C1025.41 724.217 1026.43 721.177 1028.45 719.049C1030.53 716.921 1033.49 715.857 1037.35 715.857ZM1067.16 739.493H1056.67V760.241C1056.67 762.014 1057.1 763.205 1057.96 763.813C1058.87 764.421 1060.04 764.725 1061.46 764.725C1062.47 764.725 1063.59 764.623 1064.8 764.421C1066.02 764.167 1067.08 763.889 1067.99 763.585L1069.06 768.677C1068.04 769.082 1066.75 769.437 1065.18 769.741C1063.61 770.045 1061.96 770.197 1060.24 770.197C1056.7 770.197 1054.11 769.437 1052.49 767.917C1050.87 766.346 1050.06 764.091 1050.06 761.153V739.493H1044.74V734.477H1050.06V723.077H1056.67V734.477H1067.16V739.493ZM1109.87 765.713C1111.49 765.713 1112.91 765.535 1114.12 765.181C1115.34 764.826 1116.53 764.37 1117.69 763.813L1119.14 768.829C1116.4 770.197 1113.13 770.881 1109.33 770.881C1106.75 770.881 1104.32 770.501 1102.04 769.741C1099.81 768.981 1097.83 767.841 1096.11 766.321C1094.44 764.75 1093.12 762.825 1092.16 760.545C1091.19 758.214 1090.71 755.503 1090.71 752.413C1090.71 749.575 1091.17 747.017 1092.08 744.737C1092.99 742.457 1094.26 740.531 1095.88 738.961C1097.5 737.339 1099.45 736.098 1101.73 735.237C1104.01 734.375 1106.52 733.945 1109.26 733.945C1110.83 733.945 1112.35 734.071 1113.82 734.325C1115.34 734.527 1117.06 735.059 1118.99 735.921L1117.47 741.013C1115.13 739.695 1112.63 739.037 1109.94 739.037C1106.24 739.037 1103.25 740.202 1100.97 742.533C1098.69 744.813 1097.55 748.03 1097.55 752.185C1097.55 754.769 1097.91 756.922 1098.62 758.645C1099.33 760.367 1100.26 761.761 1101.43 762.825C1102.59 763.838 1103.91 764.573 1105.38 765.029C1106.85 765.485 1108.35 765.713 1109.87 765.713ZM1126.39 770.197V734.477H1131.4L1132.54 741.621C1133.4 739.341 1134.82 737.491 1136.8 736.073C1138.77 734.654 1141.05 733.945 1143.64 733.945C1144.96 733.945 1146.04 734.046 1146.91 734.249C1147.77 734.451 1148.55 734.705 1149.26 735.009L1147.97 740.861C1147.36 740.557 1146.68 740.303 1145.92 740.101C1145.21 739.898 1144.35 739.797 1143.33 739.797C1141.86 739.797 1140.5 740.05 1139.23 740.557C1138.01 741.063 1136.92 741.823 1135.96 742.837C1135.05 743.85 1134.32 745.117 1133.76 746.637C1133.25 748.106 1133 749.803 1133 751.729V770.197H1126.39ZM1155.51 770.197V734.477H1162.2V770.197H1155.51ZM1158.85 725.281C1157.69 725.281 1156.67 724.901 1155.81 724.141C1155 723.33 1154.6 722.342 1154.6 721.177C1154.6 720.011 1155 719.023 1155.81 718.213C1156.67 717.402 1157.69 716.997 1158.85 716.997C1159.97 716.997 1160.96 717.402 1161.82 718.213C1162.68 719.023 1163.11 720.011 1163.11 721.177C1163.11 722.342 1162.68 723.33 1161.82 724.141C1160.96 724.901 1159.97 725.281 1158.85 725.281ZM1193.21 741.165C1191.54 740.354 1190.02 739.797 1188.65 739.493C1187.28 739.189 1185.92 739.037 1184.55 739.037C1182.12 739.037 1180.32 739.493 1179.15 740.405C1177.99 741.266 1177.4 742.431 1177.4 743.901C1177.4 744.965 1177.81 745.902 1178.62 746.713C1179.43 747.473 1181.13 748.233 1183.71 748.993L1185.99 749.677C1189.39 750.69 1191.94 752.007 1193.67 753.629C1195.44 755.199 1196.33 757.353 1196.33 760.089C1196.33 763.331 1195.11 765.941 1192.68 767.917C1190.3 769.893 1186.95 770.881 1182.65 770.881C1180.37 770.881 1178.16 770.678 1176.04 770.273C1173.96 769.867 1172.16 769.31 1170.64 768.601L1172.24 763.357C1173.7 764.066 1175.3 764.649 1177.02 765.105C1178.75 765.51 1180.49 765.713 1182.27 765.713C1184.55 765.713 1186.35 765.307 1187.66 764.497C1189.03 763.686 1189.72 762.343 1189.72 760.469C1189.72 758.847 1189.13 757.707 1187.97 757.049C1186.8 756.339 1185.13 755.655 1182.95 754.997L1180.6 754.237C1177.3 753.173 1174.84 751.855 1173.22 750.285C1171.65 748.663 1170.87 746.586 1170.87 744.053C1170.87 742.533 1171.2 741.139 1171.86 739.873C1172.51 738.606 1173.4 737.542 1174.52 736.681C1175.68 735.819 1177.05 735.161 1178.62 734.705C1180.19 734.198 1181.91 733.945 1183.79 733.945C1185.56 733.945 1187.38 734.122 1189.26 734.477C1191.18 734.781 1193.01 735.313 1194.73 736.073L1193.21 741.165ZM1218.92 770.881C1217.3 770.881 1215.72 770.653 1214.2 770.197C1212.74 769.741 1211.47 769.133 1210.4 768.373V787.677H1203.79V733.945H1209.34L1210.33 738.581C1211.7 737.314 1213.24 736.225 1214.96 735.313C1216.69 734.401 1218.71 733.945 1221.04 733.945C1225.81 733.945 1229.56 735.465 1232.29 738.505C1235.03 741.545 1236.4 745.902 1236.4 751.577C1236.4 754.921 1235.89 757.809 1234.88 760.241C1233.91 762.673 1232.6 764.674 1230.92 766.245C1229.3 767.815 1227.43 768.981 1225.3 769.741C1223.22 770.501 1221.1 770.881 1218.92 770.881ZM1219.6 739.417C1217.47 739.417 1215.62 739.949 1214.05 741.013C1212.48 742.026 1211.27 743.065 1210.4 744.129V763.205C1211.57 764.066 1212.81 764.699 1214.13 765.105C1215.45 765.51 1216.76 765.713 1218.08 765.713C1219.45 765.713 1220.82 765.485 1222.18 765.029C1223.55 764.522 1224.77 763.711 1225.83 762.597C1226.9 761.482 1227.76 760.038 1228.42 758.265C1229.08 756.491 1229.4 754.313 1229.4 751.729C1229.4 747.929 1228.59 744.939 1226.97 742.761C1225.4 740.531 1222.94 739.417 1219.6 739.417ZM1258.43 756.061C1258.43 754.186 1258.74 752.489 1259.34 750.969C1260 749.449 1260.86 748.081 1261.93 746.865C1262.99 745.649 1264.23 744.585 1265.65 743.673C1267.07 742.761 1268.59 741.975 1270.21 741.317C1268.89 739.847 1267.73 738.175 1266.72 736.301C1265.75 734.375 1265.27 732.273 1265.27 729.993C1265.27 728.321 1265.6 726.826 1266.26 725.509C1266.92 724.191 1267.8 723.077 1268.92 722.165C1270.08 721.202 1271.43 720.493 1272.95 720.037C1274.52 719.53 1276.16 719.277 1277.89 719.277C1279.61 719.277 1281.21 719.53 1282.68 720.037C1284.2 720.543 1285.49 721.278 1286.55 722.241C1287.67 723.153 1288.53 724.267 1289.14 725.585C1289.74 726.902 1290.05 728.346 1290.05 729.917C1290.05 732.602 1289.36 734.831 1288 736.605C1286.63 738.378 1284.83 739.822 1282.6 740.937L1279.48 737.213C1280.8 736.503 1281.84 735.566 1282.6 734.401C1283.41 733.235 1283.82 731.867 1283.82 730.297C1283.82 728.523 1283.23 727.079 1282.07 725.965C1280.95 724.85 1279.51 724.293 1277.74 724.293C1275.81 724.293 1274.32 724.825 1273.25 725.889C1272.19 726.953 1271.66 728.346 1271.66 730.069C1271.66 732.349 1272.29 734.451 1273.56 736.377C1274.82 738.251 1276.65 740.379 1279.03 742.761L1291.8 755.681C1292.66 754.363 1293.47 752.843 1294.23 751.121C1294.99 749.347 1295.65 747.65 1296.2 746.029L1301.68 748.233C1300.86 750.513 1299.95 752.641 1298.94 754.617C1297.93 756.593 1296.91 758.341 1295.9 759.861L1306.16 770.197H1297.95L1292.18 764.269C1291.47 765.079 1290.58 765.89 1289.52 766.701C1288.5 767.461 1287.31 768.145 1285.94 768.753C1284.58 769.361 1283.03 769.842 1281.31 770.197C1279.64 770.602 1277.79 770.805 1275.76 770.805C1273.12 770.805 1270.74 770.45 1268.62 769.741C1266.49 768.981 1264.66 767.942 1263.14 766.625C1261.62 765.307 1260.46 763.762 1259.65 761.989C1258.84 760.165 1258.43 758.189 1258.43 756.061ZM1264.97 755.909C1264.97 759.101 1266.01 761.533 1268.08 763.205C1270.21 764.826 1273.02 765.637 1276.52 765.637C1277.58 765.637 1278.67 765.51 1279.79 765.257C1280.95 765.003 1282.07 764.649 1283.13 764.193C1284.2 763.686 1285.16 763.103 1286.02 762.445C1286.93 761.786 1287.69 761.051 1288.3 760.241L1273.4 745.117C1272.29 745.674 1271.22 746.307 1270.21 747.017C1269.2 747.726 1268.29 748.537 1267.48 749.449C1266.72 750.31 1266.11 751.298 1265.65 752.413C1265.2 753.477 1264.97 754.642 1264.97 755.909ZM1334.88 770.197H1328.19V734.477H1333.36L1334.35 739.417C1336.02 737.745 1337.82 736.427 1339.74 735.465C1341.67 734.451 1343.97 733.945 1346.66 733.945C1349.19 733.945 1351.27 734.477 1352.89 735.541C1354.51 736.554 1355.73 737.973 1356.54 739.797C1358.31 737.922 1360.26 736.478 1362.39 735.465C1364.52 734.451 1366.87 733.945 1369.46 733.945C1373.11 733.945 1375.84 734.983 1377.67 737.061C1379.54 739.087 1380.48 741.925 1380.48 745.573V770.197H1373.79V746.789C1373.79 744.407 1373.28 742.583 1372.27 741.317C1371.26 740.05 1369.59 739.417 1367.25 739.417C1363.81 739.417 1360.59 740.962 1357.6 744.053C1357.65 744.306 1357.68 744.559 1357.68 744.813C1357.68 745.066 1357.68 745.319 1357.68 745.573V770.197H1350.99V746.789C1350.99 744.407 1350.48 742.583 1349.47 741.317C1348.46 740.05 1346.79 739.417 1344.45 739.417C1341.01 739.417 1337.82 741.038 1334.88 744.281V770.197ZM1421.23 753.097H1395.62V753.401C1395.62 757.353 1396.68 760.393 1398.81 762.521C1400.99 764.649 1403.93 765.713 1407.63 765.713C1409.55 765.713 1411.25 765.561 1412.72 765.257C1414.24 764.953 1415.89 764.446 1417.66 763.737L1419.03 768.677C1417.56 769.335 1415.81 769.867 1413.78 770.273C1411.81 770.678 1409.68 770.881 1407.4 770.881C1404.82 770.881 1402.38 770.526 1400.1 769.817C1397.87 769.107 1395.9 768.018 1394.18 766.549C1392.45 765.029 1391.08 763.103 1390.07 760.773C1389.11 758.442 1388.63 755.655 1388.63 752.413C1388.63 749.626 1389.03 747.093 1389.84 744.813C1390.7 742.533 1391.9 740.607 1393.42 739.037C1394.94 737.415 1396.76 736.174 1398.89 735.313C1401.07 734.401 1403.5 733.945 1406.18 733.945C1408.46 733.945 1410.52 734.325 1412.34 735.085C1414.21 735.845 1415.81 736.909 1417.13 738.277C1418.44 739.645 1419.46 741.291 1420.17 743.217C1420.88 745.142 1421.23 747.27 1421.23 749.601V753.097ZM1414.32 748.309C1414.32 746.991 1414.14 745.775 1413.78 744.661C1413.48 743.495 1412.97 742.482 1412.26 741.621C1411.6 740.759 1410.74 740.075 1409.68 739.569C1408.62 739.062 1407.32 738.809 1405.8 738.809C1403.02 738.809 1400.74 739.695 1398.96 741.469C1397.24 743.242 1396.18 745.573 1395.77 748.461L1414.32 748.309ZM1429.51 737.669C1430.72 737.061 1431.86 736.529 1432.93 736.073C1433.99 735.566 1435.06 735.161 1436.12 734.857C1437.18 734.553 1438.27 734.325 1439.39 734.173C1440.5 734.021 1441.72 733.945 1443.04 733.945C1445.01 733.945 1446.81 734.173 1448.43 734.629C1450.1 735.034 1451.52 735.743 1452.69 736.757C1453.9 737.77 1454.84 739.113 1455.5 740.785C1456.16 742.406 1456.49 744.458 1456.49 746.941V770.197H1450.94L1450.1 766.245H1449.95C1448.38 767.917 1446.66 769.107 1444.78 769.817C1442.91 770.526 1440.83 770.881 1438.55 770.881C1436.83 770.881 1435.23 770.653 1433.76 770.197C1432.35 769.69 1431.1 769.006 1430.04 768.145C1428.98 767.233 1428.14 766.143 1427.53 764.877C1426.97 763.61 1426.7 762.191 1426.7 760.621C1426.7 756.871 1428.17 754.034 1431.1 752.109C1434.09 750.133 1438.02 749.145 1442.88 749.145H1449.72V746.105C1449.72 743.521 1449.07 741.773 1447.75 740.861C1446.43 739.898 1444.66 739.417 1442.43 739.417C1441.11 739.417 1439.59 739.645 1437.87 740.101C1436.2 740.506 1434.27 741.317 1432.09 742.533L1429.51 737.669ZM1449.8 753.705L1444.18 753.857C1440.38 753.958 1437.67 754.642 1436.04 755.909C1434.47 757.125 1433.69 758.619 1433.69 760.393C1433.69 761.457 1433.87 762.369 1434.22 763.129C1434.57 763.838 1435.03 764.395 1435.59 764.801C1436.2 765.206 1436.88 765.51 1437.64 765.713C1438.45 765.865 1439.29 765.941 1440.15 765.941C1441.82 765.941 1443.52 765.561 1445.24 764.801C1446.96 763.99 1448.48 762.723 1449.8 761.001V753.705ZM1473 770.197H1466.31V734.477H1471.56L1472.54 739.417C1474.32 737.643 1476.17 736.301 1478.09 735.389C1480.07 734.426 1482.32 733.945 1484.86 733.945C1488.5 733.945 1491.37 734.983 1493.44 737.061C1495.52 739.087 1496.56 741.925 1496.56 745.573V770.197H1489.87V746.561C1489.87 744.382 1489.29 742.659 1488.12 741.393C1487.01 740.075 1485.29 739.417 1482.96 739.417C1479.41 739.417 1476.09 741.013 1473 744.205V770.197ZM1507.97 770.197V734.477H1514.66V770.197H1507.97ZM1511.32 725.281C1510.15 725.281 1509.14 724.901 1508.28 724.141C1507.47 723.33 1507.06 722.342 1507.06 721.177C1507.06 720.011 1507.47 719.023 1508.28 718.213C1509.14 717.402 1510.15 716.997 1511.32 716.997C1512.43 716.997 1513.42 717.402 1514.28 718.213C1515.14 719.023 1515.57 720.011 1515.57 721.177C1515.57 722.342 1515.14 723.33 1514.28 724.141C1513.42 724.901 1512.43 725.281 1511.32 725.281ZM1532.3 770.197H1525.61V734.477H1530.86L1531.84 739.417C1533.62 737.643 1535.47 736.301 1537.39 735.389C1539.37 734.426 1541.62 733.945 1544.16 733.945C1547.8 733.945 1550.67 734.983 1552.74 737.061C1554.82 739.087 1555.86 741.925 1555.86 745.573V770.197H1549.17V746.561C1549.17 744.382 1548.59 742.659 1547.42 741.393C1546.31 740.075 1544.59 739.417 1542.26 739.417C1538.71 739.417 1535.39 741.013 1532.3 744.205V770.197ZM1565.31 746.333C1565.31 744.357 1565.66 742.609 1566.37 741.089C1567.08 739.518 1568.07 738.201 1569.33 737.137C1570.65 736.073 1572.2 735.287 1573.97 734.781C1575.74 734.223 1577.67 733.945 1579.75 733.945C1580.51 733.945 1581.24 733.995 1581.95 734.097C1582.66 734.198 1583.37 734.325 1584.08 734.477H1599.51V739.417H1597.15L1591.07 738.581C1592.03 739.594 1592.77 740.759 1593.27 742.077C1593.83 743.394 1594.11 744.787 1594.11 746.257C1594.11 748.233 1593.76 750.006 1593.05 751.577C1592.34 753.097 1591.35 754.389 1590.08 755.453C1588.82 756.517 1587.3 757.327 1585.52 757.885C1583.75 758.391 1581.82 758.645 1579.75 758.645C1578.18 758.645 1576.81 758.543 1575.64 758.341C1574.48 758.746 1573.67 759.278 1573.21 759.937C1572.75 760.545 1572.53 761.203 1572.53 761.913C1572.53 763.078 1572.91 763.863 1573.67 764.269C1574.48 764.674 1575.54 764.877 1576.86 764.877H1586.28C1590.23 764.877 1593.25 765.789 1595.33 767.613C1597.45 769.386 1598.52 771.818 1598.52 774.909C1598.52 776.885 1598.09 778.658 1597.23 780.229C1596.37 781.799 1595.12 783.142 1593.5 784.257C1591.93 785.371 1590.01 786.207 1587.73 786.765C1585.45 787.373 1582.89 787.677 1580.05 787.677C1574.88 787.677 1570.75 786.739 1567.66 784.865C1564.62 783.041 1563.1 780.33 1563.1 776.733C1563.1 774.858 1563.69 773.287 1564.85 772.021C1566.07 770.754 1567.64 769.791 1569.56 769.133C1568.55 768.423 1567.79 767.689 1567.28 766.929C1566.78 766.118 1566.52 765.054 1566.52 763.737C1566.52 762.166 1566.98 760.823 1567.89 759.709C1568.85 758.594 1570.15 757.707 1571.77 757.049C1569.74 756.137 1568.14 754.819 1566.98 753.097C1565.86 751.323 1565.31 749.069 1565.31 746.333ZM1573.44 770.197C1570.85 771.362 1569.56 773.186 1569.56 775.669C1569.56 780.127 1573.16 782.357 1580.35 782.357C1582.48 782.357 1584.28 782.154 1585.75 781.749C1587.22 781.343 1588.41 780.811 1589.32 780.153C1590.23 779.494 1590.89 778.759 1591.3 777.949C1591.75 777.138 1591.98 776.302 1591.98 775.441C1591.98 773.313 1591.25 771.894 1589.78 771.185C1588.36 770.526 1586.56 770.197 1584.38 770.197H1573.44ZM1587.35 746.485C1587.35 743.799 1586.64 741.823 1585.22 740.557C1583.85 739.29 1582.03 738.657 1579.75 738.657C1577.47 738.657 1575.62 739.29 1574.2 740.557C1572.83 741.823 1572.15 743.698 1572.15 746.181C1572.15 748.815 1572.83 750.766 1574.2 752.033C1575.62 753.249 1577.47 753.857 1579.75 753.857C1582.03 753.857 1583.85 753.249 1585.22 752.033C1586.64 750.817 1587.35 748.967 1587.35 746.485ZM1621.15 715.857C1622.57 715.857 1624.04 716.059 1625.56 716.465C1627.13 716.87 1628.52 717.377 1629.74 717.985L1628.37 722.621C1627.36 722.215 1626.39 721.911 1625.48 721.709C1624.57 721.455 1623.61 721.329 1622.59 721.329C1620.16 721.329 1618.41 722.013 1617.35 723.381C1616.34 724.749 1615.83 727.079 1615.83 730.373V734.477H1626.7V739.493H1615.83V770.197H1609.22V739.493H1603.97V734.477H1609.22V728.169C1609.22 724.217 1610.23 721.177 1612.26 719.049C1614.34 716.921 1617.3 715.857 1621.15 715.857ZM1656.87 734.477H1663.56V770.197H1658.32L1657.4 765.713H1657.1C1655.78 767.182 1654.14 768.423 1652.16 769.437C1650.24 770.399 1647.98 770.881 1645.4 770.881C1641.7 770.881 1638.68 769.842 1636.35 767.765C1634.07 765.637 1632.93 762.445 1632.93 758.189V734.477H1639.62V757.353C1639.62 758.873 1639.8 760.165 1640.15 761.229C1640.56 762.293 1641.06 763.154 1641.67 763.813C1642.33 764.421 1643.09 764.877 1643.95 765.181C1644.81 765.434 1645.75 765.561 1646.76 765.561C1648.79 765.561 1650.62 765.13 1652.24 764.269C1653.86 763.407 1655.4 762.217 1656.87 760.697V734.477ZM1674.21 770.197V716.237H1680.74V770.197H1674.21ZM922.759 847.957C922.759 850.946 922.303 853.631 921.391 856.013C920.479 858.343 919.212 860.319 917.591 861.941C916.02 863.562 914.171 864.803 912.043 865.665C909.915 866.475 907.61 866.881 905.127 866.881C902.644 866.881 900.339 866.501 898.211 865.741C896.134 864.93 894.31 863.765 892.739 862.245C891.219 860.674 890.003 858.774 889.091 856.545C888.23 854.265 887.799 851.655 887.799 848.717C887.799 845.727 888.255 843.067 889.167 840.737C890.079 838.406 891.32 836.455 892.891 834.885C894.512 833.263 896.387 832.047 898.515 831.237C900.643 830.375 902.948 829.945 905.431 829.945C907.914 829.945 910.194 830.325 912.271 831.085C914.399 831.845 916.223 832.985 917.743 834.505C919.314 836.025 920.53 837.925 921.391 840.205C922.303 842.434 922.759 845.018 922.759 847.957ZM915.767 848.337C915.767 845.955 915.463 843.929 914.855 842.257C914.247 840.585 913.436 839.217 912.423 838.153C911.46 837.089 910.346 836.329 909.079 835.873C907.812 835.366 906.52 835.113 905.203 835.113C903.886 835.113 902.594 835.315 901.327 835.721C900.06 836.126 898.946 836.835 897.983 837.849C897.02 838.862 896.235 840.23 895.627 841.953C895.07 843.625 894.791 845.753 894.791 848.337C894.791 850.718 895.095 852.77 895.703 854.493C896.311 856.165 897.096 857.533 898.059 858.597C899.072 859.661 900.212 860.446 901.479 860.953C902.746 861.459 904.038 861.713 905.355 861.713C906.672 861.713 907.964 861.51 909.231 861.105C910.498 860.649 911.612 859.914 912.575 858.901C913.538 857.837 914.298 856.469 914.855 854.797C915.463 853.074 915.767 850.921 915.767 848.337ZM937.585 866.197H930.897V830.477H936.141L937.129 835.417C938.903 833.643 940.752 832.301 942.677 831.389C944.653 830.426 946.908 829.945 949.441 829.945C953.089 829.945 955.952 830.983 958.029 833.061C960.107 835.087 961.145 837.925 961.145 841.573V866.197H954.457V842.561C954.457 840.382 953.875 838.659 952.709 837.393C951.595 836.075 949.872 835.417 947.541 835.417C943.995 835.417 940.676 837.013 937.585 840.205V866.197ZM971.799 866.197V812.237H978.335V866.197H971.799ZM990.075 866.197V830.477H996.763V866.197H990.075ZM993.419 821.281C992.253 821.281 991.24 820.901 990.379 820.141C989.568 819.33 989.163 818.342 989.163 817.177C989.163 816.011 989.568 815.023 990.379 814.213C991.24 813.402 992.253 812.997 993.419 812.997C994.533 812.997 995.521 813.402 996.383 814.213C997.244 815.023 997.675 816.011 997.675 817.177C997.675 818.342 997.244 819.33 996.383 820.141C995.521 820.901 994.533 821.281 993.419 821.281ZM1014.4 866.197H1007.71V830.477H1012.96L1013.95 835.417C1015.72 833.643 1017.57 832.301 1019.49 831.389C1021.47 830.426 1023.72 829.945 1026.26 829.945C1029.91 829.945 1032.77 830.983 1034.85 833.061C1036.92 835.087 1037.96 837.925 1037.96 841.573V866.197H1031.27V842.561C1031.27 840.382 1030.69 838.659 1029.53 837.393C1028.41 836.075 1026.69 835.417 1024.36 835.417C1020.81 835.417 1017.49 837.013 1014.4 840.205V866.197ZM1078.71 849.097H1053.1V849.401C1053.1 853.353 1054.16 856.393 1056.29 858.521C1058.47 860.649 1061.41 861.713 1065.11 861.713C1067.03 861.713 1068.73 861.561 1070.2 861.257C1071.72 860.953 1073.37 860.446 1075.14 859.737L1076.51 864.677C1075.04 865.335 1073.29 865.867 1071.26 866.273C1069.29 866.678 1067.16 866.881 1064.88 866.881C1062.3 866.881 1059.86 866.526 1057.58 865.817C1055.35 865.107 1053.38 864.018 1051.66 862.549C1049.93 861.029 1048.56 859.103 1047.55 856.773C1046.59 854.442 1046.11 851.655 1046.11 848.413C1046.11 845.626 1046.51 843.093 1047.32 840.813C1048.18 838.533 1049.38 836.607 1050.9 835.037C1052.42 833.415 1054.24 832.174 1056.37 831.313C1058.55 830.401 1060.98 829.945 1063.66 829.945C1065.94 829.945 1068 830.325 1069.82 831.085C1071.69 831.845 1073.29 832.909 1074.61 834.277C1075.92 835.645 1076.94 837.291 1077.65 839.217C1078.36 841.142 1078.71 843.27 1078.71 845.601V849.097ZM1071.8 844.309C1071.8 842.991 1071.62 841.775 1071.26 840.661C1070.96 839.495 1070.45 838.482 1069.74 837.621C1069.08 836.759 1068.22 836.075 1067.16 835.569C1066.1 835.062 1064.8 834.809 1063.28 834.809C1060.5 834.809 1058.22 835.695 1056.44 837.469C1054.72 839.242 1053.66 841.573 1053.25 844.461L1071.8 844.309ZM1133.86 849.097H1108.24V849.401C1108.24 853.353 1109.31 856.393 1111.44 858.521C1113.61 860.649 1116.55 861.713 1120.25 861.713C1122.18 861.713 1123.87 861.561 1125.34 861.257C1126.86 860.953 1128.51 860.446 1130.28 859.737L1131.65 864.677C1130.18 865.335 1128.43 865.867 1126.41 866.273C1124.43 866.678 1122.3 866.881 1120.02 866.881C1117.44 866.881 1115.01 866.526 1112.73 865.817C1110.5 865.107 1108.52 864.018 1106.8 862.549C1105.08 861.029 1103.71 859.103 1102.7 856.773C1101.73 854.442 1101.25 851.655 1101.25 848.413C1101.25 845.626 1101.66 843.093 1102.47 840.813C1103.33 838.533 1104.52 836.607 1106.04 835.037C1107.56 833.415 1109.38 832.174 1111.51 831.313C1113.69 830.401 1116.12 829.945 1118.81 829.945C1121.09 829.945 1123.14 830.325 1124.96 831.085C1126.84 831.845 1128.43 832.909 1129.75 834.277C1131.07 835.645 1132.08 837.291 1132.79 839.217C1133.5 841.142 1133.86 843.27 1133.86 845.601V849.097ZM1126.94 844.309C1126.94 842.991 1126.76 841.775 1126.41 840.661C1126.1 839.495 1125.6 838.482 1124.89 837.621C1124.23 836.759 1123.37 836.075 1122.3 835.569C1121.24 835.062 1119.95 834.809 1118.43 834.809C1115.64 834.809 1113.36 835.695 1111.59 837.469C1109.87 839.242 1108.8 841.573 1108.4 844.461L1126.94 844.309ZM1156.67 848.109L1169.21 866.197H1161.61L1155.45 857.229L1152.64 852.593L1150.05 857.153L1144.13 866.197H1136.68L1149.07 848.109L1137.29 830.477H1144.81L1150.43 839.217L1153.17 843.777L1155.83 839.217L1161.07 830.477H1168.37L1156.67 848.109ZM1189.9 866.881C1188.28 866.881 1186.71 866.653 1185.19 866.197C1183.72 865.741 1182.45 865.133 1181.39 864.373V883.677H1174.77V829.945H1180.32L1181.31 834.581C1182.68 833.314 1184.22 832.225 1185.95 831.313C1187.67 830.401 1189.69 829.945 1192.03 829.945C1196.79 829.945 1200.54 831.465 1203.27 834.505C1206.01 837.545 1207.38 841.902 1207.38 847.577C1207.38 850.921 1206.87 853.809 1205.86 856.241C1204.89 858.673 1203.58 860.674 1201.91 862.245C1200.28 863.815 1198.41 864.981 1196.28 865.741C1194.2 866.501 1192.08 866.881 1189.9 866.881ZM1190.58 835.417C1188.45 835.417 1186.6 835.949 1185.03 837.013C1183.46 838.026 1182.25 839.065 1181.39 840.129V859.205C1182.55 860.066 1183.79 860.699 1185.11 861.105C1186.43 861.51 1187.74 861.713 1189.06 861.713C1190.43 861.713 1191.8 861.485 1193.17 861.029C1194.53 860.522 1195.75 859.711 1196.81 858.597C1197.88 857.482 1198.74 856.038 1199.4 854.265C1200.06 852.491 1200.39 850.313 1200.39 847.729C1200.39 843.929 1199.57 840.939 1197.95 838.761C1196.38 836.531 1193.93 835.417 1190.58 835.417ZM1245.85 849.097H1220.24V849.401C1220.24 853.353 1221.3 856.393 1223.43 858.521C1225.61 860.649 1228.55 861.713 1232.25 861.713C1234.17 861.713 1235.87 861.561 1237.34 861.257C1238.86 860.953 1240.51 860.446 1242.28 859.737L1243.65 864.677C1242.18 865.335 1240.43 865.867 1238.4 866.273C1236.43 866.678 1234.3 866.881 1232.02 866.881C1229.44 866.881 1227 866.526 1224.72 865.817C1222.49 865.107 1220.52 864.018 1218.8 862.549C1217.07 861.029 1215.71 859.103 1214.69 856.773C1213.73 854.442 1213.25 851.655 1213.25 848.413C1213.25 845.626 1213.65 843.093 1214.46 840.813C1215.33 838.533 1216.52 836.607 1218.04 835.037C1219.56 833.415 1221.38 832.174 1223.51 831.313C1225.69 830.401 1228.12 829.945 1230.8 829.945C1233.08 829.945 1235.14 830.325 1236.96 831.085C1238.83 831.845 1240.43 832.909 1241.75 834.277C1243.07 835.645 1244.08 837.291 1244.79 839.217C1245.5 841.142 1245.85 843.27 1245.85 845.601V849.097ZM1238.94 844.309C1238.94 842.991 1238.76 841.775 1238.4 840.661C1238.1 839.495 1237.59 838.482 1236.88 837.621C1236.23 836.759 1235.36 836.075 1234.3 835.569C1233.24 835.062 1231.94 834.809 1230.42 834.809C1227.64 834.809 1225.36 835.695 1223.58 837.469C1221.86 839.242 1220.8 841.573 1220.39 844.461L1238.94 844.309ZM1253.6 866.197V830.477H1258.61L1259.75 837.621C1260.61 835.341 1262.03 833.491 1264.01 832.073C1265.99 830.654 1268.27 829.945 1270.85 829.945C1272.17 829.945 1273.26 830.046 1274.12 830.249C1274.98 830.451 1275.76 830.705 1276.47 831.009L1275.18 836.861C1274.57 836.557 1273.89 836.303 1273.13 836.101C1272.42 835.898 1271.56 835.797 1270.55 835.797C1269.08 835.797 1267.71 836.05 1266.44 836.557C1265.23 837.063 1264.14 837.823 1263.17 838.837C1262.26 839.85 1261.53 841.117 1260.97 842.637C1260.46 844.106 1260.21 845.803 1260.21 847.729V866.197H1253.6ZM1282.72 866.197V830.477H1289.41V866.197H1282.72ZM1286.06 821.281C1284.9 821.281 1283.88 820.901 1283.02 820.141C1282.21 819.33 1281.81 818.342 1281.81 817.177C1281.81 816.011 1282.21 815.023 1283.02 814.213C1283.88 813.402 1284.9 812.997 1286.06 812.997C1287.18 812.997 1288.17 813.402 1289.03 814.213C1289.89 815.023 1290.32 816.011 1290.32 817.177C1290.32 818.342 1289.89 819.33 1289.03 820.141C1288.17 820.901 1287.18 821.281 1286.06 821.281ZM1330.76 849.097H1305.15V849.401C1305.15 853.353 1306.21 856.393 1308.34 858.521C1310.52 860.649 1313.46 861.713 1317.15 861.713C1319.08 861.713 1320.78 861.561 1322.25 861.257C1323.77 860.953 1325.41 860.446 1327.19 859.737L1328.55 864.677C1327.09 865.335 1325.34 865.867 1323.31 866.273C1321.33 866.678 1319.21 866.881 1316.93 866.881C1314.34 866.881 1311.91 866.526 1309.63 865.817C1307.4 865.107 1305.43 864.018 1303.7 862.549C1301.98 861.029 1300.61 859.103 1299.6 856.773C1298.64 854.442 1298.15 851.655 1298.15 848.413C1298.15 845.626 1298.56 843.093 1299.37 840.813C1300.23 838.533 1301.42 836.607 1302.94 835.037C1304.46 833.415 1306.29 832.174 1308.41 831.313C1310.59 830.401 1313.03 829.945 1315.71 829.945C1317.99 829.945 1320.04 830.325 1321.87 831.085C1323.74 831.845 1325.34 832.909 1326.65 834.277C1327.97 835.645 1328.99 837.291 1329.69 839.217C1330.4 841.142 1330.76 843.27 1330.76 845.601V849.097ZM1323.84 844.309C1323.84 842.991 1323.67 841.775 1323.31 840.661C1323.01 839.495 1322.5 838.482 1321.79 837.621C1321.13 836.759 1320.27 836.075 1319.21 835.569C1318.14 835.062 1316.85 834.809 1315.33 834.809C1312.54 834.809 1310.26 835.695 1308.49 837.469C1306.77 839.242 1305.7 841.573 1305.3 844.461L1323.84 844.309ZM1345.34 866.197H1338.66V830.477H1343.9L1344.89 835.417C1346.66 833.643 1348.51 832.301 1350.44 831.389C1352.41 830.426 1354.67 829.945 1357.2 829.945C1360.85 829.945 1363.71 830.983 1365.79 833.061C1367.86 835.087 1368.9 837.925 1368.9 841.573V866.197H1362.22V842.561C1362.22 840.382 1361.63 838.659 1360.47 837.393C1359.35 836.075 1357.63 835.417 1355.3 835.417C1351.75 835.417 1348.43 837.013 1345.34 840.205V866.197ZM1396.2 861.713C1397.82 861.713 1399.24 861.535 1400.46 861.181C1401.67 860.826 1402.86 860.37 1404.03 859.813L1405.47 864.829C1402.74 866.197 1399.47 866.881 1395.67 866.881C1393.08 866.881 1390.65 866.501 1388.37 865.741C1386.14 864.981 1384.17 863.841 1382.44 862.321C1380.77 860.75 1379.46 858.825 1378.49 856.545C1377.53 854.214 1377.05 851.503 1377.05 848.413C1377.05 845.575 1377.5 843.017 1378.42 840.737C1379.33 838.457 1380.6 836.531 1382.22 834.961C1383.84 833.339 1385.79 832.098 1388.07 831.237C1390.35 830.375 1392.86 829.945 1395.59 829.945C1397.16 829.945 1398.68 830.071 1400.15 830.325C1401.67 830.527 1403.4 831.059 1405.32 831.921L1403.8 837.013C1401.47 835.695 1398.96 835.037 1396.28 835.037C1392.58 835.037 1389.59 836.202 1387.31 838.533C1385.03 840.813 1383.89 844.03 1383.89 848.185C1383.89 850.769 1384.24 852.922 1384.95 854.645C1385.66 856.367 1386.6 857.761 1387.76 858.825C1388.93 859.838 1390.25 860.573 1391.72 861.029C1393.19 861.485 1394.68 861.713 1396.2 861.713ZM1441.27 849.097H1415.66V849.401C1415.66 853.353 1416.72 856.393 1418.85 858.521C1421.03 860.649 1423.97 861.713 1427.67 861.713C1429.59 861.713 1431.29 861.561 1432.76 861.257C1434.28 860.953 1435.92 860.446 1437.7 859.737L1439.07 864.677C1437.6 865.335 1435.85 865.867 1433.82 866.273C1431.85 866.678 1429.72 866.881 1427.44 866.881C1424.85 866.881 1422.42 866.526 1420.14 865.817C1417.91 865.107 1415.94 864.018 1414.21 862.549C1412.49 861.029 1411.12 859.103 1410.11 856.773C1409.15 854.442 1408.67 851.655 1408.67 848.413C1408.67 845.626 1409.07 843.093 1409.88 840.813C1410.74 838.533 1411.93 836.607 1413.45 835.037C1414.97 833.415 1416.8 832.174 1418.93 831.313C1421.1 830.401 1423.54 829.945 1426.22 829.945C1428.5 829.945 1430.55 830.325 1432.38 831.085C1434.25 831.845 1435.85 832.909 1437.17 834.277C1438.48 835.645 1439.5 837.291 1440.21 839.217C1440.92 841.142 1441.27 843.27 1441.27 845.601V849.097ZM1434.35 844.309C1434.35 842.991 1434.18 841.775 1433.82 840.661C1433.52 839.495 1433.01 838.482 1432.3 837.621C1431.64 836.759 1430.78 836.075 1429.72 835.569C1428.65 835.062 1427.36 834.809 1425.84 834.809C1423.06 834.809 1420.78 835.695 1419 837.469C1417.28 839.242 1416.22 841.573 1415.81 844.461L1434.35 844.309ZM1469.23 837.165C1467.56 836.354 1466.04 835.797 1464.67 835.493C1463.3 835.189 1461.94 835.037 1460.57 835.037C1458.14 835.037 1456.34 835.493 1455.17 836.405C1454.01 837.266 1453.42 838.431 1453.42 839.901C1453.42 840.965 1453.83 841.902 1454.64 842.713C1455.45 843.473 1457.15 844.233 1459.73 844.993L1462.01 845.677C1465.41 846.69 1467.96 848.007 1469.69 849.629C1471.46 851.199 1472.35 853.353 1472.35 856.089C1472.35 859.331 1471.13 861.941 1468.7 863.917C1466.32 865.893 1462.97 866.881 1458.67 866.881C1456.39 866.881 1454.18 866.678 1452.06 866.273C1449.98 865.867 1448.18 865.31 1446.66 864.601L1448.26 859.357C1449.72 860.066 1451.32 860.649 1453.04 861.105C1454.77 861.51 1456.51 861.713 1458.29 861.713C1460.57 861.713 1462.37 861.307 1463.68 860.497C1465.05 859.686 1465.74 858.343 1465.74 856.469C1465.74 854.847 1465.15 853.707 1463.99 853.049C1462.82 852.339 1461.15 851.655 1458.97 850.997L1456.62 850.237C1453.32 849.173 1450.86 847.855 1449.24 846.285C1447.67 844.663 1446.89 842.586 1446.89 840.053C1446.89 838.533 1447.22 837.139 1447.88 835.873C1448.53 834.606 1449.42 833.542 1450.54 832.681C1451.7 831.819 1453.07 831.161 1454.64 830.705C1456.21 830.198 1457.93 829.945 1459.81 829.945C1461.58 829.945 1463.4 830.122 1465.28 830.477C1467.2 830.781 1469.03 831.313 1470.75 832.073L1469.23 837.165ZM1479.05 862.093C1479.05 860.775 1479.51 859.661 1480.42 858.749C1481.33 857.837 1482.42 857.381 1483.69 857.381C1484.95 857.381 1486.02 857.837 1486.88 858.749C1487.79 859.661 1488.25 860.775 1488.25 862.093C1488.25 863.562 1487.79 864.727 1486.88 865.589C1486.02 866.45 1484.95 866.881 1483.69 866.881C1482.42 866.881 1481.33 866.45 1480.42 865.589C1479.51 864.727 1479.05 863.562 1479.05 862.093Z" fill="#633FA7"/>
<path d="M612.345 969.197C658.211 1021.2 711.358 1015.6 718.415 1021.2C740.997 1014.04 749.135 943.008 746.521 935.301C724.88 909.643 620.783 885.678 596.215 883.938C582.101 911.684 601.629 967.332 612.345 969.197Z" fill="url(#paint17_linear_533_1380)"/>
<path d="M534.389 842.04C546.841 889.773 560.665 938.99 588.839 971.627C594.499 978.183 582.814 995.396 560.665 971.627C530.865 939.645 517.963 867.444 515.237 835.342L534.389 842.04Z" fill="url(#paint18_linear_533_1380)"/>
<path d="M603.67 966.627C586.899 873.678 643.419 562.594 613.597 535.851C548.825 474.64 547.745 484.197 492.245 457.197C614.337 522.072 544.404 922.901 586.899 977.794C591.715 984.017 603.67 977.794 603.67 966.627Z" fill="url(#paint19_linear_533_1380)"/>
<path d="M536.543 1066.2C539.781 1034.67 566.476 997.133 575.061 982.013C575.061 982.013 562.812 972.253 557.071 965.937C551.329 959.621 541.759 946.415 541.759 946.415C525.448 958.56 494.845 988.17 479.359 1018.28C466.395 1043.48 519.986 1062.73 536.543 1066.2Z" fill="url(#paint20_linear_533_1380)"/>
<path d="M604.681 910.936C592.025 805.197 759.81 657.359 689.366 576.821C744.685 581.114 796.221 605.044 835.694 634.743C858.079 651.585 872.578 665.888 884.835 688.238L604.681 910.936Z" fill="url(#paint21_linear_533_1380)"/>
<path d="M532.976 757.458C567.84 704.26 553.412 619.785 541.84 584.197C568.801 667.109 577.041 671.087 577.041 705.897L575.244 944.676C557.393 931.13 512.811 833.264 503.061 832.082C493.311 830.9 475.854 843.904 468.345 850.553C502.322 787.751 489.396 823.955 532.976 757.458Z" fill="url(#paint22_linear_533_1380)"/>
<circle cx="295.469" cy="686.221" r="28.2341" fill="white"/>
<path d="M399.227 987.108C374.758 987.624 380.618 988.058 361.365 983.76C346.941 980.54 340.362 971.611 340.292 967.919C308.009 952.709 316.396 940.922 326.213 925.008C328.358 827.229 325.953 828.944 324.166 823.888C305.522 811.03 287.627 738.551 281.326 711.032C269.11 703.304 266.557 691.192 266.807 686.103C263.667 684.233 258.143 683.246 255.773 682.986C246.946 680.244 242.607 672.368 241.541 668.773C254.907 655.732 263.954 641.605 266.807 636.172C276.682 617.361 290.097 577.514 270.474 550.593L255.773 523.328C230.849 516.19 184.09 484.145 181.831 419.764L238.93 449.904C244.695 454.022 258.354 466.214 265.131 482.592M399.227 987.108C401.621 988.515 410.073 991.447 424.73 991.926C431.236 989.052 446.5 983.304 455.505 983.304C464.51 983.304 467.321 975.8 467.6 972.048L471.552 957.319L479.216 1010.86C478.976 1012.22 478.641 1015.63 479.216 1018.4C479.934 1021.88 455.505 1005.35 434.903 1108.22L438.882 1138.72L430.925 1191.76C429.747 1197.36 425.533 1208.91 418.107 1210.33C392.912 1228.01 377.555 1270.99 424.73 1308.45L451.005 1335.21C450.158 1359.81 453.256 1376.12 454.494 1380.17M399.227 987.108L453.8 972.048C459.411 968.747 471.399 959.013 474.466 946.48C477.533 933.947 471.166 940.804 467.6 934.776V858.842" stroke="#FFF1B5" stroke-width="3"/>
<path d="M512.616 332.033L501.079 366.225C481.474 384.907 442.125 423.657 441.572 429.192L432.922 437.842" stroke="#FFF1B5" stroke-width="3"/>
<path d="M501.972 830.939L524.824 909.376L524.823 914.685C516.587 888.92 469.777 848.27 476.962 837.953C484.147 827.636 493.579 833.188 501.972 830.939Z" fill="url(#paint23_linear_533_1380)"/>
<path d="M696.364 1101.86L630.074 1185.5C596.022 1202 585.28 1290.54 625.343 1326.05C628.762 1338.04 632.51 1372.09 620.142 1412.47" stroke="#FFF1B5" stroke-width="3"/>
<path d="M851.535 1123.25C862.269 1116.89 883.736 1100.59 883.736 1086.27" stroke="#FFF1B5"/>
<path d="M732.878 1031.62C837.353 1000.11 839.383 1000.63 859.135 1026.08C888.444 1063.83 842.951 1126.7 842.951 1126.7C842.951 1126.7 891.779 1122.07 916.931 1071.4C943.897 1017.06 953.745 920.757 948.025 905.563C891.365 882.07 756.094 803.067 732.878 882.667C709.661 962.267 719.058 1034.73 732.878 1031.62Z" fill="url(#paint24_radial_533_1380)"/>
<path d="M1053.94 553.122L1057 430.082L452.054 430.082C384.27 427.973 311.852 434.794 268.99 468.349C233.555 496.09 277.294 524.871 283.404 553.122L1053.94 553.122Z" fill="url(#paint25_linear_533_1380)"/>
<path d="M418.549 666.458C421.434 644.52 429.244 637.453 461.788 631.657C463.346 644.516 454.088 670.666 418.549 666.458Z" fill="#FFE266"/>
<path d="M267.056 691.423C271.868 690.128 280.562 696.901 292.68 714.455C276.01 711.65 271.365 702.313 267.056 691.423Z" fill="#FFE266"/>
<rect x="259.608" y="689.317" width="9.94873" height="5.70605" transform="rotate(-32.5076 259.608 689.317)" fill="white"/>
<path d="M889.395 969.584V966.464H895.315V944.744H889.395V941.624H905.035V944.744H899.075V966.464H905.035V969.584H889.395ZM920.682 947.664V941.624H924.762V947.664L923.682 953.984H921.762L920.682 947.664ZM937.448 969.584V948.624H940.568V950.784C941.021 950.117 941.648 949.517 942.448 948.984C943.275 948.424 944.248 948.144 945.368 948.144C946.381 948.144 947.261 948.397 948.008 948.904C948.781 949.384 949.328 950.064 949.648 950.944C950.075 950.25 950.701 949.61 951.528 949.024C952.355 948.437 953.355 948.144 954.528 948.144C955.835 948.144 956.915 948.544 957.768 949.344C958.621 950.117 959.048 951.17 959.048 952.504V969.584H955.768V953.184C955.768 952.437 955.555 951.877 955.128 951.504C954.701 951.13 954.141 950.944 953.448 950.944C952.328 950.944 951.448 951.264 950.808 951.904C950.195 952.517 949.888 953.37 949.888 954.464V969.584H946.608V953.184C946.608 952.437 946.395 951.877 945.968 951.504C945.541 951.13 944.981 950.944 944.288 950.944C943.168 950.944 942.288 951.264 941.648 951.904C941.035 952.517 940.728 953.37 940.728 954.464V969.584H937.448ZM1009.7 967.384V969.904C1008.87 970.144 1008.21 970.264 1007.7 970.264C1005.46 970.264 1004.22 969.21 1003.98 967.104C1002.81 968.25 1001.66 969.077 1000.54 969.584C999.421 970.064 998.195 970.304 996.861 970.304C994.835 970.304 993.181 969.77 991.901 968.704C990.648 967.61 990.021 966.09 990.021 964.144C990.021 962.704 990.328 961.557 990.941 960.704C991.555 959.824 992.301 959.17 993.181 958.744C994.088 958.29 994.941 957.997 995.741 957.864C996.115 957.81 996.688 957.73 997.461 957.624C998.235 957.49 999.208 957.344 1000.38 957.184C1001.71 956.997 1002.63 956.744 1003.14 956.424C1003.67 956.104 1003.94 955.61 1003.94 954.944V954.224C1003.94 952.144 1002.34 951.104 999.141 951.104C997.595 951.104 996.421 951.41 995.621 952.024C994.848 952.61 994.395 953.544 994.261 954.824H990.901C990.955 952.397 991.741 950.664 993.261 949.624C994.808 948.557 996.821 948.024 999.301 948.024C1001.89 948.024 1003.85 948.517 1005.18 949.504C1006.51 950.464 1007.18 951.877 1007.18 953.744V965.824C1007.18 966.917 1007.78 967.464 1008.98 967.464C1009.19 967.464 1009.43 967.437 1009.7 967.384ZM1003.94 962.304V958.984C1003.25 959.304 1002.38 959.557 1001.34 959.744C1000.33 959.93 999.381 960.077 998.501 960.184C996.955 960.37 995.715 960.73 994.781 961.264C993.875 961.797 993.421 962.73 993.421 964.064C993.421 965.104 993.795 965.917 994.541 966.504C995.315 967.09 996.368 967.384 997.701 967.384C998.688 967.384 999.648 967.17 1000.58 966.744C1001.54 966.29 1002.34 965.677 1002.98 964.904C1003.62 964.13 1003.94 963.264 1003.94 962.304ZM1056.35 960.824V941.624H1060.07V961.344C1060.07 963.504 1059.62 965.237 1058.71 966.544C1057.83 967.85 1056.65 968.81 1055.15 969.424C1053.69 970.01 1052.07 970.304 1050.31 970.304C1048.5 970.304 1046.86 969.997 1045.39 969.384C1043.93 968.77 1042.77 967.81 1041.91 966.504C1041.06 965.17 1040.63 963.45 1040.63 961.344V941.624H1044.35V960.824C1044.35 962.45 1044.62 963.717 1045.15 964.624C1045.71 965.504 1046.45 966.13 1047.35 966.504C1048.26 966.85 1049.25 967.024 1050.31 967.024C1051.41 967.024 1052.41 966.837 1053.31 966.464C1054.22 966.09 1054.95 965.464 1055.51 964.584C1056.07 963.677 1056.35 962.424 1056.35 960.824ZM1082.88 969.584L1075.84 958.264L1068.8 969.584H1064.52L1073.88 955.264L1065.16 941.624H1069.52L1076.04 952.144L1082.52 941.624H1086.76L1078 955.144L1087.24 969.584H1082.88ZM1126.65 969.584H1117.61V941.624H1126.65C1129.03 941.624 1131 942.224 1132.57 943.424C1134.15 944.624 1135.32 946.277 1136.09 948.384C1136.89 950.464 1137.29 952.864 1137.29 955.584C1137.29 958.304 1136.89 960.717 1136.09 962.824C1135.32 964.93 1134.15 966.584 1132.57 967.784C1131 968.984 1129.03 969.584 1126.65 969.584ZM1121.33 944.904V966.304H1126.01C1128.63 966.304 1130.51 965.357 1131.65 963.464C1132.83 961.544 1133.41 958.93 1133.41 955.624C1133.41 952.29 1132.83 949.677 1131.65 947.784C1130.51 945.864 1128.63 944.904 1126.01 944.904H1121.33ZM1161.58 963.104C1161.23 965.29 1160.26 967.037 1158.66 968.344C1157.09 969.65 1155.07 970.304 1152.62 970.304C1150.51 970.304 1148.75 969.837 1147.34 968.904C1145.93 967.944 1144.86 966.637 1144.14 964.984C1143.45 963.33 1143.1 961.437 1143.1 959.304C1143.1 956.957 1143.5 954.944 1144.3 953.264C1145.1 951.584 1146.22 950.29 1147.66 949.384C1149.1 948.45 1150.78 947.984 1152.7 947.984C1154.86 947.984 1156.62 948.49 1157.98 949.504C1159.37 950.517 1160.38 951.93 1161.02 953.744C1161.69 955.557 1162.02 957.677 1162.02 960.104H1146.58C1146.63 962.157 1147.17 963.864 1148.18 965.224C1149.19 966.557 1150.71 967.224 1152.74 967.224C1155.49 967.224 1157.31 965.85 1158.22 963.104H1161.58ZM1152.66 951.064C1150.79 951.064 1149.37 951.677 1148.38 952.904C1147.39 954.13 1146.82 955.624 1146.66 957.384H1158.42C1158.42 956.21 1158.18 955.157 1157.7 954.224C1157.25 953.264 1156.59 952.504 1155.74 951.944C1154.89 951.357 1153.86 951.064 1152.66 951.064ZM1185.67 954.344H1182.19C1182.16 953.304 1181.76 952.477 1180.99 951.864C1180.24 951.25 1179.24 950.944 1177.99 950.944C1176.63 950.944 1175.52 951.224 1174.67 951.784C1173.84 952.344 1173.43 953.09 1173.43 954.024C1173.43 954.77 1173.68 955.37 1174.19 955.824C1174.69 956.277 1175.44 956.637 1176.43 956.904L1181.19 958.144C1182.95 958.597 1184.27 959.277 1185.15 960.184C1186.05 961.064 1186.51 962.25 1186.51 963.744C1186.51 965.77 1185.76 967.37 1184.27 968.544C1182.77 969.717 1180.72 970.304 1178.11 970.304C1172.61 970.304 1169.75 967.944 1169.51 963.224H1173.03C1173.19 964.637 1173.69 965.677 1174.55 966.344C1175.43 967.01 1176.64 967.344 1178.19 967.344C1179.68 967.344 1180.87 967.077 1181.75 966.544C1182.65 966.01 1183.11 965.25 1183.11 964.264C1183.11 963.357 1182.87 962.677 1182.39 962.224C1181.91 961.77 1181.09 961.397 1179.95 961.104L1175.55 959.944C1173.65 959.437 1172.25 958.757 1171.35 957.904C1170.47 957.024 1170.03 955.784 1170.03 954.184C1170.03 952.29 1170.75 950.784 1172.19 949.664C1173.65 948.544 1175.61 947.984 1178.07 947.984C1180.52 947.984 1182.39 948.557 1183.67 949.704C1184.97 950.824 1185.64 952.37 1185.67 954.344ZM1201.87 945.624V941.624H1205.87V945.624H1201.87ZM1205.51 948.624V966.864H1211.95V969.584H1195.03V966.864H1202.23V951.344H1195.03V948.624H1205.51ZM1228.52 978.304C1226.25 978.304 1224.33 977.797 1222.76 976.784C1221.19 975.797 1220.25 974.197 1219.96 971.984H1223.44C1223.92 974.33 1225.64 975.504 1228.6 975.504C1230.71 975.504 1232.21 974.917 1233.12 973.744C1234.05 972.597 1234.52 970.624 1234.52 967.824V966.624C1233.91 967.85 1233.05 968.77 1231.96 969.384C1230.89 969.997 1229.67 970.304 1228.28 970.304C1226.23 970.304 1224.52 969.81 1223.16 968.824C1221.8 967.837 1220.79 966.49 1220.12 964.784C1219.48 963.077 1219.16 961.157 1219.16 959.024C1219.16 956.97 1219.49 955.117 1220.16 953.464C1220.83 951.784 1221.83 950.45 1223.16 949.464C1224.52 948.477 1226.19 947.984 1228.16 947.984C1231.01 947.984 1233.16 949.064 1234.6 951.224V948.624H1237.92V966.184C1237.92 969.09 1237.68 971.304 1237.2 972.824C1236.61 974.637 1235.59 975.997 1234.12 976.904C1232.65 977.837 1230.79 978.304 1228.52 978.304ZM1228.76 967.184C1230.17 967.184 1231.31 966.797 1232.16 966.024C1233.01 965.224 1233.63 964.224 1234 963.024C1234.4 961.797 1234.6 960.544 1234.6 959.264C1234.6 957.85 1234.4 956.53 1234 955.304C1233.6 954.05 1232.97 953.037 1232.12 952.264C1231.27 951.49 1230.13 951.104 1228.72 951.104C1227.41 951.104 1226.31 951.464 1225.4 952.184C1224.49 952.877 1223.8 953.837 1223.32 955.064C1222.87 956.264 1222.64 957.624 1222.64 959.144C1222.64 960.557 1222.85 961.877 1223.28 963.104C1223.71 964.33 1224.36 965.317 1225.24 966.064C1226.15 966.81 1227.32 967.184 1228.76 967.184ZM1246.25 969.584V948.624H1249.33V952.104C1250.15 950.824 1251.1 949.824 1252.17 949.104C1253.26 948.384 1254.63 948.024 1256.29 948.024C1257.51 948.024 1258.62 948.237 1259.61 948.664C1260.62 949.064 1261.42 949.69 1262.01 950.544C1262.62 951.37 1262.93 952.437 1262.93 953.744V969.584H1259.61V955.064C1259.61 953.65 1259.18 952.61 1258.33 951.944C1257.47 951.277 1256.46 950.944 1255.29 950.944C1254.03 950.944 1252.98 951.264 1252.13 951.904C1251.27 952.544 1250.63 953.384 1250.21 954.424C1249.78 955.464 1249.57 956.584 1249.57 957.784V969.584H1246.25ZM1289.21 963.104C1288.87 965.29 1287.89 967.037 1286.29 968.344C1284.72 969.65 1282.71 970.304 1280.25 970.304C1278.15 970.304 1276.39 969.837 1274.97 968.904C1273.56 967.944 1272.49 966.637 1271.77 964.984C1271.08 963.33 1270.73 961.437 1270.73 959.304C1270.73 956.957 1271.13 954.944 1271.93 953.264C1272.73 951.584 1273.85 950.29 1275.29 949.384C1276.73 948.45 1278.41 947.984 1280.33 947.984C1282.49 947.984 1284.25 948.49 1285.61 949.504C1287 950.517 1288.01 951.93 1288.65 953.744C1289.32 955.557 1289.65 957.677 1289.65 960.104H1274.21C1274.27 962.157 1274.8 963.864 1275.81 965.224C1276.83 966.557 1278.35 967.224 1280.37 967.224C1283.12 967.224 1284.95 965.85 1285.85 963.104H1289.21ZM1280.29 951.064C1278.43 951.064 1277 951.677 1276.01 952.904C1275.03 954.13 1274.45 955.624 1274.29 957.384H1286.05C1286.05 956.21 1285.81 955.157 1285.33 954.224C1284.88 953.264 1284.23 952.504 1283.37 951.944C1282.52 951.357 1281.49 951.064 1280.29 951.064ZM1298.22 969.584V948.624H1301.3V953.144C1301.99 951.65 1302.99 950.424 1304.3 949.464C1305.61 948.504 1307.11 948.024 1308.82 948.024C1311.22 948.024 1313.05 948.637 1314.3 949.864C1315.58 951.09 1316.31 952.744 1316.5 954.824H1313.18C1312.94 953.57 1312.45 952.61 1311.7 951.944C1310.98 951.277 1309.91 950.944 1308.5 950.944C1307.11 950.944 1305.9 951.317 1304.86 952.064C1303.82 952.784 1303.01 953.784 1302.42 955.064C1301.86 956.317 1301.58 957.77 1301.58 959.424V969.584H1298.22ZM1364.79 969.584L1362.47 966.504C1361.41 967.624 1360.21 968.504 1358.87 969.144C1357.54 969.784 1356.15 970.104 1354.71 970.104C1352.15 970.104 1350.13 969.384 1348.63 967.944C1347.14 966.504 1346.39 964.53 1346.39 962.024C1346.39 958.77 1347.95 956.184 1351.07 954.264L1352.55 953.344L1352.51 953.264C1351.5 951.904 1350.74 950.797 1350.23 949.944C1349.73 949.09 1349.47 948.157 1349.47 947.144C1349.47 945.944 1349.78 944.89 1350.39 943.984C1351.03 943.077 1351.86 942.37 1352.87 941.864C1353.91 941.33 1355.02 941.064 1356.19 941.064C1358.03 941.064 1359.54 941.584 1360.71 942.624C1361.91 943.637 1362.51 945.077 1362.51 946.944C1362.51 948.117 1362.18 949.21 1361.51 950.224C1360.87 951.21 1359.94 952.104 1358.71 952.904L1356.99 954.024L1362.51 961.304C1363.23 959.73 1363.67 958.01 1363.83 956.144H1366.79C1366.71 957.557 1366.47 958.917 1366.07 960.224C1365.67 961.53 1365.14 962.73 1364.47 963.824L1368.87 969.584H1364.79ZM1354.03 950.184L1355.31 951.824L1357.47 950.464C1358.09 950.09 1358.57 949.584 1358.91 948.944C1359.26 948.277 1359.43 947.57 1359.43 946.824C1359.43 945.89 1359.14 945.17 1358.55 944.664C1357.97 944.13 1357.17 943.864 1356.15 943.864C1355.17 943.864 1354.34 944.144 1353.67 944.704C1353.03 945.264 1352.71 945.984 1352.71 946.864C1352.71 947.397 1352.81 947.93 1352.99 948.464C1353.18 948.97 1353.53 949.544 1354.03 950.184ZM1349.63 962.024C1349.63 963.464 1350.13 964.65 1351.11 965.584C1352.1 966.517 1353.33 966.984 1354.79 966.984C1355.94 966.984 1357.01 966.744 1357.99 966.264C1359.01 965.757 1359.91 965.05 1360.71 964.144L1354.23 955.584L1352.87 956.464C1351.67 957.237 1350.83 958.05 1350.35 958.904C1349.87 959.757 1349.63 960.797 1349.63 962.024ZM1406.21 961.584L1401.09 947.464V969.584H1397.93V941.624H1402.09L1407.77 957.704L1413.45 941.624H1417.53V969.584H1414.37V947.424L1409.33 961.584H1406.21ZM1442.37 963.104C1442.03 965.29 1441.05 967.037 1439.45 968.344C1437.88 969.65 1435.87 970.304 1433.41 970.304C1431.31 970.304 1429.55 969.837 1428.13 968.904C1426.72 967.944 1425.65 966.637 1424.93 964.984C1424.24 963.33 1423.89 961.437 1423.89 959.304C1423.89 956.957 1424.29 954.944 1425.09 953.264C1425.89 951.584 1427.01 950.29 1428.45 949.384C1429.89 948.45 1431.57 947.984 1433.49 947.984C1435.65 947.984 1437.41 948.49 1438.77 949.504C1440.16 950.517 1441.17 951.93 1441.81 953.744C1442.48 955.557 1442.81 957.677 1442.81 960.104H1427.37C1427.43 962.157 1427.96 963.864 1428.97 965.224C1429.99 966.557 1431.51 967.224 1433.53 967.224C1436.28 967.224 1438.11 965.85 1439.01 963.104H1442.37ZM1433.45 951.064C1431.59 951.064 1430.16 951.677 1429.17 952.904C1428.19 954.13 1427.61 955.624 1427.45 957.384H1439.21C1439.21 956.21 1438.97 955.157 1438.49 954.224C1438.04 953.264 1437.39 952.504 1436.53 951.944C1435.68 951.357 1434.65 951.064 1433.45 951.064ZM1464.34 940.424H1467.66V969.584H1464.7V966.624C1463.02 969.077 1460.79 970.304 1458.02 970.304C1455.97 970.304 1454.26 969.81 1452.9 968.824C1451.54 967.81 1450.53 966.437 1449.86 964.704C1449.22 962.97 1448.9 961.037 1448.9 958.904C1448.9 956.877 1449.23 955.05 1449.9 953.424C1450.57 951.77 1451.57 950.45 1452.9 949.464C1454.26 948.477 1455.93 947.984 1457.9 947.984C1460.75 947.984 1462.9 949.064 1464.34 951.224V940.424ZM1458.46 951.104C1457.15 951.104 1456.05 951.464 1455.14 952.184C1454.23 952.877 1453.54 953.837 1453.06 955.064C1452.61 956.264 1452.38 957.624 1452.38 959.144C1452.38 960.557 1452.59 961.877 1453.02 963.104C1453.45 964.33 1454.1 965.317 1454.98 966.064C1455.89 966.81 1457.06 967.184 1458.5 967.184C1459.91 967.184 1461.05 966.797 1461.9 966.024C1462.75 965.224 1463.37 964.224 1463.74 963.024C1464.14 961.797 1464.34 960.544 1464.34 959.264C1464.34 957.85 1464.14 956.53 1463.74 955.304C1463.34 954.05 1462.71 953.037 1461.86 952.264C1461.01 951.49 1459.87 951.104 1458.46 951.104ZM1482.67 945.624V941.624H1486.67V945.624H1482.67ZM1486.31 948.624V966.864H1492.75V969.584H1475.83V966.864H1483.03V951.344H1475.83V948.624H1486.31ZM1520.23 967.384V969.904C1519.41 970.144 1518.74 970.264 1518.23 970.264C1515.99 970.264 1514.75 969.21 1514.51 967.104C1513.34 968.25 1512.19 969.077 1511.07 969.584C1509.95 970.064 1508.73 970.304 1507.39 970.304C1505.37 970.304 1503.71 969.77 1502.43 968.704C1501.18 967.61 1500.55 966.09 1500.55 964.144C1500.55 962.704 1500.86 961.557 1501.47 960.704C1502.09 959.824 1502.83 959.17 1503.71 958.744C1504.62 958.29 1505.47 957.997 1506.27 957.864C1506.65 957.81 1507.22 957.73 1507.99 957.624C1508.77 957.49 1509.74 957.344 1510.91 957.184C1512.25 956.997 1513.17 956.744 1513.67 956.424C1514.21 956.104 1514.47 955.61 1514.47 954.944V954.224C1514.47 952.144 1512.87 951.104 1509.67 951.104C1508.13 951.104 1506.95 951.41 1506.15 952.024C1505.38 952.61 1504.93 953.544 1504.79 954.824H1501.43C1501.49 952.397 1502.27 950.664 1503.79 949.624C1505.34 948.557 1507.35 948.024 1509.83 948.024C1512.42 948.024 1514.38 948.517 1515.71 949.504C1517.05 950.464 1517.71 951.877 1517.71 953.744V965.824C1517.71 966.917 1518.31 967.464 1519.51 967.464C1519.73 967.464 1519.97 967.437 1520.23 967.384ZM1514.47 962.304V958.984C1513.78 959.304 1512.91 959.557 1511.87 959.744C1510.86 959.93 1509.91 960.077 1509.03 960.184C1507.49 960.37 1506.25 960.73 1505.31 961.264C1504.41 961.797 1503.95 962.73 1503.95 964.064C1503.95 965.104 1504.33 965.917 1505.07 966.504C1505.85 967.09 1506.9 967.384 1508.23 967.384C1509.22 967.384 1510.18 967.17 1511.11 966.744C1512.07 966.29 1512.87 965.677 1513.51 964.904C1514.15 964.13 1514.47 963.264 1514.47 962.304ZM1568.17 969.584L1565.69 961.224H1556.05L1553.57 969.584H1549.73L1558.57 941.624H1563.25L1572.05 969.584H1568.17ZM1556.97 958.104H1564.77L1560.85 944.984L1556.97 958.104ZM1579.01 969.584V948.624H1582.09V953.144C1582.79 951.65 1583.79 950.424 1585.09 949.464C1586.4 948.504 1587.91 948.024 1589.61 948.024C1592.01 948.024 1593.84 948.637 1595.09 949.864C1596.37 951.09 1597.11 952.744 1597.29 954.824H1593.97C1593.73 953.57 1593.24 952.61 1592.49 951.944C1591.77 951.277 1590.71 950.944 1589.29 950.944C1587.91 950.944 1586.69 951.317 1585.65 952.064C1584.61 952.784 1583.8 953.784 1583.21 955.064C1582.65 956.317 1582.37 957.77 1582.37 959.424V969.584H1579.01ZM1612.1 948.624H1620.34V951.344H1612.1V963.024C1612.1 964.57 1612.5 965.65 1613.3 966.264C1614.1 966.85 1615.26 967.144 1616.78 967.144C1617.47 967.144 1618.11 967.117 1618.7 967.064C1619.29 966.984 1619.83 966.877 1620.34 966.744V969.664C1619.67 969.85 1619.02 969.97 1618.38 970.024C1617.74 970.104 1617.14 970.144 1616.58 970.144C1614.05 970.144 1612.11 969.624 1610.78 968.584C1609.45 967.544 1608.78 965.89 1608.78 963.624V951.344H1602.74V948.624H1608.78V942.864H1612.1V948.624ZM1635.83 945.624V941.624H1639.83V945.624H1635.83ZM1639.47 948.624V966.864H1645.91V969.584H1628.99V966.864H1636.19V951.344H1628.99V948.624H1639.47ZM1670.67 954.344H1667.19C1667.17 953.304 1666.77 952.477 1665.99 951.864C1665.25 951.25 1664.25 950.944 1662.99 950.944C1661.63 950.944 1660.53 951.224 1659.67 951.784C1658.85 952.344 1658.43 953.09 1658.43 954.024C1658.43 954.77 1658.69 955.37 1659.19 955.824C1659.7 956.277 1660.45 956.637 1661.43 956.904L1666.19 958.144C1667.95 958.597 1669.27 959.277 1670.15 960.184C1671.06 961.064 1671.51 962.25 1671.51 963.744C1671.51 965.77 1670.77 967.37 1669.27 968.544C1667.78 969.717 1665.73 970.304 1663.11 970.304C1657.62 970.304 1654.75 967.944 1654.51 963.224H1658.03C1658.19 964.637 1658.7 965.677 1659.55 966.344C1660.43 967.01 1661.65 967.344 1663.19 967.344C1664.69 967.344 1665.87 967.077 1666.75 966.544C1667.66 966.01 1668.11 965.25 1668.11 964.264C1668.11 963.357 1667.87 962.677 1667.39 962.224C1666.91 961.77 1666.1 961.397 1664.95 961.104L1660.55 959.944C1658.66 959.437 1657.26 958.757 1656.35 957.904C1655.47 957.024 1655.03 955.784 1655.03 954.184C1655.03 952.29 1655.75 950.784 1657.19 949.664C1658.66 948.544 1660.62 947.984 1663.07 947.984C1665.53 947.984 1667.39 948.557 1668.67 949.704C1669.98 950.824 1670.65 952.37 1670.67 954.344ZM1688.68 948.624H1696.92V951.344H1688.68V963.024C1688.68 964.57 1689.08 965.65 1689.88 966.264C1690.68 966.85 1691.84 967.144 1693.36 967.144C1694.05 967.144 1694.69 967.117 1695.28 967.064C1695.87 966.984 1696.41 966.877 1696.92 966.744V969.664C1696.25 969.85 1695.6 969.97 1694.96 970.024C1694.32 970.104 1693.72 970.144 1693.16 970.144C1690.63 970.144 1688.69 969.624 1687.36 968.584C1686.03 967.544 1685.36 965.89 1685.36 963.624V951.344H1679.32V948.624H1685.36V942.864H1688.68V948.624ZM1711.32 964.144H1716.76V969.584H1711.32V964.144Z" fill="black"/>
<path d="M485.454 1458.41C520.092 1458.41 547.875 1432.96 540.108 1383.24C535.013 1350.62 533.684 1330.24 495.631 1318.99L501.53 1352.18C511.854 1429.79 451.969 1442.1 451.969 1358.27C436.106 1411.81 456.976 1458.41 485.454 1458.41Z" fill="#FFE266"/>
<defs>
<linearGradient id="paint0_linear_533_1380" x1="719.456" y1="1306.42" x2="1050.87" y2="1017.25" gradientUnits="userSpaceOnUse">
<stop offset="0.303932" stop-color="#FFE266"/>
<stop offset="1" stop-color="white"/>
</linearGradient>
<linearGradient id="paint1_linear_533_1380" x1="424.345" y1="450.536" x2="1450.1" y2="450.536" gradientUnits="userSpaceOnUse">
<stop stop-color="#FFE266"/>
<stop offset="0.0001" stop-color="#FFE266"/>
<stop offset="1" stop-color="white" stop-opacity="0"/>
</linearGradient>
<linearGradient id="paint2_linear_533_1380" x1="416.797" y1="852.196" x2="626.188" y2="745.07" gradientUnits="userSpaceOnUse">
<stop offset="0.0860268" stop-color="#FFE266"/>
<stop offset="0.911399" stop-color="white" stop-opacity="0"/>
</linearGradient>
<linearGradient id="paint3_linear_533_1380" x1="225.173" y1="740.545" x2="374.981" y2="738.44" gradientUnits="userSpaceOnUse">
<stop offset="0.485102" stop-color="#FFE266"/>
<stop offset="0.70811" stop-color="#F3F1EF" stop-opacity="0"/>
</linearGradient>
<linearGradient id="paint4_linear_533_1380" x1="356.243" y1="541.995" x2="477.285" y2="580.657" gradientUnits="userSpaceOnUse">
<stop offset="0.401421" stop-color="#FFE266"/>
<stop offset="0.874339" stop-color="white" stop-opacity="0"/>
</linearGradient>
<linearGradient id="paint5_linear_533_1380" x1="317.11" y1="774.511" x2="698.733" y2="810.501" gradientUnits="userSpaceOnUse">
<stop offset="0.163507" stop-color="#FFE266"/>
<stop offset="0.473711" stop-color="white" stop-opacity="0"/>
<stop offset="0.584121" stop-color="white" stop-opacity="0"/>
</linearGradient>
<linearGradient id="paint6_linear_533_1380" x1="362.965" y1="955.678" x2="370.429" y2="984.661" gradientUnits="userSpaceOnUse">
<stop stop-color="#FFE266"/>
<stop offset="1" stop-color="white" stop-opacity="0"/>
</linearGradient>
<linearGradient id="paint7_linear_533_1380" x1="760.249" y1="1362.41" x2="638.742" y2="1243.34" gradientUnits="userSpaceOnUse">
<stop stop-color="#FFE266"/>
<stop offset="1" stop-color="white" stop-opacity="0"/>
</linearGradient>
<linearGradient id="paint8_linear_533_1380" x1="534.099" y1="1101.11" x2="588.822" y2="1104.85" gradientUnits="userSpaceOnUse">
<stop stop-color="white"/>
<stop offset="1" stop-color="#FFE266"/>
</linearGradient>
<linearGradient id="paint9_linear_533_1380" x1="597.032" y1="1049.69" x2="622.936" y2="1125.85" gradientUnits="userSpaceOnUse">
<stop stop-color="white"/>
<stop offset="1" stop-color="#FFE266"/>
</linearGradient>
<linearGradient id="paint10_linear_533_1380" x1="709.185" y1="1093.78" x2="708.664" y2="1036.18" gradientUnits="userSpaceOnUse">
<stop stop-color="#FFE266"/>
<stop offset="1" stop-color="white"/>
</linearGradient>
<linearGradient id="paint11_linear_533_1380" x1="839.113" y1="1081.03" x2="776.029" y2="1209.04" gradientUnits="userSpaceOnUse">
<stop offset="0.0922444" stop-color="white"/>
<stop offset="1" stop-color="#FFE266"/>
</linearGradient>
<linearGradient id="paint12_linear_533_1380" x1="249.993" y1="532.744" x2="178.669" y2="506.753" gradientUnits="userSpaceOnUse">
<stop stop-color="#FFE266"/>
<stop offset="1" stop-color="white" stop-opacity="0"/>
</linearGradient>
<linearGradient id="paint13_linear_533_1380" x1="261.031" y1="497.016" x2="225.814" y2="460.81" gradientUnits="userSpaceOnUse">
<stop stop-color="#FFE266"/>
<stop offset="1" stop-color="white" stop-opacity="0"/>
</linearGradient>
<linearGradient id="paint14_linear_533_1380" x1="383.099" y1="1232.96" x2="502.234" y2="1345.67" gradientUnits="userSpaceOnUse">
<stop offset="0.573545" stop-color="white"/>
<stop offset="0.965483" stop-color="#FFE266"/>
<stop offset="1" stop-color="white" stop-opacity="0"/>
</linearGradient>
<linearGradient id="paint15_linear_533_1380" x1="406.827" y1="960.919" x2="466.704" y2="1032.69" gradientUnits="userSpaceOnUse">
<stop offset="0.190859" stop-color="#FFE266"/>
<stop offset="1" stop-color="white" stop-opacity="0"/>
</linearGradient>
<linearGradient id="paint16_linear_533_1380" x1="555.979" y1="1107.26" x2="476.562" y2="1093.84" gradientUnits="userSpaceOnUse">
<stop stop-color="#FFEC99"/>
<stop offset="1" stop-color="#FFEC99" stop-opacity="0"/>
</linearGradient>
<linearGradient id="paint17_linear_533_1380" x1="730.183" y1="812.118" x2="658.405" y2="1003.64" gradientUnits="userSpaceOnUse">
<stop offset="0.695664" stop-color="white"/>
<stop offset="1" stop-color="#FFE266"/>
</linearGradient>
<linearGradient id="paint18_linear_533_1380" x1="603.005" y1="1030.63" x2="498.248" y2="901.949" gradientUnits="userSpaceOnUse">
<stop stop-color="#FFE266"/>
<stop offset="1" stop-color="white"/>
</linearGradient>
<linearGradient id="paint19_linear_533_1380" x1="688.082" y1="1043.1" x2="577.59" y2="929.665" gradientUnits="userSpaceOnUse">
<stop offset="0.486994" stop-color="#FFE266"/>
<stop offset="1" stop-color="white"/>
</linearGradient>
<linearGradient id="paint20_linear_533_1380" x1="561.194" y1="1053.18" x2="447.234" y2="947.598" gradientUnits="userSpaceOnUse">
<stop stop-color="#FFE266"/>
<stop offset="0.639791" stop-color="white"/>
</linearGradient>
<linearGradient id="paint21_linear_533_1380" x1="560.123" y1="756.223" x2="907.109" y2="813.789" gradientUnits="userSpaceOnUse">
<stop stop-color="#FFE266"/>
<stop offset="0.423098" stop-color="white"/>
</linearGradient>
<linearGradient id="paint22_linear_533_1380" x1="501.215" y1="757.827" x2="608.692" y2="786.258" gradientUnits="userSpaceOnUse">
<stop stop-color="#FFE266"/>
<stop offset="1" stop-color="white"/>
</linearGradient>
<linearGradient id="paint23_linear_533_1380" x1="392.472" y1="830.939" x2="559.453" y2="885.28" gradientUnits="userSpaceOnUse">
<stop stop-color="white" stop-opacity="0"/>
<stop offset="1" stop-color="#FFE266"/>
</linearGradient>
<radialGradient id="paint24_radial_533_1380" cx="0" cy="0" r="1" gradientUnits="userSpaceOnUse" gradientTransform="translate(683.696 1072.71) rotate(-52.7791) scale(402.191 345.565)">
<stop stop-color="#FFE266"/>
<stop offset="0.549684" stop-color="white"/>
</radialGradient>
<linearGradient id="paint25_linear_533_1380" x1="486.68" y1="429.733" x2="1092.21" y2="800.379" gradientUnits="userSpaceOnUse">
<stop stop-color="#FFE266"/>
<stop offset="0.586726" stop-color="white" stop-opacity="0"/>
</linearGradient>
</defs>
</svg>
