<svg width="1977" height="1882" viewBox="0 0 1977 1882" fill="none" xmlns="http://www.w3.org/2000/svg">
<path d="M564.207 545.196L424.345 463.002L1869.61 463.002V695L833.324 695L639.109 582.978L564.207 545.196Z" fill="url(#paint0_linear_617_727)"/>
<path d="M1300.59 1100.51C929.169 1241.59 732.32 1159.3 680.323 1100.51L711.781 1077.2L866.827 663.171C866.827 663.171 1059.99 722.366 1091.14 1002.76C1104.09 1119.27 1300.59 1100.51 1300.59 1100.51Z" fill="url(#paint1_linear_617_727)"/>
<path d="M259.519 520.335L269.893 547.38C294.809 585.81 270.846 624.963 268.522 631.902C265.598 640.632 250.257 658.278 241.735 666.306C243.514 674.308 251.615 679.766 255.443 681.495C272.634 684.163 279.649 693.721 281.008 698.167C278.933 704.095 291.752 750.529 298.421 773.005L310.58 804.314L317.566 815.908L324.85 823.192C327.971 837.61 328.55 881.703 326.451 924.185C299.405 957.899 341.641 962.345 343.493 971.237C344.975 978.35 357.275 982.257 362.462 982.504C370.219 986.134 389.251 986.628 399.255 986.134C403.404 988.801 418.086 990.749 425.373 991.243C430.93 988.65 444.416 983.389 453.901 983.092C463.385 982.796 466.744 976.794 467.238 973.83C468.844 967.038 472.055 954.343 472.055 957.899C472.055 961.456 477.987 1005.54 481.074 1016.41C455.584 1018.49 440.073 1077.3 435.503 1106.44L439.208 1138.3C432.039 1167.42 435.181 1189.69 425.155 1203.57C421.038 1209.27 400.154 1213.54 394.133 1250.92C392.188 1289.08 408.828 1302.06 425.5 1308.72L450.694 1333.92C452.423 1341.7 452.25 1380 456.992 1390.97C461.734 1401.94 470.7 1417.65 478.481 1428.76C502.933 1449.14 510.895 1428.76 531.091 1387.27C547.362 1353.84 525.346 1357.41 518.677 1351.85C513.622 1347.64 504.539 1299.34 494.042 1302.43C489.299 1292.35 495.153 1292.18 494.042 1283.53C503.526 1276.42 502.933 1258.59 501.451 1253.15C480.704 1197.58 534.055 1174.24 562.212 1149.79C584.738 1130.22 594.816 1112.74 597.039 1106.44C676.384 1119.76 675.213 1096.81 679.288 1099.77C682.549 1102.14 690.774 1102.73 694.479 1102.73C693.293 1110.44 648.123 1160.52 630.088 1184.13C600.69 1200.49 598.565 1244.69 600.69 1275.53C611.648 1315.51 616.473 1314.2 624.995 1324.82C632.701 1345.57 626.614 1393.37 621.798 1414.11C607.843 1432.14 599.587 1475.75 629.227 1526.13C658.866 1576.52 678.468 1547.13 697.487 1526.13L708.231 1483.21C718.605 1438.75 699.081 1416.2 681.173 1407.8C680.432 1392.61 678.369 1387.69 702.402 1343.15C721.208 1308.3 740.573 1287.68 743.413 1271.5C745.4 1260.18 749.62 1243.3 740.461 1223.87C720.511 1181.55 818.594 1139.04 855.273 1119.41C865.276 1110.39 894.916 1080.51 933.447 1033.08C971.979 985.662 963.828 876.74 954.936 828.207C953.948 815.981 938.634 770.856 885.283 688.164C831.932 605.472 732.146 578.624 688.921 575.537C677.312 566.769 649.501 544.713 631.124 526.633C612.748 508.554 528.127 470.937 488.114 454.389C524.274 414.08 518.988 356.334 511.825 332.5L500.34 364.362C483.791 379.922 449.138 413.858 442.913 425.121C436.689 436.384 407.469 455.994 393.638 464.392L295.827 496.254C286.071 499.218 266.188 501.144 264.706 485.139C263.224 469.134 247.046 454.266 239.142 448.832L181.345 418.452C185.494 483.657 235.19 513.543 259.519 520.335Z" fill="#171717"/>
<path d="M486.89 662.438C485.747 657.636 485.129 654.748 485.129 654.748C485.129 654.748 485.999 657.445 486.89 662.438C492.985 688.032 514.022 767.987 536.135 754.714C527.989 765.123 515.052 787.652 503.672 801.928C492.292 816.203 478.132 836.97 473.634 846.759C468.554 851.476 467.832 879.51 467.832 879.51L464.926 850.025C464.926 850.025 456.958 837.649 449.469 832.897C448.051 831.997 441.769 832.897 441.769 832.897C441.769 832.897 444.535 823.352 449.469 814.695C454.404 806.038 476.901 759.011 485.129 719.633C490.681 693.059 488.74 672.802 486.89 662.438Z" fill="url(#paint2_linear_617_727)"/>
<path d="M325.935 823.861C315.821 746.21 290.816 705.599 279.577 695C277.432 701.025 280.009 709.498 294.617 761.759C309.226 814.019 325.935 823.861 325.935 823.861Z" fill="url(#paint3_linear_617_727)"/>
<path d="M421.934 498.038C393.866 522.944 400.908 572.18 412.602 593.31C426.412 597.811 429.934 592.507 438.356 586.933C453.659 576.806 455.028 589.059 457.018 593.31C460.303 515.292 438.108 497.038 421.934 498.038Z" fill="url(#paint4_linear_617_727)"/>
<path d="M382.842 683.512C363.934 748.513 413.002 865.876 424.573 913.489C414.528 859.767 470.62 793.583 484.714 717.831C498.807 642.079 457.498 607.72 457.498 607.72C452.801 616.966 446.603 630.198 425.331 635.244C404.06 640.289 387.889 670.156 382.842 683.512Z" fill="url(#paint5_linear_617_727)"/>
<path d="M391.837 952.623C398.056 967.494 371.479 971.955 371.479 971.955L353.712 968.237L337.055 963.032C345.568 968.609 332.983 971.583 358.153 977.903C370.794 981.077 395.539 977.903 405.163 966.378C411.826 961.793 423.893 948.831 418.858 933.663C413.824 918.494 402.695 921.394 397.76 924.74C393.195 927.838 385.619 937.752 391.837 952.623Z" fill="url(#paint6_linear_617_727)"/>
<path d="M672.613 1327.61C693.69 1324.66 714.52 1265.2 719.204 1240.45C723.888 1215.71 740.652 1221.62 740.652 1221.62C746.569 1235.28 753.14 1268.52 730.667 1298.8C707.372 1330.2 681.858 1381.9 681.118 1407.01C681.118 1407.01 697.922 1416.25 707.002 1425.85C713.288 1432.5 722.163 1457.61 722.163 1457.61C722.163 1457.61 727.361 1502.46 712.179 1523.72C698.86 1542.36 684.822 1554.12 661.89 1554C633.227 1553.85 619.394 1540.94 609.382 1514.11C586.086 1451.7 620.845 1409.97 620.845 1409.97C611.272 1426.38 605.768 1505.99 640.813 1514.11C707.002 1514.11 686.294 1450.59 672.613 1409.97C658.931 1369.34 661.52 1340.91 649.317 1330.2C653.755 1331.67 656.09 1329.93 672.613 1327.61Z" fill="url(#paint7_linear_617_727)"/>
<path d="M603.345 1094.36C599.25 1110.28 576.106 1138.59 568.722 1143.97C563.195 1148.01 533.408 1171.09 522.156 1180.71C522.045 1180.81 521.931 1180.9 521.814 1181C521.926 1180.9 522.04 1180.81 522.156 1180.71C540.466 1164.24 472.338 1094.18 540.056 1064L603.345 1094.36Z" fill="url(#paint8_linear_617_727)"/>
<path d="M597.079 1106.18C660.734 1121.3 680.364 1102.36 680.364 1102.36C680.364 1102.36 615.087 1104.38 598.936 1017.9C557.486 1040.14 570.062 1072.83 539.345 1065.05C552.668 1087.28 583.385 1101.73 597.079 1106.18Z" fill="url(#paint9_linear_617_727)"/>
<path d="M718.453 1072.48C727.054 1062.06 731.799 1028.19 729.946 1020C679.155 1047.54 613.948 1020.6 595.658 997.155C605.112 1102.48 673.435 1102.45 679.112 1102.45L679.192 1102.45C682.165 1102.45 690.277 1102.88 694.726 1103C699.051 1097.17 709.852 1082.9 718.453 1072.48Z" fill="url(#paint10_linear_617_727)"/>
<path d="M788.442 1131.39C807.208 1128.43 821.651 1115.38 830.103 1079.5C839.228 1107.95 830.103 1120.41 821.651 1123.91C821.651 1123.91 829.559 1124.71 834.606 1124.32C841.461 1123.79 851.772 1120.41 851.772 1120.41C821.651 1141.16 745.61 1174.12 738.944 1208.19C738.944 1208.19 730.848 1193.43 772.836 1156.47C778.932 1151.1 780.433 1145.65 780.433 1145.65C761.01 1150.68 725.765 1146.59 700.001 1175.83C723.783 1138.73 769.675 1134.36 788.442 1131.39Z" fill="url(#paint11_linear_617_727)"/>
<path d="M194.173 474.313C203.619 487.942 224.129 513.311 255.281 521.687C249.409 507.797 237.349 476.422 194.173 474.313Z" fill="url(#paint12_linear_617_727)"/>
<path d="M234.933 448.12C241.937 463.756 252.381 479.11 267.136 491.359C266.936 479.788 258.101 459.941 234.933 448.12Z" fill="url(#paint13_linear_617_727)"/>
<path d="M512.03 327C512.03 390.206 502.176 397.229 473.345 456C516.774 429.387 535.752 384.662 512.03 327Z" fill="#633FA7"/>
<path d="M473.356 1294.19C455.448 1266.2 504.633 1334.54 473.356 1241.44C503.813 1212.73 518.675 1261.88 493.768 1286.62C493.768 1286.62 494.18 1288.57 493.768 1290.44C493.251 1292.8 492.07 1295.34 491.941 1297.74C491.759 1301.12 495.466 1302.42 495.466 1302.42L504.633 1339.65C480.956 1327.7 449.434 1329.57 451.749 1334.54C442.633 1325.33 430.66 1313.75 426.159 1310.53C425.547 1310.33 424.942 1310.12 424.345 1309.89C424.345 1309.44 425.007 1309.71 426.159 1310.53C448.794 1317.97 481.432 1306.81 473.356 1294.19Z" fill="url(#paint14_linear_617_727)"/>
<path d="M452.565 971.623L400.877 985.755C403.257 989.028 418.726 990.094 426.163 990.218C432.113 987.615 442.153 984.268 454.053 982.78C464.717 981.447 467.44 975.342 468.183 971.623L474.877 945.218C469.522 961.879 457.771 969.763 452.565 971.623Z" fill="url(#paint15_linear_617_727)"/>
<path d="M483.99 1441.84C518.629 1441.84 546.412 1416.4 538.644 1366.67C533.55 1334.06 532.22 1313.68 494.167 1302.43L500.067 1335.62C510.391 1413.23 450.505 1425.54 450.505 1341.7C434.643 1395.25 455.513 1441.84 483.99 1441.84Z" fill="#633FA7"/>
<path d="M453.345 1137C466.411 1127.11 513.825 1081.2 537.345 1065.2L500.066 1051.21L453.345 1137Z" fill="url(#paint16_linear_617_727)"/>
<path d="M426.119 634.856C441.49 632.142 453.425 613.307 457.252 606.515C475.96 655.658 435.412 669.43 418.087 665.763L413.565 679.35L410.78 655.813C411.423 650.889 410.748 637.57 426.119 634.856Z" fill="#171717"/>
<path d="M897.907 721.12V769H890.915V721.12H897.907ZM942.873 764.516C944.494 764.516 945.913 764.339 947.129 763.984C948.345 763.629 949.536 763.173 950.701 762.616L952.145 767.632C949.409 769 946.141 769.684 942.341 769.684C939.757 769.684 937.325 769.304 935.045 768.544C932.816 767.784 930.84 766.644 929.117 765.124C927.445 763.553 926.128 761.628 925.165 759.348C924.202 757.017 923.721 754.307 923.721 751.216C923.721 748.379 924.177 745.82 925.089 743.54C926.001 741.26 927.268 739.335 928.889 737.764C930.51 736.143 932.461 734.901 934.741 734.04C937.021 733.179 939.529 732.748 942.265 732.748C943.836 732.748 945.356 732.875 946.825 733.128C948.345 733.331 950.068 733.863 951.993 734.724L950.473 739.816C948.142 738.499 945.634 737.84 942.949 737.84C939.25 737.84 936.261 739.005 933.981 741.336C931.701 743.616 930.561 746.833 930.561 750.988C930.561 753.572 930.916 755.725 931.625 757.448C932.334 759.171 933.272 760.564 934.437 761.628C935.602 762.641 936.92 763.376 938.389 763.832C939.858 764.288 941.353 764.516 942.873 764.516ZM959.394 769V733.28H964.41L965.55 740.424C966.411 738.144 967.83 736.295 969.806 734.876C971.782 733.457 974.062 732.748 976.646 732.748C977.963 732.748 979.053 732.849 979.914 733.052C980.775 733.255 981.561 733.508 982.27 733.812L980.978 739.664C980.37 739.36 979.686 739.107 978.926 738.904C978.217 738.701 977.355 738.6 976.342 738.6C974.873 738.6 973.505 738.853 972.238 739.36C971.022 739.867 969.933 740.627 968.97 741.64C968.058 742.653 967.323 743.92 966.766 745.44C966.259 746.909 966.006 748.607 966.006 750.532V769H959.394ZM987.09 736.472C988.306 735.864 989.446 735.332 990.51 734.876C991.574 734.369 992.638 733.964 993.702 733.66C994.766 733.356 995.855 733.128 996.97 732.976C998.085 732.824 999.301 732.748 1000.62 732.748C1002.59 732.748 1004.39 732.976 1006.01 733.432C1007.69 733.837 1009.1 734.547 1010.27 735.56C1011.49 736.573 1012.42 737.916 1013.08 739.588C1013.74 741.209 1014.07 743.261 1014.07 745.744V769H1008.52L1007.69 765.048H1007.53C1005.96 766.72 1004.24 767.911 1002.37 768.62C1000.49 769.329 998.414 769.684 996.134 769.684C994.411 769.684 992.815 769.456 991.346 769C989.927 768.493 988.686 767.809 987.622 766.948C986.558 766.036 985.722 764.947 985.114 763.68C984.557 762.413 984.278 760.995 984.278 759.424C984.278 755.675 985.747 752.837 988.686 750.912C991.675 748.936 995.602 747.948 1000.47 747.948H1007.31V744.908C1007.31 742.324 1006.65 740.576 1005.33 739.664C1004.01 738.701 1002.24 738.22 1000.01 738.22C998.693 738.22 997.173 738.448 995.45 738.904C993.778 739.309 991.853 740.12 989.674 741.336L987.09 736.472ZM1007.38 752.508L1001.76 752.66C997.958 752.761 995.247 753.445 993.626 754.712C992.055 755.928 991.27 757.423 991.27 759.196C991.27 760.26 991.447 761.172 991.802 761.932C992.157 762.641 992.613 763.199 993.17 763.604C993.778 764.009 994.462 764.313 995.222 764.516C996.033 764.668 996.869 764.744 997.73 764.744C999.402 764.744 1001.1 764.364 1002.82 763.604C1004.54 762.793 1006.06 761.527 1007.38 759.804V752.508ZM1037.35 714.66C1038.76 714.66 1040.23 714.863 1041.75 715.268C1043.32 715.673 1044.72 716.18 1045.93 716.788L1044.57 721.424C1043.55 721.019 1042.59 720.715 1041.68 720.512C1040.77 720.259 1039.8 720.132 1038.79 720.132C1036.36 720.132 1034.61 720.816 1033.55 722.184C1032.53 723.552 1032.03 725.883 1032.03 729.176V733.28H1042.89V738.296H1032.03V769H1025.41V738.296H1020.17V733.28H1025.41V726.972C1025.41 723.02 1026.43 719.98 1028.45 717.852C1030.53 715.724 1033.49 714.66 1037.35 714.66ZM1067.16 738.296H1056.67V759.044C1056.67 760.817 1057.1 762.008 1057.96 762.616C1058.87 763.224 1060.04 763.528 1061.46 763.528C1062.47 763.528 1063.59 763.427 1064.8 763.224C1066.02 762.971 1067.08 762.692 1067.99 762.388L1069.06 767.48C1068.04 767.885 1066.75 768.24 1065.18 768.544C1063.61 768.848 1061.96 769 1060.24 769C1056.7 769 1054.11 768.24 1052.49 766.72C1050.87 765.149 1050.06 762.895 1050.06 759.956V738.296H1044.74V733.28H1050.06V721.88H1056.67V733.28H1067.16V738.296ZM1109.87 764.516C1111.49 764.516 1112.91 764.339 1114.12 763.984C1115.34 763.629 1116.53 763.173 1117.69 762.616L1119.14 767.632C1116.4 769 1113.13 769.684 1109.33 769.684C1106.75 769.684 1104.32 769.304 1102.04 768.544C1099.81 767.784 1097.83 766.644 1096.11 765.124C1094.44 763.553 1093.12 761.628 1092.16 759.348C1091.19 757.017 1090.71 754.307 1090.71 751.216C1090.71 748.379 1091.17 745.82 1092.08 743.54C1092.99 741.26 1094.26 739.335 1095.88 737.764C1097.5 736.143 1099.45 734.901 1101.73 734.04C1104.01 733.179 1106.52 732.748 1109.26 732.748C1110.83 732.748 1112.35 732.875 1113.82 733.128C1115.34 733.331 1117.06 733.863 1118.99 734.724L1117.47 739.816C1115.13 738.499 1112.63 737.84 1109.94 737.84C1106.24 737.84 1103.25 739.005 1100.97 741.336C1098.69 743.616 1097.55 746.833 1097.55 750.988C1097.55 753.572 1097.91 755.725 1098.62 757.448C1099.33 759.171 1100.26 760.564 1101.43 761.628C1102.59 762.641 1103.91 763.376 1105.38 763.832C1106.85 764.288 1108.35 764.516 1109.87 764.516ZM1126.39 769V733.28H1131.4L1132.54 740.424C1133.4 738.144 1134.82 736.295 1136.8 734.876C1138.77 733.457 1141.05 732.748 1143.64 732.748C1144.96 732.748 1146.04 732.849 1146.91 733.052C1147.77 733.255 1148.55 733.508 1149.26 733.812L1147.97 739.664C1147.36 739.36 1146.68 739.107 1145.92 738.904C1145.21 738.701 1144.35 738.6 1143.33 738.6C1141.86 738.6 1140.5 738.853 1139.23 739.36C1138.01 739.867 1136.92 740.627 1135.96 741.64C1135.05 742.653 1134.32 743.92 1133.76 745.44C1133.25 746.909 1133 748.607 1133 750.532V769H1126.39ZM1155.51 769V733.28H1162.2V769H1155.51ZM1158.85 724.084C1157.69 724.084 1156.67 723.704 1155.81 722.944C1155 722.133 1154.6 721.145 1154.6 719.98C1154.6 718.815 1155 717.827 1155.81 717.016C1156.67 716.205 1157.69 715.8 1158.85 715.8C1159.97 715.8 1160.96 716.205 1161.82 717.016C1162.68 717.827 1163.11 718.815 1163.11 719.98C1163.11 721.145 1162.68 722.133 1161.82 722.944C1160.96 723.704 1159.97 724.084 1158.85 724.084ZM1193.21 739.968C1191.54 739.157 1190.02 738.6 1188.65 738.296C1187.28 737.992 1185.92 737.84 1184.55 737.84C1182.12 737.84 1180.32 738.296 1179.15 739.208C1177.99 740.069 1177.4 741.235 1177.4 742.704C1177.4 743.768 1177.81 744.705 1178.62 745.516C1179.43 746.276 1181.13 747.036 1183.71 747.796L1185.99 748.48C1189.39 749.493 1191.94 750.811 1193.67 752.432C1195.44 754.003 1196.33 756.156 1196.33 758.892C1196.33 762.135 1195.11 764.744 1192.68 766.72C1190.3 768.696 1186.95 769.684 1182.65 769.684C1180.37 769.684 1178.16 769.481 1176.04 769.076C1173.96 768.671 1172.16 768.113 1170.64 767.404L1172.24 762.16C1173.7 762.869 1175.3 763.452 1177.02 763.908C1178.75 764.313 1180.49 764.516 1182.27 764.516C1184.55 764.516 1186.35 764.111 1187.66 763.3C1189.03 762.489 1189.72 761.147 1189.72 759.272C1189.72 757.651 1189.13 756.511 1187.97 755.852C1186.8 755.143 1185.13 754.459 1182.95 753.8L1180.6 753.04C1177.3 751.976 1174.84 750.659 1173.22 749.088C1171.65 747.467 1170.87 745.389 1170.87 742.856C1170.87 741.336 1171.2 739.943 1171.86 738.676C1172.51 737.409 1173.4 736.345 1174.52 735.484C1175.68 734.623 1177.05 733.964 1178.62 733.508C1180.19 733.001 1181.91 732.748 1183.79 732.748C1185.56 732.748 1187.38 732.925 1189.26 733.28C1191.18 733.584 1193.01 734.116 1194.73 734.876L1193.21 739.968ZM1218.92 769.684C1217.3 769.684 1215.72 769.456 1214.2 769C1212.74 768.544 1211.47 767.936 1210.4 767.176V786.48H1203.79V732.748H1209.34L1210.33 737.384C1211.7 736.117 1213.24 735.028 1214.96 734.116C1216.69 733.204 1218.71 732.748 1221.04 732.748C1225.81 732.748 1229.56 734.268 1232.29 737.308C1235.03 740.348 1236.4 744.705 1236.4 750.38C1236.4 753.724 1235.89 756.612 1234.88 759.044C1233.91 761.476 1232.6 763.477 1230.92 765.048C1229.3 766.619 1227.43 767.784 1225.3 768.544C1223.22 769.304 1221.1 769.684 1218.92 769.684ZM1219.6 738.22C1217.47 738.22 1215.62 738.752 1214.05 739.816C1212.48 740.829 1211.27 741.868 1210.4 742.932V762.008C1211.57 762.869 1212.81 763.503 1214.13 763.908C1215.45 764.313 1216.76 764.516 1218.08 764.516C1219.45 764.516 1220.82 764.288 1222.18 763.832C1223.55 763.325 1224.77 762.515 1225.83 761.4C1226.9 760.285 1227.76 758.841 1228.42 757.068C1229.08 755.295 1229.4 753.116 1229.4 750.532C1229.4 746.732 1228.59 743.743 1226.97 741.564C1225.4 739.335 1222.94 738.22 1219.6 738.22ZM1258.43 754.864C1258.43 752.989 1258.74 751.292 1259.34 749.772C1260 748.252 1260.86 746.884 1261.93 745.668C1262.99 744.452 1264.23 743.388 1265.65 742.476C1267.07 741.564 1268.59 740.779 1270.21 740.12C1268.89 738.651 1267.73 736.979 1266.72 735.104C1265.75 733.179 1265.27 731.076 1265.27 728.796C1265.27 727.124 1265.6 725.629 1266.26 724.312C1266.92 722.995 1267.8 721.88 1268.92 720.968C1270.08 720.005 1271.43 719.296 1272.95 718.84C1274.52 718.333 1276.16 718.08 1277.89 718.08C1279.61 718.08 1281.21 718.333 1282.68 718.84C1284.2 719.347 1285.49 720.081 1286.55 721.044C1287.67 721.956 1288.53 723.071 1289.14 724.388C1289.74 725.705 1290.05 727.149 1290.05 728.72C1290.05 731.405 1289.36 733.635 1288 735.408C1286.63 737.181 1284.83 738.625 1282.6 739.74L1279.48 736.016C1280.8 735.307 1281.84 734.369 1282.6 733.204C1283.41 732.039 1283.82 730.671 1283.82 729.1C1283.82 727.327 1283.23 725.883 1282.07 724.768C1280.95 723.653 1279.51 723.096 1277.74 723.096C1275.81 723.096 1274.32 723.628 1273.25 724.692C1272.19 725.756 1271.66 727.149 1271.66 728.872C1271.66 731.152 1272.29 733.255 1273.56 735.18C1274.82 737.055 1276.65 739.183 1279.03 741.564L1291.8 754.484C1292.66 753.167 1293.47 751.647 1294.23 749.924C1294.99 748.151 1295.65 746.453 1296.2 744.832L1301.68 747.036C1300.86 749.316 1299.95 751.444 1298.94 753.42C1297.93 755.396 1296.91 757.144 1295.9 758.664L1306.16 769H1297.95L1292.18 763.072C1291.47 763.883 1290.58 764.693 1289.52 765.504C1288.5 766.264 1287.31 766.948 1285.94 767.556C1284.58 768.164 1283.03 768.645 1281.31 769C1279.64 769.405 1277.79 769.608 1275.76 769.608C1273.12 769.608 1270.74 769.253 1268.62 768.544C1266.49 767.784 1264.66 766.745 1263.14 765.428C1261.62 764.111 1260.46 762.565 1259.65 760.792C1258.84 758.968 1258.43 756.992 1258.43 754.864ZM1264.97 754.712C1264.97 757.904 1266.01 760.336 1268.08 762.008C1270.21 763.629 1273.02 764.44 1276.52 764.44C1277.58 764.44 1278.67 764.313 1279.79 764.06C1280.95 763.807 1282.07 763.452 1283.13 762.996C1284.2 762.489 1285.16 761.907 1286.02 761.248C1286.93 760.589 1287.69 759.855 1288.3 759.044L1273.4 743.92C1272.29 744.477 1271.22 745.111 1270.21 745.82C1269.2 746.529 1268.29 747.34 1267.48 748.252C1266.72 749.113 1266.11 750.101 1265.65 751.216C1265.2 752.28 1264.97 753.445 1264.97 754.712ZM1334.88 769H1328.19V733.28H1333.36L1334.35 738.22C1336.02 736.548 1337.82 735.231 1339.74 734.268C1341.67 733.255 1343.97 732.748 1346.66 732.748C1349.19 732.748 1351.27 733.28 1352.89 734.344C1354.51 735.357 1355.73 736.776 1356.54 738.6C1358.31 736.725 1360.26 735.281 1362.39 734.268C1364.52 733.255 1366.87 732.748 1369.46 732.748C1373.11 732.748 1375.84 733.787 1377.67 735.864C1379.54 737.891 1380.48 740.728 1380.48 744.376V769H1373.79V745.592C1373.79 743.211 1373.28 741.387 1372.27 740.12C1371.26 738.853 1369.59 738.22 1367.25 738.22C1363.81 738.22 1360.59 739.765 1357.6 742.856C1357.65 743.109 1357.68 743.363 1357.68 743.616C1357.68 743.869 1357.68 744.123 1357.68 744.376V769H1350.99V745.592C1350.99 743.211 1350.48 741.387 1349.47 740.12C1348.46 738.853 1346.79 738.22 1344.45 738.22C1341.01 738.22 1337.82 739.841 1334.88 743.084V769ZM1421.23 751.9H1395.62V752.204C1395.62 756.156 1396.68 759.196 1398.81 761.324C1400.99 763.452 1403.93 764.516 1407.63 764.516C1409.55 764.516 1411.25 764.364 1412.72 764.06C1414.24 763.756 1415.89 763.249 1417.66 762.54L1419.03 767.48C1417.56 768.139 1415.81 768.671 1413.78 769.076C1411.81 769.481 1409.68 769.684 1407.4 769.684C1404.82 769.684 1402.38 769.329 1400.1 768.62C1397.87 767.911 1395.9 766.821 1394.18 765.352C1392.45 763.832 1391.08 761.907 1390.07 759.576C1389.11 757.245 1388.63 754.459 1388.63 751.216C1388.63 748.429 1389.03 745.896 1389.84 743.616C1390.7 741.336 1391.9 739.411 1393.42 737.84C1394.94 736.219 1396.76 734.977 1398.89 734.116C1401.07 733.204 1403.5 732.748 1406.18 732.748C1408.46 732.748 1410.52 733.128 1412.34 733.888C1414.21 734.648 1415.81 735.712 1417.13 737.08C1418.44 738.448 1419.46 740.095 1420.17 742.02C1420.88 743.945 1421.23 746.073 1421.23 748.404V751.9ZM1414.32 747.112C1414.32 745.795 1414.14 744.579 1413.78 743.464C1413.48 742.299 1412.97 741.285 1412.26 740.424C1411.6 739.563 1410.74 738.879 1409.68 738.372C1408.62 737.865 1407.32 737.612 1405.8 737.612C1403.02 737.612 1400.74 738.499 1398.96 740.272C1397.24 742.045 1396.18 744.376 1395.77 747.264L1414.32 747.112ZM1429.51 736.472C1430.72 735.864 1431.86 735.332 1432.93 734.876C1433.99 734.369 1435.06 733.964 1436.12 733.66C1437.18 733.356 1438.27 733.128 1439.39 732.976C1440.5 732.824 1441.72 732.748 1443.04 732.748C1445.01 732.748 1446.81 732.976 1448.43 733.432C1450.1 733.837 1451.52 734.547 1452.69 735.56C1453.9 736.573 1454.84 737.916 1455.5 739.588C1456.16 741.209 1456.49 743.261 1456.49 745.744V769H1450.94L1450.1 765.048H1449.95C1448.38 766.72 1446.66 767.911 1444.78 768.62C1442.91 769.329 1440.83 769.684 1438.55 769.684C1436.83 769.684 1435.23 769.456 1433.76 769C1432.35 768.493 1431.1 767.809 1430.04 766.948C1428.98 766.036 1428.14 764.947 1427.53 763.68C1426.97 762.413 1426.7 760.995 1426.7 759.424C1426.7 755.675 1428.17 752.837 1431.1 750.912C1434.09 748.936 1438.02 747.948 1442.88 747.948H1449.72V744.908C1449.72 742.324 1449.07 740.576 1447.75 739.664C1446.43 738.701 1444.66 738.22 1442.43 738.22C1441.11 738.22 1439.59 738.448 1437.87 738.904C1436.2 739.309 1434.27 740.12 1432.09 741.336L1429.51 736.472ZM1449.8 752.508L1444.18 752.66C1440.38 752.761 1437.67 753.445 1436.04 754.712C1434.47 755.928 1433.69 757.423 1433.69 759.196C1433.69 760.26 1433.87 761.172 1434.22 761.932C1434.57 762.641 1435.03 763.199 1435.59 763.604C1436.2 764.009 1436.88 764.313 1437.64 764.516C1438.45 764.668 1439.29 764.744 1440.15 764.744C1441.82 764.744 1443.52 764.364 1445.24 763.604C1446.96 762.793 1448.48 761.527 1449.8 759.804V752.508ZM1473 769H1466.31V733.28H1471.56L1472.54 738.22C1474.32 736.447 1476.17 735.104 1478.09 734.192C1480.07 733.229 1482.32 732.748 1484.86 732.748C1488.5 732.748 1491.37 733.787 1493.44 735.864C1495.52 737.891 1496.56 740.728 1496.56 744.376V769H1489.87V745.364C1489.87 743.185 1489.29 741.463 1488.12 740.196C1487.01 738.879 1485.29 738.22 1482.96 738.22C1479.41 738.22 1476.09 739.816 1473 743.008V769ZM1507.97 769V733.28H1514.66V769H1507.97ZM1511.32 724.084C1510.15 724.084 1509.14 723.704 1508.28 722.944C1507.47 722.133 1507.06 721.145 1507.06 719.98C1507.06 718.815 1507.47 717.827 1508.28 717.016C1509.14 716.205 1510.15 715.8 1511.32 715.8C1512.43 715.8 1513.42 716.205 1514.28 717.016C1515.14 717.827 1515.57 718.815 1515.57 719.98C1515.57 721.145 1515.14 722.133 1514.28 722.944C1513.42 723.704 1512.43 724.084 1511.32 724.084ZM1532.3 769H1525.61V733.28H1530.86L1531.84 738.22C1533.62 736.447 1535.47 735.104 1537.39 734.192C1539.37 733.229 1541.62 732.748 1544.16 732.748C1547.8 732.748 1550.67 733.787 1552.74 735.864C1554.82 737.891 1555.86 740.728 1555.86 744.376V769H1549.17V745.364C1549.17 743.185 1548.59 741.463 1547.42 740.196C1546.31 738.879 1544.59 738.22 1542.26 738.22C1538.71 738.22 1535.39 739.816 1532.3 743.008V769ZM1565.31 745.136C1565.31 743.16 1565.66 741.412 1566.37 739.892C1567.08 738.321 1568.07 737.004 1569.33 735.94C1570.65 734.876 1572.2 734.091 1573.97 733.584C1575.74 733.027 1577.67 732.748 1579.75 732.748C1580.51 732.748 1581.24 732.799 1581.95 732.9C1582.66 733.001 1583.37 733.128 1584.08 733.28H1599.51V738.22H1597.15L1591.07 737.384C1592.03 738.397 1592.77 739.563 1593.27 740.88C1593.83 742.197 1594.11 743.591 1594.11 745.06C1594.11 747.036 1593.76 748.809 1593.05 750.38C1592.34 751.9 1591.35 753.192 1590.08 754.256C1588.82 755.32 1587.3 756.131 1585.52 756.688C1583.75 757.195 1581.82 757.448 1579.75 757.448C1578.18 757.448 1576.81 757.347 1575.64 757.144C1574.48 757.549 1573.67 758.081 1573.21 758.74C1572.75 759.348 1572.53 760.007 1572.53 760.716C1572.53 761.881 1572.91 762.667 1573.67 763.072C1574.48 763.477 1575.54 763.68 1576.86 763.68H1586.28C1590.23 763.68 1593.25 764.592 1595.33 766.416C1597.45 768.189 1598.52 770.621 1598.52 773.712C1598.52 775.688 1598.09 777.461 1597.23 779.032C1596.37 780.603 1595.12 781.945 1593.5 783.06C1591.93 784.175 1590.01 785.011 1587.73 785.568C1585.45 786.176 1582.89 786.48 1580.05 786.48C1574.88 786.48 1570.75 785.543 1567.66 783.668C1564.62 781.844 1563.1 779.133 1563.1 775.536C1563.1 773.661 1563.69 772.091 1564.85 770.824C1566.07 769.557 1567.64 768.595 1569.56 767.936C1568.55 767.227 1567.79 766.492 1567.28 765.732C1566.78 764.921 1566.52 763.857 1566.52 762.54C1566.52 760.969 1566.98 759.627 1567.89 758.512C1568.85 757.397 1570.15 756.511 1571.77 755.852C1569.74 754.94 1568.14 753.623 1566.98 751.9C1565.86 750.127 1565.31 747.872 1565.31 745.136ZM1573.44 769C1570.85 770.165 1569.56 771.989 1569.56 774.472C1569.56 778.931 1573.16 781.16 1580.35 781.16C1582.48 781.16 1584.28 780.957 1585.75 780.552C1587.22 780.147 1588.41 779.615 1589.32 778.956C1590.23 778.297 1590.89 777.563 1591.3 776.752C1591.75 775.941 1591.98 775.105 1591.98 774.244C1591.98 772.116 1591.25 770.697 1589.78 769.988C1588.36 769.329 1586.56 769 1584.38 769H1573.44ZM1587.35 745.288C1587.35 742.603 1586.64 740.627 1585.22 739.36C1583.85 738.093 1582.03 737.46 1579.75 737.46C1577.47 737.46 1575.62 738.093 1574.2 739.36C1572.83 740.627 1572.15 742.501 1572.15 744.984C1572.15 747.619 1572.83 749.569 1574.2 750.836C1575.62 752.052 1577.47 752.66 1579.75 752.66C1582.03 752.66 1583.85 752.052 1585.22 750.836C1586.64 749.62 1587.35 747.771 1587.35 745.288ZM1621.15 714.66C1622.57 714.66 1624.04 714.863 1625.56 715.268C1627.13 715.673 1628.52 716.18 1629.74 716.788L1628.37 721.424C1627.36 721.019 1626.39 720.715 1625.48 720.512C1624.57 720.259 1623.61 720.132 1622.59 720.132C1620.16 720.132 1618.41 720.816 1617.35 722.184C1616.34 723.552 1615.83 725.883 1615.83 729.176V733.28H1626.7V738.296H1615.83V769H1609.22V738.296H1603.97V733.28H1609.22V726.972C1609.22 723.02 1610.23 719.98 1612.26 717.852C1614.34 715.724 1617.3 714.66 1621.15 714.66ZM1656.87 733.28H1663.56V769H1658.32L1657.4 764.516H1657.1C1655.78 765.985 1654.14 767.227 1652.16 768.24C1650.24 769.203 1647.98 769.684 1645.4 769.684C1641.7 769.684 1638.68 768.645 1636.35 766.568C1634.07 764.44 1632.93 761.248 1632.93 756.992V733.28H1639.62V756.156C1639.62 757.676 1639.8 758.968 1640.15 760.032C1640.56 761.096 1641.06 761.957 1641.67 762.616C1642.33 763.224 1643.09 763.68 1643.95 763.984C1644.81 764.237 1645.75 764.364 1646.76 764.364C1648.79 764.364 1650.62 763.933 1652.24 763.072C1653.86 762.211 1655.4 761.02 1656.87 759.5V733.28ZM1674.21 769V715.04H1680.74V769H1674.21ZM922.759 846.76C922.759 849.749 922.303 852.435 921.391 854.816C920.479 857.147 919.212 859.123 917.591 860.744C916.02 862.365 914.171 863.607 912.043 864.468C909.915 865.279 907.61 865.684 905.127 865.684C902.644 865.684 900.339 865.304 898.211 864.544C896.134 863.733 894.31 862.568 892.739 861.048C891.219 859.477 890.003 857.577 889.091 855.348C888.23 853.068 887.799 850.459 887.799 847.52C887.799 844.531 888.255 841.871 889.167 839.54C890.079 837.209 891.32 835.259 892.891 833.688C894.512 832.067 896.387 830.851 898.515 830.04C900.643 829.179 902.948 828.748 905.431 828.748C907.914 828.748 910.194 829.128 912.271 829.888C914.399 830.648 916.223 831.788 917.743 833.308C919.314 834.828 920.53 836.728 921.391 839.008C922.303 841.237 922.759 843.821 922.759 846.76ZM915.767 847.14C915.767 844.759 915.463 842.732 914.855 841.06C914.247 839.388 913.436 838.02 912.423 836.956C911.46 835.892 910.346 835.132 909.079 834.676C907.812 834.169 906.52 833.916 905.203 833.916C903.886 833.916 902.594 834.119 901.327 834.524C900.06 834.929 898.946 835.639 897.983 836.652C897.02 837.665 896.235 839.033 895.627 840.756C895.07 842.428 894.791 844.556 894.791 847.14C894.791 849.521 895.095 851.573 895.703 853.296C896.311 854.968 897.096 856.336 898.059 857.4C899.072 858.464 900.212 859.249 901.479 859.756C902.746 860.263 904.038 860.516 905.355 860.516C906.672 860.516 907.964 860.313 909.231 859.908C910.498 859.452 911.612 858.717 912.575 857.704C913.538 856.64 914.298 855.272 914.855 853.6C915.463 851.877 915.767 849.724 915.767 847.14ZM937.585 865H930.897V829.28H936.141L937.129 834.22C938.903 832.447 940.752 831.104 942.677 830.192C944.653 829.229 946.908 828.748 949.441 828.748C953.089 828.748 955.952 829.787 958.029 831.864C960.107 833.891 961.145 836.728 961.145 840.376V865H954.457V841.364C954.457 839.185 953.875 837.463 952.709 836.196C951.595 834.879 949.872 834.22 947.541 834.22C943.995 834.22 940.676 835.816 937.585 839.008V865ZM971.799 865V811.04H978.335V865H971.799ZM990.075 865V829.28H996.763V865H990.075ZM993.419 820.084C992.253 820.084 991.24 819.704 990.379 818.944C989.568 818.133 989.163 817.145 989.163 815.98C989.163 814.815 989.568 813.827 990.379 813.016C991.24 812.205 992.253 811.8 993.419 811.8C994.533 811.8 995.521 812.205 996.383 813.016C997.244 813.827 997.675 814.815 997.675 815.98C997.675 817.145 997.244 818.133 996.383 818.944C995.521 819.704 994.533 820.084 993.419 820.084ZM1014.4 865H1007.71V829.28H1012.96L1013.95 834.22C1015.72 832.447 1017.57 831.104 1019.49 830.192C1021.47 829.229 1023.72 828.748 1026.26 828.748C1029.91 828.748 1032.77 829.787 1034.85 831.864C1036.92 833.891 1037.96 836.728 1037.96 840.376V865H1031.27V841.364C1031.27 839.185 1030.69 837.463 1029.53 836.196C1028.41 834.879 1026.69 834.22 1024.36 834.22C1020.81 834.22 1017.49 835.816 1014.4 839.008V865ZM1078.71 847.9H1053.1V848.204C1053.1 852.156 1054.16 855.196 1056.29 857.324C1058.47 859.452 1061.41 860.516 1065.11 860.516C1067.03 860.516 1068.73 860.364 1070.2 860.06C1071.72 859.756 1073.37 859.249 1075.14 858.54L1076.51 863.48C1075.04 864.139 1073.29 864.671 1071.26 865.076C1069.29 865.481 1067.16 865.684 1064.88 865.684C1062.3 865.684 1059.86 865.329 1057.58 864.62C1055.35 863.911 1053.38 862.821 1051.66 861.352C1049.93 859.832 1048.56 857.907 1047.55 855.576C1046.59 853.245 1046.11 850.459 1046.11 847.216C1046.11 844.429 1046.51 841.896 1047.32 839.616C1048.18 837.336 1049.38 835.411 1050.9 833.84C1052.42 832.219 1054.24 830.977 1056.37 830.116C1058.55 829.204 1060.98 828.748 1063.66 828.748C1065.94 828.748 1068 829.128 1069.82 829.888C1071.69 830.648 1073.29 831.712 1074.61 833.08C1075.92 834.448 1076.94 836.095 1077.65 838.02C1078.36 839.945 1078.71 842.073 1078.71 844.404V847.9ZM1071.8 843.112C1071.8 841.795 1071.62 840.579 1071.26 839.464C1070.96 838.299 1070.45 837.285 1069.74 836.424C1069.08 835.563 1068.22 834.879 1067.16 834.372C1066.1 833.865 1064.8 833.612 1063.28 833.612C1060.5 833.612 1058.22 834.499 1056.44 836.272C1054.72 838.045 1053.66 840.376 1053.25 843.264L1071.8 843.112ZM1133.86 847.9H1108.24V848.204C1108.24 852.156 1109.31 855.196 1111.44 857.324C1113.61 859.452 1116.55 860.516 1120.25 860.516C1122.18 860.516 1123.87 860.364 1125.34 860.06C1126.86 859.756 1128.51 859.249 1130.28 858.54L1131.65 863.48C1130.18 864.139 1128.43 864.671 1126.41 865.076C1124.43 865.481 1122.3 865.684 1120.02 865.684C1117.44 865.684 1115.01 865.329 1112.73 864.62C1110.5 863.911 1108.52 862.821 1106.8 861.352C1105.08 859.832 1103.71 857.907 1102.7 855.576C1101.73 853.245 1101.25 850.459 1101.25 847.216C1101.25 844.429 1101.66 841.896 1102.47 839.616C1103.33 837.336 1104.52 835.411 1106.04 833.84C1107.56 832.219 1109.38 830.977 1111.51 830.116C1113.69 829.204 1116.12 828.748 1118.81 828.748C1121.09 828.748 1123.14 829.128 1124.96 829.888C1126.84 830.648 1128.43 831.712 1129.75 833.08C1131.07 834.448 1132.08 836.095 1132.79 838.02C1133.5 839.945 1133.86 842.073 1133.86 844.404V847.9ZM1126.94 843.112C1126.94 841.795 1126.76 840.579 1126.41 839.464C1126.1 838.299 1125.6 837.285 1124.89 836.424C1124.23 835.563 1123.37 834.879 1122.3 834.372C1121.24 833.865 1119.95 833.612 1118.43 833.612C1115.64 833.612 1113.36 834.499 1111.59 836.272C1109.87 838.045 1108.8 840.376 1108.4 843.264L1126.94 843.112ZM1156.67 846.912L1169.21 865H1161.61L1155.45 856.032L1152.64 851.396L1150.05 855.956L1144.13 865H1136.68L1149.07 846.912L1137.29 829.28H1144.81L1150.43 838.02L1153.17 842.58L1155.83 838.02L1161.07 829.28H1168.37L1156.67 846.912ZM1189.9 865.684C1188.28 865.684 1186.71 865.456 1185.19 865C1183.72 864.544 1182.45 863.936 1181.39 863.176V882.48H1174.77V828.748H1180.32L1181.31 833.384C1182.68 832.117 1184.22 831.028 1185.95 830.116C1187.67 829.204 1189.69 828.748 1192.03 828.748C1196.79 828.748 1200.54 830.268 1203.27 833.308C1206.01 836.348 1207.38 840.705 1207.38 846.38C1207.38 849.724 1206.87 852.612 1205.86 855.044C1204.89 857.476 1203.58 859.477 1201.91 861.048C1200.28 862.619 1198.41 863.784 1196.28 864.544C1194.2 865.304 1192.08 865.684 1189.9 865.684ZM1190.58 834.22C1188.45 834.22 1186.6 834.752 1185.03 835.816C1183.46 836.829 1182.25 837.868 1181.39 838.932V858.008C1182.55 858.869 1183.79 859.503 1185.11 859.908C1186.43 860.313 1187.74 860.516 1189.06 860.516C1190.43 860.516 1191.8 860.288 1193.17 859.832C1194.53 859.325 1195.75 858.515 1196.81 857.4C1197.88 856.285 1198.74 854.841 1199.4 853.068C1200.06 851.295 1200.39 849.116 1200.39 846.532C1200.39 842.732 1199.57 839.743 1197.95 837.564C1196.38 835.335 1193.93 834.22 1190.58 834.22ZM1245.85 847.9H1220.24V848.204C1220.24 852.156 1221.3 855.196 1223.43 857.324C1225.61 859.452 1228.55 860.516 1232.25 860.516C1234.17 860.516 1235.87 860.364 1237.34 860.06C1238.86 859.756 1240.51 859.249 1242.28 858.54L1243.65 863.48C1242.18 864.139 1240.43 864.671 1238.4 865.076C1236.43 865.481 1234.3 865.684 1232.02 865.684C1229.44 865.684 1227 865.329 1224.72 864.62C1222.49 863.911 1220.52 862.821 1218.8 861.352C1217.07 859.832 1215.71 857.907 1214.69 855.576C1213.73 853.245 1213.25 850.459 1213.25 847.216C1213.25 844.429 1213.65 841.896 1214.46 839.616C1215.33 837.336 1216.52 835.411 1218.04 833.84C1219.56 832.219 1221.38 830.977 1223.51 830.116C1225.69 829.204 1228.12 828.748 1230.8 828.748C1233.08 828.748 1235.14 829.128 1236.96 829.888C1238.83 830.648 1240.43 831.712 1241.75 833.08C1243.07 834.448 1244.08 836.095 1244.79 838.02C1245.5 839.945 1245.85 842.073 1245.85 844.404V847.9ZM1238.94 843.112C1238.94 841.795 1238.76 840.579 1238.4 839.464C1238.1 838.299 1237.59 837.285 1236.88 836.424C1236.23 835.563 1235.36 834.879 1234.3 834.372C1233.24 833.865 1231.94 833.612 1230.42 833.612C1227.64 833.612 1225.36 834.499 1223.58 836.272C1221.86 838.045 1220.8 840.376 1220.39 843.264L1238.94 843.112ZM1253.6 865V829.28H1258.61L1259.75 836.424C1260.61 834.144 1262.03 832.295 1264.01 830.876C1265.99 829.457 1268.27 828.748 1270.85 828.748C1272.17 828.748 1273.26 828.849 1274.12 829.052C1274.98 829.255 1275.76 829.508 1276.47 829.812L1275.18 835.664C1274.57 835.36 1273.89 835.107 1273.13 834.904C1272.42 834.701 1271.56 834.6 1270.55 834.6C1269.08 834.6 1267.71 834.853 1266.44 835.36C1265.23 835.867 1264.14 836.627 1263.17 837.64C1262.26 838.653 1261.53 839.92 1260.97 841.44C1260.46 842.909 1260.21 844.607 1260.21 846.532V865H1253.6ZM1282.72 865V829.28H1289.41V865H1282.72ZM1286.06 820.084C1284.9 820.084 1283.88 819.704 1283.02 818.944C1282.21 818.133 1281.81 817.145 1281.81 815.98C1281.81 814.815 1282.21 813.827 1283.02 813.016C1283.88 812.205 1284.9 811.8 1286.06 811.8C1287.18 811.8 1288.17 812.205 1289.03 813.016C1289.89 813.827 1290.32 814.815 1290.32 815.98C1290.32 817.145 1289.89 818.133 1289.03 818.944C1288.17 819.704 1287.18 820.084 1286.06 820.084ZM1330.76 847.9H1305.15V848.204C1305.15 852.156 1306.21 855.196 1308.34 857.324C1310.52 859.452 1313.46 860.516 1317.15 860.516C1319.08 860.516 1320.78 860.364 1322.25 860.06C1323.77 859.756 1325.41 859.249 1327.19 858.54L1328.55 863.48C1327.09 864.139 1325.34 864.671 1323.31 865.076C1321.33 865.481 1319.21 865.684 1316.93 865.684C1314.34 865.684 1311.91 865.329 1309.63 864.62C1307.4 863.911 1305.43 862.821 1303.7 861.352C1301.98 859.832 1300.61 857.907 1299.6 855.576C1298.64 853.245 1298.15 850.459 1298.15 847.216C1298.15 844.429 1298.56 841.896 1299.37 839.616C1300.23 837.336 1301.42 835.411 1302.94 833.84C1304.46 832.219 1306.29 830.977 1308.41 830.116C1310.59 829.204 1313.03 828.748 1315.71 828.748C1317.99 828.748 1320.04 829.128 1321.87 829.888C1323.74 830.648 1325.34 831.712 1326.65 833.08C1327.97 834.448 1328.99 836.095 1329.69 838.02C1330.4 839.945 1330.76 842.073 1330.76 844.404V847.9ZM1323.84 843.112C1323.84 841.795 1323.67 840.579 1323.31 839.464C1323.01 838.299 1322.5 837.285 1321.79 836.424C1321.13 835.563 1320.27 834.879 1319.21 834.372C1318.14 833.865 1316.85 833.612 1315.33 833.612C1312.54 833.612 1310.26 834.499 1308.49 836.272C1306.77 838.045 1305.7 840.376 1305.3 843.264L1323.84 843.112ZM1345.34 865H1338.66V829.28H1343.9L1344.89 834.22C1346.66 832.447 1348.51 831.104 1350.44 830.192C1352.41 829.229 1354.67 828.748 1357.2 828.748C1360.85 828.748 1363.71 829.787 1365.79 831.864C1367.86 833.891 1368.9 836.728 1368.9 840.376V865H1362.22V841.364C1362.22 839.185 1361.63 837.463 1360.47 836.196C1359.35 834.879 1357.63 834.22 1355.3 834.22C1351.75 834.22 1348.43 835.816 1345.34 839.008V865ZM1396.2 860.516C1397.82 860.516 1399.24 860.339 1400.46 859.984C1401.67 859.629 1402.86 859.173 1404.03 858.616L1405.47 863.632C1402.74 865 1399.47 865.684 1395.67 865.684C1393.08 865.684 1390.65 865.304 1388.37 864.544C1386.14 863.784 1384.17 862.644 1382.44 861.124C1380.77 859.553 1379.46 857.628 1378.49 855.348C1377.53 853.017 1377.05 850.307 1377.05 847.216C1377.05 844.379 1377.5 841.82 1378.42 839.54C1379.33 837.26 1380.6 835.335 1382.22 833.764C1383.84 832.143 1385.79 830.901 1388.07 830.04C1390.35 829.179 1392.86 828.748 1395.59 828.748C1397.16 828.748 1398.68 828.875 1400.15 829.128C1401.67 829.331 1403.4 829.863 1405.32 830.724L1403.8 835.816C1401.47 834.499 1398.96 833.84 1396.28 833.84C1392.58 833.84 1389.59 835.005 1387.31 837.336C1385.03 839.616 1383.89 842.833 1383.89 846.988C1383.89 849.572 1384.24 851.725 1384.95 853.448C1385.66 855.171 1386.6 856.564 1387.76 857.628C1388.93 858.641 1390.25 859.376 1391.72 859.832C1393.19 860.288 1394.68 860.516 1396.2 860.516ZM1441.27 847.9H1415.66V848.204C1415.66 852.156 1416.72 855.196 1418.85 857.324C1421.03 859.452 1423.97 860.516 1427.67 860.516C1429.59 860.516 1431.29 860.364 1432.76 860.06C1434.28 859.756 1435.92 859.249 1437.7 858.54L1439.07 863.48C1437.6 864.139 1435.85 864.671 1433.82 865.076C1431.85 865.481 1429.72 865.684 1427.44 865.684C1424.85 865.684 1422.42 865.329 1420.14 864.62C1417.91 863.911 1415.94 862.821 1414.21 861.352C1412.49 859.832 1411.12 857.907 1410.11 855.576C1409.15 853.245 1408.67 850.459 1408.67 847.216C1408.67 844.429 1409.07 841.896 1409.88 839.616C1410.74 837.336 1411.93 835.411 1413.45 833.84C1414.97 832.219 1416.8 830.977 1418.93 830.116C1421.1 829.204 1423.54 828.748 1426.22 828.748C1428.5 828.748 1430.55 829.128 1432.38 829.888C1434.25 830.648 1435.85 831.712 1437.17 833.08C1438.48 834.448 1439.5 836.095 1440.21 838.02C1440.92 839.945 1441.27 842.073 1441.27 844.404V847.9ZM1434.35 843.112C1434.35 841.795 1434.18 840.579 1433.82 839.464C1433.52 838.299 1433.01 837.285 1432.3 836.424C1431.64 835.563 1430.78 834.879 1429.72 834.372C1428.65 833.865 1427.36 833.612 1425.84 833.612C1423.06 833.612 1420.78 834.499 1419 836.272C1417.28 838.045 1416.22 840.376 1415.81 843.264L1434.35 843.112ZM1469.23 835.968C1467.56 835.157 1466.04 834.6 1464.67 834.296C1463.3 833.992 1461.94 833.84 1460.57 833.84C1458.14 833.84 1456.34 834.296 1455.17 835.208C1454.01 836.069 1453.42 837.235 1453.42 838.704C1453.42 839.768 1453.83 840.705 1454.64 841.516C1455.45 842.276 1457.15 843.036 1459.73 843.796L1462.01 844.48C1465.41 845.493 1467.96 846.811 1469.69 848.432C1471.46 850.003 1472.35 852.156 1472.35 854.892C1472.35 858.135 1471.13 860.744 1468.7 862.72C1466.32 864.696 1462.97 865.684 1458.67 865.684C1456.39 865.684 1454.18 865.481 1452.06 865.076C1449.98 864.671 1448.18 864.113 1446.66 863.404L1448.26 858.16C1449.72 858.869 1451.32 859.452 1453.04 859.908C1454.77 860.313 1456.51 860.516 1458.29 860.516C1460.57 860.516 1462.37 860.111 1463.68 859.3C1465.05 858.489 1465.74 857.147 1465.74 855.272C1465.74 853.651 1465.15 852.511 1463.99 851.852C1462.82 851.143 1461.15 850.459 1458.97 849.8L1456.62 849.04C1453.32 847.976 1450.86 846.659 1449.24 845.088C1447.67 843.467 1446.89 841.389 1446.89 838.856C1446.89 837.336 1447.22 835.943 1447.88 834.676C1448.53 833.409 1449.42 832.345 1450.54 831.484C1451.7 830.623 1453.07 829.964 1454.64 829.508C1456.21 829.001 1457.93 828.748 1459.81 828.748C1461.58 828.748 1463.4 828.925 1465.28 829.28C1467.2 829.584 1469.03 830.116 1470.75 830.876L1469.23 835.968ZM1479.05 860.896C1479.05 859.579 1479.51 858.464 1480.42 857.552C1481.33 856.64 1482.42 856.184 1483.69 856.184C1484.95 856.184 1486.02 856.64 1486.88 857.552C1487.79 858.464 1488.25 859.579 1488.25 860.896C1488.25 862.365 1487.79 863.531 1486.88 864.392C1486.02 865.253 1484.95 865.684 1483.69 865.684C1482.42 865.684 1481.33 865.253 1480.42 864.392C1479.51 863.531 1479.05 862.365 1479.05 860.896Z" fill="#FFE266"/>
<path d="M612.345 968C658.211 1020 711.358 1014.41 718.415 1020C740.997 1012.84 749.135 941.812 746.521 934.104C724.88 908.446 620.783 884.481 596.215 882.741C582.101 910.487 601.629 966.135 612.345 968Z" fill="url(#paint17_linear_617_727)"/>
<path d="M534.389 840.843C546.841 888.576 560.665 937.793 588.839 970.43C594.499 976.986 582.814 994.199 560.665 970.43C530.865 938.448 517.963 866.248 515.237 834.145L534.389 840.843Z" fill="url(#paint18_linear_617_727)"/>
<path d="M603.67 965.43C586.899 872.481 643.419 561.397 613.597 534.654C548.825 473.443 547.745 483 492.245 456C614.337 520.876 544.404 921.704 586.899 976.598C591.715 982.82 603.67 976.598 603.67 965.43Z" fill="url(#paint19_linear_617_727)"/>
<path d="M536.543 1065C539.781 1033.47 566.476 995.936 575.061 980.817C575.061 980.817 562.812 971.056 557.071 964.74C551.329 958.424 541.759 945.218 541.759 945.218C525.448 957.363 494.845 986.974 479.359 1017.08C466.395 1042.29 519.986 1061.53 536.543 1065Z" fill="url(#paint20_linear_617_727)"/>
<path d="M604.681 909.739C592.025 804 759.81 656.162 689.366 575.625C744.685 579.918 796.221 603.847 835.694 633.546C858.079 650.388 872.578 664.691 884.835 687.041L604.681 909.739Z" fill="url(#paint21_radial_617_727)"/>
<path d="M532.976 756.261C567.84 703.064 553.412 618.588 541.84 583C568.801 665.913 577.041 669.89 577.041 704.7L575.244 943.479C557.393 929.933 512.811 832.068 503.061 830.885C493.311 829.703 475.854 842.707 468.345 849.357C502.322 786.554 489.396 822.758 532.976 756.261Z" fill="url(#paint22_linear_617_727)"/>
<circle cx="295.468" cy="685.025" r="28.2341" fill="#171717"/>
<path d="M399.227 985.912C374.758 986.427 380.618 986.861 361.365 982.563C346.941 979.344 340.362 970.414 340.292 966.722C308.009 951.512 316.396 939.725 326.213 923.811C328.358 826.032 325.953 827.748 324.166 822.691C305.522 809.833 287.627 737.355 281.326 709.836C269.11 702.107 266.557 689.996 266.807 684.906C263.667 683.036 258.143 682.049 255.773 681.79C246.946 679.047 242.607 671.171 241.541 667.576C254.907 654.536 263.954 640.408 266.807 634.975C276.682 616.164 290.097 576.317 270.474 549.396L255.773 522.132C230.849 514.994 184.09 482.948 181.831 418.567L238.93 448.708C244.695 452.826 258.354 465.017 265.131 481.395M399.227 985.912C401.621 987.318 410.073 990.25 424.73 990.729C431.236 987.855 446.5 982.107 455.505 982.107C464.51 982.107 467.321 974.603 467.6 970.851L471.552 956.122L479.216 1009.66C478.976 1011.02 478.641 1014.43 479.216 1017.21C479.934 1020.68 455.505 1004.16 434.903 1107.02L438.882 1137.52L430.925 1190.57C429.747 1196.16 425.533 1207.72 418.107 1209.13C392.912 1226.81 377.555 1269.79 424.73 1307.26L451.005 1334.01C450.158 1358.61 453.256 1374.92 454.494 1378.97M399.227 985.912L453.8 970.851C459.411 967.551 471.399 957.816 474.466 945.283C477.533 932.75 471.166 939.608 467.6 933.579V857.645" stroke="#633FA7"/>
<path d="M512.616 330.836L501.079 365.028C481.474 383.711 442.125 422.46 441.572 427.996L432.922 436.645" stroke="#633FA7"/>
<path d="M502.002 830.723L524.824 908.179L524.823 913.489C516.587 887.724 478.103 841.586 478.103 841.586C478.103 841.586 492.126 829.34 502.002 830.723Z" fill="url(#paint23_linear_617_727)"/>
<path d="M696.364 1100.66L630.074 1184.3C596.022 1200.81 585.28 1289.35 625.343 1324.86C628.762 1336.84 632.51 1370.9 620.142 1411.27" stroke="#633FA7"/>
<path d="M851.535 1122.05C862.269 1115.69 883.736 1099.39 883.736 1085.08" stroke="#7E744A"/>
<path d="M732.878 1030.42C837.353 998.911 839.383 999.437 859.135 1024.88C888.444 1062.63 842.951 1125.5 842.951 1125.5C842.951 1125.5 891.779 1120.88 916.931 1070.2C943.897 1015.87 953.745 919.56 948.025 904.366C891.365 880.873 756.094 801.87 732.878 881.47C709.661 961.07 719.058 1033.53 732.878 1030.42Z" fill="url(#paint24_radial_617_727)"/>
<path d="M894.108 551.926L896.556 428.886L412.674 428.885C358.456 426.777 300.531 433.597 266.247 467.152C237.903 494.893 272.888 523.674 277.776 551.925L894.108 551.926Z" fill="url(#paint25_linear_617_727)"/>
<path d="M418.549 665.261C421.434 643.323 429.244 636.256 461.788 630.46C463.346 643.32 454.088 669.469 418.549 665.261Z" fill="#633FA7"/>
<path d="M267.056 690.226C271.868 688.931 280.562 695.704 292.68 713.259C276.01 710.454 271.365 701.116 267.056 690.226Z" fill="#633FA7"/>
<rect x="259.608" y="688.12" width="9.94873" height="5.70605" transform="rotate(-32.5076 259.608 688.12)" fill="#171717"/>
<path d="M889.395 968.387V965.267H895.315V943.547H889.395V940.427H905.035V943.547H899.075V965.267H905.035V968.387H889.395ZM920.682 946.467V940.427H924.762V946.467L923.682 952.787H921.762L920.682 946.467ZM937.448 968.387V947.427H940.568V949.587C941.021 948.92 941.648 948.32 942.448 947.787C943.275 947.227 944.248 946.947 945.368 946.947C946.381 946.947 947.261 947.2 948.008 947.707C948.781 948.187 949.328 948.867 949.648 949.747C950.075 949.054 950.701 948.414 951.528 947.827C952.355 947.24 953.355 946.947 954.528 946.947C955.835 946.947 956.915 947.347 957.768 948.147C958.621 948.92 959.048 949.974 959.048 951.307V968.387H955.768V951.987C955.768 951.24 955.555 950.68 955.128 950.307C954.701 949.934 954.141 949.747 953.448 949.747C952.328 949.747 951.448 950.067 950.808 950.707C950.195 951.32 949.888 952.174 949.888 953.267V968.387H946.608V951.987C946.608 951.24 946.395 950.68 945.968 950.307C945.541 949.934 944.981 949.747 944.288 949.747C943.168 949.747 942.288 950.067 941.648 950.707C941.035 951.32 940.728 952.174 940.728 953.267V968.387H937.448ZM1009.7 966.187V968.707C1008.87 968.947 1008.21 969.067 1007.7 969.067C1005.46 969.067 1004.22 968.014 1003.98 965.907C1002.81 967.054 1001.66 967.88 1000.54 968.387C999.421 968.867 998.195 969.107 996.861 969.107C994.835 969.107 993.181 968.574 991.901 967.507C990.648 966.414 990.021 964.894 990.021 962.947C990.021 961.507 990.328 960.36 990.941 959.507C991.555 958.627 992.301 957.974 993.181 957.547C994.088 957.094 994.941 956.8 995.741 956.667C996.115 956.614 996.688 956.534 997.461 956.427C998.235 956.294 999.208 956.147 1000.38 955.987C1001.71 955.8 1002.63 955.547 1003.14 955.227C1003.67 954.907 1003.94 954.414 1003.94 953.747V953.027C1003.94 950.947 1002.34 949.907 999.141 949.907C997.595 949.907 996.421 950.214 995.621 950.827C994.848 951.414 994.395 952.347 994.261 953.627H990.901C990.955 951.2 991.741 949.467 993.261 948.427C994.808 947.36 996.821 946.827 999.301 946.827C1001.89 946.827 1003.85 947.32 1005.18 948.307C1006.51 949.267 1007.18 950.68 1007.18 952.547V964.627C1007.18 965.72 1007.78 966.267 1008.98 966.267C1009.19 966.267 1009.43 966.24 1009.7 966.187ZM1003.94 961.107V957.787C1003.25 958.107 1002.38 958.36 1001.34 958.547C1000.33 958.734 999.381 958.88 998.501 958.987C996.955 959.174 995.715 959.534 994.781 960.067C993.875 960.6 993.421 961.534 993.421 962.867C993.421 963.907 993.795 964.72 994.541 965.307C995.315 965.894 996.368 966.187 997.701 966.187C998.688 966.187 999.648 965.974 1000.58 965.547C1001.54 965.094 1002.34 964.48 1002.98 963.707C1003.62 962.934 1003.94 962.067 1003.94 961.107ZM1056.35 959.627V940.427H1060.07V960.147C1060.07 962.307 1059.62 964.04 1058.71 965.347C1057.83 966.654 1056.65 967.614 1055.15 968.227C1053.69 968.814 1052.07 969.107 1050.31 969.107C1048.5 969.107 1046.86 968.8 1045.39 968.187C1043.93 967.574 1042.77 966.614 1041.91 965.307C1041.06 963.974 1040.63 962.254 1040.63 960.147V940.427H1044.35V959.627C1044.35 961.254 1044.62 962.52 1045.15 963.427C1045.71 964.307 1046.45 964.934 1047.35 965.307C1048.26 965.654 1049.25 965.827 1050.31 965.827C1051.41 965.827 1052.41 965.64 1053.31 965.267C1054.22 964.894 1054.95 964.267 1055.51 963.387C1056.07 962.48 1056.35 961.227 1056.35 959.627ZM1082.88 968.387L1075.84 957.067L1068.8 968.387H1064.52L1073.88 954.067L1065.16 940.427H1069.52L1076.04 950.947L1082.52 940.427H1086.76L1078 953.947L1087.24 968.387H1082.88ZM1126.65 968.387H1117.61V940.427H1126.65C1129.03 940.427 1131 941.027 1132.57 942.227C1134.15 943.427 1135.32 945.08 1136.09 947.187C1136.89 949.267 1137.29 951.667 1137.29 954.387C1137.29 957.107 1136.89 959.52 1136.09 961.627C1135.32 963.734 1134.15 965.387 1132.57 966.587C1131 967.787 1129.03 968.387 1126.65 968.387ZM1121.33 943.707V965.107H1126.01C1128.63 965.107 1130.51 964.16 1131.65 962.267C1132.83 960.347 1133.41 957.734 1133.41 954.427C1133.41 951.094 1132.83 948.48 1131.65 946.587C1130.51 944.667 1128.63 943.707 1126.01 943.707H1121.33ZM1161.58 961.907C1161.23 964.094 1160.26 965.84 1158.66 967.147C1157.09 968.454 1155.07 969.107 1152.62 969.107C1150.51 969.107 1148.75 968.64 1147.34 967.707C1145.93 966.747 1144.86 965.44 1144.14 963.787C1143.45 962.134 1143.1 960.24 1143.1 958.107C1143.1 955.76 1143.5 953.747 1144.3 952.067C1145.1 950.387 1146.22 949.094 1147.66 948.187C1149.1 947.254 1150.78 946.787 1152.7 946.787C1154.86 946.787 1156.62 947.294 1157.98 948.307C1159.37 949.32 1160.38 950.734 1161.02 952.547C1161.69 954.36 1162.02 956.48 1162.02 958.907H1146.58C1146.63 960.96 1147.17 962.667 1148.18 964.027C1149.19 965.36 1150.71 966.027 1152.74 966.027C1155.49 966.027 1157.31 964.654 1158.22 961.907H1161.58ZM1152.66 949.867C1150.79 949.867 1149.37 950.48 1148.38 951.707C1147.39 952.934 1146.82 954.427 1146.66 956.187H1158.42C1158.42 955.014 1158.18 953.96 1157.7 953.027C1157.25 952.067 1156.59 951.307 1155.74 950.747C1154.89 950.16 1153.86 949.867 1152.66 949.867ZM1185.67 953.147H1182.19C1182.16 952.107 1181.76 951.28 1180.99 950.667C1180.24 950.054 1179.24 949.747 1177.99 949.747C1176.63 949.747 1175.52 950.027 1174.67 950.587C1173.84 951.147 1173.43 951.894 1173.43 952.827C1173.43 953.574 1173.68 954.174 1174.19 954.627C1174.69 955.08 1175.44 955.44 1176.43 955.707L1181.19 956.947C1182.95 957.4 1184.27 958.08 1185.15 958.987C1186.05 959.867 1186.51 961.054 1186.51 962.547C1186.51 964.574 1185.76 966.174 1184.27 967.347C1182.77 968.52 1180.72 969.107 1178.11 969.107C1172.61 969.107 1169.75 966.747 1169.51 962.027H1173.03C1173.19 963.44 1173.69 964.48 1174.55 965.147C1175.43 965.814 1176.64 966.147 1178.19 966.147C1179.68 966.147 1180.87 965.88 1181.75 965.347C1182.65 964.814 1183.11 964.054 1183.11 963.067C1183.11 962.16 1182.87 961.48 1182.39 961.027C1181.91 960.574 1181.09 960.2 1179.95 959.907L1175.55 958.747C1173.65 958.24 1172.25 957.56 1171.35 956.707C1170.47 955.827 1170.03 954.587 1170.03 952.987C1170.03 951.094 1170.75 949.587 1172.19 948.467C1173.65 947.347 1175.61 946.787 1178.07 946.787C1180.52 946.787 1182.39 947.36 1183.67 948.507C1184.97 949.627 1185.64 951.174 1185.67 953.147ZM1201.87 944.427V940.427H1205.87V944.427H1201.87ZM1205.51 947.427V965.667H1211.95V968.387H1195.03V965.667H1202.23V950.147H1195.03V947.427H1205.51ZM1228.52 977.107C1226.25 977.107 1224.33 976.6 1222.76 975.587C1221.19 974.6 1220.25 973 1219.96 970.787H1223.44C1223.92 973.134 1225.64 974.307 1228.6 974.307C1230.71 974.307 1232.21 973.72 1233.12 972.547C1234.05 971.4 1234.52 969.427 1234.52 966.627V965.427C1233.91 966.654 1233.05 967.574 1231.96 968.187C1230.89 968.8 1229.67 969.107 1228.28 969.107C1226.23 969.107 1224.52 968.614 1223.16 967.627C1221.8 966.64 1220.79 965.294 1220.12 963.587C1219.48 961.88 1219.16 959.96 1219.16 957.827C1219.16 955.774 1219.49 953.92 1220.16 952.267C1220.83 950.587 1221.83 949.254 1223.16 948.267C1224.52 947.28 1226.19 946.787 1228.16 946.787C1231.01 946.787 1233.16 947.867 1234.6 950.027V947.427H1237.92V964.987C1237.92 967.894 1237.68 970.107 1237.2 971.627C1236.61 973.44 1235.59 974.8 1234.12 975.707C1232.65 976.64 1230.79 977.107 1228.52 977.107ZM1228.76 965.987C1230.17 965.987 1231.31 965.6 1232.16 964.827C1233.01 964.027 1233.63 963.027 1234 961.827C1234.4 960.6 1234.6 959.347 1234.6 958.067C1234.6 956.654 1234.4 955.334 1234 954.107C1233.6 952.854 1232.97 951.84 1232.12 951.067C1231.27 950.294 1230.13 949.907 1228.72 949.907C1227.41 949.907 1226.31 950.267 1225.4 950.987C1224.49 951.68 1223.8 952.64 1223.32 953.867C1222.87 955.067 1222.64 956.427 1222.64 957.947C1222.64 959.36 1222.85 960.68 1223.28 961.907C1223.71 963.134 1224.36 964.12 1225.24 964.867C1226.15 965.614 1227.32 965.987 1228.76 965.987ZM1246.25 968.387V947.427H1249.33V950.907C1250.15 949.627 1251.1 948.627 1252.17 947.907C1253.26 947.187 1254.63 946.827 1256.29 946.827C1257.51 946.827 1258.62 947.04 1259.61 947.467C1260.62 947.867 1261.42 948.494 1262.01 949.347C1262.62 950.174 1262.93 951.24 1262.93 952.547V968.387H1259.61V953.867C1259.61 952.454 1259.18 951.414 1258.33 950.747C1257.47 950.08 1256.46 949.747 1255.29 949.747C1254.03 949.747 1252.98 950.067 1252.13 950.707C1251.27 951.347 1250.63 952.187 1250.21 953.227C1249.78 954.267 1249.57 955.387 1249.57 956.587V968.387H1246.25ZM1289.21 961.907C1288.87 964.094 1287.89 965.84 1286.29 967.147C1284.72 968.454 1282.71 969.107 1280.25 969.107C1278.15 969.107 1276.39 968.64 1274.97 967.707C1273.56 966.747 1272.49 965.44 1271.77 963.787C1271.08 962.134 1270.73 960.24 1270.73 958.107C1270.73 955.76 1271.13 953.747 1271.93 952.067C1272.73 950.387 1273.85 949.094 1275.29 948.187C1276.73 947.254 1278.41 946.787 1280.33 946.787C1282.49 946.787 1284.25 947.294 1285.61 948.307C1287 949.32 1288.01 950.734 1288.65 952.547C1289.32 954.36 1289.65 956.48 1289.65 958.907H1274.21C1274.27 960.96 1274.8 962.667 1275.81 964.027C1276.83 965.36 1278.35 966.027 1280.37 966.027C1283.12 966.027 1284.95 964.654 1285.85 961.907H1289.21ZM1280.29 949.867C1278.43 949.867 1277 950.48 1276.01 951.707C1275.03 952.934 1274.45 954.427 1274.29 956.187H1286.05C1286.05 955.014 1285.81 953.96 1285.33 953.027C1284.88 952.067 1284.23 951.307 1283.37 950.747C1282.52 950.16 1281.49 949.867 1280.29 949.867ZM1298.22 968.387V947.427H1301.3V951.947C1301.99 950.454 1302.99 949.227 1304.3 948.267C1305.61 947.307 1307.11 946.827 1308.82 946.827C1311.22 946.827 1313.05 947.44 1314.3 948.667C1315.58 949.894 1316.31 951.547 1316.5 953.627H1313.18C1312.94 952.374 1312.45 951.414 1311.7 950.747C1310.98 950.08 1309.91 949.747 1308.5 949.747C1307.11 949.747 1305.9 950.12 1304.86 950.867C1303.82 951.587 1303.01 952.587 1302.42 953.867C1301.86 955.12 1301.58 956.574 1301.58 958.227V968.387H1298.22ZM1364.79 968.387L1362.47 965.307C1361.41 966.427 1360.21 967.307 1358.87 967.947C1357.54 968.587 1356.15 968.907 1354.71 968.907C1352.15 968.907 1350.13 968.187 1348.63 966.747C1347.14 965.307 1346.39 963.334 1346.39 960.827C1346.39 957.574 1347.95 954.987 1351.07 953.067L1352.55 952.147L1352.51 952.067C1351.5 950.707 1350.74 949.6 1350.23 948.747C1349.73 947.894 1349.47 946.96 1349.47 945.947C1349.47 944.747 1349.78 943.694 1350.39 942.787C1351.03 941.88 1351.86 941.174 1352.87 940.667C1353.91 940.134 1355.02 939.867 1356.19 939.867C1358.03 939.867 1359.54 940.387 1360.71 941.427C1361.91 942.44 1362.51 943.88 1362.51 945.747C1362.51 946.92 1362.18 948.014 1361.51 949.027C1360.87 950.014 1359.94 950.907 1358.71 951.707L1356.99 952.827L1362.51 960.107C1363.23 958.534 1363.67 956.814 1363.83 954.947H1366.79C1366.71 956.36 1366.47 957.72 1366.07 959.027C1365.67 960.334 1365.14 961.534 1364.47 962.627L1368.87 968.387H1364.79ZM1354.03 948.987L1355.31 950.627L1357.47 949.267C1358.09 948.894 1358.57 948.387 1358.91 947.747C1359.26 947.08 1359.43 946.374 1359.43 945.627C1359.43 944.694 1359.14 943.974 1358.55 943.467C1357.97 942.934 1357.17 942.667 1356.15 942.667C1355.17 942.667 1354.34 942.947 1353.67 943.507C1353.03 944.067 1352.71 944.787 1352.71 945.667C1352.71 946.2 1352.81 946.734 1352.99 947.267C1353.18 947.774 1353.53 948.347 1354.03 948.987ZM1349.63 960.827C1349.63 962.267 1350.13 963.454 1351.11 964.387C1352.1 965.32 1353.33 965.787 1354.79 965.787C1355.94 965.787 1357.01 965.547 1357.99 965.067C1359.01 964.56 1359.91 963.854 1360.71 962.947L1354.23 954.387L1352.87 955.267C1351.67 956.04 1350.83 956.854 1350.35 957.707C1349.87 958.56 1349.63 959.6 1349.63 960.827ZM1406.21 960.387L1401.09 946.267V968.387H1397.93V940.427H1402.09L1407.77 956.507L1413.45 940.427H1417.53V968.387H1414.37V946.227L1409.33 960.387H1406.21ZM1442.37 961.907C1442.03 964.094 1441.05 965.84 1439.45 967.147C1437.88 968.454 1435.87 969.107 1433.41 969.107C1431.31 969.107 1429.55 968.64 1428.13 967.707C1426.72 966.747 1425.65 965.44 1424.93 963.787C1424.24 962.134 1423.89 960.24 1423.89 958.107C1423.89 955.76 1424.29 953.747 1425.09 952.067C1425.89 950.387 1427.01 949.094 1428.45 948.187C1429.89 947.254 1431.57 946.787 1433.49 946.787C1435.65 946.787 1437.41 947.294 1438.77 948.307C1440.16 949.32 1441.17 950.734 1441.81 952.547C1442.48 954.36 1442.81 956.48 1442.81 958.907H1427.37C1427.43 960.96 1427.96 962.667 1428.97 964.027C1429.99 965.36 1431.51 966.027 1433.53 966.027C1436.28 966.027 1438.11 964.654 1439.01 961.907H1442.37ZM1433.45 949.867C1431.59 949.867 1430.16 950.48 1429.17 951.707C1428.19 952.934 1427.61 954.427 1427.45 956.187H1439.21C1439.21 955.014 1438.97 953.96 1438.49 953.027C1438.04 952.067 1437.39 951.307 1436.53 950.747C1435.68 950.16 1434.65 949.867 1433.45 949.867ZM1464.34 939.227H1467.66V968.387H1464.7V965.427C1463.02 967.88 1460.79 969.107 1458.02 969.107C1455.97 969.107 1454.26 968.614 1452.9 967.627C1451.54 966.614 1450.53 965.24 1449.86 963.507C1449.22 961.774 1448.9 959.84 1448.9 957.707C1448.9 955.68 1449.23 953.854 1449.9 952.227C1450.57 950.574 1451.57 949.254 1452.9 948.267C1454.26 947.28 1455.93 946.787 1457.9 946.787C1460.75 946.787 1462.9 947.867 1464.34 950.027V939.227ZM1458.46 949.907C1457.15 949.907 1456.05 950.267 1455.14 950.987C1454.23 951.68 1453.54 952.64 1453.06 953.867C1452.61 955.067 1452.38 956.427 1452.38 957.947C1452.38 959.36 1452.59 960.68 1453.02 961.907C1453.45 963.134 1454.1 964.12 1454.98 964.867C1455.89 965.614 1457.06 965.987 1458.5 965.987C1459.91 965.987 1461.05 965.6 1461.9 964.827C1462.75 964.027 1463.37 963.027 1463.74 961.827C1464.14 960.6 1464.34 959.347 1464.34 958.067C1464.34 956.654 1464.14 955.334 1463.74 954.107C1463.34 952.854 1462.71 951.84 1461.86 951.067C1461.01 950.294 1459.87 949.907 1458.46 949.907ZM1482.67 944.427V940.427H1486.67V944.427H1482.67ZM1486.31 947.427V965.667H1492.75V968.387H1475.83V965.667H1483.03V950.147H1475.83V947.427H1486.31ZM1520.23 966.187V968.707C1519.41 968.947 1518.74 969.067 1518.23 969.067C1515.99 969.067 1514.75 968.014 1514.51 965.907C1513.34 967.054 1512.19 967.88 1511.07 968.387C1509.95 968.867 1508.73 969.107 1507.39 969.107C1505.37 969.107 1503.71 968.574 1502.43 967.507C1501.18 966.414 1500.55 964.894 1500.55 962.947C1500.55 961.507 1500.86 960.36 1501.47 959.507C1502.09 958.627 1502.83 957.974 1503.71 957.547C1504.62 957.094 1505.47 956.8 1506.27 956.667C1506.65 956.614 1507.22 956.534 1507.99 956.427C1508.77 956.294 1509.74 956.147 1510.91 955.987C1512.25 955.8 1513.17 955.547 1513.67 955.227C1514.21 954.907 1514.47 954.414 1514.47 953.747V953.027C1514.47 950.947 1512.87 949.907 1509.67 949.907C1508.13 949.907 1506.95 950.214 1506.15 950.827C1505.38 951.414 1504.93 952.347 1504.79 953.627H1501.43C1501.49 951.2 1502.27 949.467 1503.79 948.427C1505.34 947.36 1507.35 946.827 1509.83 946.827C1512.42 946.827 1514.38 947.32 1515.71 948.307C1517.05 949.267 1517.71 950.68 1517.71 952.547V964.627C1517.71 965.72 1518.31 966.267 1519.51 966.267C1519.73 966.267 1519.97 966.24 1520.23 966.187ZM1514.47 961.107V957.787C1513.78 958.107 1512.91 958.36 1511.87 958.547C1510.86 958.734 1509.91 958.88 1509.03 958.987C1507.49 959.174 1506.25 959.534 1505.31 960.067C1504.41 960.6 1503.95 961.534 1503.95 962.867C1503.95 963.907 1504.33 964.72 1505.07 965.307C1505.85 965.894 1506.9 966.187 1508.23 966.187C1509.22 966.187 1510.18 965.974 1511.11 965.547C1512.07 965.094 1512.87 964.48 1513.51 963.707C1514.15 962.934 1514.47 962.067 1514.47 961.107ZM1568.17 968.387L1565.69 960.027H1556.05L1553.57 968.387H1549.73L1558.57 940.427H1563.25L1572.05 968.387H1568.17ZM1556.97 956.907H1564.77L1560.85 943.787L1556.97 956.907ZM1579.01 968.387V947.427H1582.09V951.947C1582.79 950.454 1583.79 949.227 1585.09 948.267C1586.4 947.307 1587.91 946.827 1589.61 946.827C1592.01 946.827 1593.84 947.44 1595.09 948.667C1596.37 949.894 1597.11 951.547 1597.29 953.627H1593.97C1593.73 952.374 1593.24 951.414 1592.49 950.747C1591.77 950.08 1590.71 949.747 1589.29 949.747C1587.91 949.747 1586.69 950.12 1585.65 950.867C1584.61 951.587 1583.8 952.587 1583.21 953.867C1582.65 955.12 1582.37 956.574 1582.37 958.227V968.387H1579.01ZM1612.1 947.427H1620.34V950.147H1612.1V961.827C1612.1 963.374 1612.5 964.454 1613.3 965.067C1614.1 965.654 1615.26 965.947 1616.78 965.947C1617.47 965.947 1618.11 965.92 1618.7 965.867C1619.29 965.787 1619.83 965.68 1620.34 965.547V968.467C1619.67 968.654 1619.02 968.774 1618.38 968.827C1617.74 968.907 1617.14 968.947 1616.58 968.947C1614.05 968.947 1612.11 968.427 1610.78 967.387C1609.45 966.347 1608.78 964.694 1608.78 962.427V950.147H1602.74V947.427H1608.78V941.667H1612.1V947.427ZM1635.83 944.427V940.427H1639.83V944.427H1635.83ZM1639.47 947.427V965.667H1645.91V968.387H1628.99V965.667H1636.19V950.147H1628.99V947.427H1639.47ZM1670.67 953.147H1667.19C1667.17 952.107 1666.77 951.28 1665.99 950.667C1665.25 950.054 1664.25 949.747 1662.99 949.747C1661.63 949.747 1660.53 950.027 1659.67 950.587C1658.85 951.147 1658.43 951.894 1658.43 952.827C1658.43 953.574 1658.69 954.174 1659.19 954.627C1659.7 955.08 1660.45 955.44 1661.43 955.707L1666.19 956.947C1667.95 957.4 1669.27 958.08 1670.15 958.987C1671.06 959.867 1671.51 961.054 1671.51 962.547C1671.51 964.574 1670.77 966.174 1669.27 967.347C1667.78 968.52 1665.73 969.107 1663.11 969.107C1657.62 969.107 1654.75 966.747 1654.51 962.027H1658.03C1658.19 963.44 1658.7 964.48 1659.55 965.147C1660.43 965.814 1661.65 966.147 1663.19 966.147C1664.69 966.147 1665.87 965.88 1666.75 965.347C1667.66 964.814 1668.11 964.054 1668.11 963.067C1668.11 962.16 1667.87 961.48 1667.39 961.027C1666.91 960.574 1666.1 960.2 1664.95 959.907L1660.55 958.747C1658.66 958.24 1657.26 957.56 1656.35 956.707C1655.47 955.827 1655.03 954.587 1655.03 952.987C1655.03 951.094 1655.75 949.587 1657.19 948.467C1658.66 947.347 1660.62 946.787 1663.07 946.787C1665.53 946.787 1667.39 947.36 1668.67 948.507C1669.98 949.627 1670.65 951.174 1670.67 953.147ZM1688.68 947.427H1696.92V950.147H1688.68V961.827C1688.68 963.374 1689.08 964.454 1689.88 965.067C1690.68 965.654 1691.84 965.947 1693.36 965.947C1694.05 965.947 1694.69 965.92 1695.28 965.867C1695.87 965.787 1696.41 965.68 1696.92 965.547V968.467C1696.25 968.654 1695.6 968.774 1694.96 968.827C1694.32 968.907 1693.72 968.947 1693.16 968.947C1690.63 968.947 1688.69 968.427 1687.36 967.387C1686.03 966.347 1685.36 964.694 1685.36 962.427V950.147H1679.32V947.427H1685.36V941.667H1688.68V947.427ZM1711.32 962.947H1716.76V968.387H1711.32V962.947Z" fill="white"/>
<defs>
<linearGradient id="paint0_linear_617_727" x1="424.345" y1="449.34" x2="1450.1" y2="449.34" gradientUnits="userSpaceOnUse">
<stop stop-color="#633FA7"/>
<stop offset="1" stop-color="#171717" stop-opacity="0"/>
</linearGradient>
<linearGradient id="paint1_linear_617_727" x1="725.934" y1="1302.63" x2="1057.35" y2="1013.46" gradientUnits="userSpaceOnUse">
<stop offset="0.303932" stop-color="#633FA7"/>
<stop offset="1" stop-color="#171717"/>
</linearGradient>
<linearGradient id="paint2_linear_617_727" x1="416.797" y1="851" x2="626.188" y2="743.873" gradientUnits="userSpaceOnUse">
<stop offset="0.0860268" stop-color="#633FA7"/>
<stop offset="0.911399" stop-color="#171717" stop-opacity="0"/>
</linearGradient>
<linearGradient id="paint3_linear_617_727" x1="225.174" y1="739.348" x2="374.981" y2="737.243" gradientUnits="userSpaceOnUse">
<stop offset="0.485102" stop-color="#633FA7"/>
<stop offset="0.70811" stop-color="#171717" stop-opacity="0"/>
</linearGradient>
<linearGradient id="paint4_linear_617_727" x1="356.243" y1="540.798" x2="477.285" y2="579.46" gradientUnits="userSpaceOnUse">
<stop offset="0.401421" stop-color="#633FA7"/>
<stop offset="0.874339" stop-color="#171717" stop-opacity="0"/>
</linearGradient>
<linearGradient id="paint5_linear_617_727" x1="317.11" y1="773.314" x2="698.733" y2="809.305" gradientUnits="userSpaceOnUse">
<stop offset="0.163507" stop-color="#633FA7"/>
<stop offset="0.584121" stop-color="#171717" stop-opacity="0"/>
</linearGradient>
<linearGradient id="paint6_linear_617_727" x1="362.965" y1="954.482" x2="370.429" y2="983.464" gradientUnits="userSpaceOnUse">
<stop stop-color="#633FA7"/>
<stop offset="1" stop-color="#171717"/>
</linearGradient>
<linearGradient id="paint7_linear_617_727" x1="760.249" y1="1361.22" x2="638.742" y2="1242.15" gradientUnits="userSpaceOnUse">
<stop stop-color="#633FA7"/>
<stop offset="1" stop-color="#171717" stop-opacity="0"/>
</linearGradient>
<linearGradient id="paint8_linear_617_727" x1="496.204" y1="1109.68" x2="588.829" y2="1103.69" gradientUnits="userSpaceOnUse">
<stop stop-color="#171717" stop-opacity="0"/>
<stop offset="1" stop-color="#633FA7"/>
</linearGradient>
<linearGradient id="paint9_linear_617_727" x1="597.032" y1="1048.5" x2="622.936" y2="1124.66" gradientUnits="userSpaceOnUse">
<stop stop-color="#171717"/>
<stop offset="1" stop-color="#633FA7"/>
</linearGradient>
<linearGradient id="paint10_linear_617_727" x1="709.185" y1="1092.58" x2="708.24" y2="1021.53" gradientUnits="userSpaceOnUse">
<stop stop-color="#633FA7"/>
<stop offset="1" stop-color="#171717" stop-opacity="0"/>
</linearGradient>
<linearGradient id="paint11_linear_617_727" x1="839.113" y1="1079.83" x2="776.029" y2="1207.85" gradientUnits="userSpaceOnUse">
<stop offset="0.0922444" stop-color="#171717" stop-opacity="0"/>
<stop offset="1" stop-color="#633FA7"/>
</linearGradient>
<linearGradient id="paint12_linear_617_727" x1="249.993" y1="531.547" x2="178.669" y2="505.556" gradientUnits="userSpaceOnUse">
<stop stop-color="#633FA7"/>
<stop offset="1" stop-color="#171717" stop-opacity="0"/>
</linearGradient>
<linearGradient id="paint13_linear_617_727" x1="261.032" y1="495.819" x2="225.815" y2="459.613" gradientUnits="userSpaceOnUse">
<stop stop-color="#633FA7"/>
<stop offset="1" stop-color="#171717" stop-opacity="0"/>
</linearGradient>
<linearGradient id="paint14_linear_617_727" x1="383.099" y1="1231.76" x2="502.234" y2="1344.48" gradientUnits="userSpaceOnUse">
<stop offset="0.573545" stop-color="#171717" stop-opacity="0"/>
<stop offset="0.965483" stop-color="#633FA7"/>
<stop offset="1" stop-color="#171717" stop-opacity="0"/>
</linearGradient>
<linearGradient id="paint15_linear_617_727" x1="406.827" y1="959.722" x2="466.704" y2="1031.49" gradientUnits="userSpaceOnUse">
<stop offset="0.190859" stop-color="#633FA7"/>
<stop offset="1" stop-color="#171717"/>
</linearGradient>
<linearGradient id="paint16_linear_617_727" x1="537.345" y1="1091.79" x2="476.562" y2="1092.64" gradientUnits="userSpaceOnUse">
<stop stop-color="#633FA7"/>
<stop offset="1" stop-color="#171717" stop-opacity="0"/>
</linearGradient>
<linearGradient id="paint17_linear_617_727" x1="730.183" y1="810.921" x2="658.405" y2="1002.45" gradientUnits="userSpaceOnUse">
<stop offset="0.4844" stop-color="#171717" stop-opacity="0"/>
<stop offset="1" stop-color="#633FA7"/>
</linearGradient>
<linearGradient id="paint18_linear_617_727" x1="603.005" y1="1029.43" x2="498.248" y2="900.753" gradientUnits="userSpaceOnUse">
<stop stop-color="#FFE266"/>
<stop offset="0.0001" stop-color="#633FA7"/>
<stop offset="1" stop-color="#171717" stop-opacity="0"/>
</linearGradient>
<linearGradient id="paint19_linear_617_727" x1="688.082" y1="1041.9" x2="568.957" y2="747.825" gradientUnits="userSpaceOnUse">
<stop offset="0.336015" stop-color="#633FA7"/>
<stop offset="1" stop-color="#171717" stop-opacity="0"/>
</linearGradient>
<linearGradient id="paint20_linear_617_727" x1="537.619" y1="1035.91" x2="463.265" y2="979.74" gradientUnits="userSpaceOnUse">
<stop stop-color="#633FA7"/>
<stop offset="0.639791" stop-color="#171717" stop-opacity="0"/>
</linearGradient>
<radialGradient id="paint21_radial_617_727" cx="0" cy="0" r="1" gradientUnits="userSpaceOnUse" gradientTransform="translate(612.13 867.159) rotate(-65.7435) scale(209.405 101.682)">
<stop stop-color="#633FA7"/>
<stop offset="1" stop-color="#171717"/>
</radialGradient>
<linearGradient id="paint22_linear_617_727" x1="501.215" y1="756.631" x2="608.692" y2="785.062" gradientUnits="userSpaceOnUse">
<stop stop-color="#633FA7"/>
<stop offset="1" stop-color="#171717" stop-opacity="0"/>
</linearGradient>
<linearGradient id="paint23_linear_617_727" x1="392.472" y1="829.742" x2="559.453" y2="884.083" gradientUnits="userSpaceOnUse">
<stop stop-color="#171717"/>
<stop offset="1" stop-color="#633FA7"/>
</linearGradient>
<radialGradient id="paint24_radial_617_727" cx="0" cy="0" r="1" gradientUnits="userSpaceOnUse" gradientTransform="translate(683.696 1071.52) rotate(-52.7791) scale(402.191 345.565)">
<stop stop-color="#633FA7"/>
<stop offset="0.615395" stop-color="#171717"/>
</radialGradient>
<linearGradient id="paint25_linear_617_727" x1="440.371" y1="428.537" x2="977.448" y2="691.489" gradientUnits="userSpaceOnUse">
<stop stop-color="#633FA7"/>
<stop offset="0.643548" stop-color="#171717" stop-opacity="0"/>
</linearGradient>
</defs>
</svg>
