<svg width="1977" height="1882" viewBox="0 0 1977 1882" fill="none" xmlns="http://www.w3.org/2000/svg">
<g clip-path="url(#clip0_532_1310)">
<rect width="1977" height="1882" fill="#171717"/>
<path d="M1178.46 1055.51C807.039 1196.59 610.19 1114.3 558.193 1055.51L683.563 1045.89L816.407 926.736L1178.46 1055.51Z" fill="url(#paint0_linear_532_1310)"/>
<path d="M580.866 1046.73L565.579 1065.98L639.462 1129.57L682.141 1095.6L743.11 1071.21L762.272 976.274L580.866 1046.73Z" fill="#171717"/>
<path d="M495.015 492.838L355.153 410.644H1736.22V642.642H764.132L569.917 530.62L495.015 492.838Z" fill="url(#paint1_linear_532_1310)"/>
<path d="M898.122 679.315V727.195H891.13V679.315H898.122ZM943.088 722.711C944.709 722.711 946.128 722.534 947.344 722.179C948.56 721.824 949.75 721.368 950.916 720.811L952.36 725.827C949.624 727.195 946.356 727.879 942.556 727.879C939.972 727.879 937.54 727.499 935.26 726.739C933.03 725.979 931.054 724.839 929.332 723.319C927.66 721.748 926.342 719.823 925.38 717.543C924.417 715.212 923.936 712.502 923.936 709.411C923.936 706.574 924.392 704.015 925.304 701.735C926.216 699.455 927.482 697.53 929.104 695.959C930.725 694.338 932.676 693.096 934.956 692.235C937.236 691.374 939.744 690.943 942.48 690.943C944.05 690.943 945.57 691.07 947.04 691.323C948.56 691.526 950.282 692.058 952.208 692.919L950.688 698.011C948.357 696.694 945.849 696.035 943.164 696.035C939.465 696.035 936.476 697.2 934.196 699.531C931.916 701.811 930.776 705.028 930.776 709.183C930.776 711.767 931.13 713.92 931.84 715.643C932.549 717.366 933.486 718.759 934.652 719.823C935.817 720.836 937.134 721.571 938.604 722.027C940.073 722.483 941.568 722.711 943.088 722.711ZM959.609 727.195V691.475H964.625L965.765 698.619C966.626 696.339 968.045 694.49 970.021 693.071C971.997 691.652 974.277 690.943 976.861 690.943C978.178 690.943 979.267 691.044 980.129 691.247C980.99 691.45 981.775 691.703 982.485 692.007L981.193 697.859C980.585 697.555 979.901 697.302 979.141 697.099C978.431 696.896 977.57 696.795 976.557 696.795C975.087 696.795 973.719 697.048 972.453 697.555C971.237 698.062 970.147 698.822 969.185 699.835C968.273 700.848 967.538 702.115 966.981 703.635C966.474 705.104 966.221 706.802 966.221 708.727V727.195H959.609ZM987.305 694.667C988.521 694.059 989.661 693.527 990.725 693.071C991.789 692.564 992.853 692.159 993.917 691.855C994.981 691.551 996.07 691.323 997.185 691.171C998.3 691.019 999.516 690.943 1000.83 690.943C1002.81 690.943 1004.61 691.171 1006.23 691.627C1007.9 692.032 1009.32 692.742 1010.48 693.755C1011.7 694.768 1012.64 696.111 1013.3 697.783C1013.96 699.404 1014.28 701.456 1014.28 703.939V727.195H1008.74L1007.9 723.243H1007.75C1006.18 724.915 1004.46 726.106 1002.58 726.815C1000.71 727.524 998.629 727.879 996.349 727.879C994.626 727.879 993.03 727.651 991.561 727.195C990.142 726.688 988.901 726.004 987.837 725.143C986.773 724.231 985.937 723.142 985.329 721.875C984.772 720.608 984.493 719.19 984.493 717.619C984.493 713.87 985.962 711.032 988.901 709.107C991.89 707.131 995.817 706.143 1000.68 706.143H1007.52V703.103C1007.52 700.519 1006.86 698.771 1005.54 697.859C1004.23 696.896 1002.45 696.415 1000.22 696.415C998.908 696.415 997.388 696.643 995.665 697.099C993.993 697.504 992.068 698.315 989.889 699.531L987.305 694.667ZM1007.6 710.703L1001.97 710.855C998.173 710.956 995.462 711.64 993.841 712.907C992.27 714.123 991.485 715.618 991.485 717.391C991.485 718.455 991.662 719.367 992.017 720.127C992.372 720.836 992.828 721.394 993.385 721.799C993.993 722.204 994.677 722.508 995.437 722.711C996.248 722.863 997.084 722.939 997.945 722.939C999.617 722.939 1001.31 722.559 1003.04 721.799C1004.76 720.988 1006.28 719.722 1007.6 717.999V710.703ZM1037.56 672.855C1038.98 672.855 1040.45 673.058 1041.97 673.463C1043.54 673.868 1044.93 674.375 1046.15 674.983L1044.78 679.619C1043.77 679.214 1042.8 678.91 1041.89 678.707C1040.98 678.454 1040.02 678.327 1039 678.327C1036.57 678.327 1034.82 679.011 1033.76 680.379C1032.75 681.747 1032.24 684.078 1032.24 687.371V691.475H1043.11V696.491H1032.24V727.195H1025.63V696.491H1020.38V691.475H1025.63V685.167C1025.63 681.215 1026.64 678.175 1028.67 676.047C1030.75 673.919 1033.71 672.855 1037.56 672.855ZM1067.37 696.491H1056.88V717.239C1056.88 719.012 1057.32 720.203 1058.18 720.811C1059.09 721.419 1060.25 721.723 1061.67 721.723C1062.69 721.723 1063.8 721.622 1065.02 721.419C1066.23 721.166 1067.3 720.887 1068.21 720.583L1069.27 725.675C1068.26 726.08 1066.97 726.435 1065.4 726.739C1063.83 727.043 1062.18 727.195 1060.46 727.195C1056.91 727.195 1054.33 726.435 1052.7 724.915C1051.08 723.344 1050.27 721.09 1050.27 718.151V696.491H1044.95V691.475H1050.27V680.075H1056.88V691.475H1067.37V696.491ZM1110.08 722.711C1111.7 722.711 1113.12 722.534 1114.34 722.179C1115.55 721.824 1116.74 721.368 1117.91 720.811L1119.35 725.827C1116.62 727.195 1113.35 727.879 1109.55 727.879C1106.96 727.879 1104.53 727.499 1102.25 726.739C1100.02 725.979 1098.05 724.839 1096.32 723.319C1094.65 721.748 1093.33 719.823 1092.37 717.543C1091.41 715.212 1090.93 712.502 1090.93 709.411C1090.93 706.574 1091.38 704.015 1092.3 701.735C1093.21 699.455 1094.47 697.53 1096.1 695.959C1097.72 694.338 1099.67 693.096 1101.95 692.235C1104.23 691.374 1106.74 690.943 1109.47 690.943C1111.04 690.943 1112.56 691.07 1114.03 691.323C1115.55 691.526 1117.27 692.058 1119.2 692.919L1117.68 698.011C1115.35 696.694 1112.84 696.035 1110.16 696.035C1106.46 696.035 1103.47 697.2 1101.19 699.531C1098.91 701.811 1097.77 705.028 1097.77 709.183C1097.77 711.767 1098.12 713.92 1098.83 715.643C1099.54 717.366 1100.48 718.759 1101.64 719.823C1102.81 720.836 1104.13 721.571 1105.6 722.027C1107.07 722.483 1108.56 722.711 1110.08 722.711ZM1126.6 727.195V691.475H1131.62L1132.76 698.619C1133.62 696.339 1135.04 694.49 1137.01 693.071C1138.99 691.652 1141.27 690.943 1143.85 690.943C1145.17 690.943 1146.26 691.044 1147.12 691.247C1147.98 691.45 1148.77 691.703 1149.48 692.007L1148.18 697.859C1147.58 697.555 1146.89 697.302 1146.13 697.099C1145.42 696.896 1144.56 696.795 1143.55 696.795C1142.08 696.795 1140.71 697.048 1139.44 697.555C1138.23 698.062 1137.14 698.822 1136.18 699.835C1135.26 700.848 1134.53 702.115 1133.97 703.635C1133.47 705.104 1133.21 706.802 1133.21 708.727V727.195H1126.6ZM1155.72 727.195V691.475H1162.41V727.195H1155.72ZM1159.07 682.279C1157.9 682.279 1156.89 681.899 1156.03 681.139C1155.22 680.328 1154.81 679.34 1154.81 678.175C1154.81 677.01 1155.22 676.022 1156.03 675.211C1156.89 674.4 1157.9 673.995 1159.07 673.995C1160.18 673.995 1161.17 674.4 1162.03 675.211C1162.89 676.022 1163.32 677.01 1163.32 678.175C1163.32 679.34 1162.89 680.328 1162.03 681.139C1161.17 681.899 1160.18 682.279 1159.07 682.279ZM1193.43 698.163C1191.75 697.352 1190.23 696.795 1188.87 696.491C1187.5 696.187 1186.13 696.035 1184.76 696.035C1182.33 696.035 1180.53 696.491 1179.37 697.403C1178.2 698.264 1177.62 699.43 1177.62 700.899C1177.62 701.963 1178.02 702.9 1178.83 703.711C1179.65 704.471 1181.34 705.231 1183.93 705.991L1186.21 706.675C1189.6 707.688 1192.16 709.006 1193.88 710.627C1195.66 712.198 1196.54 714.351 1196.54 717.087C1196.54 720.33 1195.33 722.939 1192.89 724.915C1190.51 726.891 1187.17 727.879 1182.86 727.879C1180.58 727.879 1178.38 727.676 1176.25 727.271C1174.17 726.866 1172.37 726.308 1170.85 725.599L1172.45 720.355C1173.92 721.064 1175.52 721.647 1177.24 722.103C1178.96 722.508 1180.71 722.711 1182.48 722.711C1184.76 722.711 1186.56 722.306 1187.88 721.495C1189.25 720.684 1189.93 719.342 1189.93 717.467C1189.93 715.846 1189.35 714.706 1188.18 714.047C1187.02 713.338 1185.35 712.654 1183.17 711.995L1180.81 711.235C1177.52 710.171 1175.06 708.854 1173.44 707.283C1171.87 705.662 1171.08 703.584 1171.08 701.051C1171.08 699.531 1171.41 698.138 1172.07 696.871C1172.73 695.604 1173.62 694.54 1174.73 693.679C1175.9 692.818 1177.26 692.159 1178.83 691.703C1180.41 691.196 1182.13 690.943 1184 690.943C1185.78 690.943 1187.6 691.12 1189.47 691.475C1191.4 691.779 1193.22 692.311 1194.95 693.071L1193.43 698.163ZM1219.13 727.879C1217.51 727.879 1215.94 727.651 1214.42 727.195C1212.95 726.739 1211.68 726.131 1210.62 725.371V744.675H1204.01V690.943H1209.56L1210.54 695.579C1211.91 694.312 1213.46 693.223 1215.18 692.311C1216.9 691.399 1218.93 690.943 1221.26 690.943C1226.02 690.943 1229.77 692.463 1232.51 695.503C1235.24 698.543 1236.61 702.9 1236.61 708.575C1236.61 711.919 1236.1 714.807 1235.09 717.239C1234.13 719.671 1232.81 721.672 1231.14 723.243C1229.52 724.814 1227.64 725.979 1225.52 726.739C1223.44 727.499 1221.31 727.879 1219.13 727.879ZM1219.82 696.415C1217.69 696.415 1215.84 696.947 1214.27 698.011C1212.7 699.024 1211.48 700.063 1210.62 701.127V720.203C1211.78 721.064 1213.03 721.698 1214.34 722.103C1215.66 722.508 1216.98 722.711 1218.3 722.711C1219.66 722.711 1221.03 722.483 1222.4 722.027C1223.77 721.52 1224.98 720.71 1226.05 719.595C1227.11 718.48 1227.97 717.036 1228.63 715.263C1229.29 713.49 1229.62 711.311 1229.62 708.727C1229.62 704.927 1228.81 701.938 1227.19 699.759C1225.62 697.53 1223.16 696.415 1219.82 696.415ZM1258.65 713.059C1258.65 711.184 1258.95 709.487 1259.56 707.967C1260.22 706.447 1261.08 705.079 1262.14 703.863C1263.21 702.647 1264.45 701.583 1265.87 700.671C1267.28 699.759 1268.8 698.974 1270.43 698.315C1269.11 696.846 1267.94 695.174 1266.93 693.299C1265.97 691.374 1265.49 689.271 1265.49 686.991C1265.49 685.319 1265.82 683.824 1266.47 682.507C1267.13 681.19 1268.02 680.075 1269.13 679.163C1270.3 678.2 1271.64 677.491 1273.16 677.035C1274.73 676.528 1276.38 676.275 1278.1 676.275C1279.82 676.275 1281.42 676.528 1282.89 677.035C1284.41 677.542 1285.7 678.276 1286.77 679.239C1287.88 680.151 1288.74 681.266 1289.35 682.583C1289.96 683.9 1290.26 685.344 1290.26 686.915C1290.26 689.6 1289.58 691.83 1288.21 693.603C1286.84 695.376 1285.04 696.82 1282.81 697.935L1279.7 694.211C1281.02 693.502 1282.05 692.564 1282.81 691.399C1283.62 690.234 1284.03 688.866 1284.03 687.295C1284.03 685.522 1283.45 684.078 1282.28 682.963C1281.17 681.848 1279.72 681.291 1277.95 681.291C1276.02 681.291 1274.53 681.823 1273.47 682.887C1272.4 683.951 1271.87 685.344 1271.87 687.067C1271.87 689.347 1272.5 691.45 1273.77 693.375C1275.04 695.25 1276.86 697.378 1279.24 699.759L1292.01 712.679C1292.87 711.362 1293.68 709.842 1294.44 708.119C1295.2 706.346 1295.86 704.648 1296.42 703.027L1301.89 705.231C1301.08 707.511 1300.17 709.639 1299.15 711.615C1298.14 713.591 1297.13 715.339 1296.11 716.859L1306.37 727.195H1298.17L1292.39 721.267C1291.68 722.078 1290.79 722.888 1289.73 723.699C1288.72 724.459 1287.53 725.143 1286.16 725.751C1284.79 726.359 1283.24 726.84 1281.52 727.195C1279.85 727.6 1278 727.803 1275.97 727.803C1273.34 727.803 1270.96 727.448 1268.83 726.739C1266.7 725.979 1264.88 724.94 1263.36 723.623C1261.84 722.306 1260.67 720.76 1259.86 718.987C1259.05 717.163 1258.65 715.187 1258.65 713.059ZM1265.18 712.907C1265.18 716.099 1266.22 718.531 1268.3 720.203C1270.43 721.824 1273.24 722.635 1276.73 722.635C1277.8 722.635 1278.89 722.508 1280 722.255C1281.17 722.002 1282.28 721.647 1283.35 721.191C1284.41 720.684 1285.37 720.102 1286.23 719.443C1287.15 718.784 1287.91 718.05 1288.51 717.239L1273.62 702.115C1272.5 702.672 1271.44 703.306 1270.43 704.015C1269.41 704.724 1268.5 705.535 1267.69 706.447C1266.93 707.308 1266.32 708.296 1265.87 709.411C1265.41 710.475 1265.18 711.64 1265.18 712.907ZM1335.09 727.195H1328.41V691.475H1333.57L1334.56 696.415C1336.23 694.743 1338.03 693.426 1339.96 692.463C1341.88 691.45 1344.19 690.943 1346.87 690.943C1349.41 690.943 1351.48 691.475 1353.11 692.539C1354.73 693.552 1355.94 694.971 1356.75 696.795C1358.53 694.92 1360.48 693.476 1362.61 692.463C1364.73 691.45 1367.09 690.943 1369.67 690.943C1373.32 690.943 1376.06 691.982 1377.88 694.059C1379.76 696.086 1380.69 698.923 1380.69 702.571V727.195H1374.01V703.787C1374.01 701.406 1373.5 699.582 1372.49 698.315C1371.47 697.048 1369.8 696.415 1367.47 696.415C1364.02 696.415 1360.81 697.96 1357.82 701.051C1357.87 701.304 1357.89 701.558 1357.89 701.811C1357.89 702.064 1357.89 702.318 1357.89 702.571V727.195H1351.21V703.787C1351.21 701.406 1350.7 699.582 1349.69 698.315C1348.67 697.048 1347 696.415 1344.67 696.415C1341.22 696.415 1338.03 698.036 1335.09 701.279V727.195ZM1421.45 710.095H1395.83V710.399C1395.83 714.351 1396.9 717.391 1399.03 719.519C1401.2 721.647 1404.14 722.711 1407.84 722.711C1409.77 722.711 1411.46 722.559 1412.93 722.255C1414.45 721.951 1416.1 721.444 1417.87 720.735L1419.24 725.675C1417.77 726.334 1416.02 726.866 1414 727.271C1412.02 727.676 1409.89 727.879 1407.61 727.879C1405.03 727.879 1402.6 727.524 1400.32 726.815C1398.09 726.106 1396.11 725.016 1394.39 723.547C1392.67 722.027 1391.3 720.102 1390.29 717.771C1389.32 715.44 1388.84 712.654 1388.84 709.411C1388.84 706.624 1389.25 704.091 1390.06 701.811C1390.92 699.531 1392.11 697.606 1393.63 696.035C1395.15 694.414 1396.97 693.172 1399.1 692.311C1401.28 691.399 1403.71 690.943 1406.4 690.943C1408.68 690.943 1410.73 691.323 1412.55 692.083C1414.43 692.843 1416.02 693.907 1417.34 695.275C1418.66 696.643 1419.67 698.29 1420.38 700.215C1421.09 702.14 1421.45 704.268 1421.45 706.599V710.095ZM1414.53 705.307C1414.53 703.99 1414.35 702.774 1414 701.659C1413.69 700.494 1413.19 699.48 1412.48 698.619C1411.82 697.758 1410.96 697.074 1409.89 696.567C1408.83 696.06 1407.54 695.807 1406.02 695.807C1403.23 695.807 1400.95 696.694 1399.18 698.467C1397.46 700.24 1396.39 702.571 1395.99 705.459L1414.53 705.307ZM1429.72 694.667C1430.94 694.059 1432.08 693.527 1433.14 693.071C1434.21 692.564 1435.27 692.159 1436.33 691.855C1437.4 691.551 1438.49 691.323 1439.6 691.171C1440.72 691.019 1441.93 690.943 1443.25 690.943C1445.23 690.943 1447.03 691.171 1448.65 691.627C1450.32 692.032 1451.74 692.742 1452.9 693.755C1454.12 694.768 1455.06 696.111 1455.71 697.783C1456.37 699.404 1456.7 701.456 1456.7 703.939V727.195H1451.15L1450.32 723.243H1450.17C1448.6 724.915 1446.87 726.106 1445 726.815C1443.12 727.524 1441.05 727.879 1438.77 727.879C1437.04 727.879 1435.45 727.651 1433.98 727.195C1432.56 726.688 1431.32 726.004 1430.25 725.143C1429.19 724.231 1428.35 723.142 1427.75 721.875C1427.19 720.608 1426.91 719.19 1426.91 717.619C1426.91 713.87 1428.38 711.032 1431.32 709.107C1434.31 707.131 1438.23 706.143 1443.1 706.143H1449.94V703.103C1449.94 700.519 1449.28 698.771 1447.96 697.859C1446.65 696.896 1444.87 696.415 1442.64 696.415C1441.33 696.415 1439.81 696.643 1438.08 697.099C1436.41 697.504 1434.49 698.315 1432.31 699.531L1429.72 694.667ZM1450.01 710.703L1444.39 710.855C1440.59 710.956 1437.88 711.64 1436.26 712.907C1434.69 714.123 1433.9 715.618 1433.9 717.391C1433.9 718.455 1434.08 719.367 1434.43 720.127C1434.79 720.836 1435.25 721.394 1435.8 721.799C1436.41 722.204 1437.09 722.508 1437.85 722.711C1438.67 722.863 1439.5 722.939 1440.36 722.939C1442.03 722.939 1443.73 722.559 1445.45 721.799C1447.18 720.988 1448.7 719.722 1450.01 717.999V710.703ZM1473.21 727.195H1466.53V691.475H1471.77L1472.76 696.415C1474.53 694.642 1476.38 693.299 1478.31 692.387C1480.28 691.424 1482.54 690.943 1485.07 690.943C1488.72 690.943 1491.58 691.982 1493.66 694.059C1495.74 696.086 1496.77 698.923 1496.77 702.571V727.195H1490.09V703.559C1490.09 701.38 1489.5 699.658 1488.34 698.391C1487.22 697.074 1485.5 696.415 1483.17 696.415C1479.62 696.415 1476.31 698.011 1473.21 701.203V727.195ZM1508.19 727.195V691.475H1514.88V727.195H1508.19ZM1511.53 682.279C1510.37 682.279 1509.35 681.899 1508.49 681.139C1507.68 680.328 1507.28 679.34 1507.28 678.175C1507.28 677.01 1507.68 676.022 1508.49 675.211C1509.35 674.4 1510.37 673.995 1511.53 673.995C1512.65 673.995 1513.63 674.4 1514.5 675.211C1515.36 676.022 1515.79 677.01 1515.79 678.175C1515.79 679.34 1515.36 680.328 1514.5 681.139C1513.63 681.899 1512.65 682.279 1511.53 682.279ZM1532.52 727.195H1525.83V691.475H1531.07L1532.06 696.415C1533.83 694.642 1535.68 693.299 1537.61 692.387C1539.58 691.424 1541.84 690.943 1544.37 690.943C1548.02 690.943 1550.88 691.982 1552.96 694.059C1555.04 696.086 1556.08 698.923 1556.08 702.571V727.195H1549.39V703.559C1549.39 701.38 1548.8 699.658 1547.64 698.391C1546.52 697.074 1544.8 696.415 1542.47 696.415C1538.92 696.415 1535.61 698.011 1532.52 701.203V727.195ZM1565.52 703.331C1565.52 701.355 1565.88 699.607 1566.59 698.087C1567.3 696.516 1568.28 695.199 1569.55 694.135C1570.87 693.071 1572.41 692.286 1574.19 691.779C1575.96 691.222 1577.88 690.943 1579.96 690.943C1580.72 690.943 1581.46 690.994 1582.17 691.095C1582.88 691.196 1583.58 691.323 1584.29 691.475H1599.72V696.415H1597.37L1591.29 695.579C1592.25 696.592 1592.98 697.758 1593.49 699.075C1594.05 700.392 1594.33 701.786 1594.33 703.255C1594.33 705.231 1593.97 707.004 1593.26 708.575C1592.55 710.095 1591.56 711.387 1590.3 712.451C1589.03 713.515 1587.51 714.326 1585.74 714.883C1583.96 715.39 1582.04 715.643 1579.96 715.643C1578.39 715.643 1577.02 715.542 1575.86 715.339C1574.69 715.744 1573.88 716.276 1573.43 716.935C1572.97 717.543 1572.74 718.202 1572.74 718.911C1572.74 720.076 1573.12 720.862 1573.88 721.267C1574.69 721.672 1575.76 721.875 1577.07 721.875H1586.5C1590.45 721.875 1593.46 722.787 1595.54 724.611C1597.67 726.384 1598.73 728.816 1598.73 731.907C1598.73 733.883 1598.3 735.656 1597.44 737.227C1596.58 738.798 1595.34 740.14 1593.72 741.255C1592.15 742.37 1590.22 743.206 1587.94 743.763C1585.66 744.371 1583.1 744.675 1580.27 744.675C1575.1 744.675 1570.97 743.738 1567.88 741.863C1564.84 740.039 1563.32 737.328 1563.32 733.731C1563.32 731.856 1563.9 730.286 1565.07 729.019C1566.28 727.752 1567.85 726.79 1569.78 726.131C1568.76 725.422 1568 724.687 1567.5 723.927C1566.99 723.116 1566.74 722.052 1566.74 720.735C1566.74 719.164 1567.19 717.822 1568.11 716.707C1569.07 715.592 1570.36 714.706 1571.98 714.047C1569.96 713.135 1568.36 711.818 1567.19 710.095C1566.08 708.322 1565.52 706.067 1565.52 703.331ZM1573.65 727.195C1571.07 728.36 1569.78 730.184 1569.78 732.667C1569.78 737.126 1573.38 739.355 1580.57 739.355C1582.7 739.355 1584.5 739.152 1585.97 738.747C1587.44 738.342 1588.63 737.81 1589.54 737.151C1590.45 736.492 1591.11 735.758 1591.51 734.947C1591.97 734.136 1592.2 733.3 1592.2 732.439C1592.2 730.311 1591.46 728.892 1589.99 728.183C1588.58 727.524 1586.78 727.195 1584.6 727.195H1573.65ZM1587.56 703.483C1587.56 700.798 1586.85 698.822 1585.43 697.555C1584.07 696.288 1582.24 695.655 1579.96 695.655C1577.68 695.655 1575.83 696.288 1574.41 697.555C1573.05 698.822 1572.36 700.696 1572.36 703.179C1572.36 705.814 1573.05 707.764 1574.41 709.031C1575.83 710.247 1577.68 710.855 1579.96 710.855C1582.24 710.855 1584.07 710.247 1585.43 709.031C1586.85 707.815 1587.56 705.966 1587.56 703.483ZM1621.37 672.855C1622.78 672.855 1624.25 673.058 1625.77 673.463C1627.34 673.868 1628.74 674.375 1629.95 674.983L1628.59 679.619C1627.57 679.214 1626.61 678.91 1625.7 678.707C1624.79 678.454 1623.82 678.327 1622.81 678.327C1620.38 678.327 1618.63 679.011 1617.57 680.379C1616.55 681.747 1616.05 684.078 1616.05 687.371V691.475H1626.91V696.491H1616.05V727.195H1609.43V696.491H1604.19V691.475H1609.43V685.167C1609.43 681.215 1610.45 678.175 1612.47 676.047C1614.55 673.919 1617.51 672.855 1621.37 672.855ZM1657.09 691.475H1663.78V727.195H1658.53L1657.62 722.711H1657.32C1656 724.18 1654.35 725.422 1652.38 726.435C1650.45 727.398 1648.2 727.879 1645.61 727.879C1641.91 727.879 1638.9 726.84 1636.57 724.763C1634.29 722.635 1633.15 719.443 1633.15 715.187V691.475H1639.84V714.351C1639.84 715.871 1640.01 717.163 1640.37 718.227C1640.77 719.291 1641.28 720.152 1641.89 720.811C1642.55 721.419 1643.31 721.875 1644.17 722.179C1645.03 722.432 1645.97 722.559 1646.98 722.559C1649.01 722.559 1650.83 722.128 1652.45 721.267C1654.07 720.406 1655.62 719.215 1657.09 717.695V691.475ZM1674.42 727.195V673.235H1680.96V727.195H1674.42ZM922.974 804.955C922.974 807.944 922.518 810.63 921.606 813.011C920.694 815.342 919.427 817.318 917.806 818.939C916.235 820.56 914.386 821.802 912.258 822.663C910.13 823.474 907.824 823.879 905.342 823.879C902.859 823.879 900.554 823.499 898.426 822.739C896.348 821.928 894.524 820.763 892.954 819.243C891.434 817.672 890.218 815.772 889.306 813.543C888.444 811.263 888.014 808.654 888.014 805.715C888.014 802.726 888.47 800.066 889.382 797.735C890.294 795.404 891.535 793.454 893.106 791.883C894.727 790.262 896.602 789.046 898.73 788.235C900.858 787.374 903.163 786.943 905.646 786.943C908.128 786.943 910.408 787.323 912.486 788.083C914.614 788.843 916.438 789.983 917.958 791.503C919.528 793.023 920.744 794.923 921.606 797.203C922.518 799.432 922.974 802.016 922.974 804.955ZM915.982 805.335C915.982 802.954 915.678 800.927 915.07 799.255C914.462 797.583 913.651 796.215 912.638 795.151C911.675 794.087 910.56 793.327 909.294 792.871C908.027 792.364 906.735 792.111 905.418 792.111C904.1 792.111 902.808 792.314 901.542 792.719C900.275 793.124 899.16 793.834 898.198 794.847C897.235 795.86 896.45 797.228 895.842 798.951C895.284 800.623 895.006 802.751 895.006 805.335C895.006 807.716 895.31 809.768 895.918 811.491C896.526 813.163 897.311 814.531 898.274 815.595C899.287 816.659 900.427 817.444 901.694 817.951C902.96 818.458 904.252 818.711 905.57 818.711C906.887 818.711 908.179 818.508 909.446 818.103C910.712 817.647 911.827 816.912 912.79 815.899C913.752 814.835 914.512 813.467 915.07 811.795C915.678 810.072 915.982 807.919 915.982 805.335ZM937.8 823.195H931.112V787.475H936.356L937.344 792.415C939.118 790.642 940.967 789.299 942.892 788.387C944.868 787.424 947.123 786.943 949.656 786.943C953.304 786.943 956.167 787.982 958.244 790.059C960.322 792.086 961.36 794.923 961.36 798.571V823.195H954.672V799.559C954.672 797.38 954.09 795.658 952.924 794.391C951.81 793.074 950.087 792.415 947.756 792.415C944.21 792.415 940.891 794.011 937.8 797.203V823.195ZM972.014 823.195V769.235H978.55V823.195H972.014ZM990.29 823.195V787.475H996.978V823.195H990.29ZM993.634 778.279C992.468 778.279 991.455 777.899 990.594 777.139C989.783 776.328 989.378 775.34 989.378 774.175C989.378 773.01 989.783 772.022 990.594 771.211C991.455 770.4 992.468 769.995 993.634 769.995C994.748 769.995 995.736 770.4 996.598 771.211C997.459 772.022 997.89 773.01 997.89 774.175C997.89 775.34 997.459 776.328 996.598 777.139C995.736 777.899 994.748 778.279 993.634 778.279ZM1014.62 823.195H1007.93V787.475H1013.17L1014.16 792.415C1015.93 790.642 1017.78 789.299 1019.71 788.387C1021.68 787.424 1023.94 786.943 1026.47 786.943C1030.12 786.943 1032.98 787.982 1035.06 790.059C1037.14 792.086 1038.18 794.923 1038.18 798.571V823.195H1031.49V799.559C1031.49 797.38 1030.91 795.658 1029.74 794.391C1028.63 793.074 1026.9 792.415 1024.57 792.415C1021.03 792.415 1017.71 794.011 1014.62 797.203V823.195ZM1078.93 806.095H1053.31V806.399C1053.31 810.351 1054.38 813.391 1056.51 815.519C1058.69 817.647 1061.62 818.711 1065.32 818.711C1067.25 818.711 1068.95 818.559 1070.41 818.255C1071.93 817.951 1073.58 817.444 1075.35 816.735L1076.72 821.675C1075.25 822.334 1073.51 822.866 1071.48 823.271C1069.5 823.676 1067.37 823.879 1065.09 823.879C1062.51 823.879 1060.08 823.524 1057.8 822.815C1055.57 822.106 1053.59 821.016 1051.87 819.547C1050.15 818.027 1048.78 816.102 1047.77 813.771C1046.8 811.44 1046.32 808.654 1046.32 805.411C1046.32 802.624 1046.73 800.091 1047.54 797.811C1048.4 795.531 1049.59 793.606 1051.11 792.035C1052.63 790.414 1054.45 789.172 1056.58 788.311C1058.76 787.399 1061.19 786.943 1063.88 786.943C1066.16 786.943 1068.21 787.323 1070.03 788.083C1071.91 788.843 1073.51 789.907 1074.82 791.275C1076.14 792.643 1077.15 794.29 1077.86 796.215C1078.57 798.14 1078.93 800.268 1078.93 802.599V806.095ZM1072.01 801.307C1072.01 799.99 1071.83 798.774 1071.48 797.659C1071.17 796.494 1070.67 795.48 1069.96 794.619C1069.3 793.758 1068.44 793.074 1067.37 792.567C1066.31 792.06 1065.02 791.807 1063.5 791.807C1060.71 791.807 1058.43 792.694 1056.66 794.467C1054.94 796.24 1053.87 798.571 1053.47 801.459L1072.01 801.307ZM1134.07 806.095H1108.46V806.399C1108.46 810.351 1109.52 813.391 1111.65 815.519C1113.83 817.647 1116.77 818.711 1120.47 818.711C1122.39 818.711 1124.09 818.559 1125.56 818.255C1127.08 817.951 1128.73 817.444 1130.5 816.735L1131.87 821.675C1130.4 822.334 1128.65 822.866 1126.62 823.271C1124.65 823.676 1122.52 823.879 1120.24 823.879C1117.65 823.879 1115.22 823.524 1112.94 822.815C1110.71 822.106 1108.74 821.016 1107.01 819.547C1105.29 818.027 1103.92 816.102 1102.91 813.771C1101.95 811.44 1101.47 808.654 1101.47 805.411C1101.47 802.624 1101.87 800.091 1102.68 797.811C1103.54 795.531 1104.73 793.606 1106.25 792.035C1107.77 790.414 1109.6 789.172 1111.73 788.311C1113.91 787.399 1116.34 786.943 1119.02 786.943C1121.3 786.943 1123.35 787.323 1125.18 788.083C1127.05 788.843 1128.65 789.907 1129.97 791.275C1131.28 792.643 1132.3 794.29 1133.01 796.215C1133.72 798.14 1134.07 800.268 1134.07 802.599V806.095ZM1127.15 801.307C1127.15 799.99 1126.98 798.774 1126.62 797.659C1126.32 796.494 1125.81 795.48 1125.1 794.619C1124.44 793.758 1123.58 793.074 1122.52 792.567C1121.45 792.06 1120.16 791.807 1118.64 791.807C1115.86 791.807 1113.58 792.694 1111.8 794.467C1110.08 796.24 1109.02 798.571 1108.61 801.459L1127.15 801.307ZM1156.88 805.107L1169.42 823.195H1161.82L1155.67 814.227L1152.85 809.591L1150.27 814.151L1144.34 823.195H1136.89L1149.28 805.107L1137.5 787.475H1145.03L1150.65 796.215L1153.39 800.775L1156.05 796.215L1161.29 787.475H1168.59L1156.88 805.107ZM1190.11 823.879C1188.49 823.879 1186.92 823.651 1185.4 823.195C1183.93 822.739 1182.66 822.131 1181.6 821.371V840.675H1174.99V786.943H1180.54L1181.52 791.579C1182.89 790.312 1184.44 789.223 1186.16 788.311C1187.88 787.399 1189.91 786.943 1192.24 786.943C1197 786.943 1200.75 788.463 1203.49 791.503C1206.22 794.543 1207.59 798.9 1207.59 804.575C1207.59 807.919 1207.09 810.807 1206.07 813.239C1205.11 815.671 1203.79 817.672 1202.12 819.243C1200.5 820.814 1198.62 821.979 1196.5 822.739C1194.42 823.499 1192.29 823.879 1190.11 823.879ZM1190.8 792.415C1188.67 792.415 1186.82 792.947 1185.25 794.011C1183.68 795.024 1182.46 796.063 1181.6 797.127V816.203C1182.77 817.064 1184.01 817.698 1185.32 818.103C1186.64 818.508 1187.96 818.711 1189.28 818.711C1190.64 818.711 1192.01 818.483 1193.38 818.027C1194.75 817.52 1195.96 816.71 1197.03 815.595C1198.09 814.48 1198.95 813.036 1199.61 811.263C1200.27 809.49 1200.6 807.311 1200.6 804.727C1200.6 800.927 1199.79 797.938 1198.17 795.759C1196.6 793.53 1194.14 792.415 1190.8 792.415ZM1246.07 806.095H1220.46V806.399C1220.46 810.351 1221.52 813.391 1223.65 815.519C1225.83 817.647 1228.76 818.711 1232.46 818.711C1234.39 818.711 1236.09 818.559 1237.56 818.255C1239.08 817.951 1240.72 817.444 1242.5 816.735L1243.86 821.675C1242.39 822.334 1240.65 822.866 1238.62 823.271C1236.64 823.676 1234.52 823.879 1232.24 823.879C1229.65 823.879 1227.22 823.524 1224.94 822.815C1222.71 822.106 1220.73 821.016 1219.01 819.547C1217.29 818.027 1215.92 816.102 1214.91 813.771C1213.94 811.44 1213.46 808.654 1213.46 805.411C1213.46 802.624 1213.87 800.091 1214.68 797.811C1215.54 795.531 1216.73 793.606 1218.25 792.035C1219.77 790.414 1221.6 789.172 1223.72 788.311C1225.9 787.399 1228.33 786.943 1231.02 786.943C1233.3 786.943 1235.35 787.323 1237.18 788.083C1239.05 788.843 1240.65 789.907 1241.96 791.275C1243.28 792.643 1244.29 794.29 1245 796.215C1245.71 798.14 1246.07 800.268 1246.07 802.599V806.095ZM1239.15 801.307C1239.15 799.99 1238.97 798.774 1238.62 797.659C1238.32 796.494 1237.81 795.48 1237.1 794.619C1236.44 793.758 1235.58 793.074 1234.52 792.567C1233.45 792.06 1232.16 791.807 1230.64 791.807C1227.85 791.807 1225.57 792.694 1223.8 794.467C1222.08 796.24 1221.01 798.571 1220.61 801.459L1239.15 801.307ZM1253.81 823.195V787.475H1258.83L1259.97 794.619C1260.83 792.339 1262.25 790.49 1264.22 789.071C1266.2 787.652 1268.48 786.943 1271.06 786.943C1272.38 786.943 1273.47 787.044 1274.33 787.247C1275.19 787.45 1275.98 787.703 1276.69 788.007L1275.4 793.859C1274.79 793.555 1274.1 793.302 1273.34 793.099C1272.63 792.896 1271.77 792.795 1270.76 792.795C1269.29 792.795 1267.92 793.048 1266.66 793.555C1265.44 794.062 1264.35 794.822 1263.39 795.835C1262.48 796.848 1261.74 798.115 1261.18 799.635C1260.68 801.104 1260.42 802.802 1260.42 804.727V823.195H1253.81ZM1282.93 823.195V787.475H1289.62V823.195H1282.93ZM1286.28 778.279C1285.11 778.279 1284.1 777.899 1283.24 777.139C1282.43 776.328 1282.02 775.34 1282.02 774.175C1282.02 773.01 1282.43 772.022 1283.24 771.211C1284.1 770.4 1285.11 769.995 1286.28 769.995C1287.39 769.995 1288.38 770.4 1289.24 771.211C1290.1 772.022 1290.53 773.01 1290.53 774.175C1290.53 775.34 1290.1 776.328 1289.24 777.139C1288.38 777.899 1287.39 778.279 1286.28 778.279ZM1330.97 806.095H1305.36V806.399C1305.36 810.351 1306.43 813.391 1308.55 815.519C1310.73 817.647 1313.67 818.711 1317.37 818.711C1319.29 818.711 1320.99 818.559 1322.46 818.255C1323.98 817.951 1325.63 817.444 1327.4 816.735L1328.77 821.675C1327.3 822.334 1325.55 822.866 1323.53 823.271C1321.55 823.676 1319.42 823.879 1317.14 823.879C1314.56 823.879 1312.13 823.524 1309.85 822.815C1307.62 822.106 1305.64 821.016 1303.92 819.547C1302.19 818.027 1300.83 816.102 1299.81 813.771C1298.85 811.44 1298.37 808.654 1298.37 805.411C1298.37 802.624 1298.77 800.091 1299.59 797.811C1300.45 795.531 1301.64 793.606 1303.16 792.035C1304.68 790.414 1306.5 789.172 1308.63 788.311C1310.81 787.399 1313.24 786.943 1315.93 786.943C1318.21 786.943 1320.26 787.323 1322.08 788.083C1323.96 788.843 1325.55 789.907 1326.87 791.275C1328.19 792.643 1329.2 794.29 1329.91 796.215C1330.62 798.14 1330.97 800.268 1330.97 802.599V806.095ZM1324.06 801.307C1324.06 799.99 1323.88 798.774 1323.53 797.659C1323.22 796.494 1322.71 795.48 1322.01 794.619C1321.35 793.758 1320.49 793.074 1319.42 792.567C1318.36 792.06 1317.07 791.807 1315.55 791.807C1312.76 791.807 1310.48 792.694 1308.71 794.467C1306.98 796.24 1305.92 798.571 1305.51 801.459L1324.06 801.307ZM1345.56 823.195H1338.87V787.475H1344.11L1345.1 792.415C1346.88 790.642 1348.72 789.299 1350.65 788.387C1352.63 787.424 1354.88 786.943 1357.41 786.943C1361.06 786.943 1363.92 787.982 1366 790.059C1368.08 792.086 1369.12 794.923 1369.12 798.571V823.195H1362.43V799.559C1362.43 797.38 1361.85 795.658 1360.68 794.391C1359.57 793.074 1357.84 792.415 1355.51 792.415C1351.97 792.415 1348.65 794.011 1345.56 797.203V823.195ZM1396.42 818.711C1398.04 818.711 1399.46 818.534 1400.67 818.179C1401.89 817.824 1403.08 817.368 1404.24 816.811L1405.69 821.827C1402.95 823.195 1399.68 823.879 1395.88 823.879C1393.3 823.879 1390.87 823.499 1388.59 822.739C1386.36 821.979 1384.38 820.839 1382.66 819.319C1380.99 817.748 1379.67 815.823 1378.71 813.543C1377.75 811.212 1377.26 808.502 1377.26 805.411C1377.26 802.574 1377.72 800.015 1378.63 797.735C1379.54 795.455 1380.81 793.53 1382.43 791.959C1384.05 790.338 1386 789.096 1388.28 788.235C1390.56 787.374 1393.07 786.943 1395.81 786.943C1397.38 786.943 1398.9 787.07 1400.37 787.323C1401.89 787.526 1403.61 788.058 1405.54 788.919L1404.02 794.011C1401.69 792.694 1399.18 792.035 1396.49 792.035C1392.79 792.035 1389.8 793.2 1387.52 795.531C1385.24 797.811 1384.1 801.028 1384.1 805.183C1384.1 807.767 1384.46 809.92 1385.17 811.643C1385.88 813.366 1386.81 814.759 1387.98 815.823C1389.15 816.836 1390.46 817.571 1391.93 818.027C1393.4 818.483 1394.9 818.711 1396.42 818.711ZM1441.48 806.095H1415.87V806.399C1415.87 810.351 1416.94 813.391 1419.06 815.519C1421.24 817.647 1424.18 818.711 1427.88 818.711C1429.81 818.711 1431.5 818.559 1432.97 818.255C1434.49 817.951 1436.14 817.444 1437.91 816.735L1439.28 821.675C1437.81 822.334 1436.06 822.866 1434.04 823.271C1432.06 823.676 1429.93 823.879 1427.65 823.879C1425.07 823.879 1422.64 823.524 1420.36 822.815C1418.13 822.106 1416.15 821.016 1414.43 819.547C1412.71 818.027 1411.34 816.102 1410.32 813.771C1409.36 811.44 1408.88 808.654 1408.88 805.411C1408.88 802.624 1409.29 800.091 1410.1 797.811C1410.96 795.531 1412.15 793.606 1413.67 792.035C1415.19 790.414 1417.01 789.172 1419.14 788.311C1421.32 787.399 1423.75 786.943 1426.44 786.943C1428.72 786.943 1430.77 787.323 1432.59 788.083C1434.47 788.843 1436.06 789.907 1437.38 791.275C1438.7 792.643 1439.71 794.29 1440.42 796.215C1441.13 798.14 1441.48 800.268 1441.48 802.599V806.095ZM1434.57 801.307C1434.57 799.99 1434.39 798.774 1434.04 797.659C1433.73 796.494 1433.23 795.48 1432.52 794.619C1431.86 793.758 1431 793.074 1429.93 792.567C1428.87 792.06 1427.58 791.807 1426.06 791.807C1423.27 791.807 1420.99 792.694 1419.22 794.467C1417.49 796.24 1416.43 798.571 1416.02 801.459L1434.57 801.307ZM1469.45 794.163C1467.77 793.352 1466.25 792.795 1464.89 792.491C1463.52 792.187 1462.15 792.035 1460.78 792.035C1458.35 792.035 1456.55 792.491 1455.39 793.403C1454.22 794.264 1453.64 795.43 1453.64 796.899C1453.64 797.963 1454.04 798.9 1454.85 799.711C1455.66 800.471 1457.36 801.231 1459.95 801.991L1462.23 802.675C1465.62 803.688 1468.18 805.006 1469.9 806.627C1471.68 808.198 1472.56 810.351 1472.56 813.087C1472.56 816.33 1471.35 818.939 1468.91 820.915C1466.53 822.891 1463.19 823.879 1458.88 823.879C1456.6 823.879 1454.4 823.676 1452.27 823.271C1450.19 822.866 1448.39 822.308 1446.87 821.599L1448.47 816.355C1449.94 817.064 1451.54 817.647 1453.26 818.103C1454.98 818.508 1456.73 818.711 1458.5 818.711C1460.78 818.711 1462.58 818.306 1463.9 817.495C1465.27 816.684 1465.95 815.342 1465.95 813.467C1465.95 811.846 1465.37 810.706 1464.2 810.047C1463.04 809.338 1461.36 808.654 1459.19 807.995L1456.83 807.235C1453.54 806.171 1451.08 804.854 1449.46 803.283C1447.89 801.662 1447.1 799.584 1447.1 797.051C1447.1 795.531 1447.43 794.138 1448.09 792.871C1448.75 791.604 1449.64 790.54 1450.75 789.679C1451.92 788.818 1453.28 788.159 1454.85 787.703C1456.42 787.196 1458.15 786.943 1460.02 786.943C1461.8 786.943 1463.62 787.12 1465.49 787.475C1467.42 787.779 1469.24 788.311 1470.97 789.071L1469.45 794.163ZM1479.27 819.091C1479.27 817.774 1479.72 816.659 1480.64 815.747C1481.55 814.835 1482.64 814.379 1483.9 814.379C1485.17 814.379 1486.23 814.835 1487.1 815.747C1488.01 816.659 1488.46 817.774 1488.46 819.091C1488.46 820.56 1488.01 821.726 1487.1 822.587C1486.23 823.448 1485.17 823.879 1483.9 823.879C1482.64 823.879 1481.55 823.448 1480.64 822.587C1479.72 821.726 1479.27 820.56 1479.27 819.091Z" fill="#FFE266"/>
<path d="M891.61 902.888V899.768H897.53V878.048H891.61V874.928H907.25V878.048H901.29V899.768H907.25V902.888H891.61ZM922.896 880.968V874.928H926.976V880.968L925.896 887.288H923.976L922.896 880.968ZM939.663 902.888V881.928H942.783V884.088C943.236 883.421 943.863 882.821 944.663 882.288C945.49 881.728 946.463 881.448 947.583 881.448C948.596 881.448 949.476 881.701 950.223 882.208C950.996 882.688 951.543 883.368 951.863 884.248C952.29 883.555 952.916 882.915 953.743 882.328C954.57 881.741 955.57 881.448 956.743 881.448C958.05 881.448 959.13 881.848 959.983 882.648C960.836 883.421 961.263 884.475 961.263 885.808V902.888H957.983V886.488C957.983 885.741 957.77 885.181 957.343 884.808C956.916 884.435 956.356 884.248 955.663 884.248C954.543 884.248 953.663 884.568 953.023 885.208C952.41 885.821 952.103 886.675 952.103 887.768V902.888H948.823V886.488C948.823 885.741 948.61 885.181 948.183 884.808C947.756 884.435 947.196 884.248 946.503 884.248C945.383 884.248 944.503 884.568 943.863 885.208C943.25 885.821 942.943 886.675 942.943 887.768V902.888H939.663ZM1011.92 900.688V903.208C1011.09 903.448 1010.42 903.568 1009.92 903.568C1007.68 903.568 1006.44 902.515 1006.2 900.408C1005.02 901.555 1003.88 902.381 1002.76 902.888C1001.64 903.368 1000.41 903.608 999.076 903.608C997.049 903.608 995.396 903.075 994.116 902.008C992.863 900.915 992.236 899.395 992.236 897.448C992.236 896.008 992.543 894.861 993.156 894.008C993.769 893.128 994.516 892.475 995.396 892.048C996.303 891.595 997.156 891.301 997.956 891.168C998.329 891.115 998.903 891.035 999.676 890.928C1000.45 890.795 1001.42 890.648 1002.6 890.488C1003.93 890.301 1004.85 890.048 1005.36 889.728C1005.89 889.408 1006.16 888.915 1006.16 888.248V887.528C1006.16 885.448 1004.56 884.408 1001.36 884.408C999.809 884.408 998.636 884.715 997.836 885.328C997.063 885.915 996.609 886.848 996.476 888.128H993.116C993.169 885.701 993.956 883.968 995.476 882.928C997.023 881.861 999.036 881.328 1001.52 881.328C1004.1 881.328 1006.06 881.821 1007.4 882.808C1008.73 883.768 1009.4 885.181 1009.4 887.048V899.128C1009.4 900.221 1010 900.768 1011.2 900.768C1011.41 900.768 1011.65 900.741 1011.92 900.688ZM1006.16 895.608V892.288C1005.46 892.608 1004.6 892.861 1003.56 893.048C1002.54 893.235 1001.6 893.381 1000.72 893.488C999.169 893.675 997.929 894.035 996.996 894.568C996.089 895.101 995.636 896.035 995.636 897.368C995.636 898.408 996.009 899.221 996.756 899.808C997.529 900.395 998.583 900.688 999.916 900.688C1000.9 900.688 1001.86 900.475 1002.8 900.048C1003.76 899.595 1004.56 898.981 1005.2 898.208C1005.84 897.435 1006.16 896.568 1006.16 895.608ZM1058.57 894.128V874.928H1062.29V894.648C1062.29 896.808 1061.84 898.541 1060.93 899.848C1060.05 901.155 1058.86 902.115 1057.37 902.728C1055.9 903.315 1054.29 903.608 1052.53 903.608C1050.72 903.608 1049.08 903.301 1047.61 902.688C1046.14 902.075 1044.98 901.115 1044.13 899.808C1043.28 898.475 1042.85 896.755 1042.85 894.648V874.928H1046.57V894.128C1046.57 895.755 1046.84 897.021 1047.37 897.928C1047.93 898.808 1048.66 899.435 1049.57 899.808C1050.48 900.155 1051.46 900.328 1052.53 900.328C1053.62 900.328 1054.62 900.141 1055.53 899.768C1056.44 899.395 1057.17 898.768 1057.73 897.888C1058.29 896.981 1058.57 895.728 1058.57 894.128ZM1085.1 902.888L1078.06 891.568L1071.02 902.888H1066.74L1076.1 888.568L1067.38 874.928H1071.74L1078.26 885.448L1084.74 874.928H1088.98L1080.22 888.448L1089.46 902.888H1085.1ZM1128.87 902.888H1119.83V874.928H1128.87C1131.24 874.928 1133.22 875.528 1134.79 876.728C1136.36 877.928 1137.54 879.581 1138.31 881.688C1139.11 883.768 1139.51 886.168 1139.51 888.888C1139.51 891.608 1139.11 894.021 1138.31 896.128C1137.54 898.235 1136.36 899.888 1134.79 901.088C1133.22 902.288 1131.24 902.888 1128.87 902.888ZM1123.55 878.208V899.608H1128.23C1130.84 899.608 1132.72 898.661 1133.87 896.768C1135.04 894.848 1135.63 892.235 1135.63 888.928C1135.63 885.595 1135.04 882.981 1133.87 881.088C1132.72 879.168 1130.84 878.208 1128.23 878.208H1123.55ZM1163.8 896.408C1163.45 898.595 1162.48 900.341 1160.88 901.648C1159.3 902.955 1157.29 903.608 1154.84 903.608C1152.73 903.608 1150.97 903.141 1149.56 902.208C1148.14 901.248 1147.08 899.941 1146.36 898.288C1145.66 896.635 1145.32 894.741 1145.32 892.608C1145.32 890.261 1145.72 888.248 1146.52 886.568C1147.32 884.888 1148.44 883.595 1149.88 882.688C1151.32 881.755 1153 881.288 1154.92 881.288C1157.08 881.288 1158.84 881.795 1160.2 882.808C1161.58 883.821 1162.6 885.235 1163.24 887.048C1163.9 888.861 1164.24 890.981 1164.24 893.408H1148.8C1148.85 895.461 1149.38 897.168 1150.4 898.528C1151.41 899.861 1152.93 900.528 1154.96 900.528C1157.7 900.528 1159.53 899.155 1160.44 896.408H1163.8ZM1154.88 884.368C1153.01 884.368 1151.58 884.981 1150.6 886.208C1149.61 887.435 1149.04 888.928 1148.88 890.688H1160.64C1160.64 889.515 1160.4 888.461 1159.92 887.528C1159.46 886.568 1158.81 885.808 1157.96 885.248C1157.1 884.661 1156.08 884.368 1154.88 884.368ZM1187.88 887.648H1184.4C1184.38 886.608 1183.98 885.781 1183.2 885.168C1182.46 884.555 1181.46 884.248 1180.2 884.248C1178.84 884.248 1177.74 884.528 1176.88 885.088C1176.06 885.648 1175.64 886.395 1175.64 887.328C1175.64 888.075 1175.9 888.675 1176.4 889.128C1176.91 889.581 1177.66 889.941 1178.64 890.208L1183.4 891.448C1185.16 891.901 1186.48 892.581 1187.36 893.488C1188.27 894.368 1188.72 895.555 1188.72 897.048C1188.72 899.075 1187.98 900.675 1186.48 901.848C1184.99 903.021 1182.94 903.608 1180.32 903.608C1174.83 903.608 1171.96 901.248 1171.72 896.528H1175.24C1175.4 897.941 1175.91 898.981 1176.76 899.648C1177.64 900.315 1178.86 900.648 1180.4 900.648C1181.9 900.648 1183.08 900.381 1183.96 899.848C1184.87 899.315 1185.32 898.555 1185.32 897.568C1185.32 896.661 1185.08 895.981 1184.6 895.528C1184.12 895.075 1183.31 894.701 1182.16 894.408L1177.76 893.248C1175.87 892.741 1174.47 892.061 1173.56 891.208C1172.68 890.328 1172.24 889.088 1172.24 887.488C1172.24 885.595 1172.96 884.088 1174.4 882.968C1175.87 881.848 1177.83 881.288 1180.28 881.288C1182.74 881.288 1184.6 881.861 1185.88 883.008C1187.19 884.128 1187.86 885.675 1187.88 887.648ZM1204.09 878.928V874.928H1208.09V878.928H1204.09ZM1207.73 881.928V900.168H1214.17V902.888H1197.25V900.168H1204.45V884.648H1197.25V881.928H1207.73ZM1230.74 911.608C1228.47 911.608 1226.55 911.101 1224.98 910.088C1223.4 909.101 1222.47 907.501 1222.18 905.288H1225.66C1226.14 907.635 1227.86 908.808 1230.82 908.808C1232.92 908.808 1234.43 908.221 1235.34 907.048C1236.27 905.901 1236.74 903.928 1236.74 901.128V899.928C1236.12 901.155 1235.27 902.075 1234.18 902.688C1233.11 903.301 1231.88 903.608 1230.5 903.608C1228.44 903.608 1226.74 903.115 1225.38 902.128C1224.02 901.141 1223 899.795 1222.34 898.088C1221.7 896.381 1221.38 894.461 1221.38 892.328C1221.38 890.275 1221.71 888.421 1222.38 886.768C1223.04 885.088 1224.04 883.755 1225.38 882.768C1226.74 881.781 1228.4 881.288 1230.38 881.288C1233.23 881.288 1235.38 882.368 1236.82 884.528V881.928H1240.14V899.488C1240.14 902.395 1239.9 904.608 1239.42 906.128C1238.83 907.941 1237.8 909.301 1236.34 910.208C1234.87 911.141 1233 911.608 1230.74 911.608ZM1230.98 900.488C1232.39 900.488 1233.52 900.101 1234.38 899.328C1235.23 898.528 1235.84 897.528 1236.22 896.328C1236.62 895.101 1236.82 893.848 1236.82 892.568C1236.82 891.155 1236.62 889.835 1236.22 888.608C1235.82 887.355 1235.19 886.341 1234.34 885.568C1233.48 884.795 1232.35 884.408 1230.94 884.408C1229.63 884.408 1228.52 884.768 1227.62 885.488C1226.71 886.181 1226.02 887.141 1225.54 888.368C1225.08 889.568 1224.86 890.928 1224.86 892.448C1224.86 893.861 1225.07 895.181 1225.5 896.408C1225.92 897.635 1226.58 898.621 1227.46 899.368C1228.36 900.115 1229.54 900.488 1230.98 900.488ZM1248.46 902.888V881.928H1251.54V885.408C1252.37 884.128 1253.32 883.128 1254.38 882.408C1255.48 881.688 1256.85 881.328 1258.5 881.328C1259.73 881.328 1260.84 881.541 1261.82 881.968C1262.84 882.368 1263.64 882.995 1264.22 883.848C1264.84 884.675 1265.14 885.741 1265.14 887.048V902.888H1261.82V888.368C1261.82 886.955 1261.4 885.915 1260.54 885.248C1259.69 884.581 1258.68 884.248 1257.5 884.248C1256.25 884.248 1255.2 884.568 1254.34 885.208C1253.49 885.848 1252.85 886.688 1252.42 887.728C1252 888.768 1251.78 889.888 1251.78 891.088V902.888H1248.46ZM1291.43 896.408C1291.08 898.595 1290.11 900.341 1288.51 901.648C1286.93 902.955 1284.92 903.608 1282.47 903.608C1280.36 903.608 1278.6 903.141 1277.19 902.208C1275.77 901.248 1274.71 899.941 1273.99 898.288C1273.29 896.635 1272.95 894.741 1272.95 892.608C1272.95 890.261 1273.35 888.248 1274.15 886.568C1274.95 884.888 1276.07 883.595 1277.51 882.688C1278.95 881.755 1280.63 881.288 1282.55 881.288C1284.71 881.288 1286.47 881.795 1287.83 882.808C1289.21 883.821 1290.23 885.235 1290.87 887.048C1291.53 888.861 1291.87 890.981 1291.87 893.408H1276.43C1276.48 895.461 1277.01 897.168 1278.03 898.528C1279.04 899.861 1280.56 900.528 1282.59 900.528C1285.33 900.528 1287.16 899.155 1288.07 896.408H1291.43ZM1282.51 884.368C1280.64 884.368 1279.21 884.981 1278.23 886.208C1277.24 887.435 1276.67 888.928 1276.51 890.688H1288.27C1288.27 889.515 1288.03 888.461 1287.55 887.528C1287.09 886.568 1286.44 885.808 1285.59 885.248C1284.73 884.661 1283.71 884.368 1282.51 884.368ZM1300.43 902.888V881.928H1303.51V886.448C1304.21 884.955 1305.21 883.728 1306.51 882.768C1307.82 881.808 1309.33 881.328 1311.03 881.328C1313.43 881.328 1315.26 881.941 1316.51 883.168C1317.79 884.395 1318.53 886.048 1318.71 888.128H1315.39C1315.15 886.875 1314.66 885.915 1313.91 885.248C1313.19 884.581 1312.13 884.248 1310.71 884.248C1309.33 884.248 1308.11 884.621 1307.07 885.368C1306.03 886.088 1305.22 887.088 1304.63 888.368C1304.07 889.621 1303.79 891.075 1303.79 892.728V902.888H1300.43ZM1367.01 902.888L1364.69 899.808C1363.62 900.928 1362.42 901.808 1361.09 902.448C1359.75 903.088 1358.37 903.408 1356.93 903.408C1354.37 903.408 1352.34 902.688 1350.85 901.248C1349.35 899.808 1348.61 897.835 1348.61 895.328C1348.61 892.075 1350.17 889.488 1353.29 887.568L1354.77 886.648L1354.73 886.568C1353.71 885.208 1352.95 884.101 1352.45 883.248C1351.94 882.395 1351.69 881.461 1351.69 880.448C1351.69 879.248 1351.99 878.195 1352.61 877.288C1353.25 876.381 1354.07 875.675 1355.09 875.168C1356.13 874.635 1357.23 874.368 1358.41 874.368C1360.25 874.368 1361.75 874.888 1362.93 875.928C1364.13 876.941 1364.73 878.381 1364.73 880.248C1364.73 881.421 1364.39 882.515 1363.73 883.528C1363.09 884.515 1362.15 885.408 1360.93 886.208L1359.21 887.328L1364.73 894.608C1365.45 893.035 1365.89 891.315 1366.05 889.448H1369.01C1368.93 890.861 1368.69 892.221 1368.29 893.528C1367.89 894.835 1367.35 896.035 1366.69 897.128L1371.09 902.888H1367.01ZM1356.25 883.488L1357.53 885.128L1359.69 883.768C1360.3 883.395 1360.78 882.888 1361.13 882.248C1361.47 881.581 1361.65 880.875 1361.65 880.128C1361.65 879.195 1361.35 878.475 1360.77 877.968C1360.18 877.435 1359.38 877.168 1358.37 877.168C1357.38 877.168 1356.55 877.448 1355.89 878.008C1355.25 878.568 1354.93 879.288 1354.93 880.168C1354.93 880.701 1355.02 881.235 1355.21 881.768C1355.39 882.275 1355.74 882.848 1356.25 883.488ZM1351.85 895.328C1351.85 896.768 1352.34 897.955 1353.33 898.888C1354.31 899.821 1355.54 900.288 1357.01 900.288C1358.15 900.288 1359.22 900.048 1360.21 899.568C1361.22 899.061 1362.13 898.355 1362.93 897.448L1356.45 888.888L1355.09 889.768C1353.89 890.541 1353.05 891.355 1352.57 892.208C1352.09 893.061 1351.85 894.101 1351.85 895.328ZM1408.42 894.888L1403.3 880.768V902.888H1400.14V874.928H1404.3L1409.98 891.008L1415.66 874.928H1419.74V902.888H1416.58V880.728L1411.54 894.888H1408.42ZM1444.59 896.408C1444.24 898.595 1443.27 900.341 1441.67 901.648C1440.09 902.955 1438.08 903.608 1435.63 903.608C1433.52 903.608 1431.76 903.141 1430.35 902.208C1428.93 901.248 1427.87 899.941 1427.15 898.288C1426.45 896.635 1426.11 894.741 1426.11 892.608C1426.11 890.261 1426.51 888.248 1427.31 886.568C1428.11 884.888 1429.23 883.595 1430.67 882.688C1432.11 881.755 1433.79 881.288 1435.71 881.288C1437.87 881.288 1439.63 881.795 1440.99 882.808C1442.37 883.821 1443.39 885.235 1444.03 887.048C1444.69 888.861 1445.03 890.981 1445.03 893.408H1429.59C1429.64 895.461 1430.17 897.168 1431.19 898.528C1432.2 899.861 1433.72 900.528 1435.75 900.528C1438.49 900.528 1440.32 899.155 1441.23 896.408H1444.59ZM1435.67 884.368C1433.8 884.368 1432.37 884.981 1431.39 886.208C1430.4 887.435 1429.83 888.928 1429.67 890.688H1441.43C1441.43 889.515 1441.19 888.461 1440.71 887.528C1440.25 886.568 1439.6 885.808 1438.75 885.248C1437.89 884.661 1436.87 884.368 1435.67 884.368ZM1466.55 873.728H1469.87V902.888H1466.91V899.928C1465.23 902.381 1463.01 903.608 1460.23 903.608C1458.18 903.608 1456.47 903.115 1455.11 902.128C1453.75 901.115 1452.74 899.741 1452.07 898.008C1451.43 896.275 1451.11 894.341 1451.11 892.208C1451.11 890.181 1451.45 888.355 1452.11 886.728C1452.78 885.075 1453.78 883.755 1455.11 882.768C1456.47 881.781 1458.14 881.288 1460.11 881.288C1462.97 881.288 1465.11 882.368 1466.55 884.528V873.728ZM1460.67 884.408C1459.37 884.408 1458.26 884.768 1457.35 885.488C1456.45 886.181 1455.75 887.141 1455.27 888.368C1454.82 889.568 1454.59 890.928 1454.59 892.448C1454.59 893.861 1454.81 895.181 1455.23 896.408C1455.66 897.635 1456.31 898.621 1457.19 899.368C1458.1 900.115 1459.27 900.488 1460.71 900.488C1462.13 900.488 1463.26 900.101 1464.11 899.328C1464.97 898.528 1465.58 897.528 1465.95 896.328C1466.35 895.101 1466.55 893.848 1466.55 892.568C1466.55 891.155 1466.35 889.835 1465.95 888.608C1465.55 887.355 1464.93 886.341 1464.07 885.568C1463.22 884.795 1462.09 884.408 1460.67 884.408ZM1484.88 878.928V874.928H1488.88V878.928H1484.88ZM1488.52 881.928V900.168H1494.96V902.888H1478.04V900.168H1485.24V884.648H1478.04V881.928H1488.52ZM1522.45 900.688V903.208C1521.62 903.448 1520.95 903.568 1520.45 903.568C1518.21 903.568 1516.97 902.515 1516.73 900.408C1515.55 901.555 1514.41 902.381 1513.29 902.888C1512.17 903.368 1510.94 903.608 1509.61 903.608C1507.58 903.608 1505.93 903.075 1504.65 902.008C1503.39 900.915 1502.77 899.395 1502.77 897.448C1502.77 896.008 1503.07 894.861 1503.69 894.008C1504.3 893.128 1505.05 892.475 1505.93 892.048C1506.83 891.595 1507.69 891.301 1508.49 891.168C1508.86 891.115 1509.43 891.035 1510.21 890.928C1510.98 890.795 1511.95 890.648 1513.13 890.488C1514.46 890.301 1515.38 890.048 1515.89 889.728C1516.42 889.408 1516.69 888.915 1516.69 888.248V887.528C1516.69 885.448 1515.09 884.408 1511.89 884.408C1510.34 884.408 1509.17 884.715 1508.37 885.328C1507.59 885.915 1507.14 886.848 1507.01 888.128H1503.65C1503.7 885.701 1504.49 883.968 1506.01 882.928C1507.55 881.861 1509.57 881.328 1512.05 881.328C1514.63 881.328 1516.59 881.821 1517.93 882.808C1519.26 883.768 1519.93 885.181 1519.93 887.048V899.128C1519.93 900.221 1520.53 900.768 1521.73 900.768C1521.94 900.768 1522.18 900.741 1522.45 900.688ZM1516.69 895.608V892.288C1515.99 892.608 1515.13 892.861 1514.09 893.048C1513.07 893.235 1512.13 893.381 1511.25 893.488C1509.7 893.675 1508.46 894.035 1507.53 894.568C1506.62 895.101 1506.17 896.035 1506.17 897.368C1506.17 898.408 1506.54 899.221 1507.29 899.808C1508.06 900.395 1509.11 900.688 1510.45 900.688C1511.43 900.688 1512.39 900.475 1513.33 900.048C1514.29 899.595 1515.09 898.981 1515.73 898.208C1516.37 897.435 1516.69 896.568 1516.69 895.608ZM1570.38 902.888L1567.9 894.528H1558.26L1555.78 902.888H1551.94L1560.78 874.928H1565.46L1574.26 902.888H1570.38ZM1559.18 891.408H1566.98L1563.06 878.288L1559.18 891.408ZM1581.23 902.888V881.928H1584.31V886.448C1585 884.955 1586 883.728 1587.31 882.768C1588.61 881.808 1590.12 881.328 1591.83 881.328C1594.23 881.328 1596.05 881.941 1597.31 883.168C1598.59 884.395 1599.32 886.048 1599.51 888.128H1596.19C1595.95 886.875 1595.45 885.915 1594.71 885.248C1593.99 884.581 1592.92 884.248 1591.51 884.248C1590.12 884.248 1588.91 884.621 1587.87 885.368C1586.83 886.088 1586.01 887.088 1585.43 888.368C1584.87 889.621 1584.59 891.075 1584.59 892.728V902.888H1581.23ZM1614.31 881.928H1622.55V884.648H1614.31V896.328C1614.31 897.875 1614.71 898.955 1615.51 899.568C1616.31 900.155 1617.47 900.448 1618.99 900.448C1619.69 900.448 1620.33 900.421 1620.91 900.368C1621.5 900.288 1622.05 900.181 1622.55 900.048V902.968C1621.89 903.155 1621.23 903.275 1620.59 903.328C1619.95 903.408 1619.35 903.448 1618.79 903.448C1616.26 903.448 1614.33 902.928 1612.99 901.888C1611.66 900.848 1610.99 899.195 1610.99 896.928V884.648H1604.95V881.928H1610.99V876.168H1614.31V881.928ZM1638.04 878.928V874.928H1642.04V878.928H1638.04ZM1641.68 881.928V900.168H1648.12V902.888H1631.2V900.168H1638.4V884.648H1631.2V881.928H1641.68ZM1672.89 887.648H1669.41C1669.38 886.608 1668.98 885.781 1668.21 885.168C1667.46 884.555 1666.46 884.248 1665.21 884.248C1663.85 884.248 1662.74 884.528 1661.89 885.088C1661.06 885.648 1660.65 886.395 1660.65 887.328C1660.65 888.075 1660.9 888.675 1661.41 889.128C1661.91 889.581 1662.66 889.941 1663.65 890.208L1668.41 891.448C1670.17 891.901 1671.49 892.581 1672.37 893.488C1673.27 894.368 1673.73 895.555 1673.73 897.048C1673.73 899.075 1672.98 900.675 1671.49 901.848C1669.99 903.021 1667.94 903.608 1665.33 903.608C1659.83 903.608 1656.97 901.248 1656.73 896.528H1660.25C1660.41 897.941 1660.91 898.981 1661.77 899.648C1662.65 900.315 1663.86 900.648 1665.41 900.648C1666.9 900.648 1668.09 900.381 1668.97 899.848C1669.87 899.315 1670.33 898.555 1670.33 897.568C1670.33 896.661 1670.09 895.981 1669.61 895.528C1669.13 895.075 1668.31 894.701 1667.17 894.408L1662.77 893.248C1660.87 892.741 1659.47 892.061 1658.57 891.208C1657.69 890.328 1657.25 889.088 1657.25 887.488C1657.25 885.595 1657.97 884.088 1659.41 882.968C1660.87 881.848 1662.83 881.288 1665.29 881.288C1667.74 881.288 1669.61 881.861 1670.89 883.008C1672.19 884.128 1672.86 885.675 1672.89 887.648ZM1690.89 881.928H1699.13V884.648H1690.89V896.328C1690.89 897.875 1691.29 898.955 1692.09 899.568C1692.89 900.155 1694.05 900.448 1695.57 900.448C1696.27 900.448 1696.91 900.421 1697.49 900.368C1698.08 900.288 1698.63 900.181 1699.13 900.048V902.968C1698.47 903.155 1697.81 903.275 1697.17 903.328C1696.53 903.408 1695.93 903.448 1695.37 903.448C1692.84 903.448 1690.91 902.928 1689.57 901.888C1688.24 900.848 1687.57 899.195 1687.57 896.928V884.648H1681.53V881.928H1687.57V876.168H1690.89V881.928ZM1713.54 897.448H1718.98V902.888H1713.54V897.448Z" fill="white"/>
<path d="M203.805 778.861C193.691 701.21 168.686 660.599 157.447 650C155.302 656.025 157.878 664.498 172.487 716.759C187.096 769.019 203.805 778.861 203.805 778.861Z" fill="url(#paint2_linear_532_1310)"/>
<path d="M299.804 453.038C271.736 477.944 278.778 527.18 290.473 548.31C304.283 552.811 307.804 547.507 316.226 541.933C331.529 531.806 332.898 544.059 334.888 548.31C338.173 470.292 315.978 452.038 299.804 453.038Z" fill="url(#paint3_linear_532_1310)"/>
<path d="M271.998 932.559C278.216 947.43 251.639 951.891 251.639 951.891L233.872 948.173L217.215 942.969C225.728 948.545 213.143 951.519 238.314 957.839C250.954 961.013 275.699 957.839 285.323 946.314C291.986 941.729 304.053 928.767 299.019 913.599C293.985 898.43 282.855 901.33 277.92 904.676C273.355 907.774 265.779 917.688 271.998 932.559Z" fill="url(#paint4_linear_532_1310)"/>
<path d="M550.483 1282.61C571.561 1279.66 592.391 1220.2 597.074 1195.45C601.758 1170.71 618.522 1176.62 618.522 1176.62C624.439 1190.28 631.01 1223.52 608.537 1253.8C585.242 1285.2 559.728 1336.9 558.988 1362.01C558.988 1362.01 575.793 1371.25 584.873 1380.85C591.159 1387.5 600.033 1412.61 600.033 1412.61C600.033 1412.61 605.231 1457.46 590.049 1478.72C576.731 1497.36 562.693 1509.12 539.76 1509C511.097 1508.85 497.264 1495.94 487.252 1469.11C463.956 1406.7 498.715 1364.97 498.715 1364.97C489.143 1381.38 483.639 1460.99 518.683 1469.11C584.873 1469.11 564.164 1405.59 550.483 1364.97C536.801 1324.34 539.39 1295.91 527.187 1285.2C531.625 1286.67 533.961 1284.93 550.483 1282.61Z" fill="url(#paint5_linear_532_1310)"/>
<path d="M481.215 1049.36C477.12 1065.28 453.977 1093.59 446.592 1098.97C441.065 1103.01 411.278 1126.09 400.027 1135.71C399.916 1135.81 399.802 1135.9 399.684 1136C399.796 1135.9 399.91 1135.81 400.027 1135.71C418.336 1119.24 350.208 1049.18 417.926 1019L481.215 1049.36Z" fill="url(#paint6_linear_532_1310)"/>
<path d="M474.949 1061.18C538.605 1076.3 556.245 1062.79 557.109 1054.14C559.774 1046.43 487.039 979.939 474.949 972.774C433.499 995.009 447.933 1027.83 417.215 1020.05C430.538 1042.28 461.256 1056.73 474.949 1061.18Z" fill="url(#paint7_linear_532_1310)"/>
<path d="M596.323 1027.48C604.924 1017.06 609.67 983.188 607.816 975C557.025 1002.54 491.818 975.604 473.529 952.155C482.982 1057.48 551.305 1057.45 556.983 1057.45L557.062 1057.45C560.035 1057.45 568.147 1057.88 572.596 1058C576.922 1052.17 587.722 1037.9 596.323 1027.48Z" fill="url(#paint8_linear_532_1310)"/>
<path d="M666.312 1086.39C685.079 1083.43 699.522 1070.38 707.973 1034.5C717.098 1062.95 707.973 1075.41 699.522 1078.91C699.522 1078.91 707.43 1079.71 712.477 1079.32C719.331 1078.79 729.642 1075.41 729.642 1075.41C699.522 1096.16 623.48 1129.12 616.814 1163.19C616.814 1163.19 608.718 1148.43 650.706 1111.47C656.802 1106.1 663.859 1093.73 663.859 1093.73C644.435 1098.75 603.635 1101.59 577.871 1130.83C601.654 1093.73 647.545 1089.36 666.312 1086.39Z" fill="url(#paint9_linear_532_1310)"/>
<path d="M72.0433 429.313C81.489 442.942 102 468.311 133.151 476.687C127.28 462.797 115.219 431.422 72.0433 429.313Z" fill="url(#paint10_linear_532_1310)"/>
<path d="M112.802 403.12C119.807 418.756 130.25 434.11 145.006 446.359C144.806 434.788 135.971 414.941 112.802 403.12Z" fill="url(#paint11_linear_532_1310)"/>
<path d="M389.9 282C389.9 345.206 380.046 352.229 351.215 411C394.644 384.387 413.622 339.662 389.9 282Z" fill="#633FA7"/>
<path d="M351.227 1249.19C333.318 1221.2 382.504 1289.54 351.227 1196.44C381.683 1167.73 396.545 1216.88 371.638 1241.62C371.638 1241.62 372.051 1243.57 371.638 1245.44C371.121 1247.8 369.94 1250.34 369.811 1252.74C369.629 1256.12 373.336 1257.42 373.336 1257.42L382.504 1294.65C358.827 1282.7 327.305 1284.57 329.619 1289.54C320.503 1280.33 308.53 1268.75 304.029 1265.53C303.417 1265.33 302.812 1265.12 302.215 1264.89C302.215 1264.44 302.877 1264.71 304.029 1265.53C326.665 1272.97 359.303 1261.81 351.227 1249.19Z" fill="url(#paint12_linear_532_1310)"/>
<path d="M329.903 948.405L278.215 962.537C280.595 965.81 296.064 966.876 303.501 967C309.451 964.397 319.491 961.05 331.391 959.562C342.055 958.229 344.778 952.124 345.521 948.405L352.215 922C346.86 938.661 335.109 946.545 329.903 948.405Z" fill="url(#paint13_linear_532_1310)"/>
<path d="M391.947 1259.64C382.508 1256.39 374.74 1256.81 372.036 1257.43C377.936 1269.97 375.632 1277.66 377.936 1290.62C388.259 1368.23 334.122 1352.22 332.215 1330.83C337.277 1387.63 354.281 1404.08 381.623 1396.12C410.75 1387.63 436.585 1361.37 428.817 1311.65C423.286 1276.24 415.813 1273.34 409.791 1270.76C405.12 1268.67 401.385 1262.89 391.947 1259.64Z" fill="#633FA7"/>
<path d="M331.215 1092C344.282 1082.11 391.695 1036.2 415.215 1020.2C415.215 1020.2 381.172 968.038 381.172 1002.18C381.172 1036.32 331.215 1092 331.215 1092Z" fill="url(#paint14_linear_532_1310)"/>
<path d="M490.215 923C536.081 975 589.228 969.406 596.285 975C618.867 967.84 627.005 896.812 624.391 889.104C602.75 863.446 498.653 839.481 474.085 837.741C459.971 865.487 479.499 921.135 490.215 923Z" fill="url(#paint15_linear_532_1310)"/>
<path d="M412.259 795.843C424.711 843.576 438.536 892.793 466.709 925.43C472.369 931.986 460.684 949.199 438.535 925.43C408.735 893.448 395.833 821.248 393.107 789.145L412.259 795.843Z" fill="url(#paint16_linear_532_1310)"/>
<path d="M481.54 920.43C464.769 827.481 521.289 516.397 491.467 489.654C426.695 428.443 406.117 436.525 350.617 409.525C472.71 474.401 422.274 876.704 464.769 931.598C469.586 937.82 481.54 931.598 481.54 920.43Z" fill="url(#paint17_linear_532_1310)"/>
<path d="M414.413 1020C417.651 988.472 444.347 950.936 452.932 935.817C452.932 935.817 440.683 926.056 434.941 919.74C429.199 913.424 419.63 900.218 419.63 900.218C403.318 912.363 372.715 941.974 357.229 972.081C344.265 997.286 397.857 1016.53 414.413 1020Z" fill="url(#paint18_linear_532_1310)"/>
<path d="M482.551 864.739C469.895 759 637.68 611.162 567.236 530.625C622.555 534.918 674.091 558.847 713.564 588.546C735.949 605.388 750.448 619.691 762.705 642.041L482.551 864.739Z" fill="url(#paint19_linear_532_1310)"/>
<circle cx="173.339" cy="640.025" r="28.2341" fill="#171717"/>
<path d="M277.097 962.96C252.628 963.475 258.488 963.909 239.235 959.611C224.811 956.392 218.232 947.462 218.162 943.77C185.879 928.56 194.266 916.773 204.083 900.859C206.228 803.08 203.823 782.748 202.036 777.691C183.392 764.833 165.497 692.355 159.196 664.836C146.98 657.107 144.427 644.996 144.677 639.906C141.537 638.036 136.013 637.049 133.643 636.79C124.816 634.047 120.477 626.171 119.41 622.576C132.777 609.536 141.824 595.408 144.677 589.975C154.552 571.164 167.967 531.317 148.344 504.396L133.643 477.132C108.719 469.994 61.9595 437.948 59.7006 373.567L116.8 403.708C122.565 407.826 136.224 420.017 143.001 436.395M277.097 962.96C279.491 964.366 287.943 967.298 302.6 967.777C309.106 964.903 324.37 959.156 333.375 959.156C342.38 959.156 345.191 951.651 345.47 947.899L349.422 933.17L357.086 964.664C356.846 966.021 356.511 969.43 357.086 972.208C357.804 975.681 333.375 959.156 312.773 1062.02L316.751 1092.52L308.795 1145.57C307.617 1151.16 303.403 1162.72 295.977 1164.13C270.782 1181.81 231.885 1226.01 302.6 1262.26L328.875 1289.01C328.028 1313.61 335.94 1357.76 337.178 1361.81M277.097 962.96L331.67 947.899C337.281 944.599 349.269 934.864 352.336 922.331C355.403 909.798 349.036 894.608 345.47 888.579V812.645" stroke="#633FA7"/>
<path d="M390.486 285.836L378.95 320.028C359.344 338.711 319.995 377.46 319.442 382.996L310.792 391.645" stroke="#633FA7"/>
<path d="M374.326 759.074L402.693 863.179L402.693 868.489C394.457 842.724 353.116 789.416 359.672 778.688C365.937 768.436 366.405 768.966 374.326 759.074Z" fill="url(#paint20_linear_532_1310)"/>
<path d="M574.234 1055.66L507.945 1139.3C473.893 1155.81 463.151 1244.35 503.213 1279.86C506.633 1291.84 510.38 1325.9 498.012 1366.27" stroke="#633FA7"/>
<path d="M729.406 1077.05C740.139 1070.69 761.607 1054.39 761.607 1040.08" stroke="#FFF1B5"/>
<path d="M610.748 985.419C715.223 953.911 717.253 954.437 737.005 979.881C766.314 1017.63 720.821 1080.5 720.821 1080.5C720.821 1080.5 769.649 1075.88 794.801 1025.2C821.767 970.866 831.615 874.56 825.895 859.366C769.235 835.873 633.964 756.87 610.748 836.47C587.531 916.07 596.928 988.528 610.748 985.419Z" fill="url(#paint21_radial_532_1310)"/>
<path d="M412.215 712.716C385.953 728.479 338.202 565.169 338.202 591.083C338.202 616.997 371.405 677.196 356.205 705.134C341.006 733.071 330.484 764.04 325.55 772.697C320.615 781.353 317.849 790.899 317.849 790.899C317.849 790.899 324.131 789.999 325.55 790.899C333.038 795.65 341.006 808.027 341.006 808.027L345.831 825.807C345.831 825.807 344.634 809.478 349.714 804.761C354.213 794.972 368.372 774.205 379.753 759.929C391.133 745.654 404.069 723.125 412.215 712.716Z" fill="url(#paint22_linear_532_1310)"/>
<path d="M258.923 638.512C240.015 703.513 289.082 820.876 300.654 868.489C290.609 814.767 329.245 786.783 360.794 672.831L332.783 560.601C330.936 569.01 321.925 587.091 300.654 592.136C279.382 597.182 263.97 625.156 258.923 638.512Z" fill="url(#paint23_linear_532_1310)"/>
<path d="M307.555 594.77C322.926 592.056 334.424 577.792 338.251 571C344.205 621.309 311.044 626.552 293.719 622.884L289.197 636.471L286.412 612.935C287.055 608.011 292.184 597.484 307.555 594.77Z" fill="#171717"/>
<path d="M410.847 711.261C447.564 659.325 431.283 573.588 419.71 538C446.671 620.913 454.911 624.89 454.911 659.7L453.114 898.479C435.263 884.933 387.867 792.84 380.931 785.885C375.106 780.044 371.758 770.981 364.249 777.631C374.865 759.776 389.342 741.68 410.847 711.261Z" fill="url(#paint24_linear_532_1310)"/>
<path d="M294.539 623.09C294.733 618.219 306.447 603.253 337.777 588.289C339.336 601.149 330.077 627.298 294.539 623.09Z" fill="#633FA7"/>
<path d="M145.283 645.934C149.99 644.664 146.594 642.676 170.236 668.103C153.958 665.452 149.454 656.444 145.283 645.934Z" fill="#633FA7"/>
<rect x="137.835" y="643.827" width="9.94873" height="5.70605" transform="rotate(-32.5076 137.835 643.827)" fill="#171717"/>
<path d="M1348.37 515.034L1351.43 391.994L333.414 391.993C265.631 389.885 193.213 396.705 150.35 430.261C114.916 458.001 158.654 486.783 164.764 515.033L1348.37 515.034Z" fill="url(#paint25_linear_532_1310)"/>
</g>
<defs>
<linearGradient id="paint0_linear_532_1310" x1="603.804" y1="1257.63" x2="935.218" y2="968.459" gradientUnits="userSpaceOnUse">
<stop offset="0.173775" stop-color="#633FA7"/>
<stop offset="1" stop-color="#171717"/>
</linearGradient>
<linearGradient id="paint1_linear_532_1310" x1="355.153" y1="396.982" x2="1324.64" y2="396.982" gradientUnits="userSpaceOnUse">
<stop stop-color="#633FA7"/>
<stop offset="1" stop-color="#171717"/>
</linearGradient>
<linearGradient id="paint2_linear_532_1310" x1="103.044" y1="694.348" x2="252.851" y2="692.243" gradientUnits="userSpaceOnUse">
<stop stop-color="#633FA7"/>
<stop offset="0.745322" stop-color="#171717"/>
</linearGradient>
<linearGradient id="paint3_linear_532_1310" x1="234.114" y1="495.798" x2="355.155" y2="534.46" gradientUnits="userSpaceOnUse">
<stop offset="0.208333" stop-color="#633FA7"/>
<stop offset="0.874339" stop-color="#171717"/>
</linearGradient>
<linearGradient id="paint4_linear_532_1310" x1="208.063" y1="884.905" x2="282.036" y2="1021.83" gradientUnits="userSpaceOnUse">
<stop offset="0.287789" stop-color="#633FA7"/>
<stop offset="0.647016" stop-color="#171717"/>
</linearGradient>
<linearGradient id="paint5_linear_532_1310" x1="638.119" y1="1316.22" x2="516.612" y2="1197.15" gradientUnits="userSpaceOnUse">
<stop stop-color="#633FA7"/>
<stop offset="1" stop-color="#171717"/>
</linearGradient>
<linearGradient id="paint6_linear_532_1310" x1="411.97" y1="1054.91" x2="466.693" y2="1058.66" gradientUnits="userSpaceOnUse">
<stop stop-color="#171717"/>
<stop offset="1" stop-color="#633FA7"/>
</linearGradient>
<linearGradient id="paint7_linear_532_1310" x1="474.903" y1="1003.5" x2="500.806" y2="1079.66" gradientUnits="userSpaceOnUse">
<stop stop-color="#171717"/>
<stop offset="1" stop-color="#633FA7"/>
</linearGradient>
<linearGradient id="paint8_linear_532_1310" x1="587.055" y1="1047.58" x2="586.535" y2="989.98" gradientUnits="userSpaceOnUse">
<stop stop-color="#633FA7"/>
<stop offset="1" stop-color="#171717"/>
</linearGradient>
<linearGradient id="paint9_linear_532_1310" x1="675.929" y1="1033.71" x2="657.828" y2="1124.15" gradientUnits="userSpaceOnUse">
<stop stop-color="#171717"/>
<stop offset="1" stop-color="#633FA7"/>
</linearGradient>
<linearGradient id="paint10_linear_532_1310" x1="127.863" y1="486.547" x2="56.5395" y2="460.556" gradientUnits="userSpaceOnUse">
<stop stop-color="#633FA7"/>
<stop offset="1" stop-color="#171717"/>
</linearGradient>
<linearGradient id="paint11_linear_532_1310" x1="138.902" y1="450.819" x2="103.684" y2="414.613" gradientUnits="userSpaceOnUse">
<stop stop-color="#633FA7"/>
<stop offset="1" stop-color="#171717"/>
</linearGradient>
<linearGradient id="paint12_linear_532_1310" x1="260.969" y1="1186.76" x2="380.104" y2="1299.48" gradientUnits="userSpaceOnUse">
<stop offset="0.573545" stop-color="#171717"/>
<stop offset="0.965483" stop-color="#633FA7"/>
<stop offset="1" stop-color="#171717"/>
</linearGradient>
<linearGradient id="paint13_linear_532_1310" x1="284.165" y1="936.504" x2="344.042" y2="1008.27" gradientUnits="userSpaceOnUse">
<stop offset="0.190859" stop-color="#633FA7"/>
<stop offset="1"/>
</linearGradient>
<linearGradient id="paint14_linear_532_1310" x1="433.849" y1="1061.07" x2="354.432" y2="1047.64" gradientUnits="userSpaceOnUse">
<stop stop-color="#633FA7"/>
<stop offset="1" stop-color="#171717"/>
</linearGradient>
<linearGradient id="paint15_linear_532_1310" x1="608.052" y1="765.921" x2="536.275" y2="957.448" gradientUnits="userSpaceOnUse">
<stop offset="0.567708" stop-color="#171717"/>
<stop offset="1" stop-color="#633FA7"/>
</linearGradient>
<linearGradient id="paint16_linear_532_1310" x1="480.875" y1="984.43" x2="376.118" y2="855.753" gradientUnits="userSpaceOnUse">
<stop stop-color="#633FA7"/>
<stop offset="1" stop-color="#171717"/>
</linearGradient>
<linearGradient id="paint17_linear_532_1310" x1="565.953" y1="996.903" x2="455.461" y2="883.468" gradientUnits="userSpaceOnUse">
<stop offset="0.486994" stop-color="#633FA7"/>
<stop offset="1" stop-color="#171717"/>
</linearGradient>
<linearGradient id="paint18_linear_532_1310" x1="439.064" y1="1006.99" x2="325.105" y2="901.401" gradientUnits="userSpaceOnUse">
<stop stop-color="#633FA7"/>
<stop offset="0.639791" stop-color="#171717"/>
</linearGradient>
<linearGradient id="paint19_linear_532_1310" x1="437.993" y1="710.026" x2="784.978" y2="767.592" gradientUnits="userSpaceOnUse">
<stop offset="0.135501" stop-color="#633FA7"/>
<stop offset="0.474997" stop-color="#171717"/>
</linearGradient>
<linearGradient id="paint20_linear_532_1310" x1="270.342" y1="784.742" x2="491.365" y2="868.489" gradientUnits="userSpaceOnUse">
<stop/>
<stop offset="0.0001"/>
<stop offset="0.713139" stop-color="#633FA7"/>
</linearGradient>
<radialGradient id="paint21_radial_532_1310" cx="0" cy="0" r="1" gradientUnits="userSpaceOnUse" gradientTransform="translate(561.566 1026.52) rotate(-52.7791) scale(402.191 345.565)">
<stop stop-color="#633FA7"/>
<stop offset="0.70034" stop-color="#171717"/>
</radialGradient>
<linearGradient id="paint22_linear_532_1310" x1="292.877" y1="809.001" x2="502.268" y2="701.874" gradientUnits="userSpaceOnUse">
<stop stop-color="#633FA7"/>
<stop offset="0.682292" stop-color="#171717"/>
</linearGradient>
<linearGradient id="paint23_linear_532_1310" x1="193.191" y1="728.314" x2="360.859" y2="745.246" gradientUnits="userSpaceOnUse">
<stop offset="0.140625" stop-color="#633FA7"/>
<stop offset="1" stop-color="#171717"/>
</linearGradient>
<linearGradient id="paint24_linear_532_1310" x1="351.681" y1="710.278" x2="486.562" y2="740.058" gradientUnits="userSpaceOnUse">
<stop stop-color="#633FA7"/>
<stop offset="1" stop-color="#171717"/>
</linearGradient>
<linearGradient id="paint25_linear_532_1310" x1="258.518" y1="391.645" x2="656.085" y2="760.373" gradientUnits="userSpaceOnUse">
<stop stop-color="#633FA7"/>
<stop offset="1" stop-color="#633FA7" stop-opacity="0"/>
</linearGradient>
<clipPath id="clip0_532_1310">
<rect width="1977" height="1882" fill="white"/>
</clipPath>
</defs>
</svg>
