<svg width="1977" height="1882" viewBox="0 0 1977 1882" fill="none" xmlns="http://www.w3.org/2000/svg">
<g clip-path="url(#clip0_533_1380)">
<rect width="1977" height="1882" fill="white"/>
<path d="M442.077 500.196L302.215 418.002L1747.48 418.002V650L711.194 650L516.979 537.978L442.077 500.196Z" fill="url(#paint0_linear_533_1380)"/>
<path d="M1178.46 1055.51C807.039 1196.59 610.19 1114.3 558.193 1055.51L589.651 1032.2L816.407 926.736L1178.46 1055.51Z" fill="url(#paint1_linear_533_1380)"/>
<path d="M137.389 475.335L147.763 502.38C146.404 526.338 143.836 576.551 144.428 585.739C145.021 594.927 128.127 613.278 119.605 621.306C121.384 629.308 129.485 634.766 133.314 636.495C150.505 639.163 157.519 648.721 158.878 653.167C156.803 659.095 169.622 705.529 176.291 728.005L198.891 758.014C208.079 770.166 206.177 858.168 204.078 900.65C177.032 934.364 219.268 938.81 221.121 947.701C222.603 954.815 233.347 957.087 238.534 957.334C244.462 962.965 265.95 963.385 275.954 962.891C280.103 965.559 295.713 967.214 303 967.708C308.557 965.114 322.043 959.853 331.528 959.557C341.012 959.26 344.372 953.259 344.866 950.295C346.471 943.503 349.682 930.807 349.682 934.364C349.682 937.921 355.857 960.545 358.944 971.412C333.454 973.487 317.943 1032.3 313.374 1061.44L317.079 1093.3C311.151 1121.83 295.516 1180.07 280.4 1184.81C265.283 1189.55 261.998 1197.16 262.245 1200.37C255.132 1235.05 286.698 1257.06 303.37 1263.72L328.564 1288.92C330.293 1296.7 330.12 1335 334.862 1345.97C339.605 1356.94 348.57 1372.65 356.351 1383.76C380.803 1404.14 388.584 1405.99 408.961 1342.27C429.859 1276.91 426.374 1277.43 419.705 1271.87C414.65 1267.66 382.409 1254.34 371.912 1257.43C367.169 1247.35 373.023 1247.18 371.912 1238.53C381.396 1231.42 380.803 1213.59 379.321 1208.15C358.574 1152.58 411.925 1129.24 440.082 1104.79C462.608 1085.22 472.686 1067.74 474.909 1061.44C563.827 1079.96 553.083 1051.81 557.159 1054.77C560.419 1057.14 568.644 1057.73 572.349 1057.73C571.163 1065.44 529.371 1115.04 508.624 1138.87C485.505 1138.87 485.406 1177.65 488.247 1197.04C479.948 1235.86 494.916 1266.81 503.437 1277.43C511.143 1298.18 503.437 1344.86 498.62 1365.61C484.665 1383.64 464.165 1432.29 493.804 1482.68C523.444 1533.07 568.891 1503.67 587.909 1482.68L599.024 1443.41C609.398 1398.95 576.177 1371.04 558.27 1362.64C557.529 1347.45 577.906 1294.47 607.546 1254.83C631.257 1223.12 624.588 1188.52 618.29 1175.18C616.685 1174.81 614.437 1169.99 618.29 1153.69C622.143 1137.39 696.464 1094.04 733.143 1074.41C743.146 1065.39 772.786 1035.51 811.317 988.084C849.849 940.662 841.698 831.74 832.806 783.207C831.818 770.981 816.504 725.856 763.153 643.164C709.802 560.472 610.016 533.624 566.791 530.537C555.183 521.769 527.371 499.713 508.994 481.633C490.618 463.554 405.997 425.937 365.984 409.389C402.144 369.08 396.858 311.334 389.695 287.5L378.21 319.362C361.661 334.922 327.008 368.858 320.783 380.121C314.559 391.384 285.34 410.994 271.508 419.392L173.697 451.254C163.941 454.218 144.058 456.144 142.576 440.139C141.094 424.134 124.916 409.266 117.012 403.832L59.2148 373.452C63.3644 438.657 113.06 468.543 137.389 475.335Z" fill="white"/>
<path d="M414.005 709.715C387.743 725.477 339.992 562.167 339.992 588.081C339.992 613.995 373.194 674.195 357.995 702.132C342.796 730.07 332.274 761.039 327.339 769.696C322.405 778.352 319.639 787.897 319.639 787.897C319.639 787.897 325.921 786.998 327.339 787.897C334.828 792.649 342.796 805.026 342.796 805.026L347.621 822.805C347.621 822.805 346.424 806.477 351.504 801.76C356.003 791.97 370.162 771.204 381.542 756.928C392.923 742.653 405.859 720.124 414.005 709.715Z" fill="url(#paint2_linear_533_1380)"/>
<path d="M203.805 778.861C193.691 701.21 168.686 660.599 157.447 650C155.302 656.025 157.878 664.498 172.487 716.759C187.096 769.019 203.805 778.861 203.805 778.861Z" fill="url(#paint3_linear_533_1380)"/>
<path d="M299.804 453.038C271.736 477.944 278.778 527.18 290.473 548.31C304.282 552.811 307.804 547.507 316.226 541.933C331.529 531.806 332.898 544.059 334.888 548.31C338.173 470.292 315.978 452.038 299.804 453.038Z" fill="url(#paint4_linear_533_1380)"/>
<path d="M260.713 638.512C241.804 703.513 290.872 820.876 302.443 868.489C292.398 814.767 331.035 786.783 362.584 672.831L334.573 560.601C332.726 569.01 323.715 587.091 302.443 592.136C281.172 597.182 265.76 625.156 260.713 638.512Z" fill="url(#paint5_linear_533_1380)"/>
<path d="M271.998 932.559C278.216 947.43 251.639 951.891 251.639 951.891L233.872 948.173L217.215 942.969C225.729 948.545 213.143 951.519 238.314 957.839C250.954 961.013 275.699 957.839 285.323 946.314C291.986 941.729 304.053 928.767 299.019 913.599C293.985 898.43 282.856 901.33 277.92 904.676C273.355 907.774 265.779 917.688 271.998 932.559Z" fill="url(#paint6_linear_533_1380)"/>
<path d="M550.483 1282.61C571.561 1279.66 592.39 1220.2 597.074 1195.45C601.758 1170.71 618.522 1176.62 618.522 1176.62C624.439 1190.28 631.01 1223.52 608.537 1253.8C585.242 1285.2 559.728 1336.9 558.988 1362.01C558.988 1362.01 575.792 1371.25 584.872 1380.85C591.158 1387.5 600.033 1412.61 600.033 1412.61C600.033 1412.61 605.231 1457.46 590.049 1478.72C576.731 1497.36 562.692 1509.12 539.76 1509C511.097 1508.85 497.264 1495.94 487.252 1469.11C463.956 1406.7 498.715 1364.97 498.715 1364.97C489.142 1381.38 483.639 1460.99 518.683 1469.11C584.872 1469.11 564.164 1405.59 550.483 1364.97C536.801 1324.34 539.39 1295.91 527.187 1285.2C531.625 1286.67 533.96 1284.93 550.483 1282.61Z" fill="url(#paint7_linear_533_1380)"/>
<path d="M481.215 1049.36C477.12 1065.28 453.976 1093.59 446.592 1098.97C441.065 1103.01 411.278 1126.09 400.026 1135.71C399.915 1135.81 399.801 1135.9 399.684 1136C399.796 1135.9 399.91 1135.81 400.026 1135.71C418.336 1119.24 350.208 1049.18 417.926 1019L481.215 1049.36Z" fill="url(#paint8_linear_533_1380)"/>
<path d="M474.949 1061.18C538.604 1076.3 556.245 1062.79 557.109 1054.14C559.773 1046.43 487.038 979.939 474.949 972.774C433.499 995.009 447.932 1027.83 417.215 1020.05C430.538 1042.28 461.256 1056.73 474.949 1061.18Z" fill="url(#paint9_linear_533_1380)"/>
<path d="M596.323 1027.48C604.924 1017.06 609.67 983.188 607.816 975C557.025 1002.54 491.818 975.604 473.528 952.155C482.982 1057.48 551.305 1057.45 556.983 1057.45L557.062 1057.45C560.035 1057.45 568.147 1057.88 572.596 1058C576.921 1052.17 587.722 1037.9 596.323 1027.48Z" fill="url(#paint10_linear_533_1380)"/>
<path d="M666.312 1086.39C685.078 1083.43 699.521 1070.38 707.973 1034.5C717.098 1062.95 707.973 1075.41 699.521 1078.91C699.521 1078.91 707.429 1079.71 712.476 1079.32C719.331 1078.79 729.642 1075.41 729.642 1075.41C699.521 1096.16 623.48 1129.12 616.814 1163.19C616.814 1163.19 608.718 1148.43 650.706 1111.47C656.802 1106.1 658.304 1100.65 658.304 1100.65C638.88 1105.68 603.635 1101.59 577.871 1130.83C601.653 1093.73 647.545 1089.36 666.312 1086.39Z" fill="url(#paint11_linear_533_1380)"/>
<path d="M72.0432 429.313C81.4889 442.942 102 468.311 133.151 476.687C127.28 462.797 115.219 431.422 72.0432 429.313Z" fill="url(#paint12_linear_533_1380)"/>
<path d="M112.802 403.12C119.807 418.756 130.251 434.11 145.006 446.359C144.806 434.788 135.971 414.941 112.802 403.12Z" fill="url(#paint13_linear_533_1380)"/>
<path d="M389.9 282C389.9 345.206 380.046 352.229 351.215 411C394.644 384.387 413.622 339.662 389.9 282Z" fill="#FFE266"/>
<path d="M351.226 1249.19C333.318 1221.2 382.503 1289.54 351.226 1196.44C381.683 1167.73 396.545 1216.88 371.638 1241.62C371.638 1241.62 372.05 1243.57 371.638 1245.44C371.121 1247.8 369.94 1250.34 369.811 1252.74C369.629 1256.12 373.336 1257.42 373.336 1257.42L382.503 1294.65C358.826 1282.7 327.305 1284.57 329.619 1289.54C320.503 1280.33 308.53 1268.75 304.029 1265.53C303.417 1265.33 302.812 1265.12 302.215 1264.89C302.215 1264.44 302.877 1264.71 304.029 1265.53C326.665 1272.97 359.302 1261.81 351.226 1249.19Z" fill="url(#paint14_linear_533_1380)"/>
<path d="M329.903 948.405L278.215 962.537C280.595 965.81 296.064 966.876 303.501 967C309.451 964.397 319.491 961.05 331.391 959.562C342.054 958.229 344.778 952.124 345.521 948.405L352.215 922C346.86 938.661 335.109 946.545 329.903 948.405Z" fill="url(#paint15_linear_533_1380)"/>
<path d="M391.946 1259.64C382.507 1256.39 374.74 1256.81 372.036 1257.43L377.935 1290.62C388.259 1368.23 334.121 1352.22 332.215 1330.83C337.277 1387.63 354.281 1404.08 381.623 1396.12C410.75 1387.63 436.585 1361.37 428.817 1311.65C423.286 1276.24 423.778 1272.55 417.756 1269.97C413.086 1267.88 401.385 1262.89 391.946 1259.64Z" fill="#FFE266"/>
<path d="M331.215 1092C344.282 1082.11 391.695 1036.2 415.215 1020.2C415.215 1020.2 381.172 968.038 381.172 1002.18C381.172 1036.32 331.215 1092 331.215 1092Z" fill="url(#paint16_linear_533_1380)"/>
<path d="M307.555 594.77C322.926 592.056 334.423 577.792 338.251 571C344.205 621.309 311.044 626.552 293.719 622.884L289.197 636.471L286.411 612.935C287.055 608.011 292.184 597.484 307.555 594.77Z" fill="white"/>
<path d="M898.122 676.12V724H891.13V676.12H898.122ZM943.088 719.516C944.709 719.516 946.128 719.339 947.344 718.984C948.56 718.629 949.75 718.173 950.916 717.616L952.36 722.632C949.624 724 946.356 724.684 942.556 724.684C939.972 724.684 937.54 724.304 935.26 723.544C933.03 722.784 931.054 721.644 929.332 720.124C927.66 718.553 926.342 716.628 925.38 714.348C924.417 712.017 923.936 709.307 923.936 706.216C923.936 703.379 924.392 700.82 925.304 698.54C926.216 696.26 927.482 694.335 929.104 692.764C930.725 691.143 932.676 689.901 934.956 689.04C937.236 688.179 939.744 687.748 942.48 687.748C944.05 687.748 945.57 687.875 947.04 688.128C948.56 688.331 950.282 688.863 952.208 689.724L950.688 694.816C948.357 693.499 945.849 692.84 943.164 692.84C939.465 692.84 936.476 694.005 934.196 696.336C931.916 698.616 930.776 701.833 930.776 705.988C930.776 708.572 931.13 710.725 931.84 712.448C932.549 714.171 933.486 715.564 934.652 716.628C935.817 717.641 937.134 718.376 938.604 718.832C940.073 719.288 941.568 719.516 943.088 719.516ZM959.609 724V688.28H964.625L965.765 695.424C966.626 693.144 968.045 691.295 970.021 689.876C971.997 688.457 974.277 687.748 976.861 687.748C978.178 687.748 979.267 687.849 980.129 688.052C980.99 688.255 981.775 688.508 982.485 688.812L981.193 694.664C980.585 694.36 979.901 694.107 979.141 693.904C978.431 693.701 977.57 693.6 976.557 693.6C975.087 693.6 973.719 693.853 972.453 694.36C971.237 694.867 970.147 695.627 969.185 696.64C968.273 697.653 967.538 698.92 966.981 700.44C966.474 701.909 966.221 703.607 966.221 705.532V724H959.609ZM987.305 691.472C988.521 690.864 989.661 690.332 990.725 689.876C991.789 689.369 992.853 688.964 993.917 688.66C994.981 688.356 996.07 688.128 997.185 687.976C998.3 687.824 999.516 687.748 1000.83 687.748C1002.81 687.748 1004.61 687.976 1006.23 688.432C1007.9 688.837 1009.32 689.547 1010.48 690.56C1011.7 691.573 1012.64 692.916 1013.3 694.588C1013.96 696.209 1014.28 698.261 1014.28 700.744V724H1008.74L1007.9 720.048H1007.75C1006.18 721.72 1004.46 722.911 1002.58 723.62C1000.71 724.329 998.629 724.684 996.349 724.684C994.626 724.684 993.03 724.456 991.561 724C990.142 723.493 988.901 722.809 987.837 721.948C986.773 721.036 985.937 719.947 985.329 718.68C984.772 717.413 984.493 715.995 984.493 714.424C984.493 710.675 985.962 707.837 988.901 705.912C991.89 703.936 995.817 702.948 1000.68 702.948H1007.52V699.908C1007.52 697.324 1006.86 695.576 1005.54 694.664C1004.23 693.701 1002.45 693.22 1000.22 693.22C998.908 693.22 997.388 693.448 995.665 693.904C993.993 694.309 992.068 695.12 989.889 696.336L987.305 691.472ZM1007.6 707.508L1001.97 707.66C998.173 707.761 995.462 708.445 993.841 709.712C992.27 710.928 991.485 712.423 991.485 714.196C991.485 715.26 991.662 716.172 992.017 716.932C992.372 717.641 992.828 718.199 993.385 718.604C993.993 719.009 994.677 719.313 995.437 719.516C996.248 719.668 997.084 719.744 997.945 719.744C999.617 719.744 1001.31 719.364 1003.04 718.604C1004.76 717.793 1006.28 716.527 1007.6 714.804V707.508ZM1037.56 669.66C1038.98 669.66 1040.45 669.863 1041.97 670.268C1043.54 670.673 1044.93 671.18 1046.15 671.788L1044.78 676.424C1043.77 676.019 1042.8 675.715 1041.89 675.512C1040.98 675.259 1040.02 675.132 1039 675.132C1036.57 675.132 1034.82 675.816 1033.76 677.184C1032.75 678.552 1032.24 680.883 1032.24 684.176V688.28H1043.11V693.296H1032.24V724H1025.63V693.296H1020.38V688.28H1025.63V681.972C1025.63 678.02 1026.64 674.98 1028.67 672.852C1030.75 670.724 1033.71 669.66 1037.56 669.66ZM1067.37 693.296H1056.88V714.044C1056.88 715.817 1057.32 717.008 1058.18 717.616C1059.09 718.224 1060.25 718.528 1061.67 718.528C1062.69 718.528 1063.8 718.427 1065.02 718.224C1066.23 717.971 1067.3 717.692 1068.21 717.388L1069.27 722.48C1068.26 722.885 1066.97 723.24 1065.4 723.544C1063.83 723.848 1062.18 724 1060.46 724C1056.91 724 1054.33 723.24 1052.7 721.72C1051.08 720.149 1050.27 717.895 1050.27 714.956V693.296H1044.95V688.28H1050.27V676.88H1056.88V688.28H1067.37V693.296ZM1110.08 719.516C1111.7 719.516 1113.12 719.339 1114.34 718.984C1115.55 718.629 1116.74 718.173 1117.91 717.616L1119.35 722.632C1116.62 724 1113.35 724.684 1109.55 724.684C1106.96 724.684 1104.53 724.304 1102.25 723.544C1100.02 722.784 1098.05 721.644 1096.32 720.124C1094.65 718.553 1093.33 716.628 1092.37 714.348C1091.41 712.017 1090.93 709.307 1090.93 706.216C1090.93 703.379 1091.38 700.82 1092.3 698.54C1093.21 696.26 1094.47 694.335 1096.1 692.764C1097.72 691.143 1099.67 689.901 1101.95 689.04C1104.23 688.179 1106.74 687.748 1109.47 687.748C1111.04 687.748 1112.56 687.875 1114.03 688.128C1115.55 688.331 1117.27 688.863 1119.2 689.724L1117.68 694.816C1115.35 693.499 1112.84 692.84 1110.16 692.84C1106.46 692.84 1103.47 694.005 1101.19 696.336C1098.91 698.616 1097.77 701.833 1097.77 705.988C1097.77 708.572 1098.12 710.725 1098.83 712.448C1099.54 714.171 1100.48 715.564 1101.64 716.628C1102.81 717.641 1104.13 718.376 1105.6 718.832C1107.07 719.288 1108.56 719.516 1110.08 719.516ZM1126.6 724V688.28H1131.62L1132.76 695.424C1133.62 693.144 1135.04 691.295 1137.01 689.876C1138.99 688.457 1141.27 687.748 1143.85 687.748C1145.17 687.748 1146.26 687.849 1147.12 688.052C1147.98 688.255 1148.77 688.508 1149.48 688.812L1148.18 694.664C1147.58 694.36 1146.89 694.107 1146.13 693.904C1145.42 693.701 1144.56 693.6 1143.55 693.6C1142.08 693.6 1140.71 693.853 1139.44 694.36C1138.23 694.867 1137.14 695.627 1136.18 696.64C1135.26 697.653 1134.53 698.92 1133.97 700.44C1133.47 701.909 1133.21 703.607 1133.21 705.532V724H1126.6ZM1155.72 724V688.28H1162.41V724H1155.72ZM1159.07 679.084C1157.9 679.084 1156.89 678.704 1156.03 677.944C1155.22 677.133 1154.81 676.145 1154.81 674.98C1154.81 673.815 1155.22 672.827 1156.03 672.016C1156.89 671.205 1157.9 670.8 1159.07 670.8C1160.18 670.8 1161.17 671.205 1162.03 672.016C1162.89 672.827 1163.32 673.815 1163.32 674.98C1163.32 676.145 1162.89 677.133 1162.03 677.944C1161.17 678.704 1160.18 679.084 1159.07 679.084ZM1193.43 694.968C1191.75 694.157 1190.23 693.6 1188.87 693.296C1187.5 692.992 1186.13 692.84 1184.76 692.84C1182.33 692.84 1180.53 693.296 1179.37 694.208C1178.2 695.069 1177.62 696.235 1177.62 697.704C1177.62 698.768 1178.02 699.705 1178.83 700.516C1179.65 701.276 1181.34 702.036 1183.93 702.796L1186.21 703.48C1189.6 704.493 1192.16 705.811 1193.88 707.432C1195.66 709.003 1196.54 711.156 1196.54 713.892C1196.54 717.135 1195.33 719.744 1192.89 721.72C1190.51 723.696 1187.17 724.684 1182.86 724.684C1180.58 724.684 1178.38 724.481 1176.25 724.076C1174.17 723.671 1172.37 723.113 1170.85 722.404L1172.45 717.16C1173.92 717.869 1175.52 718.452 1177.24 718.908C1178.96 719.313 1180.71 719.516 1182.48 719.516C1184.76 719.516 1186.56 719.111 1187.88 718.3C1189.25 717.489 1189.93 716.147 1189.93 714.272C1189.93 712.651 1189.35 711.511 1188.18 710.852C1187.02 710.143 1185.35 709.459 1183.17 708.8L1180.81 708.04C1177.52 706.976 1175.06 705.659 1173.44 704.088C1171.87 702.467 1171.08 700.389 1171.08 697.856C1171.08 696.336 1171.41 694.943 1172.07 693.676C1172.73 692.409 1173.62 691.345 1174.73 690.484C1175.9 689.623 1177.26 688.964 1178.83 688.508C1180.41 688.001 1182.13 687.748 1184 687.748C1185.78 687.748 1187.6 687.925 1189.47 688.28C1191.4 688.584 1193.22 689.116 1194.95 689.876L1193.43 694.968ZM1219.13 724.684C1217.51 724.684 1215.94 724.456 1214.42 724C1212.95 723.544 1211.68 722.936 1210.62 722.176V741.48H1204.01V687.748H1209.56L1210.54 692.384C1211.91 691.117 1213.46 690.028 1215.18 689.116C1216.9 688.204 1218.93 687.748 1221.26 687.748C1226.02 687.748 1229.77 689.268 1232.51 692.308C1235.24 695.348 1236.61 699.705 1236.61 705.38C1236.61 708.724 1236.1 711.612 1235.09 714.044C1234.13 716.476 1232.81 718.477 1231.14 720.048C1229.52 721.619 1227.64 722.784 1225.52 723.544C1223.44 724.304 1221.31 724.684 1219.13 724.684ZM1219.82 693.22C1217.69 693.22 1215.84 693.752 1214.27 694.816C1212.7 695.829 1211.48 696.868 1210.62 697.932V717.008C1211.78 717.869 1213.03 718.503 1214.34 718.908C1215.66 719.313 1216.98 719.516 1218.3 719.516C1219.66 719.516 1221.03 719.288 1222.4 718.832C1223.77 718.325 1224.98 717.515 1226.05 716.4C1227.11 715.285 1227.97 713.841 1228.63 712.068C1229.29 710.295 1229.62 708.116 1229.62 705.532C1229.62 701.732 1228.81 698.743 1227.19 696.564C1225.62 694.335 1223.16 693.22 1219.82 693.22ZM1258.65 709.864C1258.65 707.989 1258.95 706.292 1259.56 704.772C1260.22 703.252 1261.08 701.884 1262.14 700.668C1263.21 699.452 1264.45 698.388 1265.87 697.476C1267.28 696.564 1268.8 695.779 1270.43 695.12C1269.11 693.651 1267.94 691.979 1266.93 690.104C1265.97 688.179 1265.49 686.076 1265.49 683.796C1265.49 682.124 1265.82 680.629 1266.47 679.312C1267.13 677.995 1268.02 676.88 1269.13 675.968C1270.3 675.005 1271.64 674.296 1273.16 673.84C1274.73 673.333 1276.38 673.08 1278.1 673.08C1279.82 673.08 1281.42 673.333 1282.89 673.84C1284.41 674.347 1285.7 675.081 1286.77 676.044C1287.88 676.956 1288.74 678.071 1289.35 679.388C1289.96 680.705 1290.26 682.149 1290.26 683.72C1290.26 686.405 1289.58 688.635 1288.21 690.408C1286.84 692.181 1285.04 693.625 1282.81 694.74L1279.7 691.016C1281.02 690.307 1282.05 689.369 1282.81 688.204C1283.62 687.039 1284.03 685.671 1284.03 684.1C1284.03 682.327 1283.45 680.883 1282.28 679.768C1281.17 678.653 1279.72 678.096 1277.95 678.096C1276.02 678.096 1274.53 678.628 1273.47 679.692C1272.4 680.756 1271.87 682.149 1271.87 683.872C1271.87 686.152 1272.5 688.255 1273.77 690.18C1275.04 692.055 1276.86 694.183 1279.24 696.564L1292.01 709.484C1292.87 708.167 1293.68 706.647 1294.44 704.924C1295.2 703.151 1295.86 701.453 1296.42 699.832L1301.89 702.036C1301.08 704.316 1300.17 706.444 1299.15 708.42C1298.14 710.396 1297.13 712.144 1296.11 713.664L1306.37 724H1298.17L1292.39 718.072C1291.68 718.883 1290.79 719.693 1289.73 720.504C1288.72 721.264 1287.53 721.948 1286.16 722.556C1284.79 723.164 1283.24 723.645 1281.52 724C1279.85 724.405 1278 724.608 1275.97 724.608C1273.34 724.608 1270.96 724.253 1268.83 723.544C1266.7 722.784 1264.88 721.745 1263.36 720.428C1261.84 719.111 1260.67 717.565 1259.86 715.792C1259.05 713.968 1258.65 711.992 1258.65 709.864ZM1265.18 709.712C1265.18 712.904 1266.22 715.336 1268.3 717.008C1270.43 718.629 1273.24 719.44 1276.73 719.44C1277.8 719.44 1278.89 719.313 1280 719.06C1281.17 718.807 1282.28 718.452 1283.35 717.996C1284.41 717.489 1285.37 716.907 1286.23 716.248C1287.15 715.589 1287.91 714.855 1288.51 714.044L1273.62 698.92C1272.5 699.477 1271.44 700.111 1270.43 700.82C1269.41 701.529 1268.5 702.34 1267.69 703.252C1266.93 704.113 1266.32 705.101 1265.87 706.216C1265.41 707.28 1265.18 708.445 1265.18 709.712ZM1335.09 724H1328.41V688.28H1333.57L1334.56 693.22C1336.23 691.548 1338.03 690.231 1339.96 689.268C1341.88 688.255 1344.19 687.748 1346.87 687.748C1349.41 687.748 1351.48 688.28 1353.11 689.344C1354.73 690.357 1355.94 691.776 1356.75 693.6C1358.53 691.725 1360.48 690.281 1362.61 689.268C1364.73 688.255 1367.09 687.748 1369.67 687.748C1373.32 687.748 1376.06 688.787 1377.88 690.864C1379.76 692.891 1380.69 695.728 1380.69 699.376V724H1374.01V700.592C1374.01 698.211 1373.5 696.387 1372.49 695.12C1371.47 693.853 1369.8 693.22 1367.47 693.22C1364.02 693.22 1360.81 694.765 1357.82 697.856C1357.87 698.109 1357.89 698.363 1357.89 698.616C1357.89 698.869 1357.89 699.123 1357.89 699.376V724H1351.21V700.592C1351.21 698.211 1350.7 696.387 1349.69 695.12C1348.67 693.853 1347 693.22 1344.67 693.22C1341.22 693.22 1338.03 694.841 1335.09 698.084V724ZM1421.45 706.9H1395.83V707.204C1395.83 711.156 1396.9 714.196 1399.03 716.324C1401.2 718.452 1404.14 719.516 1407.84 719.516C1409.77 719.516 1411.46 719.364 1412.93 719.06C1414.45 718.756 1416.1 718.249 1417.87 717.54L1419.24 722.48C1417.77 723.139 1416.02 723.671 1414 724.076C1412.02 724.481 1409.89 724.684 1407.61 724.684C1405.03 724.684 1402.6 724.329 1400.32 723.62C1398.09 722.911 1396.11 721.821 1394.39 720.352C1392.67 718.832 1391.3 716.907 1390.29 714.576C1389.32 712.245 1388.84 709.459 1388.84 706.216C1388.84 703.429 1389.25 700.896 1390.06 698.616C1390.92 696.336 1392.11 694.411 1393.63 692.84C1395.15 691.219 1396.97 689.977 1399.1 689.116C1401.28 688.204 1403.71 687.748 1406.4 687.748C1408.68 687.748 1410.73 688.128 1412.55 688.888C1414.43 689.648 1416.02 690.712 1417.34 692.08C1418.66 693.448 1419.67 695.095 1420.38 697.02C1421.09 698.945 1421.45 701.073 1421.45 703.404V706.9ZM1414.53 702.112C1414.53 700.795 1414.35 699.579 1414 698.464C1413.69 697.299 1413.19 696.285 1412.48 695.424C1411.82 694.563 1410.96 693.879 1409.89 693.372C1408.83 692.865 1407.54 692.612 1406.02 692.612C1403.23 692.612 1400.95 693.499 1399.18 695.272C1397.46 697.045 1396.39 699.376 1395.99 702.264L1414.53 702.112ZM1429.72 691.472C1430.94 690.864 1432.08 690.332 1433.14 689.876C1434.21 689.369 1435.27 688.964 1436.33 688.66C1437.4 688.356 1438.49 688.128 1439.6 687.976C1440.72 687.824 1441.93 687.748 1443.25 687.748C1445.23 687.748 1447.03 687.976 1448.65 688.432C1450.32 688.837 1451.74 689.547 1452.9 690.56C1454.12 691.573 1455.06 692.916 1455.71 694.588C1456.37 696.209 1456.7 698.261 1456.7 700.744V724H1451.15L1450.32 720.048H1450.17C1448.6 721.72 1446.87 722.911 1445 723.62C1443.12 724.329 1441.05 724.684 1438.77 724.684C1437.04 724.684 1435.45 724.456 1433.98 724C1432.56 723.493 1431.32 722.809 1430.25 721.948C1429.19 721.036 1428.35 719.947 1427.75 718.68C1427.19 717.413 1426.91 715.995 1426.91 714.424C1426.91 710.675 1428.38 707.837 1431.32 705.912C1434.31 703.936 1438.23 702.948 1443.1 702.948H1449.94V699.908C1449.94 697.324 1449.28 695.576 1447.96 694.664C1446.65 693.701 1444.87 693.22 1442.64 693.22C1441.33 693.22 1439.81 693.448 1438.08 693.904C1436.41 694.309 1434.49 695.12 1432.31 696.336L1429.72 691.472ZM1450.01 707.508L1444.39 707.66C1440.59 707.761 1437.88 708.445 1436.26 709.712C1434.69 710.928 1433.9 712.423 1433.9 714.196C1433.9 715.26 1434.08 716.172 1434.43 716.932C1434.79 717.641 1435.25 718.199 1435.8 718.604C1436.41 719.009 1437.09 719.313 1437.85 719.516C1438.67 719.668 1439.5 719.744 1440.36 719.744C1442.03 719.744 1443.73 719.364 1445.45 718.604C1447.18 717.793 1448.7 716.527 1450.01 714.804V707.508ZM1473.21 724H1466.53V688.28H1471.77L1472.76 693.22C1474.53 691.447 1476.38 690.104 1478.31 689.192C1480.28 688.229 1482.54 687.748 1485.07 687.748C1488.72 687.748 1491.58 688.787 1493.66 690.864C1495.74 692.891 1496.77 695.728 1496.77 699.376V724H1490.09V700.364C1490.09 698.185 1489.5 696.463 1488.34 695.196C1487.22 693.879 1485.5 693.22 1483.17 693.22C1479.62 693.22 1476.31 694.816 1473.21 698.008V724ZM1508.19 724V688.28H1514.88V724H1508.19ZM1511.53 679.084C1510.37 679.084 1509.35 678.704 1508.49 677.944C1507.68 677.133 1507.28 676.145 1507.28 674.98C1507.28 673.815 1507.68 672.827 1508.49 672.016C1509.35 671.205 1510.37 670.8 1511.53 670.8C1512.65 670.8 1513.63 671.205 1514.5 672.016C1515.36 672.827 1515.79 673.815 1515.79 674.98C1515.79 676.145 1515.36 677.133 1514.5 677.944C1513.63 678.704 1512.65 679.084 1511.53 679.084ZM1532.52 724H1525.83V688.28H1531.07L1532.06 693.22C1533.83 691.447 1535.68 690.104 1537.61 689.192C1539.58 688.229 1541.84 687.748 1544.37 687.748C1548.02 687.748 1550.88 688.787 1552.96 690.864C1555.04 692.891 1556.08 695.728 1556.08 699.376V724H1549.39V700.364C1549.39 698.185 1548.8 696.463 1547.64 695.196C1546.52 693.879 1544.8 693.22 1542.47 693.22C1538.92 693.22 1535.61 694.816 1532.52 698.008V724ZM1565.52 700.136C1565.52 698.16 1565.88 696.412 1566.59 694.892C1567.3 693.321 1568.28 692.004 1569.55 690.94C1570.87 689.876 1572.41 689.091 1574.19 688.584C1575.96 688.027 1577.88 687.748 1579.96 687.748C1580.72 687.748 1581.46 687.799 1582.17 687.9C1582.88 688.001 1583.58 688.128 1584.29 688.28H1599.72V693.22H1597.37L1591.29 692.384C1592.25 693.397 1592.98 694.563 1593.49 695.88C1594.05 697.197 1594.33 698.591 1594.33 700.06C1594.33 702.036 1593.97 703.809 1593.26 705.38C1592.55 706.9 1591.56 708.192 1590.3 709.256C1589.03 710.32 1587.51 711.131 1585.74 711.688C1583.96 712.195 1582.04 712.448 1579.96 712.448C1578.39 712.448 1577.02 712.347 1575.86 712.144C1574.69 712.549 1573.88 713.081 1573.43 713.74C1572.97 714.348 1572.74 715.007 1572.74 715.716C1572.74 716.881 1573.12 717.667 1573.88 718.072C1574.69 718.477 1575.76 718.68 1577.07 718.68H1586.5C1590.45 718.68 1593.46 719.592 1595.54 721.416C1597.67 723.189 1598.73 725.621 1598.73 728.712C1598.73 730.688 1598.3 732.461 1597.44 734.032C1596.58 735.603 1595.34 736.945 1593.72 738.06C1592.15 739.175 1590.22 740.011 1587.94 740.568C1585.66 741.176 1583.1 741.48 1580.27 741.48C1575.1 741.48 1570.97 740.543 1567.88 738.668C1564.84 736.844 1563.32 734.133 1563.32 730.536C1563.32 728.661 1563.9 727.091 1565.07 725.824C1566.28 724.557 1567.85 723.595 1569.78 722.936C1568.76 722.227 1568 721.492 1567.5 720.732C1566.99 719.921 1566.74 718.857 1566.74 717.54C1566.74 715.969 1567.19 714.627 1568.11 713.512C1569.07 712.397 1570.36 711.511 1571.98 710.852C1569.96 709.94 1568.36 708.623 1567.19 706.9C1566.08 705.127 1565.52 702.872 1565.52 700.136ZM1573.65 724C1571.07 725.165 1569.78 726.989 1569.78 729.472C1569.78 733.931 1573.38 736.16 1580.57 736.16C1582.7 736.16 1584.5 735.957 1585.97 735.552C1587.44 735.147 1588.63 734.615 1589.54 733.956C1590.45 733.297 1591.11 732.563 1591.51 731.752C1591.97 730.941 1592.2 730.105 1592.2 729.244C1592.2 727.116 1591.46 725.697 1589.99 724.988C1588.58 724.329 1586.78 724 1584.6 724H1573.65ZM1587.56 700.288C1587.56 697.603 1586.85 695.627 1585.43 694.36C1584.07 693.093 1582.24 692.46 1579.96 692.46C1577.68 692.46 1575.83 693.093 1574.41 694.36C1573.05 695.627 1572.36 697.501 1572.36 699.984C1572.36 702.619 1573.05 704.569 1574.41 705.836C1575.83 707.052 1577.68 707.66 1579.96 707.66C1582.24 707.66 1584.07 707.052 1585.43 705.836C1586.85 704.62 1587.56 702.771 1587.56 700.288ZM1621.37 669.66C1622.78 669.66 1624.25 669.863 1625.77 670.268C1627.34 670.673 1628.74 671.18 1629.95 671.788L1628.59 676.424C1627.57 676.019 1626.61 675.715 1625.7 675.512C1624.79 675.259 1623.82 675.132 1622.81 675.132C1620.38 675.132 1618.63 675.816 1617.57 677.184C1616.55 678.552 1616.05 680.883 1616.05 684.176V688.28H1626.91V693.296H1616.05V724H1609.43V693.296H1604.19V688.28H1609.43V681.972C1609.43 678.02 1610.45 674.98 1612.47 672.852C1614.55 670.724 1617.51 669.66 1621.37 669.66ZM1657.09 688.28H1663.78V724H1658.53L1657.62 719.516H1657.32C1656 720.985 1654.35 722.227 1652.38 723.24C1650.45 724.203 1648.2 724.684 1645.61 724.684C1641.91 724.684 1638.9 723.645 1636.57 721.568C1634.29 719.44 1633.15 716.248 1633.15 711.992V688.28H1639.84V711.156C1639.84 712.676 1640.01 713.968 1640.37 715.032C1640.77 716.096 1641.28 716.957 1641.89 717.616C1642.55 718.224 1643.31 718.68 1644.17 718.984C1645.03 719.237 1645.97 719.364 1646.98 719.364C1649.01 719.364 1650.83 718.933 1652.45 718.072C1654.07 717.211 1655.62 716.02 1657.09 714.5V688.28ZM1674.42 724V670.04H1680.96V724H1674.42ZM922.974 801.76C922.974 804.749 922.518 807.435 921.606 809.816C920.694 812.147 919.427 814.123 917.806 815.744C916.235 817.365 914.386 818.607 912.258 819.468C910.13 820.279 907.824 820.684 905.342 820.684C902.859 820.684 900.554 820.304 898.426 819.544C896.348 818.733 894.524 817.568 892.954 816.048C891.434 814.477 890.218 812.577 889.306 810.348C888.444 808.068 888.014 805.459 888.014 802.52C888.014 799.531 888.47 796.871 889.382 794.54C890.294 792.209 891.535 790.259 893.106 788.688C894.727 787.067 896.602 785.851 898.73 785.04C900.858 784.179 903.163 783.748 905.646 783.748C908.128 783.748 910.408 784.128 912.486 784.888C914.614 785.648 916.438 786.788 917.958 788.308C919.528 789.828 920.744 791.728 921.606 794.008C922.518 796.237 922.974 798.821 922.974 801.76ZM915.982 802.14C915.982 799.759 915.678 797.732 915.07 796.06C914.462 794.388 913.651 793.02 912.638 791.956C911.675 790.892 910.56 790.132 909.294 789.676C908.027 789.169 906.735 788.916 905.418 788.916C904.1 788.916 902.808 789.119 901.542 789.524C900.275 789.929 899.16 790.639 898.198 791.652C897.235 792.665 896.45 794.033 895.842 795.756C895.284 797.428 895.006 799.556 895.006 802.14C895.006 804.521 895.31 806.573 895.918 808.296C896.526 809.968 897.311 811.336 898.274 812.4C899.287 813.464 900.427 814.249 901.694 814.756C902.96 815.263 904.252 815.516 905.57 815.516C906.887 815.516 908.179 815.313 909.446 814.908C910.712 814.452 911.827 813.717 912.79 812.704C913.752 811.64 914.512 810.272 915.07 808.6C915.678 806.877 915.982 804.724 915.982 802.14ZM937.8 820H931.112V784.28H936.356L937.344 789.22C939.118 787.447 940.967 786.104 942.892 785.192C944.868 784.229 947.123 783.748 949.656 783.748C953.304 783.748 956.167 784.787 958.244 786.864C960.322 788.891 961.36 791.728 961.36 795.376V820H954.672V796.364C954.672 794.185 954.09 792.463 952.924 791.196C951.81 789.879 950.087 789.22 947.756 789.22C944.21 789.22 940.891 790.816 937.8 794.008V820ZM972.014 820V766.04H978.55V820H972.014ZM990.29 820V784.28H996.978V820H990.29ZM993.634 775.084C992.468 775.084 991.455 774.704 990.594 773.944C989.783 773.133 989.378 772.145 989.378 770.98C989.378 769.815 989.783 768.827 990.594 768.016C991.455 767.205 992.468 766.8 993.634 766.8C994.748 766.8 995.736 767.205 996.598 768.016C997.459 768.827 997.89 769.815 997.89 770.98C997.89 772.145 997.459 773.133 996.598 773.944C995.736 774.704 994.748 775.084 993.634 775.084ZM1014.62 820H1007.93V784.28H1013.17L1014.16 789.22C1015.93 787.447 1017.78 786.104 1019.71 785.192C1021.68 784.229 1023.94 783.748 1026.47 783.748C1030.12 783.748 1032.98 784.787 1035.06 786.864C1037.14 788.891 1038.18 791.728 1038.18 795.376V820H1031.49V796.364C1031.49 794.185 1030.91 792.463 1029.74 791.196C1028.63 789.879 1026.9 789.22 1024.57 789.22C1021.03 789.22 1017.71 790.816 1014.62 794.008V820ZM1078.93 802.9H1053.31V803.204C1053.31 807.156 1054.38 810.196 1056.51 812.324C1058.69 814.452 1061.62 815.516 1065.32 815.516C1067.25 815.516 1068.95 815.364 1070.41 815.06C1071.93 814.756 1073.58 814.249 1075.35 813.54L1076.72 818.48C1075.25 819.139 1073.51 819.671 1071.48 820.076C1069.5 820.481 1067.37 820.684 1065.09 820.684C1062.51 820.684 1060.08 820.329 1057.8 819.62C1055.57 818.911 1053.59 817.821 1051.87 816.352C1050.15 814.832 1048.78 812.907 1047.77 810.576C1046.8 808.245 1046.32 805.459 1046.32 802.216C1046.32 799.429 1046.73 796.896 1047.54 794.616C1048.4 792.336 1049.59 790.411 1051.11 788.84C1052.63 787.219 1054.45 785.977 1056.58 785.116C1058.76 784.204 1061.19 783.748 1063.88 783.748C1066.16 783.748 1068.21 784.128 1070.03 784.888C1071.91 785.648 1073.51 786.712 1074.82 788.08C1076.14 789.448 1077.15 791.095 1077.86 793.02C1078.57 794.945 1078.93 797.073 1078.93 799.404V802.9ZM1072.01 798.112C1072.01 796.795 1071.83 795.579 1071.48 794.464C1071.17 793.299 1070.67 792.285 1069.96 791.424C1069.3 790.563 1068.44 789.879 1067.37 789.372C1066.31 788.865 1065.02 788.612 1063.5 788.612C1060.71 788.612 1058.43 789.499 1056.66 791.272C1054.94 793.045 1053.87 795.376 1053.47 798.264L1072.01 798.112ZM1134.07 802.9H1108.46V803.204C1108.46 807.156 1109.52 810.196 1111.65 812.324C1113.83 814.452 1116.77 815.516 1120.47 815.516C1122.39 815.516 1124.09 815.364 1125.56 815.06C1127.08 814.756 1128.73 814.249 1130.5 813.54L1131.87 818.48C1130.4 819.139 1128.65 819.671 1126.62 820.076C1124.65 820.481 1122.52 820.684 1120.24 820.684C1117.65 820.684 1115.22 820.329 1112.94 819.62C1110.71 818.911 1108.74 817.821 1107.01 816.352C1105.29 814.832 1103.92 812.907 1102.91 810.576C1101.95 808.245 1101.47 805.459 1101.47 802.216C1101.47 799.429 1101.87 796.896 1102.68 794.616C1103.54 792.336 1104.73 790.411 1106.25 788.84C1107.77 787.219 1109.6 785.977 1111.73 785.116C1113.91 784.204 1116.34 783.748 1119.02 783.748C1121.3 783.748 1123.35 784.128 1125.18 784.888C1127.05 785.648 1128.65 786.712 1129.97 788.08C1131.28 789.448 1132.3 791.095 1133.01 793.02C1133.72 794.945 1134.07 797.073 1134.07 799.404V802.9ZM1127.15 798.112C1127.15 796.795 1126.98 795.579 1126.62 794.464C1126.32 793.299 1125.81 792.285 1125.1 791.424C1124.44 790.563 1123.58 789.879 1122.52 789.372C1121.45 788.865 1120.16 788.612 1118.64 788.612C1115.86 788.612 1113.58 789.499 1111.8 791.272C1110.08 793.045 1109.02 795.376 1108.61 798.264L1127.15 798.112ZM1156.88 801.912L1169.42 820H1161.82L1155.67 811.032L1152.85 806.396L1150.27 810.956L1144.34 820H1136.89L1149.28 801.912L1137.5 784.28H1145.03L1150.65 793.02L1153.39 797.58L1156.05 793.02L1161.29 784.28H1168.59L1156.88 801.912ZM1190.11 820.684C1188.49 820.684 1186.92 820.456 1185.4 820C1183.93 819.544 1182.66 818.936 1181.6 818.176V837.48H1174.99V783.748H1180.54L1181.52 788.384C1182.89 787.117 1184.44 786.028 1186.16 785.116C1187.88 784.204 1189.91 783.748 1192.24 783.748C1197 783.748 1200.75 785.268 1203.49 788.308C1206.22 791.348 1207.59 795.705 1207.59 801.38C1207.59 804.724 1207.09 807.612 1206.07 810.044C1205.11 812.476 1203.79 814.477 1202.12 816.048C1200.5 817.619 1198.62 818.784 1196.5 819.544C1194.42 820.304 1192.29 820.684 1190.11 820.684ZM1190.8 789.22C1188.67 789.22 1186.82 789.752 1185.25 790.816C1183.68 791.829 1182.46 792.868 1181.6 793.932V813.008C1182.77 813.869 1184.01 814.503 1185.32 814.908C1186.64 815.313 1187.96 815.516 1189.28 815.516C1190.64 815.516 1192.01 815.288 1193.38 814.832C1194.75 814.325 1195.96 813.515 1197.03 812.4C1198.09 811.285 1198.95 809.841 1199.61 808.068C1200.27 806.295 1200.6 804.116 1200.6 801.532C1200.6 797.732 1199.79 794.743 1198.17 792.564C1196.6 790.335 1194.14 789.22 1190.8 789.22ZM1246.07 802.9H1220.46V803.204C1220.46 807.156 1221.52 810.196 1223.65 812.324C1225.83 814.452 1228.76 815.516 1232.46 815.516C1234.39 815.516 1236.09 815.364 1237.56 815.06C1239.08 814.756 1240.72 814.249 1242.5 813.54L1243.86 818.48C1242.39 819.139 1240.65 819.671 1238.62 820.076C1236.64 820.481 1234.52 820.684 1232.24 820.684C1229.65 820.684 1227.22 820.329 1224.94 819.62C1222.71 818.911 1220.73 817.821 1219.01 816.352C1217.29 814.832 1215.92 812.907 1214.91 810.576C1213.94 808.245 1213.46 805.459 1213.46 802.216C1213.46 799.429 1213.87 796.896 1214.68 794.616C1215.54 792.336 1216.73 790.411 1218.25 788.84C1219.77 787.219 1221.6 785.977 1223.72 785.116C1225.9 784.204 1228.33 783.748 1231.02 783.748C1233.3 783.748 1235.35 784.128 1237.18 784.888C1239.05 785.648 1240.65 786.712 1241.96 788.08C1243.28 789.448 1244.29 791.095 1245 793.02C1245.71 794.945 1246.07 797.073 1246.07 799.404V802.9ZM1239.15 798.112C1239.15 796.795 1238.97 795.579 1238.62 794.464C1238.32 793.299 1237.81 792.285 1237.1 791.424C1236.44 790.563 1235.58 789.879 1234.52 789.372C1233.45 788.865 1232.16 788.612 1230.64 788.612C1227.85 788.612 1225.57 789.499 1223.8 791.272C1222.08 793.045 1221.01 795.376 1220.61 798.264L1239.15 798.112ZM1253.81 820V784.28H1258.83L1259.97 791.424C1260.83 789.144 1262.25 787.295 1264.22 785.876C1266.2 784.457 1268.48 783.748 1271.06 783.748C1272.38 783.748 1273.47 783.849 1274.33 784.052C1275.19 784.255 1275.98 784.508 1276.69 784.812L1275.4 790.664C1274.79 790.36 1274.1 790.107 1273.34 789.904C1272.63 789.701 1271.77 789.6 1270.76 789.6C1269.29 789.6 1267.92 789.853 1266.66 790.36C1265.44 790.867 1264.35 791.627 1263.39 792.64C1262.48 793.653 1261.74 794.92 1261.18 796.44C1260.68 797.909 1260.42 799.607 1260.42 801.532V820H1253.81ZM1282.93 820V784.28H1289.62V820H1282.93ZM1286.28 775.084C1285.11 775.084 1284.1 774.704 1283.24 773.944C1282.43 773.133 1282.02 772.145 1282.02 770.98C1282.02 769.815 1282.43 768.827 1283.24 768.016C1284.1 767.205 1285.11 766.8 1286.28 766.8C1287.39 766.8 1288.38 767.205 1289.24 768.016C1290.1 768.827 1290.53 769.815 1290.53 770.98C1290.53 772.145 1290.1 773.133 1289.24 773.944C1288.38 774.704 1287.39 775.084 1286.28 775.084ZM1330.97 802.9H1305.36V803.204C1305.36 807.156 1306.43 810.196 1308.55 812.324C1310.73 814.452 1313.67 815.516 1317.37 815.516C1319.29 815.516 1320.99 815.364 1322.46 815.06C1323.98 814.756 1325.63 814.249 1327.4 813.54L1328.77 818.48C1327.3 819.139 1325.55 819.671 1323.53 820.076C1321.55 820.481 1319.42 820.684 1317.14 820.684C1314.56 820.684 1312.13 820.329 1309.85 819.62C1307.62 818.911 1305.64 817.821 1303.92 816.352C1302.19 814.832 1300.83 812.907 1299.81 810.576C1298.85 808.245 1298.37 805.459 1298.37 802.216C1298.37 799.429 1298.77 796.896 1299.59 794.616C1300.45 792.336 1301.64 790.411 1303.16 788.84C1304.68 787.219 1306.5 785.977 1308.63 785.116C1310.81 784.204 1313.24 783.748 1315.93 783.748C1318.21 783.748 1320.26 784.128 1322.08 784.888C1323.96 785.648 1325.55 786.712 1326.87 788.08C1328.19 789.448 1329.2 791.095 1329.91 793.02C1330.62 794.945 1330.97 797.073 1330.97 799.404V802.9ZM1324.06 798.112C1324.06 796.795 1323.88 795.579 1323.53 794.464C1323.22 793.299 1322.71 792.285 1322.01 791.424C1321.35 790.563 1320.49 789.879 1319.42 789.372C1318.36 788.865 1317.07 788.612 1315.55 788.612C1312.76 788.612 1310.48 789.499 1308.71 791.272C1306.98 793.045 1305.92 795.376 1305.51 798.264L1324.06 798.112ZM1345.56 820H1338.87V784.28H1344.11L1345.1 789.22C1346.88 787.447 1348.72 786.104 1350.65 785.192C1352.63 784.229 1354.88 783.748 1357.41 783.748C1361.06 783.748 1363.92 784.787 1366 786.864C1368.08 788.891 1369.12 791.728 1369.12 795.376V820H1362.43V796.364C1362.43 794.185 1361.85 792.463 1360.68 791.196C1359.57 789.879 1357.84 789.22 1355.51 789.22C1351.97 789.22 1348.65 790.816 1345.56 794.008V820ZM1396.42 815.516C1398.04 815.516 1399.46 815.339 1400.67 814.984C1401.89 814.629 1403.08 814.173 1404.24 813.616L1405.69 818.632C1402.95 820 1399.68 820.684 1395.88 820.684C1393.3 820.684 1390.87 820.304 1388.59 819.544C1386.36 818.784 1384.38 817.644 1382.66 816.124C1380.99 814.553 1379.67 812.628 1378.71 810.348C1377.75 808.017 1377.26 805.307 1377.26 802.216C1377.26 799.379 1377.72 796.82 1378.63 794.54C1379.54 792.26 1380.81 790.335 1382.43 788.764C1384.05 787.143 1386 785.901 1388.28 785.04C1390.56 784.179 1393.07 783.748 1395.81 783.748C1397.38 783.748 1398.9 783.875 1400.37 784.128C1401.89 784.331 1403.61 784.863 1405.54 785.724L1404.02 790.816C1401.69 789.499 1399.18 788.84 1396.49 788.84C1392.79 788.84 1389.8 790.005 1387.52 792.336C1385.24 794.616 1384.1 797.833 1384.1 801.988C1384.1 804.572 1384.46 806.725 1385.17 808.448C1385.88 810.171 1386.81 811.564 1387.98 812.628C1389.15 813.641 1390.46 814.376 1391.93 814.832C1393.4 815.288 1394.9 815.516 1396.42 815.516ZM1441.48 802.9H1415.87V803.204C1415.87 807.156 1416.94 810.196 1419.06 812.324C1421.24 814.452 1424.18 815.516 1427.88 815.516C1429.81 815.516 1431.5 815.364 1432.97 815.06C1434.49 814.756 1436.14 814.249 1437.91 813.54L1439.28 818.48C1437.81 819.139 1436.06 819.671 1434.04 820.076C1432.06 820.481 1429.93 820.684 1427.65 820.684C1425.07 820.684 1422.64 820.329 1420.36 819.62C1418.13 818.911 1416.15 817.821 1414.43 816.352C1412.71 814.832 1411.34 812.907 1410.32 810.576C1409.36 808.245 1408.88 805.459 1408.88 802.216C1408.88 799.429 1409.29 796.896 1410.1 794.616C1410.96 792.336 1412.15 790.411 1413.67 788.84C1415.19 787.219 1417.01 785.977 1419.14 785.116C1421.32 784.204 1423.75 783.748 1426.44 783.748C1428.72 783.748 1430.77 784.128 1432.59 784.888C1434.47 785.648 1436.06 786.712 1437.38 788.08C1438.7 789.448 1439.71 791.095 1440.42 793.02C1441.13 794.945 1441.48 797.073 1441.48 799.404V802.9ZM1434.57 798.112C1434.57 796.795 1434.39 795.579 1434.04 794.464C1433.73 793.299 1433.23 792.285 1432.52 791.424C1431.86 790.563 1431 789.879 1429.93 789.372C1428.87 788.865 1427.58 788.612 1426.06 788.612C1423.27 788.612 1420.99 789.499 1419.22 791.272C1417.49 793.045 1416.43 795.376 1416.02 798.264L1434.57 798.112ZM1469.45 790.968C1467.77 790.157 1466.25 789.6 1464.89 789.296C1463.52 788.992 1462.15 788.84 1460.78 788.84C1458.35 788.84 1456.55 789.296 1455.39 790.208C1454.22 791.069 1453.64 792.235 1453.64 793.704C1453.64 794.768 1454.04 795.705 1454.85 796.516C1455.66 797.276 1457.36 798.036 1459.95 798.796L1462.23 799.48C1465.62 800.493 1468.18 801.811 1469.9 803.432C1471.68 805.003 1472.56 807.156 1472.56 809.892C1472.56 813.135 1471.35 815.744 1468.91 817.72C1466.53 819.696 1463.19 820.684 1458.88 820.684C1456.6 820.684 1454.4 820.481 1452.27 820.076C1450.19 819.671 1448.39 819.113 1446.87 818.404L1448.47 813.16C1449.94 813.869 1451.54 814.452 1453.26 814.908C1454.98 815.313 1456.73 815.516 1458.5 815.516C1460.78 815.516 1462.58 815.111 1463.9 814.3C1465.27 813.489 1465.95 812.147 1465.95 810.272C1465.95 808.651 1465.37 807.511 1464.2 806.852C1463.04 806.143 1461.36 805.459 1459.19 804.8L1456.83 804.04C1453.54 802.976 1451.08 801.659 1449.46 800.088C1447.89 798.467 1447.1 796.389 1447.1 793.856C1447.1 792.336 1447.43 790.943 1448.09 789.676C1448.75 788.409 1449.64 787.345 1450.75 786.484C1451.92 785.623 1453.28 784.964 1454.85 784.508C1456.42 784.001 1458.15 783.748 1460.02 783.748C1461.8 783.748 1463.62 783.925 1465.49 784.28C1467.42 784.584 1469.24 785.116 1470.97 785.876L1469.45 790.968ZM1479.27 815.896C1479.27 814.579 1479.72 813.464 1480.64 812.552C1481.55 811.64 1482.64 811.184 1483.9 811.184C1485.17 811.184 1486.23 811.64 1487.1 812.552C1488.01 813.464 1488.46 814.579 1488.46 815.896C1488.46 817.365 1488.01 818.531 1487.1 819.392C1486.23 820.253 1485.17 820.684 1483.9 820.684C1482.64 820.684 1481.55 820.253 1480.64 819.392C1479.72 818.531 1479.27 817.365 1479.27 815.896Z" fill="#633FA7"/>
<path d="M889.61 923.387V920.267H895.53V898.547H889.61V895.427H905.25V898.547H899.29V920.267H905.25V923.387H889.61ZM920.896 901.467V895.427H924.976V901.467L923.896 907.787H921.976L920.896 901.467ZM937.663 923.387V902.427H940.783V904.587C941.236 903.92 941.863 903.32 942.663 902.787C943.49 902.227 944.463 901.947 945.583 901.947C946.596 901.947 947.476 902.2 948.223 902.707C948.996 903.187 949.543 903.867 949.863 904.747C950.29 904.054 950.916 903.414 951.743 902.827C952.57 902.24 953.57 901.947 954.743 901.947C956.05 901.947 957.13 902.347 957.983 903.147C958.836 903.92 959.263 904.974 959.263 906.307V923.387H955.983V906.987C955.983 906.24 955.77 905.68 955.343 905.307C954.916 904.934 954.356 904.747 953.663 904.747C952.543 904.747 951.663 905.067 951.023 905.707C950.41 906.32 950.103 907.174 950.103 908.267V923.387H946.823V906.987C946.823 906.24 946.61 905.68 946.183 905.307C945.756 904.934 945.196 904.747 944.503 904.747C943.383 904.747 942.503 905.067 941.863 905.707C941.25 906.32 940.943 907.174 940.943 908.267V923.387H937.663ZM1009.92 921.187V923.707C1009.09 923.947 1008.42 924.067 1007.92 924.067C1005.68 924.067 1004.44 923.014 1004.2 920.907C1003.02 922.054 1001.88 922.88 1000.76 923.387C999.636 923.867 998.409 924.107 997.076 924.107C995.049 924.107 993.396 923.574 992.116 922.507C990.863 921.414 990.236 919.894 990.236 917.947C990.236 916.507 990.543 915.36 991.156 914.507C991.769 913.627 992.516 912.974 993.396 912.547C994.303 912.094 995.156 911.8 995.956 911.667C996.329 911.614 996.903 911.534 997.676 911.427C998.449 911.294 999.423 911.147 1000.6 910.987C1001.93 910.8 1002.85 910.547 1003.36 910.227C1003.89 909.907 1004.16 909.414 1004.16 908.747V908.027C1004.16 905.947 1002.56 904.907 999.356 904.907C997.809 904.907 996.636 905.214 995.836 905.827C995.063 906.414 994.609 907.347 994.476 908.627H991.116C991.169 906.2 991.956 904.467 993.476 903.427C995.023 902.36 997.036 901.827 999.516 901.827C1002.1 901.827 1004.06 902.32 1005.4 903.307C1006.73 904.267 1007.4 905.68 1007.4 907.547V919.627C1007.4 920.72 1008 921.267 1009.2 921.267C1009.41 921.267 1009.65 921.24 1009.92 921.187ZM1004.16 916.107V912.787C1003.46 913.107 1002.6 913.36 1001.56 913.547C1000.54 913.734 999.596 913.88 998.716 913.987C997.169 914.174 995.929 914.534 994.996 915.067C994.089 915.6 993.636 916.534 993.636 917.867C993.636 918.907 994.009 919.72 994.756 920.307C995.529 920.894 996.583 921.187 997.916 921.187C998.903 921.187 999.863 920.974 1000.8 920.547C1001.76 920.094 1002.56 919.48 1003.2 918.707C1003.84 917.934 1004.16 917.067 1004.16 916.107ZM1056.57 914.627V895.427H1060.29V915.147C1060.29 917.307 1059.84 919.04 1058.93 920.347C1058.05 921.654 1056.86 922.614 1055.37 923.227C1053.9 923.814 1052.29 924.107 1050.53 924.107C1048.72 924.107 1047.08 923.8 1045.61 923.187C1044.14 922.574 1042.98 921.614 1042.13 920.307C1041.28 918.974 1040.85 917.254 1040.85 915.147V895.427H1044.57V914.627C1044.57 916.254 1044.84 917.52 1045.37 918.427C1045.93 919.307 1046.66 919.934 1047.57 920.307C1048.48 920.654 1049.46 920.827 1050.53 920.827C1051.62 920.827 1052.62 920.64 1053.53 920.267C1054.44 919.894 1055.17 919.267 1055.73 918.387C1056.29 917.48 1056.57 916.227 1056.57 914.627ZM1083.1 923.387L1076.06 912.067L1069.02 923.387H1064.74L1074.1 909.067L1065.38 895.427H1069.74L1076.26 905.947L1082.74 895.427H1086.98L1078.22 908.947L1087.46 923.387H1083.1ZM1126.87 923.387H1117.83V895.427H1126.87C1129.24 895.427 1131.22 896.027 1132.79 897.227C1134.36 898.427 1135.54 900.08 1136.31 902.187C1137.11 904.267 1137.51 906.667 1137.51 909.387C1137.51 912.107 1137.11 914.52 1136.31 916.627C1135.54 918.734 1134.36 920.387 1132.79 921.587C1131.22 922.787 1129.24 923.387 1126.87 923.387ZM1121.55 898.707V920.107H1126.23C1128.84 920.107 1130.72 919.16 1131.87 917.267C1133.04 915.347 1133.63 912.734 1133.63 909.427C1133.63 906.094 1133.04 903.48 1131.87 901.587C1130.72 899.667 1128.84 898.707 1126.23 898.707H1121.55ZM1161.8 916.907C1161.45 919.094 1160.48 920.84 1158.88 922.147C1157.3 923.454 1155.29 924.107 1152.84 924.107C1150.73 924.107 1148.97 923.64 1147.56 922.707C1146.14 921.747 1145.08 920.44 1144.36 918.787C1143.66 917.134 1143.32 915.24 1143.32 913.107C1143.32 910.76 1143.72 908.747 1144.52 907.067C1145.32 905.387 1146.44 904.094 1147.88 903.187C1149.32 902.254 1151 901.787 1152.92 901.787C1155.08 901.787 1156.84 902.294 1158.2 903.307C1159.58 904.32 1160.6 905.734 1161.24 907.547C1161.9 909.36 1162.24 911.48 1162.24 913.907H1146.8C1146.85 915.96 1147.38 917.667 1148.4 919.027C1149.41 920.36 1150.93 921.027 1152.96 921.027C1155.7 921.027 1157.53 919.654 1158.44 916.907H1161.8ZM1152.88 904.867C1151.01 904.867 1149.58 905.48 1148.6 906.707C1147.61 907.934 1147.04 909.427 1146.88 911.187H1158.64C1158.64 910.014 1158.4 908.96 1157.92 908.027C1157.46 907.067 1156.81 906.307 1155.96 905.747C1155.1 905.16 1154.08 904.867 1152.88 904.867ZM1185.88 908.147H1182.4C1182.38 907.107 1181.98 906.28 1181.2 905.667C1180.46 905.054 1179.46 904.747 1178.2 904.747C1176.84 904.747 1175.74 905.027 1174.88 905.587C1174.06 906.147 1173.64 906.894 1173.64 907.827C1173.64 908.574 1173.9 909.174 1174.4 909.627C1174.91 910.08 1175.66 910.44 1176.64 910.707L1181.4 911.947C1183.16 912.4 1184.48 913.08 1185.36 913.987C1186.27 914.867 1186.72 916.054 1186.72 917.547C1186.72 919.574 1185.98 921.174 1184.48 922.347C1182.99 923.52 1180.94 924.107 1178.32 924.107C1172.83 924.107 1169.96 921.747 1169.72 917.027H1173.24C1173.4 918.44 1173.91 919.48 1174.76 920.147C1175.64 920.814 1176.86 921.147 1178.4 921.147C1179.9 921.147 1181.08 920.88 1181.96 920.347C1182.87 919.814 1183.32 919.054 1183.32 918.067C1183.32 917.16 1183.08 916.48 1182.6 916.027C1182.12 915.574 1181.31 915.2 1180.16 914.907L1175.76 913.747C1173.87 913.24 1172.47 912.56 1171.56 911.707C1170.68 910.827 1170.24 909.587 1170.24 907.987C1170.24 906.094 1170.96 904.587 1172.4 903.467C1173.87 902.347 1175.83 901.787 1178.28 901.787C1180.74 901.787 1182.6 902.36 1183.88 903.507C1185.19 904.627 1185.86 906.174 1185.88 908.147ZM1202.09 899.427V895.427H1206.09V899.427H1202.09ZM1205.73 902.427V920.667H1212.17V923.387H1195.25V920.667H1202.45V905.147H1195.25V902.427H1205.73ZM1228.74 932.107C1226.47 932.107 1224.55 931.6 1222.98 930.587C1221.4 929.6 1220.47 928 1220.18 925.787H1223.66C1224.14 928.134 1225.86 929.307 1228.82 929.307C1230.92 929.307 1232.43 928.72 1233.34 927.547C1234.27 926.4 1234.74 924.427 1234.74 921.627V920.427C1234.12 921.654 1233.27 922.574 1232.18 923.187C1231.11 923.8 1229.88 924.107 1228.5 924.107C1226.44 924.107 1224.74 923.614 1223.38 922.627C1222.02 921.64 1221 920.294 1220.34 918.587C1219.7 916.88 1219.38 914.96 1219.38 912.827C1219.38 910.774 1219.71 908.92 1220.38 907.267C1221.04 905.587 1222.04 904.254 1223.38 903.267C1224.74 902.28 1226.4 901.787 1228.38 901.787C1231.23 901.787 1233.38 902.867 1234.82 905.027V902.427H1238.14V919.987C1238.14 922.894 1237.9 925.107 1237.42 926.627C1236.83 928.44 1235.8 929.8 1234.34 930.707C1232.87 931.64 1231 932.107 1228.74 932.107ZM1228.98 920.987C1230.39 920.987 1231.52 920.6 1232.38 919.827C1233.23 919.027 1233.84 918.027 1234.22 916.827C1234.62 915.6 1234.82 914.347 1234.82 913.067C1234.82 911.654 1234.62 910.334 1234.22 909.107C1233.82 907.854 1233.19 906.84 1232.34 906.067C1231.48 905.294 1230.35 904.907 1228.94 904.907C1227.63 904.907 1226.52 905.267 1225.62 905.987C1224.71 906.68 1224.02 907.64 1223.54 908.867C1223.08 910.067 1222.86 911.427 1222.86 912.947C1222.86 914.36 1223.07 915.68 1223.5 916.907C1223.92 918.134 1224.58 919.12 1225.46 919.867C1226.36 920.614 1227.54 920.987 1228.98 920.987ZM1246.46 923.387V902.427H1249.54V905.907C1250.37 904.627 1251.32 903.627 1252.38 902.907C1253.48 902.187 1254.85 901.827 1256.5 901.827C1257.73 901.827 1258.84 902.04 1259.82 902.467C1260.84 902.867 1261.64 903.494 1262.22 904.347C1262.84 905.174 1263.14 906.24 1263.14 907.547V923.387H1259.82V908.867C1259.82 907.454 1259.4 906.414 1258.54 905.747C1257.69 905.08 1256.68 904.747 1255.5 904.747C1254.25 904.747 1253.2 905.067 1252.34 905.707C1251.49 906.347 1250.85 907.187 1250.42 908.227C1250 909.267 1249.78 910.387 1249.78 911.587V923.387H1246.46ZM1289.43 916.907C1289.08 919.094 1288.11 920.84 1286.51 922.147C1284.93 923.454 1282.92 924.107 1280.47 924.107C1278.36 924.107 1276.6 923.64 1275.19 922.707C1273.77 921.747 1272.71 920.44 1271.99 918.787C1271.29 917.134 1270.95 915.24 1270.95 913.107C1270.95 910.76 1271.35 908.747 1272.15 907.067C1272.95 905.387 1274.07 904.094 1275.51 903.187C1276.95 902.254 1278.63 901.787 1280.55 901.787C1282.71 901.787 1284.47 902.294 1285.83 903.307C1287.21 904.32 1288.23 905.734 1288.87 907.547C1289.53 909.36 1289.87 911.48 1289.87 913.907H1274.43C1274.48 915.96 1275.01 917.667 1276.03 919.027C1277.04 920.36 1278.56 921.027 1280.59 921.027C1283.33 921.027 1285.16 919.654 1286.07 916.907H1289.43ZM1280.51 904.867C1278.64 904.867 1277.21 905.48 1276.23 906.707C1275.24 907.934 1274.67 909.427 1274.51 911.187H1286.27C1286.27 910.014 1286.03 908.96 1285.55 908.027C1285.09 907.067 1284.44 906.307 1283.59 905.747C1282.73 905.16 1281.71 904.867 1280.51 904.867ZM1298.43 923.387V902.427H1301.51V906.947C1302.21 905.454 1303.21 904.227 1304.51 903.267C1305.82 902.307 1307.33 901.827 1309.03 901.827C1311.43 901.827 1313.26 902.44 1314.51 903.667C1315.79 904.894 1316.53 906.547 1316.71 908.627H1313.39C1313.15 907.374 1312.66 906.414 1311.91 905.747C1311.19 905.08 1310.13 904.747 1308.71 904.747C1307.33 904.747 1306.11 905.12 1305.07 905.867C1304.03 906.587 1303.22 907.587 1302.63 908.867C1302.07 910.12 1301.79 911.574 1301.79 913.227V923.387H1298.43ZM1365.01 923.387L1362.69 920.307C1361.62 921.427 1360.42 922.307 1359.09 922.947C1357.75 923.587 1356.37 923.907 1354.93 923.907C1352.37 923.907 1350.34 923.187 1348.85 921.747C1347.35 920.307 1346.61 918.334 1346.61 915.827C1346.61 912.574 1348.17 909.987 1351.29 908.067L1352.77 907.147L1352.73 907.067C1351.71 905.707 1350.95 904.6 1350.45 903.747C1349.94 902.894 1349.69 901.96 1349.69 900.947C1349.69 899.747 1349.99 898.694 1350.61 897.787C1351.25 896.88 1352.07 896.174 1353.09 895.667C1354.13 895.134 1355.23 894.867 1356.41 894.867C1358.25 894.867 1359.75 895.387 1360.93 896.427C1362.13 897.44 1362.73 898.88 1362.73 900.747C1362.73 901.92 1362.39 903.014 1361.73 904.027C1361.09 905.014 1360.15 905.907 1358.93 906.707L1357.21 907.827L1362.73 915.107C1363.45 913.534 1363.89 911.814 1364.05 909.947H1367.01C1366.93 911.36 1366.69 912.72 1366.29 914.027C1365.89 915.334 1365.35 916.534 1364.69 917.627L1369.09 923.387H1365.01ZM1354.25 903.987L1355.53 905.627L1357.69 904.267C1358.3 903.894 1358.78 903.387 1359.13 902.747C1359.47 902.08 1359.65 901.374 1359.65 900.627C1359.65 899.694 1359.35 898.974 1358.77 898.467C1358.18 897.934 1357.38 897.667 1356.37 897.667C1355.38 897.667 1354.55 897.947 1353.89 898.507C1353.25 899.067 1352.93 899.787 1352.93 900.667C1352.93 901.2 1353.02 901.734 1353.21 902.267C1353.39 902.774 1353.74 903.347 1354.25 903.987ZM1349.85 915.827C1349.85 917.267 1350.34 918.454 1351.33 919.387C1352.31 920.32 1353.54 920.787 1355.01 920.787C1356.15 920.787 1357.22 920.547 1358.21 920.067C1359.22 919.56 1360.13 918.854 1360.93 917.947L1354.45 909.387L1353.09 910.267C1351.89 911.04 1351.05 911.854 1350.57 912.707C1350.09 913.56 1349.85 914.6 1349.85 915.827ZM1406.42 915.387L1401.3 901.267V923.387H1398.14V895.427H1402.3L1407.98 911.507L1413.66 895.427H1417.74V923.387H1414.58V901.227L1409.54 915.387H1406.42ZM1442.59 916.907C1442.24 919.094 1441.27 920.84 1439.67 922.147C1438.09 923.454 1436.08 924.107 1433.63 924.107C1431.52 924.107 1429.76 923.64 1428.35 922.707C1426.93 921.747 1425.87 920.44 1425.15 918.787C1424.45 917.134 1424.11 915.24 1424.11 913.107C1424.11 910.76 1424.51 908.747 1425.31 907.067C1426.11 905.387 1427.23 904.094 1428.67 903.187C1430.11 902.254 1431.79 901.787 1433.71 901.787C1435.87 901.787 1437.63 902.294 1438.99 903.307C1440.37 904.32 1441.39 905.734 1442.03 907.547C1442.69 909.36 1443.03 911.48 1443.03 913.907H1427.59C1427.64 915.96 1428.17 917.667 1429.19 919.027C1430.2 920.36 1431.72 921.027 1433.75 921.027C1436.49 921.027 1438.32 919.654 1439.23 916.907H1442.59ZM1433.67 904.867C1431.8 904.867 1430.37 905.48 1429.39 906.707C1428.4 907.934 1427.83 909.427 1427.67 911.187H1439.43C1439.43 910.014 1439.19 908.96 1438.71 908.027C1438.25 907.067 1437.6 906.307 1436.75 905.747C1435.89 905.16 1434.87 904.867 1433.67 904.867ZM1464.55 894.227H1467.87V923.387H1464.91V920.427C1463.23 922.88 1461.01 924.107 1458.23 924.107C1456.18 924.107 1454.47 923.614 1453.11 922.627C1451.75 921.614 1450.74 920.24 1450.07 918.507C1449.43 916.774 1449.11 914.84 1449.11 912.707C1449.11 910.68 1449.45 908.854 1450.11 907.227C1450.78 905.574 1451.78 904.254 1453.11 903.267C1454.47 902.28 1456.14 901.787 1458.11 901.787C1460.97 901.787 1463.11 902.867 1464.55 905.027V894.227ZM1458.67 904.907C1457.37 904.907 1456.26 905.267 1455.35 905.987C1454.45 906.68 1453.75 907.64 1453.27 908.867C1452.82 910.067 1452.59 911.427 1452.59 912.947C1452.59 914.36 1452.81 915.68 1453.23 916.907C1453.66 918.134 1454.31 919.12 1455.19 919.867C1456.1 920.614 1457.27 920.987 1458.71 920.987C1460.13 920.987 1461.26 920.6 1462.11 919.827C1462.97 919.027 1463.58 918.027 1463.95 916.827C1464.35 915.6 1464.55 914.347 1464.55 913.067C1464.55 911.654 1464.35 910.334 1463.95 909.107C1463.55 907.854 1462.93 906.84 1462.07 906.067C1461.22 905.294 1460.09 904.907 1458.67 904.907ZM1482.88 899.427V895.427H1486.88V899.427H1482.88ZM1486.52 902.427V920.667H1492.96V923.387H1476.04V920.667H1483.24V905.147H1476.04V902.427H1486.52ZM1520.45 921.187V923.707C1519.62 923.947 1518.95 924.067 1518.45 924.067C1516.21 924.067 1514.97 923.014 1514.73 920.907C1513.55 922.054 1512.41 922.88 1511.29 923.387C1510.17 923.867 1508.94 924.107 1507.61 924.107C1505.58 924.107 1503.93 923.574 1502.65 922.507C1501.39 921.414 1500.77 919.894 1500.77 917.947C1500.77 916.507 1501.07 915.36 1501.69 914.507C1502.3 913.627 1503.05 912.974 1503.93 912.547C1504.83 912.094 1505.69 911.8 1506.49 911.667C1506.86 911.614 1507.43 911.534 1508.21 911.427C1508.98 911.294 1509.95 911.147 1511.13 910.987C1512.46 910.8 1513.38 910.547 1513.89 910.227C1514.42 909.907 1514.69 909.414 1514.69 908.747V908.027C1514.69 905.947 1513.09 904.907 1509.89 904.907C1508.34 904.907 1507.17 905.214 1506.37 905.827C1505.59 906.414 1505.14 907.347 1505.01 908.627H1501.65C1501.7 906.2 1502.49 904.467 1504.01 903.427C1505.55 902.36 1507.57 901.827 1510.05 901.827C1512.63 901.827 1514.59 902.32 1515.93 903.307C1517.26 904.267 1517.93 905.68 1517.93 907.547V919.627C1517.93 920.72 1518.53 921.267 1519.73 921.267C1519.94 921.267 1520.18 921.24 1520.45 921.187ZM1514.69 916.107V912.787C1513.99 913.107 1513.13 913.36 1512.09 913.547C1511.07 913.734 1510.13 913.88 1509.25 913.987C1507.7 914.174 1506.46 914.534 1505.53 915.067C1504.62 915.6 1504.17 916.534 1504.17 917.867C1504.17 918.907 1504.54 919.72 1505.29 920.307C1506.06 920.894 1507.11 921.187 1508.45 921.187C1509.43 921.187 1510.39 920.974 1511.33 920.547C1512.29 920.094 1513.09 919.48 1513.73 918.707C1514.37 917.934 1514.69 917.067 1514.69 916.107ZM1568.38 923.387L1565.9 915.027H1556.26L1553.78 923.387H1549.94L1558.78 895.427H1563.46L1572.26 923.387H1568.38ZM1557.18 911.907H1564.98L1561.06 898.787L1557.18 911.907ZM1579.23 923.387V902.427H1582.31V906.947C1583 905.454 1584 904.227 1585.31 903.267C1586.61 902.307 1588.12 901.827 1589.83 901.827C1592.23 901.827 1594.05 902.44 1595.31 903.667C1596.59 904.894 1597.32 906.547 1597.51 908.627H1594.19C1593.95 907.374 1593.45 906.414 1592.71 905.747C1591.99 905.08 1590.92 904.747 1589.51 904.747C1588.12 904.747 1586.91 905.12 1585.87 905.867C1584.83 906.587 1584.01 907.587 1583.43 908.867C1582.87 910.12 1582.59 911.574 1582.59 913.227V923.387H1579.23ZM1612.31 902.427H1620.55V905.147H1612.31V916.827C1612.31 918.374 1612.71 919.454 1613.51 920.067C1614.31 920.654 1615.47 920.947 1616.99 920.947C1617.69 920.947 1618.33 920.92 1618.91 920.867C1619.5 920.787 1620.05 920.68 1620.55 920.547V923.467C1619.89 923.654 1619.23 923.774 1618.59 923.827C1617.95 923.907 1617.35 923.947 1616.79 923.947C1614.26 923.947 1612.33 923.427 1610.99 922.387C1609.66 921.347 1608.99 919.694 1608.99 917.427V905.147H1602.95V902.427H1608.99V896.667H1612.31V902.427ZM1636.04 899.427V895.427H1640.04V899.427H1636.04ZM1639.68 902.427V920.667H1646.12V923.387H1629.2V920.667H1636.4V905.147H1629.2V902.427H1639.68ZM1670.89 908.147H1667.41C1667.38 907.107 1666.98 906.28 1666.21 905.667C1665.46 905.054 1664.46 904.747 1663.21 904.747C1661.85 904.747 1660.74 905.027 1659.89 905.587C1659.06 906.147 1658.65 906.894 1658.65 907.827C1658.65 908.574 1658.9 909.174 1659.41 909.627C1659.91 910.08 1660.66 910.44 1661.65 910.707L1666.41 911.947C1668.17 912.4 1669.49 913.08 1670.37 913.987C1671.27 914.867 1671.73 916.054 1671.73 917.547C1671.73 919.574 1670.98 921.174 1669.49 922.347C1667.99 923.52 1665.94 924.107 1663.33 924.107C1657.83 924.107 1654.97 921.747 1654.73 917.027H1658.25C1658.41 918.44 1658.91 919.48 1659.77 920.147C1660.65 920.814 1661.86 921.147 1663.41 921.147C1664.9 921.147 1666.09 920.88 1666.97 920.347C1667.87 919.814 1668.33 919.054 1668.33 918.067C1668.33 917.16 1668.09 916.48 1667.61 916.027C1667.13 915.574 1666.31 915.2 1665.17 914.907L1660.77 913.747C1658.87 913.24 1657.47 912.56 1656.57 911.707C1655.69 910.827 1655.25 909.587 1655.25 907.987C1655.25 906.094 1655.97 904.587 1657.41 903.467C1658.87 902.347 1660.83 901.787 1663.29 901.787C1665.74 901.787 1667.61 902.36 1668.89 903.507C1670.19 904.627 1670.86 906.174 1670.89 908.147ZM1688.89 902.427H1697.13V905.147H1688.89V916.827C1688.89 918.374 1689.29 919.454 1690.09 920.067C1690.89 920.654 1692.05 920.947 1693.57 920.947C1694.27 920.947 1694.91 920.92 1695.49 920.867C1696.08 920.787 1696.63 920.68 1697.13 920.547V923.467C1696.47 923.654 1695.81 923.774 1695.17 923.827C1694.53 923.907 1693.93 923.947 1693.37 923.947C1690.84 923.947 1688.91 923.427 1687.57 922.387C1686.24 921.347 1685.57 919.694 1685.57 917.427V905.147H1679.53V902.427H1685.57V896.667H1688.89V902.427ZM1711.54 917.947H1716.98V923.387H1711.54V917.947Z" fill="black"/>
<path d="M490.215 923C536.081 975 589.228 969.406 596.285 975C618.867 967.84 627.005 896.812 624.391 889.104C602.75 863.446 498.653 839.481 474.085 837.741C459.971 865.487 479.499 921.135 490.215 923Z" fill="url(#paint17_linear_533_1380)"/>
<path d="M412.259 795.843C424.711 843.576 438.536 892.793 466.709 925.43C472.369 931.986 460.684 949.199 438.535 925.43C408.735 893.448 395.833 821.248 393.107 789.145L412.259 795.843Z" fill="url(#paint18_linear_533_1380)"/>
<path d="M481.54 920.43C464.769 827.481 521.289 516.397 491.467 489.654C426.695 428.443 425.615 438 370.115 411C492.207 475.876 422.274 876.704 464.769 931.598C469.586 937.82 481.54 931.598 481.54 920.43Z" fill="url(#paint19_linear_533_1380)"/>
<path d="M414.413 1020C417.651 988.472 444.346 950.936 452.931 935.817C452.931 935.817 440.682 926.056 434.941 919.74C429.199 913.424 419.629 900.218 419.629 900.218C403.318 912.363 372.715 941.974 357.229 972.081C344.265 997.286 397.856 1016.53 414.413 1020Z" fill="url(#paint20_linear_533_1380)"/>
<path d="M482.551 864.739C469.895 759 637.68 611.162 567.236 530.625C622.555 534.918 674.091 558.847 713.564 588.546C735.949 605.388 750.448 619.691 762.705 642.041L482.551 864.739Z" fill="url(#paint21_linear_533_1380)"/>
<path d="M410.846 711.261C445.711 658.064 431.282 573.588 419.71 538C446.671 620.913 454.911 624.89 454.911 659.7L453.114 898.479C435.263 884.933 390.681 787.068 380.931 785.885C371.181 784.703 353.724 797.707 346.215 804.357C380.193 741.554 367.266 777.758 410.846 711.261Z" fill="url(#paint22_linear_533_1380)"/>
<circle cx="173.339" cy="640.025" r="28.2341" fill="white"/>
<path d="M277.097 962.96C252.628 963.475 258.488 963.909 239.235 959.611C224.811 956.392 218.232 947.462 218.162 943.77C185.879 928.56 194.266 916.773 204.084 900.859C206.228 803.08 203.823 782.748 202.036 777.691C183.393 764.833 165.497 692.355 159.196 664.836C146.981 657.107 144.427 644.996 144.677 639.906C141.537 638.036 136.013 637.049 133.643 636.79C124.817 634.047 120.477 626.171 119.411 622.576C132.777 609.536 141.824 595.408 144.677 589.975C154.552 571.164 167.968 531.317 148.344 504.396L133.643 477.132C108.719 469.994 61.9597 437.948 59.7007 373.567L116.8 403.708C122.565 407.826 136.224 420.017 143.001 436.395M277.097 962.96C279.491 964.366 287.943 967.298 302.6 967.777C309.107 964.903 324.37 959.156 333.375 959.156C342.381 959.156 345.191 951.651 345.47 947.899L349.422 933.17L357.086 964.664C356.846 966.021 356.511 969.43 357.086 972.208C357.804 975.681 333.375 959.156 312.773 1062.02L316.752 1092.52L308.795 1145.57C307.617 1151.16 303.403 1162.72 295.977 1164.13C270.782 1181.81 231.885 1226.01 302.6 1262.26L328.875 1289.01C328.028 1313.61 335.941 1357.76 337.178 1361.81M277.097 962.96L331.67 947.899C337.281 944.599 349.27 934.864 352.336 922.331C355.403 909.798 349.037 894.608 345.47 888.579V812.645" stroke="#FFF1B5"/>
<path d="M390.486 285.836L378.95 320.028C359.344 338.711 319.995 377.46 319.442 382.996L310.792 391.645" stroke="#FFF1B5"/>
<path d="M379.842 784.742L402.694 863.179L402.694 868.489C394.457 842.724 347.647 802.073 354.832 791.756C362.017 781.44 371.449 786.991 379.842 784.742Z" fill="url(#paint23_linear_533_1380)"/>
<path d="M574.234 1055.66L507.945 1139.3C473.893 1155.81 463.151 1244.35 503.213 1279.86C506.633 1291.84 510.38 1325.9 498.012 1366.27" stroke="#FFF1B5"/>
<path d="M729.405 1077.05C740.139 1070.69 761.606 1054.39 761.606 1040.08" stroke="#FFF1B5"/>
<path d="M610.748 985.419C715.223 953.911 717.253 954.437 737.005 979.881C766.314 1017.63 720.821 1080.5 720.821 1080.5C720.821 1080.5 769.649 1075.88 794.801 1025.2C821.767 970.866 831.615 874.56 825.895 859.366C769.235 835.873 633.965 756.87 610.748 836.47C587.531 916.07 596.929 988.528 610.748 985.419Z" fill="url(#paint24_radial_533_1380)"/>
<path d="M931.812 506.926L934.873 383.886L329.924 383.885C262.14 381.777 189.723 388.597 146.86 422.152C111.425 449.893 155.164 478.674 161.274 506.925L931.812 506.926Z" fill="url(#paint25_linear_533_1380)"/>
<path d="M294.182 622.383C294.376 617.512 306.09 602.546 337.42 587.582C338.979 600.441 329.72 626.591 294.182 622.383Z" fill="#FFE266"/>
<path d="M144.926 645.226C149.738 643.931 158.433 650.704 170.55 668.259C153.88 665.454 149.235 656.116 144.926 645.226Z" fill="#FFE266"/>
<rect x="137.478" y="643.12" width="9.94873" height="5.70605" transform="rotate(-32.5076 137.478 643.12)" fill="white"/>
</g>
<defs>
<linearGradient id="paint0_linear_533_1380" x1="302.215" y1="404.34" x2="1327.97" y2="404.34" gradientUnits="userSpaceOnUse">
<stop stop-color="#FFE266"/>
<stop offset="0.0001" stop-color="#FFE266"/>
<stop offset="1" stop-color="white"/>
</linearGradient>
<linearGradient id="paint1_linear_533_1380" x1="603.804" y1="1257.63" x2="935.218" y2="968.459" gradientUnits="userSpaceOnUse">
<stop offset="0.303932" stop-color="#FFE266"/>
<stop offset="1" stop-color="white" stop-opacity="0"/>
</linearGradient>
<linearGradient id="paint2_linear_533_1380" x1="294.667" y1="806" x2="504.058" y2="698.873" gradientUnits="userSpaceOnUse">
<stop offset="0.0860268" stop-color="#FFE266"/>
<stop offset="0.911399" stop-color="white" stop-opacity="0"/>
</linearGradient>
<linearGradient id="paint3_linear_533_1380" x1="103.044" y1="694.348" x2="252.851" y2="692.243" gradientUnits="userSpaceOnUse">
<stop offset="0.485102" stop-color="#FFE266"/>
<stop offset="0.70811" stop-color="#F3F1EF" stop-opacity="0"/>
</linearGradient>
<linearGradient id="paint4_linear_533_1380" x1="234.114" y1="495.798" x2="355.155" y2="534.46" gradientUnits="userSpaceOnUse">
<stop offset="0.401421" stop-color="#FFE266"/>
<stop offset="0.874339" stop-color="white" stop-opacity="0"/>
</linearGradient>
<linearGradient id="paint5_linear_533_1380" x1="194.981" y1="728.314" x2="576.603" y2="764.304" gradientUnits="userSpaceOnUse">
<stop offset="0.163507" stop-color="#FFE266"/>
<stop offset="0.473711" stop-color="white" stop-opacity="0"/>
<stop offset="0.584121" stop-color="white" stop-opacity="0"/>
</linearGradient>
<linearGradient id="paint6_linear_533_1380" x1="243.126" y1="934.418" x2="250.59" y2="963.4" gradientUnits="userSpaceOnUse">
<stop stop-color="#FFE266"/>
<stop offset="1" stop-color="white" stop-opacity="0"/>
</linearGradient>
<linearGradient id="paint7_linear_533_1380" x1="638.119" y1="1316.22" x2="516.612" y2="1197.15" gradientUnits="userSpaceOnUse">
<stop stop-color="#FFE266"/>
<stop offset="1" stop-color="white" stop-opacity="0"/>
</linearGradient>
<linearGradient id="paint8_linear_533_1380" x1="411.969" y1="1054.91" x2="466.692" y2="1058.66" gradientUnits="userSpaceOnUse">
<stop stop-color="white"/>
<stop offset="1" stop-color="#FFE266"/>
</linearGradient>
<linearGradient id="paint9_linear_533_1380" x1="474.902" y1="1003.5" x2="500.806" y2="1079.66" gradientUnits="userSpaceOnUse">
<stop stop-color="white"/>
<stop offset="1" stop-color="#FFE266"/>
</linearGradient>
<linearGradient id="paint10_linear_533_1380" x1="587.055" y1="1047.58" x2="586.534" y2="989.98" gradientUnits="userSpaceOnUse">
<stop stop-color="#FFE266"/>
<stop offset="1" stop-color="white"/>
</linearGradient>
<linearGradient id="paint11_linear_533_1380" x1="716.984" y1="1034.83" x2="653.899" y2="1162.85" gradientUnits="userSpaceOnUse">
<stop offset="0.0922444" stop-color="white"/>
<stop offset="1" stop-color="#FFE266"/>
</linearGradient>
<linearGradient id="paint12_linear_533_1380" x1="127.863" y1="486.547" x2="56.5393" y2="460.556" gradientUnits="userSpaceOnUse">
<stop stop-color="#FFE266"/>
<stop offset="1" stop-color="white" stop-opacity="0"/>
</linearGradient>
<linearGradient id="paint13_linear_533_1380" x1="138.902" y1="450.819" x2="103.685" y2="414.613" gradientUnits="userSpaceOnUse">
<stop stop-color="#FFE266"/>
<stop offset="1" stop-color="white" stop-opacity="0"/>
</linearGradient>
<linearGradient id="paint14_linear_533_1380" x1="260.969" y1="1186.76" x2="380.104" y2="1299.48" gradientUnits="userSpaceOnUse">
<stop offset="0.573545" stop-color="white"/>
<stop offset="0.965483" stop-color="#FFE266"/>
<stop offset="1" stop-color="white" stop-opacity="0"/>
</linearGradient>
<linearGradient id="paint15_linear_533_1380" x1="284.165" y1="936.504" x2="344.042" y2="1008.27" gradientUnits="userSpaceOnUse">
<stop offset="0.190859" stop-color="#FFE266"/>
<stop offset="1" stop-color="white" stop-opacity="0"/>
</linearGradient>
<linearGradient id="paint16_linear_533_1380" x1="433.849" y1="1061.07" x2="354.432" y2="1047.64" gradientUnits="userSpaceOnUse">
<stop stop-color="#FFEC99"/>
<stop offset="1" stop-color="#FFEC99" stop-opacity="0"/>
</linearGradient>
<linearGradient id="paint17_linear_533_1380" x1="608.053" y1="765.921" x2="536.275" y2="957.448" gradientUnits="userSpaceOnUse">
<stop offset="0.695664" stop-color="white"/>
<stop offset="1" stop-color="#FFE266"/>
</linearGradient>
<linearGradient id="paint18_linear_533_1380" x1="480.875" y1="984.43" x2="376.118" y2="855.753" gradientUnits="userSpaceOnUse">
<stop stop-color="#FFE266"/>
<stop offset="1" stop-color="white"/>
</linearGradient>
<linearGradient id="paint19_linear_533_1380" x1="565.952" y1="996.903" x2="455.46" y2="883.468" gradientUnits="userSpaceOnUse">
<stop offset="0.486994" stop-color="#FFE266"/>
<stop offset="1" stop-color="white"/>
</linearGradient>
<linearGradient id="paint20_linear_533_1380" x1="439.064" y1="1006.99" x2="325.105" y2="901.401" gradientUnits="userSpaceOnUse">
<stop stop-color="#FFE266"/>
<stop offset="0.639791" stop-color="white"/>
</linearGradient>
<linearGradient id="paint21_linear_533_1380" x1="437.993" y1="710.026" x2="784.979" y2="767.592" gradientUnits="userSpaceOnUse">
<stop stop-color="#FFE266"/>
<stop offset="0.423098" stop-color="white"/>
</linearGradient>
<linearGradient id="paint22_linear_533_1380" x1="379.085" y1="711.631" x2="486.562" y2="740.062" gradientUnits="userSpaceOnUse">
<stop stop-color="#FFE266"/>
<stop offset="1" stop-color="white"/>
</linearGradient>
<linearGradient id="paint23_linear_533_1380" x1="270.342" y1="784.742" x2="437.323" y2="839.083" gradientUnits="userSpaceOnUse">
<stop stop-color="white" stop-opacity="0"/>
<stop offset="1" stop-color="#FFE266"/>
</linearGradient>
<radialGradient id="paint24_radial_533_1380" cx="0" cy="0" r="1" gradientUnits="userSpaceOnUse" gradientTransform="translate(561.566 1026.52) rotate(-52.7791) scale(402.191 345.565)">
<stop stop-color="#FFE266"/>
<stop offset="0.549684" stop-color="white"/>
</radialGradient>
<linearGradient id="paint25_linear_533_1380" x1="364.55" y1="383.537" x2="970.085" y2="754.182" gradientUnits="userSpaceOnUse">
<stop stop-color="#FFE266"/>
<stop offset="1" stop-color="white" stop-opacity="0"/>
</linearGradient>
<clipPath id="clip0_533_1380">
<rect width="1977" height="1882" fill="white"/>
</clipPath>
</defs>
</svg>
