<svg width="1880" height="1387" viewBox="0 0 1880 1387" fill="none" xmlns="http://www.w3.org/2000/svg">
<path d="M58 53V1094.5C1343 1119.5 559 422.5 1880 473V53H58Z" fill="white"/>
<circle cx="406.485" cy="406.485" r="406.485" transform="matrix(-0.956836 -0.290629 -0.290629 0.956836 1218.48 425.245)" fill="url(#paint0_radial_102_5303)"/>
<path d="M798.579 1386.38L677.442 726.546L737.754 712.388L923.418 1324.8L798.579 1386.38Z" fill="url(#paint1_linear_102_5303)"/>
<path d="M1431.1 739.302L753.818 753.805L735.232 731.202L1413.87 574.113L1431.1 739.302Z" fill="url(#paint2_linear_102_5303)"/>
<path d="M1430.34 543.947L742.554 730.849L714.77 719.463L1421.98 483.409L1430.34 543.947Z" fill="url(#paint3_linear_102_5303)"/>
<path d="M0.115521 778.849L725.305 717.049L736.517 769.695L53.3556 898.756L0.115521 778.849Z" fill="url(#paint4_linear_102_5303)"/>
<path d="M685.432 0.760803L730.02 735.363L682.879 729.957L367.103 142.831L685.432 0.760803Z" fill="url(#paint5_linear_102_5303)"/>
<rect x="974.411" y="1181.15" width="19" height="2" fill="#281942"/>
<path d="M630.503 824.817L709.193 805.15C725.428 808.213 701 825.5 806.5 811.5C911.891 797.514 915.401 821.563 920.484 856.392L920.5 856.5C934 949 924.606 1063.27 924.606 1063.27L1024 1079L1008.5 1180.29H968.869L1000.5 1237C1000.5 1251.77 1000.84 1285.01 987.557 1306.15L941.327 1253.54L951.5 1323C829.531 1318.67 715.287 1282.84 682.5 1263.5L694.439 1104.08C663 1075.5 616 1062.5 588 1055C588 1055 579.586 1098.38 565.5 1123.5C554.221 1143.62 533.5 1160.5 533.5 1160.5L489.354 1147.34L476.075 1113.91C441.058 1088.35 457.878 979.689 470.665 928.557C470.665 928.557 458.37 898.074 454.927 883.816C453.506 877.929 454.928 871.524 460.337 863.166C468.88 852.024 473.574 847.996 483.944 840.55C502.494 827.23 536.5 824.817 536.5 824.817C536.5 824.817 535.5 821.967 546.5 818C565.821 811.031 603.277 824.817 630.503 824.817Z" fill="#633FA7"/>
<path d="M587.5 1055.5C614.5 1059 670.333 1084.83 694.5 1104.5H743C743 1104.5 623.819 950.164 621 940L587.5 1055.5Z" fill="url(#paint6_linear_102_5303)"/>
<path d="M546 827.5C588.5 790.5 618 932.5 618 932.5C618 932.5 592.213 870.447 573 846C555.898 824.239 545.058 840.686 546 827.5Z" fill="url(#paint7_linear_102_5303)"/>
<path d="M991.647 1145.5L1059.27 1143.06L1065.53 1085.59L1010.45 1077.78L991.647 1145.5Z" fill="#FFC73B"/>
<path d="M941.411 1253.48L867.053 1070.87L865.576 1034.94L791.218 958.154L705.534 895.151L648.411 924.684L705.534 910.902L679.435 1243.63C679.435 1243.63 723.754 1267.75 791.218 1287.44C858.682 1307.13 930.578 1306.14 930.578 1306.14L941.411 1253.48Z" fill="url(#paint8_linear_102_5303)"/>
<path d="M781.926 806.951C701.994 753.323 657.074 789.535 648.543 813.852C646.082 852.792 642.144 930.179 646.082 928.207C651.003 925.743 695.793 919.828 699.238 924.757C701.994 928.7 692.512 956.303 687.426 969.612C723.257 972.766 817.856 1025.47 860.677 1051.43L867.075 1071.15C872.194 1064.45 876.099 970.762 877.411 924.757L838.036 902.083L853.294 893.211L781.926 806.951Z" fill="url(#paint9_linear_102_5303)"/>
<path d="M734 998L659.875 998L651.376 980L725.5 981L734 998Z" fill="url(#paint10_linear_102_5303)"/>
<path d="M782.126 807.379C702.361 753.907 771.975 826.383 763.461 850.628C761.006 889.454 830.26 962.683 834.189 960.717C839.1 958.26 843.521 992.663 844.994 1002C846.468 1011.34 846.092 1014.49 848.924 1022.64C852.853 1033.95 847.941 1020.19 859.238 1051.64C870.535 1083.09 870.535 1081.13 870.535 1081.13C870.535 1081.13 876.101 970.71 877.411 924.84L838.118 902.233L853.344 893.386L782.126 807.379Z" fill="url(#paint11_linear_102_5303)"/>
<ellipse cx="717.911" cy="680.151" rx="118.5" ry="115" fill="#FFF500"/>
<path d="M773.994 779.155C719.867 810.405 650.656 791.86 619.406 737.733C588.156 683.607 606.701 614.395 660.828 583.145C714.954 551.896 784.166 570.441 815.415 624.567C846.665 678.694 828.12 747.905 773.994 779.155Z" fill="url(#paint12_radial_102_5303)"/>
<path d="M771.411 682.651C771.411 712.199 747.458 736.151 717.911 736.151C688.364 736.151 664.411 712.199 664.411 682.651C664.411 653.104 688.364 629.151 717.911 629.151C747.458 629.151 771.411 653.104 771.411 682.651Z" fill="white"/>
<path d="M760.335 778.141C738.706 769.104 693.645 774.376 673.818 778.141L668.411 808.103C685.616 831.679 718.508 864.595 745.097 890.62C769.184 914.196 822.273 965.606 843.411 1000.15C836.726 917.241 785.242 817.599 760.335 778.141Z" fill="#FFC73B"/>
<path d="M751.798 774.626C748.349 773.643 730.612 773.315 722.236 773.151L710.411 801.662C714.353 805.103 723.269 811.317 729.626 816.409C738.241 823.308 745.283 828.097 746.871 829.681C749.63 832.434 765.922 885.063 770.521 915.704C770.521 915.704 796.015 944.359 810.922 961.419C827.674 980.59 845.411 1006.15 845.411 1006.15C844.377 993.559 842.199 969.983 838.021 952.571C832.249 928.522 822.254 906.856 822.254 906.856C822.254 906.856 784.48 848.196 768.55 826.732L771.013 801.662C767.893 794.78 755.373 775.645 751.798 774.626Z" fill="#281942"/>
<path d="M673.844 778.116C686.684 775.701 712.521 772.663 735.085 773.218C735.085 773.218 735.085 773.218 735.085 773.218C735.085 773.218 735.085 773.218 735.085 773.218C740.078 773.34 744.911 773.639 749.407 774.159C756.113 774.934 762.07 776.203 766.693 778.116C772.004 785.86 774.825 792.203 779.534 803.037C783.144 811.345 789.411 828.935 789.411 828.935L749.407 774.159C749.407 774.159 741.505 773.482 735.085 773.218C735.085 773.218 735.085 773.218 735.085 773.218C719.281 803.823 696.562 841.151 696.562 841.151C696.562 841.151 683.227 827.958 668.411 807.923L673.844 778.116Z" fill="#FFE266"/>
<path d="M534.507 847.179C534.507 847.179 520.888 870.506 498.869 881.96C476.85 893.413 464.968 899.836 457.608 885.686C452.507 869.265 468.402 855.26 485.746 841.258C507.765 829.804 534.507 847.179 534.507 847.179Z" fill="#281942"/>
<path d="M534.411 847.416V798.151L484.411 826.232V889.151C491.967 886.722 503.18 880.537 514.313 870.57C521.238 864.371 527.832 856.862 534.411 847.416Z" fill="#FFC73B"/>
<path d="M489.219 1147.15L470.895 927.151C449.104 1021.72 447.123 1091.29 475.847 1113.83L489.219 1147.15Z" fill="url(#paint13_linear_102_5303)"/>
<path d="M538.502 1127L533.706 922L555.493 916C555.493 916 558.884 1011.04 555.493 1040.57C552.102 1070.11 538.502 1127 538.502 1127Z" fill="url(#paint14_linear_102_5303)"/>
<path d="M1025 1080L924.428 1065.15C924.428 1065.15 925 1103 924.428 1108.5C923.855 1114 969.232 1181.15 969.232 1181.15H1008.5L1025 1080Z" fill="url(#paint15_linear_102_5303)"/>
<circle cx="501.411" cy="908.151" r="8" fill="#281942"/>
<circle cx="884.911" cy="1078.65" r="7.5" fill="#281942"/>
<circle cx="504.411" cy="934.151" r="8" fill="#281942"/>
<path d="M811 1106C796.073 1120.13 742.411 1159.23 742.411 1159.23V1189.15C742.411 1189.15 808.535 1145.65 824.411 1125.87L811 1106Z" fill="url(#paint16_linear_102_5303)"/>
<path d="M924.5 1127.35L945.5 1145.5L939 1127.35L924.5 1107V1127.35Z" fill="url(#paint17_linear_102_5303)"/>
<path d="M1047.41 1122.15L1062.41 1069.15L1111.64 1082.95C1116.41 1083.11 1127.81 1088.87 1135.31 1110.57C1142.8 1132.27 1157.17 1179.78 1163.41 1200.82C1157.73 1235.38 1140.45 1184.61 1143.03 1179.65C1133.74 1179.21 1135.81 1170.31 1146.65 1205.75C1146.65 1205.75 1127.48 1228.44 1116.57 1230.9C1106.71 1234.46 1095.86 1220.05 1095.86 1220.05C1099.48 1225.97 1081.91 1200.82 1081.91 1200.82C1082.9 1196.05 1096.39 1190.14 1073.91 1175.15L1064.8 1177.64C1059.54 1173.2 1050.21 1160.48 1054.94 1145.09L1047.41 1139.15L1047.41 1122.15Z" fill="url(#paint18_linear_102_5303)"/>
<ellipse cx="1054.91" cy="1143.15" rx="5.5" ry="5" fill="#281942"/>
<path d="M1044.41 1144.94H1054.94C1050.21 1160.33 1047.15 1176.56 1052.41 1181L1064.8 1196.23C1087.28 1211.22 1043.91 1235.5 1060.86 1251.5C1077.42 1244.79 1096.03 1235.92 1092.41 1230L1095.86 1196.23C1101.29 1193.27 1119.14 1179.52 1124.07 1186.92C1129 1194.32 1138.41 1217.5 1138.41 1217.5C1135.73 1265.13 1127.71 1292.89 1134.91 1315C1137.37 1322.54 1139.99 1327.18 1144.91 1330C1151.24 1333.63 1151.12 1324.67 1154.91 1324.5C1147.42 1318.58 1168.17 1234.2 1174.41 1196.23C1168.17 1175.19 1164.87 1106.41 1160.41 1100.5C1140.41 1074 1121.68 1065.16 1116.91 1065L1068.41 1053.5L1064.8 1044L1039.41 1042L1044.41 1144.94Z" fill="url(#paint19_linear_102_5303)"/>
<path d="M1100.61 1222.37L1100.41 1222.65C1100.46 1222.58 1100.53 1222.48 1100.61 1222.37L1104.9 1216.37C1106.4 1213.99 1107.82 1211.24 1108.41 1208.65C1109.08 1205.69 1111.3 1199.59 1109.41 1195.82C1107.41 1191.82 1104.41 1191.82 1101.66 1192.99L1097.41 1195.82L1095.41 1197.15C1096.41 1196.49 1098.91 1194.15 1101.66 1192.99L1105.91 1190.15L1113.91 1195.15L1127.41 1200.15L1117.41 1199.15L1117.41 1203.65L1125.91 1219.65L1115.91 1205.65L1110.41 1208.65L1104.9 1216.37C1103.15 1219.15 1101.31 1221.43 1100.61 1222.37Z" fill="#281942"/>
<path d="M1106.41 1097.65L1054.91 1144.65H1044.41L1068.41 1077.65L1063.41 1129.15L1084.41 1090.15L1068.41 1129.15L1106.41 1097.65Z" fill="url(#paint20_linear_102_5303)"/>
<path d="M516.746 683.062C521.148 673.248 552.059 608.317 553.233 600.858C554.7 591.535 571.331 621.959 557.146 654.345C545.798 680.254 541.493 690.166 539.537 694.092C550.77 698.229 568.379 709.928 566.731 721.446C569.81 714.43 576.092 702.087 583.759 697.783C584.077 697.604 584.374 697.407 584.652 697.192C587.048 690.557 588.411 684.651 588.411 684.651C588.411 684.651 589.513 693.446 584.652 697.192C583.696 699.839 582.576 702.601 581.313 705.151C577.852 712.136 583.838 729.049 581.313 735.076C575.017 750.104 570.842 770.151 570.842 770.151C563.179 779.802 545.7 798.317 537.091 795.177V831.651C527.714 848.114 497.411 876.651 482.411 873.651C467.911 868.651 466.411 855.651 467.911 848.151L480.06 800.34C471.419 768.444 468.321 712.504 488.865 722.809C491.8 709.56 488.666 696.055 505.297 702.434C505.985 692.876 506.474 678.155 516.746 683.062Z" fill="#633FA7"/>
<path d="M516.746 683.111C521.148 673.291 552.059 608.322 553.233 600.859C554.7 591.53 571.331 621.972 557.146 654.377C545.798 680.302 541.493 690.22 539.537 694.148C550.77 698.287 568.379 709.993 566.731 721.518C569.809 714.498 576.092 702.147 583.759 697.841C584.199 697.593 584.607 697.323 584.987 697.035C587.894 690.903 589.911 687.151 589.911 687.151C589.911 687.151 589.681 693.472 584.987 697.035C583.208 700.787 581.097 705.431 578.911 710.651C572.616 725.688 570.842 770.251 570.842 770.251C563.179 779.907 545.7 798.434 537.091 795.292C537.091 795.292 541.752 803.868 525.411 815.651C509.071 827.435 492.411 820.651 492.411 820.651C485.871 818.366 483.414 810.154 480.06 800.458C471.419 768.543 468.321 712.57 488.865 722.881C491.8 709.624 488.666 696.112 505.297 702.494C505.985 692.931 506.474 678.201 516.746 683.111Z" fill="url(#paint21_linear_102_5303)"/>
<path d="M570.739 770.571C570.739 770.571 580.593 721.798 586.911 706.651C592.691 692.796 594.411 690.151 594.411 690.151C594.411 690.151 598.413 687.762 596.911 681.151C594.411 670.151 574.595 682.302 569.411 687.651C555.433 702.077 564.557 726.553 564.557 726.553C543.939 720.876 511.54 750.551 524.303 759.453C537.067 768.356 536.867 795.794 536.867 795.794C545.507 798.96 563.049 780.298 570.739 770.571Z" fill="url(#paint22_linear_102_5303)"/>
<path d="M554.777 600.857C553.585 608.308 522.186 673.178 517.714 682.983C507.28 678.081 506.783 692.788 506.084 702.337C489.191 695.964 494.159 713.123 491.178 726.359C480.809 721.244 475.121 730.563 473.911 746.151C474.604 758.651 474.719 752.151 476.911 764.151C479.911 772.151 480.911 775.151 485.411 775.151C489.911 775.151 487.664 778.732 491.911 781.651C496.158 784.571 510.56 780.823 515.23 779.561C519.909 778.297 525.167 772.207 525.167 772.207L566.205 728.81C575.347 715.868 553.949 698.742 540.865 694.003C542.852 690.081 547.225 680.178 558.752 654.293C573.161 621.937 556.268 591.542 554.777 600.857Z" fill="url(#paint23_linear_102_5303)"/>
<path d="M553.781 600.855C552.589 608.297 521.198 673.083 516.728 682.875C506.296 677.979 507.29 692.668 505.101 702.205C486.427 692.178 487.42 725.472 487.42 725.472C487.42 725.472 508.122 734.388 516.728 744.567C524.179 753.38 532.126 764.151 532.126 764.151L565.206 728.644C574.346 715.718 552.953 698.614 539.872 693.881C541.859 689.964 546.23 680.074 557.755 654.222C572.16 621.908 555.271 591.552 553.781 600.855Z" fill="url(#paint24_linear_102_5303)"/>
<path d="M553.799 600.855C552.609 608.299 521.261 673.1 516.797 682.895C506.38 677.997 503.109 691.475 502.411 701.014C516.006 708.126 519.358 709.713 527.214 714.237C527.214 714.237 545.339 726.47 551.521 738.234C552.503 740.102 552.513 742.151 552.513 742.151L565.209 728.673C574.336 715.745 552.973 698.637 539.91 693.903C541.894 689.985 546.259 680.093 557.768 654.235C572.153 621.913 555.288 591.55 553.799 600.855Z" fill="url(#paint25_linear_102_5303)"/>
<path d="M553.619 600.859C552.422 608.323 520.9 673.294 516.411 683.114L539.652 694.151C541.648 690.223 546.037 680.305 557.61 654.38C572.075 621.973 555.116 591.53 553.619 600.859Z" fill="url(#paint26_linear_102_5303)"/>
<path d="M668.5 948.5L655.319 980.177L707.968 980.557L668.5 948.5Z" fill="#FFC73B"/>
<path d="M685.5 948L671.928 979.634L724.563 980.925L685.5 948Z" fill="#FFE266"/>
<path d="M683 1266.5L694.5 1105L743 1102.5V1288L683 1266.5Z" fill="url(#paint27_linear_102_5303)"/>
<path d="M493.778 771.033L491.363 769.051L490.485 771.033L490.924 777.227L489.826 772.52L487.411 776.484L491.363 767.317L487.411 758.15L492.46 766.821L494.656 769.794L504.411 778.15L494.656 771.033L493.778 774.254V771.033Z" fill="#281942"/>
<path d="M573 966L576 991L616 943L573 966Z" fill="url(#paint28_linear_102_5303)"/>
<path d="M573 924V949.5L611 931L573 924Z" fill="url(#paint29_linear_102_5303)"/>
<path d="M1051.32 447.012C1043.01 391.915 963.938 356.464 918.42 338.49L919.801 591.607C966.783 607.847 967.682 607.372 995.242 617.59C1022.8 627.808 1041.32 633.834 1054.58 667.175L1051.32 447.012Z" fill="#FF8DDF" fill-opacity="0.25"/>
<path d="M1043.77 718.445C1051.32 718.275 1055.16 717.927 1055.09 667.12L1051.27 508.156C1051.27 508.156 1050.13 528.637 1047.4 535.301C1045.18 540.716 1039.35 544.944 1039.35 544.944L1043.77 718.445Z" fill="#FF8DDF" fill-opacity="0.5"/>
<path d="M957.42 604.605V356.19C971.02 360.33 1002.09 382.066 1015.92 392.417V625.777C1005.52 621.26 972.587 609.781 957.42 604.605Z" fill="#FFD4F3"/>
<ellipse cx="935.592" cy="578.891" rx="11.1724" ry="10.5129" fill="white"/>
<ellipse cx="935.592" cy="490.44" rx="11.1724" ry="10.5129" fill="white"/>
<ellipse cx="935.592" cy="402.93" rx="11.1724" ry="10.5129" fill="white"/>
<ellipse cx="935.592" cy="537.488" rx="11.1724" ry="10.5129" fill="white"/>
<ellipse cx="935.592" cy="449.037" rx="11.1724" ry="10.5129" fill="white"/>
<ellipse cx="935.592" cy="361.527" rx="11.1724" ry="10.5129" fill="white"/>
<ellipse cx="1028.92" cy="425.821" rx="6.5" ry="6.11629" fill="white"/>
<ellipse cx="1028.92" cy="476.634" rx="6.5" ry="6.11629" fill="white"/>
<ellipse cx="1028.92" cy="523.682" rx="6.5" ry="6.11629" fill="white"/>
<ellipse cx="1028.92" cy="574.494" rx="6.5" ry="6.11629" fill="white"/>
<ellipse cx="1028.92" cy="449.346" rx="6.5" ry="6.11629" fill="white"/>
<ellipse cx="1028.92" cy="500.158" rx="6.5" ry="6.11629" fill="white"/>
<ellipse cx="1028.92" cy="547.206" rx="6.5" ry="6.11629" fill="white"/>
<ellipse cx="1028.92" cy="598.018" rx="6.5" ry="6.11629" fill="white"/>
<ellipse cx="1028.92" cy="621.543" rx="6.5" ry="6.11629" fill="white"/>
<path d="M966.42 375.48L1006.92 398.063M966.42 388.653L1006.92 411.236M966.42 403.238L1006.92 425.821" stroke="white" stroke-width="3"/>
<path d="M966.42 417.823L1006.92 440.406M966.42 430.997L1006.92 453.58M966.42 445.582L1006.92 468.165" stroke="white" stroke-width="3"/>
<path d="M966.42 459.226L1006.92 481.809M966.42 472.399L1006.92 494.982M966.42 486.984L1006.92 509.567" stroke="white" stroke-width="3"/>
<path d="M966.42 500.628L1006.92 523.211M966.42 513.802L1006.92 536.385M966.42 528.387L1006.92 550.97" stroke="white" stroke-width="3"/>
<path d="M966.42 542.031L1006.92 564.614M966.42 555.204L1006.92 577.788M966.42 569.789L1006.92 592.373" stroke="white" stroke-width="3"/>
<path d="M966.42 584.374L1006.92 606.958M966.42 597.548L1006.92 620.131" stroke="white" stroke-width="3"/>
<path d="M1039.42 433.349L1046.92 445.111M1039.42 442.288L1050.92 462.99" stroke="white" stroke-width="3"/>
<path d="M1039.42 452.639L1046.92 464.401M1039.42 461.578L1050.92 482.279" stroke="white" stroke-width="3"/>
<path d="M1039.42 475.222L1046.92 486.984M1039.42 484.161L1050.92 504.863" stroke="white" stroke-width="3"/>
<path d="M1039.42 499.687L1046.92 511.449M1039.42 508.627L1050.92 529.328" stroke="white" stroke-width="3"/>
<path d="M1039.42 523.211L1046.92 534.974M1039.42 532.151L1050.92 552.852" stroke="white" stroke-width="3"/>
<path d="M1039.42 544.854L1046.92 556.616M1039.42 553.793L1050.92 574.494" stroke="white" stroke-width="3"/>
<path d="M1039.42 573.083L1046.92 584.845M1039.42 582.022L1050.92 602.723" stroke="white" stroke-width="3"/>
<path d="M1039.42 593.784L1046.92 605.546M1039.42 602.723L1050.92 623.425" stroke="white" stroke-width="3"/>
<path d="M1039.42 618.249L1046.92 630.011M1039.42 627.188L1050.92 647.89" stroke="white" stroke-width="3"/>
<path d="M346.502 786.976C331.466 786.704 323.798 786.179 322.519 710.813L325.649 475.025C325.649 475.025 328.487 505.408 334.111 515.3C338.681 523.338 350.411 529.626 350.411 529.626L346.502 786.976Z" fill="#FF8DDF" fill-opacity="0.5"/>
<path d="M330.999 452C346.199 392.4 495.833 367.667 582 348L590 687C503.749 704.5 401.251 724.5 401.251 724.5C401.251 724.5 319.378 743.339 315.315 752.789L315.251 754C315.107 753.617 315.133 753.212 315.315 752.789L330.999 452Z" fill="url(#paint30_linear_102_5303)" fill-opacity="0.5"/>
<path d="M563.749 375L526.252 383.095V415L563.749 406.905V375Z" fill="#FFD4F3"/>
<path d="M563.749 539L526.252 547.095V579L563.749 570.905V539Z" fill="#FFD4F3"/>
<path d="M563.749 432L526.252 440.095V472L563.749 463.905V432Z" fill="#FFD4F3"/>
<path d="M563.749 596L526.252 604.095V636L563.749 627.905V596Z" fill="#FFD4F3"/>
<path d="M563.749 654L526.252 662.095V694L563.749 685.905V654Z" fill="#FFD4F3"/>
<path d="M563.749 487L526.252 495.095V527L563.749 518.905V487Z" fill="#FFD4F3"/>
<circle cx="422.425" cy="587.172" r="11.1724" fill="white"/>
<ellipse cx="422.424" cy="667.172" rx="11.1724" ry="10.1724" fill="white"/>
<ellipse cx="422.424" cy="705.172" rx="11.1724" ry="10.1724" fill="white"/>
<ellipse cx="422.424" cy="630.172" rx="11.1724" ry="10.1724" fill="white"/>
<path d="M417.094 524.488C417.656 528.034 415.237 531.364 411.692 531.926C408.146 532.488 404.816 530.07 404.254 526.524C403.692 522.978 406.111 519.648 409.656 519.086C413.202 518.524 416.532 520.943 417.094 524.488Z" fill="white"/>
<path d="M401.918 530.944C402.48 534.49 400.061 537.82 396.516 538.382C392.97 538.944 389.64 536.526 389.078 532.98C388.516 529.435 390.934 526.105 394.48 525.542C398.025 524.98 401.355 527.399 401.918 530.944Z" fill="white"/>
<circle cx="426.007" cy="520.038" r="6.5" transform="rotate(-9.00901 426.007 520.038)" fill="white"/>
<path d="M325.751 477.5C329.251 456.5 388.751 431 432.252 417V504C398.912 512.418 324.218 540.548 322.774 560.905L322.753 561.5C322.753 561.302 322.76 561.104 322.774 560.905L325.751 477.5Z" fill="#FFEEFA"/>
<path d="M433.252 539C358.749 557.5 324.749 584.729 324.749 587L324.249 613.5C336.749 603.5 360.249 584 433.252 564.423V539Z" fill="#FF8DDF" fill-opacity="0.5"/>
<path d="M326.252 439.5C373.751 390.167 504.086 354 582.252 339V362.5C426.749 382 347.749 439.5 326.252 463.5V439.5Z" fill="#FF8DDF"/>
<path d="M514.752 388.5C499.586 393 466.552 403.2 455.752 408M514.752 401L455.752 419.5M514.752 414L484.252 424" stroke="#FFEEFA" stroke-width="3"/>
<path d="M514.752 444C499.586 448.5 466.552 458.7 455.752 463.5M514.752 456.5L455.752 475M514.752 469.5L484.252 479.5" stroke="#FFEEFA" stroke-width="3"/>
<path d="M514.752 499C499.586 503.5 466.552 513.7 455.752 518.5M514.752 511.5L455.752 530M514.752 524.5L484.252 534.5" stroke="#FFEEFA" stroke-width="3"/>
<path d="M514.752 551C499.586 555.5 466.552 565.7 455.752 570.5M514.752 563.5L455.752 582M514.752 576.5L484.252 586.5M400.252 582L374.752 592.5M404.252 592.5L333.752 622" stroke="#FFEEFA" stroke-width="3"/>
<path d="M514.752 610C499.586 614.5 466.552 624.7 455.752 629.5M514.752 622.5L493.752 629.5" stroke="#FFEEFA" stroke-width="3"/>
<path d="M514.752 667C499.586 671.5 466.552 681.7 455.752 686.5M514.752 679.5L493.752 686.5" stroke="#FFEEFA" stroke-width="3"/>
<path d="M431.955 382C402.249 392.5 360.789 414 345.749 426L345.749 442.5C377.994 418 408.953 406.541 431.955 396.041L431.955 382Z" fill="#FFD4F3"/>
<path d="M342.249 442.5C342.249 446.09 339.339 449 335.749 449C332.159 449 329.249 446.09 329.249 442.5C329.249 438.91 332.159 436 335.749 436C339.339 436 342.249 438.91 342.249 442.5Z" fill="white"/>
<path d="M402.752 662L379.751 671.5" stroke="white" stroke-width="3"/>
<path d="M402.752 700L379.751 709.5" stroke="white" stroke-width="3"/>
<path d="M402.752 623L377.251 633.5" stroke="white" stroke-width="3"/>
<path d="M405.252 675.5L332.752 704" stroke="white" stroke-width="3"/>
<path d="M405.252 713.5L332.752 742" stroke="white" stroke-width="3"/>
<path d="M405.252 636.5L332.752 665" stroke="white" stroke-width="3"/>
<path d="M383.963 540.754L335.249 563.5" stroke="#FFEEFA" stroke-width="3"/>
<path d="M992.411 654.547C958.5 647 931.717 643.92 920.411 642.5V811C920.411 811 970 816.5 992.411 820.15V654.547Z" fill="url(#paint31_linear_102_5303)" fill-opacity="0.25"/>
<path d="M991.411 767.009V822.15C973.612 810.839 920.411 791.853 920.411 791.853V760C922.434 760.257 939 760 939 760L952.5 714.5C939 712 936 668 962.072 671.272C988.145 674.544 983.5 719.5 969.7 716.717C971.83 727.712 977 763 977 763C977 763 987.494 764.607 991.411 767.009Z" fill="white"/>
<path d="M992.411 765.884C953.5 758.5 931.717 759.886 920.411 758.5C920.411 815.532 920.411 812.435 920.411 812.435C920.411 812.435 966 816.5 992.411 822.322V765.884Z" fill="#C57FAF"/>
<path d="M955.17 784.172C955.17 790.343 950.168 795.345 943.998 795.345C937.827 795.345 932.825 790.343 932.825 784.172C932.825 778.002 937.827 773 943.998 773C950.168 773 955.17 778.002 955.17 784.172Z" fill="white"/>
<circle cx="973.308" cy="787.84" r="11.1724" fill="white"/>
<path d="M1048.49 783.272V831.152H1041.5V783.272H1048.49ZM1093.46 826.668C1095.08 826.668 1096.5 826.491 1097.71 826.136C1098.93 825.781 1100.12 825.325 1101.29 824.768L1102.73 829.784C1099.99 831.152 1096.73 831.836 1092.93 831.836C1090.34 831.836 1087.91 831.456 1085.63 830.696C1083.4 829.936 1081.42 828.796 1079.7 827.276C1078.03 825.705 1076.71 823.78 1075.75 821.5C1074.79 819.169 1074.31 816.459 1074.31 813.368C1074.31 810.531 1074.76 807.972 1075.67 805.692C1076.59 803.412 1077.85 801.487 1079.47 799.916C1081.1 798.295 1083.05 797.053 1085.33 796.192C1087.61 795.331 1090.11 794.9 1092.85 794.9C1094.42 794.9 1095.94 795.027 1097.41 795.28C1098.93 795.483 1100.65 796.015 1102.58 796.876L1101.06 801.968C1098.73 800.651 1096.22 799.992 1093.53 799.992C1089.84 799.992 1086.85 801.157 1084.57 803.488C1082.29 805.768 1081.15 808.985 1081.15 813.14C1081.15 815.724 1081.5 817.877 1082.21 819.6C1082.92 821.323 1083.86 822.716 1085.02 823.78C1086.19 824.793 1087.5 825.528 1088.97 825.984C1090.44 826.44 1091.94 826.668 1093.46 826.668ZM1109.98 831.152V795.432H1114.99L1116.13 802.576C1117 800.296 1118.41 798.447 1120.39 797.028C1122.37 795.609 1124.65 794.9 1127.23 794.9C1128.55 794.9 1129.64 795.001 1130.5 795.204C1131.36 795.407 1132.15 795.66 1132.85 795.964L1131.56 801.816C1130.95 801.512 1130.27 801.259 1129.51 801.056C1128.8 800.853 1127.94 800.752 1126.93 800.752C1125.46 800.752 1124.09 801.005 1122.82 801.512C1121.61 802.019 1120.52 802.779 1119.55 803.792C1118.64 804.805 1117.91 806.072 1117.35 807.592C1116.84 809.061 1116.59 810.759 1116.59 812.684V831.152H1109.98ZM1137.67 798.624C1138.89 798.016 1140.03 797.484 1141.09 797.028C1142.16 796.521 1143.22 796.116 1144.29 795.812C1145.35 795.508 1146.44 795.28 1147.55 795.128C1148.67 794.976 1149.89 794.9 1151.2 794.9C1153.18 794.9 1154.98 795.128 1156.6 795.584C1158.27 795.989 1159.69 796.699 1160.85 797.712C1162.07 798.725 1163.01 800.068 1163.67 801.74C1164.33 803.361 1164.65 805.413 1164.65 807.896V831.152H1159.11L1158.27 827.2H1158.12C1156.55 828.872 1154.83 830.063 1152.95 830.772C1151.08 831.481 1149 831.836 1146.72 831.836C1145 831.836 1143.4 831.608 1141.93 831.152C1140.51 830.645 1139.27 829.961 1138.21 829.1C1137.14 828.188 1136.31 827.099 1135.7 825.832C1135.14 824.565 1134.86 823.147 1134.86 821.576C1134.86 817.827 1136.33 814.989 1139.27 813.064C1142.26 811.088 1146.19 810.1 1151.05 810.1H1157.89V807.06C1157.89 804.476 1157.23 802.728 1155.91 801.816C1154.6 800.853 1152.82 800.372 1150.59 800.372C1149.28 800.372 1147.76 800.6 1146.03 801.056C1144.36 801.461 1142.44 802.272 1140.26 803.488L1137.67 798.624ZM1157.97 814.66L1152.34 814.812C1148.54 814.913 1145.83 815.597 1144.21 816.864C1142.64 818.08 1141.85 819.575 1141.85 821.348C1141.85 822.412 1142.03 823.324 1142.39 824.084C1142.74 824.793 1143.2 825.351 1143.75 825.756C1144.36 826.161 1145.05 826.465 1145.81 826.668C1146.62 826.82 1147.45 826.896 1148.31 826.896C1149.99 826.896 1151.68 826.516 1153.41 825.756C1155.13 824.945 1156.65 823.679 1157.97 821.956V814.66ZM1187.93 776.812C1189.35 776.812 1190.82 777.015 1192.34 777.42C1193.91 777.825 1195.3 778.332 1196.52 778.94L1195.15 783.576C1194.14 783.171 1193.17 782.867 1192.26 782.664C1191.35 782.411 1190.39 782.284 1189.37 782.284C1186.94 782.284 1185.19 782.968 1184.13 784.336C1183.12 785.704 1182.61 788.035 1182.61 791.328V795.432H1193.48V800.448H1182.61V831.152H1176V800.448H1170.75V795.432H1176V789.124C1176 785.172 1177.01 782.132 1179.04 780.004C1181.12 777.876 1184.08 776.812 1187.93 776.812ZM1217.74 800.448H1207.25V821.196C1207.25 822.969 1207.69 824.16 1208.55 824.768C1209.46 825.376 1210.62 825.68 1212.04 825.68C1213.06 825.68 1214.17 825.579 1215.39 825.376C1216.6 825.123 1217.67 824.844 1218.58 824.54L1219.64 829.632C1218.63 830.037 1217.34 830.392 1215.77 830.696C1214.2 831 1212.55 831.152 1210.83 831.152C1207.28 831.152 1204.7 830.392 1203.07 828.872C1201.45 827.301 1200.64 825.047 1200.64 822.108V800.448H1195.32V795.432H1200.64V784.032H1207.25V795.432H1217.74V800.448ZM1260.45 826.668C1262.07 826.668 1263.49 826.491 1264.71 826.136C1265.92 825.781 1267.11 825.325 1268.28 824.768L1269.72 829.784C1266.99 831.152 1263.72 831.836 1259.92 831.836C1257.33 831.836 1254.9 831.456 1252.62 830.696C1250.39 829.936 1248.42 828.796 1246.69 827.276C1245.02 825.705 1243.7 823.78 1242.74 821.5C1241.78 819.169 1241.3 816.459 1241.3 813.368C1241.3 810.531 1241.75 807.972 1242.67 805.692C1243.58 803.412 1244.84 801.487 1246.47 799.916C1248.09 798.295 1250.04 797.053 1252.32 796.192C1254.6 795.331 1257.11 794.9 1259.84 794.9C1261.41 794.9 1262.93 795.027 1264.4 795.28C1265.92 795.483 1267.64 796.015 1269.57 796.876L1268.05 801.968C1265.72 800.651 1263.21 799.992 1260.53 799.992C1256.83 799.992 1253.84 801.157 1251.56 803.488C1249.28 805.768 1248.14 808.985 1248.14 813.14C1248.14 815.724 1248.49 817.877 1249.2 819.6C1249.91 821.323 1250.85 822.716 1252.01 823.78C1253.18 824.793 1254.5 825.528 1255.97 825.984C1257.44 826.44 1258.93 826.668 1260.45 826.668ZM1276.97 831.152V795.432H1281.99L1283.13 802.576C1283.99 800.296 1285.41 798.447 1287.38 797.028C1289.36 795.609 1291.64 794.9 1294.22 794.9C1295.54 794.9 1296.63 795.001 1297.49 795.204C1298.35 795.407 1299.14 795.66 1299.85 795.964L1298.56 801.816C1297.95 801.512 1297.26 801.259 1296.5 801.056C1295.79 800.853 1294.93 800.752 1293.92 800.752C1292.45 800.752 1291.08 801.005 1289.82 801.512C1288.6 802.019 1287.51 802.779 1286.55 803.792C1285.64 804.805 1284.9 806.072 1284.34 807.592C1283.84 809.061 1283.58 810.759 1283.58 812.684V831.152H1276.97ZM1306.09 831.152V795.432H1312.78V831.152H1306.09ZM1309.44 786.236C1308.27 786.236 1307.26 785.856 1306.4 785.096C1305.59 784.285 1305.18 783.297 1305.18 782.132C1305.18 780.967 1305.59 779.979 1306.4 779.168C1307.26 778.357 1308.27 777.952 1309.44 777.952C1310.55 777.952 1311.54 778.357 1312.4 779.168C1313.26 779.979 1313.69 780.967 1313.69 782.132C1313.69 783.297 1313.26 784.285 1312.4 785.096C1311.54 785.856 1310.55 786.236 1309.44 786.236ZM1343.8 802.12C1342.12 801.309 1340.6 800.752 1339.24 800.448C1337.87 800.144 1336.5 799.992 1335.13 799.992C1332.7 799.992 1330.9 800.448 1329.74 801.36C1328.57 802.221 1327.99 803.387 1327.99 804.856C1327.99 805.92 1328.39 806.857 1329.2 807.668C1330.02 808.428 1331.71 809.188 1334.3 809.948L1336.58 810.632C1339.97 811.645 1342.53 812.963 1344.25 814.584C1346.03 816.155 1346.91 818.308 1346.91 821.044C1346.91 824.287 1345.7 826.896 1343.26 828.872C1340.88 830.848 1337.54 831.836 1333.23 831.836C1330.95 831.836 1328.75 831.633 1326.62 831.228C1324.54 830.823 1322.74 830.265 1321.22 829.556L1322.82 824.312C1324.29 825.021 1325.89 825.604 1327.61 826.06C1329.33 826.465 1331.08 826.668 1332.85 826.668C1335.13 826.668 1336.93 826.263 1338.25 825.452C1339.62 824.641 1340.3 823.299 1340.3 821.424C1340.3 819.803 1339.72 818.663 1338.55 818.004C1337.39 817.295 1335.72 816.611 1333.54 815.952L1331.18 815.192C1327.89 814.128 1325.43 812.811 1323.81 811.24C1322.24 809.619 1321.45 807.541 1321.45 805.008C1321.45 803.488 1321.78 802.095 1322.44 800.828C1323.1 799.561 1323.99 798.497 1325.1 797.636C1326.27 796.775 1327.63 796.116 1329.2 795.66C1330.78 795.153 1332.5 794.9 1334.37 794.9C1336.15 794.9 1337.97 795.077 1339.84 795.432C1341.77 795.736 1343.59 796.268 1345.32 797.028L1343.8 802.12ZM1369.5 831.836C1367.88 831.836 1366.31 831.608 1364.79 831.152C1363.32 830.696 1362.05 830.088 1360.99 829.328V848.632H1354.38V794.9H1359.93L1360.91 799.536C1362.28 798.269 1363.83 797.18 1365.55 796.268C1367.27 795.356 1369.3 794.9 1371.63 794.9C1376.39 794.9 1380.14 796.42 1382.88 799.46C1385.61 802.5 1386.98 806.857 1386.98 812.532C1386.98 815.876 1386.48 818.764 1385.46 821.196C1384.5 823.628 1383.18 825.629 1381.51 827.2C1379.89 828.771 1378.01 829.936 1375.89 830.696C1373.81 831.456 1371.68 831.836 1369.5 831.836ZM1370.19 800.372C1368.06 800.372 1366.21 800.904 1364.64 801.968C1363.07 802.981 1361.85 804.02 1360.99 805.084V824.16C1362.16 825.021 1363.4 825.655 1364.71 826.06C1366.03 826.465 1367.35 826.668 1368.67 826.668C1370.03 826.668 1371.4 826.44 1372.77 825.984C1374.14 825.477 1375.35 824.667 1376.42 823.552C1377.48 822.437 1378.34 820.993 1379 819.22C1379.66 817.447 1379.99 815.268 1379.99 812.684C1379.99 808.884 1379.18 805.895 1377.56 803.716C1375.99 801.487 1373.53 800.372 1370.19 800.372ZM1409.02 817.016C1409.02 815.141 1409.32 813.444 1409.93 811.924C1410.59 810.404 1411.45 809.036 1412.51 807.82C1413.58 806.604 1414.82 805.54 1416.24 804.628C1417.65 803.716 1419.17 802.931 1420.8 802.272C1419.48 800.803 1418.31 799.131 1417.3 797.256C1416.34 795.331 1415.86 793.228 1415.86 790.948C1415.86 789.276 1416.19 787.781 1416.84 786.464C1417.5 785.147 1418.39 784.032 1419.5 783.12C1420.67 782.157 1422.01 781.448 1423.53 780.992C1425.1 780.485 1426.75 780.232 1428.47 780.232C1430.19 780.232 1431.79 780.485 1433.26 780.992C1434.78 781.499 1436.07 782.233 1437.14 783.196C1438.25 784.108 1439.11 785.223 1439.72 786.54C1440.33 787.857 1440.63 789.301 1440.63 790.872C1440.63 793.557 1439.95 795.787 1438.58 797.56C1437.21 799.333 1435.41 800.777 1433.18 801.892L1430.07 798.168C1431.39 797.459 1432.42 796.521 1433.18 795.356C1433.99 794.191 1434.4 792.823 1434.4 791.252C1434.4 789.479 1433.82 788.035 1432.65 786.92C1431.54 785.805 1430.09 785.248 1428.32 785.248C1426.39 785.248 1424.9 785.78 1423.84 786.844C1422.77 787.908 1422.24 789.301 1422.24 791.024C1422.24 793.304 1422.87 795.407 1424.14 797.332C1425.41 799.207 1427.23 801.335 1429.61 803.716L1442.38 816.636C1443.24 815.319 1444.05 813.799 1444.81 812.076C1445.57 810.303 1446.23 808.605 1446.79 806.984L1452.26 809.188C1451.45 811.468 1450.54 813.596 1449.52 815.572C1448.51 817.548 1447.5 819.296 1446.48 820.816L1456.74 831.152H1448.54L1442.76 825.224C1442.05 826.035 1441.16 826.845 1440.1 827.656C1439.09 828.416 1437.9 829.1 1436.53 829.708C1435.16 830.316 1433.61 830.797 1431.89 831.152C1430.22 831.557 1428.37 831.76 1426.34 831.76C1423.71 831.76 1421.33 831.405 1419.2 830.696C1417.07 829.936 1415.25 828.897 1413.73 827.58C1412.21 826.263 1411.04 824.717 1410.23 822.944C1409.42 821.12 1409.02 819.144 1409.02 817.016ZM1415.55 816.864C1415.55 820.056 1416.59 822.488 1418.67 824.16C1420.8 825.781 1423.61 826.592 1427.1 826.592C1428.17 826.592 1429.26 826.465 1430.37 826.212C1431.54 825.959 1432.65 825.604 1433.72 825.148C1434.78 824.641 1435.74 824.059 1436.6 823.4C1437.52 822.741 1438.28 822.007 1438.88 821.196L1423.99 806.072C1422.87 806.629 1421.81 807.263 1420.8 807.972C1419.78 808.681 1418.87 809.492 1418.06 810.404C1417.3 811.265 1416.69 812.253 1416.24 813.368C1415.78 814.432 1415.55 815.597 1415.55 816.864ZM1485.46 831.152H1478.78V795.432H1483.94L1484.93 800.372C1486.6 798.7 1488.4 797.383 1490.33 796.42C1492.25 795.407 1494.56 794.9 1497.24 794.9C1499.78 794.9 1501.85 795.432 1503.48 796.496C1505.1 797.509 1506.31 798.928 1507.12 800.752C1508.9 798.877 1510.85 797.433 1512.98 796.42C1515.1 795.407 1517.46 794.9 1520.04 794.9C1523.69 794.9 1526.43 795.939 1528.25 798.016C1530.13 800.043 1531.06 802.88 1531.06 806.528V831.152H1524.38V807.744C1524.38 805.363 1523.87 803.539 1522.86 802.272C1521.84 801.005 1520.17 800.372 1517.84 800.372C1514.39 800.372 1511.18 801.917 1508.19 805.008C1508.24 805.261 1508.26 805.515 1508.26 805.768C1508.26 806.021 1508.26 806.275 1508.26 806.528V831.152H1501.58V807.744C1501.58 805.363 1501.07 803.539 1500.06 802.272C1499.04 801.005 1497.37 800.372 1495.04 800.372C1491.59 800.372 1488.4 801.993 1485.46 805.236V831.152ZM1571.82 814.052H1546.2V814.356C1546.2 818.308 1547.27 821.348 1549.4 823.476C1551.57 825.604 1554.51 826.668 1558.21 826.668C1560.14 826.668 1561.83 826.516 1563.3 826.212C1564.82 825.908 1566.47 825.401 1568.24 824.692L1569.61 829.632C1568.14 830.291 1566.39 830.823 1564.37 831.228C1562.39 831.633 1560.26 831.836 1557.98 831.836C1555.4 831.836 1552.97 831.481 1550.69 830.772C1548.46 830.063 1546.48 828.973 1544.76 827.504C1543.04 825.984 1541.67 824.059 1540.66 821.728C1539.69 819.397 1539.21 816.611 1539.21 813.368C1539.21 810.581 1539.62 808.048 1540.43 805.768C1541.29 803.488 1542.48 801.563 1544 799.992C1545.52 798.371 1547.34 797.129 1549.47 796.268C1551.65 795.356 1554.08 794.9 1556.77 794.9C1559.05 794.9 1561.1 795.28 1562.92 796.04C1564.8 796.8 1566.39 797.864 1567.71 799.232C1569.03 800.6 1570.04 802.247 1570.75 804.172C1571.46 806.097 1571.82 808.225 1571.82 810.556V814.052ZM1564.9 809.264C1564.9 807.947 1564.72 806.731 1564.37 805.616C1564.06 804.451 1563.56 803.437 1562.85 802.576C1562.19 801.715 1561.33 801.031 1560.26 800.524C1559.2 800.017 1557.91 799.764 1556.39 799.764C1553.6 799.764 1551.32 800.651 1549.55 802.424C1547.83 804.197 1546.76 806.528 1546.36 809.416L1564.9 809.264ZM1580.09 798.624C1581.31 798.016 1582.45 797.484 1583.51 797.028C1584.58 796.521 1585.64 796.116 1586.7 795.812C1587.77 795.508 1588.86 795.28 1589.97 795.128C1591.09 794.976 1592.3 794.9 1593.62 794.9C1595.6 794.9 1597.4 795.128 1599.02 795.584C1600.69 795.989 1602.11 796.699 1603.27 797.712C1604.49 798.725 1605.43 800.068 1606.08 801.74C1606.74 803.361 1607.07 805.413 1607.07 807.896V831.152H1601.52L1600.69 827.2H1600.54C1598.97 828.872 1597.24 830.063 1595.37 830.772C1593.49 831.481 1591.42 831.836 1589.14 831.836C1587.41 831.836 1585.82 831.608 1584.35 831.152C1582.93 830.645 1581.69 829.961 1580.62 829.1C1579.56 828.188 1578.72 827.099 1578.12 825.832C1577.56 824.565 1577.28 823.147 1577.28 821.576C1577.28 817.827 1578.75 814.989 1581.69 813.064C1584.68 811.088 1588.6 810.1 1593.47 810.1H1600.31V807.06C1600.31 804.476 1599.65 802.728 1598.33 801.816C1597.02 800.853 1595.24 800.372 1593.01 800.372C1591.7 800.372 1590.18 800.6 1588.45 801.056C1586.78 801.461 1584.86 802.272 1582.68 803.488L1580.09 798.624ZM1600.38 814.66L1594.76 814.812C1590.96 814.913 1588.25 815.597 1586.63 816.864C1585.06 818.08 1584.27 819.575 1584.27 821.348C1584.27 822.412 1584.45 823.324 1584.8 824.084C1585.16 824.793 1585.62 825.351 1586.17 825.756C1586.78 826.161 1587.46 826.465 1588.22 826.668C1589.04 826.82 1589.87 826.896 1590.73 826.896C1592.4 826.896 1594.1 826.516 1595.82 825.756C1597.55 824.945 1599.07 823.679 1600.38 821.956V814.66ZM1623.58 831.152H1616.9V795.432H1622.14L1623.13 800.372C1624.9 798.599 1626.75 797.256 1628.68 796.344C1630.65 795.381 1632.91 794.9 1635.44 794.9C1639.09 794.9 1641.95 795.939 1644.03 798.016C1646.11 800.043 1647.14 802.88 1647.14 806.528V831.152H1640.46V807.516C1640.46 805.337 1639.87 803.615 1638.71 802.348C1637.59 801.031 1635.87 800.372 1633.54 800.372C1629.99 800.372 1626.68 801.968 1623.58 805.16V831.152ZM1658.56 831.152V795.432H1665.25V831.152H1658.56ZM1661.9 786.236C1660.74 786.236 1659.72 785.856 1658.86 785.096C1658.05 784.285 1657.65 783.297 1657.65 782.132C1657.65 780.967 1658.05 779.979 1658.86 779.168C1659.72 778.357 1660.74 777.952 1661.9 777.952C1663.02 777.952 1664 778.357 1664.87 779.168C1665.73 779.979 1666.16 780.967 1666.16 782.132C1666.16 783.297 1665.73 784.285 1664.87 785.096C1664 785.856 1663.02 786.236 1661.9 786.236ZM1682.89 831.152H1676.2V795.432H1681.44L1682.43 800.372C1684.2 798.599 1686.05 797.256 1687.98 796.344C1689.95 795.381 1692.21 794.9 1694.74 794.9C1698.39 794.9 1701.25 795.939 1703.33 798.016C1705.41 800.043 1706.45 802.88 1706.45 806.528V831.152H1699.76V807.516C1699.76 805.337 1699.17 803.615 1698.01 802.348C1696.89 801.031 1695.17 800.372 1692.84 800.372C1689.29 800.372 1685.98 801.968 1682.89 805.16V831.152ZM1715.89 807.288C1715.89 805.312 1716.25 803.564 1716.96 802.044C1717.67 800.473 1718.65 799.156 1719.92 798.092C1721.24 797.028 1722.78 796.243 1724.56 795.736C1726.33 795.179 1728.25 794.9 1730.33 794.9C1731.09 794.9 1731.83 794.951 1732.54 795.052C1733.25 795.153 1733.95 795.28 1734.66 795.432H1750.09V800.372H1747.74L1741.66 799.536C1742.62 800.549 1743.35 801.715 1743.86 803.032C1744.42 804.349 1744.7 805.743 1744.7 807.212C1744.7 809.188 1744.34 810.961 1743.63 812.532C1742.92 814.052 1741.93 815.344 1740.67 816.408C1739.4 817.472 1737.88 818.283 1736.11 818.84C1734.33 819.347 1732.41 819.6 1730.33 819.6C1728.76 819.6 1727.39 819.499 1726.23 819.296C1725.06 819.701 1724.25 820.233 1723.8 820.892C1723.34 821.5 1723.11 822.159 1723.11 822.868C1723.11 824.033 1723.49 824.819 1724.25 825.224C1725.06 825.629 1726.13 825.832 1727.44 825.832H1736.87C1740.82 825.832 1743.83 826.744 1745.91 828.568C1748.04 830.341 1749.1 832.773 1749.1 835.864C1749.1 837.84 1748.67 839.613 1747.81 841.184C1746.95 842.755 1745.71 844.097 1744.09 845.212C1742.52 846.327 1740.59 847.163 1738.31 847.72C1736.03 848.328 1733.47 848.632 1730.64 848.632C1725.47 848.632 1721.34 847.695 1718.25 845.82C1715.21 843.996 1713.69 841.285 1713.69 837.688C1713.69 835.813 1714.27 834.243 1715.44 832.976C1716.65 831.709 1718.22 830.747 1720.15 830.088C1719.13 829.379 1718.37 828.644 1717.87 827.884C1717.36 827.073 1717.11 826.009 1717.11 824.692C1717.11 823.121 1717.56 821.779 1718.48 820.664C1719.44 819.549 1720.73 818.663 1722.35 818.004C1720.33 817.092 1718.73 815.775 1717.56 814.052C1716.45 812.279 1715.89 810.024 1715.89 807.288ZM1724.02 831.152C1721.44 832.317 1720.15 834.141 1720.15 836.624C1720.15 841.083 1723.75 843.312 1730.94 843.312C1733.07 843.312 1734.87 843.109 1736.34 842.704C1737.81 842.299 1739 841.767 1739.91 841.108C1740.82 840.449 1741.48 839.715 1741.88 838.904C1742.34 838.093 1742.57 837.257 1742.57 836.396C1742.57 834.268 1741.83 832.849 1740.36 832.14C1738.95 831.481 1737.15 831.152 1734.97 831.152H1724.02ZM1737.93 807.44C1737.93 804.755 1737.22 802.779 1735.8 801.512C1734.44 800.245 1732.61 799.612 1730.33 799.612C1728.05 799.612 1726.2 800.245 1724.78 801.512C1723.42 802.779 1722.73 804.653 1722.73 807.136C1722.73 809.771 1723.42 811.721 1724.78 812.988C1726.2 814.204 1728.05 814.812 1730.33 814.812C1732.61 814.812 1734.44 814.204 1735.8 812.988C1737.22 811.772 1737.93 809.923 1737.93 807.44ZM1771.74 776.812C1773.15 776.812 1774.62 777.015 1776.14 777.42C1777.71 777.825 1779.11 778.332 1780.32 778.94L1778.96 783.576C1777.94 783.171 1776.98 782.867 1776.07 782.664C1775.16 782.411 1774.19 782.284 1773.18 782.284C1770.75 782.284 1769 782.968 1767.94 784.336C1766.92 785.704 1766.42 788.035 1766.42 791.328V795.432H1777.28V800.448H1766.42V831.152H1759.8V800.448H1754.56V795.432H1759.8V789.124C1759.8 785.172 1760.82 782.132 1762.84 780.004C1764.92 777.876 1767.88 776.812 1771.74 776.812ZM1807.46 795.432H1814.15V831.152H1808.9L1807.99 826.668H1807.69C1806.37 828.137 1804.72 829.379 1802.75 830.392C1800.82 831.355 1798.57 831.836 1795.98 831.836C1792.28 831.836 1789.27 830.797 1786.94 828.72C1784.66 826.592 1783.52 823.4 1783.52 819.144V795.432H1790.21V818.308C1790.21 819.828 1790.38 821.12 1790.74 822.184C1791.14 823.248 1791.65 824.109 1792.26 824.768C1792.92 825.376 1793.68 825.832 1794.54 826.136C1795.4 826.389 1796.34 826.516 1797.35 826.516C1799.38 826.516 1801.2 826.085 1802.82 825.224C1804.44 824.363 1805.99 823.172 1807.46 821.652V795.432ZM1824.79 831.152V777.192H1831.33V831.152H1824.79ZM1073.34 908.912C1073.34 911.901 1072.89 914.587 1071.98 916.968C1071.06 919.299 1069.8 921.275 1068.18 922.896C1066.61 924.517 1064.76 925.759 1062.63 926.62C1060.5 927.431 1058.19 927.836 1055.71 927.836C1053.23 927.836 1050.92 927.456 1048.8 926.696C1046.72 925.885 1044.89 924.72 1043.32 923.2C1041.8 921.629 1040.59 919.729 1039.68 917.5C1038.81 915.22 1038.38 912.611 1038.38 909.672C1038.38 906.683 1038.84 904.023 1039.75 901.692C1040.66 899.361 1041.91 897.411 1043.48 895.84C1045.1 894.219 1046.97 893.003 1049.1 892.192C1051.23 891.331 1053.53 890.9 1056.02 890.9C1058.5 890.9 1060.78 891.28 1062.86 892.04C1064.98 892.8 1066.81 893.94 1068.33 895.46C1069.9 896.98 1071.11 898.88 1071.98 901.16C1072.89 903.389 1073.34 905.973 1073.34 908.912ZM1066.35 909.292C1066.35 906.911 1066.05 904.884 1065.44 903.212C1064.83 901.54 1064.02 900.172 1063.01 899.108C1062.05 898.044 1060.93 897.284 1059.66 896.828C1058.4 896.321 1057.11 896.068 1055.79 896.068C1054.47 896.068 1053.18 896.271 1051.91 896.676C1050.65 897.081 1049.53 897.791 1048.57 898.804C1047.61 899.817 1046.82 901.185 1046.21 902.908C1045.65 904.58 1045.38 906.708 1045.38 909.292C1045.38 911.673 1045.68 913.725 1046.29 915.448C1046.9 917.12 1047.68 918.488 1048.64 919.552C1049.66 920.616 1050.8 921.401 1052.06 921.908C1053.33 922.415 1054.62 922.668 1055.94 922.668C1057.26 922.668 1058.55 922.465 1059.82 922.06C1061.08 921.604 1062.2 920.869 1063.16 919.856C1064.12 918.792 1064.88 917.424 1065.44 915.752C1066.05 914.029 1066.35 911.876 1066.35 909.292ZM1088.17 927.152H1081.48V891.432H1086.73L1087.71 896.372C1089.49 894.599 1091.34 893.256 1093.26 892.344C1095.24 891.381 1097.49 890.9 1100.03 890.9C1103.67 890.9 1106.54 891.939 1108.61 894.016C1110.69 896.043 1111.73 898.88 1111.73 902.528V927.152H1105.04V903.516C1105.04 901.337 1104.46 899.615 1103.29 898.348C1102.18 897.031 1100.46 896.372 1098.13 896.372C1094.58 896.372 1091.26 897.968 1088.17 901.16V927.152ZM1122.38 927.152V873.192H1128.92V927.152H1122.38ZM1140.66 927.152V891.432H1147.35V927.152H1140.66ZM1144 882.236C1142.84 882.236 1141.83 881.856 1140.96 881.096C1140.15 880.285 1139.75 879.297 1139.75 878.132C1139.75 876.967 1140.15 875.979 1140.96 875.168C1141.83 874.357 1142.84 873.952 1144 873.952C1145.12 873.952 1146.11 874.357 1146.97 875.168C1147.83 875.979 1148.26 876.967 1148.26 878.132C1148.26 879.297 1147.83 880.285 1146.97 881.096C1146.11 881.856 1145.12 882.236 1144 882.236ZM1164.99 927.152H1158.3V891.432H1163.54L1164.53 896.372C1166.3 894.599 1168.15 893.256 1170.08 892.344C1172.05 891.381 1174.31 890.9 1176.84 890.9C1180.49 890.9 1183.35 891.939 1185.43 894.016C1187.51 896.043 1188.55 898.88 1188.55 902.528V927.152H1181.86V903.516C1181.86 901.337 1181.28 899.615 1180.11 898.348C1179 897.031 1177.27 896.372 1174.94 896.372C1171.4 896.372 1168.08 897.968 1164.99 901.16V927.152ZM1229.3 910.052H1203.68V910.356C1203.68 914.308 1204.75 917.348 1206.88 919.476C1209.06 921.604 1211.99 922.668 1215.69 922.668C1217.62 922.668 1219.32 922.516 1220.78 922.212C1222.3 921.908 1223.95 921.401 1225.72 920.692L1227.09 925.632C1225.62 926.291 1223.88 926.823 1221.85 927.228C1219.87 927.633 1217.74 927.836 1215.46 927.836C1212.88 927.836 1210.45 927.481 1208.17 926.772C1205.94 926.063 1203.96 924.973 1202.24 923.504C1200.52 921.984 1199.15 920.059 1198.14 917.728C1197.17 915.397 1196.69 912.611 1196.69 909.368C1196.69 906.581 1197.1 904.048 1197.91 901.768C1198.77 899.488 1199.96 897.563 1201.48 895.992C1203 894.371 1204.82 893.129 1206.95 892.268C1209.13 891.356 1211.56 890.9 1214.25 890.9C1216.53 890.9 1218.58 891.28 1220.4 892.04C1222.28 892.8 1223.88 893.864 1225.19 895.232C1226.51 896.6 1227.52 898.247 1228.23 900.172C1228.94 902.097 1229.3 904.225 1229.3 906.556V910.052ZM1222.38 905.264C1222.38 903.947 1222.2 902.731 1221.85 901.616C1221.54 900.451 1221.04 899.437 1220.33 898.576C1219.67 897.715 1218.81 897.031 1217.74 896.524C1216.68 896.017 1215.39 895.764 1213.87 895.764C1211.08 895.764 1208.8 896.651 1207.03 898.424C1205.31 900.197 1204.24 902.528 1203.84 905.416L1222.38 905.264ZM1284.44 910.052H1258.83V910.356C1258.83 914.308 1259.89 917.348 1262.02 919.476C1264.2 921.604 1267.14 922.668 1270.84 922.668C1272.76 922.668 1274.46 922.516 1275.93 922.212C1277.45 921.908 1279.1 921.401 1280.87 920.692L1282.24 925.632C1280.77 926.291 1279.02 926.823 1276.99 927.228C1275.02 927.633 1272.89 927.836 1270.61 927.836C1268.03 927.836 1265.59 927.481 1263.31 926.772C1261.08 926.063 1259.11 924.973 1257.39 923.504C1255.66 921.984 1254.29 920.059 1253.28 917.728C1252.32 915.397 1251.84 912.611 1251.84 909.368C1251.84 906.581 1252.24 904.048 1253.05 901.768C1253.91 899.488 1255.11 897.563 1256.63 895.992C1258.15 894.371 1259.97 893.129 1262.1 892.268C1264.28 891.356 1266.71 890.9 1269.39 890.9C1271.67 890.9 1273.73 891.28 1275.55 892.04C1277.42 892.8 1279.02 893.864 1280.34 895.232C1281.65 896.6 1282.67 898.247 1283.38 900.172C1284.09 902.097 1284.44 904.225 1284.44 906.556V910.052ZM1277.53 905.264C1277.53 903.947 1277.35 902.731 1276.99 901.616C1276.69 900.451 1276.18 899.437 1275.47 898.576C1274.81 897.715 1273.95 897.031 1272.89 896.524C1271.83 896.017 1270.53 895.764 1269.01 895.764C1266.23 895.764 1263.95 896.651 1262.17 898.424C1260.45 900.197 1259.39 902.528 1258.98 905.416L1277.53 905.264ZM1307.25 909.064L1319.79 927.152H1312.19L1306.04 918.184L1303.22 913.548L1300.64 918.108L1294.71 927.152H1287.26L1299.65 909.064L1287.87 891.432H1295.4L1301.02 900.172L1303.76 904.732L1306.42 900.172L1311.66 891.432H1318.96L1307.25 909.064ZM1340.48 927.836C1338.86 927.836 1337.29 927.608 1335.77 927.152C1334.3 926.696 1333.03 926.088 1331.97 925.328V944.632H1325.36V890.9H1330.91L1331.89 895.536C1333.26 894.269 1334.81 893.18 1336.53 892.268C1338.25 891.356 1340.28 890.9 1342.61 890.9C1347.37 890.9 1351.12 892.42 1353.86 895.46C1356.59 898.5 1357.96 902.857 1357.96 908.532C1357.96 911.876 1357.46 914.764 1356.44 917.196C1355.48 919.628 1354.16 921.629 1352.49 923.2C1350.87 924.771 1348.99 925.936 1346.87 926.696C1344.79 927.456 1342.66 927.836 1340.48 927.836ZM1341.17 896.372C1339.04 896.372 1337.19 896.904 1335.62 897.968C1334.05 898.981 1332.83 900.02 1331.97 901.084V920.16C1333.14 921.021 1334.38 921.655 1335.69 922.06C1337.01 922.465 1338.33 922.668 1339.65 922.668C1341.01 922.668 1342.38 922.44 1343.75 921.984C1345.12 921.477 1346.33 920.667 1347.4 919.552C1348.46 918.437 1349.32 916.993 1349.98 915.22C1350.64 913.447 1350.97 911.268 1350.97 908.684C1350.97 904.884 1350.16 901.895 1348.54 899.716C1346.97 897.487 1344.51 896.372 1341.17 896.372ZM1396.44 910.052H1370.83V910.356C1370.83 914.308 1371.89 917.348 1374.02 919.476C1376.2 921.604 1379.13 922.668 1382.83 922.668C1384.76 922.668 1386.46 922.516 1387.93 922.212C1389.45 921.908 1391.09 921.401 1392.87 920.692L1394.23 925.632C1392.76 926.291 1391.02 926.823 1388.99 927.228C1387.01 927.633 1384.89 927.836 1382.61 927.836C1380.02 927.836 1377.59 927.481 1375.31 926.772C1373.08 926.063 1371.1 924.973 1369.38 923.504C1367.66 921.984 1366.29 920.059 1365.28 917.728C1364.31 915.397 1363.83 912.611 1363.83 909.368C1363.83 906.581 1364.24 904.048 1365.05 901.768C1365.91 899.488 1367.1 897.563 1368.62 895.992C1370.14 894.371 1371.97 893.129 1374.09 892.268C1376.27 891.356 1378.7 890.9 1381.39 890.9C1383.67 890.9 1385.72 891.28 1387.55 892.04C1389.42 892.8 1391.02 893.864 1392.33 895.232C1393.65 896.6 1394.66 898.247 1395.37 900.172C1396.08 902.097 1396.44 904.225 1396.44 906.556V910.052ZM1389.52 905.264C1389.52 903.947 1389.34 902.731 1388.99 901.616C1388.69 900.451 1388.18 899.437 1387.47 898.576C1386.81 897.715 1385.95 897.031 1384.89 896.524C1383.82 896.017 1382.53 895.764 1381.01 895.764C1378.22 895.764 1375.94 896.651 1374.17 898.424C1372.45 900.197 1371.38 902.528 1370.98 905.416L1389.52 905.264ZM1404.18 927.152V891.432H1409.2L1410.34 898.576C1411.2 896.296 1412.62 894.447 1414.59 893.028C1416.57 891.609 1418.85 890.9 1421.43 890.9C1422.75 890.9 1423.84 891.001 1424.7 891.204C1425.56 891.407 1426.35 891.66 1427.06 891.964L1425.77 897.816C1425.16 897.512 1424.47 897.259 1423.71 897.056C1423 896.853 1422.14 896.752 1421.13 896.752C1419.66 896.752 1418.29 897.005 1417.03 897.512C1415.81 898.019 1414.72 898.779 1413.76 899.792C1412.85 900.805 1412.11 902.072 1411.55 903.592C1411.05 905.061 1410.79 906.759 1410.79 908.684V927.152H1404.18ZM1433.3 927.152V891.432H1439.99V927.152H1433.3ZM1436.65 882.236C1435.48 882.236 1434.47 881.856 1433.61 881.096C1432.8 880.285 1432.39 879.297 1432.39 878.132C1432.39 876.967 1432.8 875.979 1433.61 875.168C1434.47 874.357 1435.48 873.952 1436.65 873.952C1437.76 873.952 1438.75 874.357 1439.61 875.168C1440.47 875.979 1440.9 876.967 1440.9 878.132C1440.9 879.297 1440.47 880.285 1439.61 881.096C1438.75 881.856 1437.76 882.236 1436.65 882.236ZM1481.34 910.052H1455.73V910.356C1455.73 914.308 1456.8 917.348 1458.92 919.476C1461.1 921.604 1464.04 922.668 1467.74 922.668C1469.66 922.668 1471.36 922.516 1472.83 922.212C1474.35 921.908 1476 921.401 1477.77 920.692L1479.14 925.632C1477.67 926.291 1475.92 926.823 1473.9 927.228C1471.92 927.633 1469.79 927.836 1467.51 927.836C1464.93 927.836 1462.5 927.481 1460.22 926.772C1457.99 926.063 1456.01 924.973 1454.29 923.504C1452.56 921.984 1451.2 920.059 1450.18 917.728C1449.22 915.397 1448.74 912.611 1448.74 909.368C1448.74 906.581 1449.14 904.048 1449.96 901.768C1450.82 899.488 1452.01 897.563 1453.53 895.992C1455.05 894.371 1456.87 893.129 1459 892.268C1461.18 891.356 1463.61 890.9 1466.3 890.9C1468.58 890.9 1470.63 891.28 1472.45 892.04C1474.33 892.8 1475.92 893.864 1477.24 895.232C1478.56 896.6 1479.57 898.247 1480.28 900.172C1480.99 902.097 1481.34 904.225 1481.34 906.556V910.052ZM1474.43 905.264C1474.43 903.947 1474.25 902.731 1473.9 901.616C1473.59 900.451 1473.08 899.437 1472.38 898.576C1471.72 897.715 1470.86 897.031 1469.79 896.524C1468.73 896.017 1467.44 895.764 1465.92 895.764C1463.13 895.764 1460.85 896.651 1459.08 898.424C1457.35 900.197 1456.29 902.528 1455.88 905.416L1474.43 905.264ZM1495.93 927.152H1489.24V891.432H1494.48L1495.47 896.372C1497.25 894.599 1499.09 893.256 1501.02 892.344C1503 891.381 1505.25 890.9 1507.78 890.9C1511.43 890.9 1514.29 891.939 1516.37 894.016C1518.45 896.043 1519.49 898.88 1519.49 902.528V927.152H1512.8V903.516C1512.8 901.337 1512.22 899.615 1511.05 898.348C1509.94 897.031 1508.21 896.372 1505.88 896.372C1502.34 896.372 1499.02 897.968 1495.93 901.16V927.152ZM1546.79 922.668C1548.41 922.668 1549.83 922.491 1551.04 922.136C1552.26 921.781 1553.45 921.325 1554.61 920.768L1556.06 925.784C1553.32 927.152 1550.05 927.836 1546.25 927.836C1543.67 927.836 1541.24 927.456 1538.96 926.696C1536.73 925.936 1534.75 924.796 1533.03 923.276C1531.36 921.705 1530.04 919.78 1529.08 917.5C1528.12 915.169 1527.63 912.459 1527.63 909.368C1527.63 906.531 1528.09 903.972 1529 901.692C1529.91 899.412 1531.18 897.487 1532.8 895.916C1534.42 894.295 1536.37 893.053 1538.65 892.192C1540.93 891.331 1543.44 890.9 1546.18 890.9C1547.75 890.9 1549.27 891.027 1550.74 891.28C1552.26 891.483 1553.98 892.015 1555.91 892.876L1554.39 897.968C1552.06 896.651 1549.55 895.992 1546.86 895.992C1543.16 895.992 1540.17 897.157 1537.89 899.488C1535.61 901.768 1534.47 904.985 1534.47 909.14C1534.47 911.724 1534.83 913.877 1535.54 915.6C1536.25 917.323 1537.18 918.716 1538.35 919.78C1539.52 920.793 1540.83 921.528 1542.3 921.984C1543.77 922.44 1545.27 922.668 1546.79 922.668ZM1591.86 910.052H1566.24V910.356C1566.24 914.308 1567.31 917.348 1569.44 919.476C1571.61 921.604 1574.55 922.668 1578.25 922.668C1580.18 922.668 1581.87 922.516 1583.34 922.212C1584.86 921.908 1586.51 921.401 1588.28 920.692L1589.65 925.632C1588.18 926.291 1586.43 926.823 1584.41 927.228C1582.43 927.633 1580.3 927.836 1578.02 927.836C1575.44 927.836 1573.01 927.481 1570.73 926.772C1568.5 926.063 1566.52 924.973 1564.8 923.504C1563.08 921.984 1561.71 920.059 1560.7 917.728C1559.73 915.397 1559.25 912.611 1559.25 909.368C1559.25 906.581 1559.66 904.048 1560.47 901.768C1561.33 899.488 1562.52 897.563 1564.04 895.992C1565.56 894.371 1567.38 893.129 1569.51 892.268C1571.69 891.356 1574.12 890.9 1576.81 890.9C1579.09 890.9 1581.14 891.28 1582.96 892.04C1584.84 892.8 1586.43 893.864 1587.75 895.232C1589.07 896.6 1590.08 898.247 1590.79 900.172C1591.5 902.097 1591.86 904.225 1591.86 906.556V910.052ZM1584.94 905.264C1584.94 903.947 1584.76 902.731 1584.41 901.616C1584.1 900.451 1583.6 899.437 1582.89 898.576C1582.23 897.715 1581.37 897.031 1580.3 896.524C1579.24 896.017 1577.95 895.764 1576.43 895.764C1573.64 895.764 1571.36 896.651 1569.59 898.424C1567.86 900.197 1566.8 902.528 1566.4 905.416L1584.94 905.264ZM1619.82 898.12C1618.14 897.309 1616.62 896.752 1615.26 896.448C1613.89 896.144 1612.52 895.992 1611.15 895.992C1608.72 895.992 1606.92 896.448 1605.76 897.36C1604.59 898.221 1604.01 899.387 1604.01 900.856C1604.01 901.92 1604.41 902.857 1605.22 903.668C1606.03 904.428 1607.73 905.188 1610.32 905.948L1612.6 906.632C1615.99 907.645 1618.55 908.963 1620.27 910.584C1622.05 912.155 1622.93 914.308 1622.93 917.044C1622.93 920.287 1621.72 922.896 1619.28 924.872C1616.9 926.848 1613.56 927.836 1609.25 927.836C1606.97 927.836 1604.77 927.633 1602.64 927.228C1600.56 926.823 1598.76 926.265 1597.24 925.556L1598.84 920.312C1600.31 921.021 1601.91 921.604 1603.63 922.06C1605.35 922.465 1607.1 922.668 1608.87 922.668C1611.15 922.668 1612.95 922.263 1614.27 921.452C1615.64 920.641 1616.32 919.299 1616.32 917.424C1616.32 915.803 1615.74 914.663 1614.57 914.004C1613.41 913.295 1611.73 912.611 1609.56 911.952L1607.2 911.192C1603.91 910.128 1601.45 908.811 1599.83 907.24C1598.26 905.619 1597.47 903.541 1597.47 901.008C1597.47 899.488 1597.8 898.095 1598.46 896.828C1599.12 895.561 1600.01 894.497 1601.12 893.636C1602.29 892.775 1603.65 892.116 1605.22 891.66C1606.79 891.153 1608.52 890.9 1610.39 890.9C1612.17 890.9 1613.99 891.077 1615.86 891.432C1617.79 891.736 1619.61 892.268 1621.34 893.028L1619.82 898.12ZM1629.64 923.048C1629.64 921.731 1630.09 920.616 1631.01 919.704C1631.92 918.792 1633.01 918.336 1634.27 918.336C1635.54 918.336 1636.6 918.792 1637.47 919.704C1638.38 920.616 1638.83 921.731 1638.83 923.048C1638.83 924.517 1638.38 925.683 1637.47 926.544C1636.6 927.405 1635.54 927.836 1634.27 927.836C1633.01 927.836 1631.92 927.405 1631.01 926.544C1630.09 925.683 1629.64 924.517 1629.64 923.048Z" fill="#633FA7"/>
<path d="M1043.24 1010.26H1038.96V981.537H1043.24V1010.26ZM1050.23 993.657C1051.72 993.524 1052.83 993.044 1053.55 992.217C1054.29 991.364 1054.71 990.297 1054.79 989.017C1054.6 989.071 1054.41 989.124 1054.23 989.177C1054.07 989.204 1053.88 989.217 1053.67 989.217C1052.65 989.217 1051.85 988.911 1051.27 988.297C1050.71 987.657 1050.43 986.897 1050.43 986.017C1050.43 985.004 1050.73 984.191 1051.35 983.577C1051.99 982.937 1052.85 982.617 1053.95 982.617C1054.99 982.617 1055.84 982.977 1056.51 983.697C1057.2 984.391 1057.55 985.444 1057.55 986.857C1057.55 988.911 1057.24 990.591 1056.63 991.897C1056.01 993.177 1055.16 994.124 1054.07 994.737C1052.97 995.324 1051.69 995.644 1050.23 995.697V993.657ZM1063.71 1010.26V989.937H1066.05C1066.59 989.937 1066.93 990.197 1067.07 990.717L1067.35 992.657C1068.09 991.764 1068.92 991.037 1069.83 990.477C1070.75 989.904 1071.82 989.617 1073.05 989.617C1074.39 989.617 1075.49 989.991 1076.33 990.737C1077.17 991.471 1077.78 992.471 1078.17 993.737C1078.46 993.017 1078.84 992.397 1079.31 991.877C1079.77 991.357 1080.29 990.931 1080.87 990.597C1081.44 990.264 1082.05 990.017 1082.69 989.857C1083.34 989.697 1084 989.617 1084.67 989.617C1085.75 989.617 1086.71 989.791 1087.55 990.137C1088.4 990.471 1089.12 990.964 1089.71 991.617C1090.29 992.271 1090.74 993.077 1091.05 994.037C1091.35 994.997 1091.51 996.091 1091.51 997.317V1010.26H1087.59V997.317C1087.59 995.797 1087.25 994.651 1086.59 993.877C1085.93 993.104 1084.97 992.717 1083.71 992.717C1083.15 992.717 1082.61 992.817 1082.11 993.017C1081.6 993.204 1081.15 993.491 1080.77 993.877C1080.39 994.264 1080.09 994.744 1079.87 995.317C1079.65 995.891 1079.55 996.557 1079.55 997.317V1010.26H1075.63V997.317C1075.63 995.744 1075.31 994.584 1074.69 993.837C1074.06 993.091 1073.14 992.717 1071.93 992.717C1071.09 992.717 1070.31 992.937 1069.59 993.377C1068.87 993.817 1068.21 994.417 1067.61 995.177V1010.26H1063.71ZM1119.39 1001.24C1117.8 1001.29 1116.46 1001.42 1115.35 1001.62C1114.24 1001.8 1113.34 1002.06 1112.65 1002.38C1111.96 1002.7 1111.46 1003.08 1111.15 1003.52C1110.84 1003.94 1110.69 1004.42 1110.69 1004.96C1110.69 1005.46 1110.77 1005.9 1110.93 1006.28C1111.1 1006.64 1111.33 1006.94 1111.61 1007.18C1111.9 1007.4 1112.24 1007.57 1112.63 1007.68C1113.02 1007.78 1113.44 1007.84 1113.89 1007.84C1114.49 1007.84 1115.04 1007.78 1115.53 1007.66C1116.04 1007.54 1116.51 1007.37 1116.95 1007.16C1117.39 1006.93 1117.81 1006.66 1118.21 1006.34C1118.61 1006.02 1119 1005.65 1119.39 1005.24V1001.24ZM1107.95 992.777C1109.08 991.697 1110.31 990.891 1111.63 990.357C1112.96 989.824 1114.42 989.557 1116.01 989.557C1117.17 989.557 1118.2 989.751 1119.09 990.137C1119.98 990.511 1120.74 991.037 1121.35 991.717C1121.96 992.397 1122.42 993.211 1122.73 994.157C1123.05 995.104 1123.21 996.151 1123.21 997.297V1010.26H1121.47C1121.08 1010.26 1120.79 1010.2 1120.59 1010.08C1120.39 1009.94 1120.23 1009.7 1120.11 1009.36L1119.69 1007.58C1119.17 1008.06 1118.66 1008.48 1118.15 1008.86C1117.64 1009.22 1117.11 1009.53 1116.55 1009.8C1116 1010.05 1115.42 1010.24 1114.79 1010.38C1114.16 1010.51 1113.47 1010.58 1112.71 1010.58C1111.91 1010.58 1111.16 1010.47 1110.45 1010.26C1109.76 1010.03 1109.15 1009.69 1108.63 1009.24C1108.11 1008.78 1107.7 1008.22 1107.39 1007.54C1107.1 1006.86 1106.95 1006.06 1106.95 1005.16C1106.95 1004.36 1107.16 1003.59 1107.59 1002.86C1108.03 1002.11 1108.74 1001.44 1109.71 1000.86C1110.7 1000.27 1111.98 999.791 1113.55 999.417C1115.14 999.044 1117.08 998.831 1119.39 998.777V997.297C1119.39 995.764 1119.06 994.617 1118.41 993.857C1117.76 993.097 1116.8 992.717 1115.53 992.717C1114.68 992.717 1113.96 992.824 1113.37 993.037C1112.8 993.251 1112.3 993.491 1111.87 993.757C1111.46 994.011 1111.09 994.244 1110.77 994.457C1110.46 994.671 1110.14 994.777 1109.81 994.777C1109.54 994.777 1109.31 994.704 1109.11 994.557C1108.92 994.411 1108.77 994.237 1108.65 994.037L1107.95 992.777ZM1152.15 1006.84C1153.29 1006.84 1154.32 1006.64 1155.23 1006.26C1156.13 1005.87 1156.9 1005.33 1157.53 1004.64C1158.15 1003.93 1158.63 1003.1 1158.97 1002.14C1159.3 1001.16 1159.47 1000.09 1159.47 998.917V981.537H1163.71V998.917C1163.71 1000.6 1163.44 1002.15 1162.91 1003.58C1162.37 1005 1161.61 1006.24 1160.61 1007.28C1159.61 1008.32 1158.39 1009.13 1156.97 1009.72C1155.54 1010.3 1153.93 1010.6 1152.15 1010.6C1150.36 1010.6 1148.75 1010.3 1147.33 1009.72C1145.9 1009.13 1144.69 1008.32 1143.69 1007.28C1142.69 1006.24 1141.92 1005 1141.39 1003.58C1140.85 1002.15 1140.59 1000.6 1140.59 998.917V981.537H1144.85V998.897C1144.85 1000.07 1145.01 1001.14 1145.33 1002.12C1145.66 1003.09 1146.14 1003.93 1146.77 1004.64C1147.39 1005.33 1148.16 1005.87 1149.07 1006.26C1149.97 1006.64 1151 1006.84 1152.15 1006.84ZM1193.52 1010.26H1189.3C1188.99 1010.26 1188.75 1010.18 1188.56 1010.02C1188.37 1009.84 1188.23 1009.66 1188.12 1009.48L1180.7 997.657C1180.59 997.991 1180.47 998.277 1180.32 998.517L1173.1 1009.48C1172.97 1009.66 1172.81 1009.84 1172.64 1010.02C1172.47 1010.18 1172.25 1010.26 1171.98 1010.26H1168L1177.82 995.477L1168.42 981.537H1172.64C1172.95 981.537 1173.17 981.584 1173.32 981.677C1173.47 981.771 1173.59 981.911 1173.7 982.097L1180.96 993.357C1181.07 993.011 1181.21 992.691 1181.4 992.397L1188.2 982.177C1188.32 981.964 1188.45 981.804 1188.6 981.697C1188.75 981.591 1188.93 981.537 1189.16 981.537H1193.22L1183.76 995.297L1193.52 1010.26ZM1234.19 995.897C1234.19 998.044 1233.84 999.997 1233.15 1001.76C1232.47 1003.52 1231.5 1005.03 1230.25 1006.3C1229 1007.55 1227.5 1008.52 1225.75 1009.22C1224 1009.91 1222.06 1010.26 1219.93 1010.26H1209.13V981.537H1219.93C1222.06 981.537 1224 981.884 1225.75 982.577C1227.5 983.271 1229 984.251 1230.25 985.517C1231.5 986.771 1232.47 988.284 1233.15 990.057C1233.84 991.817 1234.19 993.764 1234.19 995.897ZM1229.83 995.897C1229.83 994.191 1229.6 992.664 1229.13 991.317C1228.66 989.957 1228 988.811 1227.13 987.877C1226.28 986.931 1225.24 986.211 1224.01 985.717C1222.8 985.224 1221.44 984.977 1219.93 984.977H1213.41V1006.82H1219.93C1221.44 1006.82 1222.8 1006.57 1224.01 1006.08C1225.24 1005.58 1226.28 1004.87 1227.13 1003.94C1228 1002.99 1228.66 1001.84 1229.13 1000.5C1229.6 999.151 1229.83 997.617 1229.83 995.897ZM1252.74 997.837C1252.74 997.064 1252.63 996.351 1252.4 995.697C1252.19 995.044 1251.87 994.477 1251.44 993.997C1251.02 993.517 1250.5 993.144 1249.88 992.877C1249.27 992.611 1248.56 992.477 1247.76 992.477C1246.12 992.477 1244.83 992.951 1243.88 993.897C1242.95 994.844 1242.36 996.157 1242.1 997.837H1252.74ZM1255.96 1007.36C1255.48 1007.92 1254.93 1008.4 1254.3 1008.82C1253.68 1009.22 1253.01 1009.54 1252.3 1009.8C1251.6 1010.05 1250.86 1010.24 1250.1 1010.36C1249.36 1010.48 1248.62 1010.54 1247.88 1010.54C1246.48 1010.54 1245.18 1010.3 1243.98 1009.84C1242.8 1009.36 1241.76 1008.66 1240.88 1007.76C1240.02 1006.84 1239.34 1005.7 1238.84 1004.36C1238.36 1003 1238.12 1001.44 1238.12 999.677C1238.12 998.264 1238.34 996.951 1238.78 995.737C1239.22 994.511 1239.85 993.444 1240.66 992.537C1241.49 991.631 1242.5 990.917 1243.68 990.397C1244.87 989.877 1246.2 989.617 1247.68 989.617C1248.92 989.617 1250.06 989.824 1251.1 990.237C1252.16 990.637 1253.06 991.224 1253.82 991.997C1254.58 992.771 1255.18 993.724 1255.6 994.857C1256.04 995.991 1256.26 997.284 1256.26 998.737C1256.26 999.337 1256.2 999.744 1256.06 999.957C1255.93 1000.16 1255.68 1000.26 1255.32 1000.26H1242C1242.04 1001.47 1242.22 1002.53 1242.52 1003.44C1242.83 1004.33 1243.25 1005.08 1243.78 1005.68C1244.33 1006.28 1244.98 1006.72 1245.72 1007.02C1246.47 1007.31 1247.3 1007.46 1248.22 1007.46C1249.09 1007.46 1249.84 1007.36 1250.46 1007.16C1251.1 1006.96 1251.65 1006.74 1252.1 1006.52C1252.57 1006.28 1252.96 1006.06 1253.26 1005.86C1253.58 1005.66 1253.86 1005.56 1254.1 1005.56C1254.42 1005.56 1254.67 1005.68 1254.84 1005.92L1255.96 1007.36ZM1273.24 993.437C1273.13 993.611 1273.02 993.737 1272.9 993.817C1272.78 993.884 1272.62 993.917 1272.44 993.917C1272.22 993.917 1271.98 993.844 1271.72 993.697C1271.46 993.551 1271.15 993.391 1270.78 993.217C1270.42 993.044 1269.99 992.884 1269.5 992.737C1269 992.591 1268.42 992.517 1267.74 992.517C1267.18 992.517 1266.66 992.591 1266.2 992.737C1265.74 992.871 1265.36 993.064 1265.04 993.317C1264.72 993.557 1264.47 993.851 1264.3 994.197C1264.12 994.531 1264.04 994.891 1264.04 995.277C1264.04 995.784 1264.18 996.204 1264.48 996.537C1264.78 996.871 1265.18 997.157 1265.66 997.397C1266.15 997.637 1266.7 997.857 1267.32 998.057C1267.94 998.244 1268.58 998.444 1269.22 998.657C1269.87 998.871 1270.5 999.117 1271.12 999.397C1271.74 999.664 1272.3 1000 1272.78 1000.42C1273.27 1000.82 1273.66 1001.3 1273.96 1001.88C1274.26 1002.45 1274.42 1003.15 1274.42 1003.98C1274.42 1004.92 1274.24 1005.8 1273.9 1006.62C1273.56 1007.42 1273.06 1008.11 1272.4 1008.7C1271.74 1009.28 1270.93 1009.74 1269.96 1010.08C1268.98 1010.41 1267.87 1010.58 1266.62 1010.58C1265.22 1010.58 1263.92 1010.34 1262.74 1009.88C1261.55 1009.41 1260.56 1008.82 1259.76 1008.1L1260.68 1006.6C1260.78 1006.41 1260.92 1006.27 1261.08 1006.18C1261.24 1006.07 1261.45 1006.02 1261.72 1006.02C1261.97 1006.02 1262.23 1006.11 1262.5 1006.3C1262.76 1006.48 1263.08 1006.69 1263.46 1006.92C1263.83 1007.13 1264.28 1007.33 1264.82 1007.52C1265.35 1007.69 1266.02 1007.78 1266.82 1007.78C1267.48 1007.78 1268.06 1007.7 1268.56 1007.54C1269.05 1007.36 1269.46 1007.14 1269.78 1006.86C1270.11 1006.56 1270.36 1006.23 1270.52 1005.86C1270.68 1005.48 1270.76 1005.09 1270.76 1004.68C1270.76 1004.14 1270.6 1003.7 1270.3 1003.36C1270 1003 1269.61 1002.69 1269.12 1002.44C1268.64 1002.18 1268.08 1001.96 1267.46 1001.78C1266.83 1001.59 1266.19 1001.39 1265.54 1001.18C1264.88 1000.96 1264.24 1000.72 1263.62 1000.44C1262.99 1000.16 1262.43 999.804 1261.94 999.377C1261.46 998.951 1261.06 998.431 1260.76 997.817C1260.46 997.204 1260.32 996.457 1260.32 995.577C1260.32 994.791 1260.48 994.037 1260.8 993.317C1261.13 992.597 1261.6 991.964 1262.22 991.417C1262.84 990.871 1263.61 990.437 1264.52 990.117C1265.44 989.784 1266.48 989.617 1267.66 989.617C1269 989.617 1270.22 989.831 1271.3 990.257C1272.39 990.684 1273.32 991.271 1274.1 992.017L1273.24 993.437ZM1283.52 989.937V1010.26H1279.62V989.937H1283.52ZM1284.26 983.657C1284.26 984.017 1284.19 984.364 1284.04 984.697C1283.89 985.017 1283.69 985.304 1283.44 985.557C1283.2 985.797 1282.91 985.991 1282.58 986.137C1282.25 986.271 1281.9 986.337 1281.54 986.337C1281.18 986.337 1280.84 986.271 1280.52 986.137C1280.2 985.991 1279.91 985.797 1279.66 985.557C1279.42 985.304 1279.23 985.017 1279.08 984.697C1278.95 984.364 1278.88 984.017 1278.88 983.657C1278.88 983.284 1278.95 982.937 1279.08 982.617C1279.23 982.284 1279.42 981.997 1279.66 981.757C1279.91 981.504 1280.2 981.311 1280.52 981.177C1280.84 981.031 1281.18 980.957 1281.54 980.957C1281.9 980.957 1282.25 981.031 1282.58 981.177C1282.91 981.311 1283.2 981.504 1283.44 981.757C1283.69 981.997 1283.89 982.284 1284.04 982.617C1284.19 982.937 1284.26 983.284 1284.26 983.657ZM1297.11 1000.12C1297.8 1000.12 1298.41 1000.02 1298.93 999.837C1299.46 999.651 1299.9 999.391 1300.25 999.057C1300.61 998.711 1300.87 998.297 1301.05 997.817C1301.23 997.337 1301.33 996.811 1301.33 996.237C1301.33 995.064 1300.97 994.131 1300.25 993.437C1299.54 992.731 1298.49 992.377 1297.11 992.377C1295.73 992.377 1294.69 992.731 1293.97 993.437C1293.26 994.131 1292.91 995.064 1292.91 996.237C1292.91 996.811 1292.99 997.337 1293.17 997.817C1293.35 998.284 1293.62 998.691 1293.97 999.037C1294.33 999.371 1294.77 999.637 1295.29 999.837C1295.82 1000.02 1296.43 1000.12 1297.11 1000.12ZM1303.33 1011.32C1303.33 1010.84 1303.19 1010.46 1302.93 1010.18C1302.66 1009.88 1302.29 1009.66 1301.83 1009.5C1301.37 1009.32 1300.84 1009.2 1300.23 1009.14C1299.61 1009.06 1298.97 1009 1298.29 1008.96C1297.62 1008.92 1296.93 1008.88 1296.23 1008.86C1295.52 1008.82 1294.84 1008.75 1294.19 1008.66C1293.49 1009 1292.92 1009.42 1292.47 1009.92C1292.03 1010.41 1291.81 1010.99 1291.81 1011.66C1291.81 1012.08 1291.91 1012.48 1292.13 1012.86C1292.35 1013.23 1292.69 1013.55 1293.15 1013.82C1293.61 1014.1 1294.19 1014.31 1294.89 1014.46C1295.59 1014.62 1296.43 1014.7 1297.41 1014.7C1298.37 1014.7 1299.21 1014.61 1299.95 1014.44C1300.68 1014.28 1301.29 1014.04 1301.79 1013.74C1302.29 1013.44 1302.67 1013.09 1302.93 1012.68C1303.19 1012.26 1303.33 1011.81 1303.33 1011.32ZM1307.29 990.697V992.157C1307.29 992.637 1306.99 992.937 1306.39 993.057L1304.21 993.377C1304.39 993.791 1304.54 994.231 1304.65 994.697C1304.75 995.151 1304.81 995.631 1304.81 996.137C1304.81 997.137 1304.61 998.044 1304.23 998.857C1303.84 999.657 1303.31 1000.34 1302.63 1000.92C1301.95 1001.49 1301.13 1001.93 1300.19 1002.24C1299.25 1002.54 1298.23 1002.7 1297.11 1002.7C1296.19 1002.7 1295.33 1002.6 1294.53 1002.4C1294.13 1002.64 1293.82 1002.9 1293.61 1003.2C1293.41 1003.48 1293.31 1003.76 1293.31 1004.04C1293.31 1004.5 1293.5 1004.85 1293.89 1005.08C1294.29 1005.3 1294.8 1005.47 1295.43 1005.58C1296.07 1005.67 1296.79 1005.73 1297.61 1005.76C1298.43 1005.78 1299.27 1005.83 1300.11 1005.9C1300.96 1005.95 1301.79 1006.06 1302.61 1006.22C1303.43 1006.36 1304.16 1006.61 1304.79 1006.96C1305.43 1007.29 1305.94 1007.76 1306.33 1008.36C1306.73 1008.94 1306.93 1009.71 1306.93 1010.66C1306.93 1011.54 1306.71 1012.39 1306.27 1013.22C1305.84 1014.04 1305.21 1014.78 1304.39 1015.42C1303.56 1016.06 1302.55 1016.57 1301.37 1016.96C1300.18 1017.34 1298.83 1017.54 1297.33 1017.54C1295.82 1017.54 1294.51 1017.39 1293.39 1017.1C1292.28 1016.8 1291.35 1016.41 1290.61 1015.92C1289.87 1015.42 1289.32 1014.85 1288.95 1014.2C1288.59 1013.54 1288.41 1012.86 1288.41 1012.16C1288.41 1011.17 1288.71 1010.34 1289.33 1009.66C1289.94 1008.96 1290.79 1008.42 1291.87 1008.04C1291.28 1007.77 1290.81 1007.41 1290.47 1006.96C1290.12 1006.49 1289.95 1005.88 1289.95 1005.12C1289.95 1004.82 1290 1004.52 1290.11 1004.22C1290.21 1003.9 1290.37 1003.58 1290.59 1003.28C1290.81 1002.96 1291.09 1002.66 1291.41 1002.38C1291.74 1002.1 1292.12 1001.84 1292.55 1001.62C1291.55 1001.06 1290.76 1000.32 1290.19 999.397C1289.61 998.464 1289.33 997.377 1289.33 996.137C1289.33 995.137 1289.52 994.237 1289.91 993.437C1290.29 992.637 1290.83 991.951 1291.51 991.377C1292.2 990.804 1293.02 990.364 1293.97 990.057C1294.93 989.751 1295.97 989.597 1297.11 989.597C1298.87 989.597 1300.38 989.964 1301.65 990.697H1307.29ZM1315.32 992.757C1315.76 992.291 1316.22 991.864 1316.7 991.477C1317.18 991.091 1317.69 990.764 1318.22 990.497C1318.77 990.217 1319.35 990.004 1319.96 989.857C1320.59 989.697 1321.26 989.617 1321.96 989.617C1323.08 989.617 1324.06 989.804 1324.9 990.177C1325.76 990.551 1326.47 991.077 1327.04 991.757C1327.62 992.424 1328.05 993.231 1328.34 994.177C1328.64 995.124 1328.78 996.171 1328.78 997.317V1010.26H1324.86V997.317C1324.86 995.864 1324.53 994.737 1323.86 993.937C1323.2 993.124 1322.18 992.717 1320.8 992.717C1319.8 992.717 1318.86 992.957 1317.98 993.437C1317.12 993.904 1316.31 994.544 1315.56 995.357V1010.26H1311.66V989.937H1314C1314.55 989.937 1314.89 990.197 1315.02 990.717L1315.32 992.757ZM1348.31 997.837C1348.31 997.064 1348.19 996.351 1347.97 995.697C1347.75 995.044 1347.43 994.477 1347.01 993.997C1346.58 993.517 1346.06 993.144 1345.45 992.877C1344.83 992.611 1344.13 992.477 1343.33 992.477C1341.69 992.477 1340.39 992.951 1339.45 993.897C1338.51 994.844 1337.92 996.157 1337.67 997.837H1348.31ZM1351.53 1007.36C1351.05 1007.92 1350.49 1008.4 1349.87 1008.82C1349.24 1009.22 1348.57 1009.54 1347.87 1009.8C1347.16 1010.05 1346.43 1010.24 1345.67 1010.36C1344.92 1010.48 1344.18 1010.54 1343.45 1010.54C1342.05 1010.54 1340.75 1010.3 1339.55 1009.84C1338.36 1009.36 1337.33 1008.66 1336.45 1007.76C1335.58 1006.84 1334.9 1005.7 1334.41 1004.36C1333.93 1003 1333.69 1001.44 1333.69 999.677C1333.69 998.264 1333.91 996.951 1334.35 995.737C1334.79 994.511 1335.41 993.444 1336.23 992.537C1337.05 991.631 1338.06 990.917 1339.25 990.397C1340.43 989.877 1341.77 989.617 1343.25 989.617C1344.49 989.617 1345.63 989.824 1346.67 990.237C1347.72 990.637 1348.63 991.224 1349.39 991.997C1350.15 992.771 1350.74 993.724 1351.17 994.857C1351.61 995.991 1351.83 997.284 1351.83 998.737C1351.83 999.337 1351.76 999.744 1351.63 999.957C1351.49 1000.16 1351.25 1000.26 1350.89 1000.26H1337.57C1337.61 1001.47 1337.78 1002.53 1338.09 1003.44C1338.39 1004.33 1338.81 1005.08 1339.35 1005.68C1339.89 1006.28 1340.54 1006.72 1341.29 1007.02C1342.03 1007.31 1342.87 1007.46 1343.79 1007.46C1344.65 1007.46 1345.4 1007.36 1346.03 1007.16C1346.67 1006.96 1347.21 1006.74 1347.67 1006.52C1348.13 1006.28 1348.52 1006.06 1348.83 1005.86C1349.15 1005.66 1349.43 1005.56 1349.67 1005.56C1349.99 1005.56 1350.23 1005.68 1350.41 1005.92L1351.53 1007.36ZM1360.5 993.837C1361.15 992.504 1361.94 991.457 1362.86 990.697C1363.78 989.937 1364.89 989.557 1366.18 989.557C1366.62 989.557 1367.03 989.611 1367.42 989.717C1367.82 989.811 1368.17 989.957 1368.46 990.157L1368.2 993.097C1368.11 993.457 1367.89 993.637 1367.54 993.637C1367.35 993.637 1367.07 993.604 1366.7 993.537C1366.33 993.457 1365.93 993.417 1365.5 993.417C1364.87 993.417 1364.32 993.511 1363.84 993.697C1363.36 993.871 1362.93 994.137 1362.54 994.497C1362.17 994.844 1361.83 995.277 1361.54 995.797C1361.25 996.304 1360.97 996.884 1360.72 997.537V1010.26H1356.82V989.937H1359.06C1359.49 989.937 1359.77 990.017 1359.92 990.177C1360.08 990.324 1360.19 990.591 1360.26 990.977L1360.5 993.837ZM1389.19 996.297C1387.87 997.031 1386.88 997.911 1386.23 998.937C1385.59 999.951 1385.27 1001.04 1385.27 1002.22C1385.27 1003.04 1385.41 1003.78 1385.71 1004.44C1386.01 1005.08 1386.41 1005.62 1386.91 1006.06C1387.41 1006.5 1387.99 1006.83 1388.63 1007.06C1389.28 1007.28 1389.95 1007.4 1390.63 1007.4C1392.04 1007.4 1393.31 1007.15 1394.45 1006.66C1395.58 1006.15 1396.59 1005.48 1397.47 1004.64L1389.19 996.297ZM1407.89 1010.26H1404.09C1403.66 1010.26 1403.32 1010.21 1403.07 1010.12C1402.83 1010.01 1402.55 1009.8 1402.25 1009.48L1399.59 1006.8C1398.33 1007.97 1396.89 1008.9 1395.27 1009.58C1393.65 1010.24 1391.88 1010.58 1389.95 1010.58C1388.87 1010.58 1387.81 1010.4 1386.77 1010.04C1385.74 1009.66 1384.82 1009.13 1384.01 1008.44C1383.19 1007.74 1382.53 1006.9 1382.03 1005.92C1381.53 1004.92 1381.29 1003.79 1381.29 1002.54C1381.29 1001.62 1381.44 1000.74 1381.75 999.917C1382.05 999.077 1382.48 998.311 1383.03 997.617C1383.57 996.911 1384.22 996.277 1384.97 995.717C1385.73 995.157 1386.55 994.677 1387.43 994.277C1386.64 993.251 1386.06 992.257 1385.69 991.297C1385.33 990.324 1385.15 989.331 1385.15 988.317C1385.15 987.344 1385.33 986.424 1385.69 985.557C1386.05 984.691 1386.56 983.937 1387.23 983.297C1387.89 982.657 1388.71 982.151 1389.67 981.777C1390.64 981.404 1391.73 981.217 1392.95 981.217C1394.03 981.217 1395.01 981.391 1395.89 981.737C1396.78 982.071 1397.55 982.524 1398.19 983.097C1398.83 983.671 1399.33 984.331 1399.69 985.077C1400.06 985.824 1400.27 986.604 1400.33 987.417L1397.89 987.917C1397.39 988.024 1397.03 987.804 1396.81 987.257C1396.7 986.911 1396.55 986.557 1396.35 986.197C1396.16 985.837 1395.91 985.517 1395.59 985.237C1395.28 984.944 1394.91 984.704 1394.47 984.517C1394.03 984.331 1393.52 984.237 1392.95 984.237C1392.31 984.237 1391.73 984.344 1391.21 984.557C1390.7 984.771 1390.27 985.064 1389.91 985.437C1389.55 985.797 1389.27 986.224 1389.07 986.717C1388.88 987.211 1388.79 987.737 1388.79 988.297C1388.79 988.737 1388.84 989.171 1388.95 989.597C1389.05 990.011 1389.21 990.431 1389.43 990.857C1389.65 991.271 1389.94 991.697 1390.29 992.137C1390.63 992.564 1391.05 993.024 1391.53 993.517L1399.63 1001.82C1400.12 1000.94 1400.51 1000.01 1400.81 999.037C1401.1 998.064 1401.29 997.091 1401.39 996.117C1401.41 995.851 1401.49 995.637 1401.63 995.477C1401.77 995.317 1401.98 995.237 1402.25 995.237H1404.67C1404.65 996.837 1404.41 998.397 1403.93 999.917C1403.45 1001.42 1402.77 1002.82 1401.89 1004.12L1407.89 1010.26ZM1453.64 981.537V1010.26H1449.92V989.817C1449.92 989.511 1449.92 989.184 1449.94 988.837C1449.96 988.491 1449.99 988.137 1450.02 987.777L1440.46 1005.32C1440.12 1005.97 1439.61 1006.3 1438.92 1006.3H1438.32C1437.62 1006.3 1437.12 1005.97 1436.8 1005.32L1427.06 987.717C1427.14 988.464 1427.18 989.164 1427.18 989.817V1010.26H1423.44V981.537H1426.6C1426.97 981.537 1427.26 981.577 1427.46 981.657C1427.67 981.724 1427.87 981.924 1428.06 982.257L1437.66 999.457C1437.84 999.804 1438.02 1000.17 1438.18 1000.56C1438.34 1000.94 1438.49 1001.33 1438.64 1001.72C1438.92 1000.93 1439.24 1000.17 1439.62 999.437L1449.04 982.257C1449.21 981.924 1449.4 981.724 1449.6 981.657C1449.81 981.577 1450.1 981.537 1450.48 981.537H1453.64ZM1473.58 997.837C1473.58 997.064 1473.46 996.351 1473.24 995.697C1473.02 995.044 1472.7 994.477 1472.28 993.997C1471.85 993.517 1471.33 993.144 1470.72 992.877C1470.1 992.611 1469.4 992.477 1468.6 992.477C1466.96 992.477 1465.66 992.951 1464.72 993.897C1463.78 994.844 1463.19 996.157 1462.94 997.837H1473.58ZM1476.8 1007.36C1476.32 1007.92 1475.76 1008.4 1475.14 1008.82C1474.51 1009.22 1473.84 1009.54 1473.14 1009.8C1472.43 1010.05 1471.7 1010.24 1470.94 1010.36C1470.19 1010.48 1469.45 1010.54 1468.72 1010.54C1467.32 1010.54 1466.02 1010.3 1464.82 1009.84C1463.63 1009.36 1462.6 1008.66 1461.72 1007.76C1460.85 1006.84 1460.17 1005.7 1459.68 1004.36C1459.2 1003 1458.96 1001.44 1458.96 999.677C1458.96 998.264 1459.18 996.951 1459.62 995.737C1460.06 994.511 1460.68 993.444 1461.5 992.537C1462.32 991.631 1463.33 990.917 1464.52 990.397C1465.7 989.877 1467.04 989.617 1468.52 989.617C1469.76 989.617 1470.9 989.824 1471.94 990.237C1472.99 990.637 1473.9 991.224 1474.66 991.997C1475.42 992.771 1476.01 993.724 1476.44 994.857C1476.88 995.991 1477.1 997.284 1477.1 998.737C1477.1 999.337 1477.03 999.744 1476.9 999.957C1476.76 1000.16 1476.52 1000.26 1476.16 1000.26H1462.84C1462.88 1001.47 1463.05 1002.53 1463.36 1003.44C1463.66 1004.33 1464.08 1005.08 1464.62 1005.68C1465.16 1006.28 1465.81 1006.72 1466.56 1007.02C1467.3 1007.31 1468.14 1007.46 1469.06 1007.46C1469.92 1007.46 1470.67 1007.36 1471.3 1007.16C1471.94 1006.96 1472.48 1006.74 1472.94 1006.52C1473.4 1006.28 1473.79 1006.06 1474.1 1005.86C1474.42 1005.66 1474.7 1005.56 1474.94 1005.56C1475.26 1005.56 1475.5 1005.68 1475.68 1005.92L1476.8 1007.36ZM1495.19 994.857C1494.55 994.017 1493.85 993.431 1493.11 993.097C1492.37 992.764 1491.55 992.597 1490.63 992.597C1488.84 992.597 1487.45 993.244 1486.47 994.537C1485.49 995.817 1485.01 997.691 1485.01 1000.16C1485.01 1001.45 1485.11 1002.56 1485.33 1003.48C1485.55 1004.38 1485.87 1005.13 1486.29 1005.72C1486.71 1006.29 1487.23 1006.72 1487.85 1007C1488.46 1007.26 1489.15 1007.4 1489.93 1007.4C1491.06 1007.4 1492.04 1007.14 1492.87 1006.64C1493.69 1006.13 1494.47 1005.42 1495.19 1004.5V994.857ZM1499.11 980.737V1010.26H1496.75C1496.2 1010.26 1495.86 1010 1495.73 1009.48L1495.39 1007.14C1494.52 1008.16 1493.53 1008.99 1492.43 1009.62C1491.33 1010.23 1490.07 1010.54 1488.63 1010.54C1487.47 1010.54 1486.41 1010.31 1485.47 1009.86C1484.53 1009.4 1483.73 1008.74 1483.07 1007.88C1482.4 1007 1481.89 1005.91 1481.53 1004.62C1481.17 1003.32 1480.99 1001.84 1480.99 1000.16C1480.99 998.651 1481.19 997.251 1481.59 995.957C1481.99 994.664 1482.57 993.544 1483.33 992.597C1484.09 991.651 1485.01 990.911 1486.09 990.377C1487.17 989.831 1488.39 989.557 1489.75 989.557C1490.97 989.557 1492.01 989.757 1492.87 990.157C1493.73 990.557 1494.51 991.124 1495.19 991.857V980.737H1499.11ZM1509.43 989.937V1010.26H1505.53V989.937H1509.43ZM1510.17 983.657C1510.17 984.017 1510.1 984.364 1509.95 984.697C1509.8 985.017 1509.6 985.304 1509.35 985.557C1509.11 985.797 1508.82 985.991 1508.49 986.137C1508.16 986.271 1507.81 986.337 1507.45 986.337C1507.09 986.337 1506.75 986.271 1506.43 986.137C1506.11 985.991 1505.82 985.797 1505.57 985.557C1505.33 985.304 1505.14 985.017 1504.99 984.697C1504.86 984.364 1504.79 984.017 1504.79 983.657C1504.79 983.284 1504.86 982.937 1504.99 982.617C1505.14 982.284 1505.33 981.997 1505.57 981.757C1505.82 981.504 1506.11 981.311 1506.43 981.177C1506.75 981.031 1507.09 980.957 1507.45 980.957C1507.81 980.957 1508.16 981.031 1508.49 981.177C1508.82 981.311 1509.11 981.504 1509.35 981.757C1509.6 981.997 1509.8 982.284 1509.95 982.617C1510.1 982.937 1510.17 983.284 1510.17 983.657ZM1526.8 1001.24C1525.21 1001.29 1523.86 1001.42 1522.76 1001.62C1521.65 1001.8 1520.75 1002.06 1520.06 1002.38C1519.36 1002.7 1518.86 1003.08 1518.56 1003.52C1518.25 1003.94 1518.1 1004.42 1518.1 1004.96C1518.1 1005.46 1518.18 1005.9 1518.34 1006.28C1518.51 1006.64 1518.74 1006.94 1519.02 1007.18C1519.31 1007.4 1519.65 1007.57 1520.04 1007.68C1520.42 1007.78 1520.84 1007.84 1521.3 1007.84C1521.9 1007.84 1522.44 1007.78 1522.94 1007.66C1523.44 1007.54 1523.92 1007.37 1524.36 1007.16C1524.8 1006.93 1525.22 1006.66 1525.62 1006.34C1526.02 1006.02 1526.41 1005.65 1526.8 1005.24V1001.24ZM1515.36 992.777C1516.49 991.697 1517.72 990.891 1519.04 990.357C1520.37 989.824 1521.83 989.557 1523.42 989.557C1524.58 989.557 1525.6 989.751 1526.5 990.137C1527.39 990.511 1528.14 991.037 1528.76 991.717C1529.37 992.397 1529.83 993.211 1530.14 994.157C1530.46 995.104 1530.62 996.151 1530.62 997.297V1010.26H1528.88C1528.49 1010.26 1528.2 1010.2 1528 1010.08C1527.8 1009.94 1527.64 1009.7 1527.52 1009.36L1527.1 1007.58C1526.58 1008.06 1526.06 1008.48 1525.56 1008.86C1525.05 1009.22 1524.52 1009.53 1523.96 1009.8C1523.41 1010.05 1522.82 1010.24 1522.2 1010.38C1521.57 1010.51 1520.88 1010.58 1520.12 1010.58C1519.32 1010.58 1518.56 1010.47 1517.86 1010.26C1517.16 1010.03 1516.56 1009.69 1516.04 1009.24C1515.52 1008.78 1515.1 1008.22 1514.8 1007.54C1514.5 1006.86 1514.36 1006.06 1514.36 1005.16C1514.36 1004.36 1514.57 1003.59 1515 1002.86C1515.44 1002.11 1516.14 1001.44 1517.12 1000.86C1518.1 1000.27 1519.38 999.791 1520.96 999.417C1522.54 999.044 1524.49 998.831 1526.8 998.777V997.297C1526.8 995.764 1526.47 994.617 1525.82 993.857C1525.16 993.097 1524.2 992.717 1522.94 992.717C1522.08 992.717 1521.36 992.824 1520.78 993.037C1520.2 993.251 1519.7 993.491 1519.28 993.757C1518.86 994.011 1518.5 994.244 1518.18 994.457C1517.87 994.671 1517.55 994.777 1517.22 994.777C1516.95 994.777 1516.72 994.704 1516.52 994.557C1516.33 994.411 1516.18 994.237 1516.06 994.037L1515.36 992.777ZM1562.29 999.557L1558.03 988.417C1557.72 987.657 1557.41 986.697 1557.11 985.537C1556.96 986.111 1556.81 986.644 1556.65 987.137C1556.5 987.631 1556.35 988.071 1556.21 988.457L1551.97 999.557H1562.29ZM1570.71 1010.26H1567.43C1567.05 1010.26 1566.75 1010.16 1566.51 1009.98C1566.27 1009.79 1566.09 1009.55 1565.99 1009.26L1563.45 1002.6H1550.79L1548.25 1009.26C1548.15 1009.51 1547.98 1009.74 1547.73 1009.96C1547.47 1010.16 1547.17 1010.26 1546.81 1010.26H1543.53L1554.97 981.537H1559.27L1570.71 1010.26ZM1577.89 993.837C1578.55 992.504 1579.33 991.457 1580.25 990.697C1581.17 989.937 1582.28 989.557 1583.57 989.557C1584.01 989.557 1584.43 989.611 1584.81 989.717C1585.21 989.811 1585.56 989.957 1585.85 990.157L1585.59 993.097C1585.5 993.457 1585.28 993.637 1584.93 993.637C1584.75 993.637 1584.47 993.604 1584.09 993.537C1583.72 993.457 1583.32 993.417 1582.89 993.417C1582.27 993.417 1581.71 993.511 1581.23 993.697C1580.75 993.871 1580.32 994.137 1579.93 994.497C1579.56 994.844 1579.23 995.277 1578.93 995.797C1578.64 996.304 1578.37 996.884 1578.11 997.537V1010.26H1574.21V989.937H1576.45C1576.88 989.937 1577.17 990.017 1577.31 990.177C1577.47 990.324 1577.59 990.591 1577.65 990.977L1577.89 993.837ZM1608.92 1010.26H1605V993.097H1594.8V1005C1594.8 1005.8 1594.99 1006.4 1595.38 1006.8C1595.78 1007.18 1596.29 1007.38 1596.9 1007.38C1597.26 1007.38 1597.57 1007.33 1597.82 1007.24C1598.09 1007.14 1598.31 1007.04 1598.5 1006.94C1598.69 1006.82 1598.85 1006.71 1598.98 1006.62C1599.11 1006.52 1599.23 1006.48 1599.34 1006.48C1599.47 1006.48 1599.57 1006.51 1599.64 1006.58C1599.72 1006.63 1599.8 1006.72 1599.88 1006.86L1601.04 1008.74C1600.4 1009.32 1599.64 1009.78 1598.76 1010.1C1597.88 1010.42 1596.97 1010.58 1596.02 1010.58C1594.38 1010.58 1593.11 1010.12 1592.22 1009.2C1591.34 1008.28 1590.9 1006.96 1590.9 1005.26V993.097H1588.54C1588.31 993.097 1588.12 993.031 1587.96 992.897C1587.81 992.751 1587.74 992.537 1587.74 992.257V990.677L1591.06 990.217L1591.92 984.157C1591.97 983.931 1592.07 983.757 1592.22 983.637C1592.38 983.504 1592.58 983.437 1592.82 983.437H1594.8V990.257H1608.92V1010.26ZM1609.8 983.537C1609.8 983.897 1609.73 984.244 1609.58 984.577C1609.43 984.897 1609.23 985.184 1608.98 985.437C1608.74 985.677 1608.45 985.871 1608.12 986.017C1607.79 986.151 1607.44 986.217 1607.08 986.217C1606.72 986.217 1606.38 986.151 1606.06 986.017C1605.74 985.871 1605.45 985.677 1605.2 985.437C1604.96 985.184 1604.77 984.897 1604.62 984.577C1604.49 984.244 1604.42 983.897 1604.42 983.537C1604.42 983.164 1604.49 982.811 1604.62 982.477C1604.77 982.144 1604.96 981.857 1605.2 981.617C1605.45 981.364 1605.74 981.171 1606.06 981.037C1606.38 980.891 1606.72 980.817 1607.08 980.817C1607.44 980.817 1607.79 980.891 1608.12 981.037C1608.45 981.171 1608.74 981.364 1608.98 981.617C1609.23 981.857 1609.43 982.144 1609.58 982.477C1609.73 982.811 1609.8 983.164 1609.8 983.537ZM1627.36 993.437C1627.26 993.611 1627.14 993.737 1627.02 993.817C1626.9 993.884 1626.75 993.917 1626.56 993.917C1626.35 993.917 1626.11 993.844 1625.84 993.697C1625.59 993.551 1625.28 993.391 1624.9 993.217C1624.54 993.044 1624.12 992.884 1623.62 992.737C1623.13 992.591 1622.54 992.517 1621.86 992.517C1621.3 992.517 1620.79 992.591 1620.32 992.737C1619.87 992.871 1619.48 993.064 1619.16 993.317C1618.84 993.557 1618.6 993.851 1618.42 994.197C1618.25 994.531 1618.16 994.891 1618.16 995.277C1618.16 995.784 1618.31 996.204 1618.6 996.537C1618.91 996.871 1619.3 997.157 1619.78 997.397C1620.28 997.637 1620.83 997.857 1621.44 998.057C1622.07 998.244 1622.7 998.444 1623.34 998.657C1624 998.871 1624.63 999.117 1625.24 999.397C1625.87 999.664 1626.42 1000 1626.9 1000.42C1627.4 1000.82 1627.79 1001.3 1628.08 1001.88C1628.39 1002.45 1628.54 1003.15 1628.54 1003.98C1628.54 1004.92 1628.37 1005.8 1628.02 1006.62C1627.69 1007.42 1627.19 1008.11 1626.52 1008.7C1625.87 1009.28 1625.06 1009.74 1624.08 1010.08C1623.11 1010.41 1622 1010.58 1620.74 1010.58C1619.34 1010.58 1618.05 1010.34 1616.86 1009.88C1615.68 1009.41 1614.68 1008.82 1613.88 1008.1L1614.8 1006.6C1614.91 1006.41 1615.04 1006.27 1615.2 1006.18C1615.36 1006.07 1615.58 1006.02 1615.84 1006.02C1616.1 1006.02 1616.36 1006.11 1616.62 1006.3C1616.89 1006.48 1617.21 1006.69 1617.58 1006.92C1617.96 1007.13 1618.41 1007.33 1618.94 1007.52C1619.48 1007.69 1620.14 1007.78 1620.94 1007.78C1621.61 1007.78 1622.19 1007.7 1622.68 1007.54C1623.18 1007.36 1623.58 1007.14 1623.9 1006.86C1624.24 1006.56 1624.48 1006.23 1624.64 1005.86C1624.8 1005.48 1624.88 1005.09 1624.88 1004.68C1624.88 1004.14 1624.73 1003.7 1624.42 1003.36C1624.13 1003 1623.74 1002.69 1623.24 1002.44C1622.76 1002.18 1622.21 1001.96 1621.58 1001.78C1620.96 1001.59 1620.32 1001.39 1619.66 1001.18C1619.01 1000.96 1618.37 1000.72 1617.74 1000.44C1617.12 1000.16 1616.56 999.804 1616.06 999.377C1615.58 998.951 1615.19 998.431 1614.88 997.817C1614.59 997.204 1614.44 996.457 1614.44 995.577C1614.44 994.791 1614.6 994.037 1614.92 993.317C1615.26 992.597 1615.73 991.964 1616.34 991.417C1616.97 990.871 1617.74 990.437 1618.64 990.117C1619.56 989.784 1620.61 989.617 1621.78 989.617C1623.13 989.617 1624.34 989.831 1625.42 990.257C1626.52 990.684 1627.45 991.271 1628.22 992.017L1627.36 993.437ZM1639.93 1010.58C1638.29 1010.58 1637.02 1010.12 1636.13 1009.2C1635.25 1008.28 1634.81 1006.96 1634.81 1005.26V993.097H1632.45C1632.22 993.097 1632.03 993.031 1631.87 992.897C1631.72 992.751 1631.65 992.537 1631.65 992.257V990.677L1634.95 990.217L1635.83 984.157C1635.88 983.931 1635.98 983.757 1636.13 983.637C1636.29 983.504 1636.49 983.437 1636.73 983.437H1638.71V990.257H1644.47V993.097H1638.71V1005C1638.71 1005.8 1638.9 1006.4 1639.29 1006.8C1639.69 1007.18 1640.19 1007.38 1640.81 1007.38C1641.17 1007.38 1641.47 1007.33 1641.73 1007.24C1641.99 1007.14 1642.22 1007.04 1642.41 1006.94C1642.59 1006.82 1642.75 1006.71 1642.89 1006.62C1643.02 1006.52 1643.14 1006.48 1643.25 1006.48C1643.38 1006.48 1643.48 1006.51 1643.55 1006.58C1643.63 1006.63 1643.71 1006.72 1643.79 1006.86L1644.95 1008.74C1644.31 1009.32 1643.55 1009.78 1642.67 1010.1C1641.79 1010.42 1640.87 1010.58 1639.93 1010.58ZM1648.22 1007.92C1648.22 1007.56 1648.29 1007.22 1648.42 1006.9C1648.55 1006.58 1648.73 1006.3 1648.96 1006.06C1649.2 1005.82 1649.48 1005.63 1649.8 1005.5C1650.12 1005.35 1650.47 1005.28 1650.84 1005.28C1651.2 1005.28 1651.54 1005.35 1651.86 1005.5C1652.18 1005.63 1652.46 1005.82 1652.7 1006.06C1652.94 1006.3 1653.13 1006.58 1653.26 1006.9C1653.41 1007.22 1653.48 1007.56 1653.48 1007.92C1653.48 1008.29 1653.41 1008.64 1653.26 1008.96C1653.13 1009.28 1652.94 1009.56 1652.7 1009.8C1652.46 1010.04 1652.18 1010.22 1651.86 1010.36C1651.54 1010.49 1651.2 1010.56 1650.84 1010.56C1650.47 1010.56 1650.12 1010.49 1649.8 1010.36C1649.48 1010.22 1649.2 1010.04 1648.96 1009.8C1648.73 1009.56 1648.55 1009.28 1648.42 1008.96C1648.29 1008.64 1648.22 1008.29 1648.22 1007.92Z" fill="#281942"/>
<defs>
<radialGradient id="paint0_radial_102_5303" cx="0" cy="0" r="1" gradientUnits="userSpaceOnUse" gradientTransform="translate(406.485 406.485) rotate(79.4236) scale(984.065)">
<stop offset="0.125" stop-color="#F9F7DA"/>
<stop offset="0.333176" stop-color="#FFFDC2" stop-opacity="0"/>
</radialGradient>
<linearGradient id="paint1_linear_102_5303" x1="671.807" y1="554.662" x2="975.076" y2="1274.52" gradientUnits="userSpaceOnUse">
<stop offset="0.321282" stop-color="#FFFDC2"/>
<stop offset="1" stop-color="#D9D9D9" stop-opacity="0"/>
</linearGradient>
<linearGradient id="paint2_linear_102_5303" x1="525.951" y1="728.195" x2="1416.73" y2="672.232" gradientUnits="userSpaceOnUse">
<stop offset="0.321282" stop-color="#FFFDC2"/>
<stop offset="1" stop-color="#D9D9D9" stop-opacity="0"/>
</linearGradient>
<linearGradient id="paint3_linear_102_5303" x1="520.249" y1="790.696" x2="1228.36" y2="305.319" gradientUnits="userSpaceOnUse">
<stop offset="0.321282" stop-color="#FFFDC2"/>
<stop offset="1" stop-color="#D9D9D9" stop-opacity="0"/>
</linearGradient>
<linearGradient id="paint4_linear_102_5303" x1="794.193" y1="721.203" x2="104.11" y2="962.478" gradientUnits="userSpaceOnUse">
<stop offset="0.20846" stop-color="#FFFDC2"/>
<stop offset="1" stop-color="#D9D9D9" stop-opacity="0"/>
</linearGradient>
<linearGradient id="paint5_linear_102_5303" x1="692.832" y1="710.186" x2="451.128" y2="176.632" gradientUnits="userSpaceOnUse">
<stop offset="0.141643" stop-color="#FFFDC2"/>
<stop offset="1" stop-color="#D9D9D9" stop-opacity="0"/>
</linearGradient>
<linearGradient id="paint6_linear_102_5303" x1="593" y1="1168" x2="738" y2="1015" gradientUnits="userSpaceOnUse">
<stop offset="0.029888" stop-color="#281942"/>
<stop offset="0.685591" stop-color="#633FA7"/>
<stop offset="1" stop-color="#633FA7"/>
</linearGradient>
<linearGradient id="paint7_linear_102_5303" x1="592.132" y1="1013.89" x2="572.5" y2="823.394" gradientUnits="userSpaceOnUse">
<stop stop-color="#281942"/>
<stop offset="1" stop-color="#633FA7"/>
</linearGradient>
<linearGradient id="paint8_linear_102_5303" x1="1052" y1="1008.5" x2="499.778" y2="1248.25" gradientUnits="userSpaceOnUse">
<stop offset="0.24962" stop-color="#1D1942"/>
<stop offset="0.380411" stop-color="#633FA7" stop-opacity="0"/>
</linearGradient>
<linearGradient id="paint9_linear_102_5303" x1="886.271" y1="806.951" x2="552.554" y2="1151.5" gradientUnits="userSpaceOnUse">
<stop stop-color="#281942"/>
<stop offset="0.0658353" stop-color="#5E3C9F"/>
<stop offset="0.361311" stop-color="#633FA7"/>
<stop offset="1" stop-color="#281942"/>
</linearGradient>
<linearGradient id="paint10_linear_102_5303" x1="690.486" y1="978.542" x2="691.897" y2="1026.77" gradientUnits="userSpaceOnUse">
<stop stop-color="#633FA7"/>
<stop offset="1" stop-color="#281942"/>
</linearGradient>
<linearGradient id="paint11_linear_102_5303" x1="631.5" y1="672.001" x2="1153.52" y2="1743.49" gradientUnits="userSpaceOnUse">
<stop stop-color="#633FA7"/>
<stop stop-color="#633FA7"/>
<stop offset="1" stop-color="#281942"/>
</linearGradient>
<radialGradient id="paint12_radial_102_5303" cx="0" cy="0" r="1" gradientUnits="userSpaceOnUse" gradientTransform="translate(717.411 681.15) rotate(59.9244) scale(113.589 1564.28)">
<stop stop-color="#FFFDC2"/>
<stop offset="1" stop-color="#FFFDC2" stop-opacity="0"/>
</radialGradient>
<linearGradient id="paint13_linear_102_5303" x1="487.734" y1="1406.84" x2="502.761" y2="934.981" gradientUnits="userSpaceOnUse">
<stop stop-color="#281942"/>
<stop offset="1" stop-color="#281942" stop-opacity="0"/>
</linearGradient>
<linearGradient id="paint14_linear_102_5303" x1="557" y1="1355" x2="558.452" y2="922.291" gradientUnits="userSpaceOnUse">
<stop stop-color="#301E50"/>
<stop offset="1" stop-color="#301E50" stop-opacity="0"/>
</linearGradient>
<linearGradient id="paint15_linear_102_5303" x1="1020.44" y1="1094.64" x2="962" y2="1306.5" gradientUnits="userSpaceOnUse">
<stop stop-color="#633FA7"/>
<stop offset="1" stop-color="#281942"/>
</linearGradient>
<linearGradient id="paint16_linear_102_5303" x1="783.657" y1="1313.76" x2="783.657" y2="1105.27" gradientUnits="userSpaceOnUse">
<stop stop-color="#281942"/>
<stop offset="0.594383" stop-color="#281942" stop-opacity="0.591966"/>
<stop offset="1" stop-color="#281942" stop-opacity="0"/>
</linearGradient>
<linearGradient id="paint17_linear_102_5303" x1="932.135" y1="1117" x2="932.135" y2="1171" gradientUnits="userSpaceOnUse">
<stop stop-color="#573793"/>
<stop offset="1" stop-color="#281942"/>
</linearGradient>
<linearGradient id="paint18_linear_102_5303" x1="1092.41" y1="1068.15" x2="1092.9" y2="1277.76" gradientUnits="userSpaceOnUse">
<stop offset="0.268537" stop-color="#633FA7"/>
<stop offset="0.550242" stop-color="#281942"/>
<stop offset="1" stop-color="#623EA5"/>
</linearGradient>
<linearGradient id="paint19_linear_102_5303" x1="1099.31" y1="1103.51" x2="1092.9" y2="1384.63" gradientUnits="userSpaceOnUse">
<stop stop-color="#633FA7"/>
<stop offset="1" stop-color="#281942"/>
</linearGradient>
<linearGradient id="paint20_linear_102_5303" x1="1070.41" y1="1089.15" x2="1074.91" y2="1144.65" gradientUnits="userSpaceOnUse">
<stop stop-color="#5C3A9B" stop-opacity="0.17"/>
<stop offset="1" stop-color="#281942"/>
</linearGradient>
<linearGradient id="paint21_linear_102_5303" x1="547.562" y1="840.719" x2="536.72" y2="697.847" gradientUnits="userSpaceOnUse">
<stop stop-color="#281942"/>
<stop offset="0.555113" stop-color="#633FA7"/>
</linearGradient>
<linearGradient id="paint22_linear_102_5303" x1="560.411" y1="696.151" x2="557.644" y2="813.361" gradientUnits="userSpaceOnUse">
<stop offset="0.464561" stop-color="#633FA7"/>
<stop offset="1" stop-color="#281942"/>
</linearGradient>
<linearGradient id="paint23_linear_102_5303" x1="521.946" y1="599.151" x2="521.946" y2="803.818" gradientUnits="userSpaceOnUse">
<stop offset="0.640418" stop-color="#633FA7"/>
<stop offset="1" stop-color="#281942"/>
</linearGradient>
<linearGradient id="paint24_linear_102_5303" x1="542.558" y1="729.878" x2="523.185" y2="781.962" gradientUnits="userSpaceOnUse">
<stop stop-color="#633FA7"/>
<stop offset="1" stop-color="#281942"/>
</linearGradient>
<linearGradient id="paint25_linear_102_5303" x1="530.686" y1="690.73" x2="499.127" y2="762.043" gradientUnits="userSpaceOnUse">
<stop stop-color="#633FA7"/>
<stop offset="1" stop-color="#281942"/>
</linearGradient>
<linearGradient id="paint26_linear_102_5303" x1="546.839" y1="646.288" x2="556.023" y2="797.537" gradientUnits="userSpaceOnUse">
<stop stop-color="#633FA7"/>
<stop offset="0.608564" stop-color="#281942"/>
</linearGradient>
<linearGradient id="paint27_linear_102_5303" x1="594.5" y1="1096" x2="743" y2="1096" gradientUnits="userSpaceOnUse">
<stop stop-color="#281942"/>
<stop offset="1" stop-color="#633FA7"/>
</linearGradient>
<linearGradient id="paint28_linear_102_5303" x1="595" y1="938.5" x2="555" y2="1066.5" gradientUnits="userSpaceOnUse">
<stop stop-color="#633FA7"/>
<stop offset="1" stop-color="#281942"/>
</linearGradient>
<linearGradient id="paint29_linear_102_5303" x1="587" y1="927" x2="555" y2="1024.5" gradientUnits="userSpaceOnUse">
<stop stop-color="#633FA7"/>
<stop offset="1" stop-color="#281942"/>
</linearGradient>
<linearGradient id="paint30_linear_102_5303" x1="570.252" y1="443" x2="246.752" y2="707.001" gradientUnits="userSpaceOnUse">
<stop stop-color="#FF8DDF"/>
<stop offset="0.843053" stop-color="#FF8DDF" stop-opacity="0"/>
</linearGradient>
<linearGradient id="paint31_linear_102_5303" x1="920.411" y1="687.154" x2="992.35" y2="714.533" gradientUnits="userSpaceOnUse">
<stop stop-color="#AC739C"/>
<stop offset="0.553099" stop-color="white"/>
<stop offset="1" stop-color="#AC739C" stop-opacity="0"/>
</linearGradient>
</defs>
</svg>
