<svg width="1822" height="1278" viewBox="0 0 1822 1278" fill="none" xmlns="http://www.w3.org/2000/svg">
<path d="M0 0V1041.5C1285 1066.5 501 369.5 1822 420V0H0Z" fill="black"/>
<path d="M771.874 592.609C791.859 649.83 760.305 713.166 700.992 733.882C641.679 754.598 577.554 724.68 557.569 667.458C537.583 610.237 569.138 546.902 628.451 526.186C687.764 505.47 751.888 535.388 771.874 592.609Z" fill="#FFE76E" stroke="#BF2E00" stroke-width="10"/>
<path d="M732.854 520.252C732.853 520.251 732.852 520.251 732.851 520.25C732.762 520.202 732.647 520.14 732.505 520.065C732.108 519.855 731.505 519.541 730.709 519.144C729.118 518.349 726.759 517.222 723.746 515.923C717.715 513.321 709.095 510.044 698.784 507.359C678.094 501.972 651.016 499.078 624.438 508.36C591.137 519.991 563.821 544.375 548.497 576.146C545.394 582.581 543.502 589.633 541.312 597.793C540.877 599.413 540.431 601.076 539.961 602.787C537.175 612.932 533.67 624.215 526.893 636.161C517.501 652.717 502.086 670.106 474.415 687.91L666.677 629.188L842.575 562.701C820.265 561.108 798.437 554.049 780.409 546.291C766.438 540.278 754.518 533.744 746.09 528.714C741.872 526.196 738.52 524.051 736.212 522.527C735.058 521.765 734.165 521.159 733.554 520.739C733.249 520.528 733.015 520.365 732.854 520.252Z" fill="#FFE76F" stroke="#922300" stroke-width="10"/>
<path d="M410.588 708.296C412.851 714.775 523.736 681.94 658.257 634.956C792.777 587.973 906.263 545.479 904 539C902.213 533.884 732.097 584.038 732.097 584.038L736.952 594.907L583.54 648.488C583.54 648.488 580.946 638.027 580.859 636.262C480.646 672.878 408.731 702.978 410.588 708.296Z" fill="#FFE76E"/>
<path d="M738.555 599.497C753.305 641.73 731.026 687.924 688.793 702.675C646.56 717.426 600.365 695.147 585.615 652.913C570.864 610.68 593.143 564.486 635.376 549.735C677.609 534.984 723.804 557.263 738.555 599.497Z" fill="black"/>
<path d="M662.182 527.158C717.246 527.158 761.884 571.796 761.884 626.86C761.884 681.924 717.246 726.562 662.182 726.562C607.118 726.562 562.48 681.924 562.48 626.86C562.48 571.796 607.118 527.158 662.182 527.158Z" fill="url(#paint0_radial_102_5109)"/>
<circle cx="70.679" cy="70.679" r="70.679" transform="matrix(-0.707107 0.707107 0.707107 0.707107 661.599 525.689)" fill="url(#paint1_linear_102_5109)"/>
<circle cx="63.6079" cy="63.6079" r="63.6079" transform="matrix(-0.707107 0.707107 0.707107 0.707107 661.599 535.689)" fill="black"/>
<path d="M296.188 759.05C301.36 773.86 474.665 726.787 683.276 653.91C891.887 581.034 1056.81 509.95 1051.64 495.14C1047.75 483.997 792.5 556.5 792.5 556.5L809 562C809 562 946 525 828 569.5C781.424 587.065 572.01 657.269 499 679.5C482.89 684.406 513.7 655.488 505 658.857C378.101 707.993 292.439 748.312 296.188 759.05Z" fill="url(#paint2_linear_102_5109)"/>
<rect x="916.41" y="1128.15" width="19" height="2" fill="#281942"/>
<path d="M572.503 771.817L651.192 752.15C667.427 755.213 642.999 772.5 748.499 758.5C853.89 744.514 857.4 768.563 862.483 803.392L862.499 803.5C875.999 896 866.605 1010.27 866.605 1010.27L965.999 1026L950.499 1127.29H910.868L942.499 1184C942.499 1198.77 942.835 1232.01 929.556 1253.15L883.326 1200.54L893.499 1270C771.53 1265.67 657.286 1229.84 624.499 1210.5L636.438 1051.08C604.999 1022.5 557.999 1009.5 529.999 1002C529.999 1002 521.585 1045.38 507.499 1070.5C496.22 1090.62 475.499 1107.5 475.499 1107.5L431.353 1094.34L418.074 1060.91C383.057 1035.35 399.877 926.689 412.664 875.557C412.664 875.557 400.369 845.074 396.927 830.816C395.505 824.929 396.927 818.524 402.336 810.166C410.879 799.024 415.573 794.996 425.943 787.55C444.493 774.23 478.499 771.817 478.499 771.817C478.499 771.817 477.499 768.967 488.499 765C507.82 758.031 545.276 771.817 572.503 771.817Z" fill="#633FA7"/>
<path d="M529.499 1002.5C556.499 1006 612.332 1031.83 636.499 1051.5H684.999C684.999 1051.5 565.817 897.164 562.999 887L529.499 1002.5Z" fill="url(#paint3_linear_102_5109)"/>
<path d="M487.999 774.5C530.499 737.5 559.999 879.5 559.999 879.5C559.999 879.5 534.212 817.447 514.999 793C497.896 771.239 487.057 787.686 487.999 774.5Z" fill="url(#paint4_linear_102_5109)"/>
<path d="M933.645 1092.5L1001.27 1090.06L1007.53 1032.59L952.444 1024.78L933.645 1092.5Z" fill="#FFB600"/>
<path d="M883.41 1200.48L809.052 1017.87L807.574 981.938L733.216 905.154L647.532 842.151L590.41 871.684L647.532 857.902L621.433 1190.63C621.433 1190.63 665.753 1214.75 733.216 1234.44C800.68 1254.13 872.576 1253.14 872.576 1253.14L883.41 1200.48Z" fill="url(#paint5_linear_102_5109)"/>
<path d="M723.925 753.951C643.993 700.323 599.072 736.535 590.541 760.852C588.08 799.792 584.143 877.179 588.08 875.207C593.002 872.743 637.791 866.828 641.237 871.757C643.993 875.7 634.51 903.303 629.424 916.612C665.256 919.766 759.855 972.475 802.675 998.435L809.074 1018.15C814.192 1011.45 818.097 917.762 819.41 871.757L780.034 849.083L795.292 840.211L723.925 753.951Z" fill="url(#paint6_linear_102_5109)"/>
<path d="M675.999 945L601.874 945L593.374 927L667.499 928L675.999 945Z" fill="url(#paint7_linear_102_5109)"/>
<path d="M724.124 754.379C644.359 700.907 713.973 773.383 705.46 797.628C703.004 836.454 772.258 909.683 776.187 907.717C781.099 905.26 785.519 939.663 786.993 949.001C788.466 958.339 788.09 961.495 790.922 969.642C794.852 980.946 789.94 967.185 801.237 998.639C812.533 1030.09 812.533 1028.13 812.533 1028.13C812.533 1028.13 818.1 917.71 819.41 871.84L780.117 849.233L795.343 840.386L724.124 754.379Z" fill="url(#paint8_linear_102_5109)"/>
<path d="M702.334 725.141C680.705 716.104 635.644 721.376 615.817 725.141L610.41 755.103C627.615 778.679 660.506 811.595 687.095 837.62C711.182 861.196 764.272 912.606 785.41 947.151C778.724 864.241 727.24 764.599 702.334 725.141Z" fill="#FFB600"/>
<path d="M693.797 721.626C690.348 720.643 672.61 720.315 664.234 720.151L652.41 748.662C656.351 752.103 665.268 758.317 671.625 763.409C680.24 770.308 687.282 775.097 688.87 776.681C691.629 779.434 707.921 832.063 712.519 862.704C712.519 862.704 738.013 891.359 752.921 908.419C769.672 927.59 787.41 953.151 787.41 953.151C786.375 940.559 784.198 916.983 780.019 899.571C774.248 875.522 764.253 853.856 764.253 853.856C764.253 853.856 726.479 795.196 710.548 773.732L713.012 748.662C709.891 741.78 697.372 722.645 693.797 721.626Z" fill="#281942"/>
<path d="M615.842 725.116C628.683 722.701 654.52 719.663 677.083 720.218C677.083 720.218 677.083 720.218 677.083 720.218C677.083 720.218 677.084 720.218 677.084 720.218C682.077 720.34 686.909 720.639 691.406 721.159C698.111 721.934 704.068 723.203 708.691 725.116C714.002 732.86 716.824 739.203 721.532 750.037C725.143 758.345 731.41 775.935 731.41 775.935L691.406 721.159C691.406 721.159 683.504 720.482 677.084 720.218C677.084 720.218 677.083 720.218 677.083 720.218C661.279 750.823 638.561 788.151 638.561 788.151C638.561 788.151 625.226 774.958 610.41 754.923L615.842 725.116Z" fill="#FFCF00"/>
<path d="M476.506 794.179C476.506 794.179 462.888 817.506 440.868 828.96C418.849 840.413 406.967 846.836 399.607 832.686C394.506 816.265 410.401 802.26 427.745 788.258C449.764 776.804 476.506 794.179 476.506 794.179Z" fill="#281942"/>
<path d="M476.41 794.416V745.151L426.41 773.232V836.151C433.966 833.722 445.179 827.537 456.312 817.57C463.237 811.371 469.831 803.862 476.41 794.416Z" fill="#FFB600"/>
<path d="M431.218 1094.15L412.894 874.151C391.103 968.717 389.122 1038.29 417.846 1060.83L431.218 1094.15Z" fill="url(#paint9_linear_102_5109)"/>
<path d="M480.5 1074L475.704 869L497.492 863C497.492 863 500.882 958.04 497.492 987.575C494.101 1017.11 480.5 1074 480.5 1074Z" fill="url(#paint10_linear_102_5109)"/>
<path d="M966.999 1027L866.427 1012.15C866.427 1012.15 866.999 1050 866.427 1055.5C865.854 1061 911.231 1128.15 911.231 1128.15H950.499L966.999 1027Z" fill="url(#paint11_linear_102_5109)"/>
<circle cx="443.41" cy="855.151" r="8" fill="#281942"/>
<circle cx="826.91" cy="1025.65" r="7.5" fill="#281942"/>
<circle cx="446.41" cy="881.151" r="8" fill="#281942"/>
<path d="M752.999 1053C738.072 1067.13 684.41 1106.23 684.41 1106.23V1136.15C684.41 1136.15 750.533 1092.65 766.41 1072.87L752.999 1053Z" fill="url(#paint12_linear_102_5109)"/>
<path d="M866.499 1074.35L887.499 1092.5L880.999 1074.35L866.499 1054V1074.35Z" fill="url(#paint13_linear_102_5109)"/>
<path d="M989.41 1069.15L1004.41 1016.15L1053.64 1029.95C1058.41 1030.11 1069.81 1035.87 1077.31 1057.57C1084.8 1079.27 1099.16 1126.78 1105.41 1147.82C1099.73 1182.38 1082.45 1131.61 1085.03 1126.65C1075.74 1126.21 1077.81 1117.31 1088.65 1152.75C1088.65 1152.75 1069.48 1175.44 1058.57 1177.9C1048.71 1181.46 1037.86 1167.05 1037.86 1167.05C1041.48 1172.97 1023.91 1147.82 1023.91 1147.82C1024.9 1143.05 1038.39 1137.14 1015.91 1122.15L1006.8 1124.64C1001.54 1120.2 992.204 1107.48 996.937 1092.09L989.41 1086.15L989.41 1069.15Z" fill="url(#paint14_linear_102_5109)"/>
<ellipse cx="996.91" cy="1090.15" rx="5.5" ry="5" fill="#281942"/>
<path d="M986.41 1091.94H996.937C992.204 1107.32 989.15 1123.56 994.41 1128L1006.8 1143.23C1029.28 1158.22 985.91 1182.5 1002.85 1198.5C1019.42 1191.79 1038.03 1182.92 1034.41 1177L1037.86 1143.23C1043.28 1140.27 1061.14 1126.52 1066.07 1133.92C1071 1141.32 1080.41 1164.5 1080.41 1164.5C1077.73 1212.13 1069.71 1239.89 1076.91 1262C1079.37 1269.54 1081.99 1274.18 1086.91 1277C1093.24 1280.63 1093.11 1271.67 1096.91 1271.5C1089.42 1265.58 1110.16 1181.2 1116.41 1143.23C1110.16 1122.19 1106.87 1053.41 1102.41 1047.5C1082.41 1021 1063.68 1012.16 1058.91 1012L1010.41 1000.5L1006.8 991L981.41 989L986.41 1091.94Z" fill="url(#paint15_linear_102_5109)"/>
<path d="M1042.61 1169.37L1042.41 1169.65C1042.46 1169.58 1042.53 1169.48 1042.61 1169.37L1046.9 1163.37C1048.39 1160.99 1049.82 1158.24 1050.41 1155.65C1051.08 1152.69 1053.29 1146.59 1051.41 1142.82C1049.41 1138.82 1046.41 1138.82 1043.66 1139.98L1039.41 1142.82L1037.41 1144.15C1038.41 1143.48 1040.91 1141.15 1043.66 1139.98L1047.91 1137.15L1055.91 1142.15L1069.41 1147.15L1059.41 1146.15L1059.41 1150.65L1067.91 1166.65L1057.91 1152.65L1052.41 1155.65L1046.9 1163.37C1045.15 1166.15 1043.31 1168.43 1042.61 1169.37Z" fill="#281942"/>
<path d="M1048.41 1044.65L996.91 1091.65H986.41L1010.41 1024.65L1005.41 1076.15L1026.41 1037.15L1010.41 1076.15L1048.41 1044.65Z" fill="url(#paint16_linear_102_5109)"/>
<path d="M458.745 630.062C463.147 620.248 494.058 555.317 495.232 547.859C496.699 538.535 513.33 568.959 499.145 601.345C487.797 627.254 483.492 637.167 481.536 641.092C492.769 645.229 510.378 656.929 508.73 668.446C511.809 661.43 518.091 649.087 525.758 644.783C526.076 644.604 526.373 644.407 526.651 644.193C529.047 637.557 530.41 631.652 530.41 631.652C530.41 631.652 531.512 640.446 526.651 644.193C525.695 646.839 524.575 649.601 523.312 652.152C519.851 659.137 525.837 676.049 523.312 682.077C517.016 697.104 512.841 717.151 512.841 717.151C505.178 726.802 487.699 745.318 479.09 742.177V778.652C469.713 795.114 439.41 823.652 424.41 820.652C409.91 815.652 408.41 802.652 409.91 795.152L422.059 747.34C413.418 715.444 410.32 659.504 430.864 669.809C433.799 656.56 430.665 643.055 447.296 649.434C447.984 639.876 448.473 625.155 458.745 630.062Z" fill="#633FA7"/>
<path d="M458.745 630.111C463.147 620.291 494.058 555.323 495.232 547.86C496.699 538.531 513.33 568.972 499.145 601.378C487.797 627.302 483.492 637.22 481.536 641.148C492.769 645.287 510.378 656.994 508.73 668.518C511.808 661.498 518.091 649.147 525.758 644.841C526.198 644.594 526.606 644.324 526.986 644.036C529.893 637.903 531.91 634.152 531.91 634.152C531.91 634.152 531.68 640.473 526.986 644.036C525.207 647.787 523.096 652.431 520.91 657.652C514.615 672.688 512.841 717.251 512.841 717.251C505.178 726.908 487.699 745.434 479.09 742.292C479.09 742.292 483.751 750.868 467.41 762.652C451.07 774.435 434.41 767.652 434.41 767.652C427.87 765.366 425.413 757.154 422.059 747.458C413.418 715.544 410.32 659.571 430.864 669.881C433.799 656.625 430.665 643.112 447.296 649.495C447.984 639.931 448.473 625.201 458.745 630.111Z" fill="url(#paint17_linear_102_5109)"/>
<path d="M512.738 717.571C512.738 717.571 522.592 668.798 528.91 653.652C534.69 639.797 536.41 637.152 536.41 637.152C536.41 637.152 540.412 634.762 538.91 628.152C536.41 617.152 516.594 629.302 511.41 634.652C497.432 649.077 506.556 673.553 506.556 673.553C485.938 667.876 453.539 697.551 466.302 706.454C479.066 715.356 478.866 742.795 478.866 742.795C487.506 745.96 505.048 727.298 512.738 717.571Z" fill="url(#paint18_linear_102_5109)"/>
<path d="M496.776 547.857C495.584 555.309 464.185 620.178 459.713 629.983C449.279 625.081 448.782 639.788 448.083 649.337C431.19 642.964 436.159 660.123 433.177 673.359C422.808 668.244 417.12 677.564 415.91 693.152C416.603 705.652 416.718 699.152 418.91 711.152C421.91 719.152 422.91 722.152 427.41 722.152C431.91 722.152 429.663 725.732 433.91 728.652C438.157 731.571 452.559 727.824 457.229 726.561C461.908 725.297 467.166 719.208 467.166 719.208L508.204 675.811C517.346 662.868 495.948 645.742 482.864 641.003C484.851 637.081 489.224 627.178 500.751 601.294C515.16 568.937 498.267 538.542 496.776 547.857Z" fill="url(#paint19_linear_102_5109)"/>
<path d="M495.78 547.855C494.588 555.297 463.197 620.083 458.727 629.876C448.295 624.98 449.289 639.668 447.1 649.205C428.426 639.178 429.419 672.472 429.419 672.472C429.419 672.472 450.121 681.388 458.727 691.567C466.178 700.38 474.125 711.152 474.125 711.152L507.205 675.644C516.345 662.718 494.952 645.614 481.871 640.881C483.858 636.965 488.229 627.074 499.754 601.223C514.159 568.908 497.27 538.552 495.78 547.855Z" fill="url(#paint20_linear_102_5109)"/>
<path d="M495.798 547.855C494.608 555.299 463.26 620.1 458.796 629.895C448.379 624.998 445.108 638.475 444.41 648.015C458.005 655.126 461.357 656.713 469.213 661.237C469.213 661.237 487.338 673.47 493.52 685.234C494.502 687.102 494.512 689.152 494.512 689.152L507.208 675.674C516.335 662.745 494.972 645.637 481.909 640.903C483.893 636.985 488.258 627.093 499.767 601.235C514.153 568.913 497.287 538.55 495.798 547.855Z" fill="url(#paint21_linear_102_5109)"/>
<path d="M495.618 547.86C494.421 555.323 462.899 620.294 458.41 630.114L481.651 641.152C483.647 637.224 488.036 627.305 499.609 601.38C514.074 568.973 497.115 538.53 495.618 547.86Z" fill="url(#paint22_linear_102_5109)"/>
<path d="M610.499 895.5L597.318 927.177L649.967 927.557L610.499 895.5Z" fill="#FFB600"/>
<path d="M627.499 895L613.927 926.634L666.562 927.925L627.499 895Z" fill="#FFCF00"/>
<path d="M624.999 1213.5L636.499 1052L684.999 1049.5V1235L624.999 1213.5Z" fill="url(#paint23_linear_102_5109)"/>
<path d="M435.776 718.033L433.361 716.051L432.483 718.033L432.922 724.227L431.825 719.52L429.41 723.484L433.361 714.317L429.41 705.15L434.459 713.821L436.654 716.794L446.41 725.15L436.654 718.033L435.776 721.254V718.033Z" fill="#281942"/>
<path d="M514.999 913L517.999 938L557.999 890L514.999 913Z" fill="url(#paint24_linear_102_5109)"/>
<path d="M514.999 871V896.5L552.999 878L514.999 871Z" fill="url(#paint25_linear_102_5109)"/>
<path d="M990.492 729.99V777.87H983.5V729.99H990.492ZM1035.46 773.386C1037.08 773.386 1038.5 773.209 1039.71 772.854C1040.93 772.5 1042.12 772.044 1043.29 771.486L1044.73 776.502C1041.99 777.87 1038.73 778.554 1034.93 778.554C1032.34 778.554 1029.91 778.174 1027.63 777.414C1025.4 776.654 1023.42 775.514 1021.7 773.994C1020.03 772.424 1018.71 770.498 1017.75 768.218C1016.79 765.888 1016.31 763.177 1016.31 760.086C1016.31 757.249 1016.76 754.69 1017.67 752.41C1018.59 750.13 1019.85 748.205 1021.47 746.634C1023.1 745.013 1025.05 743.772 1027.33 742.91C1029.61 742.049 1032.11 741.618 1034.85 741.618C1036.42 741.618 1037.94 741.745 1039.41 741.998C1040.93 742.201 1042.65 742.733 1044.58 743.594L1043.06 748.686C1040.73 747.369 1038.22 746.71 1035.53 746.71C1031.84 746.71 1028.85 747.876 1026.57 750.206C1024.29 752.486 1023.15 755.704 1023.15 759.858C1023.15 762.442 1023.5 764.596 1024.21 766.318C1024.92 768.041 1025.86 769.434 1027.02 770.498C1028.19 771.512 1029.5 772.246 1030.97 772.702C1032.44 773.158 1033.94 773.386 1035.46 773.386ZM1051.98 777.87V742.15H1056.99L1058.13 749.294C1059 747.014 1060.41 745.165 1062.39 743.746C1064.37 742.328 1066.65 741.618 1069.23 741.618C1070.55 741.618 1071.64 741.72 1072.5 741.922C1073.36 742.125 1074.15 742.378 1074.85 742.682L1073.56 748.534C1072.95 748.23 1072.27 747.977 1071.51 747.774C1070.8 747.572 1069.94 747.47 1068.93 747.47C1067.46 747.47 1066.09 747.724 1064.82 748.23C1063.61 748.737 1062.52 749.497 1061.55 750.51C1060.64 751.524 1059.91 752.79 1059.35 754.31C1058.84 755.78 1058.59 757.477 1058.59 759.402V777.87H1051.98ZM1079.67 745.342C1080.89 744.734 1082.03 744.202 1083.09 743.746C1084.16 743.24 1085.22 742.834 1086.29 742.53C1087.35 742.226 1088.44 741.998 1089.55 741.846C1090.67 741.694 1091.89 741.618 1093.2 741.618C1095.18 741.618 1096.98 741.846 1098.6 742.302C1100.27 742.708 1101.69 743.417 1102.85 744.43C1104.07 745.444 1105.01 746.786 1105.67 748.458C1106.33 750.08 1106.65 752.132 1106.65 754.614V777.87H1101.11L1100.27 773.918H1100.12C1098.55 775.59 1096.83 776.781 1094.95 777.49C1093.08 778.2 1091 778.554 1088.72 778.554C1087 778.554 1085.4 778.326 1083.93 777.87C1082.51 777.364 1081.27 776.68 1080.21 775.818C1079.14 774.906 1078.31 773.817 1077.7 772.55C1077.14 771.284 1076.86 769.865 1076.86 768.294C1076.86 764.545 1078.33 761.708 1081.27 759.782C1084.26 757.806 1088.19 756.818 1093.05 756.818H1099.89V753.778C1099.89 751.194 1099.23 749.446 1097.91 748.534C1096.6 747.572 1094.82 747.09 1092.59 747.09C1091.28 747.09 1089.76 747.318 1088.03 747.774C1086.36 748.18 1084.44 748.99 1082.26 750.206L1079.67 745.342ZM1099.97 761.378L1094.34 761.53C1090.54 761.632 1087.83 762.316 1086.21 763.582C1084.64 764.798 1083.85 766.293 1083.85 768.066C1083.85 769.13 1084.03 770.042 1084.39 770.802C1084.74 771.512 1085.2 772.069 1085.75 772.474C1086.36 772.88 1087.05 773.184 1087.81 773.386C1088.62 773.538 1089.45 773.614 1090.31 773.614C1091.99 773.614 1093.68 773.234 1095.41 772.474C1097.13 771.664 1098.65 770.397 1099.97 768.674V761.378ZM1129.93 723.53C1131.35 723.53 1132.82 723.733 1134.34 724.138C1135.91 724.544 1137.3 725.05 1138.52 725.658L1137.15 730.294C1136.14 729.889 1135.17 729.585 1134.26 729.382C1133.35 729.129 1132.39 729.002 1131.37 729.002C1128.94 729.002 1127.19 729.686 1126.13 731.054C1125.12 732.422 1124.61 734.753 1124.61 738.046V742.15H1135.48V747.166H1124.61V777.87H1118V747.166H1112.75V742.15H1118V735.842C1118 731.89 1119.01 728.85 1121.04 726.722C1123.12 724.594 1126.08 723.53 1129.93 723.53ZM1159.74 747.166H1149.25V767.914C1149.25 769.688 1149.69 770.878 1150.55 771.486C1151.46 772.094 1152.62 772.398 1154.04 772.398C1155.06 772.398 1156.17 772.297 1157.39 772.094C1158.6 771.841 1159.67 771.562 1160.58 771.258L1161.64 776.35C1160.63 776.756 1159.34 777.11 1157.77 777.414C1156.2 777.718 1154.55 777.87 1152.83 777.87C1149.28 777.87 1146.7 777.11 1145.07 775.59C1143.45 774.02 1142.64 771.765 1142.64 768.826V747.166H1137.32V742.15H1142.64V730.75H1149.25V742.15H1159.74V747.166ZM1202.45 773.386C1204.07 773.386 1205.49 773.209 1206.71 772.854C1207.92 772.5 1209.11 772.044 1210.28 771.486L1211.72 776.502C1208.99 777.87 1205.72 778.554 1201.92 778.554C1199.33 778.554 1196.9 778.174 1194.62 777.414C1192.39 776.654 1190.42 775.514 1188.69 773.994C1187.02 772.424 1185.7 770.498 1184.74 768.218C1183.78 765.888 1183.3 763.177 1183.3 760.086C1183.3 757.249 1183.75 754.69 1184.67 752.41C1185.58 750.13 1186.84 748.205 1188.47 746.634C1190.09 745.013 1192.04 743.772 1194.32 742.91C1196.6 742.049 1199.11 741.618 1201.84 741.618C1203.41 741.618 1204.93 741.745 1206.4 741.998C1207.92 742.201 1209.64 742.733 1211.57 743.594L1210.05 748.686C1207.72 747.369 1205.21 746.71 1202.53 746.71C1198.83 746.71 1195.84 747.876 1193.56 750.206C1191.28 752.486 1190.14 755.704 1190.14 759.858C1190.14 762.442 1190.49 764.596 1191.2 766.318C1191.91 768.041 1192.85 769.434 1194.01 770.498C1195.18 771.512 1196.5 772.246 1197.97 772.702C1199.44 773.158 1200.93 773.386 1202.45 773.386ZM1218.97 777.87V742.15H1223.99L1225.13 749.294C1225.99 747.014 1227.41 745.165 1229.38 743.746C1231.36 742.328 1233.64 741.618 1236.22 741.618C1237.54 741.618 1238.63 741.72 1239.49 741.922C1240.35 742.125 1241.14 742.378 1241.85 742.682L1240.56 748.534C1239.95 748.23 1239.26 747.977 1238.5 747.774C1237.79 747.572 1236.93 747.47 1235.92 747.47C1234.45 747.47 1233.08 747.724 1231.82 748.23C1230.6 748.737 1229.51 749.497 1228.55 750.51C1227.64 751.524 1226.9 752.79 1226.34 754.31C1225.84 755.78 1225.58 757.477 1225.58 759.402V777.87H1218.97ZM1248.09 777.87V742.15H1254.78V777.87H1248.09ZM1251.44 732.954C1250.27 732.954 1249.26 732.574 1248.4 731.814C1247.59 731.004 1247.18 730.016 1247.18 728.85C1247.18 727.685 1247.59 726.697 1248.4 725.886C1249.26 725.076 1250.27 724.67 1251.44 724.67C1252.55 724.67 1253.54 725.076 1254.4 725.886C1255.26 726.697 1255.69 727.685 1255.69 728.85C1255.69 730.016 1255.26 731.004 1254.4 731.814C1253.54 732.574 1252.55 732.954 1251.44 732.954ZM1285.8 748.838C1284.12 748.028 1282.6 747.47 1281.24 747.166C1279.87 746.862 1278.5 746.71 1277.13 746.71C1274.7 746.71 1272.9 747.166 1271.74 748.078C1270.57 748.94 1269.99 750.105 1269.99 751.574C1269.99 752.638 1270.39 753.576 1271.2 754.386C1272.02 755.146 1273.71 755.906 1276.3 756.666L1278.58 757.35C1281.97 758.364 1284.53 759.681 1286.25 761.302C1288.03 762.873 1288.91 765.026 1288.91 767.762C1288.91 771.005 1287.7 773.614 1285.26 775.59C1282.88 777.566 1279.54 778.554 1275.23 778.554C1272.95 778.554 1270.75 778.352 1268.62 777.946C1266.54 777.541 1264.74 776.984 1263.22 776.274L1264.82 771.03C1266.29 771.74 1267.89 772.322 1269.61 772.778C1271.33 773.184 1273.08 773.386 1274.85 773.386C1277.13 773.386 1278.93 772.981 1280.25 772.17C1281.62 771.36 1282.3 770.017 1282.3 768.142C1282.3 766.521 1281.72 765.381 1280.55 764.722C1279.39 764.013 1277.72 763.329 1275.54 762.67L1273.18 761.91C1269.89 760.846 1267.43 759.529 1265.81 757.958C1264.24 756.337 1263.45 754.26 1263.45 751.726C1263.45 750.206 1263.78 748.813 1264.44 747.546C1265.1 746.28 1265.99 745.216 1267.1 744.354C1268.27 743.493 1269.63 742.834 1271.2 742.378C1272.78 741.872 1274.5 741.618 1276.37 741.618C1278.15 741.618 1279.97 741.796 1281.84 742.15C1283.77 742.454 1285.59 742.986 1287.32 743.746L1285.8 748.838ZM1311.5 778.554C1309.88 778.554 1308.31 778.326 1306.79 777.87C1305.32 777.414 1304.05 776.806 1302.99 776.046V795.35H1296.38V741.618H1301.93L1302.91 746.254C1304.28 744.988 1305.83 743.898 1307.55 742.986C1309.27 742.074 1311.3 741.618 1313.63 741.618C1318.39 741.618 1322.14 743.138 1324.88 746.178C1327.61 749.218 1328.98 753.576 1328.98 759.25C1328.98 762.594 1328.48 765.482 1327.46 767.914C1326.5 770.346 1325.18 772.348 1323.51 773.918C1321.89 775.489 1320.01 776.654 1317.89 777.414C1315.81 778.174 1313.68 778.554 1311.5 778.554ZM1312.19 747.09C1310.06 747.09 1308.21 747.622 1306.64 748.686C1305.07 749.7 1303.85 750.738 1302.99 751.802V770.878C1304.16 771.74 1305.4 772.373 1306.71 772.778C1308.03 773.184 1309.35 773.386 1310.67 773.386C1312.03 773.386 1313.4 773.158 1314.77 772.702C1316.14 772.196 1317.35 771.385 1318.42 770.27C1319.48 769.156 1320.34 767.712 1321 765.938C1321.66 764.165 1321.99 761.986 1321.99 759.402C1321.99 755.602 1321.18 752.613 1319.56 750.434C1317.99 748.205 1315.53 747.09 1312.19 747.09ZM1351.02 763.734C1351.02 761.86 1351.32 760.162 1351.93 758.642C1352.59 757.122 1353.45 755.754 1354.51 754.538C1355.58 753.322 1356.82 752.258 1358.24 751.346C1359.65 750.434 1361.17 749.649 1362.8 748.99C1361.48 747.521 1360.31 745.849 1359.3 743.974C1358.34 742.049 1357.86 739.946 1357.86 737.666C1357.86 735.994 1358.19 734.5 1358.84 733.182C1359.5 731.865 1360.39 730.75 1361.5 729.838C1362.67 728.876 1364.01 728.166 1365.53 727.71C1367.1 727.204 1368.75 726.95 1370.47 726.95C1372.19 726.95 1373.79 727.204 1375.26 727.71C1376.78 728.217 1378.07 728.952 1379.14 729.914C1380.25 730.826 1381.11 731.941 1381.72 733.258C1382.33 734.576 1382.63 736.02 1382.63 737.59C1382.63 740.276 1381.95 742.505 1380.58 744.278C1379.21 746.052 1377.41 747.496 1375.18 748.61L1372.07 744.886C1373.39 744.177 1374.42 743.24 1375.18 742.074C1375.99 740.909 1376.4 739.541 1376.4 737.97C1376.4 736.197 1375.82 734.753 1374.65 733.638C1373.54 732.524 1372.09 731.966 1370.32 731.966C1368.39 731.966 1366.9 732.498 1365.84 733.562C1364.77 734.626 1364.24 736.02 1364.24 737.742C1364.24 740.022 1364.87 742.125 1366.14 744.05C1367.41 745.925 1369.23 748.053 1371.61 750.434L1384.38 763.354C1385.24 762.037 1386.05 760.517 1386.81 758.794C1387.57 757.021 1388.23 755.324 1388.79 753.702L1394.26 755.906C1393.45 758.186 1392.54 760.314 1391.52 762.29C1390.51 764.266 1389.5 766.014 1388.48 767.534L1398.74 777.87H1390.54L1384.76 771.942C1384.05 772.753 1383.16 773.564 1382.1 774.374C1381.09 775.134 1379.9 775.818 1378.53 776.426C1377.16 777.034 1375.61 777.516 1373.89 777.87C1372.22 778.276 1370.37 778.478 1368.34 778.478C1365.71 778.478 1363.33 778.124 1361.2 777.414C1359.07 776.654 1357.25 775.616 1355.73 774.298C1354.21 772.981 1353.04 771.436 1352.23 769.662C1351.42 767.838 1351.02 765.862 1351.02 763.734ZM1357.55 763.582C1357.55 766.774 1358.59 769.206 1360.67 770.878C1362.8 772.5 1365.61 773.31 1369.1 773.31C1370.17 773.31 1371.26 773.184 1372.37 772.93C1373.54 772.677 1374.65 772.322 1375.72 771.866C1376.78 771.36 1377.74 770.777 1378.6 770.118C1379.52 769.46 1380.28 768.725 1380.88 767.914L1365.99 752.79C1364.87 753.348 1363.81 753.981 1362.8 754.69C1361.78 755.4 1360.87 756.21 1360.06 757.122C1359.3 757.984 1358.69 758.972 1358.24 760.086C1357.78 761.15 1357.55 762.316 1357.55 763.582ZM1427.46 777.87H1420.78V742.15H1425.94L1426.93 747.09C1428.6 745.418 1430.4 744.101 1432.33 743.138C1434.25 742.125 1436.56 741.618 1439.24 741.618C1441.78 741.618 1443.85 742.15 1445.48 743.214C1447.1 744.228 1448.31 745.646 1449.12 747.47C1450.9 745.596 1452.85 744.152 1454.98 743.138C1457.1 742.125 1459.46 741.618 1462.04 741.618C1465.69 741.618 1468.43 742.657 1470.25 744.734C1472.13 746.761 1473.06 749.598 1473.06 753.246V777.87H1466.38V754.462C1466.38 752.081 1465.87 750.257 1464.86 748.99C1463.84 747.724 1462.17 747.09 1459.84 747.09C1456.39 747.09 1453.18 748.636 1450.19 751.726C1450.24 751.98 1450.26 752.233 1450.26 752.486C1450.26 752.74 1450.26 752.993 1450.26 753.246V777.87H1443.58V754.462C1443.58 752.081 1443.07 750.257 1442.06 748.99C1441.04 747.724 1439.37 747.09 1437.04 747.09C1433.59 747.09 1430.4 748.712 1427.46 751.954V777.87ZM1513.82 760.77H1488.2V761.074C1488.2 765.026 1489.27 768.066 1491.4 770.194C1493.57 772.322 1496.51 773.386 1500.21 773.386C1502.14 773.386 1503.83 773.234 1505.3 772.93C1506.82 772.626 1508.47 772.12 1510.24 771.41L1511.61 776.35C1510.14 777.009 1508.39 777.541 1506.37 777.946C1504.39 778.352 1502.26 778.554 1499.98 778.554C1497.4 778.554 1494.97 778.2 1492.69 777.49C1490.46 776.781 1488.48 775.692 1486.76 774.222C1485.04 772.702 1483.67 770.777 1482.66 768.446C1481.69 766.116 1481.21 763.329 1481.21 760.086C1481.21 757.3 1481.62 754.766 1482.43 752.486C1483.29 750.206 1484.48 748.281 1486 746.71C1487.52 745.089 1489.34 743.848 1491.47 742.986C1493.65 742.074 1496.08 741.618 1498.77 741.618C1501.05 741.618 1503.1 741.998 1504.92 742.758C1506.8 743.518 1508.39 744.582 1509.71 745.95C1511.03 747.318 1512.04 748.965 1512.75 750.89C1513.46 752.816 1513.82 754.944 1513.82 757.274V760.77ZM1506.9 755.982C1506.9 754.665 1506.72 753.449 1506.37 752.334C1506.06 751.169 1505.56 750.156 1504.85 749.294C1504.19 748.433 1503.33 747.749 1502.26 747.242C1501.2 746.736 1499.91 746.482 1498.39 746.482C1495.6 746.482 1493.32 747.369 1491.55 749.142C1489.83 750.916 1488.76 753.246 1488.36 756.134L1506.9 755.982ZM1522.09 745.342C1523.31 744.734 1524.45 744.202 1525.51 743.746C1526.58 743.24 1527.64 742.834 1528.7 742.53C1529.77 742.226 1530.86 741.998 1531.97 741.846C1533.09 741.694 1534.3 741.618 1535.62 741.618C1537.6 741.618 1539.4 741.846 1541.02 742.302C1542.69 742.708 1544.11 743.417 1545.27 744.43C1546.49 745.444 1547.43 746.786 1548.08 748.458C1548.74 750.08 1549.07 752.132 1549.07 754.614V777.87H1543.52L1542.69 773.918H1542.54C1540.97 775.59 1539.24 776.781 1537.37 777.49C1535.49 778.2 1533.42 778.554 1531.14 778.554C1529.41 778.554 1527.82 778.326 1526.35 777.87C1524.93 777.364 1523.69 776.68 1522.62 775.818C1521.56 774.906 1520.72 773.817 1520.12 772.55C1519.56 771.284 1519.28 769.865 1519.28 768.294C1519.28 764.545 1520.75 761.708 1523.69 759.782C1526.68 757.806 1530.6 756.818 1535.47 756.818H1542.31V753.778C1542.31 751.194 1541.65 749.446 1540.33 748.534C1539.02 747.572 1537.24 747.09 1535.01 747.09C1533.7 747.09 1532.18 747.318 1530.45 747.774C1528.78 748.18 1526.86 748.99 1524.68 750.206L1522.09 745.342ZM1542.38 761.378L1536.76 761.53C1532.96 761.632 1530.25 762.316 1528.63 763.582C1527.06 764.798 1526.27 766.293 1526.27 768.066C1526.27 769.13 1526.45 770.042 1526.8 770.802C1527.16 771.512 1527.62 772.069 1528.17 772.474C1528.78 772.88 1529.46 773.184 1530.22 773.386C1531.04 773.538 1531.87 773.614 1532.73 773.614C1534.4 773.614 1536.1 773.234 1537.82 772.474C1539.55 771.664 1541.07 770.397 1542.38 768.674V761.378ZM1565.58 777.87H1558.9V742.15H1564.14L1565.13 747.09C1566.9 745.317 1568.75 743.974 1570.68 743.062C1572.65 742.1 1574.91 741.618 1577.44 741.618C1581.09 741.618 1583.95 742.657 1586.03 744.734C1588.11 746.761 1589.14 749.598 1589.14 753.246V777.87H1582.46V754.234C1582.46 752.056 1581.87 750.333 1580.71 749.066C1579.59 747.749 1577.87 747.09 1575.54 747.09C1571.99 747.09 1568.68 748.686 1565.58 751.878V777.87ZM1600.56 777.87V742.15H1607.25V777.87H1600.56ZM1603.9 732.954C1602.74 732.954 1601.72 732.574 1600.86 731.814C1600.05 731.004 1599.65 730.016 1599.65 728.85C1599.65 727.685 1600.05 726.697 1600.86 725.886C1601.72 725.076 1602.74 724.67 1603.9 724.67C1605.02 724.67 1606 725.076 1606.87 725.886C1607.73 726.697 1608.16 727.685 1608.16 728.85C1608.16 730.016 1607.73 731.004 1606.87 731.814C1606 732.574 1605.02 732.954 1603.9 732.954ZM1624.89 777.87H1618.2V742.15H1623.44L1624.43 747.09C1626.2 745.317 1628.05 743.974 1629.98 743.062C1631.95 742.1 1634.21 741.618 1636.74 741.618C1640.39 741.618 1643.25 742.657 1645.33 744.734C1647.41 746.761 1648.45 749.598 1648.45 753.246V777.87H1641.76V754.234C1641.76 752.056 1641.17 750.333 1640.01 749.066C1638.89 747.749 1637.17 747.09 1634.84 747.09C1631.29 747.09 1627.98 748.686 1624.89 751.878V777.87ZM1657.89 754.006C1657.89 752.03 1658.25 750.282 1658.96 748.762C1659.67 747.192 1660.65 745.874 1661.92 744.81C1663.24 743.746 1664.78 742.961 1666.56 742.454C1668.33 741.897 1670.25 741.618 1672.33 741.618C1673.09 741.618 1673.83 741.669 1674.54 741.77C1675.25 741.872 1675.95 741.998 1676.66 742.15H1692.09V747.09H1689.74L1683.66 746.254C1684.62 747.268 1685.35 748.433 1685.86 749.75C1686.42 751.068 1686.7 752.461 1686.7 753.93C1686.7 755.906 1686.34 757.68 1685.63 759.25C1684.92 760.77 1683.93 762.062 1682.67 763.126C1681.4 764.19 1679.88 765.001 1678.11 765.558C1676.33 766.065 1674.41 766.318 1672.33 766.318C1670.76 766.318 1669.39 766.217 1668.23 766.014C1667.06 766.42 1666.25 766.952 1665.8 767.61C1665.34 768.218 1665.11 768.877 1665.11 769.586C1665.11 770.752 1665.49 771.537 1666.25 771.942C1667.06 772.348 1668.13 772.55 1669.44 772.55H1678.87C1682.82 772.55 1685.83 773.462 1687.91 775.286C1690.04 777.06 1691.1 779.492 1691.1 782.582C1691.1 784.558 1690.67 786.332 1689.81 787.902C1688.95 789.473 1687.71 790.816 1686.09 791.93C1684.52 793.045 1682.59 793.881 1680.31 794.438C1678.03 795.046 1675.47 795.35 1672.64 795.35C1667.47 795.35 1663.34 794.413 1660.25 792.538C1657.21 790.714 1655.69 788.004 1655.69 784.406C1655.69 782.532 1656.27 780.961 1657.44 779.694C1658.65 778.428 1660.22 777.465 1662.15 776.806C1661.13 776.097 1660.37 775.362 1659.87 774.602C1659.36 773.792 1659.11 772.728 1659.11 771.41C1659.11 769.84 1659.56 768.497 1660.48 767.382C1661.44 766.268 1662.73 765.381 1664.35 764.722C1662.33 763.81 1660.73 762.493 1659.56 760.77C1658.45 758.997 1657.89 756.742 1657.89 754.006ZM1666.02 777.87C1663.44 779.036 1662.15 780.86 1662.15 783.342C1662.15 787.801 1665.75 790.03 1672.94 790.03C1675.07 790.03 1676.87 789.828 1678.34 789.422C1679.81 789.017 1681 788.485 1681.91 787.826C1682.82 787.168 1683.48 786.433 1683.88 785.622C1684.34 784.812 1684.57 783.976 1684.57 783.114C1684.57 780.986 1683.83 779.568 1682.36 778.858C1680.95 778.2 1679.15 777.87 1676.97 777.87H1666.02ZM1679.93 754.158C1679.93 751.473 1679.22 749.497 1677.8 748.23C1676.44 746.964 1674.61 746.33 1672.33 746.33C1670.05 746.33 1668.2 746.964 1666.78 748.23C1665.42 749.497 1664.73 751.372 1664.73 753.854C1664.73 756.489 1665.42 758.44 1666.78 759.706C1668.2 760.922 1670.05 761.53 1672.33 761.53C1674.61 761.53 1676.44 760.922 1677.8 759.706C1679.22 758.49 1679.93 756.641 1679.93 754.158ZM1713.74 723.53C1715.15 723.53 1716.62 723.733 1718.14 724.138C1719.71 724.544 1721.11 725.05 1722.32 725.658L1720.96 730.294C1719.94 729.889 1718.98 729.585 1718.07 729.382C1717.16 729.129 1716.19 729.002 1715.18 729.002C1712.75 729.002 1711 729.686 1709.94 731.054C1708.92 732.422 1708.42 734.753 1708.42 738.046V742.15H1719.28V747.166H1708.42V777.87H1701.8V747.166H1696.56V742.15H1701.8V735.842C1701.8 731.89 1702.82 728.85 1704.84 726.722C1706.92 724.594 1709.88 723.53 1713.74 723.53ZM1749.46 742.15H1756.15V777.87H1750.9L1749.99 773.386H1749.69C1748.37 774.856 1746.72 776.097 1744.75 777.11C1742.82 778.073 1740.57 778.554 1737.98 778.554C1734.28 778.554 1731.27 777.516 1728.94 775.438C1726.66 773.31 1725.52 770.118 1725.52 765.862V742.15H1732.21V765.026C1732.21 766.546 1732.38 767.838 1732.74 768.902C1733.14 769.966 1733.65 770.828 1734.26 771.486C1734.92 772.094 1735.68 772.55 1736.54 772.854C1737.4 773.108 1738.34 773.234 1739.35 773.234C1741.38 773.234 1743.2 772.804 1744.82 771.942C1746.44 771.081 1747.99 769.89 1749.46 768.37V742.15ZM1766.79 777.87V723.91H1773.33V777.87H1766.79ZM1015.34 855.63C1015.34 858.62 1014.89 861.305 1013.98 863.686C1013.06 866.017 1011.8 867.993 1010.18 869.614C1008.61 871.236 1006.76 872.477 1004.63 873.338C1002.5 874.149 1000.19 874.554 997.712 874.554C995.229 874.554 992.924 874.174 990.796 873.414C988.719 872.604 986.895 871.438 985.324 869.918C983.804 868.348 982.588 866.448 981.676 864.218C980.815 861.938 980.384 859.329 980.384 856.39C980.384 853.401 980.84 850.741 981.752 848.41C982.664 846.08 983.905 844.129 985.476 842.558C987.097 840.937 988.972 839.721 991.1 838.91C993.228 838.049 995.533 837.618 998.016 837.618C1000.5 837.618 1002.78 837.998 1004.86 838.758C1006.98 839.518 1008.81 840.658 1010.33 842.178C1011.9 843.698 1013.11 845.598 1013.98 847.878C1014.89 850.108 1015.34 852.692 1015.34 855.63ZM1008.35 856.01C1008.35 853.629 1008.05 851.602 1007.44 849.93C1006.83 848.258 1006.02 846.89 1005.01 845.826C1004.05 844.762 1002.93 844.002 1001.66 843.546C1000.4 843.04 999.105 842.786 997.788 842.786C996.471 842.786 995.179 842.989 993.912 843.394C992.645 843.8 991.531 844.509 990.568 845.522C989.605 846.536 988.82 847.904 988.212 849.626C987.655 851.298 987.376 853.426 987.376 856.01C987.376 858.392 987.68 860.444 988.288 862.166C988.896 863.838 989.681 865.206 990.644 866.27C991.657 867.334 992.797 868.12 994.064 868.626C995.331 869.133 996.623 869.386 997.94 869.386C999.257 869.386 1000.55 869.184 1001.82 868.778C1003.08 868.322 1004.2 867.588 1005.16 866.574C1006.12 865.51 1006.88 864.142 1007.44 862.47C1008.05 860.748 1008.35 858.594 1008.35 856.01ZM1030.17 873.87H1023.48V838.15H1028.73L1029.71 843.09C1031.49 841.317 1033.34 839.974 1035.26 839.062C1037.24 838.1 1039.49 837.618 1042.03 837.618C1045.67 837.618 1048.54 838.657 1050.61 840.734C1052.69 842.761 1053.73 845.598 1053.73 849.246V873.87H1047.04V850.234C1047.04 848.056 1046.46 846.333 1045.29 845.066C1044.18 843.749 1042.46 843.09 1040.13 843.09C1036.58 843.09 1033.26 844.686 1030.17 847.878V873.87ZM1064.38 873.87V819.91H1070.92V873.87H1064.38ZM1082.66 873.87V838.15H1089.35V873.87H1082.66ZM1086 828.954C1084.84 828.954 1083.83 828.574 1082.96 827.814C1082.15 827.004 1081.75 826.016 1081.75 824.85C1081.75 823.685 1082.15 822.697 1082.96 821.886C1083.83 821.076 1084.84 820.67 1086 820.67C1087.12 820.67 1088.11 821.076 1088.97 821.886C1089.83 822.697 1090.26 823.685 1090.26 824.85C1090.26 826.016 1089.83 827.004 1088.97 827.814C1088.11 828.574 1087.12 828.954 1086 828.954ZM1106.99 873.87H1100.3V838.15H1105.54L1106.53 843.09C1108.3 841.317 1110.15 839.974 1112.08 839.062C1114.05 838.1 1116.31 837.618 1118.84 837.618C1122.49 837.618 1125.35 838.657 1127.43 840.734C1129.51 842.761 1130.55 845.598 1130.55 849.246V873.87H1123.86V850.234C1123.86 848.056 1123.28 846.333 1122.11 845.066C1121 843.749 1119.27 843.09 1116.94 843.09C1113.4 843.09 1110.08 844.686 1106.99 847.878V873.87ZM1171.3 856.77H1145.68V857.074C1145.68 861.026 1146.75 864.066 1148.88 866.194C1151.06 868.322 1153.99 869.386 1157.69 869.386C1159.62 869.386 1161.32 869.234 1162.78 868.93C1164.3 868.626 1165.95 868.12 1167.72 867.41L1169.09 872.35C1167.62 873.009 1165.88 873.541 1163.85 873.946C1161.87 874.352 1159.74 874.554 1157.46 874.554C1154.88 874.554 1152.45 874.2 1150.17 873.49C1147.94 872.781 1145.96 871.692 1144.24 870.222C1142.52 868.702 1141.15 866.777 1140.14 864.446C1139.17 862.116 1138.69 859.329 1138.69 856.086C1138.69 853.3 1139.1 850.766 1139.91 848.486C1140.77 846.206 1141.96 844.281 1143.48 842.71C1145 841.089 1146.82 839.848 1148.95 838.986C1151.13 838.074 1153.56 837.618 1156.25 837.618C1158.53 837.618 1160.58 837.998 1162.4 838.758C1164.28 839.518 1165.88 840.582 1167.19 841.95C1168.51 843.318 1169.52 844.965 1170.23 846.89C1170.94 848.816 1171.3 850.944 1171.3 853.274V856.77ZM1164.38 851.982C1164.38 850.665 1164.2 849.449 1163.85 848.334C1163.54 847.169 1163.04 846.156 1162.33 845.294C1161.67 844.433 1160.81 843.749 1159.74 843.242C1158.68 842.736 1157.39 842.482 1155.87 842.482C1153.08 842.482 1150.8 843.369 1149.03 845.142C1147.31 846.916 1146.24 849.246 1145.84 852.134L1164.38 851.982ZM1226.44 856.77H1200.83V857.074C1200.83 861.026 1201.89 864.066 1204.02 866.194C1206.2 868.322 1209.14 869.386 1212.84 869.386C1214.76 869.386 1216.46 869.234 1217.93 868.93C1219.45 868.626 1221.1 868.12 1222.87 867.41L1224.24 872.35C1222.77 873.009 1221.02 873.541 1218.99 873.946C1217.02 874.352 1214.89 874.554 1212.61 874.554C1210.03 874.554 1207.59 874.2 1205.31 873.49C1203.08 872.781 1201.11 871.692 1199.39 870.222C1197.66 868.702 1196.29 866.777 1195.28 864.446C1194.32 862.116 1193.84 859.329 1193.84 856.086C1193.84 853.3 1194.24 850.766 1195.05 848.486C1195.91 846.206 1197.11 844.281 1198.63 842.71C1200.15 841.089 1201.97 839.848 1204.1 838.986C1206.28 838.074 1208.71 837.618 1211.39 837.618C1213.67 837.618 1215.73 837.998 1217.55 838.758C1219.42 839.518 1221.02 840.582 1222.34 841.95C1223.65 843.318 1224.67 844.965 1225.38 846.89C1226.09 848.816 1226.44 850.944 1226.44 853.274V856.77ZM1219.53 851.982C1219.53 850.665 1219.35 849.449 1218.99 848.334C1218.69 847.169 1218.18 846.156 1217.47 845.294C1216.81 844.433 1215.95 843.749 1214.89 843.242C1213.83 842.736 1212.53 842.482 1211.01 842.482C1208.23 842.482 1205.95 843.369 1204.17 845.142C1202.45 846.916 1201.39 849.246 1200.98 852.134L1219.53 851.982ZM1249.25 855.782L1261.79 873.87H1254.19L1248.04 864.902L1245.22 860.266L1242.64 864.826L1236.71 873.87H1229.26L1241.65 855.782L1229.87 838.15H1237.4L1243.02 846.89L1245.76 851.45L1248.42 846.89L1253.66 838.15H1260.96L1249.25 855.782ZM1282.48 874.554C1280.86 874.554 1279.29 874.326 1277.77 873.87C1276.3 873.414 1275.03 872.806 1273.97 872.046V891.35H1267.36V837.618H1272.91L1273.89 842.254C1275.26 840.988 1276.81 839.898 1278.53 838.986C1280.25 838.074 1282.28 837.618 1284.61 837.618C1289.37 837.618 1293.12 839.138 1295.86 842.178C1298.59 845.218 1299.96 849.576 1299.96 855.25C1299.96 858.594 1299.46 861.482 1298.44 863.914C1297.48 866.346 1296.16 868.348 1294.49 869.918C1292.87 871.489 1290.99 872.654 1288.87 873.414C1286.79 874.174 1284.66 874.554 1282.48 874.554ZM1283.17 843.09C1281.04 843.09 1279.19 843.622 1277.62 844.686C1276.05 845.7 1274.83 846.738 1273.97 847.802V866.878C1275.14 867.74 1276.38 868.373 1277.69 868.778C1279.01 869.184 1280.33 869.386 1281.65 869.386C1283.01 869.386 1284.38 869.158 1285.75 868.702C1287.12 868.196 1288.33 867.385 1289.4 866.27C1290.46 865.156 1291.32 863.712 1291.98 861.938C1292.64 860.165 1292.97 857.986 1292.97 855.402C1292.97 851.602 1292.16 848.613 1290.54 846.434C1288.97 844.205 1286.51 843.09 1283.17 843.09ZM1338.44 856.77H1312.83V857.074C1312.83 861.026 1313.89 864.066 1316.02 866.194C1318.2 868.322 1321.13 869.386 1324.83 869.386C1326.76 869.386 1328.46 869.234 1329.93 868.93C1331.45 868.626 1333.09 868.12 1334.87 867.41L1336.23 872.35C1334.76 873.009 1333.02 873.541 1330.99 873.946C1329.01 874.352 1326.89 874.554 1324.61 874.554C1322.02 874.554 1319.59 874.2 1317.31 873.49C1315.08 872.781 1313.1 871.692 1311.38 870.222C1309.66 868.702 1308.29 866.777 1307.28 864.446C1306.31 862.116 1305.83 859.329 1305.83 856.086C1305.83 853.3 1306.24 850.766 1307.05 848.486C1307.91 846.206 1309.1 844.281 1310.62 842.71C1312.14 841.089 1313.97 839.848 1316.09 838.986C1318.27 838.074 1320.7 837.618 1323.39 837.618C1325.67 837.618 1327.72 837.998 1329.55 838.758C1331.42 839.518 1333.02 840.582 1334.33 841.95C1335.65 843.318 1336.66 844.965 1337.37 846.89C1338.08 848.816 1338.44 850.944 1338.44 853.274V856.77ZM1331.52 851.982C1331.52 850.665 1331.34 849.449 1330.99 848.334C1330.69 847.169 1330.18 846.156 1329.47 845.294C1328.81 844.433 1327.95 843.749 1326.89 843.242C1325.82 842.736 1324.53 842.482 1323.01 842.482C1320.22 842.482 1317.94 843.369 1316.17 845.142C1314.45 846.916 1313.38 849.246 1312.98 852.134L1331.52 851.982ZM1346.18 873.87V838.15H1351.2L1352.34 845.294C1353.2 843.014 1354.62 841.165 1356.59 839.746C1358.57 838.328 1360.85 837.618 1363.43 837.618C1364.75 837.618 1365.84 837.72 1366.7 837.922C1367.56 838.125 1368.35 838.378 1369.06 838.682L1367.77 844.534C1367.16 844.23 1366.47 843.977 1365.71 843.774C1365 843.572 1364.14 843.47 1363.13 843.47C1361.66 843.47 1360.29 843.724 1359.03 844.23C1357.81 844.737 1356.72 845.497 1355.76 846.51C1354.85 847.524 1354.11 848.79 1353.55 850.31C1353.05 851.78 1352.79 853.477 1352.79 855.402V873.87H1346.18ZM1375.3 873.87V838.15H1381.99V873.87H1375.3ZM1378.65 828.954C1377.48 828.954 1376.47 828.574 1375.61 827.814C1374.8 827.004 1374.39 826.016 1374.39 824.85C1374.39 823.685 1374.8 822.697 1375.61 821.886C1376.47 821.076 1377.48 820.67 1378.65 820.67C1379.76 820.67 1380.75 821.076 1381.61 821.886C1382.47 822.697 1382.9 823.685 1382.9 824.85C1382.9 826.016 1382.47 827.004 1381.61 827.814C1380.75 828.574 1379.76 828.954 1378.65 828.954ZM1423.34 856.77H1397.73V857.074C1397.73 861.026 1398.8 864.066 1400.92 866.194C1403.1 868.322 1406.04 869.386 1409.74 869.386C1411.66 869.386 1413.36 869.234 1414.83 868.93C1416.35 868.626 1418 868.12 1419.77 867.41L1421.14 872.35C1419.67 873.009 1417.92 873.541 1415.9 873.946C1413.92 874.352 1411.79 874.554 1409.51 874.554C1406.93 874.554 1404.5 874.2 1402.22 873.49C1399.99 872.781 1398.01 871.692 1396.29 870.222C1394.56 868.702 1393.2 866.777 1392.18 864.446C1391.22 862.116 1390.74 859.329 1390.74 856.086C1390.74 853.3 1391.14 850.766 1391.96 848.486C1392.82 846.206 1394.01 844.281 1395.53 842.71C1397.05 841.089 1398.87 839.848 1401 838.986C1403.18 838.074 1405.61 837.618 1408.3 837.618C1410.58 837.618 1412.63 837.998 1414.45 838.758C1416.33 839.518 1417.92 840.582 1419.24 841.95C1420.56 843.318 1421.57 844.965 1422.28 846.89C1422.99 848.816 1423.34 850.944 1423.34 853.274V856.77ZM1416.43 851.982C1416.43 850.665 1416.25 849.449 1415.9 848.334C1415.59 847.169 1415.08 846.156 1414.38 845.294C1413.72 844.433 1412.86 843.749 1411.79 843.242C1410.73 842.736 1409.44 842.482 1407.92 842.482C1405.13 842.482 1402.85 843.369 1401.08 845.142C1399.35 846.916 1398.29 849.246 1397.88 852.134L1416.43 851.982ZM1437.93 873.87H1431.24V838.15H1436.48L1437.47 843.09C1439.25 841.317 1441.09 839.974 1443.02 839.062C1445 838.1 1447.25 837.618 1449.78 837.618C1453.43 837.618 1456.29 838.657 1458.37 840.734C1460.45 842.761 1461.49 845.598 1461.49 849.246V873.87H1454.8V850.234C1454.8 848.056 1454.22 846.333 1453.05 845.066C1451.94 843.749 1450.21 843.09 1447.88 843.09C1444.34 843.09 1441.02 844.686 1437.93 847.878V873.87ZM1488.79 869.386C1490.41 869.386 1491.83 869.209 1493.04 868.854C1494.26 868.5 1495.45 868.044 1496.61 867.486L1498.06 872.502C1495.32 873.87 1492.05 874.554 1488.25 874.554C1485.67 874.554 1483.24 874.174 1480.96 873.414C1478.73 872.654 1476.75 871.514 1475.03 869.994C1473.36 868.424 1472.04 866.498 1471.08 864.218C1470.12 861.888 1469.63 859.177 1469.63 856.086C1469.63 853.249 1470.09 850.69 1471 848.41C1471.91 846.13 1473.18 844.205 1474.8 842.634C1476.42 841.013 1478.37 839.772 1480.65 838.91C1482.93 838.049 1485.44 837.618 1488.18 837.618C1489.75 837.618 1491.27 837.745 1492.74 837.998C1494.26 838.201 1495.98 838.733 1497.91 839.594L1496.39 844.686C1494.06 843.369 1491.55 842.71 1488.86 842.71C1485.16 842.71 1482.17 843.876 1479.89 846.206C1477.61 848.486 1476.47 851.704 1476.47 855.858C1476.47 858.442 1476.83 860.596 1477.54 862.318C1478.25 864.041 1479.18 865.434 1480.35 866.498C1481.52 867.512 1482.83 868.246 1484.3 868.702C1485.77 869.158 1487.27 869.386 1488.79 869.386ZM1533.86 856.77H1508.24V857.074C1508.24 861.026 1509.31 864.066 1511.44 866.194C1513.61 868.322 1516.55 869.386 1520.25 869.386C1522.18 869.386 1523.87 869.234 1525.34 868.93C1526.86 868.626 1528.51 868.12 1530.28 867.41L1531.65 872.35C1530.18 873.009 1528.43 873.541 1526.41 873.946C1524.43 874.352 1522.3 874.554 1520.02 874.554C1517.44 874.554 1515.01 874.2 1512.73 873.49C1510.5 872.781 1508.52 871.692 1506.8 870.222C1505.08 868.702 1503.71 866.777 1502.7 864.446C1501.73 862.116 1501.25 859.329 1501.25 856.086C1501.25 853.3 1501.66 850.766 1502.47 848.486C1503.33 846.206 1504.52 844.281 1506.04 842.71C1507.56 841.089 1509.38 839.848 1511.51 838.986C1513.69 838.074 1516.12 837.618 1518.81 837.618C1521.09 837.618 1523.14 837.998 1524.96 838.758C1526.84 839.518 1528.43 840.582 1529.75 841.95C1531.07 843.318 1532.08 844.965 1532.79 846.89C1533.5 848.816 1533.86 850.944 1533.86 853.274V856.77ZM1526.94 851.982C1526.94 850.665 1526.76 849.449 1526.41 848.334C1526.1 847.169 1525.6 846.156 1524.89 845.294C1524.23 844.433 1523.37 843.749 1522.3 843.242C1521.24 842.736 1519.95 842.482 1518.43 842.482C1515.64 842.482 1513.36 843.369 1511.59 845.142C1509.86 846.916 1508.8 849.246 1508.4 852.134L1526.94 851.982ZM1561.82 844.838C1560.14 844.028 1558.62 843.47 1557.26 843.166C1555.89 842.862 1554.52 842.71 1553.15 842.71C1550.72 842.71 1548.92 843.166 1547.76 844.078C1546.59 844.94 1546.01 846.105 1546.01 847.574C1546.01 848.638 1546.41 849.576 1547.22 850.386C1548.03 851.146 1549.73 851.906 1552.32 852.666L1554.6 853.35C1557.99 854.364 1560.55 855.681 1562.27 857.302C1564.05 858.873 1564.93 861.026 1564.93 863.762C1564.93 867.005 1563.72 869.614 1561.28 871.59C1558.9 873.566 1555.56 874.554 1551.25 874.554C1548.97 874.554 1546.77 874.352 1544.64 873.946C1542.56 873.541 1540.76 872.984 1539.24 872.274L1540.84 867.03C1542.31 867.74 1543.91 868.322 1545.63 868.778C1547.35 869.184 1549.1 869.386 1550.87 869.386C1553.15 869.386 1554.95 868.981 1556.27 868.17C1557.64 867.36 1558.32 866.017 1558.32 864.142C1558.32 862.521 1557.74 861.381 1556.57 860.722C1555.41 860.013 1553.73 859.329 1551.56 858.67L1549.2 857.91C1545.91 856.846 1543.45 855.529 1541.83 853.958C1540.26 852.337 1539.47 850.26 1539.47 847.726C1539.47 846.206 1539.8 844.813 1540.46 843.546C1541.12 842.28 1542.01 841.216 1543.12 840.354C1544.29 839.493 1545.65 838.834 1547.22 838.378C1548.79 837.872 1550.52 837.618 1552.39 837.618C1554.17 837.618 1555.99 837.796 1557.86 838.15C1559.79 838.454 1561.61 838.986 1563.34 839.746L1561.82 844.838ZM1571.64 869.766C1571.64 868.449 1572.09 867.334 1573.01 866.422C1573.92 865.51 1575.01 865.054 1576.27 865.054C1577.54 865.054 1578.6 865.51 1579.47 866.422C1580.38 867.334 1580.83 868.449 1580.83 869.766C1580.83 871.236 1580.38 872.401 1579.47 873.262C1578.6 874.124 1577.54 874.554 1576.27 874.554C1575.01 874.554 1573.92 874.124 1573.01 873.262C1572.09 872.401 1571.64 871.236 1571.64 869.766Z" fill="#FFE266"/>
<path d="M985.24 957.257H980.96V928.537H985.24V957.257ZM992.227 940.657C993.72 940.524 994.827 940.044 995.547 939.217C996.294 938.364 996.707 937.297 996.787 936.017C996.6 936.071 996.414 936.124 996.227 936.177C996.067 936.204 995.88 936.217 995.667 936.217C994.654 936.217 993.854 935.911 993.267 935.297C992.707 934.657 992.427 933.897 992.427 933.017C992.427 932.004 992.734 931.191 993.347 930.577C993.987 929.937 994.854 929.617 995.947 929.617C996.987 929.617 997.84 929.977 998.507 930.697C999.2 931.391 999.547 932.444 999.547 933.857C999.547 935.911 999.24 937.591 998.627 938.897C998.014 940.177 997.16 941.124 996.067 941.737C994.974 942.324 993.694 942.644 992.227 942.697V940.657ZM1005.71 957.257V936.937H1008.05C1008.59 936.937 1008.93 937.197 1009.07 937.717L1009.35 939.657C1010.09 938.764 1010.92 938.037 1011.83 937.477C1012.75 936.904 1013.82 936.617 1015.05 936.617C1016.39 936.617 1017.49 936.991 1018.33 937.737C1019.17 938.471 1019.78 939.471 1020.17 940.737C1020.46 940.017 1020.84 939.397 1021.31 938.877C1021.77 938.357 1022.29 937.931 1022.87 937.597C1023.44 937.264 1024.05 937.017 1024.69 936.857C1025.34 936.697 1026 936.617 1026.67 936.617C1027.75 936.617 1028.71 936.791 1029.55 937.137C1030.4 937.471 1031.12 937.964 1031.71 938.617C1032.29 939.271 1032.74 940.077 1033.05 941.037C1033.35 941.997 1033.51 943.091 1033.51 944.317V957.257H1029.59V944.317C1029.59 942.797 1029.25 941.651 1028.59 940.877C1027.93 940.104 1026.97 939.717 1025.71 939.717C1025.15 939.717 1024.61 939.817 1024.11 940.017C1023.6 940.204 1023.15 940.491 1022.77 940.877C1022.39 941.264 1022.09 941.744 1021.87 942.317C1021.65 942.891 1021.55 943.557 1021.55 944.317V957.257H1017.63V944.317C1017.63 942.744 1017.31 941.584 1016.69 940.837C1016.06 940.091 1015.14 939.717 1013.93 939.717C1013.09 939.717 1012.31 939.937 1011.59 940.377C1010.87 940.817 1010.21 941.417 1009.61 942.177V957.257H1005.71ZM1061.39 948.237C1059.8 948.291 1058.46 948.417 1057.35 948.617C1056.24 948.804 1055.34 949.057 1054.65 949.377C1053.96 949.697 1053.46 950.077 1053.15 950.517C1052.84 950.944 1052.69 951.424 1052.69 951.957C1052.69 952.464 1052.77 952.904 1052.93 953.277C1053.1 953.637 1053.33 953.937 1053.61 954.177C1053.9 954.404 1054.24 954.571 1054.63 954.677C1055.02 954.784 1055.44 954.837 1055.89 954.837C1056.49 954.837 1057.04 954.777 1057.53 954.657C1058.04 954.537 1058.51 954.371 1058.95 954.157C1059.39 953.931 1059.81 953.657 1060.21 953.337C1060.61 953.017 1061 952.651 1061.39 952.237V948.237ZM1049.95 939.777C1051.08 938.697 1052.31 937.891 1053.63 937.357C1054.96 936.824 1056.42 936.557 1058.01 936.557C1059.17 936.557 1060.2 936.751 1061.09 937.137C1061.98 937.511 1062.74 938.037 1063.35 938.717C1063.96 939.397 1064.42 940.211 1064.73 941.157C1065.05 942.104 1065.21 943.151 1065.21 944.297V957.257H1063.47C1063.08 957.257 1062.79 957.197 1062.59 957.077C1062.39 956.944 1062.23 956.704 1062.11 956.357L1061.69 954.577C1061.17 955.057 1060.66 955.484 1060.15 955.857C1059.64 956.217 1059.11 956.531 1058.55 956.797C1058 957.051 1057.42 957.244 1056.79 957.377C1056.16 957.511 1055.47 957.577 1054.71 957.577C1053.91 957.577 1053.16 957.471 1052.45 957.257C1051.76 957.031 1051.15 956.691 1050.63 956.237C1050.11 955.784 1049.7 955.217 1049.39 954.537C1049.1 953.857 1048.95 953.064 1048.95 952.157C1048.95 951.357 1049.16 950.591 1049.59 949.857C1050.03 949.111 1050.74 948.444 1051.71 947.857C1052.7 947.271 1053.98 946.791 1055.55 946.417C1057.14 946.044 1059.08 945.831 1061.39 945.777V944.297C1061.39 942.764 1061.06 941.617 1060.41 940.857C1059.76 940.097 1058.8 939.717 1057.53 939.717C1056.68 939.717 1055.96 939.824 1055.37 940.037C1054.8 940.251 1054.3 940.491 1053.87 940.757C1053.46 941.011 1053.09 941.244 1052.77 941.457C1052.46 941.671 1052.14 941.777 1051.81 941.777C1051.54 941.777 1051.31 941.704 1051.11 941.557C1050.92 941.411 1050.77 941.237 1050.65 941.037L1049.95 939.777ZM1094.15 953.837C1095.29 953.837 1096.32 953.644 1097.23 953.257C1098.13 952.871 1098.9 952.331 1099.53 951.637C1100.15 950.931 1100.63 950.097 1100.97 949.137C1101.3 948.164 1101.47 947.091 1101.47 945.917V928.537H1105.71V945.917C1105.71 947.597 1105.44 949.151 1104.91 950.577C1104.37 952.004 1103.61 953.237 1102.61 954.277C1101.61 955.317 1100.39 956.131 1098.97 956.717C1097.54 957.304 1095.93 957.597 1094.15 957.597C1092.36 957.597 1090.75 957.304 1089.33 956.717C1087.9 956.131 1086.69 955.317 1085.69 954.277C1084.69 953.237 1083.92 952.004 1083.39 950.577C1082.85 949.151 1082.59 947.597 1082.59 945.917V928.537H1086.85V945.897C1086.85 947.071 1087.01 948.144 1087.33 949.117C1087.66 950.091 1088.14 950.931 1088.77 951.637C1089.39 952.331 1090.16 952.871 1091.07 953.257C1091.97 953.644 1093 953.837 1094.15 953.837ZM1135.52 957.257H1131.3C1130.99 957.257 1130.75 957.177 1130.56 957.017C1130.37 956.844 1130.23 956.664 1130.12 956.477L1122.7 944.657C1122.59 944.991 1122.47 945.277 1122.32 945.517L1115.1 956.477C1114.97 956.664 1114.81 956.844 1114.64 957.017C1114.47 957.177 1114.25 957.257 1113.98 957.257H1110L1119.82 942.477L1110.42 928.537H1114.64C1114.95 928.537 1115.17 928.584 1115.32 928.677C1115.47 928.771 1115.59 928.911 1115.7 929.097L1122.96 940.357C1123.07 940.011 1123.21 939.691 1123.4 939.397L1130.2 929.177C1130.32 928.964 1130.45 928.804 1130.6 928.697C1130.75 928.591 1130.93 928.537 1131.16 928.537H1135.22L1125.76 942.297L1135.52 957.257ZM1176.19 942.897C1176.19 945.044 1175.84 946.997 1175.15 948.757C1174.47 950.517 1173.5 952.031 1172.25 953.297C1171 954.551 1169.5 955.524 1167.75 956.217C1166 956.911 1164.06 957.257 1161.93 957.257H1151.13V928.537H1161.93C1164.06 928.537 1166 928.884 1167.75 929.577C1169.5 930.271 1171 931.251 1172.25 932.517C1173.5 933.771 1174.47 935.284 1175.15 937.057C1175.84 938.817 1176.19 940.764 1176.19 942.897ZM1171.83 942.897C1171.83 941.191 1171.6 939.664 1171.13 938.317C1170.66 936.957 1170 935.811 1169.13 934.877C1168.28 933.931 1167.24 933.211 1166.01 932.717C1164.8 932.224 1163.44 931.977 1161.93 931.977H1155.41V953.817H1161.93C1163.44 953.817 1164.8 953.571 1166.01 953.077C1167.24 952.584 1168.28 951.871 1169.13 950.937C1170 949.991 1170.66 948.844 1171.13 947.497C1171.6 946.151 1171.83 944.617 1171.83 942.897ZM1194.74 944.837C1194.74 944.064 1194.63 943.351 1194.4 942.697C1194.19 942.044 1193.87 941.477 1193.44 940.997C1193.02 940.517 1192.5 940.144 1191.88 939.877C1191.27 939.611 1190.56 939.477 1189.76 939.477C1188.12 939.477 1186.83 939.951 1185.88 940.897C1184.95 941.844 1184.36 943.157 1184.1 944.837H1194.74ZM1197.96 954.357C1197.48 954.917 1196.93 955.404 1196.3 955.817C1195.68 956.217 1195.01 956.544 1194.3 956.797C1193.6 957.051 1192.86 957.237 1192.1 957.357C1191.36 957.477 1190.62 957.537 1189.88 957.537C1188.48 957.537 1187.18 957.304 1185.98 956.837C1184.8 956.357 1183.76 955.664 1182.88 954.757C1182.02 953.837 1181.34 952.704 1180.84 951.357C1180.36 949.997 1180.12 948.437 1180.12 946.677C1180.12 945.264 1180.34 943.951 1180.78 942.737C1181.22 941.511 1181.85 940.444 1182.66 939.537C1183.49 938.631 1184.5 937.917 1185.68 937.397C1186.87 936.877 1188.2 936.617 1189.68 936.617C1190.92 936.617 1192.06 936.824 1193.1 937.237C1194.16 937.637 1195.06 938.224 1195.82 938.997C1196.58 939.771 1197.18 940.724 1197.6 941.857C1198.04 942.991 1198.26 944.284 1198.26 945.737C1198.26 946.337 1198.2 946.744 1198.06 946.957C1197.93 947.157 1197.68 947.257 1197.32 947.257H1184C1184.04 948.471 1184.22 949.531 1184.52 950.437C1184.83 951.331 1185.25 952.077 1185.78 952.677C1186.33 953.277 1186.98 953.724 1187.72 954.017C1188.47 954.311 1189.3 954.457 1190.22 954.457C1191.09 954.457 1191.84 954.357 1192.46 954.157C1193.1 953.957 1193.65 953.744 1194.1 953.517C1194.57 953.277 1194.96 953.057 1195.26 952.857C1195.58 952.657 1195.86 952.557 1196.1 952.557C1196.42 952.557 1196.67 952.677 1196.84 952.917L1197.96 954.357ZM1215.24 940.437C1215.13 940.611 1215.02 940.737 1214.9 940.817C1214.78 940.884 1214.62 940.917 1214.44 940.917C1214.22 940.917 1213.98 940.844 1213.72 940.697C1213.46 940.551 1213.15 940.391 1212.78 940.217C1212.42 940.044 1211.99 939.884 1211.5 939.737C1211 939.591 1210.42 939.517 1209.74 939.517C1209.18 939.517 1208.66 939.591 1208.2 939.737C1207.74 939.871 1207.36 940.064 1207.04 940.317C1206.72 940.557 1206.47 940.851 1206.3 941.197C1206.12 941.531 1206.04 941.891 1206.04 942.277C1206.04 942.784 1206.18 943.204 1206.48 943.537C1206.78 943.871 1207.18 944.157 1207.66 944.397C1208.15 944.637 1208.7 944.857 1209.32 945.057C1209.94 945.244 1210.58 945.444 1211.22 945.657C1211.87 945.871 1212.5 946.117 1213.12 946.397C1213.74 946.664 1214.3 947.004 1214.78 947.417C1215.27 947.817 1215.66 948.304 1215.96 948.877C1216.26 949.451 1216.42 950.151 1216.42 950.977C1216.42 951.924 1216.24 952.804 1215.9 953.617C1215.56 954.417 1215.06 955.111 1214.4 955.697C1213.74 956.284 1212.93 956.744 1211.96 957.077C1210.98 957.411 1209.87 957.577 1208.62 957.577C1207.22 957.577 1205.92 957.344 1204.74 956.877C1203.55 956.411 1202.56 955.817 1201.76 955.097L1202.68 953.597C1202.78 953.411 1202.92 953.271 1203.08 953.177C1203.24 953.071 1203.45 953.017 1203.72 953.017C1203.97 953.017 1204.23 953.111 1204.5 953.297C1204.76 953.484 1205.08 953.691 1205.46 953.917C1205.83 954.131 1206.28 954.331 1206.82 954.517C1207.35 954.691 1208.02 954.777 1208.82 954.777C1209.48 954.777 1210.06 954.697 1210.56 954.537C1211.05 954.364 1211.46 954.137 1211.78 953.857C1212.11 953.564 1212.36 953.231 1212.52 952.857C1212.68 952.484 1212.76 952.091 1212.76 951.677C1212.76 951.144 1212.6 950.704 1212.3 950.357C1212 949.997 1211.61 949.691 1211.12 949.437C1210.64 949.184 1210.08 948.964 1209.46 948.777C1208.83 948.591 1208.19 948.391 1207.54 948.177C1206.88 947.964 1206.24 947.717 1205.62 947.437C1204.99 947.157 1204.43 946.804 1203.94 946.377C1203.46 945.951 1203.06 945.431 1202.76 944.817C1202.46 944.204 1202.32 943.457 1202.32 942.577C1202.32 941.791 1202.48 941.037 1202.8 940.317C1203.13 939.597 1203.6 938.964 1204.22 938.417C1204.84 937.871 1205.61 937.437 1206.52 937.117C1207.44 936.784 1208.48 936.617 1209.66 936.617C1211 936.617 1212.22 936.831 1213.3 937.257C1214.39 937.684 1215.32 938.271 1216.1 939.017L1215.24 940.437ZM1225.52 936.937V957.257H1221.62V936.937H1225.52ZM1226.26 930.657C1226.26 931.017 1226.19 931.364 1226.04 931.697C1225.89 932.017 1225.69 932.304 1225.44 932.557C1225.2 932.797 1224.91 932.991 1224.58 933.137C1224.25 933.271 1223.9 933.337 1223.54 933.337C1223.18 933.337 1222.84 933.271 1222.52 933.137C1222.2 932.991 1221.91 932.797 1221.66 932.557C1221.42 932.304 1221.23 932.017 1221.08 931.697C1220.95 931.364 1220.88 931.017 1220.88 930.657C1220.88 930.284 1220.95 929.937 1221.08 929.617C1221.23 929.284 1221.42 928.997 1221.66 928.757C1221.91 928.504 1222.2 928.311 1222.52 928.177C1222.84 928.031 1223.18 927.957 1223.54 927.957C1223.9 927.957 1224.25 928.031 1224.58 928.177C1224.91 928.311 1225.2 928.504 1225.44 928.757C1225.69 928.997 1225.89 929.284 1226.04 929.617C1226.19 929.937 1226.26 930.284 1226.26 930.657ZM1239.11 947.117C1239.8 947.117 1240.41 947.024 1240.93 946.837C1241.46 946.651 1241.9 946.391 1242.25 946.057C1242.61 945.711 1242.87 945.297 1243.05 944.817C1243.23 944.337 1243.33 943.811 1243.33 943.237C1243.33 942.064 1242.97 941.131 1242.25 940.437C1241.54 939.731 1240.49 939.377 1239.11 939.377C1237.73 939.377 1236.69 939.731 1235.97 940.437C1235.26 941.131 1234.91 942.064 1234.91 943.237C1234.91 943.811 1234.99 944.337 1235.17 944.817C1235.35 945.284 1235.62 945.691 1235.97 946.037C1236.33 946.371 1236.77 946.637 1237.29 946.837C1237.82 947.024 1238.43 947.117 1239.11 947.117ZM1245.33 958.317C1245.33 957.837 1245.19 957.457 1244.93 957.177C1244.66 956.884 1244.29 956.657 1243.83 956.497C1243.37 956.324 1242.84 956.204 1242.23 956.137C1241.61 956.057 1240.97 955.997 1240.29 955.957C1239.62 955.917 1238.93 955.884 1238.23 955.857C1237.52 955.817 1236.84 955.751 1236.19 955.657C1235.49 956.004 1234.92 956.424 1234.47 956.917C1234.03 957.411 1233.81 957.991 1233.81 958.657C1233.81 959.084 1233.91 959.484 1234.13 959.857C1234.35 960.231 1234.69 960.551 1235.15 960.817C1235.61 961.097 1236.19 961.311 1236.89 961.457C1237.59 961.617 1238.43 961.697 1239.41 961.697C1240.37 961.697 1241.21 961.611 1241.95 961.437C1242.68 961.277 1243.29 961.044 1243.79 960.737C1244.29 960.444 1244.67 960.091 1244.93 959.677C1245.19 959.264 1245.33 958.811 1245.33 958.317ZM1249.29 937.697V939.157C1249.29 939.637 1248.99 939.937 1248.39 940.057L1246.21 940.377C1246.39 940.791 1246.54 941.231 1246.65 941.697C1246.75 942.151 1246.81 942.631 1246.81 943.137C1246.81 944.137 1246.61 945.044 1246.23 945.857C1245.84 946.657 1245.31 947.344 1244.63 947.917C1243.95 948.491 1243.13 948.931 1242.19 949.237C1241.25 949.544 1240.23 949.697 1239.11 949.697C1238.19 949.697 1237.33 949.597 1236.53 949.397C1236.13 949.637 1235.82 949.904 1235.61 950.197C1235.41 950.477 1235.31 950.757 1235.31 951.037C1235.31 951.504 1235.5 951.851 1235.89 952.077C1236.29 952.304 1236.8 952.471 1237.43 952.577C1238.07 952.671 1238.79 952.731 1239.61 952.757C1240.43 952.784 1241.27 952.831 1242.11 952.897C1242.96 952.951 1243.79 953.057 1244.61 953.217C1245.43 953.364 1246.16 953.611 1246.79 953.957C1247.43 954.291 1247.94 954.757 1248.33 955.357C1248.73 955.944 1248.93 956.711 1248.93 957.657C1248.93 958.537 1248.71 959.391 1248.27 960.217C1247.84 961.044 1247.21 961.777 1246.39 962.417C1245.56 963.057 1244.55 963.571 1243.37 963.957C1242.18 964.344 1240.83 964.537 1239.33 964.537C1237.82 964.537 1236.51 964.391 1235.39 964.097C1234.28 963.804 1233.35 963.411 1232.61 962.917C1231.87 962.424 1231.32 961.851 1230.95 961.197C1230.59 960.544 1230.41 959.864 1230.41 959.157C1230.41 958.171 1230.71 957.337 1231.33 956.657C1231.94 955.964 1232.79 955.424 1233.87 955.037C1233.28 954.771 1232.81 954.411 1232.47 953.957C1232.12 953.491 1231.95 952.877 1231.95 952.117C1231.95 951.824 1232 951.524 1232.11 951.217C1232.21 950.897 1232.37 950.584 1232.59 950.277C1232.81 949.957 1233.09 949.657 1233.41 949.377C1233.74 949.097 1234.12 948.844 1234.55 948.617C1233.55 948.057 1232.76 947.317 1232.19 946.397C1231.61 945.464 1231.33 944.377 1231.33 943.137C1231.33 942.137 1231.52 941.237 1231.91 940.437C1232.29 939.637 1232.83 938.951 1233.51 938.377C1234.2 937.804 1235.02 937.364 1235.97 937.057C1236.93 936.751 1237.97 936.597 1239.11 936.597C1240.87 936.597 1242.38 936.964 1243.65 937.697H1249.29ZM1257.32 939.757C1257.76 939.291 1258.22 938.864 1258.7 938.477C1259.18 938.091 1259.69 937.764 1260.22 937.497C1260.77 937.217 1261.35 937.004 1261.96 936.857C1262.59 936.697 1263.26 936.617 1263.96 936.617C1265.08 936.617 1266.06 936.804 1266.9 937.177C1267.76 937.551 1268.47 938.077 1269.04 938.757C1269.62 939.424 1270.05 940.231 1270.34 941.177C1270.64 942.124 1270.78 943.171 1270.78 944.317V957.257H1266.86V944.317C1266.86 942.864 1266.53 941.737 1265.86 940.937C1265.2 940.124 1264.18 939.717 1262.8 939.717C1261.8 939.717 1260.86 939.957 1259.98 940.437C1259.12 940.904 1258.31 941.544 1257.56 942.357V957.257H1253.66V936.937H1256C1256.55 936.937 1256.89 937.197 1257.02 937.717L1257.32 939.757ZM1290.31 944.837C1290.31 944.064 1290.19 943.351 1289.97 942.697C1289.75 942.044 1289.43 941.477 1289.01 940.997C1288.58 940.517 1288.06 940.144 1287.45 939.877C1286.83 939.611 1286.13 939.477 1285.33 939.477C1283.69 939.477 1282.39 939.951 1281.45 940.897C1280.51 941.844 1279.92 943.157 1279.67 944.837H1290.31ZM1293.53 954.357C1293.05 954.917 1292.49 955.404 1291.87 955.817C1291.24 956.217 1290.57 956.544 1289.87 956.797C1289.16 957.051 1288.43 957.237 1287.67 957.357C1286.92 957.477 1286.18 957.537 1285.45 957.537C1284.05 957.537 1282.75 957.304 1281.55 956.837C1280.36 956.357 1279.33 955.664 1278.45 954.757C1277.58 953.837 1276.9 952.704 1276.41 951.357C1275.93 949.997 1275.69 948.437 1275.69 946.677C1275.69 945.264 1275.91 943.951 1276.35 942.737C1276.79 941.511 1277.41 940.444 1278.23 939.537C1279.05 938.631 1280.06 937.917 1281.25 937.397C1282.43 936.877 1283.77 936.617 1285.25 936.617C1286.49 936.617 1287.63 936.824 1288.67 937.237C1289.72 937.637 1290.63 938.224 1291.39 938.997C1292.15 939.771 1292.74 940.724 1293.17 941.857C1293.61 942.991 1293.83 944.284 1293.83 945.737C1293.83 946.337 1293.76 946.744 1293.63 946.957C1293.49 947.157 1293.25 947.257 1292.89 947.257H1279.57C1279.61 948.471 1279.78 949.531 1280.09 950.437C1280.39 951.331 1280.81 952.077 1281.35 952.677C1281.89 953.277 1282.54 953.724 1283.29 954.017C1284.03 954.311 1284.87 954.457 1285.79 954.457C1286.65 954.457 1287.4 954.357 1288.03 954.157C1288.67 953.957 1289.21 953.744 1289.67 953.517C1290.13 953.277 1290.52 953.057 1290.83 952.857C1291.15 952.657 1291.43 952.557 1291.67 952.557C1291.99 952.557 1292.23 952.677 1292.41 952.917L1293.53 954.357ZM1302.5 940.837C1303.15 939.504 1303.94 938.457 1304.86 937.697C1305.78 936.937 1306.89 936.557 1308.18 936.557C1308.62 936.557 1309.03 936.611 1309.42 936.717C1309.82 936.811 1310.17 936.957 1310.46 937.157L1310.2 940.097C1310.11 940.457 1309.89 940.637 1309.54 940.637C1309.35 940.637 1309.07 940.604 1308.7 940.537C1308.33 940.457 1307.93 940.417 1307.5 940.417C1306.87 940.417 1306.32 940.511 1305.84 940.697C1305.36 940.871 1304.93 941.137 1304.54 941.497C1304.17 941.844 1303.83 942.277 1303.54 942.797C1303.25 943.304 1302.97 943.884 1302.72 944.537V957.257H1298.82V936.937H1301.06C1301.49 936.937 1301.77 937.017 1301.92 937.177C1302.08 937.324 1302.19 937.591 1302.26 937.977L1302.5 940.837ZM1331.19 943.297C1329.87 944.031 1328.88 944.911 1328.23 945.937C1327.59 946.951 1327.27 948.044 1327.27 949.217C1327.27 950.044 1327.41 950.784 1327.71 951.437C1328.01 952.077 1328.41 952.617 1328.91 953.057C1329.41 953.497 1329.99 953.831 1330.63 954.057C1331.28 954.284 1331.95 954.397 1332.63 954.397C1334.04 954.397 1335.31 954.151 1336.45 953.657C1337.58 953.151 1338.59 952.477 1339.47 951.637L1331.19 943.297ZM1349.89 957.257H1346.09C1345.66 957.257 1345.32 957.211 1345.07 957.117C1344.83 957.011 1344.55 956.797 1344.25 956.477L1341.59 953.797C1340.33 954.971 1338.89 955.897 1337.27 956.577C1335.65 957.244 1333.88 957.577 1331.95 957.577C1330.87 957.577 1329.81 957.397 1328.77 957.037C1327.74 956.664 1326.82 956.131 1326.01 955.437C1325.19 954.744 1324.53 953.904 1324.03 952.917C1323.53 951.917 1323.29 950.791 1323.29 949.537C1323.29 948.617 1323.44 947.744 1323.75 946.917C1324.05 946.077 1324.48 945.311 1325.03 944.617C1325.57 943.911 1326.22 943.277 1326.97 942.717C1327.73 942.157 1328.55 941.677 1329.43 941.277C1328.64 940.251 1328.06 939.257 1327.69 938.297C1327.33 937.324 1327.15 936.331 1327.15 935.317C1327.15 934.344 1327.33 933.424 1327.69 932.557C1328.05 931.691 1328.56 930.937 1329.23 930.297C1329.89 929.657 1330.71 929.151 1331.67 928.777C1332.64 928.404 1333.73 928.217 1334.95 928.217C1336.03 928.217 1337.01 928.391 1337.89 928.737C1338.78 929.071 1339.55 929.524 1340.19 930.097C1340.83 930.671 1341.33 931.331 1341.69 932.077C1342.06 932.824 1342.27 933.604 1342.33 934.417L1339.89 934.917C1339.39 935.024 1339.03 934.804 1338.81 934.257C1338.7 933.911 1338.55 933.557 1338.35 933.197C1338.16 932.837 1337.91 932.517 1337.59 932.237C1337.28 931.944 1336.91 931.704 1336.47 931.517C1336.03 931.331 1335.52 931.237 1334.95 931.237C1334.31 931.237 1333.73 931.344 1333.21 931.557C1332.7 931.771 1332.27 932.064 1331.91 932.437C1331.55 932.797 1331.27 933.224 1331.07 933.717C1330.88 934.211 1330.79 934.737 1330.79 935.297C1330.79 935.737 1330.84 936.171 1330.95 936.597C1331.05 937.011 1331.21 937.431 1331.43 937.857C1331.65 938.271 1331.94 938.697 1332.29 939.137C1332.63 939.564 1333.05 940.024 1333.53 940.517L1341.63 948.817C1342.12 947.937 1342.51 947.011 1342.81 946.037C1343.1 945.064 1343.29 944.091 1343.39 943.117C1343.41 942.851 1343.49 942.637 1343.63 942.477C1343.77 942.317 1343.98 942.237 1344.25 942.237H1346.67C1346.65 943.837 1346.41 945.397 1345.93 946.917C1345.45 948.424 1344.77 949.824 1343.89 951.117L1349.89 957.257ZM1395.64 928.537V957.257H1391.92V936.817C1391.92 936.511 1391.92 936.184 1391.94 935.837C1391.96 935.491 1391.99 935.137 1392.02 934.777L1382.46 952.317C1382.12 952.971 1381.61 953.297 1380.92 953.297H1380.32C1379.62 953.297 1379.12 952.971 1378.8 952.317L1369.06 934.717C1369.14 935.464 1369.18 936.164 1369.18 936.817V957.257H1365.44V928.537H1368.6C1368.97 928.537 1369.26 928.577 1369.46 928.657C1369.67 928.724 1369.87 928.924 1370.06 929.257L1379.66 946.457C1379.84 946.804 1380.02 947.171 1380.18 947.557C1380.34 947.944 1380.49 948.331 1380.64 948.717C1380.92 947.931 1381.24 947.171 1381.62 946.437L1391.04 929.257C1391.21 928.924 1391.4 928.724 1391.6 928.657C1391.81 928.577 1392.1 928.537 1392.48 928.537H1395.64ZM1415.58 944.837C1415.58 944.064 1415.46 943.351 1415.24 942.697C1415.02 942.044 1414.7 941.477 1414.28 940.997C1413.85 940.517 1413.33 940.144 1412.72 939.877C1412.1 939.611 1411.4 939.477 1410.6 939.477C1408.96 939.477 1407.66 939.951 1406.72 940.897C1405.78 941.844 1405.19 943.157 1404.94 944.837H1415.58ZM1418.8 954.357C1418.32 954.917 1417.76 955.404 1417.14 955.817C1416.51 956.217 1415.84 956.544 1415.14 956.797C1414.43 957.051 1413.7 957.237 1412.94 957.357C1412.19 957.477 1411.45 957.537 1410.72 957.537C1409.32 957.537 1408.02 957.304 1406.82 956.837C1405.63 956.357 1404.6 955.664 1403.72 954.757C1402.85 953.837 1402.17 952.704 1401.68 951.357C1401.2 949.997 1400.96 948.437 1400.96 946.677C1400.96 945.264 1401.18 943.951 1401.62 942.737C1402.06 941.511 1402.68 940.444 1403.5 939.537C1404.32 938.631 1405.33 937.917 1406.52 937.397C1407.7 936.877 1409.04 936.617 1410.52 936.617C1411.76 936.617 1412.9 936.824 1413.94 937.237C1414.99 937.637 1415.9 938.224 1416.66 938.997C1417.42 939.771 1418.01 940.724 1418.44 941.857C1418.88 942.991 1419.1 944.284 1419.1 945.737C1419.1 946.337 1419.03 946.744 1418.9 946.957C1418.76 947.157 1418.52 947.257 1418.16 947.257H1404.84C1404.88 948.471 1405.05 949.531 1405.36 950.437C1405.66 951.331 1406.08 952.077 1406.62 952.677C1407.16 953.277 1407.81 953.724 1408.56 954.017C1409.3 954.311 1410.14 954.457 1411.06 954.457C1411.92 954.457 1412.67 954.357 1413.3 954.157C1413.94 953.957 1414.48 953.744 1414.94 953.517C1415.4 953.277 1415.79 953.057 1416.1 952.857C1416.42 952.657 1416.7 952.557 1416.94 952.557C1417.26 952.557 1417.5 952.677 1417.68 952.917L1418.8 954.357ZM1437.19 941.857C1436.55 941.017 1435.85 940.431 1435.11 940.097C1434.37 939.764 1433.55 939.597 1432.63 939.597C1430.84 939.597 1429.45 940.244 1428.47 941.537C1427.49 942.817 1427.01 944.691 1427.01 947.157C1427.01 948.451 1427.11 949.557 1427.33 950.477C1427.55 951.384 1427.87 952.131 1428.29 952.717C1428.71 953.291 1429.23 953.717 1429.85 953.997C1430.46 954.264 1431.15 954.397 1431.93 954.397C1433.06 954.397 1434.04 954.144 1434.87 953.637C1435.69 953.131 1436.47 952.417 1437.19 951.497V941.857ZM1441.11 927.737V957.257H1438.75C1438.2 957.257 1437.86 956.997 1437.73 956.477L1437.39 954.137C1436.52 955.164 1435.53 955.991 1434.43 956.617C1433.33 957.231 1432.07 957.537 1430.63 957.537C1429.47 957.537 1428.41 957.311 1427.47 956.857C1426.53 956.404 1425.73 955.744 1425.07 954.877C1424.4 953.997 1423.89 952.911 1423.53 951.617C1423.17 950.324 1422.99 948.837 1422.99 947.157C1422.99 945.651 1423.19 944.251 1423.59 942.957C1423.99 941.664 1424.57 940.544 1425.33 939.597C1426.09 938.651 1427.01 937.911 1428.09 937.377C1429.17 936.831 1430.39 936.557 1431.75 936.557C1432.97 936.557 1434.01 936.757 1434.87 937.157C1435.73 937.557 1436.51 938.124 1437.19 938.857V927.737H1441.11ZM1451.43 936.937V957.257H1447.53V936.937H1451.43ZM1452.17 930.657C1452.17 931.017 1452.1 931.364 1451.95 931.697C1451.8 932.017 1451.6 932.304 1451.35 932.557C1451.11 932.797 1450.82 932.991 1450.49 933.137C1450.16 933.271 1449.81 933.337 1449.45 933.337C1449.09 933.337 1448.75 933.271 1448.43 933.137C1448.11 932.991 1447.82 932.797 1447.57 932.557C1447.33 932.304 1447.14 932.017 1446.99 931.697C1446.86 931.364 1446.79 931.017 1446.79 930.657C1446.79 930.284 1446.86 929.937 1446.99 929.617C1447.14 929.284 1447.33 928.997 1447.57 928.757C1447.82 928.504 1448.11 928.311 1448.43 928.177C1448.75 928.031 1449.09 927.957 1449.45 927.957C1449.81 927.957 1450.16 928.031 1450.49 928.177C1450.82 928.311 1451.11 928.504 1451.35 928.757C1451.6 928.997 1451.8 929.284 1451.95 929.617C1452.1 929.937 1452.17 930.284 1452.17 930.657ZM1468.8 948.237C1467.21 948.291 1465.86 948.417 1464.76 948.617C1463.65 948.804 1462.75 949.057 1462.06 949.377C1461.36 949.697 1460.86 950.077 1460.56 950.517C1460.25 950.944 1460.1 951.424 1460.1 951.957C1460.1 952.464 1460.18 952.904 1460.34 953.277C1460.51 953.637 1460.74 953.937 1461.02 954.177C1461.31 954.404 1461.65 954.571 1462.04 954.677C1462.42 954.784 1462.84 954.837 1463.3 954.837C1463.9 954.837 1464.44 954.777 1464.94 954.657C1465.44 954.537 1465.92 954.371 1466.36 954.157C1466.8 953.931 1467.22 953.657 1467.62 953.337C1468.02 953.017 1468.41 952.651 1468.8 952.237V948.237ZM1457.36 939.777C1458.49 938.697 1459.72 937.891 1461.04 937.357C1462.37 936.824 1463.83 936.557 1465.42 936.557C1466.58 936.557 1467.6 936.751 1468.5 937.137C1469.39 937.511 1470.14 938.037 1470.76 938.717C1471.37 939.397 1471.83 940.211 1472.14 941.157C1472.46 942.104 1472.62 943.151 1472.62 944.297V957.257H1470.88C1470.49 957.257 1470.2 957.197 1470 957.077C1469.8 956.944 1469.64 956.704 1469.52 956.357L1469.1 954.577C1468.58 955.057 1468.06 955.484 1467.56 955.857C1467.05 956.217 1466.52 956.531 1465.96 956.797C1465.41 957.051 1464.82 957.244 1464.2 957.377C1463.57 957.511 1462.88 957.577 1462.12 957.577C1461.32 957.577 1460.56 957.471 1459.86 957.257C1459.16 957.031 1458.56 956.691 1458.04 956.237C1457.52 955.784 1457.1 955.217 1456.8 954.537C1456.5 953.857 1456.36 953.064 1456.36 952.157C1456.36 951.357 1456.57 950.591 1457 949.857C1457.44 949.111 1458.14 948.444 1459.12 947.857C1460.1 947.271 1461.38 946.791 1462.96 946.417C1464.54 946.044 1466.49 945.831 1468.8 945.777V944.297C1468.8 942.764 1468.47 941.617 1467.82 940.857C1467.16 940.097 1466.2 939.717 1464.94 939.717C1464.08 939.717 1463.36 939.824 1462.78 940.037C1462.2 940.251 1461.7 940.491 1461.28 940.757C1460.86 941.011 1460.5 941.244 1460.18 941.457C1459.87 941.671 1459.55 941.777 1459.22 941.777C1458.95 941.777 1458.72 941.704 1458.52 941.557C1458.33 941.411 1458.18 941.237 1458.06 941.037L1457.36 939.777ZM1504.29 946.557L1500.03 935.417C1499.72 934.657 1499.41 933.697 1499.11 932.537C1498.96 933.111 1498.81 933.644 1498.65 934.137C1498.5 934.631 1498.35 935.071 1498.21 935.457L1493.97 946.557H1504.29ZM1512.71 957.257H1509.43C1509.05 957.257 1508.75 957.164 1508.51 956.977C1508.27 956.791 1508.09 956.551 1507.99 956.257L1505.45 949.597H1492.79L1490.25 956.257C1490.15 956.511 1489.98 956.744 1489.73 956.957C1489.47 957.157 1489.17 957.257 1488.81 957.257H1485.53L1496.97 928.537H1501.27L1512.71 957.257ZM1519.89 940.837C1520.55 939.504 1521.33 938.457 1522.25 937.697C1523.17 936.937 1524.28 936.557 1525.57 936.557C1526.01 936.557 1526.43 936.611 1526.81 936.717C1527.21 936.811 1527.56 936.957 1527.85 937.157L1527.59 940.097C1527.5 940.457 1527.28 940.637 1526.93 940.637C1526.75 940.637 1526.47 940.604 1526.09 940.537C1525.72 940.457 1525.32 940.417 1524.89 940.417C1524.27 940.417 1523.71 940.511 1523.23 940.697C1522.75 940.871 1522.32 941.137 1521.93 941.497C1521.56 941.844 1521.23 942.277 1520.93 942.797C1520.64 943.304 1520.37 943.884 1520.11 944.537V957.257H1516.21V936.937H1518.45C1518.88 936.937 1519.17 937.017 1519.31 937.177C1519.47 937.324 1519.59 937.591 1519.65 937.977L1519.89 940.837ZM1550.92 957.257H1547V940.097H1536.8V951.997C1536.8 952.797 1536.99 953.397 1537.38 953.797C1537.78 954.184 1538.29 954.377 1538.9 954.377C1539.26 954.377 1539.57 954.331 1539.82 954.237C1540.09 954.144 1540.31 954.044 1540.5 953.937C1540.69 953.817 1540.85 953.711 1540.98 953.617C1541.11 953.524 1541.23 953.477 1541.34 953.477C1541.47 953.477 1541.57 953.511 1541.64 953.577C1541.72 953.631 1541.8 953.724 1541.88 953.857L1543.04 955.737C1542.4 956.324 1541.64 956.777 1540.76 957.097C1539.88 957.417 1538.97 957.577 1538.02 957.577C1536.38 957.577 1535.11 957.117 1534.22 956.197C1533.34 955.277 1532.9 953.964 1532.9 952.257V940.097H1530.54C1530.31 940.097 1530.12 940.031 1529.96 939.897C1529.81 939.751 1529.74 939.537 1529.74 939.257V937.677L1533.06 937.217L1533.92 931.157C1533.97 930.931 1534.07 930.757 1534.22 930.637C1534.38 930.504 1534.58 930.437 1534.82 930.437H1536.8V937.257H1550.92V957.257ZM1551.8 930.537C1551.8 930.897 1551.73 931.244 1551.58 931.577C1551.43 931.897 1551.23 932.184 1550.98 932.437C1550.74 932.677 1550.45 932.871 1550.12 933.017C1549.79 933.151 1549.44 933.217 1549.08 933.217C1548.72 933.217 1548.38 933.151 1548.06 933.017C1547.74 932.871 1547.45 932.677 1547.2 932.437C1546.96 932.184 1546.77 931.897 1546.62 931.577C1546.49 931.244 1546.42 930.897 1546.42 930.537C1546.42 930.164 1546.49 929.811 1546.62 929.477C1546.77 929.144 1546.96 928.857 1547.2 928.617C1547.45 928.364 1547.74 928.171 1548.06 928.037C1548.38 927.891 1548.72 927.817 1549.08 927.817C1549.44 927.817 1549.79 927.891 1550.12 928.037C1550.45 928.171 1550.74 928.364 1550.98 928.617C1551.23 928.857 1551.43 929.144 1551.58 929.477C1551.73 929.811 1551.8 930.164 1551.8 930.537ZM1569.36 940.437C1569.26 940.611 1569.14 940.737 1569.02 940.817C1568.9 940.884 1568.75 940.917 1568.56 940.917C1568.35 940.917 1568.11 940.844 1567.84 940.697C1567.59 940.551 1567.28 940.391 1566.9 940.217C1566.54 940.044 1566.12 939.884 1565.62 939.737C1565.13 939.591 1564.54 939.517 1563.86 939.517C1563.3 939.517 1562.79 939.591 1562.32 939.737C1561.87 939.871 1561.48 940.064 1561.16 940.317C1560.84 940.557 1560.6 940.851 1560.42 941.197C1560.25 941.531 1560.16 941.891 1560.16 942.277C1560.16 942.784 1560.31 943.204 1560.6 943.537C1560.91 943.871 1561.3 944.157 1561.78 944.397C1562.28 944.637 1562.83 944.857 1563.44 945.057C1564.07 945.244 1564.7 945.444 1565.34 945.657C1566 945.871 1566.63 946.117 1567.24 946.397C1567.87 946.664 1568.42 947.004 1568.9 947.417C1569.4 947.817 1569.79 948.304 1570.08 948.877C1570.39 949.451 1570.54 950.151 1570.54 950.977C1570.54 951.924 1570.37 952.804 1570.02 953.617C1569.69 954.417 1569.19 955.111 1568.52 955.697C1567.87 956.284 1567.06 956.744 1566.08 957.077C1565.11 957.411 1564 957.577 1562.74 957.577C1561.34 957.577 1560.05 957.344 1558.86 956.877C1557.68 956.411 1556.68 955.817 1555.88 955.097L1556.8 953.597C1556.91 953.411 1557.04 953.271 1557.2 953.177C1557.36 953.071 1557.58 953.017 1557.84 953.017C1558.1 953.017 1558.36 953.111 1558.62 953.297C1558.89 953.484 1559.21 953.691 1559.58 953.917C1559.96 954.131 1560.41 954.331 1560.94 954.517C1561.48 954.691 1562.14 954.777 1562.94 954.777C1563.61 954.777 1564.19 954.697 1564.68 954.537C1565.18 954.364 1565.58 954.137 1565.9 953.857C1566.24 953.564 1566.48 953.231 1566.64 952.857C1566.8 952.484 1566.88 952.091 1566.88 951.677C1566.88 951.144 1566.73 950.704 1566.42 950.357C1566.13 949.997 1565.74 949.691 1565.24 949.437C1564.76 949.184 1564.21 948.964 1563.58 948.777C1562.96 948.591 1562.32 948.391 1561.66 948.177C1561.01 947.964 1560.37 947.717 1559.74 947.437C1559.12 947.157 1558.56 946.804 1558.06 946.377C1557.58 945.951 1557.19 945.431 1556.88 944.817C1556.59 944.204 1556.44 943.457 1556.44 942.577C1556.44 941.791 1556.6 941.037 1556.92 940.317C1557.26 939.597 1557.73 938.964 1558.34 938.417C1558.97 937.871 1559.74 937.437 1560.64 937.117C1561.56 936.784 1562.61 936.617 1563.78 936.617C1565.13 936.617 1566.34 936.831 1567.42 937.257C1568.52 937.684 1569.45 938.271 1570.22 939.017L1569.36 940.437ZM1581.93 957.577C1580.29 957.577 1579.02 957.117 1578.13 956.197C1577.25 955.277 1576.81 953.964 1576.81 952.257V940.097H1574.45C1574.22 940.097 1574.03 940.031 1573.87 939.897C1573.72 939.751 1573.65 939.537 1573.65 939.257V937.677L1576.95 937.217L1577.83 931.157C1577.88 930.931 1577.98 930.757 1578.13 930.637C1578.29 930.504 1578.49 930.437 1578.73 930.437H1580.71V937.257H1586.47V940.097H1580.71V951.997C1580.71 952.797 1580.9 953.397 1581.29 953.797C1581.69 954.184 1582.19 954.377 1582.81 954.377C1583.17 954.377 1583.47 954.331 1583.73 954.237C1583.99 954.144 1584.22 954.044 1584.41 953.937C1584.59 953.817 1584.75 953.711 1584.89 953.617C1585.02 953.524 1585.14 953.477 1585.25 953.477C1585.38 953.477 1585.48 953.511 1585.55 953.577C1585.63 953.631 1585.71 953.724 1585.79 953.857L1586.95 955.737C1586.31 956.324 1585.55 956.777 1584.67 957.097C1583.79 957.417 1582.87 957.577 1581.93 957.577ZM1590.22 954.917C1590.22 954.557 1590.29 954.217 1590.42 953.897C1590.55 953.577 1590.73 953.297 1590.96 953.057C1591.2 952.817 1591.48 952.631 1591.8 952.497C1592.12 952.351 1592.47 952.277 1592.84 952.277C1593.2 952.277 1593.54 952.351 1593.86 952.497C1594.18 952.631 1594.46 952.817 1594.7 953.057C1594.94 953.297 1595.13 953.577 1595.26 953.897C1595.41 954.217 1595.48 954.557 1595.48 954.917C1595.48 955.291 1595.41 955.637 1595.26 955.957C1595.13 956.277 1594.94 956.557 1594.7 956.797C1594.46 957.037 1594.18 957.224 1593.86 957.357C1593.54 957.491 1593.2 957.557 1592.84 957.557C1592.47 957.557 1592.12 957.491 1591.8 957.357C1591.48 957.224 1591.2 957.037 1590.96 956.797C1590.73 956.557 1590.55 956.277 1590.42 955.957C1590.29 955.637 1590.22 955.291 1590.22 954.917Z" fill="white"/>
<path d="M993.319 395.171C985.006 340.074 905.938 304.623 860.42 286.649L861.801 539.766C908.783 556.006 909.682 555.532 937.242 565.749C964.802 575.967 983.322 581.994 996.579 615.334L993.319 395.171Z" fill="#8DFFEB" fill-opacity="0.25"/>
<path d="M985.765 666.604C993.316 666.434 997.164 666.087 997.088 615.279L993.267 456.315C993.267 456.315 992.131 476.796 989.4 483.46C987.18 488.875 981.347 493.103 981.347 493.103L985.765 666.604Z" fill="#8DFFCF" fill-opacity="0.5"/>
<path d="M899.42 552.764V304.349C913.02 308.489 944.087 330.225 957.92 340.576V573.936C947.52 569.42 914.587 557.94 899.42 552.764Z" fill="#71F0DA"/>
<ellipse cx="877.592" cy="527.05" rx="11.1724" ry="10.5129" fill="white"/>
<ellipse cx="877.592" cy="438.599" rx="11.1724" ry="10.5129" fill="white"/>
<ellipse cx="877.592" cy="351.089" rx="11.1724" ry="10.5129" fill="white"/>
<ellipse cx="877.592" cy="485.647" rx="11.1724" ry="10.5129" fill="white"/>
<ellipse cx="877.592" cy="397.196" rx="11.1724" ry="10.5129" fill="white"/>
<ellipse cx="877.592" cy="309.686" rx="11.1724" ry="10.5129" fill="white"/>
<ellipse cx="970.92" cy="373.981" rx="6.5" ry="6.11629" fill="white"/>
<ellipse cx="970.92" cy="424.793" rx="6.5" ry="6.11629" fill="white"/>
<ellipse cx="970.92" cy="471.841" rx="6.5" ry="6.11629" fill="white"/>
<ellipse cx="970.92" cy="522.653" rx="6.5" ry="6.11629" fill="white"/>
<ellipse cx="970.92" cy="397.505" rx="6.5" ry="6.11629" fill="white"/>
<ellipse cx="970.92" cy="448.317" rx="6.5" ry="6.11629" fill="white"/>
<ellipse cx="970.92" cy="495.365" rx="6.5" ry="6.11629" fill="white"/>
<ellipse cx="970.92" cy="546.178" rx="6.5" ry="6.11629" fill="white"/>
<ellipse cx="970.92" cy="569.702" rx="6.5" ry="6.11629" fill="white"/>
<path d="M908.42 323.639L948.92 346.222M908.42 336.812L948.92 359.395M908.42 351.397L948.92 373.98" stroke="white" stroke-width="3"/>
<path d="M908.42 365.982L948.92 388.565M908.42 379.156L948.92 401.739M908.42 393.741L948.92 416.324" stroke="white" stroke-width="3"/>
<path d="M908.42 407.385L948.92 429.968M908.42 420.558L948.92 443.142M908.42 435.143L948.92 457.727" stroke="white" stroke-width="3"/>
<path d="M908.42 448.787L948.92 471.371M908.42 461.961L948.92 484.544M908.42 476.546L948.92 499.129" stroke="white" stroke-width="3"/>
<path d="M908.42 490.19L948.92 512.773M908.42 503.363L948.92 525.947M908.42 517.948L948.92 540.532" stroke="white" stroke-width="3"/>
<path d="M908.42 532.534L948.92 555.117M908.42 545.707L948.92 568.29" stroke="white" stroke-width="3"/>
<path d="M981.42 381.508L988.92 393.27M981.42 390.447L992.92 411.149" stroke="white" stroke-width="3"/>
<path d="M981.42 400.798L988.92 412.56M981.42 409.737L992.92 430.439" stroke="white" stroke-width="3"/>
<path d="M981.42 423.381L988.92 435.143M981.42 432.321L992.92 453.022" stroke="white" stroke-width="3"/>
<path d="M981.42 447.846L988.92 459.609M981.42 456.786L992.92 477.487" stroke="white" stroke-width="3"/>
<path d="M981.42 471.371L988.92 483.133M981.42 480.31L992.92 501.011" stroke="white" stroke-width="3"/>
<path d="M981.42 493.013L988.92 504.775M981.42 501.952L992.92 522.653" stroke="white" stroke-width="3"/>
<path d="M981.42 521.242L988.92 533.004M981.42 530.181L992.92 550.882" stroke="white" stroke-width="3"/>
<path d="M981.42 541.943L988.92 553.705M981.42 550.882L992.92 571.584" stroke="white" stroke-width="3"/>
<path d="M981.42 566.408L988.92 578.171M981.42 575.348L992.92 596.049" stroke="white" stroke-width="3"/>
<path d="M288.502 735.135C273.466 734.863 265.798 734.338 264.519 658.972L267.649 423.184C267.649 423.184 270.487 453.567 276.111 463.459C280.681 471.497 292.411 477.785 292.411 477.785L288.502 735.135Z" fill="#A2FFEF" fill-opacity="0.5"/>
<path d="M272.999 400.159C288.199 340.559 437.833 315.826 524 296.159L532 635.159C445.749 652.659 343.251 672.659 343.251 672.659C343.251 672.659 261.378 691.498 257.315 700.948L257.251 702.159C257.107 701.776 257.133 701.371 257.315 700.948L272.999 400.159Z" fill="url(#paint26_linear_102_5109)" fill-opacity="0.5"/>
<path d="M505.749 323.159L468.252 331.255V363.159L505.749 355.064V323.159Z" fill="#D4FFF7"/>
<path d="M505.749 487.159L468.252 495.255V527.159L505.749 519.064V487.159Z" fill="#D4FFF7"/>
<path d="M505.749 380.159L468.252 388.255V420.159L505.749 412.064V380.159Z" fill="#D4FFF7"/>
<path d="M505.749 544.159L468.252 552.255V584.159L505.749 576.064V544.159Z" fill="#D4FFF7"/>
<path d="M505.749 602.159L468.252 610.255V642.159L505.749 634.064V602.159Z" fill="#D4FFF7"/>
<path d="M505.749 435.159L468.252 443.255V475.159L505.749 467.064V435.159Z" fill="#D4FFF7"/>
<circle cx="364.425" cy="535.332" r="11.1724" fill="white"/>
<ellipse cx="364.424" cy="615.332" rx="11.1724" ry="10.1724" fill="white"/>
<ellipse cx="364.424" cy="653.332" rx="11.1724" ry="10.1724" fill="white"/>
<ellipse cx="364.424" cy="578.332" rx="11.1724" ry="10.1724" fill="white"/>
<path d="M359.094 472.648C359.656 476.193 357.237 479.523 353.692 480.085C350.146 480.647 346.816 478.229 346.254 474.683C345.692 471.138 348.111 467.808 351.656 467.246C355.202 466.683 358.532 469.102 359.094 472.648Z" fill="white"/>
<path d="M343.918 479.104C344.48 482.649 342.061 485.979 338.516 486.541C334.97 487.103 331.64 484.685 331.078 481.139C330.516 477.594 332.934 474.264 336.48 473.702C340.025 473.14 343.355 475.558 343.918 479.104Z" fill="white"/>
<circle cx="368.007" cy="468.197" r="6.5" transform="rotate(-9.00901 368.007 468.197)" fill="white"/>
<path d="M267.751 425.659C271.251 404.659 330.751 379.159 374.252 365.159V452.159C340.912 460.577 266.218 488.707 264.774 509.064L264.753 509.659C264.753 509.462 264.76 509.263 264.774 509.064L267.751 425.659Z" fill="#E2F8FF"/>
<path d="M375.252 487.159C300.749 505.659 266.749 532.888 266.749 535.159L266.249 561.659C278.749 551.659 302.249 532.159 375.252 512.582V487.159Z" fill="#8DFFF1" fill-opacity="0.5"/>
<path d="M268.252 387.659C315.751 338.326 446.086 302.159 524.252 287.159V310.659C368.749 330.159 289.749 387.659 268.252 411.659V387.659Z" fill="#71F0DA"/>
<path d="M456.752 336.659C441.586 341.159 408.552 351.359 397.752 356.159M456.752 349.159L397.752 367.659M456.752 362.159L426.252 372.159" stroke="#EEFFFC" stroke-width="3"/>
<path d="M456.752 392.159C441.586 396.659 408.552 406.859 397.752 411.659M456.752 404.659L397.752 423.159M456.752 417.659L426.252 427.659" stroke="#EEFFFC" stroke-width="3"/>
<path d="M456.752 447.159C441.586 451.659 408.552 461.859 397.752 466.659M456.752 459.659L397.752 478.159M456.752 472.659L426.252 482.659" stroke="#EEFFFC" stroke-width="3"/>
<path d="M456.752 499.159C441.586 503.659 408.552 513.859 397.752 518.659M456.752 511.659L397.752 530.159M456.752 524.659L426.252 534.659M342.252 530.159L316.752 540.659M346.252 540.659L275.752 570.159" stroke="#EEFFFC" stroke-width="3"/>
<path d="M456.752 558.159C441.586 562.659 408.552 572.859 397.752 577.659M456.752 570.659L435.752 577.659" stroke="#EEFFFC" stroke-width="3"/>
<path d="M456.752 615.159C441.586 619.659 408.552 629.859 397.752 634.659M456.752 627.659L435.752 634.659" stroke="#EEFFFC" stroke-width="3"/>
<path d="M373.955 330.159C344.249 340.659 302.789 362.159 287.749 374.159L287.749 390.659C319.994 366.159 350.953 354.7 373.955 344.2L373.955 330.159Z" fill="white"/>
<path d="M284.249 390.659C284.249 394.249 281.339 397.159 277.749 397.159C274.159 397.159 271.249 394.249 271.249 390.659C271.249 387.069 274.159 384.159 277.749 384.159C281.339 384.159 284.249 387.069 284.249 390.659Z" fill="white"/>
<path d="M344.752 610.159L321.751 619.659" stroke="white" stroke-width="3"/>
<path d="M344.752 648.159L321.751 657.659" stroke="white" stroke-width="3"/>
<path d="M344.752 571.159L319.251 581.659" stroke="white" stroke-width="3"/>
<path d="M347.252 623.659L274.752 652.159" stroke="white" stroke-width="3"/>
<path d="M347.252 661.659L274.752 690.159" stroke="white" stroke-width="3"/>
<path d="M347.252 584.659L274.752 613.159" stroke="white" stroke-width="3"/>
<path d="M325.963 488.914L277.249 511.659" stroke="#EEFFFC" stroke-width="3"/>
<path d="M954.411 602.706C920.5 595.159 893.717 592.08 882.411 590.659V759.159C882.411 759.159 932 764.659 954.411 768.309V602.706Z" fill="url(#paint27_linear_102_5109)" fill-opacity="0.25"/>
<path d="M953.411 715.168V770.309C935.612 758.998 882.411 740.012 882.411 740.012V708.159C884.434 708.416 901 708.159 901 708.159L914.5 662.659C901 660.159 898 616.159 924.072 619.431C950.145 622.703 945.5 667.659 931.7 664.876C933.83 675.871 939 711.159 939 711.159C939 711.159 949.494 712.766 953.411 715.168Z" fill="white"/>
<path d="M954.411 714.043C915.5 706.659 893.717 708.045 882.411 706.659C882.411 763.692 882.411 760.595 882.411 760.595C882.411 760.595 928 764.659 954.411 770.481V714.043Z" fill="#5DD1BD"/>
<path d="M917.17 732.331C917.17 738.502 912.168 743.504 905.998 743.504C899.827 743.504 894.825 738.502 894.825 732.331C894.825 726.161 899.827 721.159 905.998 721.159C912.168 721.159 917.17 726.161 917.17 732.331Z" fill="white"/>
<circle cx="935.308" cy="735.999" r="11.1724" fill="white"/>
<defs>
<radialGradient id="paint0_radial_102_5109" cx="0" cy="0" r="1" gradientUnits="userSpaceOnUse" gradientTransform="translate(662.182 626.86) scale(99.702)">
<stop/>
<stop offset="0.740697"/>
<stop offset="0.902767" stop-color="#BF2E00" stop-opacity="0"/>
</radialGradient>
<linearGradient id="paint1_linear_102_5109" x1="70.679" y1="0" x2="70.679" y2="141.358" gradientUnits="userSpaceOnUse">
<stop stop-color="#FFEFD1"/>
<stop offset="0.5" stop-color="#BF0000"/>
<stop offset="1" stop-color="#FCE4C7"/>
</linearGradient>
<linearGradient id="paint2_linear_102_5109" x1="288.905" y1="768.815" x2="1041.32" y2="515.534" gradientUnits="userSpaceOnUse">
<stop offset="0.189417" stop-color="#BF2E00"/>
<stop offset="0.505348" stop-color="#FF008B"/>
<stop offset="0.707903" stop-color="#882100"/>
</linearGradient>
<linearGradient id="paint3_linear_102_5109" x1="534.999" y1="1115" x2="679.999" y2="962" gradientUnits="userSpaceOnUse">
<stop offset="0.029888" stop-color="#281942"/>
<stop offset="0.685591" stop-color="#633FA7"/>
<stop offset="1" stop-color="#633FA7"/>
</linearGradient>
<linearGradient id="paint4_linear_102_5109" x1="534.131" y1="960.894" x2="514.499" y2="770.394" gradientUnits="userSpaceOnUse">
<stop stop-color="#281942"/>
<stop offset="1" stop-color="#633FA7"/>
</linearGradient>
<linearGradient id="paint5_linear_102_5109" x1="993.999" y1="955.5" x2="441.777" y2="1195.25" gradientUnits="userSpaceOnUse">
<stop offset="0.24962" stop-color="#1D1942"/>
<stop offset="0.380411" stop-color="#633FA7" stop-opacity="0"/>
</linearGradient>
<linearGradient id="paint6_linear_102_5109" x1="828.269" y1="753.951" x2="494.553" y2="1098.5" gradientUnits="userSpaceOnUse">
<stop stop-color="#281942"/>
<stop offset="0.0658353" stop-color="#5E3C9F"/>
<stop offset="0.361311" stop-color="#633FA7"/>
<stop offset="1" stop-color="#281942"/>
</linearGradient>
<linearGradient id="paint7_linear_102_5109" x1="632.484" y1="925.542" x2="633.896" y2="973.769" gradientUnits="userSpaceOnUse">
<stop stop-color="#633FA7"/>
<stop offset="1" stop-color="#281942"/>
</linearGradient>
<linearGradient id="paint8_linear_102_5109" x1="573.499" y1="619.001" x2="1095.52" y2="1690.49" gradientUnits="userSpaceOnUse">
<stop stop-color="#633FA7"/>
<stop stop-color="#633FA7"/>
<stop offset="1" stop-color="#281942"/>
</linearGradient>
<linearGradient id="paint9_linear_102_5109" x1="429.733" y1="1353.84" x2="444.76" y2="881.981" gradientUnits="userSpaceOnUse">
<stop stop-color="#281942"/>
<stop offset="1" stop-color="#281942" stop-opacity="0"/>
</linearGradient>
<linearGradient id="paint10_linear_102_5109" x1="498.999" y1="1302" x2="500.451" y2="869.291" gradientUnits="userSpaceOnUse">
<stop stop-color="#301E50"/>
<stop offset="1" stop-color="#301E50" stop-opacity="0"/>
</linearGradient>
<linearGradient id="paint11_linear_102_5109" x1="962.435" y1="1041.64" x2="903.999" y2="1253.5" gradientUnits="userSpaceOnUse">
<stop stop-color="#633FA7"/>
<stop offset="1" stop-color="#281942"/>
</linearGradient>
<linearGradient id="paint12_linear_102_5109" x1="725.655" y1="1260.76" x2="725.655" y2="1052.26" gradientUnits="userSpaceOnUse">
<stop stop-color="#281942"/>
<stop offset="0.594383" stop-color="#281942" stop-opacity="0.591966"/>
<stop offset="1" stop-color="#281942" stop-opacity="0"/>
</linearGradient>
<linearGradient id="paint13_linear_102_5109" x1="874.134" y1="1064" x2="874.134" y2="1118" gradientUnits="userSpaceOnUse">
<stop stop-color="#573793"/>
<stop offset="1" stop-color="#281942"/>
</linearGradient>
<linearGradient id="paint14_linear_102_5109" x1="1034.41" y1="1015.15" x2="1034.9" y2="1224.76" gradientUnits="userSpaceOnUse">
<stop offset="0.268537" stop-color="#633FA7"/>
<stop offset="0.550242" stop-color="#281942"/>
<stop offset="1" stop-color="#623EA5"/>
</linearGradient>
<linearGradient id="paint15_linear_102_5109" x1="1041.31" y1="1050.51" x2="1034.9" y2="1331.63" gradientUnits="userSpaceOnUse">
<stop offset="0.958243" stop-color="#633FA7"/>
<stop offset="1" stop-color="#281942"/>
</linearGradient>
<linearGradient id="paint16_linear_102_5109" x1="1012.41" y1="1036.15" x2="1016.91" y2="1091.65" gradientUnits="userSpaceOnUse">
<stop stop-color="#5C3A9B" stop-opacity="0.17"/>
<stop offset="1" stop-color="#281942"/>
</linearGradient>
<linearGradient id="paint17_linear_102_5109" x1="489.561" y1="787.719" x2="478.719" y2="644.847" gradientUnits="userSpaceOnUse">
<stop stop-color="#281942"/>
<stop offset="0.555113" stop-color="#633FA7"/>
</linearGradient>
<linearGradient id="paint18_linear_102_5109" x1="502.41" y1="643.152" x2="499.643" y2="760.362" gradientUnits="userSpaceOnUse">
<stop offset="0.464561" stop-color="#633FA7"/>
<stop offset="1" stop-color="#281942"/>
</linearGradient>
<linearGradient id="paint19_linear_102_5109" x1="463.945" y1="546.152" x2="463.945" y2="750.818" gradientUnits="userSpaceOnUse">
<stop offset="0.640418" stop-color="#633FA7"/>
<stop offset="1" stop-color="#281942"/>
</linearGradient>
<linearGradient id="paint20_linear_102_5109" x1="484.557" y1="676.879" x2="465.184" y2="728.962" gradientUnits="userSpaceOnUse">
<stop stop-color="#633FA7"/>
<stop offset="1" stop-color="#281942"/>
</linearGradient>
<linearGradient id="paint21_linear_102_5109" x1="472.685" y1="637.73" x2="441.126" y2="709.043" gradientUnits="userSpaceOnUse">
<stop stop-color="#633FA7"/>
<stop offset="1" stop-color="#281942"/>
</linearGradient>
<linearGradient id="paint22_linear_102_5109" x1="488.838" y1="593.289" x2="498.022" y2="744.538" gradientUnits="userSpaceOnUse">
<stop stop-color="#633FA7"/>
<stop offset="0.608564" stop-color="#281942"/>
</linearGradient>
<linearGradient id="paint23_linear_102_5109" x1="536.499" y1="1043" x2="684.999" y2="1043" gradientUnits="userSpaceOnUse">
<stop stop-color="#281942"/>
<stop offset="1" stop-color="#633FA7"/>
</linearGradient>
<linearGradient id="paint24_linear_102_5109" x1="536.999" y1="885.5" x2="496.999" y2="1013.5" gradientUnits="userSpaceOnUse">
<stop stop-color="#633FA7"/>
<stop offset="1" stop-color="#281942"/>
</linearGradient>
<linearGradient id="paint25_linear_102_5109" x1="528.999" y1="874" x2="496.999" y2="971.5" gradientUnits="userSpaceOnUse">
<stop stop-color="#633FA7"/>
<stop offset="1" stop-color="#281942"/>
</linearGradient>
<linearGradient id="paint26_linear_102_5109" x1="512.252" y1="391.16" x2="188.752" y2="655.16" gradientUnits="userSpaceOnUse">
<stop stop-color="#8DFFEB"/>
<stop offset="0.843053" stop-color="#FF8DDF" stop-opacity="0"/>
</linearGradient>
<linearGradient id="paint27_linear_102_5109" x1="882.411" y1="635.313" x2="954.35" y2="662.693" gradientUnits="userSpaceOnUse">
<stop stop-color="#73AC9E"/>
<stop offset="0.553099" stop-color="white"/>
<stop offset="1" stop-color="#AC739C" stop-opacity="0"/>
</linearGradient>
</defs>
</svg>
