<?xml version="1.0" encoding="UTF-8"?>
<svg data-bbox="-335.32 -33.2 701.55 400.07" viewBox="0 0 360 360" xmlns="http://www.w3.org/2000/svg" data-type="ugc">
    <g>
        <path fill="#dbd3ba" d="M366.23-5.6v372.47H-6.24V-5.6h372.47z"/>
        <path fill="#dbd3ba" d="M-143.11-33.2v192.21h-192.21V-33.2h192.21z"/>
        <path d="M245.61 150.88H68.07c.07-77.44.3-84.64 0-98.21-.06-2.63-.29-10.28 4.65-14.75 3.84-3.48 9.07-3.46 11.04-3.47 84.75-.58 108.73-.2 145.78.19 3.17.03 6-.15 11.28 5.4 4.44 4.67 5.07 11.54 5.15 14.34.4 14.15.24 20.41-.36 96.5z" fill="#eae3ce"/>
        <path d="M95.01 327.11c-1.03 0-2.22-.04-3.52-.14-10.45-.86-19.27-4.61-26.22-11.15-7.67-7.22-12.04-16.96-12.99-28.95-.24-2.98-.1-5.33-.04-6.46l.01-.18V67.87c0-5.11 4.14-9.25 9.25-9.25s9.25 4.14 9.25 9.25v212.52c0 .21-.01.57-.04 1.07-.04.77-.13 2.21.01 3.94.22 2.71.87 10.96 7.24 16.96 5.75 5.42 12.75 5.99 15.05 6.18 1.95.16 3.44.04 4.01 0 21.84-1.71 102.62-1.47 123.17-.01.51.03 1.98.14 3.91 0 3.36-.24 10.34-.75 14.58-5.22 3.93-4.15 4.33-10.71 4.64-15.98.06-1.02.11-2.61 0-4.36-.51-8.43-.68-85-.02-215.13.03-5.09 4.16-9.2 9.25-9.2h.05c5.11.03 9.23 4.19 9.2 9.3-.65 128.35-.5 205.99-.02 213.87.13 2.2.13 4.41 0 6.63-.42 6.95-1.11 18.56-9.68 27.61-9.18 9.69-21.89 10.6-26.68 10.95-3.25.23-5.7.06-6.51 0-20.16-1.43-99.13-1.68-120.42-.01-.57.02-1.81.12-3.48.12z" fill="#b5ad9a"/>
        <path d="M85.5 254.46c-2.42 0-4.38-1.96-4.38-4.38V134.39c0-2.42 1.96-4.38 4.38-4.38s4.38 1.96 4.38 4.38v115.68a4.38 4.38 0 0 1-4.38 4.39z" fill="#b5ad9a"/>
        <path d="M191.78 270.85c-2.42 0-4.38-1.96-4.38-4.38V118c0-2.42 1.96-4.38 4.38-4.38s4.38 1.96 4.38 4.38v148.47c0 2.42-1.96 4.38-4.38 4.38z" fill="#b5ad9a"/>
        <path d="M121.19 270.85c-2.42 0-4.38-1.96-4.38-4.38V118c0-2.42 1.96-4.38 4.38-4.38s4.38 1.96 4.38 4.38v148.47c.01 2.42-1.96 4.38-4.38 4.38z" fill="#b5ad9a"/>
        <path d="M156.89 277.23c-2.42 0-4.38-1.96-4.38-4.38V111.62c0-2.42 1.96-4.38 4.38-4.38s4.38 1.96 4.38 4.38v161.22a4.38 4.38 0 0 1-4.38 4.39z" fill="#b5ad9a"/>
        <path d="M226.67 254.46c-2.42 0-4.38-1.96-4.38-4.38V134.39c0-2.42 1.96-4.38 4.38-4.38s4.38 1.96 4.38 4.38v115.68a4.375 4.375 0 0 1-4.38 4.39z" fill="#b5ad9a"/>
        <path d="M283.36 290.7h-22.52c-5.11 0-9.25-4.14-9.25-9.25s4.14-9.25 9.25-9.25h21.47c2.8-.71 8.13-2.71 11.92-8.03 3.37-4.73 3.81-9.72 3.77-12.27V120.82c0-7.35-1.72-12.6-5.1-15.58-4.88-4.3-12.44-3.39-12.51-3.38-.45.07-.81.09-1.26.09h-19.67c-5.11 0-9.25-4.14-9.25-9.25s4.14-9.25 9.25-9.25h19.12c3.52-.37 16.23-1 26.33 7.72 7.69 6.64 11.59 16.62 11.59 29.65v130.9c.06 4.84-.81 14.21-7.2 23.19-8.01 11.25-19.5 14.66-24.07 15.6-.62.13-1.24.19-1.87.19z" fill="#b5ad9a"/>
        <path fill="#eae3ce" d="M-213.95 88.81c0 13.238-11.314 23.97-25.27 23.97s-25.27-10.732-25.27-23.97 11.314-23.97 25.27-23.97 25.27 10.732 25.27 23.97z"/>
        <path fill="none" stroke="#b5ad9a" stroke-width="5" stroke-miterlimit="10" d="M-236.95 58.25v61.12h-67.81V58.25h67.81z"/>
    </g>
</svg>
