<svg width="2179" height="2283" viewBox="0 0 2179 2283" fill="none" xmlns="http://www.w3.org/2000/svg">
<g clip-path="url(#clip0_419_386)">
<path d="M1089 675C831.495 675 622 884.268 622 1141.5C622 1398.72 831.495 1608 1089 1608C1346.5 1608 1556 1398.72 1556 1141.5C1556 884.272 1346.5 675 1089 675Z" fill="#FFDB39"/>
<path d="M1952.14 1141.5L2164.18 856.597C2178.68 837.128 2182.83 811.838 2175.33 788.754C2167.82 765.671 2149.6 747.654 2126.43 740.416L1787.39 634.538L1791.44 279.439C1791.72 255.167 1780.21 232.268 1760.58 218.001C1740.93 203.733 1715.59 199.864 1692.6 207.632L1356.07 321.218L1150.59 31.5602C1136.54 11.7614 1113.77 0 1089.5 0C1065.22 0 1042.45 11.7614 1028.41 31.5602L822.924 321.223L486.392 207.637C463.389 199.874 438.049 203.738 418.412 218.006C398.774 232.273 387.265 255.172 387.544 279.444L391.599 634.543L52.5651 740.421C29.3924 747.659 11.1677 765.676 3.66811 788.759C-3.83646 811.843 0.317769 837.128 14.8126 856.602L226.853 1141.5L14.8126 1426.4C0.317769 1445.87 -3.83146 1471.16 3.66811 1494.25C11.1677 1517.33 29.3973 1535.35 52.5651 1542.58L391.599 1648.46L387.544 2003.56C387.265 2027.83 398.774 2050.73 418.412 2064.99C438.054 2079.26 463.384 2083.13 486.392 2075.36L822.924 1961.78L1028.41 2251.44C1042.45 2271.24 1065.22 2283 1089.5 2283C1113.77 2283 1136.54 2271.24 1150.59 2251.44L1356.07 1961.78L1692.6 2075.36C1715.6 2083.13 1740.94 2079.26 1760.58 2064.99C1780.22 2050.73 1791.73 2027.83 1791.45 2003.56L1787.4 1648.46L2126.43 1542.58C2149.6 1535.35 2167.83 1517.33 2175.33 1494.25C2182.83 1471.16 2178.68 1445.88 2164.19 1426.4L1952.14 1141.5ZM1089.5 1870.18C687.622 1870.18 360.672 1543.29 360.672 1141.49C360.672 739.692 687.622 412.808 1089.5 412.808C1491.37 412.808 1818.33 739.692 1818.33 1141.49C1818.33 1543.29 1491.37 1870.18 1089.5 1870.18Z" fill="#FFDB39"/>
</g>
<defs>
<clipPath id="clip0_419_386">
<rect width="2179" height="2283" fill="white"/>
</clipPath>
</defs>
</svg>
