<svg width="399" height="385" viewBox="0 0 399 385" fill="none" xmlns="http://www.w3.org/2000/svg">
<path d="M71.9 89.2001L19 124.6L36.2 185.8L99.7999 188.3L121.9 128.7L71.9 89.2001Z" fill="#FFE98F"/>
<path d="M101.069 188.113L37.4651 185.63L15.3808 245.242L65.347 284.67L118.274 249.466L101.069 188.113Z" fill="#FFE266"/>
<path d="M286.945 134.135L339.694 98.5103L389.875 137.539L368.183 197.378L304.65 195.346L286.945 134.135Z" fill="#FFE266"/>
<path d="M157.1 33.6002L93.4001 31.2002L71.5001 90.8002L121.5 130.1L174.4 94.8002L157.1 33.6002Z" fill="#FFF0B3"/>
<path d="M209.8 0L156.9 35.4L174.1 96.6L237.7 99.1L259.7 39.4L209.8 0Z" fill="#FFF9E1"/>
<path d="M323.032 41.4414L259.45 38.5931L237.029 98.2365L286.751 137.888L339.999 102.863L323.032 41.4414Z" fill="#FFC73B"/>
<path d="M238 94.5L174.4 92L121.4 127.3L99.3 187.1L116.6 248.4L166.6 287.9L230.3 290.4L283.2 255L305.3 195.3L288 133.9L238 94.5Z" fill="#FFE98F"/>
<path d="M119.6 246.5L66.8 281.8L84.0001 343L147.5 345.6L169.6 285.9L119.6 246.5Z" fill="#FFC73B"/>
<path d="M232.7 288L169 285.5L147.2 345.3L197.1 384.6L250 349.2L232.7 288Z" fill="#FFF9E1"/>
<path d="M285.1 251.2L232.3 286.6L249.5 347.8L313 350.3L335.1 290.6L285.1 251.2Z" fill="#FFF0B3"/>
<path d="M368.4 196.4L304.7 194L282.8 253.7L332.8 293L385.7 257.6L368.4 196.4Z" fill="#FFE98F"/>
</svg>
