<svg width="1862" height="1862" viewBox="0 0 1862 1862" fill="none" xmlns="http://www.w3.org/2000/svg">
<rect width="1862" height="1862" fill="#520000"/>
<g clip-path="url(#clip0_101_5)">
<path d="M961.223 1585C963.607 1584.92 966.347 1584.05 967.848 1581.94L1304.96 1178.76C1310.57 1171.74 1310.95 1170.17 1303.43 1170.1L628.187 1171.88C618.907 1172.64 618.866 1172.18 624.875 1180.03L956.129 1583.22C956.813 1584.28 958.839 1585.06 961.225 1585L961.223 1585ZM896.502 1549.09L592.515 1179.52C588.443 1174.59 587.451 1174.31 580.284 1177.74L420.008 1251.09C409.509 1255.83 410.964 1256.8 417.969 1261.54L896.562 1549.12L896.502 1549.09ZM1038.43 1535.59C1038.57 1535.89 1041.04 1534.04 1046.58 1530.24L1487.9 1239.89L1349.79 1177.23C1342.59 1174.86 1340.44 1174.73 1335.78 1180.54L1044.53 1528.21C1040.43 1532.95 1038.28 1535.29 1038.42 1535.59L1038.43 1535.59ZM898.792 1388.37C879.284 1388.37 863.666 1381.65 852.162 1368.25C840.663 1354.92 834.173 1335.87 832.541 1311.2C830.914 1286.59 835.041 1267.55 844.772 1254.15C854.508 1240.82 869.091 1234.28 888.599 1234.28C908.175 1234.28 923.73 1240.82 935.23 1254.15C946.732 1267.55 953.222 1286.59 954.85 1311.2C956.482 1335.87 952.355 1354.92 942.619 1368.25C932.888 1381.65 918.368 1388.37 898.792 1388.37L898.792 1388.37ZM1026.96 1386.85C1009.18 1386.85 995.845 1382.96 987.213 1375.13C978.514 1367.3 975.405 1356.52 977.53 1342.53C978.759 1334.44 981.965 1326.89 987.213 1319.86C992.451 1312.9 1002.6 1303.33 1017.79 1291.59L1053.72 1263.83L988.487 1263.83L992.564 1235.81L1100.6 1235.81L1096.27 1263.83L1034.86 1311.71C1029.35 1316.09 1025.08 1320.27 1022.12 1324.45C1019.16 1328.62 1017.45 1333.18 1016.77 1337.69C1015.71 1344.65 1017.04 1350.26 1021.1 1354.5C1025.1 1358.74 1031.17 1360.87 1038.94 1360.87C1044.91 1360.87 1051.57 1359.38 1059.07 1356.79C1066.55 1354.27 1074.67 1350.63 1083.53 1345.59L1078.69 1378.19C1069.63 1381.04 1060.84 1383.1 1052.19 1384.55C1043.53 1386.08 1035.06 1386.85 1026.96 1386.85L1026.96 1386.85ZM897.008 1362.14C905.236 1362.14 910.813 1358.31 913.826 1350.68C916.843 1343.12 917.857 1330.03 916.629 1311.46C915.387 1292.68 912.756 1279.67 908.73 1271.98C904.704 1264.28 898.611 1260.26 890.383 1260.26C882.221 1260.26 876.573 1264.28 873.566 1271.98C870.558 1279.67 869.521 1292.68 870.762 1311.46C871.991 1330.03 874.646 1343.12 878.662 1350.68C882.617 1358.31 888.78 1362.14 897.008 1362.14L897.008 1362.14ZM1263.43 1341.51C1259.89 1341.51 1257.41 1340.63 1256.29 1338.71C1254.08 1334.89 1256.88 1327.46 1264.45 1316.04C1272.04 1304.58 1280.75 1294.84 1290.69 1287C1300.65 1279.19 1311.68 1273.31 1323.56 1269.43C1331.27 1266.92 1336.59 1266.26 1339.61 1267.65C1342.67 1269.06 1343.37 1272.58 1341.65 1277.84C1347.39 1271.77 1353.39 1266.5 1359.74 1262.3C1366.09 1258.1 1372.56 1254.84 1379.36 1252.62C1389.48 1249.32 1395.58 1249.56 1397.2 1253.39C1398.82 1257.21 1395.91 1264.54 1388.79 1275.29C1381.72 1285.96 1373.82 1295.01 1364.84 1302.29C1355.92 1309.55 1346.22 1314.76 1336.05 1318.08C1329.25 1320.3 1324.5 1320.88 1321.78 1319.61C1319.03 1318.38 1318.39 1315.33 1319.74 1310.69C1313.53 1317.41 1306.96 1323.07 1299.86 1327.76C1292.8 1332.47 1285.41 1336.2 1277.7 1338.71C1271.75 1340.65 1266.96 1341.5 1263.43 1341.51L1263.43 1341.51ZM583.334 1335.4C577.268 1330.32 571.663 1325.08 566.517 1320.12C561.331 1315.15 556.624 1310.37 552.503 1305.6C543.45 1295.12 538.637 1286.97 538.233 1281.15C537.793 1275.29 541.737 1272.29 549.955 1272.23C554.706 1272.23 560.261 1273.62 566.517 1276.05C572.735 1278.49 582.614 1283.48 596.33 1291.33L628.946 1309.93L595.565 1271.47L612.128 1271.22L667.166 1334.89L650.604 1335.14L594.801 1303.3C589.764 1300.47 585.441 1298.29 581.805 1296.94C578.169 1295.58 575.025 1294.88 572.378 1294.9C568.289 1294.9 566.357 1296.44 566.262 1299.23C566.132 1301.98 567.916 1305.6 571.868 1310.18C574.908 1313.7 578.966 1317.72 584.099 1321.9C589.193 1326.07 595.364 1330.39 602.445 1335.14L583.334 1335.39L583.334 1335.4ZM1286.12 1318.33C1288.01 1318.15 1290.56 1317.76 1293.51 1316.8C1299.45 1314.87 1304.71 1312.16 1309.31 1308.91C1313.95 1305.63 1317.73 1301.91 1320.52 1297.7C1323.33 1293.45 1323.95 1290.55 1322.3 1289.3C1320.65 1288.04 1316.72 1288.4 1310.83 1290.32C1304.94 1292.24 1299.71 1294.9 1295.04 1298.21C1290.42 1301.51 1286.64 1305.42 1283.82 1309.67C1281.03 1313.88 1280.42 1316.59 1282.04 1317.82C1282.88 1318.43 1284.23 1318.51 1286.12 1318.33L1286.12 1318.33ZM1341.41 1298.98C1342.92 1298.86 1344.89 1298.48 1347.27 1297.7C1352.04 1296.15 1356.22 1293.83 1360.01 1291.08C1363.86 1288.31 1367.09 1285.2 1369.44 1281.66C1371.84 1278.03 1372.49 1275.65 1371.22 1274.52C1369.93 1273.43 1366.76 1273.75 1362.05 1275.29C1357.28 1276.84 1353.16 1278.89 1349.31 1281.66C1345.44 1284.46 1342.28 1287.71 1339.88 1291.34C1337.53 1294.88 1336.81 1297.12 1338.1 1298.21C1338.74 1298.76 1339.9 1299.09 1341.41 1298.98L1341.41 1298.98ZM396.594 1233.77C397.965 1233.68 400.129 1232.89 403.473 1231.48L568.079 1156.35C573.923 1153.7 573.555 1150.12 571.391 1145.65L380.029 660.461L393.789 1225.64C394.213 1231.82 394.302 1233.95 396.592 1233.79L396.594 1233.77ZM1500.41 1218.75L1517.99 668.857L1355.93 1144.65C1353.54 1151.67 1353.6 1152.03 1358.48 1154.33L1500.41 1218.76L1500.41 1218.75ZM619.28 1147.43L1309.82 1145.65C1319.69 1145.79 1319.28 1145.79 1314.4 1137.75L963.787 546.594C957.865 537.574 958.499 537.857 952.32 547.1L615.463 1139.26C612.514 1143.96 610.403 1147.25 619.285 1147.41L619.28 1147.43ZM591.76 1131.89C592.396 1131.62 593.092 1129.23 595.072 1125.53L934.224 529.023C937.924 522.725 938.805 520.469 929.893 521.891L391.46 596.006C382.921 597.954 383.18 601.007 386.108 609.505L589.279 1125.27C590.623 1130.21 591.189 1132.16 591.827 1131.89L591.76 1131.89ZM1336.33 1126.29C1336.99 1125.82 1337.58 1123.3 1338.88 1119.67L1510.88 613.594C1513.8 602.843 1514.14 598.803 1503.23 596.784L988.786 522.415C979.058 520.953 980.301 525.851 982.67 530.565L1332.81 1120.93C1335.01 1125.39 1335.72 1126.75 1336.38 1126.28L1336.33 1126.29ZM400.164 1119.67L399.145 1098.53L416.472 1087.32L412.395 1010.66L395.068 1027.72L393.794 1006.84L411.376 990.029L429.977 978.058L435.073 1075.61L443.227 1070.51L442.975 1064.4C446.791 1064.93 450.51 1064.69 454.187 1063.89C457.895 1063.02 461.391 1061.53 464.889 1059.31C470.086 1056.01 474.004 1052.15 476.61 1047.59C479.25 1043.02 480.448 1038.07 480.178 1032.82C479.903 1027.42 478.331 1024.34 475.336 1023.4C472.373 1022.38 468.131 1023.48 462.596 1026.96L454.696 1032.06L453.677 1012.19L461.831 1007.1C466.755 1003.97 470.499 1000.31 472.788 996.398C475.074 992.43 476.099 988.081 475.846 983.154C475.611 978.598 474.24 975.751 471.769 974.749C469.297 973.747 465.856 974.578 461.577 977.296C458.418 979.302 455.317 982.029 452.148 985.191C448.979 988.354 445.801 991.944 442.72 996.143L441.701 973.73C445.485 969.575 449.151 966.042 452.913 962.778C456.673 959.515 460.455 956.703 464.124 954.373C474.008 948.096 481.394 945.771 486.548 947.751C491.732 949.656 494.687 955.662 495.211 965.834C495.568 972.775 494.778 979.253 492.663 985.191C490.546 991.077 487.217 996.524 482.725 1001.24C487.96 1000.05 492.042 1001.09 494.955 1004.55C497.901 1007.93 499.391 1013.46 499.797 1021.36C500.401 1033.12 498.12 1043.89 492.663 1053.71C487.203 1063.47 478.764 1071.89 467.692 1078.92C463.786 1081.4 459.962 1083.54 455.971 1085.03C455.154 1085.35 454.247 1085.52 453.422 1085.8L453.171 1086.05L400.171 1119.67L400.164 1119.67ZM1485.89 1078.41C1483.29 1078.58 1480.57 1077.73 1477.48 1075.86C1470.67 1071.74 1465.7 1064.01 1462.7 1052.68C1462.51 1051.97 1462.36 1051.13 1462.2 1050.39L1461.18 1063.89L1424.48 1041.73L1426.01 1023.14L1437.99 1030.27L1443.34 963.54L1430.85 960.993L1432.13 942.909L1444.87 945.202L1457.61 953.097L1450.73 1038.16L1461.18 1044.28C1459.61 1034.52 1459.1 1023.28 1460.16 1010.4C1461.56 993.287 1464.94 981.362 1470.09 974.236C1475.27 967.076 1481.61 965.814 1489.21 970.415C1491.61 971.873 1493.88 973.65 1496.08 975.764C1498.29 977.877 1500.61 980.324 1502.71 983.149L1501.18 1002.25C1499.13 998.825 1496.95 996.007 1495.07 993.846C1493.19 991.639 1491.33 989.885 1489.46 988.752C1485.44 986.318 1482.13 986.689 1479.52 989.771C1476.92 992.806 1475.26 998.62 1474.17 1007.09C1475.9 1005.76 1477.63 1005.07 1479.52 1005.05C1481.42 1004.97 1483.51 1005.55 1485.64 1006.84C1490.99 1010.08 1494.85 1015.72 1497.61 1023.9C1500.4 1032.1 1501.5 1041.37 1500.67 1051.41C1499.76 1062.51 1497.25 1070.36 1493.03 1074.84C1490.92 1077.06 1488.49 1078.23 1485.89 1078.41L1485.89 1078.41ZM1482.07 1059.81C1483.02 1059.6 1483.91 1058.93 1484.61 1057.78C1486.06 1055.45 1486.92 1051.36 1487.42 1045.3C1487.91 1039.24 1487.85 1034.25 1486.91 1030.52C1485.99 1026.76 1484.2 1024.07 1481.81 1022.63C1479.45 1021.2 1477.65 1021.82 1476.21 1024.16C1474.79 1026.46 1473.9 1030.58 1473.41 1036.64C1472.91 1042.7 1473 1047.65 1473.91 1051.41C1474.86 1055.14 1476.39 1057.62 1478.75 1059.05C1479.95 1059.78 1481.12 1060.03 1482.07 1059.82L1482.07 1059.81ZM1077.43 1022.12L1041.25 1022.12L1041.25 995.122L975.252 995.122L975.252 962.266L1034.88 873.632L1077.43 873.632L1077.43 967.361L1098.58 967.361L1098.58 995.124L1077.43 995.124L1077.43 1022.12L1077.43 1022.12ZM952.063 1022.12L848.355 1022.12L848.355 995.631L881.989 995.631L881.989 899.608L847.336 906.74L847.336 880.761L881.989 873.629L918.428 873.629L918.428 995.628L952.063 995.628L952.063 1022.12L952.063 1022.12ZM1041.25 967.361L1041.25 904.962L999.204 967.361L1041.25 967.361ZM1297.33 855.04L1273.38 822.438L1284.59 815.052C1282.86 814.66 1281.26 814.367 1279.49 813.779C1265.42 809.035 1252.47 798.545 1240.76 782.706C1227.85 765.247 1222.64 748.75 1225.22 732.784C1227.88 716.847 1238.24 702.991 1256.05 691.268C1274.31 679.252 1292.68 675.244 1311.34 679.551C1330.1 683.887 1346.61 695.965 1361.03 715.464C1365.6 721.644 1369.75 727.717 1373.26 734.057C1376.78 740.396 1379.8 746.93 1382.44 753.669L1362.05 767.168C1360.06 760.007 1357.61 753.532 1354.92 747.811C1352.28 742.056 1349.29 736.819 1345.74 732.019C1338.11 721.7 1329.77 715.305 1320.77 712.662C1311.83 709.987 1302.47 711.083 1292.49 716.228C1297.83 718.596 1302.67 721.811 1307.27 725.652C1311.92 729.46 1316.23 734.2 1320.26 739.66C1330.42 753.4 1335.44 766.642 1335.04 779.393C1334.68 792.204 1329.19 802.146 1318.48 809.193C1315.52 811.141 1312.41 812.611 1309.31 813.778L1325.87 836.191L1297.33 855.039L1297.33 855.04ZM647.072 807.92L619.299 786.525L574.962 682.608L597.13 649.753L677.141 710.882L688.098 694.581L711.795 712.664L700.584 729.22L723.772 746.793L704.661 774.81L681.728 756.981L647.074 807.919L647.072 807.92ZM1278.23 782.196C1282.55 781.911 1287.14 780.038 1291.99 776.847C1298.45 772.593 1302 768.01 1302.95 762.839C1303.99 757.695 1302.38 751.894 1297.85 745.774C1293.37 739.714 1288.34 736.248 1282.82 735.331C1277.39 734.442 1271.45 736.171 1264.98 740.426C1258.52 744.679 1254.81 749.291 1253.77 754.433C1252.82 759.604 1254.39 765.439 1258.87 771.498C1263.39 777.618 1268.47 781.051 1273.9 781.941C1275.28 782.169 1276.79 782.291 1278.23 782.193L1278.23 782.196ZM636.124 771.243L658.038 738.897L605.038 698.146L636.125 771.242L636.124 771.243ZM1470.12 567.231L965.326 280.95C958.79 276.991 957.263 278.433 958.192 285.28L968.894 485.98C969.185 492.457 970.063 495.095 976.792 496.168L1470.09 567.23L1470.12 567.231ZM426.434 566.725L938.875 495.918C945.636 494.922 944.415 491.605 944.481 486.749L933.523 282.482C932.96 276.284 933.141 274.062 925.625 277.897L426.431 566.726L426.434 566.725ZM747.241 478.601L709.784 437.085L680.482 454.404L672.328 445.235L749.279 399.644L761.764 392.258L838.716 346.667L846.87 355.582L817.567 372.901L847.38 405.502L874.899 385.381L883.053 394.295L855.533 414.162L824.192 432.754L786.48 391.239L769.917 401.172L757.432 408.559L740.869 418.492L770.427 451.093L798.202 430.972L806.1 439.887L778.581 460.007L747.239 478.601L747.241 478.601ZM1084.1 472.488C1074.18 472.038 1065.23 468.613 1056.83 462.301C1047.51 455.292 1043.56 447.733 1045.11 439.378C1046.66 431.022 1053.58 422.668 1065.75 414.417C1072.99 409.51 1080.47 406.157 1087.92 403.975L1079.26 397.353L1098.88 384.109L1116.2 397.098L1109.83 401.428C1120.69 402.139 1130.49 405.687 1139.39 412.38C1142.74 414.9 1145.79 417.35 1148.31 420.021C1150.87 422.669 1153.05 425.507 1154.94 428.426L1140.92 437.849C1139.44 434.655 1137.76 431.965 1135.82 429.444C1133.85 426.947 1131.56 424.536 1128.95 422.567C1123.45 418.439 1117.39 416.327 1111.11 416.2C1104.8 416.097 1098.39 418.157 1091.49 422.058C1095.35 422.543 1098.89 423.33 1102.19 424.605C1105.49 425.88 1108.49 427.539 1111.36 429.699C1118.68 435.195 1122.31 441.35 1122.32 447.783C1122.24 454.213 1118.48 459.85 1111.11 464.847C1102.96 470.371 1093.98 472.909 1084.1 472.488L1084.1 472.488ZM1079.77 457.206C1083.63 456.92 1087.6 455.347 1092 452.367C1096.43 449.364 1099.04 446.444 1099.64 443.707C1100.21 440.993 1098.79 438.491 1095.57 436.066C1092.34 433.642 1088.94 432.489 1085.12 432.755C1081.26 433.046 1077.06 434.847 1072.63 437.849C1068.24 440.829 1065.85 443.517 1065.24 446.254C1064.64 448.991 1065.84 451.725 1069.06 454.15C1072.29 456.574 1075.91 457.495 1079.77 457.206L1079.77 457.206Z" fill="#FFEE59"/>
</g>
<defs>
<clipPath id="clip0_101_5">
<rect width="1138" height="1309" fill="white" transform="translate(1518 1585) rotate(180)"/>
</clipPath>
</defs>
</svg>
